<svg width="181" height="253" viewBox="0 0 181 253" fill="none" xmlns="http://www.w3.org/2000/svg">
<path d="M180.1 231.1C180.1 242.9 173.3 252.5 164.9 252.5H16.5999C8.1999 252.5 1.3999 242.9 1.3999 231.1V21.9C1.3999 10.1 8.1999 0.5 16.5999 0.5H164.9C173.3 0.5 180.1 10.1 180.1 21.9V231.1Z" fill="white" stroke="#1D1D1B" stroke-miterlimit="10"/>
<path d="M90.5999 55.6C90.9999 55.3 91.2999 54.9 91.5999 54.6L102.2 41.7L108 34.6C111 31 110.5 25.6 106.8 22.6L106.2 22.1C102.6 19.1 97.1999 19.6 94.1999 23.3L90.6999 27.5L87.2999 23.3C84.2999 19.7 78.9999 19.1 75.2999 22L74.6999 22.5C71.0999 25.5 70.4999 30.8 73.4999 34.5L89.6999 54.5C89.9999 55 90.2999 55.3 90.5999 55.6Z" fill="#E30B13"/>
<path d="M90.4 194.1C90 194.4 89.7 194.8 89.4 195.1L78.8 208L73 215.1C70 218.7 70.5 224.1 74.2 227.1L74.8 227.6C78.4 230.6 83.8 230.1 86.8 226.4L90.3 222.2L93.7 226.4C96.7 230 102 230.6 105.7 227.7L106.3 227.2C109.9 224.2 110.5 218.9 107.5 215.2L91.3 195.2C91.1 194.7 90.7 194.4 90.4 194.1Z" fill="#E30B13"/>
<path d="M161.6 203.9C161.4 204.1 161.3 204.2 161.1 204.4L155.9 210.8L153 214.3C151.5 216.1 151.8 218.8 153.6 220.2L153.9 220.5C155.7 222 158.4 221.7 159.8 219.9L161.5 217.8L163.2 219.9C164.7 221.7 167.3 222 169.1 220.5L169.4 220.2C171.2 218.7 171.5 216.1 170 214.3L161.9 204.4C161.9 204.2 161.8 204 161.6 203.9Z" fill="#E30B13"/>
<path d="M16.9998 48C17.1998 47.8 17.2998 47.7 17.4998 47.5L22.6998 41.1L25.5998 37.6C27.0998 35.8 26.7998 33.1 24.9998 31.7L24.6998 31.4C22.8998 29.9 20.1998 30.2 18.7998 32L17.0998 34.1L15.3998 32C13.8998 30.2 11.2998 29.9 9.49982 31.4L9.19982 31.7C7.39982 33.2 7.09982 35.8 8.59982 37.6L16.6998 47.5C16.5998 47.7 16.7998 47.8 16.9998 48Z" fill="#E30B13"/>
<path d="M21.0999 19.2H23.2999V23.8H12.0999V22.6C12.0999 20.5 12.8999 18.6 14.3999 16.9C14.9999 16.3 16.4999 15.1 18.6999 13.4C20.2999 12.3 20.9999 11.3 20.9999 10.5C20.9999 9.7 20.5999 9.2 19.6999 8.7C18.9999 8.4 18.2999 8.2 17.3999 8.2C15.2999 8.2 14.1999 8.9 14.1999 10.3C14.1999 10.6 14.2999 10.9 14.3999 11.3L12.4999 12.3C12.1999 11.6 12.0999 11 12.0999 10.4C12.0999 8.9 12.5999 7.8 13.6999 7C14.6999 6.3 15.8999 6 17.4999 6C19.0999 6 20.2999 6.4 21.3999 7.1C22.6999 8 23.2999 9.1 23.2999 10.5C23.2999 11.8 22.5999 13.1 21.2999 14.3C19.9999 15.3 18.6999 16.3 17.2999 17.3C15.7999 18.6 14.7999 20 14.4999 21.4H21.0999V19.2Z" fill="#E30B13"/>
<path d="M158.3 233.2H156.1V228.7H167.4V229.9C167.4 232 166.6 233.9 165.1 235.6C164.5 236.2 163 237.4 160.8 239.1C159.2 240.2 158.5 241.2 158.5 242C158.5 242.8 158.9 243.3 159.8 243.8C160.5 244.1 161.2 244.3 162.1 244.3C164.2 244.3 165.3 243.6 165.3 242.2C165.3 241.9 165.2 241.6 165.1 241.2L167.2 240.3C167.5 241 167.6 241.6 167.6 242.2C167.6 243.7 167.1 244.8 166 245.6C165 246.3 163.8 246.6 162.2 246.6C160.7 246.6 159.4 246.2 158.3 245.5C157 244.6 156.4 243.5 156.4 242.1C156.4 240.8 157.1 239.5 158.4 238.3C159.7 237.3 161 236.3 162.4 235.3C163.9 234 164.9 232.6 165.2 231.2H158.6V233.2H158.3Z" fill="#E30B13"/>
</svg>
