<svg width="180" height="253" viewBox="0 0 180 253" fill="none" xmlns="http://www.w3.org/2000/svg">
<path d="M179.4 231.1C179.4 242.9 172.6 252.5 164.2 252.5H16.0001C7.60006 252.5 0.800049 242.9 0.800049 231.1V21.9C0.800049 10.1 7.60006 0.5 16.0001 0.5H164.3C172.7 0.5 179.5 10.1 179.5 21.9V231.1H179.4Z" fill="white" stroke="#1D1D1B" stroke-miterlimit="10"/>
<path d="M18.6002 25.3C17.3002 25.3 16.1002 24.8 15.0002 23.9C14.0002 23.1 13.3001 22 12.9001 20.6L15.0002 19.8C15.3002 20.7 15.7001 21.4 16.3001 21.9C17.0001 22.5 17.7002 22.9 18.6002 22.9C19.7002 22.9 20.6001 22.5 21.4001 21.6C22.2001 20.8 22.6002 19.8 22.6002 18.8C22.6002 17.8 22.3002 16.9 21.6002 16.2C20.9002 15.5 20.1002 15.2 19.0002 15.2C18.5002 15.2 18.1001 15.3 17.8001 15.4C17.5001 15.5 17.2001 15.8 16.8001 16.1L15.2002 14.5L20.4001 9.59998H15.4001V11.8H13.2002V7.20001H24.7002V8.59998L20.2002 12.8C21.6002 13.1 22.7002 13.7 23.6002 14.8C24.4002 15.9 24.9001 17.1 24.9001 18.6C24.9001 20.3 24.3002 21.8 23.1002 23.1C21.7002 24.7 20.3002 25.3 18.6002 25.3Z" fill="#E30B13"/>
<path d="M165.5 227.2C166.8 227.2 168 227.7 169.1 228.6C170.1 229.4 170.8 230.5 171.2 231.9L169.1 232.7C168.8 231.8 168.4 231.1 167.8 230.6C167.1 230 166.4 229.6 165.5 229.6C164.4 229.6 163.5 230 162.7 230.9C161.9 231.7 161.5 232.7 161.5 233.7C161.5 234.7 161.8 235.6 162.5 236.3C163.2 237 164 237.3 165.1 237.3C165.6 237.3 166 237.2 166.3 237.1C166.6 237 166.9 236.7 167.3 236.4L168.9 238L163.7 242.9H168.7V240.7H170.9V245.3H159.5V243.9L164 239.7C162.6 239.4 161.5 238.8 160.6 237.7C159.8 236.6 159.3 235.4 159.3 233.9C159.3 232.2 159.9 230.7 161.1 229.4C162.3 227.9 163.8 227.2 165.5 227.2Z" fill="#E30B13"/>
<path d="M11.6001 36.5L18.6001 45.3L25.7001 36.5L18.6001 27.8L11.6001 36.5Z" fill="#E30B13"/>
<path d="M157.5 213.7L164.5 222.6L171.6 213.7L164.6 205L157.5 213.7Z" fill="#E30B13"/>
<path d="M76.6001 32.9L91.0001 51.1L105.5 32.9L91.0001 15L76.6001 32.9Z" fill="#E30B13"/>
<path d="M76.6001 213.5L91.0001 231.7L105.5 213.5L91.0001 195.6L76.6001 213.5Z" fill="#E30B13"/>
<path d="M76.6001 122.8L91.0001 141L105.5 122.8L91.0001 104.9L76.6001 122.8Z" fill="#E30B13"/>
</svg>
