<svg width="180" height="253" viewBox="0 0 180 253" fill="none" xmlns="http://www.w3.org/2000/svg">
<path d="M179.4 231.1C179.4 242.9 172.6 252.5 164.2 252.5H16.0001C7.60006 252.5 0.800049 242.9 0.800049 231.1V21.9C0.800049 10.1 7.60006 0.5 16.0001 0.5H164.3C172.7 0.5 179.5 10.1 179.5 21.9V231.1H179.4Z" fill="white" stroke="#1D1D1B" stroke-miterlimit="10"/>
<path d="M91.2 56.9C91.6 56.6 91.9 56.2 92.2 55.9L102.8 43L108.6 35.9C111.6 32.3 111.1 26.9 107.4 23.9L106.8 23.4C103.2 20.4 97.8 20.9 94.8 24.6L91.3 28.8L87.9 24.6C84.9 21 79.6 20.4 75.9 23.3L75.3 23.8C71.7 26.8 71.1 32.1 74.1 35.8L90.3 55.8C90.5 56.3 90.8 56.6 91.2 56.9Z" fill="#E30B13"/>
<path d="M91.0001 144.8C91.4001 144.5 91.7001 144.1 92.0001 143.8L102.6 130.9L108.4 123.8C111.4 120.2 110.9 114.8 107.2 111.8L106.6 111.3C103 108.3 97.6001 108.8 94.6001 112.5L91.1001 116.7L87.7001 112.5C84.7001 108.9 79.4001 108.3 75.7001 111.2L75.1001 111.7C71.5001 114.7 70.9001 120 73.9001 123.7L90.1001 143.7C90.4001 144.2 90.7001 144.5 91.0001 144.8Z" fill="#E30B13"/>
<path d="M91.0001 195.5C90.6001 195.8 90.3001 196.2 90.0001 196.5L79.4001 209.4L73.6001 216.5C70.6001 220.1 71.1001 225.5 74.8001 228.5L75.4001 229C79.0001 232 84.4001 231.5 87.4001 227.8L90.9001 223.6L94.3001 227.8C97.3001 231.4 102.6 232 106.3 229.1L106.9 228.6C110.5 225.6 111.1 220.3 108.1 216.6L91.9001 196.6C91.7001 196.2 91.3001 195.8 91.0001 195.5Z" fill="#E30B13"/>
<path d="M162.8 203.9C162.6 204.1 162.5 204.2 162.3 204.4L157.1 210.8L154.2 214.3C152.7 216.1 153 218.8 154.8 220.2L155.1 220.5C156.9 222 159.6 221.7 161 219.9L162.7 217.8L164.4 219.9C165.9 221.7 168.5 222 170.3 220.5L170.6 220.2C172.4 218.7 172.7 216.1 171.2 214.3L163.1 204.4C163.2 204.2 163 204 162.8 203.9Z" fill="#E30B13"/>
<path d="M18.1002 48C18.3002 47.8 18.4002 47.7 18.6002 47.5L23.8001 41.1L26.7002 37.6C28.2002 35.8 27.9002 33.1 26.1002 31.7L25.8001 31.4C24.0001 29.9 21.3002 30.2 19.9002 32L18.2002 34.1L16.5002 32C15.0002 30.2 12.4002 29.9 10.6002 31.4L10.3001 31.7C8.50015 33.2 8.20017 35.8 9.70017 37.6L17.8001 47.5C17.7001 47.7 17.9002 47.8 18.1002 48Z" fill="#E30B13"/>
<path d="M18.6002 25.3C17.3002 25.3 16.1002 24.8 15.0002 23.9C14.0002 23.1 13.3001 22 12.9001 20.6L15.0002 19.8C15.3002 20.7 15.7001 21.4 16.3001 21.9C17.0001 22.5 17.7002 22.9 18.6002 22.9C19.7002 22.9 20.6001 22.5 21.4001 21.6C22.2001 20.8 22.6002 19.8 22.6002 18.8C22.6002 17.8 22.3002 16.9 21.6002 16.2C20.9002 15.5 20.1002 15.2 19.0002 15.2C18.5002 15.2 18.1001 15.3 17.8001 15.4C17.5001 15.5 17.2001 15.8 16.8001 16.1L15.2002 14.5L20.4001 9.60001H15.4001V11.8H13.2002V7.20001H24.7002V8.60001L20.2002 12.8C21.6002 13.1 22.7002 13.7 23.6002 14.8C24.4002 15.9 24.9001 17.1 24.9001 18.6C24.9001 20.3 24.3002 21.8 23.1002 23.1C21.7002 24.6 20.3002 25.3 18.6002 25.3Z" fill="#E30B13"/>
<path d="M162.1 227.7C163.4 227.7 164.6 228.2 165.7 229.1C166.7 229.9 167.4 231 167.8 232.4L165.7 233.2C165.4 232.3 165 231.6 164.4 231.1C163.7 230.5 163 230.1 162.1 230.1C161 230.1 160.1 230.5 159.3 231.4C158.5 232.2 158.1 233.2 158.1 234.2C158.1 235.2 158.4 236.1 159.1 236.8C159.8 237.5 160.6 237.8 161.7 237.8C162.2 237.8 162.6 237.7 162.9 237.6C163.2 237.5 163.5 237.2 163.9 236.9L165.5 238.5L160.3 243.4H165.3V241.2H167.5V245.8H156V244.4L160.5 240.2C159.1 239.9 158 239.3 157.1 238.2C156.3 237.1 155.8 235.9 155.8 234.4C155.8 232.7 156.4 231.2 157.6 229.9C159 228.4 160.4 227.7 162.1 227.7Z" fill="#E30B13"/>
</svg>
