<svg width="181" height="254" viewBox="0 0 181 254" fill="none" xmlns="http://www.w3.org/2000/svg">
<path d="M179.8 231.6C179.8 243.4 173 253 164.6 253H16.3001C7.90008 253 1.1001 243.4 1.1001 231.6V22.5001C1.1001 10.7001 7.90008 1.1001 16.3001 1.1001H164.6C173 1.1001 179.8 10.7001 179.8 22.5001V231.6Z" fill="white" stroke="#1D1D1B" stroke-miterlimit="10"/>
<path d="M15.7001 21.4001H17.1001V19.6001H10.1001V17.8001L17.4001 6.30011H19.3001V17.4001H21.5001V19.7001H19.3001V21.5001H20.4001V23.8001H15.7001V21.4001ZM13.2001 17.3001H17.2001V11.0001L13.2001 17.3001Z" fill="#13110C"/>
<path d="M162.6 230.2H161.2V232H168.2V233.8L160.9 245.3H159V234.2H156.8V231.9H159V230.1H157.9V227.8H162.6V230.2ZM165.1 234.4H161.1V240.7L165.1 234.4Z" fill="#13110C"/>
<path d="M16.0002 40.0001L14.5002 41.8001C13.2002 43.3001 11.0002 43.6001 9.50018 42.3001L9.20019 42.1001C7.70019 40.8001 7.40019 38.6001 8.70019 37.1001L11.1002 34.1001L15.5002 28.7001C15.6002 28.5001 15.8002 28.4001 15.9002 28.3001C16.0002 28.4001 16.2002 28.6001 16.3002 28.7001L23.1002 37.1001C24.3002 38.6001 24.1002 40.9001 22.6002 42.1001L22.3002 42.3001C20.8002 43.5001 18.5002 43.3001 17.3002 41.8001L16.0002 40.0001L16.8002 39.1001C16.8002 39.1001 15.2002 42.9001 12.9002 45.1001H18.8002C18.8002 45.1001 15.9002 42.1001 16.0002 40.0001Z" fill="#13110C"/>
<path d="M16.0002 40.0001L14.5002 41.8001C13.2002 43.3001 11.0002 43.6001 9.50018 42.3001L9.20019 42.1001C7.70019 40.8001 7.40019 38.6001 8.70019 37.1001L11.1002 34.1001L15.5002 28.7001C15.6002 28.5001 15.8002 28.4001 15.9002 28.3001C16.0002 28.4001 16.2002 28.6001 16.3002 28.7001L23.1002 37.1001C24.3002 38.6001 24.1002 40.9001 22.6002 42.1001L22.3002 42.3001C20.8002 43.5001 18.5002 43.3001 17.3002 41.8001L16.0002 40.0001ZM16.0002 40.0001L16.8002 39.1001C16.8002 39.1001 15.2002 42.9001 12.9002 45.1001H18.8002C18.8002 45.1001 15.9002 42.1001 16.0002 40.0001Z" stroke="#13110C" stroke-miterlimit="10"/>
<path d="M161.4 212.8L162.9 211C164.2 209.5 166.4 209.2 167.9 210.5L168.2 210.7C169.7 212 170 214.2 168.7 215.7L166.3 218.7L161.9 224.1C161.8 224.3 161.6 224.4 161.5 224.5C161.4 224.4 161.2 224.2 161.1 224.1L154.3 215.7C153.1 214.2 153.3 211.9 154.8 210.7L155.1 210.5C156.6 209.3 158.9 209.5 160.1 211L161.4 212.8L160.6 213.7C160.6 213.7 162.2 209.9 164.5 207.7H158.5C158.5 207.7 161.4 210.7 161.4 212.8Z" fill="#13110C"/>
<path d="M161.4 212.8L162.9 211C164.2 209.5 166.4 209.2 167.9 210.5L168.2 210.7C169.7 212 170 214.2 168.7 215.7L166.3 218.7L161.9 224.1C161.8 224.3 161.6 224.4 161.5 224.5C161.4 224.4 161.2 224.2 161.1 224.1L154.3 215.7C153.1 214.2 153.3 211.9 154.8 210.7L155.1 210.5C156.6 209.3 158.9 209.5 160.1 211L161.4 212.8ZM161.4 212.8L160.6 213.7C160.6 213.7 162.2 209.9 164.5 207.7H158.5C158.5 207.7 161.4 210.7 161.4 212.8Z" stroke="#13110C" stroke-miterlimit="10"/>
<path d="M53.5 207.6L56.5 204C59 200.9 63.6 200.5 66.7 203L67.2 203.4C70.3 205.9 70.7 210.5 68.2 213.6L63.3 219.6L54.3 230.5C54 230.8 53.7 231.1 53.4 231.4C53.1 231.1 52.8 230.9 52.6 230.6L38.8 213.6C36.3 210.5 36.8 205.9 39.9 203.4L40.4 203C43.5 200.5 48.1 201 50.6 204.1L53.5 207.6L51.9 209.5C51.9 209.5 55.1 201.9 59.8 197.4H47.8C47.7 197.4 53.6 203.4 53.5 207.6Z" fill="#13110C"/>
<path d="M53.5 207.6L56.5 204C59 200.9 63.6 200.5 66.7 203L67.2 203.4C70.3 205.9 70.7 210.5 68.2 213.6L63.3 219.6L54.3 230.5C54 230.8 53.7 231.1 53.4 231.4C53.1 231.1 52.8 230.9 52.6 230.6L38.8 213.6C36.3 210.5 36.8 205.9 39.9 203.4L40.4 203C43.5 200.5 48.1 201 50.6 204.1L53.5 207.6ZM53.5 207.6L51.9 209.5C51.9 209.5 55.1 201.9 59.8 197.4H47.8C47.7 197.4 53.6 203.4 53.5 207.6Z" stroke="#13110C" stroke-miterlimit="10"/>
<path d="M53 46.2001L50 49.8001C47.5 52.9001 42.9 53.3001 39.8 50.8001L39.3 50.4001C36.2 47.9001 35.8 43.3001 38.3 40.2001L43.2 34.2001L52.2 23.2001C52.5 22.9001 52.8 22.6001 53.1 22.3001C53.4 22.6001 53.7 22.8001 53.9 23.1001L67.7 40.1001C70.2 43.2001 69.7 47.8001 66.6 50.3001L66.1 50.7001C63 53.2001 58.4 52.7001 55.9 49.6001L53 46.2001L54.6 44.3001C54.6 44.3001 51.4 51.9001 46.7 56.4001H58.7C58.8 56.4001 52.9 50.5001 53 46.2001Z" fill="#13110C"/>
<path d="M53 46.2001L50 49.8001C47.5 52.9001 42.9 53.3001 39.8 50.8001L39.3 50.4001C36.2 47.9001 35.8 43.3001 38.3 40.2001L43.2 34.2001L52.2 23.2001C52.5 22.9001 52.8 22.6001 53.1 22.3001C53.4 22.6001 53.7 22.8001 53.9 23.1001L67.7 40.1001C70.2 43.2001 69.7 47.8001 66.6 50.3001L66.1 50.7001C63 53.2001 58.4 52.7001 55.9 49.6001L53 46.2001ZM53 46.2001L54.6 44.3001C54.6 44.3001 51.4 51.9001 46.7 56.4001H58.7C58.8 56.4001 52.9 50.5001 53 46.2001Z" stroke="#13110C" stroke-miterlimit="10"/>
<path d="M131 207.4L134 203.8C136.5 200.7 141.1 200.3 144.2 202.8L144.7 203.2C147.8 205.7 148.2 210.3 145.7 213.4L140.8 219.4L131.8 230.3C131.5 230.6 131.2 230.9 130.9 231.2C130.6 230.9 130.3 230.7 130.1 230.4L116.3 213.4C113.8 210.3 114.3 205.7 117.4 203.2L117.9 202.8C121 200.3 125.6 200.8 128.1 203.9L131 207.4L129.4 209.3C129.4 209.3 132.6 201.7 137.3 197.2H125.3C125.2 197.2 131.1 203.2 131 207.4Z" fill="#13110C"/>
<path d="M131 207.4L134 203.8C136.5 200.7 141.1 200.3 144.2 202.8L144.7 203.2C147.8 205.7 148.2 210.3 145.7 213.4L140.8 219.4L131.8 230.3C131.5 230.6 131.2 230.9 130.9 231.2C130.6 230.9 130.3 230.7 130.1 230.4L116.3 213.4C113.8 210.3 114.3 205.7 117.4 203.2L117.9 202.8C121 200.3 125.6 200.8 128.1 203.9L131 207.4ZM131 207.4L129.4 209.3C129.4 209.3 132.6 201.7 137.3 197.2H125.3C125.2 197.2 131.1 203.2 131 207.4Z" stroke="#13110C" stroke-miterlimit="10"/>
<path d="M130.5 46.1001L127.5 49.7001C125 52.8001 120.4 53.2001 117.3 50.7001L116.8 50.3001C113.7 47.8001 113.3 43.2001 115.8 40.1001L120.7 34.1001L129.7 23.1001C130 22.8001 130.3 22.5001 130.6 22.2001C130.9 22.5001 131.2 22.7001 131.4 23.0001L145.2 40.0001C147.7 43.1001 147.2 47.7001 144.1 50.2001L143.6 50.6001C140.5 53.1001 135.9 52.6001 133.4 49.5001L130.5 46.1001L132.1 44.2001C132.1 44.2001 128.9 51.8001 124.2 56.3001H136.2C136.3 56.3001 130.4 50.3001 130.5 46.1001Z" fill="#13110C"/>
<path d="M130.5 46.1001L127.5 49.7001C125 52.8001 120.4 53.2001 117.3 50.7001L116.8 50.3001C113.7 47.8001 113.3 43.2001 115.8 40.1001L120.7 34.1001L129.7 23.1001C130 22.8001 130.3 22.5001 130.6 22.2001C130.9 22.5001 131.2 22.7001 131.4 23.0001L145.2 40.0001C147.7 43.1001 147.2 47.7001 144.1 50.2001L143.6 50.6001C140.5 53.1001 135.9 52.6001 133.4 49.5001L130.5 46.1001ZM130.5 46.1001L132.1 44.2001C132.1 44.2001 128.9 51.8001 124.2 56.3001H136.2C136.3 56.3001 130.4 50.3001 130.5 46.1001Z" stroke="#13110C" stroke-miterlimit="10"/>
</svg>
