<svg width="181" height="254" viewBox="0 0 181 254" fill="none" xmlns="http://www.w3.org/2000/svg">
<path d="M179.6 231.5C179.6 243.3 172.8 252.9 164.4 252.9H16.2C7.80001 252.9 1 243.3 1 231.5V22.4C1 10.6 7.80001 1 16.2 1H164.5C172.9 1 179.7 10.6 179.7 22.4V231.5H179.6Z" fill="white" stroke="#1D1D1B" stroke-miterlimit="10"/>
<path d="M17.5999 25.9C16.2999 25.9 15.1999 25.5 14.0999 24.6C13.1999 23.8 12.4999 22.8 11.8999 21.5L13.9999 20.6C14.2999 21.4 14.7999 22.1 15.2999 22.6C15.9999 23.2 16.6999 23.5 17.4999 23.5C18.5999 23.5 19.5999 23 20.2999 21.9C20.9999 21 21.2999 19.8999 21.2999 18.7999C21.2999 17.5999 20.9999 16.6 20.2999 15.7C19.5999 14.7 18.5999 14.2 17.4999 14.2C16.4999 14.2 15.5999 14.6999 14.5999 15.7999L12.9999 14.7999V7.79993H21.4999V10.1H15.2V12.2999C15.9 11.9999 16.6999 11.7999 17.4999 11.7999C19.2999 11.7999 20.6999 12.5 21.8999 14C22.9999 15.3 23.5999 16.9 23.5999 18.7C23.5999 20.5 23.0999 22.1 21.9999 23.5C20.8999 25.1 19.3999 25.9 17.5999 25.9Z" fill="#1D1D1B"/>
<path d="M164.6 227C165.9 227 167 227.4 168.1 228.3C169 229.1 169.7 230.1 170.3 231.4L168.2 232.3C167.9 231.5 167.4 230.8 166.9 230.3C166.2 229.7 165.5 229.4 164.7 229.4C163.6 229.4 162.6 229.9 161.9 231C161.2 231.9 160.9 233 160.9 234.1C160.9 235.3 161.2 236.3 161.9 237.2C162.6 238.2 163.6 238.7 164.7 238.7C165.7 238.7 166.6 238.2 167.6 237.1L169.2 238.1V245.1H160.7V242.8H167V240.6C166.3 240.9 165.5 241.1 164.7 241.1C162.9 241.1 161.5 240.4 160.3 238.9C159.2 237.6 158.6 236 158.6 234.2C158.6 232.4 159.1 230.8 160.2 229.4C161.3 227.7 162.8 227 164.6 227Z" fill="#1D1D1B"/>
<path d="M18.2001 43C18.6001 44.1 19.3 45.7 20.4 46.4H15.6C16.8 45.4 17.4001 44 17.7001 43C17.0001 44.2 15.7 45 14.3 45C12.1 45 10.3 43.2 10.3 41C10.3 38.8 12.1 37 14.3 37C14.7 37 15.2 37.1 15.6 37.2C14.8 36.5 14.3 35.3999 14.3 34.2999C14.3 32.0999 16.1 30.2999 18.3 30.2999C20.5 30.2999 22.3 32.0999 22.3 34.2999C22.3 35.4999 21.7 36.5999 20.9 37.2999C21.2 37.1999 21.6 37.2 21.9 37.2C24.1 37.2 25.9 39 25.9 41.2C25.9 43.4 24.1 45.2 21.9 45.2C20.2 45.2 18.9001 44.3 18.2001 43Z" fill="#1D1D1B"/>
<path d="M165.2 211C164.8 209.9 164.1 208.3 163 207.6H167.8C166.6 208.6 166 210 165.7 211C166.4 209.8 167.7 209 169.1 209C171.3 209 173.1 210.8 173.1 213C173.1 215.2 171.3 217 169.1 217C168.7 217 168.2 216.9 167.8 216.8C168.6 217.5 169.1 218.6 169.1 219.7C169.1 221.9 167.3 223.7 165.1 223.7C162.9 223.7 161.1 221.9 161.1 219.7C161.1 218.5 161.7 217.4 162.5 216.7C162.2 216.8 161.8 216.8 161.5 216.8C159.3 216.8 157.5 215 157.5 212.8C157.5 210.6 159.3 208.8 161.5 208.8C163.2 208.8 164.6 209.7 165.2 211Z" fill="#1D1D1B"/>
<path d="M49.7001 47.2C50.5001 49.7 52 53.1 54.6 54.6H44.0001C46.7001 52.5 48.0001 49.3 48.5001 47.1C47.0001 49.7 44.2001 51.5 41.0001 51.5C36.2001 51.5 32.3 47.5999 32.3 42.7999C32.3 37.9999 36.2001 34.1 41.0001 34.1C42.0001 34.1 42.9 34.3 43.8 34.5C42.1 32.9 41.0001 30.7 41.0001 28.2C41.0001 23.4 44.9001 19.5 49.7001 19.5C54.5001 19.5 58.4 23.4 58.4 28.2C58.4 30.9 57.2 33.3 55.3 34.9C56 34.7 56.8001 34.6 57.5001 34.6C62.3001 34.6 66.2001 38.4999 66.2001 43.2999C66.2001 48.0999 62.3001 52 57.5001 52C54.0001 52 51.1001 50.1 49.7001 47.2Z" fill="#1D1D1B"/>
<path d="M48.7 206.7C47.9 204.2 46.3999 200.8 43.7999 199.3H54.3999C51.6999 201.4 50.3999 204.6 49.8999 206.8C51.3999 204.2 54.1999 202.4 57.3999 202.4C62.1999 202.4 66.0999 206.3 66.0999 211.1C66.0999 215.9 62.1999 219.8 57.3999 219.8C56.3999 219.8 55.4999 219.6 54.5999 219.4C56.2999 221 57.3999 223.2 57.3999 225.7C57.3999 230.5 53.5 234.4 48.7 234.4C43.9 234.4 39.9999 230.5 39.9999 225.7C39.9999 223 41.1999 220.6 43.0999 219C42.3999 219.2 41.5999 219.3 40.8999 219.3C36.0999 219.3 32.2 215.4 32.2 210.6C32.2 205.8 36.0999 201.9 40.8999 201.9C44.3999 201.9 47.3 203.8 48.7 206.7Z" fill="#1D1D1B"/>
<path d="M133.7 47.2C134.5 49.7 136 53.1 138.6 54.6H128C130.7 52.5 132 49.3 132.5 47.1C131 49.7 128.2 51.5 125 51.5C120.2 51.5 116.3 47.5999 116.3 42.7999C116.3 37.9999 120.2 34.1 125 34.1C126 34.1 126.9 34.3 127.8 34.5C126.1 32.9 125 30.7 125 28.2C125 23.4 128.9 19.5 133.7 19.5C138.5 19.5 142.4 23.4 142.4 28.2C142.4 30.9 141.2 33.3 139.3 34.9C140 34.7 140.8 34.6 141.5 34.6C146.3 34.6 150.2 38.4999 150.2 43.2999C150.2 48.0999 146.3 52 141.5 52C138.1 52 135.1 50.1 133.7 47.2Z" fill="#1D1D1B"/>
<path d="M132.8 206.7C132 204.2 130.5 200.8 127.9 199.3H138.5C135.8 201.4 134.5 204.6 134 206.8C135.5 204.2 138.3 202.4 141.5 202.4C146.3 202.4 150.2 206.3 150.2 211.1C150.2 215.9 146.3 219.8 141.5 219.8C140.5 219.8 139.6 219.6 138.7 219.4C140.4 221 141.5 223.2 141.5 225.7C141.5 230.5 137.6 234.4 132.8 234.4C128 234.4 124.1 230.5 124.1 225.7C124.1 223 125.3 220.6 127.2 219C126.5 219.2 125.7 219.3 125 219.3C120.2 219.3 116.3 215.4 116.3 210.6C116.3 205.8 120.2 201.9 125 201.9C128.4 201.9 131.3 203.8 132.8 206.7Z" fill="#1D1D1B"/>
<path d="M91.5999 137C92.3999 139.5 93.8999 142.9 96.4999 144.4H85.8999C88.5999 142.3 89.8999 139.1 90.3999 136.9C88.8999 139.5 86.0999 141.3 82.8999 141.3C78.0999 141.3 74.2 137.4 74.2 132.6C74.2 127.8 78.0999 123.9 82.8999 123.9C83.8999 123.9 84.8 124.1 85.7 124.3C84 122.7 82.8999 120.5 82.8999 118C82.8999 113.2 86.7999 109.3 91.5999 109.3C96.3999 109.3 100.3 113.2 100.3 118C100.3 120.7 99.1 123.1 97.2 124.7C97.9 124.5 98.6999 124.4 99.3999 124.4C104.2 124.4 108.1 128.3 108.1 133.1C108.1 137.9 104.2 141.8 99.3999 141.8C95.8999 141.8 92.9999 139.9 91.5999 137Z" fill="#1D1D1B"/>
</svg>
