<svg width="180" height="253" viewBox="0 0 180 253" fill="none" xmlns="http://www.w3.org/2000/svg">
<path d="M179.1 231.1C179.1 242.9 172.3 252.5 163.9 252.5H15.7C7.30001 252.5 0.5 242.9 0.5 231.1V21.9C0.5 10.1 7.30001 0.5 15.7 0.5H164C172.4 0.5 179.2 10.1 179.2 21.9V231.1H179.1Z" fill="white" stroke="#1D1D1B" stroke-miterlimit="10"/>
<path d="M17.0999 25.4C15.7999 25.4 14.6999 25 13.5999 24.1C12.6999 23.3 11.9999 22.3 11.3999 21L13.4999 20.1C13.7999 20.9 14.2999 21.6 14.7999 22.1C15.4999 22.7 16.1999 23 16.9999 23C18.0999 23 19.0999 22.5 19.7999 21.4C20.4999 20.5 20.7999 19.4 20.7999 18.3C20.7999 17.1 20.4999 16.1 19.7999 15.2C19.0999 14.2 18.0999 13.7 16.9999 13.7C15.9999 13.7 15.0999 14.2 14.0999 15.3L12.4999 14.3V7.29999H20.9999V9.59998H14.6999V11.8C15.3999 11.5 16.1999 11.3 16.9999 11.3C18.7999 11.3 20.1999 12 21.3999 13.5C22.4999 14.8 23.0999 16.4 23.0999 18.2C23.0999 20 22.5999 21.6 21.4999 23C20.3999 24.6 18.8999 25.4 17.0999 25.4Z" fill="#E30B13"/>
<path d="M164 226.5C165.3 226.5 166.4 226.9 167.5 227.8C168.4 228.6 169.1 229.6 169.7 230.9L167.6 231.8C167.3 231 166.8 230.3 166.3 229.8C165.6 229.2 164.9 228.9 164.1 228.9C163 228.9 162 229.4 161.3 230.5C160.6 231.4 160.3 232.5 160.3 233.6C160.3 234.8 160.6 235.8 161.3 236.7C162 237.7 163 238.2 164.1 238.2C165.1 238.2 166 237.7 167 236.6L168.6 237.6V244.6H160.1V242.3H166.4V240.1C165.7 240.4 164.9 240.6 164.1 240.6C162.3 240.6 160.9 239.9 159.7 238.4C158.6 237.1 158 235.5 158 233.7C158 231.9 158.5 230.3 159.6 228.9C160.8 227.3 162.3 226.5 164 226.5Z" fill="#E30B13"/>
<path d="M10.8 36.4L17.8 45.3L24.9001 36.4L17.8 27.7L10.8 36.4Z" fill="#E30B13"/>
<path d="M156.2 213.2L163.2 222.1L170.2 213.2L163.2 204.5L156.2 213.2Z" fill="#E30B13"/>
<path d="M32.8999 34.4L47.2999 52.6L61.7999 34.4L47.2999 16.5L32.8999 34.4Z" fill="#E30B13"/>
<path d="M32.8999 215L47.2999 233.2L61.7999 215L47.2999 197.1L32.8999 215Z" fill="#E30B13"/>
<path d="M116.5 35L130.8 53.2L145.4 35L130.9 17.1L116.5 35Z" fill="#E30B13"/>
<path d="M116.5 215.6L130.8 233.7L145.4 215.6L130.9 197.7L116.5 215.6Z" fill="#E30B13"/>
<path d="M75.8999 124.5L90.1999 142.6L104.8 124.5L90.2999 106.6L75.8999 124.5Z" fill="#E30B13"/>
</svg>
