<svg width="180" height="253" viewBox="0 0 180 253" fill="none" xmlns="http://www.w3.org/2000/svg">
<g clip-path="url(#clip0)">
<path d="M179.1 231.1C179.1 242.9 172.3 252.5 163.9 252.5H15.7C7.3 252.5 0.5 242.9 0.5 231.1V21.9C0.5 10.1 7.3 0.5 15.7 0.5H164C172.4 0.5 179.2 10.1 179.2 21.9V231.1H179.1Z" fill="white" stroke="#1D1D1B" stroke-miterlimit="10"/>
<path d="M17.0999 25.4C15.7999 25.4 14.6999 25 13.5999 24.1C12.6999 23.3 11.9999 22.3 11.3999 21L13.4999 20.1C13.7999 20.9 14.2999 21.6 14.7999 22.1C15.4999 22.7 16.1999 23 16.9999 23C18.0999 23 19.0999 22.5 19.7999 21.4C20.4999 20.5 20.7999 19.4 20.7999 18.3C20.7999 17.1 20.4999 16.1 19.7999 15.2C19.0999 14.2 18.0999 13.7 16.9999 13.7C15.9999 13.7 15.0999 14.2 14.0999 15.3L12.4999 14.3V7.3H20.9999V9.6H14.6999V12C15.3999 11.7 16.1999 11.5 16.9999 11.5C18.7999 11.5 20.1999 12.2 21.3999 13.7C22.4999 15 23.0999 16.6 23.0999 18.4C23.0999 20.2 22.5999 21.8 21.4999 23.2C20.3999 24.6 18.8999 25.4 17.0999 25.4Z" fill="#13110C"/>
<path d="M162.1 226.5C163.4 226.5 164.5 226.9 165.6 227.8C166.5 228.6 167.2 229.6 167.8 230.9L165.7 231.8C165.4 231 164.9 230.3 164.4 229.8C163.7 229.2 163 228.9 162.2 228.9C161.1 228.9 160.1 229.4 159.4 230.5C158.7 231.4 158.4 232.5 158.4 233.6C158.4 234.8 158.7 235.8 159.4 236.7C160.1 237.7 161.1 238.2 162.2 238.2C163.2 238.2 164.1 237.7 165.1 236.6L166.7 237.6V244.6H158.2V242.3H164.5V240.1C163.8 240.4 163 240.6 162.2 240.6C160.4 240.6 159 239.9 157.8 238.4C156.7 237.1 156.1 235.5 156.1 233.7C156.1 231.9 156.6 230.3 157.7 228.9C158.9 227.3 160.3 226.5 162.1 226.5Z" fill="#13110C"/>
<path d="M17.1 40.1L15.6 41.9C14.3 43.4 12.1 43.7 10.6 42.4L10.3 42.2C8.80004 40.9 8.50004 38.7 9.80004 37.2L12.2 34.2L16.6 28.8C16.7 28.6 16.9 28.5 17 28.4C17.1 28.5 17.3 28.7 17.4 28.8L24.2 37.2C25.4 38.7 25.2 41 23.7 42.2L23.4 42.4C21.9 43.6 19.6 43.4 18.4 41.9L17.1 40.1L17.9 39.2C17.9 39.2 16.3 43 14 45.2H20C20 45.2 17.1 42.2 17.1 40.1Z" fill="#13110C"/>
<path d="M17.1 40.1L15.6 41.9C14.3 43.4 12.1 43.7 10.6 42.4L10.3 42.2C8.80004 40.9 8.50004 38.7 9.80004 37.2L12.2 34.2L16.6 28.8C16.7 28.6 16.9 28.5 17 28.4C17.1 28.5 17.3 28.7 17.4 28.8L24.2 37.2C25.4 38.7 25.2 41 23.7 42.2L23.4 42.4C21.9 43.6 19.6 43.4 18.4 41.9L17.1 40.1ZM17.1 40.1L17.9 39.2C17.9 39.2 16.3 43 14 45.2H20C20 45.2 17.1 42.2 17.1 40.1Z" stroke="#13110C" stroke-miterlimit="10"/>
<path d="M162.5 212.9L164 211.1C165.3 209.6 167.5 209.3 169 210.6L169.3 210.8C170.8 212.1 171.1 214.3 169.8 215.8L167.4 218.8L163 224.2C162.9 224.4 162.7 224.5 162.6 224.6C162.5 224.5 162.3 224.3 162.2 224.2L155.4 215.8C154.2 214.3 154.4 212 155.9 210.8L156.2 210.6C157.7 209.4 160 209.6 161.2 211.1L162.5 212.9L161.7 213.8C161.7 213.8 163.3 210 165.6 207.8H159.7C159.7 207.8 162.6 210.8 162.5 212.9Z" fill="#13110C"/>
<path d="M162.5 212.9L164 211.1C165.3 209.6 167.5 209.3 169 210.6L169.3 210.8C170.8 212.1 171.1 214.3 169.8 215.8L167.4 218.8L163 224.2C162.9 224.4 162.7 224.5 162.6 224.6C162.5 224.5 162.3 224.3 162.2 224.2L155.4 215.8C154.2 214.3 154.4 212 155.9 210.8L156.2 210.6C157.7 209.4 160 209.6 161.2 211.1L162.5 212.9ZM162.5 212.9L161.7 213.8C161.7 213.8 163.3 210 165.6 207.8H159.7C159.7 207.8 162.6 210.8 162.5 212.9Z" stroke="#13110C" stroke-miterlimit="10"/>
<path d="M54.1001 207.5L57.1001 203.9C59.6001 200.8 64.2001 200.4 67.3001 202.9L67.8001 203.3C70.9001 205.8 71.3001 210.4 68.8001 213.5L63.9001 219.5L54.9001 230.4C54.6001 230.7 54.3001 231 54.0001 231.3C53.7001 231 53.4001 230.8 53.2001 230.5L39.4001 213.5C36.9001 210.4 37.4001 205.8 40.5001 203.3L41.0001 202.9C44.1001 200.4 48.7001 200.9 51.2001 204L54.1001 207.5L52.5001 209.4C52.5001 209.4 55.7001 201.8 60.4001 197.3H48.4001C48.4001 197.3 54.2001 203.3 54.1001 207.5Z" fill="#13110C"/>
<path d="M54.1001 207.5L57.1001 203.9C59.6001 200.8 64.2001 200.4 67.3001 202.9L67.8001 203.3C70.9001 205.8 71.3001 210.4 68.8001 213.5L63.9001 219.5L54.9001 230.4C54.6001 230.7 54.3001 231 54.0001 231.3C53.7001 231 53.4001 230.8 53.2001 230.5L39.4001 213.5C36.9001 210.4 37.4001 205.8 40.5001 203.3L41.0001 202.9C44.1001 200.4 48.7001 200.9 51.2001 204L54.1001 207.5ZM54.1001 207.5L52.5001 209.4C52.5001 209.4 55.7001 201.8 60.4001 197.3H48.4001C48.4001 197.3 54.2001 203.3 54.1001 207.5Z" stroke="#13110C" stroke-miterlimit="10"/>
<path d="M53.7 46.2L50.7 49.8C48.2 52.9 43.6 53.3 40.5 50.8L40 50.3C36.9 47.8 36.5 43.2 39 40.1L43.9 34.1L52.9 23.1C53.2 22.8 53.5 22.5 53.7999 22.2C54.0999 22.5 54.3999 22.7 54.5999 23L68.4 40C70.9 43.1 70.4 47.7 67.3 50.2L66.8 50.6C63.7 53.1 59.0999 52.6 56.5999 49.5L53.7 46.2L55.2999 44.3C55.2999 44.3 52.1 51.9 47.4 56.4H59.4C59.4 56.4 53.6 50.4 53.7 46.2Z" fill="#13110C"/>
<path d="M53.7 46.2L50.7 49.8C48.2 52.9 43.6 53.3 40.5 50.8L40 50.3C36.9 47.8 36.5 43.2 39 40.1L43.9 34.1L52.9 23.1C53.2 22.8 53.4999 22.5 53.7999 22.2C54.0999 22.5 54.3999 22.7 54.5999 23L68.4 40C70.9 43.1 70.4 47.7 67.3 50.2L66.8 50.6C63.7 53.1 59.0999 52.6 56.5999 49.5L53.7 46.2ZM53.7 46.2L55.2999 44.3C55.2999 44.3 52.1 51.9 47.4 56.4H59.4C59.4 56.4 53.6 50.4 53.7 46.2Z" stroke="#13110C" stroke-miterlimit="10"/>
<path d="M131.7 207.3L134.7 203.7C137.2 200.6 141.8 200.2 144.9 202.7L145.4 203.1C148.5 205.6 148.9 210.2 146.4 213.3L141.5 219.3L132.5 230.2C132.2 230.5 131.9 230.8 131.6 231.1C131.3 230.8 131 230.6 130.8 230.3L117 213.3C114.5 210.2 115 205.6 118.1 203.1L118.6 202.7C121.7 200.2 126.3 200.7 128.8 203.8L131.7 207.3L130.1 209.2C130.1 209.2 133.3 201.6 138 197.1H126C125.9 197.1 131.8 203.1 131.7 207.3Z" fill="#13110C"/>
<path d="M131.7 207.3L134.7 203.7C137.2 200.6 141.8 200.2 144.9 202.7L145.4 203.1C148.5 205.6 148.9 210.2 146.4 213.3L141.5 219.3L132.5 230.2C132.2 230.5 131.9 230.8 131.6 231.1C131.3 230.8 131 230.6 130.8 230.3L117 213.3C114.5 210.2 115 205.6 118.1 203.1L118.6 202.7C121.7 200.2 126.3 200.7 128.8 203.8L131.7 207.3ZM131.7 207.3L130.1 209.2C130.1 209.2 133.3 201.6 138 197.1H126C125.9 197.1 131.8 203.1 131.7 207.3Z" stroke="#13110C" stroke-miterlimit="10"/>
<path d="M131.2 46L128.2 49.6C125.7 52.7 121.1 53.1 118 50.6L117.5 50.2C114.4 47.7 114 43.1 116.5 40L121.4 34L130.4 23C130.7 22.7 131 22.4 131.3 22.1C131.6 22.4 131.9 22.6 132.1 22.9L145.9 39.9C148.4 43 147.9 47.6 144.8 50.1L144.3 50.5C141.2 53 136.6 52.5 134.1 49.4L131.2 46L132.8 44.1C132.8 44.1 129.6 51.7 124.9 56.2H136.9C137 56.2 131.1 50.2 131.2 46Z" fill="#13110C"/>
<path d="M131.2 46L128.2 49.6C125.7 52.7 121.1 53.1 118 50.6L117.5 50.2C114.4 47.7 114 43.1 116.5 40L121.4 34L130.4 23C130.7 22.7 131 22.4 131.3 22.1C131.6 22.4 131.9 22.6 132.1 22.9L145.9 39.9C148.4 43 147.9 47.6 144.8 50.1L144.3 50.5C141.2 53 136.6 52.5 134.1 49.4L131.2 46ZM131.2 46L132.8 44.1C132.8 44.1 129.6 51.7 124.9 56.2H136.9C137 56.2 131.1 50.2 131.2 46Z" stroke="#13110C" stroke-miterlimit="10"/>
<path d="M90.6001 134.2L87.6001 137.8C85.1001 140.9 80.5001 141.3 77.4001 138.8L76.9001 138.4C73.8001 135.9 73.4001 131.3 75.9001 128.2L80.8001 122.2L89.8001 111.2C90.1001 110.9 90.4001 110.6 90.7001 110.3C91.0001 110.6 91.3001 110.8 91.5001 111.1L105.3 128.1C107.8 131.2 107.3 135.8 104.2 138.3L103.7 138.7C100.6 141.2 96.0001 140.7 93.5001 137.6L90.6001 134.2L92.2001 132.3C92.2001 132.3 89.0001 139.9 84.3001 144.4H96.3001C96.4001 144.4 90.5001 138.4 90.6001 134.2Z" fill="#13110C"/>
<path d="M90.6001 134.2L87.6001 137.8C85.1001 140.9 80.5001 141.3 77.4001 138.8L76.9001 138.4C73.8001 135.9 73.4001 131.3 75.9001 128.2L80.8001 122.2L89.8001 111.2C90.1001 110.9 90.4001 110.6 90.7001 110.3C91.0001 110.6 91.3001 110.8 91.5001 111.1L105.3 128.1C107.8 131.2 107.3 135.8 104.2 138.3L103.7 138.7C100.6 141.2 96.0001 140.7 93.5001 137.6L90.6001 134.2ZM90.6001 134.2L92.2001 132.3C92.2001 132.3 89.0001 139.9 84.3001 144.4H96.3001C96.4001 144.4 90.5001 138.4 90.6001 134.2Z" stroke="#13110C" stroke-miterlimit="10"/>
</g>
<defs>
<clipPath id="clip0">
<rect width="179.6" height="253" fill="white"/>
</clipPath>
</defs>
</svg>
