<svg width="180" height="253" viewBox="0 0 180 253" fill="none" xmlns="http://www.w3.org/2000/svg">
<path d="M179.2 231.1C179.2 242.9 172.4 252.5 164 252.5H15.7C7.29995 252.5 0.5 242.9 0.5 231.1V21.9C0.5 10.1 7.29995 0.5 15.7 0.5H164C172.4 0.5 179.2 10.1 179.2 21.9V231.1Z" fill="white" stroke="#1D1D1B" stroke-miterlimit="10"/>
<path d="M49.7 57.9C50.1 57.6 50.4 57.2 50.7 56.9L61.3 44L67.1 36.9C70.1 33.3 69.6 27.9 65.9 24.9L65.3 24.4C61.7 21.4 56.3 21.9 53.3 25.6L49.8 29.8L46.4 25.6C43.4 22 38.1 21.4 34.4 24.3L33.8 24.8C30.2 27.8 29.6 33.1 32.5 36.8L48.7 56.8C49 57.3 49.3 57.6 49.7 57.9Z" fill="#E30B13"/>
<path d="M127.7 57.9C128.1 57.6 128.4 57.2 128.7 56.9L139.3 44L145.1 36.9C148.1 33.3 147.6 27.9 143.9 24.9L143.3 24.4C139.7 21.4 134.3 21.9 131.3 25.6L127.8 29.8L124.4 25.6C121.4 22 116.1 21.4 112.4 24.3L111.8 24.8C108.2 27.8 107.6 33.1 110.6 36.8L126.8 56.8C127.1 57.3 127.4 57.6 127.7 57.9Z" fill="#E30B13"/>
<path d="M49.7 146.2C50.1 145.9 50.4 145.5 50.7 145.2L61.3 132.3L67.1 125.2C70.1 121.6 69.6 116.2 65.9 113.2L65.3 112.7C61.7 109.7 56.3 110.2 53.3 113.9L49.8 118.1L46.4 113.9C43.4 110.3 38.1 109.7 34.4 112.6L33.8 113.1C30.2 116.1 29.6 121.4 32.5 125.1L48.7 145.1C49 145.6 49.3 145.9 49.7 146.2Z" fill="#E30B13"/>
<path d="M127.7 146.2C128.1 145.9 128.4 145.5 128.7 145.2L139.3 132.3L145.1 125.2C148.1 121.6 147.6 116.2 143.9 113.2L143.3 112.7C139.7 109.7 134.3 110.2 131.3 113.9L127.8 118.1L124.4 113.9C121.4 110.3 116.1 109.7 112.4 112.6L111.8 113.1C108.2 116.1 107.6 121.4 110.6 125.1L126.8 145.1C127.1 145.6 127.4 145.9 127.7 146.2Z" fill="#E30B13"/>
<path d="M49.3998 197.1C48.9998 197.4 48.6998 197.8 48.3998 198.1L37.7998 211L31.9998 218.1C28.9998 221.7 29.4997 227.1 33.1997 230.1L33.7998 230.6C37.3998 233.6 42.7998 233.1 45.7998 229.4L49.2998 225.2L52.6997 229.4C55.6997 233 60.9997 233.6 64.6997 230.7L65.2998 230.2C68.8998 227.2 69.4998 221.9 66.4998 218.2L50.2998 198.2C50.0998 197.7 49.7998 197.4 49.3998 197.1Z" fill="#E30B13"/>
<path d="M127.9 197.1C127.5 197.4 127.2 197.8 126.9 198.1L116.3 211L110.5 218.1C107.5 221.7 108 227.1 111.7 230.1L112.3 230.6C115.9 233.6 121.3 233.1 124.3 229.4L127.8 225.2L131.2 229.4C134.2 233 139.5 233.6 143.2 230.7L143.8 230.2C147.4 227.2 148 221.9 145.1 218.2L128.9 198.2C128.6 197.7 128.3 197.4 127.9 197.1Z" fill="#E30B13"/>
<path d="M88.4998 101.1C88.8998 100.8 89.1998 100.4 89.4998 100.1L100.1 87.2L105.9 80.1C108.9 76.5 108.4 71.1 104.7 68.1L104.1 67.6C100.5 64.6 95.0998 65.1 92.0998 68.8L88.5998 73L85.1998 68.8C82.1998 65.2 76.8998 64.6 73.1998 67.5L72.5998 68C68.9998 71 68.3999 76.3 71.3999 80L87.5998 100C87.8998 100.5 88.1998 100.8 88.4998 101.1Z" fill="#E30B13"/>
<path d="M89.5999 151.8C89.1999 152.1 88.8999 152.5 88.5999 152.8L78 165.7L72.1999 172.8C69.1999 176.4 69.7 181.8 73.4 184.8L74 185.3C77.6 188.3 83 187.8 86 184.1L89.5 179.9L92.9 184.1C95.9 187.7 101.2 188.3 104.9 185.4L105.5 184.9C109.1 181.9 109.7 176.6 106.8 172.9L90.5999 152.9C90.1999 152.4 89.8999 152.1 89.5999 151.8Z" fill="#E30B13"/>
<path d="M14.9 47.2C15.1 47 15.2 46.9 15.4 46.7L20.6 40.3L23.5 36.8C25 35 24.7 32.3 22.9 30.9L22.6 30.6C20.8 29.1 18.0999 29.4 16.6999 31.2L15 33.3L13.3 31.2C11.8 29.4 9.2 29.1 7.4 30.6L7.09995 30.9C5.29995 32.4 4.99998 35 6.49998 36.8L14.6 46.7C14.6 46.9 14.7 47.1 14.9 47.2Z" fill="#E30B13"/>
<path d="M159.5 204.1C159.3 204.3 159.2 204.4 159 204.6L153.8 211L150.9 214.5C149.4 216.3 149.7 219 151.5 220.4L151.8 220.7C153.6 222.2 156.3 221.9 157.7 220.1L159.4 218L161.1 220.1C162.6 221.9 165.2 222.2 167 220.7L167.3 220.4C169.1 218.9 169.4 216.3 167.9 214.5L159.8 204.6C159.8 204.4 159.7 204.3 159.5 204.1Z" fill="#E30B13"/>
<path d="M15.0997 24.1C13.4997 24.1 12.1997 23.6 11.0997 22.6C9.89973 21.6 9.2998 20.3 9.2998 18.8C9.2998 17 10.0997 15.6 11.5997 14.5C10.4997 13.6 9.89978 12.4 9.89978 11C9.89978 9.59999 10.3998 8.49999 11.4998 7.59999C12.4998 6.69999 13.6997 6.29999 15.0997 6.29999C16.4997 6.29999 17.6997 6.69999 18.6997 7.59999C19.7997 8.49999 20.2998 9.69999 20.2998 11C20.2998 12.4 19.6997 13.6 18.5997 14.5C20.1997 15.6 20.8998 17 20.8998 18.8C20.8998 20.3 20.2997 21.6 19.1997 22.6C17.9997 23.5 16.6997 24.1 15.0997 24.1ZM15.0997 15.7C14.1997 15.7 13.3997 16 12.6997 16.5C11.8997 17.1 11.5997 17.8 11.5997 18.7C11.5997 19.6 11.9997 20.3 12.6997 20.9C13.3997 21.4 14.1997 21.7 15.0997 21.7C15.9997 21.7 16.7998 21.4 17.4998 20.9C18.2998 20.3 18.5997 19.6 18.5997 18.7C18.5997 17.8 18.1998 17.1 17.4998 16.5C16.7998 15.9 15.9997 15.7 15.0997 15.7ZM15.0997 8.39999C14.3997 8.39999 13.6997 8.59999 13.0997 9.09999C12.4997 9.59999 12.1997 10.2 12.1997 10.9C12.1997 11.6 12.4997 12.2 13.0997 12.7C13.6997 13.1 14.2997 13.4 15.0997 13.4C15.7997 13.4 16.4997 13.2 17.0997 12.7C17.6997 12.2 17.9998 11.6 17.9998 10.9C17.9998 10.2 17.6997 9.59999 17.0997 9.09999C16.4997 8.69999 15.7997 8.39999 15.0997 8.39999Z" fill="#E30B13"/>
<path d="M159.9 227.8C161.5 227.8 162.8 228.3 163.9 229.3C165.1 230.3 165.7 231.6 165.7 233.1C165.7 234.9 164.9 236.3 163.4 237.4C164.5 238.3 165.1 239.5 165.1 240.9C165.1 242.3 164.6 243.4 163.5 244.3C162.5 245.2 161.3 245.6 159.9 245.6C158.5 245.6 157.3 245.2 156.3 244.3C155.2 243.4 154.7 242.2 154.7 240.9C154.7 239.5 155.3 238.3 156.4 237.4C154.8 236.3 154.1 234.9 154.1 233.1C154.1 231.6 154.7 230.3 155.8 229.3C157 228.3 158.3 227.8 159.9 227.8ZM159.9 236.2C160.8 236.2 161.6 235.9 162.3 235.4C163.1 234.8 163.4 234.1 163.4 233.2C163.4 232.3 163 231.6 162.3 231C161.6 230.5 160.8 230.2 159.9 230.2C159 230.2 158.2 230.5 157.5 231C156.7 231.6 156.4 232.3 156.4 233.2C156.4 234.1 156.8 234.8 157.5 235.4C158.2 235.9 159 236.2 159.9 236.2ZM159.9 243.4C160.6 243.4 161.3 243.2 161.9 242.7C162.5 242.2 162.8 241.6 162.8 240.9C162.8 240.2 162.5 239.6 161.9 239.1C161.3 238.7 160.7 238.4 159.9 238.4C159.2 238.4 158.5 238.6 157.9 239.1C157.3 239.6 157 240.2 157 240.9C157 241.6 157.3 242.2 157.9 242.7C158.5 243.2 159.2 243.4 159.9 243.4Z" fill="#E30B13"/>
</svg>
