<svg width="181" height="254" viewBox="0 0 181 254" fill="none" xmlns="http://www.w3.org/2000/svg">
<path d="M179.6 231.4C179.6 243.2 172.8 252.8 164.4 252.8H16.0999C7.69985 252.8 0.899902 243.2 0.899902 231.4V22.3002C0.899902 10.5002 7.69985 0.900146 16.0999 0.900146H164.4C172.8 0.900146 179.6 10.5002 179.6 22.3002V231.4Z" fill="white" stroke="#1D1D1B" stroke-miterlimit="10"/>
<path d="M21 19.1002C20 19.9002 18.9 20.3002 17.7 20.3002C16 20.3002 14.7 19.6002 13.6 18.3002C12.5 17.0002 12 15.6001 12 13.9001C12 12.2001 12.5 10.8001 13.6 9.50012C14.7 8.20012 16.1 7.50012 17.7 7.50012C19.7 7.50012 21.3 8.6002 22.3 10.7002C23.1 12.3002 23.5 14.3002 23.5 16.6002C23.5 19.0002 23.1 21.0002 22.3 22.6002C21.3 24.7002 19.7 25.7002 17.6 25.7002C15.5 25.7002 13.8 24.6001 12.6 22.5001L14.6 21.3002C15.4 22.7002 16.4 23.4001 17.6 23.4001C19.4 23.4001 20.5 22.0002 21 19.1002ZM17.6 9.90015C16.6 9.90015 15.7 10.3002 15.1 11.2002C14.5 12.0002 14.2 12.9001 14.2 13.9001C14.2 14.9001 14.5 15.8002 15.1 16.6002C15.8 17.5002 16.6 17.9001 17.6 17.9001C18.5 17.9001 19.2 17.6001 19.8 16.9001C20.4 16.3001 20.7 15.6002 21 14.7002C20.6 11.5002 19.5 9.90015 17.6 9.90015Z" fill="#1D1D1B"/>
<path d="M158.8 232.4C159.8 231.6 160.9 231.2 162.1 231.2C163.8 231.2 165.1 231.9 166.2 233.2C167.3 234.5 167.8 235.9 167.8 237.6C167.8 239.3 167.3 240.7 166.2 242C165.1 243.3 163.7 244 162.1 244C160.1 244 158.5 242.9 157.5 240.8C156.7 239.2 156.3 237.2 156.3 234.9C156.3 232.5 156.7 230.5 157.5 228.9C158.5 226.8 160.1 225.8 162.2 225.8C164.3 225.8 166 226.9 167.2 229L165.2 230.2C164.4 228.8 163.4 228.1 162.2 228.1C160.4 228.1 159.3 229.5 158.8 232.4ZM162.1 241.7C163.1 241.7 164 241.3 164.6 240.4C165.2 239.6 165.5 238.7 165.5 237.7C165.5 236.7 165.2 235.8 164.6 235C163.9 234.1 163.1 233.7 162.1 233.7C161.2 233.7 160.5 234 159.9 234.7C159.3 235.3 159 236 158.7 236.9C159.2 240 160.3 241.7 162.1 241.7Z" fill="#1D1D1B"/>
<path d="M17.4 42.4001C17.8 43.5001 18.5 45.1002 19.6 45.8002H14.8C16 44.8002 16.6 43.4001 16.9 42.4001C16.2 43.6001 14.9 44.4001 13.5 44.4001C11.3 44.4001 9.5 42.6001 9.5 40.4001C9.5 38.2001 11.3 36.4001 13.5 36.4001C13.9 36.4001 14.4 36.5002 14.8 36.6002C14 35.9002 13.5 34.8002 13.5 33.7002C13.5 31.5002 15.3 29.7002 17.5 29.7002C19.7 29.7002 21.5 31.5002 21.5 33.7002C21.5 34.9002 20.9 36.0002 20.1 36.7002C20.4 36.6002 20.8 36.6002 21.1 36.6002C23.3 36.6002 25.1 38.4002 25.1 40.6002C25.1 42.8002 23.3 44.6002 21.1 44.6002C19.4 44.6002 18.1 43.7001 17.4 42.4001Z" fill="#1D1D1B"/>
<path d="M164.4 210.4C164 209.3 163.3 207.7 162.2 207H167C165.8 208 165.2 209.4 164.9 210.4C165.6 209.2 166.9 208.4 168.3 208.4C170.5 208.4 172.3 210.2 172.3 212.4C172.3 214.6 170.5 216.4 168.3 216.4C167.9 216.4 167.4 216.3 167 216.2C167.8 216.9 168.3 218 168.3 219.1C168.3 221.3 166.5 223.1 164.3 223.1C162.1 223.1 160.3 221.3 160.3 219.1C160.3 217.9 160.9 216.8 161.7 216.1C161.4 216.2 161 216.2 160.7 216.2C158.5 216.2 156.7 214.4 156.7 212.2C156.7 210 158.5 208.2 160.7 208.2C162.4 208.2 163.8 209.1 164.4 210.4Z" fill="#1D1D1B"/>
<path d="M48.6997 47.1002C49.4997 49.6002 50.9997 53.0001 53.5997 54.5001H42.9998C45.6998 52.4001 46.9998 49.2001 47.4998 47.0001C45.9998 49.6001 43.1998 51.4001 39.9998 51.4001C35.1998 51.4001 31.2998 47.5002 31.2998 42.7002C31.2998 37.9002 35.1998 34.0001 39.9998 34.0001C40.9998 34.0001 41.8998 34.2001 42.7998 34.4001C41.0998 32.8001 39.9998 30.6002 39.9998 28.1002C39.9998 23.3002 43.8997 19.4001 48.6997 19.4001C53.4997 19.4001 57.3998 23.3002 57.3998 28.1002C57.3998 30.8002 56.1998 33.2002 54.2998 34.8002C54.9998 34.6002 55.7998 34.5001 56.4998 34.5001C61.2998 34.5001 65.1997 38.4002 65.1997 43.2002C65.1997 48.0002 61.2998 51.9001 56.4998 51.9001C53.0998 51.9001 50.0997 50.0002 48.6997 47.1002Z" fill="#1D1D1B"/>
<path d="M47.7998 206.6C46.9998 204.1 45.4998 200.7 42.8998 199.2H53.4998C50.7998 201.3 49.4998 204.5 48.9998 206.7C50.4998 204.1 53.2998 202.3 56.4998 202.3C61.2998 202.3 65.1997 206.2 65.1997 211C65.1997 215.8 61.2998 219.7 56.4998 219.7C55.4998 219.7 54.5997 219.5 53.6997 219.3C55.3997 220.9 56.4998 223.1 56.4998 225.6C56.4998 230.4 52.5998 234.3 47.7998 234.3C42.9998 234.3 39.0997 230.4 39.0997 225.6C39.0997 222.9 40.2997 220.5 42.1997 218.9C41.4997 219.1 40.6998 219.2 39.9998 219.2C35.1998 219.2 31.2998 215.3 31.2998 210.5C31.2998 205.7 35.1998 201.8 39.9998 201.8C43.3998 201.8 46.2998 203.7 47.7998 206.6Z" fill="#1D1D1B"/>
<path d="M134.6 47.1002C135.4 49.6002 136.9 53.0001 139.5 54.5001H128.9C131.6 52.4001 132.9 49.2001 133.4 47.0001C131.9 49.6001 129.1 51.4001 125.9 51.4001C121.1 51.4001 117.2 47.5002 117.2 42.7002C117.2 37.9002 121.1 34.0001 125.9 34.0001C126.9 34.0001 127.8 34.2001 128.7 34.4001C127 32.8001 125.9 30.6002 125.9 28.1002C125.9 23.3002 129.8 19.4001 134.6 19.4001C139.4 19.4001 143.3 23.3002 143.3 28.1002C143.3 30.8002 142.1 33.2002 140.2 34.8002C140.9 34.6002 141.7 34.5001 142.4 34.5001C147.2 34.5001 151.1 38.4002 151.1 43.2002C151.1 48.0002 147.2 51.9001 142.4 51.9001C139 51.9001 136 50.0002 134.6 47.1002Z" fill="#1D1D1B"/>
<path d="M133.7 206.6C132.9 204.1 131.4 200.7 128.8 199.2H139.4C136.7 201.3 135.4 204.5 134.9 206.7C136.4 204.1 139.2 202.3 142.4 202.3C147.2 202.3 151.1 206.2 151.1 211C151.1 215.8 147.2 219.7 142.4 219.7C141.4 219.7 140.5 219.5 139.6 219.3C141.3 220.9 142.4 223.1 142.4 225.6C142.4 230.4 138.5 234.3 133.7 234.3C128.9 234.3 125 230.4 125 225.6C125 222.9 126.2 220.5 128.1 218.9C127.4 219.1 126.6 219.2 125.9 219.2C121.1 219.2 117.2 215.3 117.2 210.5C117.2 205.7 121.1 201.8 125.9 201.8C129.3 201.8 132.2 203.7 133.7 206.6Z" fill="#1D1D1B"/>
<path d="M48.6997 107.3C49.4997 109.8 50.9997 113.2 53.5997 114.7H42.9998C45.6998 112.6 46.9998 109.4 47.4998 107.2C45.9998 109.8 43.1998 111.6 39.9998 111.6C35.1998 111.6 31.2998 107.7 31.2998 102.9C31.2998 98.1001 35.1998 94.2002 39.9998 94.2002C40.9998 94.2002 41.8998 94.4002 42.7998 94.6002C41.0998 93.0002 39.9998 90.8002 39.9998 88.3002C39.9998 83.5002 43.8997 79.6002 48.6997 79.6002C53.4997 79.6002 57.3998 83.5002 57.3998 88.3002C57.3998 91.0002 56.1998 93.4001 54.2998 95.0001C54.9998 94.8001 55.7998 94.7002 56.4998 94.7002C61.2998 94.7002 65.1997 98.6001 65.1997 103.4C65.1997 108.2 61.2998 112.1 56.4998 112.1C53.0998 112.1 50.0997 110.1 48.6997 107.3Z" fill="#1D1D1B"/>
<path d="M134.6 107.3C135.4 109.8 136.9 113.2 139.5 114.7H128.9C131.6 112.6 132.9 109.4 133.4 107.2C131.9 109.8 129.1 111.6 125.9 111.6C121.1 111.6 117.2 107.7 117.2 102.9C117.2 98.1001 121.1 94.2002 125.9 94.2002C126.9 94.2002 127.8 94.4002 128.7 94.6002C127 93.0002 125.9 90.8002 125.9 88.3002C125.9 83.5002 129.8 79.6002 134.6 79.6002C139.4 79.6002 143.3 83.5002 143.3 88.3002C143.3 91.0002 142.1 93.4001 140.2 95.0001C140.9 94.8001 141.7 94.7002 142.4 94.7002C147.2 94.7002 151.1 98.6001 151.1 103.4C151.1 108.2 147.2 112.1 142.4 112.1C139 112.1 136 110.1 134.6 107.3Z" fill="#1D1D1B"/>
<path d="M133.7 146.6C132.9 144.1 131.4 140.7 128.8 139.2H139.4C136.7 141.3 135.4 144.5 134.9 146.7C136.4 144.1 139.2 142.3 142.4 142.3C147.2 142.3 151.1 146.2 151.1 151C151.1 155.8 147.2 159.7 142.4 159.7C141.4 159.7 140.5 159.5 139.6 159.3C141.3 160.9 142.4 163.1 142.4 165.6C142.4 170.4 138.5 174.3 133.7 174.3C128.9 174.3 125 170.4 125 165.6C125 162.9 126.2 160.5 128.1 158.9C127.4 159.1 126.6 159.2 125.9 159.2C121.1 159.2 117.2 155.3 117.2 150.5C117.2 145.7 121.1 141.8 125.9 141.8C129.3 141.9 132.2 143.8 133.7 146.6Z" fill="#1D1D1B"/>
<path d="M47.7998 146.6C46.9998 144.1 45.4998 140.7 42.8998 139.2H53.4998C50.7998 141.3 49.4998 144.5 48.9998 146.7C50.4998 144.1 53.2998 142.3 56.4998 142.3C61.2998 142.3 65.1997 146.2 65.1997 151C65.1997 155.8 61.2998 159.7 56.4998 159.7C55.4998 159.7 54.5997 159.5 53.6997 159.3C55.3997 160.9 56.4998 163.1 56.4998 165.6C56.4998 170.4 52.5998 174.3 47.7998 174.3C42.9998 174.3 39.0997 170.4 39.0997 165.6C39.0997 162.9 40.2997 160.5 42.1997 158.9C41.4997 159.1 40.6998 159.2 39.9998 159.2C35.1998 159.2 31.2998 155.3 31.2998 150.5C31.2998 145.7 35.1998 141.8 39.9998 141.8C43.3998 141.9 46.2998 143.8 47.7998 146.6Z" fill="#1D1D1B"/>
<path d="M90.4 136.9C91.2 139.4 92.7 142.8 95.3 144.3H84.7C87.4 142.2 88.7 139 89.2 136.8C87.7 139.4 84.9 141.2 81.7 141.2C76.9 141.2 73 137.3 73 132.5C73 127.7 76.9 123.8 81.7 123.8C82.7 123.8 83.6 124 84.5 124.2C82.8 122.6 81.7 120.4 81.7 117.9C81.7 113.1 85.6 109.2 90.4 109.2C95.2 109.2 99.1 113.1 99.1 117.9C99.1 120.6 97.9 123 96 124.6C96.7 124.4 97.5 124.3 98.2 124.3C103 124.3 106.9 128.2 106.9 133C106.9 137.8 103 141.7 98.2 141.7C94.8 141.7 91.8 139.8 90.4 136.9Z" fill="#1D1D1B"/>
</svg>
