<svg width="181" height="254" viewBox="0 0 181 254" fill="none" xmlns="http://www.w3.org/2000/svg">
<path d="M179.6 231.9C179.6 243.7 172.8 253.3 164.4 253.3H16.0999C7.69985 253.3 0.899902 243.7 0.899902 231.9V22.7001C0.899902 10.9001 7.69985 1.30005 16.0999 1.30005H164.4C172.8 1.30005 179.6 10.9001 179.6 22.7001V231.9Z" fill="white" stroke="#1D1D1B" stroke-miterlimit="10"/>
<path d="M19.0996 18.3C18.0996 19.1 16.9997 19.5001 15.7997 19.5001C14.0997 19.5001 12.7996 18.8001 11.6996 17.5001C10.5996 16.2001 10.0996 14.8 10.0996 13.1C10.0996 11.4 10.5996 10.0001 11.6996 8.70007C12.7996 7.40007 14.1997 6.70007 15.7997 6.70007C17.7997 6.70007 19.3997 7.80002 20.3997 9.90002C21.1997 11.5 21.5996 13.5 21.5996 15.8C21.5996 18.2 21.1997 20.2 20.3997 21.8C19.3997 23.9 17.7996 24.9 15.6996 24.9C13.5996 24.9 11.8996 23.8001 10.6996 21.7001L12.6996 20.5001C13.4996 21.9001 14.4996 22.6 15.6996 22.6C17.4996 22.7 18.6996 21.2 19.0996 18.3ZM15.7997 9.10004C14.7997 9.10004 13.8997 9.50002 13.2997 10.4C12.6997 11.2 12.3997 12.1 12.3997 13.1C12.3997 14.1 12.6997 15 13.2997 15.8C13.9997 16.7 14.7997 17.1 15.7997 17.1C16.6997 17.1 17.3996 16.8 17.9996 16.1C18.5996 15.5 18.8996 14.8 19.1996 13.9C18.7996 10.7 17.6997 9.10004 15.7997 9.10004Z" fill="#E30B13"/>
<path d="M158.8 232.9C159.8 232.1 160.9 231.7 162.1 231.7C163.8 231.7 165.1 232.4 166.2 233.7C167.3 235 167.8 236.4 167.8 238.1C167.8 239.8 167.3 241.2 166.2 242.5C165.1 243.8 163.7 244.5 162.1 244.5C160.1 244.5 158.5 243.4 157.5 241.3C156.7 239.7 156.3 237.7 156.3 235.4C156.3 233 156.7 231 157.5 229.4C158.5 227.3 160.1 226.3 162.2 226.3C164.3 226.3 166 227.4 167.2 229.5L165.2 230.7C164.4 229.3 163.4 228.6 162.2 228.6C160.4 228.5 159.3 230 158.8 232.9ZM162.1 242.1C163.1 242.1 164 241.7 164.6 240.8C165.2 240 165.5 239.1 165.5 238.1C165.5 237.1 165.2 236.2 164.6 235.4C163.9 234.5 163.1 234.1 162.1 234.1C161.2 234.1 160.5 234.4 159.9 235.1C159.3 235.7 159 236.4 158.7 237.3C159.2 240.4 160.3 242.1 162.1 242.1Z" fill="#E30B13"/>
<path d="M9.09961 36.2001L16.0996 45.0001L23.1996 36.2001L16.1996 27.5001L9.09961 36.2001Z" fill="#E30B13"/>
<path d="M155.3 213.5L162.3 222.4L169.4 213.5L162.3 204.8L155.3 213.5Z" fill="#E30B13"/>
<path d="M31.5996 34.4L45.9996 52.5001L60.4996 34.4L46.0996 16.5001L31.5996 34.4Z" fill="#E30B13"/>
<path d="M31.5996 215L45.9996 233.1L60.4996 215L46.0996 197.1L31.5996 215Z" fill="#E30B13"/>
<path d="M115.2 35.0001L129.6 53.1L144.1 35.0001L129.7 17.1L115.2 35.0001Z" fill="#E30B13"/>
<path d="M115.2 215.5L129.6 233.7L144.1 215.5L129.7 197.6L115.2 215.5Z" fill="#E30B13"/>
<path d="M31.2998 95.1L45.5997 113.3L60.1997 95.1L45.6997 77.2001L31.2998 95.1Z" fill="#E30B13"/>
<path d="M114.8 95.7001L129.2 113.8L143.8 95.7001L129.3 77.8L114.8 95.7001Z" fill="#E30B13"/>
<path d="M31.5996 155.5L45.9996 173.6L60.4996 155.5L46.0996 137.6L31.5996 155.5Z" fill="#E30B13"/>
<path d="M115.2 156.1L129.6 174.2L144.1 156.1L129.7 138.2L115.2 156.1Z" fill="#E30B13"/>
<path d="M75.7998 125.5L90.1997 143.7L104.7 125.5L90.2998 107.6L75.7998 125.5Z" fill="#E30B13"/>
</svg>
