<svg width="181" height="253" viewBox="0 0 181 253" fill="none" xmlns="http://www.w3.org/2000/svg">
<path d="M179.6 231.1C179.6 242.9 172.8 252.5 164.4 252.5H16.0999C7.69985 252.5 0.899902 242.9 0.899902 231.1V21.9C0.899902 10.1 7.69985 0.5 16.0999 0.5H164.4C172.8 0.5 179.6 10.1 179.6 21.9V231.1Z" fill="white" stroke="#1D1D1B" stroke-miterlimit="10"/>
<path d="M49.9998 57.9C50.3998 57.6 50.6998 57.2 50.9998 56.9L61.5998 44L67.3998 36.9C70.3998 33.3 69.8998 27.9 66.1998 24.9L65.5998 24.4C61.9998 21.4 56.5998 21.9 53.5998 25.6L50.0998 29.8L46.6998 25.6C43.6998 22 38.3998 21.4 34.6998 24.3L34.0998 24.8C30.4998 27.8 29.8999 33.1 32.7999 36.8L48.9998 56.8C49.3998 57.3 49.6998 57.6 49.9998 57.9Z" fill="#E30B13"/>
<path d="M128.1 57.9C128.5 57.6 128.8 57.2 129.1 56.9L139.7 44L145.5 36.9C148.5 33.3 148 27.9 144.3 24.9L143.7 24.4C140.1 21.4 134.7 21.9 131.7 25.6L128.2 29.8L124.8 25.6C121.8 22 116.5 21.4 112.8 24.3L112.2 24.8C108.6 27.8 108 33.1 110.9 36.8L127.1 56.8C127.4 57.3 127.7 57.6 128.1 57.9Z" fill="#E30B13"/>
<path d="M51.2 116C51.6 115.7 51.9 115.3 52.2 115L62.8001 102.1L68.6 95C71.6 91.4 71.1001 86 67.4001 83L66.8001 82.5C63.2001 79.5 57.8001 80 54.8001 83.7L51.3001 87.9L47.9001 83.7C44.9001 80.1 39.6001 79.5 35.9001 82.4L35.3001 82.9C31.7001 85.9 31.1 91.2 34.1 94.9L50.3001 114.9C50.5001 115.4 50.8 115.7 51.2 116Z" fill="#E30B13"/>
<path d="M129.2 116C129.6 115.7 129.9 115.3 130.2 115L140.8 102.1L146.6 95C149.6 91.4 149.1 86 145.4 83L144.8 82.5C141.2 79.5 135.8 80 132.8 83.7L129.3 87.9L125.9 83.7C122.9 80.1 117.6 79.5 113.9 82.4L113.3 82.9C109.7 85.9 109.1 91.2 112 94.9L128.2 114.9C128.5 115.4 128.8 115.7 129.2 116Z" fill="#E30B13"/>
<path d="M49.8002 197.1C49.4002 197.4 49.1002 197.8 48.8002 198.1L38.2001 211L32.4001 218.1C29.4001 221.7 29.9001 227.1 33.6001 230.1L34.2001 230.6C37.8001 233.6 43.2001 233.1 46.2001 229.4L49.7001 225.2L53.1001 229.4C56.1001 233 61.4001 233.6 65.1001 230.7L65.7001 230.2C69.3001 227.2 69.9001 221.9 67.0001 218.2L50.8002 198.2C50.4002 197.7 50.1002 197.4 49.8002 197.1Z" fill="#E30B13"/>
<path d="M128.3 197.1C127.9 197.4 127.6 197.8 127.3 198.1L116.7 211L110.9 218.1C107.9 221.7 108.4 227.1 112.1 230.1L112.7 230.6C116.3 233.6 121.7 233.1 124.7 229.4L128.2 225.2L131.6 229.4C134.6 233 139.9 233.6 143.6 230.7L144.2 230.2C147.8 227.2 148.4 221.9 145.5 218.2L129.3 198.2C128.9 197.7 128.6 197.4 128.3 197.1Z" fill="#E30B13"/>
<path d="M15.5997 47.8C15.7997 47.6 15.8997 47.5 16.0997 47.3L21.2997 40.9L24.1996 37.4C25.6996 35.6 25.3997 32.9 23.5997 31.5L23.2997 31.2C21.4997 29.7 18.7997 30 17.3997 31.8L15.6996 33.9L13.9997 31.8C12.4997 30 9.89966 29.7 8.09966 31.2L7.79973 31.5C5.99973 33 5.69964 35.6 7.19964 37.4L15.2997 47.3C15.1997 47.5 15.3997 47.7 15.5997 47.8Z" fill="#E30B13"/>
<path d="M159.8 204.8C159.6 205 159.5 205.1 159.3 205.3L154.1 211.7L151.2 215.2C149.7 217 150 219.7 151.8 221.1L152.1 221.4C153.9 222.9 156.6 222.6 158 220.8L159.7 218.7L161.4 220.8C162.9 222.6 165.5 222.9 167.3 221.4L167.6 221.1C169.4 219.6 169.7 217 168.2 215.2L160.1 205.3C160.1 205.1 160 204.9 159.8 204.8Z" fill="#E30B13"/>
<path d="M51.0999 140C50.6999 140.3 50.3999 140.7 50.0999 141L39.5 153.9L33.6999 161C30.6999 164.6 31.2 170 34.9 173L35.5 173.5C39.1 176.5 44.5 176 47.5 172.3L51 168.1L54.4 172.3C57.4 175.9 62.7 176.5 66.4 173.6L67 173.1C70.5999 170.1 71.2 164.8 68.3 161.1L52.0999 141.1C51.7999 140.6 51.4999 140.3 51.0999 140Z" fill="#E30B13"/>
<path d="M129.6 140C129.2 140.3 128.9 140.7 128.6 141L118 153.9L112.2 161C109.2 164.6 109.7 170 113.4 173L114 173.5C117.6 176.5 123 176 126 172.3L129.5 168.1L132.9 172.3C135.9 175.9 141.2 176.5 144.9 173.6L145.5 173.1C149.1 170.1 149.7 164.8 146.8 161.1L130.6 141.1C130.3 140.6 130 140.3 129.6 140Z" fill="#E30B13"/>
<path d="M90.2 145.2C90.6 144.9 90.9 144.5 91.2 144.2L101.8 131.3L107.6 124.2C110.6 120.6 110.1 115.2 106.4 112.2L105.8 111.7C102.2 108.7 96.8 109.2 93.8 112.9L90.3 117.1L86.9 112.9C83.9 109.3 78.6 108.7 74.9 111.6L74.3 112.1C70.7 115.1 70.1 120.4 73 124.1L89.2 144.1C89.5 144.5 89.8 144.9 90.2 145.2Z" fill="#E30B13"/>
<path d="M19.0996 17.5C18.0996 18.3 16.9997 18.7 15.7997 18.7C14.0997 18.7 12.7996 18 11.6996 16.7C10.5996 15.4 10.0996 14 10.0996 12.3C10.0996 10.6 10.5996 9.19999 11.6996 7.89999C12.7996 6.59999 14.1997 5.89999 15.7997 5.89999C17.7997 5.89999 19.3997 6.99999 20.3997 9.09999C21.1997 10.7 21.5996 12.7 21.5996 15C21.5996 17.4 21.1997 19.4 20.3997 21C19.3997 23.1 17.7996 24.1 15.6996 24.1C13.5996 24.1 11.8996 23 10.6996 20.9L12.6996 19.7C13.4996 21.1 14.4996 21.8 15.6996 21.8C17.4996 21.9 18.6996 20.4 19.0996 17.5ZM15.7997 8.3C14.7997 8.3 13.8997 8.69999 13.2997 9.59999C12.6997 10.4 12.3997 11.3 12.3997 12.3C12.3997 13.3 12.6997 14.2 13.2997 15C13.9997 15.9 14.7997 16.3 15.7997 16.3C16.6997 16.3 17.3996 16 17.9996 15.3C18.5996 14.7 18.8996 14 19.1996 13.1C18.7996 9.89999 17.6997 8.3 15.7997 8.3Z" fill="#E30B13"/>
<path d="M157 234.3C158 233.5 159.1 233.1 160.3 233.1C162 233.1 163.3 233.8 164.4 235.1C165.5 236.4 166 237.8 166 239.5C166 241.2 165.5 242.6 164.4 243.9C163.3 245.2 161.9 245.9 160.3 245.9C158.3 245.9 156.7 244.8 155.7 242.7C154.9 241.1 154.5 239.1 154.5 236.8C154.5 234.4 154.9 232.4 155.7 230.8C156.7 228.7 158.3 227.7 160.4 227.7C162.5 227.7 164.2 228.8 165.4 230.9L163.4 232.1C162.6 230.7 161.6 230 160.4 230C158.6 230 157.4 231.4 157 234.3ZM160.3 243.6C161.3 243.6 162.2 243.2 162.8 242.3C163.4 241.5 163.7 240.6 163.7 239.6C163.7 238.6 163.4 237.7 162.8 236.9C162.1 236 161.3 235.6 160.3 235.6C159.4 235.6 158.7 235.9 158.1 236.6C157.5 237.2 157.2 237.9 156.9 238.8C157.3 241.9 158.4 243.6 160.3 243.6Z" fill="#E30B13"/>
</svg>
