<svg width="181" height="254" viewBox="0 0 181 254" fill="none" xmlns="http://www.w3.org/2000/svg">
<path d="M179.6 231.9C179.6 243.7 172.8 253.3 164.4 253.3H16.0999C7.69985 253.3 0.899902 243.7 0.899902 231.9V22.7C0.899902 10.9 7.69985 1.30005 16.0999 1.30005H164.4C172.8 1.30005 179.6 10.9 179.6 22.7V231.9Z" fill="white" stroke="#1D1D1B" stroke-miterlimit="10"/>
<path d="M19.0996 18.3C18.0996 19.1 16.9997 19.5001 15.7997 19.5001C14.0997 19.5001 12.7996 18.8001 11.6996 17.5001C10.5996 16.2001 10.0996 14.8 10.0996 13.1C10.0996 11.4 10.5996 10 11.6996 8.70004C12.7996 7.40004 14.1997 6.70004 15.7997 6.70004C17.7997 6.70004 19.3997 7.80006 20.3997 9.90005C21.1997 11.5001 21.5996 13.5 21.5996 15.8C21.5996 18.2 21.1997 20.2 20.3997 21.8C19.3997 23.9 17.7996 24.9001 15.6996 24.9001C13.5996 24.9001 11.8996 23.8 10.6996 21.7L12.6996 20.5001C13.4996 21.9001 14.4996 22.6 15.6996 22.6C17.4996 22.7 18.6996 21.2 19.0996 18.3ZM15.7997 9.10004C14.7997 9.10004 13.8997 9.50005 13.2997 10.4001C12.6997 11.2001 12.3997 12.1 12.3997 13.1C12.3997 14.1 12.6997 15 13.2997 15.8C13.9997 16.7 14.7997 17.1 15.7997 17.1C16.6997 17.1 17.3996 16.8 17.9996 16.1C18.5996 15.5 18.8996 14.8001 19.1996 13.9001C18.7996 10.8001 17.6997 9.10004 15.7997 9.10004Z" fill="#13110C"/>
<path d="M157 235.2C158 234.4 159.1 234 160.3 234C162 234 163.3 234.7 164.4 236C165.5 237.3 166 238.7 166 240.4C166 242.1 165.5 243.5 164.4 244.8C163.3 246.1 161.9 246.8 160.3 246.8C158.3 246.8 156.7 245.7 155.7 243.6C154.9 242 154.5 240 154.5 237.7C154.5 235.3 154.9 233.3 155.7 231.7C156.7 229.6 158.3 228.6 160.4 228.6C162.5 228.6 164.2 229.7 165.4 231.8L163.4 233C162.6 231.6 161.6 230.9 160.4 230.9C158.6 230.8 157.4 232.3 157 235.2ZM160.3 244.4C161.3 244.4 162.2 244 162.8 243.1C163.4 242.3 163.7 241.4 163.7 240.4C163.7 239.4 163.4 238.5 162.8 237.7C162.1 236.8 161.3 236.4 160.3 236.4C159.4 236.4 158.7 236.7 158.1 237.4C157.5 238 157.2 238.7 156.9 239.6C157.3 242.8 158.4 244.4 160.3 244.4Z" fill="#13110C"/>
<path d="M16.6998 40.9001L15.1998 42.7C13.8998 44.2 11.6998 44.5 10.1998 43.2L9.8999 43.0001C8.3999 41.7001 8.0999 39.5001 9.3999 38.0001L11.7999 35.0001L16.1998 29.6C16.2998 29.4 16.4998 29.3 16.5998 29.2C16.6999 29.3 16.8999 29.5 16.9999 29.6L23.7999 38.0001C24.9999 39.5001 24.7999 41.8001 23.2999 43.0001L22.9999 43.2C21.4999 44.4 19.1999 44.2 17.9999 42.7L16.6998 40.9001L17.4999 40.0001C17.4999 40.0001 15.8998 43.8001 13.5998 46.0001H19.4999C19.4999 46.0001 16.6998 43.0001 16.6998 40.9001Z" fill="#13110C"/>
<path d="M16.6998 40.9001L15.1998 42.7C13.8998 44.2 11.6998 44.5 10.1998 43.2L9.8999 43.0001C8.3999 41.7001 8.0999 39.5001 9.3999 38.0001L11.7999 35.0001L16.1998 29.6C16.2998 29.4 16.4998 29.3 16.5998 29.2C16.6998 29.3 16.8999 29.5 16.9999 29.6L23.7999 38.0001C24.9999 39.5001 24.7999 41.8001 23.2999 43.0001L22.9999 43.2C21.4999 44.4 19.1999 44.2 17.9999 42.7L16.6998 40.9001ZM16.6998 40.9001L17.4999 40.0001C17.4999 40.0001 15.8998 43.8001 13.5998 46.0001H19.4999C19.4999 46.0001 16.6998 43.0001 16.6998 40.9001Z" stroke="#13110C" stroke-miterlimit="10"/>
<path d="M162.1 213.7L163.6 211.9C164.9 210.4 167.1 210.1 168.6 211.4L168.9 211.6C170.4 212.9 170.7 215.1 169.4 216.6L167 219.6L162.6 225C162.5 225.2 162.3 225.3 162.2 225.4C162.1 225.3 161.9 225.1 161.8 225L155 216.6C153.8 215.1 154 212.8 155.5 211.6L155.8 211.4C157.3 210.2 159.6 210.4 160.8 211.9L162.1 213.7L161.3 214.6C161.3 214.6 162.9 210.8 165.2 208.6H159.3C159.2 208.6 162.1 211.6 162.1 213.7Z" fill="#13110C"/>
<path d="M162.1 213.7L163.6 211.9C164.9 210.4 167.1 210.1 168.6 211.4L168.9 211.6C170.4 212.9 170.7 215.1 169.4 216.6L167 219.6L162.6 225C162.5 225.2 162.3 225.3 162.2 225.4C162.1 225.3 161.9 225.1 161.8 225L155 216.6C153.8 215.1 154 212.8 155.5 211.6L155.8 211.4C157.3 210.2 159.6 210.4 160.8 211.9L162.1 213.7ZM162.1 213.7L161.3 214.6C161.3 214.6 162.9 210.8 165.2 208.6H159.3C159.2 208.6 162.1 211.6 162.1 213.7Z" stroke="#13110C" stroke-miterlimit="10"/>
<path d="M54.2996 208.6L57.2996 205C59.7996 201.9 64.3996 201.5 67.4996 204L67.9996 204.4C71.0996 206.9 71.4996 211.5 68.9996 214.6L64.0996 220.6L55.0996 231.5C54.7996 231.8 54.4995 232.1 54.1995 232.4C53.8995 232.1 53.5996 231.9 53.3996 231.6L39.5996 214.6C37.0996 211.5 37.5995 206.9 40.6995 204.4L41.1995 204C44.2995 201.5 48.8996 202 51.3996 205.1L54.2996 208.6L52.6995 210.5C52.6995 210.5 55.8996 202.9 60.5996 198.4H48.5996C48.4996 198.4 54.3996 204.4 54.2996 208.6Z" fill="#13110C"/>
<path d="M54.2996 208.6L57.2996 205C59.7996 201.9 64.3996 201.5 67.4996 204L67.9996 204.4C71.0996 206.9 71.4996 211.5 68.9996 214.6L64.0996 220.6L55.0996 231.5C54.7996 231.8 54.4995 232.1 54.1995 232.4C53.8995 232.1 53.5996 231.9 53.3996 231.6L39.5996 214.6C37.0996 211.5 37.5995 206.9 40.6995 204.4L41.1995 204C44.2995 201.5 48.8996 202 51.3996 205.1L54.2996 208.6ZM54.2996 208.6L52.6995 210.5C52.6995 210.5 55.8996 202.9 60.5996 198.4H48.5996C48.4996 198.4 54.3996 204.4 54.2996 208.6Z" stroke="#13110C" stroke-miterlimit="10"/>
<path d="M53.7996 47.2L50.7996 50.8C48.2996 53.9 43.6996 54.3 40.5996 51.8L40.0996 51.4001C36.9996 48.9001 36.5996 44.3 39.0996 41.2L43.9996 35.2L52.9996 24.2C53.2996 23.9 53.5996 23.6 53.8996 23.3C54.1996 23.6 54.4995 23.8 54.6995 24.1L68.4996 41.1C70.9996 44.2 70.4996 48.8 67.3996 51.3L66.7996 51.7C63.6996 54.2 59.0996 53.7 56.5996 50.6L53.7996 47.2L55.3996 45.3C55.3996 45.3 52.1996 52.9001 47.4996 57.4001H59.4996C59.5996 57.4001 53.6996 51.5 53.7996 47.2Z" fill="#13110C"/>
<path d="M53.7996 47.2L50.7996 50.8C48.2996 53.9 43.6996 54.3 40.5996 51.8L40.0996 51.4001C36.9996 48.9001 36.5996 44.3 39.0996 41.2L43.9996 35.2L52.9996 24.2C53.2996 23.9 53.5996 23.6 53.8996 23.3C54.1996 23.6 54.4995 23.8 54.6995 24.1L68.4996 41.1C70.9996 44.2 70.4996 48.8 67.3996 51.3L66.7996 51.7C63.6996 54.2 59.0996 53.7 56.5996 50.6L53.7996 47.2ZM53.7996 47.2L55.3996 45.3C55.3996 45.3 52.1996 52.9001 47.4996 57.4001H59.4996C59.5996 57.4001 53.6996 51.5 53.7996 47.2Z" stroke="#13110C" stroke-miterlimit="10"/>
<path d="M131.8 208.4L134.8 204.8C137.3 201.7 141.9 201.3 145 203.8L145.5 204.2C148.6 206.7 149 211.3 146.5 214.4L141.6 220.4L132.6 231.3C132.3 231.6 132 231.9 131.7 232.2C131.4 231.9 131.1 231.7 130.9 231.4L117.1 214.4C114.6 211.3 115.1 206.7 118.2 204.2L118.7 203.8C121.8 201.3 126.4 201.8 128.9 204.9L131.8 208.4L130.2 210.3C130.2 210.3 133.4 202.7 138.1 198.2H126.1C126 198.2 131.9 204.2 131.8 208.4Z" fill="#13110C"/>
<path d="M131.8 208.4L134.8 204.8C137.3 201.7 141.9 201.3 145 203.8L145.5 204.2C148.6 206.7 149 211.3 146.5 214.4L141.6 220.4L132.6 231.3C132.3 231.6 132 231.9 131.7 232.2C131.4 231.9 131.1 231.7 130.9 231.4L117.1 214.4C114.6 211.3 115.1 206.7 118.2 204.2L118.7 203.8C121.8 201.3 126.4 201.8 128.9 204.9L131.8 208.4ZM131.8 208.4L130.2 210.3C130.2 210.3 133.4 202.7 138.1 198.2H126.1C126 198.2 131.9 204.2 131.8 208.4Z" stroke="#13110C" stroke-miterlimit="10"/>
<path d="M131.3 47.1L128.3 50.7C125.8 53.8 121.2 54.2 118.1 51.7L117.6 51.3C114.5 48.8 114.1 44.2 116.6 41.1L121.5 35.1L130.5 24.1C130.8 23.8 131.1 23.5 131.4 23.2C131.7 23.5 132 23.7001 132.2 24.0001L146 41.0001C148.5 44.1001 148 48.7 144.9 51.2L144.4 51.6C141.3 54.1 136.7 53.6001 134.2 50.5001L131.3 47.1L132.9 45.2C132.9 45.2 129.7 52.8 125 57.3H137C137.1 57.3 131.2 51.3 131.3 47.1Z" fill="#13110C"/>
<path d="M131.3 47.1L128.3 50.7C125.8 53.8 121.2 54.2 118.1 51.7L117.6 51.3C114.5 48.8 114.1 44.2 116.6 41.1L121.5 35.1L130.5 24.1C130.8 23.8 131.1 23.5 131.4 23.2C131.7 23.5 132 23.7001 132.2 24.0001L146 41.0001C148.5 44.1001 148 48.7 144.9 51.2L144.4 51.6C141.3 54.1 136.7 53.6001 134.2 50.5001L131.3 47.1ZM131.3 47.1L132.9 45.2C132.9 45.2 129.7 52.8 125 57.3H137C137.1 57.3 131.2 51.3 131.3 47.1Z" stroke="#13110C" stroke-miterlimit="10"/>
<path d="M53.7996 105.3L50.7996 108.9C48.2996 112 43.6996 112.4 40.5996 109.9L40.0996 109.5C36.9996 107 36.5996 102.4 39.0996 99.3L43.9996 93.3L52.9996 82.4001C53.2996 82.1001 53.5996 81.8001 53.8996 81.5001C54.1996 81.8001 54.4995 82 54.6995 82.3L68.4996 99.3C70.9996 102.4 70.4996 107 67.3996 109.5L66.8996 109.9C63.7996 112.4 59.1995 111.9 56.6995 108.8L53.7996 105.3L55.3996 103.4C55.3996 103.4 52.1996 111 47.4996 115.5H59.4996C59.5996 115.5 53.6996 109.5 53.7996 105.3Z" fill="#13110C"/>
<path d="M53.7996 105.3L50.7996 108.9C48.2996 112 43.6996 112.4 40.5996 109.9L40.0996 109.5C36.9996 107 36.5996 102.4 39.0996 99.3L43.9996 93.3L52.9996 82.4001C53.2996 82.1001 53.5996 81.8001 53.8996 81.5001C54.1996 81.8001 54.4995 82 54.6995 82.3L68.4996 99.3C70.9996 102.4 70.4996 107 67.3996 109.5L66.8996 109.9C63.7996 112.4 59.1995 111.9 56.6995 108.8L53.7996 105.3ZM53.7996 105.3L55.3996 103.4C55.3996 103.4 52.1996 111 47.4996 115.5H59.4996C59.5996 115.5 53.6996 109.5 53.7996 105.3Z" stroke="#13110C" stroke-miterlimit="10"/>
<path d="M131.3 105.3L128.3 108.9C125.8 112 121.2 112.4 118.1 109.9L117.6 109.5C114.5 107 114.1 102.4 116.6 99.3L121.5 93.3L130.5 82.4001C130.8 82.1001 131.1 81.8001 131.4 81.5001C131.7 81.8001 132 82 132.2 82.3L146 99.3C148.5 102.4 148 107 144.9 109.5L144.4 109.9C141.3 112.4 136.7 111.9 134.2 108.8L131.3 105.3L132.9 103.4C132.9 103.4 129.7 111 125 115.5H137C137 115.5 131.2 109.5 131.3 105.3Z" fill="#13110C"/>
<path d="M131.3 105.3L128.3 108.9C125.8 112 121.2 112.4 118.1 109.9L117.6 109.5C114.5 107 114.1 102.4 116.6 99.3L121.5 93.3L130.5 82.4001C130.8 82.1001 131.1 81.8001 131.4 81.5001C131.7 81.8001 132 82 132.2 82.3L146 99.3C148.5 102.4 148 107 144.9 109.5L144.4 109.9C141.3 112.4 136.7 111.9 134.2 108.8L131.3 105.3ZM131.3 105.3L132.9 103.4C132.9 103.4 129.7 111 125 115.5H137C137 115.5 131.2 109.5 131.3 105.3Z" stroke="#13110C" stroke-miterlimit="10"/>
<path d="M52.9997 149.5L55.9997 145.9C58.4997 142.8 63.0997 142.4 66.1997 144.9L66.6997 145.3C69.7997 147.8 70.1997 152.4 67.6997 155.5L62.7998 161.5L53.7998 172.5C53.4998 172.8 53.2997 173.1 52.8997 173.4C52.5997 173.1 52.3997 172.9 52.0997 172.6L38.2998 155.6C35.7998 152.5 36.2997 147.9 39.3997 145.4L39.8997 145C42.9997 142.5 47.5997 143 50.0997 146.1L52.9997 149.5L51.3997 151.4C51.3997 151.4 54.5998 143.8 59.2998 139.3H47.2998C47.2998 139.3 53.0997 145.3 52.9997 149.5Z" fill="#13110C"/>
<path d="M52.9997 149.5L55.9997 145.9C58.4997 142.8 63.0997 142.4 66.1997 144.9L66.6997 145.3C69.7997 147.8 70.1997 152.4 67.6997 155.5L62.7998 161.5L53.7998 172.5C53.4998 172.8 53.2997 173.1 52.8997 173.4C52.5997 173.1 52.3997 172.9 52.0997 172.6L38.2998 155.6C35.7998 152.5 36.2997 147.9 39.3997 145.4L39.8997 145C42.9997 142.5 47.5997 143 50.0997 146.1L52.9997 149.5ZM52.9997 149.5L51.3997 151.4C51.3997 151.4 54.5998 143.8 59.2998 139.3H47.2998C47.2998 139.3 53.0997 145.3 52.9997 149.5Z" stroke="#13110C" stroke-miterlimit="10"/>
<path d="M130.6 149.4L133.6 145.8C136.1 142.7 140.7 142.3 143.8 144.8L144.3 145.2C147.4 147.7 147.8 152.3 145.3 155.4L140.4 161.4L131.4 172.4C131.1 172.7 130.8 173 130.5 173.3C130.2 173 129.9 172.8 129.7 172.5L115.9 155.5C113.4 152.4 113.9 147.8 117 145.3L117.5 144.9C120.6 142.4 125.2 142.9 127.7 146L130.6 149.4L129 151.3C129 151.3 132.2 143.7 136.9 139.2H124.9C124.8 139.2 130.7 145.1 130.6 149.4Z" fill="#13110C"/>
<path d="M130.6 149.4L133.6 145.8C136.1 142.7 140.7 142.3 143.8 144.8L144.3 145.2C147.4 147.7 147.8 152.3 145.3 155.4L140.4 161.4L131.4 172.4C131.1 172.7 130.8 173 130.5 173.3C130.2 173 129.9 172.8 129.7 172.5L115.9 155.5C113.4 152.4 113.9 147.8 117 145.3L117.5 144.9C120.6 142.4 125.2 142.9 127.7 146L130.6 149.4ZM130.6 149.4L129 151.3C129 151.3 132.2 143.7 136.9 139.2H124.9C124.8 139.2 130.7 145.1 130.6 149.4Z" stroke="#13110C" stroke-miterlimit="10"/>
<path d="M90.2996 135L87.2996 138.6C84.7996 141.7 80.1996 142.1 77.0996 139.6L76.5996 139.2C73.4996 136.7 73.0996 132.1 75.5996 129L80.4996 123L89.4996 112C89.7996 111.7 90.0996 111.4 90.3996 111.1C90.6996 111.4 90.9995 111.6 91.1995 111.9L105 128.9C107.5 132 107 136.6 103.9 139.1L103.4 139.5C100.3 142 95.6995 141.5 93.1995 138.4L90.2996 135L91.8996 133.1C91.8996 133.1 88.6996 140.7 83.9996 145.2H95.9996C95.9996 145.2 90.1996 139.2 90.2996 135Z" fill="#13110C"/>
<path d="M90.2996 135L87.2996 138.6C84.7996 141.7 80.1996 142.1 77.0996 139.6L76.5996 139.2C73.4996 136.7 73.0996 132.1 75.5996 129L80.4996 123L89.4996 112C89.7996 111.7 90.0996 111.4 90.3996 111.1C90.6996 111.4 90.9995 111.6 91.1995 111.9L105 128.9C107.5 132 107 136.6 103.9 139.1L103.4 139.5C100.3 142 95.6995 141.5 93.1995 138.4L90.2996 135ZM90.2996 135L91.8996 133.1C91.8996 133.1 88.6996 140.7 83.9996 145.2H95.9996C95.9996 145.2 90.1996 139.2 90.2996 135Z" stroke="#13110C" stroke-miterlimit="10"/>
</svg>
