<svg width="181" height="254" viewBox="0 0 181 254" fill="none" xmlns="http://www.w3.org/2000/svg">
<path d="M180 231.4C180 243.2 173.2 252.8 164.8 252.8H16.4998C8.09976 252.8 1.2998 243.2 1.2998 231.4V22.3002C1.2998 10.5002 8.09976 0.900146 16.4998 0.900146H164.8C173.2 0.900146 180 10.5002 180 22.3002V231.4Z" fill="white" stroke="#1D1D1B" stroke-miterlimit="10"/>
<path d="M18.0997 25.9001H9.2998V23.7002H12.6997V12.3002H9.2998V10.1002H14.7998V23.8002H18.0997V25.9001Z" fill="#1D1D1B"/>
<path d="M20.7998 20.7002V15.1002C20.7998 13.6002 21.2998 12.4002 22.2998 11.3002C23.2998 10.2002 24.4998 9.7002 25.9998 9.7002C27.4998 9.7002 28.6997 10.2002 29.6997 11.3002C30.6997 12.4002 31.1997 13.6002 31.1997 15.1002V20.7002C31.1997 22.2002 30.6997 23.4001 29.6997 24.5001C28.6997 25.6001 27.4998 26.1002 25.9998 26.1002C24.4998 26.1002 23.2998 25.6001 22.2998 24.5001C21.2998 23.5001 20.7998 22.2002 20.7998 20.7002ZM22.9998 15.1002V20.7002C22.9998 21.6002 23.2998 22.3001 23.8998 23.0001C24.4998 23.6001 25.1998 24.0001 25.9998 24.0001C26.7998 24.0001 27.4997 23.7001 28.0997 23.0001C28.6997 22.4001 28.9998 21.6002 28.9998 20.8002V15.2002C28.9998 14.4002 28.6997 13.6001 28.0997 13.0001C27.4997 12.4001 26.7998 12.1002 25.9998 12.1002C25.1998 12.1002 24.4998 12.4001 23.8998 13.0001C23.2998 13.5001 22.9998 14.2002 22.9998 15.1002Z" fill="#1D1D1B"/>
<path d="M160 229.4H168.8V231.6H165.4V243H168.8V245.2H163.3V231.5H160V229.4Z" fill="#1D1D1B"/>
<path d="M157.3 234.5V240.1C157.3 241.6 156.8 242.8 155.8 243.9C154.8 245 153.6 245.5 152.1 245.5C150.6 245.5 149.4 245 148.4 243.9C147.4 242.8 146.9 241.6 146.9 240.1V234.5C146.9 233 147.4 231.8 148.4 230.7C149.4 229.6 150.6 229.1 152.1 229.1C153.6 229.1 154.8 229.6 155.8 230.7C156.8 231.8 157.3 233.1 157.3 234.5ZM155.1 240.2V234.6C155.1 233.7 154.8 233 154.2 232.3C153.6 231.7 152.9 231.3 152.1 231.3C151.3 231.3 150.6 231.6 150 232.3C149.4 232.9 149.1 233.7 149.1 234.5V240.1C149.1 240.9 149.4 241.7 150 242.3C150.6 242.9 151.3 243.2 152.1 243.2C152.9 243.2 153.6 242.9 154.2 242.3C154.8 241.8 155.1 241 155.1 240.2Z" fill="#1D1D1B"/>
<path d="M17.7999 43.1002C18.1999 44.2002 18.8999 45.8001 19.9999 46.5001H15.1998C16.3998 45.5001 16.9999 44.1002 17.2999 43.1002C16.5999 44.3002 15.2999 45.1002 13.8999 45.1002C11.6999 45.1002 9.8999 43.3002 9.8999 41.1002C9.8999 38.9002 11.6999 37.1002 13.8999 37.1002C14.2999 37.1002 14.7998 37.2002 15.1998 37.3002C14.3998 36.6002 13.8999 35.5001 13.8999 34.4001C13.8999 32.2001 15.6999 30.4001 17.8999 30.4001C20.0999 30.4001 21.8999 32.2001 21.8999 34.4001C21.8999 35.6001 21.2999 36.7001 20.4999 37.4001C20.7999 37.3001 21.1999 37.3002 21.4999 37.3002C23.6999 37.3002 25.4999 39.1002 25.4999 41.3002C25.4999 43.5002 23.6999 45.3002 21.4999 45.3002C19.7999 45.3002 18.4999 44.4002 17.7999 43.1002Z" fill="#1D1D1B"/>
<path d="M164.9 211.1C164.5 210 163.8 208.4 162.7 207.7H167.5C166.3 208.7 165.7 210.1 165.4 211.1C166.1 209.9 167.4 209.1 168.8 209.1C171 209.1 172.8 210.9 172.8 213.1C172.8 215.3 171 217.1 168.8 217.1C168.4 217.1 167.9 217 167.5 216.9C168.3 217.6 168.8 218.7 168.8 219.8C168.8 222 167 223.8 164.8 223.8C162.6 223.8 160.8 222 160.8 219.8C160.8 218.6 161.4 217.5 162.2 216.8C161.9 216.9 161.5 216.9 161.2 216.9C159 216.9 157.2 215.1 157.2 212.9C157.2 210.7 159 208.9 161.2 208.9C162.9 208.9 164.2 209.8 164.9 211.1Z" fill="#1D1D1B"/>
<path d="M48.9996 47.8002C49.7996 50.3002 51.2997 53.7002 53.8997 55.2002H43.2997C45.9997 53.1002 47.2997 49.9002 47.7997 47.7002C46.2997 50.3002 43.4997 52.1002 40.2997 52.1002C35.4997 52.1002 31.5996 48.2001 31.5996 43.4001C31.5996 38.6001 35.4997 34.7002 40.2997 34.7002C41.2997 34.7002 42.1996 34.9002 43.0996 35.1002C41.3996 33.5002 40.2997 31.3002 40.2997 28.8002C40.2997 24.0002 44.1996 20.1002 48.9996 20.1002C53.7996 20.1002 57.6996 24.0002 57.6996 28.8002C57.6996 31.5002 56.4996 33.9001 54.5996 35.5001C55.2996 35.3001 56.0997 35.2002 56.7997 35.2002C61.5997 35.2002 65.4996 39.1001 65.4996 43.9001C65.4996 48.7001 61.5997 52.6002 56.7997 52.6002C53.2997 52.5002 50.3996 50.6002 48.9996 47.8002Z" fill="#1D1D1B"/>
<path d="M48 207.2C47.2 204.7 45.7 201.3 43.1 199.8H53.7C51 201.9 49.7 205.1 49.2 207.3C50.7 204.7 53.5 202.9 56.7 202.9C61.5 202.9 65.4 206.8 65.4 211.6C65.4 216.4 61.5 220.3 56.7 220.3C55.7 220.3 54.8 220.1 53.9 219.9C55.6 221.5 56.7 223.7 56.7 226.2C56.7 231 52.8 234.9 48 234.9C43.2 234.9 39.3 231 39.3 226.2C39.3 223.5 40.5 221.1 42.4 219.5C41.7 219.7 40.9 219.8 40.2 219.8C35.4 219.8 31.5 215.9 31.5 211.1C31.5 206.3 35.4 202.4 40.2 202.4C43.7 202.4 46.6 204.4 48 207.2Z" fill="#1D1D1B"/>
<path d="M134.9 47.8002C135.7 50.3002 137.2 53.7002 139.8 55.2002H129.2C131.9 53.1002 133.2 49.9002 133.7 47.7002C132.2 50.3002 129.4 52.1002 126.2 52.1002C121.4 52.1002 117.5 48.2001 117.5 43.4001C117.5 38.6001 121.4 34.7002 126.2 34.7002C127.2 34.7002 128.1 34.9002 129 35.1002C127.3 33.5002 126.2 31.3002 126.2 28.8002C126.2 24.0002 130.1 20.1002 134.9 20.1002C139.7 20.1002 143.6 24.0002 143.6 28.8002C143.6 31.5002 142.4 33.9001 140.5 35.5001C141.2 35.3001 142 35.2002 142.7 35.2002C147.5 35.2002 151.4 39.1001 151.4 43.9001C151.4 48.7001 147.5 52.6002 142.7 52.6002C139.3 52.5002 136.3 50.6002 134.9 47.8002Z" fill="#1D1D1B"/>
<path d="M133.9 207.2C133.1 204.7 131.6 201.3 129 199.8H139.6C136.9 201.9 135.6 205.1 135.1 207.3C136.6 204.7 139.4 202.9 142.6 202.9C147.4 202.9 151.3 206.8 151.3 211.6C151.3 216.4 147.4 220.3 142.6 220.3C141.6 220.3 140.7 220.1 139.8 219.9C141.5 221.5 142.6 223.7 142.6 226.2C142.6 231 138.7 234.9 133.9 234.9C129.1 234.9 125.2 231 125.2 226.2C125.2 223.5 126.4 221.1 128.3 219.5C127.6 219.7 126.8 219.8 126.1 219.8C121.3 219.8 117.4 215.9 117.4 211.1C117.4 206.3 121.3 202.4 126.1 202.4C129.6 202.4 132.5 204.4 133.9 207.2Z" fill="#1D1D1B"/>
<path d="M48.9996 107.9C49.7996 110.4 51.2997 113.8 53.8997 115.3H43.2997C45.9997 113.2 47.2997 110 47.7997 107.8C46.2997 110.4 43.4997 112.2 40.2997 112.2C35.4997 112.2 31.5996 108.3 31.5996 103.5C31.5996 98.7001 35.4997 94.8002 40.2997 94.8002C41.2997 94.8002 42.1996 95.0002 43.0996 95.2002C41.3996 93.6002 40.2997 91.4001 40.2997 88.9001C40.2997 84.1001 44.1996 80.2002 48.9996 80.2002C53.7996 80.2002 57.6996 84.1001 57.6996 88.9001C57.6996 91.6001 56.4996 94.0002 54.5996 95.6002C55.2996 95.4002 56.0997 95.3002 56.7997 95.3002C61.5997 95.3002 65.4996 99.2001 65.4996 104C65.4996 108.8 61.5997 112.7 56.7997 112.7C53.2997 112.7 50.3996 110.8 48.9996 107.9Z" fill="#1D1D1B"/>
<path d="M134.9 107.9C135.7 110.4 137.2 113.8 139.8 115.3H129.2C131.9 113.2 133.2 110 133.7 107.8C132.2 110.4 129.4 112.2 126.2 112.2C121.4 112.2 117.5 108.3 117.5 103.5C117.5 98.7001 121.4 94.8002 126.2 94.8002C127.2 94.8002 128.1 95.0002 129 95.2002C127.3 93.6002 126.2 91.4001 126.2 88.9001C126.2 84.1001 130.1 80.2002 134.9 80.2002C139.7 80.2002 143.6 84.1001 143.6 88.9001C143.6 91.6001 142.4 94.0002 140.5 95.6002C141.2 95.4002 142 95.3002 142.7 95.3002C147.5 95.3002 151.4 99.2001 151.4 104C151.4 108.8 147.5 112.7 142.7 112.7C139.3 112.7 136.3 110.8 134.9 107.9Z" fill="#1D1D1B"/>
<path d="M133.9 147.3C133.1 144.8 131.6 141.4 129 139.9H139.6C136.9 142 135.6 145.2 135.1 147.4C136.6 144.8 139.4 143 142.6 143C147.4 143 151.3 146.9 151.3 151.7C151.3 156.5 147.4 160.4 142.6 160.4C141.6 160.4 140.7 160.2 139.8 160C141.5 161.6 142.6 163.8 142.6 166.3C142.6 171.1 138.7 175 133.9 175C129.1 175 125.2 171.1 125.2 166.3C125.2 163.6 126.4 161.2 128.3 159.6C127.6 159.8 126.8 159.9 126.1 159.9C121.3 159.9 117.4 156 117.4 151.2C117.4 146.4 121.3 142.5 126.1 142.5C129.6 142.5 132.5 144.4 133.9 147.3Z" fill="#1D1D1B"/>
<path d="M48 147.3C47.2 144.8 45.7 141.4 43.1 139.9H53.7C51 142 49.7 145.2 49.2 147.4C50.7 144.8 53.5 143 56.7 143C61.5 143 65.4 146.9 65.4 151.7C65.4 156.5 61.5 160.4 56.7 160.4C55.7 160.4 54.8 160.2 53.9 160C55.6 161.6 56.7 163.8 56.7 166.3C56.7 171.1 52.8 175 48 175C43.2 175 39.3 171.1 39.3 166.3C39.3 163.6 40.5 161.2 42.4 159.6C41.7 159.8 40.9 159.9 40.2 159.9C35.4 159.9 31.5 156 31.5 151.2C31.5 146.4 35.4 142.5 40.2 142.5C43.7 142.5 46.6 144.4 48 147.3Z" fill="#1D1D1B"/>
<path d="M91.0997 77.4001C91.8997 79.9001 93.3998 83.3002 95.9998 84.8002H85.3998C88.0998 82.7002 89.3998 79.5002 89.8998 77.3002C88.3998 79.9002 85.5998 81.7002 82.3998 81.7002C77.5998 81.7002 73.6997 77.8001 73.6997 73.0001C73.6997 68.2001 77.5998 64.3002 82.3998 64.3002C83.3998 64.3002 84.2997 64.5002 85.1997 64.7002C83.4997 63.1002 82.3998 60.9001 82.3998 58.4001C82.3998 53.6001 86.2997 49.7002 91.0997 49.7002C95.8997 49.7002 99.7998 53.6001 99.7998 58.4001C99.7998 61.1001 98.5997 63.5002 96.6997 65.1002C97.3997 64.9002 98.1998 64.8002 98.8998 64.8002C103.7 64.8002 107.6 68.7001 107.6 73.5001C107.6 78.3001 103.7 82.2002 98.8998 82.2002C95.4998 82.2002 92.4997 80.3001 91.0997 77.4001Z" fill="#1D1D1B"/>
<path d="M90.3999 177.2C89.5999 174.7 88.0999 171.3 85.4999 169.8H96.0999C93.3999 171.9 92.0999 175.1 91.5999 177.3C93.0999 174.7 95.8999 172.9 99.0999 172.9C103.9 172.9 107.8 176.8 107.8 181.6C107.8 186.4 103.9 190.3 99.0999 190.3C98.0999 190.3 97.1999 190.1 96.2999 189.9C97.9999 191.5 99.0999 193.7 99.0999 196.2C99.0999 201 95.1999 204.9 90.3999 204.9C85.5999 204.9 81.6998 201 81.6998 196.2C81.6998 193.5 82.8999 191.1 84.7999 189.5C84.0999 189.7 83.2999 189.8 82.5999 189.8C77.7999 189.8 73.8999 185.9 73.8999 181.1C73.8999 176.3 77.7999 172.4 82.5999 172.4C85.9999 172.4 88.9999 174.4 90.3999 177.2Z" fill="#1D1D1B"/>
</svg>
