<svg width="181" height="254" viewBox="0 0 181 254" fill="none" xmlns="http://www.w3.org/2000/svg">
<path d="M180 231.9C180 243.7 173.2 253.3 164.8 253.3H16.4998C8.09976 253.3 1.2998 243.7 1.2998 231.9V22.7001C1.2998 10.9001 8.09976 1.30005 16.4998 1.30005H164.8C173.2 1.30005 180 10.9001 180 22.7001V231.9Z" fill="white" stroke="#1D1D1B" stroke-miterlimit="10"/>
<path d="M18.4998 23.9H9.69971V21.7001H13.0997V10.3H9.69971V8.10004H15.1997V21.8H18.4998V23.9Z" fill="#E30B13"/>
<path d="M21.1997 18.7001V13.1C21.1997 11.6 21.6997 10.4 22.6997 9.30005C23.6997 8.20005 24.8998 7.70007 26.3998 7.70007C27.8998 7.70007 29.0997 8.20005 30.0997 9.30005C31.0997 10.4 31.5997 11.6 31.5997 13.1V18.7001C31.5997 20.2001 31.0997 21.4001 30.0997 22.5001C29.0997 23.6001 27.8998 24.1 26.3998 24.1C24.8998 24.1 23.6997 23.6001 22.6997 22.5001C21.6997 21.5001 21.1997 20.2001 21.1997 18.7001ZM23.3998 13.1V18.7001C23.3998 19.6001 23.6998 20.3001 24.2998 21.0001C24.8998 21.6001 25.5998 22.0001 26.3998 22.0001C27.1998 22.0001 27.8998 21.7001 28.4998 21.0001C29.0998 20.4001 29.3998 19.6 29.3998 18.8V13.2001C29.3998 12.4001 29.0998 11.6001 28.4998 11.0001C27.8998 10.4001 27.1998 10.1 26.3998 10.1C25.5998 10.1 24.8998 10.4001 24.2998 11.0001C23.6998 11.5001 23.3998 12.2 23.3998 13.1Z" fill="#E30B13"/>
<path d="M160 229.8H168.8V232H165.4V243.4H168.8V245.6H163.3V231.9H160V229.8Z" fill="#E30B13"/>
<path d="M157.3 235V240.6C157.3 242.1 156.8 243.3 155.8 244.4C154.8 245.5 153.6 246 152.1 246C150.6 246 149.4 245.5 148.4 244.4C147.4 243.3 146.9 242.1 146.9 240.6V235C146.9 233.5 147.4 232.3 148.4 231.2C149.4 230.1 150.6 229.6 152.1 229.6C153.6 229.6 154.8 230.1 155.8 231.2C156.8 232.2 157.3 233.5 157.3 235ZM155.1 240.6V235C155.1 234.1 154.8 233.4 154.2 232.7C153.6 232.1 152.9 231.7 152.1 231.7C151.3 231.7 150.6 232 150 232.7C149.4 233.3 149.1 234.1 149.1 234.9V240.5C149.1 241.3 149.4 242.1 150 242.7C150.6 243.3 151.3 243.6 152.1 243.6C152.9 243.6 153.6 243.3 154.2 242.7C154.8 242.2 155.1 241.5 155.1 240.6Z" fill="#E30B13"/>
<path d="M11.7998 36.4L18.7998 45.2001L25.8998 36.4L18.8998 27.6L11.7998 36.4Z" fill="#E30B13"/>
<path d="M158 213.7L165 222.5L172.1 213.7L165.1 205L158 213.7Z" fill="#E30B13"/>
<path d="M32.5996 35.4L46.8997 53.5001L61.4996 35.4L46.9996 17.5001L32.5996 35.4Z" fill="#E30B13"/>
<path d="M32.5996 216L46.8997 234.1L61.4996 216L46.9996 198.1L32.5996 216Z" fill="#E30B13"/>
<path d="M116.2 36.0001L130.5 54.1L145.1 36.0001L130.6 18.1L116.2 36.0001Z" fill="#E30B13"/>
<path d="M116.2 216.6L130.5 234.7L145.1 216.6L130.6 198.6L116.2 216.6Z" fill="#E30B13"/>
<path d="M32.1997 96.1L46.5997 114.3L61.0997 96.1L46.6997 78.2001L32.1997 96.1Z" fill="#E30B13"/>
<path d="M115.8 96.7001L130.2 114.8L144.7 96.7001L130.3 78.8L115.8 96.7001Z" fill="#E30B13"/>
<path d="M32.5996 156.5L46.8997 174.6L61.4996 156.5L46.9996 138.6L32.5996 156.5Z" fill="#E30B13"/>
<path d="M116.2 157.1L130.5 175.2L145.1 157.1L130.6 139.2L116.2 157.1Z" fill="#E30B13"/>
<path d="M72.8999 187.1L87.2999 205.3L101.8 187.1L87.3999 169.2L72.8999 187.1Z" fill="#E30B13"/>
<path d="M72.8999 67.2001L87.2999 85.3L101.8 67.2001L87.3999 49.2001L72.8999 67.2001Z" fill="#E30B13"/>
</svg>
