<svg width="181" height="254" viewBox="0 0 181 254" fill="none" xmlns="http://www.w3.org/2000/svg">
<path d="M180 231.4C180 243.2 173.2 252.8 164.8 252.8H16.4998C8.09976 252.8 1.2998 243.2 1.2998 231.4V22.2C1.2998 10.4 8.09976 0.800049 16.4998 0.800049H164.8C173.2 0.800049 180 10.4 180 22.2V231.4Z" fill="white" stroke="#1D1D1B" stroke-miterlimit="10"/>
<path d="M18.0997 25.8H9.2998V23.6H12.6997V12.2H9.2998V10.0001H14.7998V23.7H18.0997V25.8Z" fill="#13110C"/>
<path d="M20.7998 20.6V15.0001C20.7998 13.5001 21.2998 12.3 22.2998 11.2C23.2998 10.1 24.4998 9.60004 25.9998 9.60004C27.4998 9.60004 28.6997 10.1 29.6997 11.2C30.6997 12.3 31.1997 13.5001 31.1997 15.0001V20.6C31.1997 22.1 30.6997 23.3001 29.6997 24.4001C28.6997 25.5001 27.4998 26.0001 25.9998 26.0001C24.4998 26.0001 23.2998 25.5001 22.2998 24.4001C21.2998 23.4001 20.7998 22.1 20.7998 20.6ZM22.9998 15.0001V20.6C22.9998 21.5 23.2998 22.2001 23.8998 22.9001C24.4998 23.5001 25.1998 23.9001 25.9998 23.9001C26.7998 23.9001 27.4997 23.6001 28.0997 22.9001C28.6997 22.3001 28.9998 21.5 28.9998 20.7V15.1C28.9998 14.3 28.6997 13.5001 28.0997 12.9001C27.4997 12.3001 26.7998 12.0001 25.9998 12.0001C25.1998 12.0001 24.4998 12.3001 23.8998 12.9001C23.2998 13.4001 22.9998 14.1001 22.9998 15.0001Z" fill="#13110C"/>
<path d="M160 229.3H168.8V231.5H165.4V242.9H168.8V245.1H163.3V231.4H160V229.3Z" fill="#13110C"/>
<path d="M157.3 234.5V240.1C157.3 241.6 156.8 242.8 155.8 243.9C154.8 245 153.6 245.5 152.1 245.5C150.6 245.5 149.4 245 148.4 243.9C147.4 242.8 146.9 241.6 146.9 240.1V234.5C146.9 233 147.4 231.8 148.4 230.7C149.4 229.6 150.6 229.1 152.1 229.1C153.6 229.1 154.8 229.6 155.8 230.7C156.8 231.7 157.3 233 157.3 234.5ZM155.1 240.1V234.5C155.1 233.6 154.8 232.9 154.2 232.2C153.6 231.6 152.9 231.2 152.1 231.2C151.3 231.2 150.6 231.5 150 232.2C149.4 232.8 149.1 233.6 149.1 234.4V240C149.1 240.8 149.4 241.6 150 242.2C150.6 242.8 151.3 243.1 152.1 243.1C152.9 243.1 153.6 242.8 154.2 242.2C154.8 241.7 155.1 241 155.1 240.1Z" fill="#13110C"/>
<path d="M19.5997 41.1L18.0997 42.9001C16.7997 44.4001 14.5997 44.7001 13.0997 43.4001L12.7998 43.2C11.2998 41.9 10.9998 39.7 12.2998 38.2L14.6997 35.2L19.0997 29.8C19.1997 29.6 19.3998 29.5001 19.4998 29.4001C19.5998 29.5001 19.7998 29.7 19.8998 29.8L26.6997 38.2C27.8997 39.7 27.6997 42 26.1997 43.2L25.8998 43.4001C24.3998 44.6001 22.0998 44.4001 20.8998 42.9001L19.5997 41.1L20.3998 40.2C20.3998 40.2 18.7998 44 16.4998 46.2H22.3998C22.4998 46.1 19.5997 43.2 19.5997 41.1Z" fill="#13110C"/>
<path d="M19.5997 41.1L18.0997 42.9001C16.7997 44.4001 14.5997 44.7001 13.0997 43.4001L12.7998 43.2C11.2998 41.9 10.9998 39.7 12.2998 38.2L14.6997 35.2L19.0997 29.8C19.1997 29.6 19.3998 29.5001 19.4998 29.4001C19.5998 29.5001 19.7998 29.7 19.8998 29.8L26.6997 38.2C27.8997 39.7 27.6997 42 26.1997 43.2L25.8998 43.4001C24.3998 44.6001 22.0998 44.4001 20.8998 42.9001L19.5997 41.1ZM19.5997 41.1L20.3998 40.2C20.3998 40.2 18.7998 44 16.4998 46.2H22.3998C22.4998 46.1 19.5997 43.2 19.5997 41.1Z" stroke="#13110C" stroke-miterlimit="10"/>
<path d="M165 213.8L166.5 212C167.8 210.5 170 210.2 171.5 211.5L171.8 211.7C173.3 213 173.6 215.2 172.3 216.7L169.9 219.7L165.5 225.1C165.4 225.3 165.2 225.4 165.1 225.5C165 225.4 164.8 225.2 164.7 225.1L157.9 216.7C156.7 215.2 156.9 212.9 158.4 211.7L158.7 211.5C160.2 210.3 162.5 210.5 163.7 212L165 213.8L164.2 214.7C164.2 214.7 165.8 210.9 168.1 208.7H162.2C162.2 208.8 165.1 211.7 165 213.8Z" fill="#13110C"/>
<path d="M165 213.8L166.5 212C167.8 210.5 170 210.2 171.5 211.5L171.8 211.7C173.3 213 173.6 215.2 172.3 216.7L169.9 219.7L165.5 225.1C165.4 225.3 165.2 225.4 165.1 225.5C165 225.4 164.8 225.2 164.7 225.1L157.9 216.7C156.7 215.2 156.9 212.9 158.4 211.7L158.7 211.5C160.2 210.3 162.5 210.5 163.7 212L165 213.8ZM165 213.8L164.2 214.7C164.2 214.7 165.8 210.9 168.1 208.7H162.2C162.2 208.8 165.1 211.7 165 213.8Z" stroke="#13110C" stroke-miterlimit="10"/>
<path d="M54.9997 208L57.9997 204.4C60.4997 201.3 65.0997 200.9 68.1997 203.4L68.6997 203.8C71.7997 206.3 72.1997 210.9 69.6997 214L64.7998 220L55.7998 231C55.4998 231.3 55.2997 231.6 54.8997 231.9C54.5997 231.6 54.3997 231.4 54.0997 231.1L40.2998 214.1C37.7998 211 38.2997 206.4 41.3997 203.9L41.8997 203.5C44.9997 201 49.5997 201.5 52.0997 204.6L54.9997 208L53.3997 209.9C53.3997 209.9 56.5998 202.3 61.2998 197.8H49.2998C49.1998 197.8 55.0997 203.8 54.9997 208Z" fill="#13110C"/>
<path d="M54.9997 208L57.9997 204.4C60.4997 201.3 65.0997 200.9 68.1997 203.4L68.6997 203.8C71.7997 206.3 72.1997 210.9 69.6997 214L64.7998 220L55.7998 231C55.4998 231.3 55.2997 231.6 54.8997 231.9C54.5997 231.6 54.3997 231.4 54.0997 231.1L40.2998 214.1C37.7998 211 38.2997 206.4 41.3997 203.9L41.8997 203.5C44.9997 201 49.5997 201.5 52.0997 204.6L54.9997 208ZM54.9997 208L53.3997 209.9C53.3997 209.9 56.5998 202.3 61.2998 197.8H49.2998C49.1998 197.8 55.0997 203.8 54.9997 208Z" stroke="#13110C" stroke-miterlimit="10"/>
<path d="M54.4997 46.6L51.4997 50.2C48.9997 53.3 44.3998 53.7 41.2998 51.2L40.7998 50.8C37.6998 48.3 37.2998 43.7 39.7998 40.6L44.6997 34.6L53.6997 23.7C53.9997 23.4 54.1997 23.1 54.5997 22.8C54.8997 23.1 55.0997 23.3 55.3997 23.6L69.1997 40.6C71.6997 43.7 71.1997 48.3 68.0997 50.8L67.5997 51.2C64.4997 53.7 59.8997 53.2 57.3997 50.1L54.4997 46.6L56.0997 44.7C56.0997 44.7 52.8997 52.3 48.1997 56.8H60.1997C60.2997 56.8 54.3997 50.9 54.4997 46.6Z" fill="#13110C"/>
<path d="M54.4997 46.6L51.4997 50.2C48.9997 53.3 44.3998 53.7 41.2998 51.2L40.7998 50.8C37.6998 48.3 37.2998 43.7 39.7998 40.6L44.6997 34.6L53.6997 23.7C53.9997 23.4 54.1997 23.1 54.5997 22.8C54.8997 23.1 55.0997 23.3 55.3997 23.6L69.1997 40.6C71.6997 43.7 71.1997 48.3 68.0997 50.8L67.5997 51.2C64.4997 53.7 59.8997 53.2 57.3997 50.1L54.4997 46.6ZM54.4997 46.6L56.0997 44.7C56.0997 44.7 52.8997 52.3 48.1997 56.8H60.1997C60.2997 56.8 54.3997 50.9 54.4997 46.6Z" stroke="#13110C" stroke-miterlimit="10"/>
<path d="M132.5 207.8L135.5 204.2C138 201.1 142.6 200.7 145.7 203.2L146.2 203.6C149.3 206.1 149.7 210.7 147.2 213.8L142.3 219.8L133.3 230.8C133 231.1 132.7 231.4 132.4 231.7C132.1 231.4 131.8 231.2 131.6 230.9L117.8 213.9C115.3 210.8 115.8 206.2 118.9 203.7L119.4 203.3C122.5 200.8 127.1 201.3 129.6 204.4L132.5 207.8L130.9 209.7C130.9 209.7 134.1 202.1 138.8 197.6H126.8C126.8 197.6 132.6 203.6 132.5 207.8Z" fill="#13110C"/>
<path d="M132.5 207.8L135.5 204.2C138 201.1 142.6 200.7 145.7 203.2L146.2 203.6C149.3 206.1 149.7 210.7 147.2 213.8L142.3 219.8L133.3 230.8C133 231.1 132.7 231.4 132.4 231.7C132.1 231.4 131.8 231.2 131.6 230.9L117.8 213.9C115.3 210.8 115.8 206.2 118.9 203.7L119.4 203.3C122.5 200.8 127.1 201.3 129.6 204.4L132.5 207.8ZM132.5 207.8L130.9 209.7C130.9 209.7 134.1 202.1 138.8 197.6H126.8C126.8 197.6 132.6 203.6 132.5 207.8Z" stroke="#13110C" stroke-miterlimit="10"/>
<path d="M132.1 46.5001L129.1 50.1C126.6 53.2 122 53.6 118.9 51.1L118.4 50.7C115.3 48.2 114.9 43.6001 117.4 40.5001L122.3 34.5001L131.3 23.6C131.6 23.3 131.9 23 132.2 22.7C132.5 23 132.8 23.2001 133 23.5001L146.8 40.5001C149.3 43.6001 148.8 48.2 145.7 50.7L145.1 51.1C142 53.6 137.4 53.1001 134.9 50.0001L132.1 46.5001L133.7 44.6C133.7 44.6 130.5 52.2 125.8 56.7H137.8C137.8 56.7 131.9 50.7001 132.1 46.5001Z" fill="#13110C"/>
<path d="M132.1 46.5001L129.1 50.1C126.6 53.2 122 53.6 118.9 51.1L118.4 50.7C115.3 48.2 114.9 43.6001 117.4 40.5001L122.3 34.5001L131.3 23.6C131.6 23.3 131.9 23 132.2 22.7C132.5 23 132.8 23.2001 133 23.5001L146.8 40.5001C149.3 43.6001 148.8 48.2 145.7 50.7L145.1 51.1C142 53.6 137.4 53.1001 134.9 50.0001L132.1 46.5001ZM132.1 46.5001L133.7 44.6C133.7 44.6 130.5 52.2 125.8 56.7H137.8C137.8 56.7 131.9 50.7001 132.1 46.5001Z" stroke="#13110C" stroke-miterlimit="10"/>
<path d="M54.4997 104.7L51.4997 108.3C48.9997 111.4 44.3998 111.8 41.2998 109.3L40.7998 108.9C37.6998 106.4 37.2998 101.8 39.7998 98.7L44.6997 92.7L53.6997 81.7C53.9997 81.4 54.2997 81.1 54.5997 80.8C54.8997 81.1 55.1997 81.3 55.3997 81.6L69.1997 98.6C71.6997 101.7 71.1997 106.3 68.0997 108.8L67.4997 109.2C64.3997 111.7 59.7998 111.2 57.2998 108.1L54.4997 104.7L56.0997 102.8C56.0997 102.8 52.8997 110.4 48.1997 114.9H60.1997C60.2997 114.9 54.3997 108.9 54.4997 104.7Z" fill="#13110C"/>
<path d="M54.4997 104.7L51.4997 108.3C48.9997 111.4 44.3998 111.8 41.2998 109.3L40.7998 108.9C37.6998 106.4 37.2998 101.8 39.7998 98.7L44.6997 92.7L53.6997 81.7C53.9997 81.4 54.2997 81.1 54.5997 80.8C54.8997 81.1 55.1997 81.3 55.3997 81.6L69.1997 98.6C71.6997 101.7 71.1997 106.3 68.0997 108.8L67.4997 109.2C64.3997 111.7 59.7998 111.2 57.2998 108.1L54.4997 104.7ZM54.4997 104.7L56.0997 102.8C56.0997 102.8 52.8997 110.4 48.1997 114.9H60.1997C60.2997 114.9 54.3997 108.9 54.4997 104.7Z" stroke="#13110C" stroke-miterlimit="10"/>
<path d="M132 104.7L129 108.3C126.5 111.4 121.9 111.8 118.8 109.3L118.3 108.9C115.2 106.4 114.8 101.8 117.3 98.7L122.2 92.7L131.2 81.7C131.5 81.4 131.8 81.1 132.1 80.8C132.4 81.1 132.7 81.3 132.9 81.6L146.7 98.6C149.2 101.7 148.7 106.3 145.6 108.8L145 109.2C141.9 111.7 137.3 111.2 134.8 108.1L132 104.7L133.6 102.8C133.6 102.8 130.4 110.4 125.7 114.9H137.7C137.7 114.9 131.9 108.9 132 104.7Z" fill="#13110C"/>
<path d="M132 104.7L129 108.3C126.5 111.4 121.9 111.8 118.8 109.3L118.3 108.9C115.2 106.4 114.8 101.8 117.3 98.7L122.2 92.7L131.2 81.7C131.5 81.4 131.8 81.1 132.1 80.8C132.4 81.1 132.7 81.3 132.9 81.6L146.7 98.6C149.2 101.7 148.7 106.3 145.6 108.8L145 109.2C141.9 111.7 137.3 111.2 134.8 108.1L132 104.7ZM132 104.7L133.6 102.8C133.6 102.8 130.4 110.4 125.7 114.9H137.7C137.7 114.9 131.9 108.9 132 104.7Z" stroke="#13110C" stroke-miterlimit="10"/>
<path d="M53.6999 148.9L56.6999 145.3C59.1999 142.2 63.8 141.8 66.9 144.3L67.4 144.7C70.5 147.2 70.9 151.8 68.4 154.9L63.4999 160.9L54.4999 171.8C54.1999 172.1 53.8999 172.4 53.5999 172.7C53.2999 172.4 53 172.2 52.8 171.9L38.9999 154.9C36.4999 151.8 36.9999 147.2 40.0999 144.7L40.5999 144.3C43.6999 141.8 48.3 142.3 50.8 145.4L53.6999 148.9L52.0999 150.8C52.0999 150.8 55.2999 143.2 59.9999 138.7H47.9999C47.9999 138.7 53.7999 144.7 53.6999 148.9Z" fill="#13110C"/>
<path d="M53.6999 148.9L56.6999 145.3C59.1999 142.2 63.8 141.8 66.9 144.3L67.4 144.7C70.5 147.2 70.9 151.8 68.4 154.9L63.4999 160.9L54.4999 171.8C54.1999 172.1 53.8999 172.4 53.5999 172.7C53.2999 172.4 53 172.2 52.8 171.9L38.9999 154.9C36.4999 151.8 36.9999 147.2 40.0999 144.7L40.5999 144.3C43.6999 141.8 48.3 142.3 50.8 145.4L53.6999 148.9ZM53.6999 148.9L52.0999 150.8C52.0999 150.8 55.2999 143.2 59.9999 138.7H47.9999C47.9999 138.7 53.7999 144.7 53.6999 148.9Z" stroke="#13110C" stroke-miterlimit="10"/>
<path d="M131.3 148.8L134.3 145.2C136.8 142.1 141.4 141.7 144.5 144.2L145 144.6C148.1 147.1 148.5 151.7 146 154.8L141.1 160.8L132.1 171.7C131.8 172 131.5 172.3 131.2 172.6C130.9 172.3 130.6 172.1 130.4 171.8L116.6 154.8C114.1 151.7 114.6 147.1 117.7 144.6L118.2 144.2C121.3 141.7 125.9 142.2 128.4 145.3L131.3 148.8L129.7 150.7C129.7 150.7 132.9 143.1 137.6 138.6H125.6C125.5 138.5 131.4 144.5 131.3 148.8Z" fill="#13110C"/>
<path d="M131.3 148.8L134.3 145.2C136.8 142.1 141.4 141.7 144.5 144.2L145 144.6C148.1 147.1 148.5 151.7 146 154.8L141.1 160.8L132.1 171.7C131.8 172 131.5 172.3 131.2 172.6C130.9 172.3 130.6 172.1 130.4 171.8L116.6 154.8C114.1 151.7 114.6 147.1 117.7 144.6L118.2 144.2C121.3 141.7 125.9 142.2 128.4 145.3L131.3 148.8ZM131.3 148.8L129.7 150.7C129.7 150.7 132.9 143.1 137.6 138.6H125.6C125.5 138.5 131.4 144.5 131.3 148.8Z" stroke="#13110C" stroke-miterlimit="10"/>
<path d="M91.6999 75.7L88.6999 79.3C86.1999 82.4 81.6 82.8 78.5 80.3L78 79.9001C74.9 77.4001 74.5 72.8 77 69.7L81.9 63.7L90.9 52.8C91.2 52.5 91.5 52.2001 91.8 51.9001C92.1 52.2001 92.3999 52.4 92.5999 52.7L106.4 69.7C108.9 72.8 108.4 77.4001 105.3 79.9001L104.7 80.3C101.6 82.8 97 82.3 94.5 79.2L91.6999 75.7L93.3 73.8C93.3 73.8 90.1 81.4001 85.4 85.9001H97.4C97.5 85.9001 91.5999 79.9 91.6999 75.7Z" fill="#13110C"/>
<path d="M91.6999 75.7L88.6999 79.3C86.1999 82.4 81.6 82.8 78.5 80.3L78 79.9001C74.9 77.4001 74.5 72.8 77 69.7L81.9 63.7L90.9 52.8C91.2 52.5 91.5 52.2001 91.8 51.9001C92.1 52.2001 92.3999 52.4 92.5999 52.7L106.4 69.7C108.9 72.8 108.4 77.4001 105.3 79.9001L104.7 80.3C101.6 82.8 97 82.3 94.5 79.2L91.6999 75.7ZM91.6999 75.7L93.3 73.8C93.3 73.8 90.1 81.4001 85.4 85.9001H97.4C97.5 85.9001 91.5999 79.9 91.6999 75.7Z" stroke="#13110C" stroke-miterlimit="10"/>
<path d="M91.6999 175.9L94.6999 172.3C97.1999 169.2 101.8 168.8 104.9 171.3L105.4 171.7C108.5 174.2 108.9 178.8 106.4 181.9L101.5 187.9L92.4999 198.8C92.1999 199.1 91.9999 199.4 91.5999 199.7C91.2999 199.4 91.1 199.2 90.8 198.9L76.9999 181.9C74.4999 178.8 74.9999 174.2 78.0999 171.7L78.5999 171.3C81.6999 168.8 86.3 169.3 88.8 172.4L91.6999 175.9L90.0999 177.8C90.0999 177.8 93.2999 170.2 97.9999 165.7H85.9999C85.8999 165.7 91.7999 171.6 91.6999 175.9Z" fill="#13110C"/>
<path d="M91.6999 175.9L94.6999 172.3C97.1999 169.2 101.8 168.8 104.9 171.3L105.4 171.7C108.5 174.2 108.9 178.8 106.4 181.9L101.5 187.9L92.4999 198.8C92.1999 199.1 91.9999 199.4 91.5999 199.7C91.2999 199.4 91.1 199.2 90.8 198.9L76.9999 181.9C74.4999 178.8 74.9999 174.2 78.0999 171.7L78.5999 171.3C81.6999 168.8 86.3 169.3 88.8 172.4L91.6999 175.9ZM91.6999 175.9L90.0999 177.8C90.0999 177.8 93.2999 170.2 97.9999 165.7H85.9999C85.8999 165.7 91.7999 171.6 91.6999 175.9Z" stroke="#13110C" stroke-miterlimit="10"/>
</svg>
