<svg width="181" height="254" viewBox="0 0 181 254" fill="none" xmlns="http://www.w3.org/2000/svg">
<path d="M180.1 231.8C180.1 243.6 173.3 253.2 164.9 253.2H16.5999C8.19985 253.2 1.3999 243.6 1.3999 231.8V22.7C1.3999 10.9 8.19985 1.30005 16.5999 1.30005H164.9C173.3 1.30005 180.1 10.9 180.1 22.7V231.8Z" fill="white" stroke="#1D1D1B" stroke-miterlimit="10"/>
<path d="M142 125.9C128 104.6 104.9 93.9001 104.9 93.9001L100.3 101.3V106.4C100.3 106.4 114.1 111.8 126.3 125.9H142Z" fill="#E31518" stroke="#13110C" stroke-miterlimit="10"/>
<path d="M134.6 125.9C133.3 123.6 136.5 119.2 136.5 119.2L135.6 118.2C130.3 121.9 126.2 117.1 126.2 117.1C121.8 114.9 124.7 107.5 124.7 107.5L123.6 106.5C118.4 111.7 114.1 108.1 114.1 108.1C109.6 107.3 111.5 98.0001 111.5 98.0001L110.6 97.6C109 103 100.6 100.7 100.6 100.7L100.3 102.9C100.3 102.9 105.7 103.2 106.4 102.9L106.3 106.4L109.6 105.2C109.6 105.2 110.3 112.4 118.5 111.2V115.5L122 114.2C122 114.2 123.1 120.5 130 122L129.2 125.5L132.3 124C132.3 124 132.6 125.4 133.1 125.9H134.6Z" fill="white"/>
<path d="M76.7998 82.3V101.8L97.7998 101.6L109.6 82.3H76.7998Z" fill="#E31518" stroke="#13110C" stroke-miterlimit="10"/>
<path d="M76.7998 78.8V73.5001L115.7 73.2L111.5 78.8H76.7998Z" fill="#211C4B" stroke="#13110C" stroke-miterlimit="10"/>
<path d="M56.6997 101.6H75.5997V69.2L56.6997 80.8V101.6Z" fill="#211C4B" stroke="#13110C" stroke-miterlimit="10"/>
<path d="M42.1997 88.0001C42.1997 88.0001 63.1998 98.8 76.0998 125.8H57.9998C57.9998 125.9 41.6997 108.4 42.1997 88.0001Z" fill="#211C4B" stroke="#13110C" stroke-miterlimit="10"/>
<path d="M66.7 115.7C60.2 119.8 63 125.9 63 125.9H60.7C59.1 124.8 59.6 122.3 59.6 122.3C50.3 122.4 52.4001 112.3 52.4001 112.3C43.2001 110.1 48.2 101.3 48.2 101.3C41.4 96.3001 44.2 90.7001 44.2 90.7001C44.2 90.7001 47.1001 90.4 46.4001 94.1C46.4001 94.1 46.8001 98.8001 52.4001 99.5001C52.4001 99.5001 58.2001 99.4001 58.4001 101.7C58.4001 101.7 58.8 103 51.6 103.3C51.6 103.3 47.9001 107.7 53.8001 109.2C53.8001 109.2 61.3001 108.7 63.3001 107.7C63.3001 107.7 66.0001 108.1 61.3001 110.3C61.3001 110.3 53.5001 113.5 55.9001 116.9C55.9001 116.9 58.4 121.9 63.5 115.9C63.5 115.9 69.6 110.8 67.5 114.6L66.7 115.7Z" fill="#FFE922"/>
<path d="M40.5 125.9H55.5C55.5 125.9 41.6999 115.1 39.6999 86.7C39.6999 86.7 33.6 83.8001 29.3 83.0001C29.2 82.9001 29 112.7 40.5 125.9Z" fill="#E31518" stroke="#13110C" stroke-miterlimit="10"/>
<path d="M31.2997 97.6C37.7997 94 33.6996 85.0001 33.6996 85.0001L36.3996 86.2C36.3996 86.2 37.0996 92.4001 36.3996 94.9001L39.4996 95.1L37.5996 97.9001C37.5996 97.9001 44.1997 105.5 41.7997 111.4H44.1996L42.8996 114.8C42.8996 114.8 48.6996 119.3 48.5996 125.9H46.6996C46.6996 125.9 46.8996 114.2 37.0996 117.1C37.0996 117.1 34.4996 117.3 36.0996 115.1C36.0996 115.1 41.8996 111.5 39.9996 105C39.9996 105 38.4996 98.8 31.9996 99.7C31.8996 99.7 28.2997 99.2 31.2997 97.6Z" fill="white"/>
<path d="M96.5998 73.2001H112.7C112.7 73.2001 108.8 65.4001 106.8 65.8001C104.9 66.1001 96.9996 66.8 96.8996 67.6C96.7996 68.4 95.0997 71.1001 95.6997 72.0001C96.4997 72.8001 96.5998 73.2001 96.5998 73.2001Z" fill="#AFA3C7" stroke="#13120D" stroke-width="0.5" stroke-miterlimit="10"/>
<path d="M80.9996 41.4001C80.9996 41.4001 78.5996 50.5001 74.9996 55.8001C74.9996 55.8001 74.0996 60.9 74.9996 64.2C74.9996 64.2 73.7997 67.5001 71.3997 65.4001C71.3997 65.4001 65.7996 63.4001 65.5996 69.3001C65.5996 69.3001 65.6997 79.5001 75.7997 74.0001C75.7997 74.0001 78.0996 71.8001 78.6996 74.5001C78.6996 74.5001 83.1997 79.3 87.7997 75.2001C87.7997 75.2001 89.6996 71.6001 90.6996 74.7001C90.6996 74.7001 94.8996 78 96.9996 72.1C96.9996 72.1 96.5997 68.7001 99.5997 68.8001C99.5997 68.8001 104.4 65.4 104.4 64.7C104.4 64 106.6 44.3001 106.6 44.3001C106.6 44.3001 107.2 36.2 98.5997 38.1C89.9997 40 85.3997 39.4001 85.3997 39.4001L80.9996 41.4001Z" fill="#E2C80B" stroke="#13110C" stroke-miterlimit="10"/>
<path d="M133.1 27.1H71.3999L80.2999 41.5001C80.2999 41.5001 108.6 37.8001 123.5 42.5001L133.1 27.1Z" fill="#E31518" stroke="#13110C" stroke-miterlimit="10"/>
<path d="M123.6 42.5001L125.3 39.8C105.9 33.4 78.6997 38.9 78.6997 38.9L80.3998 41.6C80.2998 41.5 109.4 37.8001 123.6 42.5001Z" fill="#211C4B" stroke="#13110C" stroke-miterlimit="10"/>
<path d="M79 27.1L82.1 32.1H89.8L90.1001 27.1H92.2L91.7 34.0001L80.7 34.8L76.5 27.1H79Z" fill="#211C4B"/>
<path d="M125.8 27.1L122.8 32.1L115 32.2L114.7 27.1H112.6L113.1 34.1L124.2 34.8L128.4 27.1H125.8Z" fill="#211C4B"/>
<path d="M96 27.1V33.0001H108.4V27.1H106.5L106.4 31.7H98.6001V27.1H96Z" fill="#211C4B"/>
<path d="M13.5997 19.7C13.5997 20.6 13.5997 20.9 13.5997 20.8C13.5997 21.6 13.7997 22.3 14.0997 22.8C14.4997 23.4 15.0997 23.7 15.9997 23.7C16.6997 23.7 17.2996 23.4001 17.6996 22.9001C18.0996 22.4001 18.2997 21.8 18.2997 21.1V10.7H16.3997V8.20004H22.5997V10.7H20.7997V21.1C20.7997 22.5 20.3997 23.7 19.4997 24.6C18.5997 25.6 17.4997 26.1 16.0997 26.1C14.6997 26.1 13.4997 25.6 12.5997 24.6C11.6997 23.6 11.1997 22.4001 11.2997 21.0001V19.6H13.5997V19.7Z" fill="#13110C"/>
<path d="M166.3 234.8C166.3 233.9 166.3 233.6 166.3 233.7C166.3 232.9 166.1 232.2 165.8 231.7C165.4 231.1 164.8 230.8 163.9 230.8C163.2 230.8 162.6 231.1 162.2 231.6C161.8 232.1 161.6 232.7 161.6 233.4V243.8H163.5V246.3H157.3V243.8H159.1V233.4C159.1 232 159.5 230.8 160.4 229.9C161.3 228.9 162.4 228.4 163.8 228.4C165.2 228.4 166.4 228.9 167.3 229.9C168.2 230.9 168.7 232.1 168.6 233.5V234.9H166.3V234.8Z" fill="#13110C"/>
<path d="M153 26.7H29.1997V224.9H153V26.7Z" stroke="#13110C" stroke-miterlimit="10"/>
<path d="M153 125.9H91.0999H76.0997L74.1997 122.1L104.1 121.8L105.8 125.9H125.9C125.9 125.9 114.3 112.1 100.2 106.6C100.2 106.6 101.5 116.9 105.8 125.9" fill="#13110C"/>
<path d="M153 125.9H91.0999H76.0997L74.1997 122.1L104.1 121.8L105.8 125.9H125.9C125.9 125.9 114.3 112.1 100.2 106.6C100.2 106.6 101.5 116.9 105.8 125.9" stroke="#13110C" stroke-miterlimit="10"/>
<path d="M124.1 60.1C124.1 60.1 124.4 64.8001 122.9 65.0001L122.8 65.4001L122.3 66.9001C122.3 66.9001 124.2 72.5 120.5 73.1C120.5 73.1 112.9 74.0001 109.5 71.5001C109.5 71.5001 101.7 68.1 103 65.6C104.4 61.7 102.2 60.2 102.2 60.2C100.1 58.5 101.9 53.5001 101.9 53.5001C103.3 50.1001 104.3 40.5001 104.3 40.5001C107.1 39.4001 122.6 42.0001 122.6 42.0001C122.6 42.0001 121.5 47.8 124 51.8C124.1 52 132.3 62.9 124.1 60.1C124.1 60.1 121.2 61.5001 120.5 58.5001L124.1 60.1Z" fill="#FED68A"/>
<path d="M124.1 60.1C124.1 60.1 124.4 64.8001 122.9 65.0001L122.8 65.4001L122.3 66.9001C122.3 66.9001 124.2 72.5 120.5 73.1C120.5 73.1 112.9 74.0001 109.5 71.5001C109.5 71.5001 101.7 68.1 103 65.6C104.4 61.7 102.2 60.2 102.2 60.2C100.1 58.5 101.9 53.5001 101.9 53.5001C103.3 50.1001 104.3 40.5001 104.3 40.5001C107.1 39.4001 122.6 42.0001 122.6 42.0001C122.6 42.0001 121.5 47.8 124 51.8C124.1 52 132.3 62.9 124.1 60.1ZM124.1 60.1C124.1 60.1 121.2 61.5001 120.5 58.5001" stroke="#13110C" stroke-miterlimit="10"/>
<path d="M119.7 65.3L122.8 65.4001" stroke="#13110C" stroke-miterlimit="10"/>
<path d="M114.5 61.9001C114.5 61.9001 113.6 60 112.6 61.6C112.6 61.6 111.7 65.0001 116.4 64.0001C116.4 64.0001 119.8 61.4001 121.2 62.3001" stroke="#13110C" stroke-miterlimit="10"/>
<path d="M110.5 47.1C110.5 47.1 117.2 42.3001 120.5 45.5001" stroke="#13110C" stroke-miterlimit="10"/>
<path d="M119.3 50.4001C116.6 52.4001 114.6 51.0001 114.6 51.0001C114.7 48.4001 119.1 48.3 119.1 48.3C119.1 48.3 120.7 49.3001 119.3 50.4001Z" fill="#13110C"/>
<path d="M118.6 47.6C118.6 47.6 113.5 48.4001 111.6 49.9001" stroke="#13110C" stroke-miterlimit="10"/>
<path d="M120.5 51.2C120.5 51.2 119.9 53.3001 115.1 54.0001" stroke="#13110C" stroke-miterlimit="10"/>
<path d="M82.5997 42.5001C82.5997 42.5001 79.2997 53.2 77.5997 55.1C75.9997 57 77.3997 62.9 77.5997 63.7C77.5997 63.7 78.3998 66.7 80.8998 65.3C80.8998 65.3 78.4997 64.2 79.6997 62.6C79.6997 62.6 82.8997 60.2 83.1997 64.2C83.1997 64.2 82.1998 69.2 77.4998 66.6C77.4998 66.6 75.2998 62.3 76.4998 58.7" stroke="#13110C" stroke-width="0.5" stroke-miterlimit="10"/>
<path d="M84.9998 59.5001C84.9998 59.5001 83.8998 61.9 85.7998 64.7C85.7998 64.7 88.2997 68.8 91.1997 65.8C91.1997 65.8 92.7998 61.5001 89.7998 61.5001C89.7998 61.5001 87.6998 61.1 88.9998 63.2C88.9998 63.2 91.1998 65.1 88.7998 65.3C88.7998 65.3 85.6999 66.3001 85.5999 61.0001" stroke="#13110C" stroke-width="0.5" stroke-miterlimit="10"/>
<path d="M92.1997 63.2C92.1997 63.2 93.9998 68.6001 97.2998 68.4001C100.6 68.2001 104.7 67.2001 102.9 61.0001C102.9 61.0001 98.5998 57.3001 96.7998 61.4001C96.7998 61.4001 96.3998 65.6001 99.7998 63.9001C99.7998 63.9001 99.1998 61.2 100.8 62.6C100.8 62.6 101.3 71.7001 93.2998 63.9001" stroke="#13110C" stroke-width="0.5" stroke-miterlimit="10"/>
<path d="M68.5998 75.3C68.5998 75.3 61.3998 64.1001 72.3998 67.4001C72.3998 67.4001 74.5998 70.6 71.3998 71.8C71.3998 71.8 68.0998 71.1 70.4998 69.7C70.4998 69.7 72.6998 69.0001 70.7998 68.4001C68.8998 67.7001 65.4998 67.0001 68.3998 73.4001" stroke="#13110C" stroke-width="0.5" stroke-miterlimit="10"/>
<path d="M85.3996 74.7C85.9996 74.2 82.4996 76.9 81.1996 74.7C79.8996 72.5 80.3997 74.1001 82.2997 73.4001C84.1997 72.7001 82.2997 70.6 82.2997 70.6C78.8997 69.5 79.2997 73.4001 79.2997 73.4001C79.2997 73.4001 81.8996 78.1 85.3996 74.7Z" stroke="#13110C" stroke-width="0.5" stroke-miterlimit="10"/>
<path d="M95 73.8C93.8 75.1 92.1001 74.8 91.1001 73.1C90.1001 71.5 92.1999 71.4001 92.1999 71.4001C92.1999 71.4001 93.2999 71.3001 92.8999 72.5001C92.4999 73.6001 93.1 74.6 95 73.8Z" stroke="#13110C" stroke-width="0.5" stroke-miterlimit="10"/>
<path d="M83.9001 42.9001C83.9001 42.9001 80.1001 54.5001 79.3001 55.9001C78.5001 57.3001 78.3001 60.6001 79.3001 61.4001" stroke="#13110C" stroke-width="0.5" stroke-miterlimit="10"/>
<path d="M85.4997 42.9001C85.4997 42.9001 80.9998 54.3 81.2998 57.2C81.5998 60.1 79.8997 58.7 81.5997 60.1" stroke="#13110C" stroke-width="0.5" stroke-miterlimit="10"/>
<path d="M87.6 42.9001C87.6 42.9001 83.6 51.9001 83.9 54.5001C84.2 57.1001 82.4999 59.1 83.1999 60.1" stroke="#13110C" stroke-width="0.5" stroke-miterlimit="10"/>
<path d="M89.6998 42.5001C89.6998 42.5001 83.3998 55.8001 86.1998 59.5001" stroke="#13110C" stroke-width="0.5" stroke-miterlimit="10"/>
<path d="M91.0998 42.9001C91.0998 42.9001 85.4998 56.4001 88.0998 59.5001" stroke="#13110C" stroke-width="0.5" stroke-miterlimit="10"/>
<path d="M93.2999 42.5001C93.2999 42.5001 86.6999 56.8 90.7999 60.1" stroke="#13110C" stroke-width="0.5" stroke-miterlimit="10"/>
<path d="M94.9999 42.9001C94.9999 42.9001 90.0999 57.8 93.2999 61.1" stroke="#13110C" stroke-width="0.5" stroke-miterlimit="10"/>
<path d="M97.7997 42.5001C97.7997 42.5001 92.6997 56.9 94.9997 62.7" stroke="#13110C" stroke-width="0.5" stroke-miterlimit="10"/>
<path d="M99.8999 42.9001C99.8999 42.9001 96.2 56.9 97.3 58.8" stroke="#13110C" stroke-width="0.5" stroke-miterlimit="10"/>
<path d="M102 43.2C102 43.2 98.4 55.7001 99.5 58.0001" stroke="#13110C" stroke-width="0.5" stroke-miterlimit="10"/>
<path d="M70.5996 73.4001C70.5996 73.4001 76.9996 71.9 78.0996 69.6" stroke="#13110C" stroke-width="0.5" stroke-miterlimit="10"/>
<path d="M74.3999 69.6C74.3999 69.6 75.9999 69.5001 76.4999 67.4001" stroke="#13110C" stroke-width="0.5" stroke-miterlimit="10"/>
<path d="M82.3999 68.4001C82.3999 68.4001 84.7999 69 84.5999 66.8" stroke="#13110C" stroke-width="0.5" stroke-miterlimit="10"/>
<path d="M84.5996 72.7C84.5996 72.7 86.8995 71.3001 87.3995 67.4001" stroke="#13110C" stroke-width="0.5" stroke-miterlimit="10"/>
<path d="M88.1001 72.7C88.1001 72.7 91.1001 69.5 91.1001 67.6" stroke="#13110C" stroke-width="0.5" stroke-miterlimit="10"/>
<path d="M94.3999 71.5001C94.3999 71.5001 94.6999 69.4 92.8999 67.6" stroke="#13110C" stroke-width="0.5" stroke-miterlimit="10"/>
<path d="M102.2 68.4001L107.1 72.5001" stroke="#13110C" stroke-width="0.5" stroke-miterlimit="10"/>
<path d="M100.9 69.2L104.5 72.4001" stroke="#13110C" stroke-width="0.5" stroke-miterlimit="10"/>
<path d="M100.1 70.0001L102.7 72.5001" stroke="#13110C" stroke-width="0.5" stroke-miterlimit="10"/>
<path d="M98.6997 70.8L100.7 72.7" stroke="#13110C" stroke-width="0.5" stroke-miterlimit="10"/>
<path d="M141.4 71.7C141.4 71.7 136.4 70.0001 136.4 63.9001C136.4 63.9001 136.2 57.6 138.9 56.1L139.4 55.6L135.4 51.4001L139.3 47.0001C139.3 47.0001 136.4 41.8 136.7 36.6C136.7 36.6 136 29.1001 142.3 28.5001C142.3 28.5001 150.7 31.8 144.4 44.3L143.1 47.0001L146.9 51.9001L143 55.4001C143 55.4001 147.6 60.6 146.2 66.3C146.2 66.3 144.8 69.8 141.4 71.7Z" fill="#FFE922" stroke="#13110C" stroke-miterlimit="10"/>
<path d="M142.9 37.2C142.9 39.7 142.3 41.8 141.6 41.8C140.9 41.8 140.3 39.7 140.3 37.2C140.3 34.7 140.9 32.6 141.6 32.6C142.3 32.6 142.9 34.6 142.9 37.2Z" fill="#E31518" stroke="#13110C" stroke-miterlimit="10"/>
<path d="M142.9 63.7C142.9 66.1 142.2 68.0001 141.3 68.0001C140.4 68.0001 139.7 66.1 139.7 63.7C139.7 61.3 140.4 59.4001 141.3 59.4001C142.2 59.4001 142.9 61.4 142.9 63.7Z" fill="#E31518" stroke="#13110C" stroke-miterlimit="10"/>
<path d="M140.4 41.7C140.4 41.7 141.8 47.4001 145.7 50.4001" stroke="#13110C" stroke-miterlimit="10"/>
<path d="M140.9 59.0001C140.9 59.0001 141.5 55.4001 136.9 53.0001" stroke="#13110C" stroke-miterlimit="10"/>
<path d="M139.7 48.3C139.7 48.3 139.8 52.1001 142.5 53.9001" stroke="#13110C" stroke-miterlimit="10"/>
<path d="M153 91.2L131.6 77.6L122.4 71.7" stroke="#13110C" stroke-miterlimit="10"/>
<path d="M143 84.9L145.4 83.9C146.9 83.4 145.8 80.9 145.8 80.9C147.4 79.2 145.6 77.6 145.6 77.6C148.1 76.8 145.3 74.2 145.3 74.2C147.4 73.4 146.5 71.5 146.5 71.5C145.2 71.3 143.8 71.4 142.5 71.6C140.5 71.8 138.9 72.3 138.9 72.3C134.3 71.8 131.9 77.1 131.9 77.1L131.7 77.7L143 84.9Z" fill="#FED68A" stroke="#13110C" stroke-miterlimit="10"/>
<path d="M140.1 74.2C140.1 74.2 143 74 145.3 74.2" stroke="#13110C" stroke-miterlimit="10"/>
<path d="M145.6 77.6H139.7" stroke="#13110C" stroke-miterlimit="10"/>
<path d="M145.8 81.0001H140.9" stroke="#13110C" stroke-miterlimit="10"/>
<path d="M40.5 125.9C29 114.4 29.1999 83.0001 29.1999 83.0001V122.1V126H35.1999H40.5" fill="#13110C"/>
<path d="M40.5 125.9C29 114.4 29.1999 83.0001 29.1999 83.0001V122.1V126H35.1999H40.5" stroke="#13110C" stroke-miterlimit="10"/>
<path d="M35.9998 125.9C35.9998 125.9 31.9997 123.1 29.1997 121.7V123.8C29.1997 123.8 31.5998 125.3 32.3998 125.9H35.9998Z" fill="#FFE922" stroke="#13110C" stroke-miterlimit="10"/>
<path d="M58 125.9C40.4 107 42.2 88.1 42.2 88.1L39.9 86.9001C39.9 86.9001 39.7 110.9 55.4 125.9H58Z" fill="#FFE922" stroke="#13110C" stroke-miterlimit="10"/>
<path d="M30.3999 86.8C31.0999 87.1 32.8999 88.9001 32.8999 88.9001L30.3999 86.8Z" fill="white"/>
<path d="M30.3999 86.8C31.0999 87.1 32.8999 88.9001 32.8999 88.9001" stroke="white" stroke-miterlimit="10"/>
<path d="M30.7998 95.0001C30.7998 95.0001 33.0998 93.2 33.2998 92.2L30.7998 95.0001Z" fill="white"/>
<path d="M30.7998 95.0001C30.7998 95.0001 33.0998 93.2 33.2998 92.2" stroke="white" stroke-miterlimit="10"/>
<path d="M32.0996 102.6C32.0996 102.6 36.5996 104.2 37.5996 105.4L32.0996 102.6Z" fill="white"/>
<path d="M32.0996 102.6C32.0996 102.6 36.5996 104.2 37.5996 105.4" stroke="white" stroke-miterlimit="10"/>
<path d="M34.8999 112.3L38.1998 107.4" stroke="white" stroke-miterlimit="10"/>
<path d="M38.1997 119.5L43.1997 120.6" stroke="white" stroke-miterlimit="10"/>
<path d="M44.1997 122.8L43.1997 125.4" stroke="white" stroke-miterlimit="10"/>
<path d="M54.8997 106.6C54.1997 107.6 53.8997 107.4 53.8997 107.4C53.8997 107.4 51.6996 103.2 54.0996 104.4C54.0996 104.4 56.4996 105.2 59.9996 104.7C59.9996 104.7 61.7996 105.6 58.1996 106.1C58.1996 106.1 55.3997 105.9 54.8997 106.6Z" fill="#FFE922"/>
<path d="M48.9998 93.6C48.9998 93.6 48.8998 97.9001 50.4998 97.5001C52.1998 97.1001 51.5998 95.2001 50.7998 94.5001C50.0998 93.9001 48.9998 93.6 48.9998 93.6Z" fill="#FFE922"/>
<path d="M60.7001 115.6C60.6001 116.9 60.1001 116.9 60.1001 116.9C60.1001 116.9 55.8001 114.2 58.7001 114C58.7001 114 61.4001 113.4 64.5001 111C64.5001 111 66.6001 110.8 63.5001 113.3C63.6001 113.3 60.8001 114.7 60.7001 115.6Z" fill="#FFE922"/>
<path d="M66.7997 121.9C67.0997 123.1 66.6996 123.2 66.6996 123.2C66.6996 123.2 61.8996 121.9 64.4996 120.9C64.4996 120.9 66.7997 119.6 68.8997 116.6C68.8997 116.6 70.7996 115.9 68.6996 119C68.6996 118.9 66.5997 121 66.7997 121.9Z" fill="#FFE922"/>
<path d="M66.6997 125.9C66.6997 125.9 69.9998 119.3 70.7998 118.8C72.4998 117.7 70.2998 127.1 70.7998 125.9H66.6997Z" fill="#FFE922"/>
<path d="M43.5996 89.0001C43.5996 89.0001 49.5996 92.2001 54.4996 96.9001L54.6996 82.1L43.5996 89.0001L67.3997 74.3L43.5996 89.0001Z" fill="#E31518"/>
<path d="M43.5996 89.0001C43.5996 89.0001 49.5996 92.2001 54.4996 96.9001L54.6996 82.1L43.5996 89.0001ZM43.5996 89.0001L67.3997 74.3" stroke="#13110C" stroke-miterlimit="10"/>
<path d="M54.5 96.9001L54.7 82.1L56.7 80.8V99.0001L54.5 96.9001Z" fill="white" stroke="#13110C" stroke-miterlimit="10"/>
<path d="M100.3 101.2C96.7997 97.8 89.4996 101 89.4996 101C85.3996 97.2 78.1996 101 78.1996 101C71.9996 97.2 66.6996 101.5 66.6996 101.5C62.2996 98 58.5996 100.7 58.5996 100.7L63.6996 106.3C63.6996 106.3 65.7997 105.7 66.7997 106.3C66.7997 106.3 72.7997 103.2 77.7997 106.3C77.7997 106.3 84.4996 103 89.1996 106.3C89.1996 106.3 95.5997 103.3 100.3 106.1V101.2Z" fill="white" stroke="#13110C" stroke-miterlimit="10"/>
<path d="M60.1997 102.4C61.6997 102 64.0997 101.8 66.6997 103.9C66.6997 103.9 71.8997 99.7 78.1997 103.4C78.1997 103.4 85.3998 99.6 89.4998 103.4C89.4998 103.4 96.8998 100.2 100.3 103.6" stroke="#13110C" stroke-miterlimit="10"/>
<path d="M59.8999 78.9001V100.1L62.1998 99.8V77.4001L59.8999 78.9001Z" fill="white" stroke="#13110C" stroke-miterlimit="10"/>
<path d="M74.3999 74.8V99.6L76.7999 100.3V73.5001L74.3999 74.8Z" fill="white" stroke="#13110C" stroke-miterlimit="10"/>
<path d="M71.8997 80.7C73.9997 84.4 69.1996 83.9001 69.1996 83.9001L69.7997 86.7H67.5996L68.0996 83.7C68.0996 83.7 62.7997 83.9 65.9997 79.3L68.6996 76.4001L71.8997 80.7Z" fill="white"/>
<path d="M71.8997 92.3C73.9997 96 69.1996 95.5001 69.1996 95.5001L69.7997 98.3H67.5996L68.0996 95.3C68.0996 95.3 62.7997 95.5001 65.9997 90.9001L68.6996 88.0001L71.8997 92.3Z" fill="white"/>
<path d="M76.7998 78.8V82.3H109.6L111.5 78.8H76.7998Z" fill="#FFE922" stroke="#13110C" stroke-miterlimit="10"/>
<path d="M79.6997 99.4001V85.4001L104.2 85.6L96.1997 99.0001" stroke="#13110C" stroke-miterlimit="10"/>
<path d="M83.5 99.0001V88.8H98.7L93.2 99.0001" stroke="#13110C" stroke-miterlimit="10"/>
<path d="M86.8999 98.6V91.2H93.7L89.6001 99.0001" stroke="white" stroke-miterlimit="10"/>
<path d="M98.6997 100.1L100.3 101.2L117.8 73.4001L115.7 73.3L111.5 78.8L109.6 82.3L98.6997 100.1Z" fill="white" stroke="#13110C" stroke-miterlimit="10"/>
<path d="M103.1 99.4001C103.1 99.4001 106 98.7 106.8 97.7" stroke="white" stroke-miterlimit="10"/>
<path d="M113.2 101.2C113.2 101.2 113.1 105.2 113.9 105.8" stroke="white" stroke-miterlimit="10"/>
<path d="M116.6 106.9C116.6 106.9 119.2 106.3 119.9 105.8" stroke="white" stroke-miterlimit="10"/>
<path d="M126 109.9C126 109.9 124.7 113.9 126 114.7" stroke="white" stroke-miterlimit="10"/>
<path d="M127.6 116.4C127.6 116.4 131.3 117.9 132.4 117.2" stroke="white" stroke-miterlimit="10"/>
<path d="M137.7 122.5C137.7 122.5 137.3 124.7 136.7 124.8" stroke="white" stroke-miterlimit="10"/>
<path d="M135.1 79.8L120 103.2C116.5 99.9 104.9 93.9001 104.9 93.9001L117.8 73.4001C117.8 73.4001 121.7 73.8 122.4 71.8L135.1 79.8Z" fill="#211C4B" stroke="#13110C" stroke-miterlimit="10"/>
<path d="M123.8 82.3C123.5 86.5 119.8 83.5001 119.8 83.5001L118.8 86.2L116.9 85.0001L119 82.8C119 82.8 114.5 80.1001 119.6 78.0001L123.5 77.1L123.8 82.3Z" fill="white"/>
<path d="M116.2 92.8C115.9 97 112.2 94.0001 112.2 94.0001L111.2 96.7L109.3 95.5001L111.4 93.3C111.4 93.3 106.9 90.6001 112 88.5001L115.9 87.6L116.2 92.8Z" fill="white"/>
<path d="M114.5 99.3L116.2 100.4L131.3 77.4001L129.5 76.3L114.5 99.3Z" fill="white" stroke="#13110C" stroke-miterlimit="10"/>
<path d="M133.3 82.5001L153 95.1V91.2L135.1 79.8L133.3 82.5001Z" fill="#E31518" stroke="#13110C" stroke-miterlimit="10"/>
<path d="M133.3 82.5001L131.8 84.9001L153 99.0001V95.1L133.3 82.5001Z" fill="#211C4B" stroke="#13110C" stroke-miterlimit="10"/>
<path d="M131.8 84.9001L129.8 88.0001L153 103.2V99.0001L131.8 84.9001Z" fill="#E31518" stroke="#13110C" stroke-miterlimit="10"/>
<path d="M153 114C141.2 108.2 138.4 93.6 138.4 93.6L135.8 91.9001C135.8 91.9001 138.4 111 153 116.9V114Z" fill="#FFE922" stroke="#13110C" stroke-miterlimit="10"/>
<path d="M153 114V103.1L138.4 93.5001C138.3 93.6001 141.3 108.7 153 114Z" fill="#211C4B" stroke="#13110C" stroke-miterlimit="10"/>
<path d="M151.8 108.4C151.8 109.3 151 110.1 150.1 110.1C149.2 110.1 148.4 109.4 148.4 108.4C148.4 107.5 149.2 106.7 150.1 106.7C151.1 106.7 151.8 107.5 151.8 108.4Z" fill="#FFE922"/>
<path d="M149 104.7C149 105.6 148.2 106.2 147.3 106.2C146.4 106.2 145.6 105.5 145.6 104.7C145.6 103.8 146.4 103.2 147.3 103.2C148.3 103.2 149 103.9 149 104.7Z" fill="#FFE922"/>
<path d="M146 101.1C146 102 145.2 102.8 144.3 102.8C143.4 102.8 142.6 102 142.6 101.1C142.6 100.2 143.4 99.4001 144.3 99.4001C145.3 99.4001 146 100.2 146 101.1Z" fill="#FFE922"/>
<path d="M143.1 98.0001C143.1 98.7001 142.5 99.2 141.9 99.2C141.3 99.2 140.7 98.7001 140.7 98.0001C140.7 97.3001 141.3 96.8 141.9 96.8C142.5 96.8 143.1 97.3001 143.1 98.0001Z" fill="#FFE922"/>
<path d="M146.7 125.9C128.9 110.1 127.1 96.8 127.1 96.8L121.6 104.4L120 103.2L127.3 91.9001C127.3 91.9001 131.9 113.9 149.5 125.9H146.7Z" fill="#FFE922" stroke="#13110C" stroke-miterlimit="10"/>
<path d="M121.6 104.4L127.1 96.8C127.1 96.8 129.1 110.4 146.7 125.9H142C142 125.9 135.6 115.5 121.6 104.4Z" fill="#13110C" stroke="#13110C" stroke-miterlimit="10"/>
<path d="M127.3 91.9001L129.8 88.0001L135.8 91.9001C135.8 91.9001 138.5 111.1 153 116.9V125.2H150.2C150.1 125.2 134.2 118.4 127.3 91.9001Z" fill="#211C4B" stroke="#13110C" stroke-miterlimit="10"/>
<path d="M129.2 94.7L134.7 93.6" stroke="white" stroke-miterlimit="10"/>
<path d="M132 101.1L136.5 99.0001" stroke="white" stroke-miterlimit="10"/>
<path d="M134.7 107.5L138.9 105" stroke="white" stroke-miterlimit="10"/>
<path d="M138.3 113.1L141.9 110.1" stroke="white" stroke-miterlimit="10"/>
<path d="M142.7 117.9L146 114.4" stroke="white" stroke-miterlimit="10"/>
<path d="M147.3 122.1L150.5 118.2" stroke="white" stroke-miterlimit="10"/>
<path d="M132.7 91.9C132.7 92.4 132.2 92.8 131.6 92.8C131 92.8 130.5 92.4 130.5 91.9C130.5 91.4 131 91.0001 131.6 91.0001C132.3 90.9001 132.7 91.3 132.7 91.9Z" fill="white"/>
<path d="M134.4 97.1C134.4 97.6 133.9 98.0001 133.3 98.0001C132.7 98.0001 132.2 97.6 132.2 97.1C132.2 96.6 132.7 96.2 133.3 96.2C133.9 96.2 134.4 96.6 134.4 97.1Z" fill="white"/>
<path d="M136.8 103.5C136.8 104 136.3 104.4 135.7 104.4C135.1 104.4 134.6 104 134.6 103.5C134.6 103 135.1 102.6 135.7 102.6C136.3 102.6 136.8 103 136.8 103.5Z" fill="white"/>
<path d="M139.9 108.9C139.9 109.4 139.4 109.8 138.8 109.8C138.2 109.8 137.7 109.4 137.7 108.9C137.7 108.4 138.2 108 138.8 108C139.4 107.9 139.9 108.4 139.9 108.9Z" fill="white"/>
<path d="M143.5 114C143.5 114.5 143 114.9 142.4 114.9C141.8 114.9 141.3 114.5 141.3 114C141.3 113.5 141.8 113.1 142.4 113.1C143 113.1 143.5 113.5 143.5 114Z" fill="white"/>
<path d="M147.3 117.9C147.3 118.4 146.8 118.8 146.2 118.8C145.6 118.8 145.1 118.4 145.1 117.9C145.1 117.4 145.6 117 146.2 117C146.9 117 147.3 117.4 147.3 117.9Z" fill="white"/>
<path d="M151.5 122.1C151.5 122.6 151 123 150.4 123C149.8 123 149.3 122.6 149.3 122.1C149.3 121.6 149.8 121.2 150.4 121.2C151.1 121.1 151.5 121.6 151.5 122.1Z" fill="white"/>
<path d="M117.8 125.9C116.2 122.3 112.8 125.9 112.8 125.9H109.9L110.2 125.2C111.5 115.8 104.9 116.1 104.9 116.1C101.9 115 104.2 113.5 104.2 113.5C104.2 113.5 112 113.3 112.8 121.1C112.8 121.1 120.1 119 121.1 125.8H117.8V125.9Z" fill="#FFE922" stroke="#13110C" stroke-miterlimit="10"/>
<path d="M107.9 123C109.2 124.1 106.7 124.2 106.7 124.2C107.1 122.9 105.6 121.1 105.6 121.1C105.6 121.1 105.1 119.4 106.1 120.1C106.1 120.1 109.1 120.1 109 121.7C109 121.7 107 122.2 107.9 123Z" fill="#FFE922" stroke="#13110C" stroke-miterlimit="10"/>
<path d="M124.1 125.9H126.3C126.3 125.9 117.8 115 100.3 106.4L100.6 108.5C112.5 112.7 123.8 126 123.8 126" fill="#FFE922"/>
<path d="M124.1 125.9H126.3C126.3 125.9 117.8 115 100.3 106.4L100.6 108.5C112.5 112.7 123.8 126 123.8 126" stroke="#13110C" stroke-miterlimit="10"/>
<path d="M70.7998 116.2H102.3L103 118.6L72.4998 119L70.7998 116.2Z" fill="white" stroke="#13110C" stroke-miterlimit="10"/>
<path d="M72.6997 119L74.1997 122.1L104.1 121.8L103 118.6L72.6997 119Z" fill="#E31518" stroke="#13110C" stroke-miterlimit="10"/>
<path d="M100.3 106.1C99.9997 108.6 102.3 116.2 102.3 116.2H70.7997C68.4997 112.1 63.5996 106.3 63.5996 106.3C63.5996 106.3 65.3996 105.4 66.6996 106.3C66.6996 106.3 72.4996 103.2 77.6996 106.3C77.6996 106.3 84.0997 103 89.0997 106.3C89.0997 106.3 95.7997 103.6 100.3 106.1Z" fill="#FFE922" stroke="#13110C" stroke-miterlimit="10"/>
<path d="M77.6997 106.3V116.2" stroke="#13110C" stroke-miterlimit="10"/>
<path d="M89.1001 106.3L89.3 116.2" stroke="#13110C" stroke-miterlimit="10"/>
<path d="M68.7998 113C68.7998 113 67.6997 108.1 72.1997 108.3C72.1997 108.3 76.2997 107.6 75.5997 116.2" stroke="#13110C" stroke-miterlimit="10"/>
<path d="M80.6998 116.2C80.6998 116.2 80.1999 108.3 80.8999 108.3C80.8999 108.3 86.5 107.4 86.6 109.3V116.3" stroke="#13110C" stroke-miterlimit="10"/>
<path d="M92.0998 115.8C92.0998 115.8 91.5998 107.9 92.2998 107.9C92.2998 107.9 97.8997 107 97.9997 108.9V115.9" stroke="#13110C" stroke-miterlimit="10"/>
<path d="M72.1997 111V115.8" stroke="#13110C" stroke-miterlimit="10"/>
<path d="M83.5 111V116.1" stroke="#13110C" stroke-miterlimit="10"/>
<path d="M95 111V116.1" stroke="#13110C" stroke-miterlimit="10"/>
<path d="M40.0996 125.4C54.0996 146.7 77.1996 157.4 77.1996 157.4L81.7997 150V144.9C81.7997 144.9 67.9997 139.5 55.7997 125.4H40.0996Z" fill="#E31518" stroke="#13110C" stroke-miterlimit="10"/>
<path d="M47.4996 125.4C48.7996 127.7 45.5996 132.1 45.5996 132.1L46.4996 133.1C51.7996 129.4 55.8997 134.2 55.8997 134.2C60.2997 136.4 57.3997 143.8 57.3997 143.8L58.4996 144.8C63.6996 139.6 67.9996 143.2 67.9996 143.2C72.4996 144 70.5996 153.3 70.5996 153.3L71.4996 153.7C73.0996 148.3 81.4996 150.6 81.4996 150.6L81.7997 148.4C81.7997 148.4 76.3996 148.1 75.6996 148.4L75.7997 144.9L72.4996 146.1C72.4996 146.1 71.7996 138.9 63.5996 140.1V135.8L60.0996 137.1C60.0996 137.1 58.9996 130.8 52.0996 129.3L52.8997 125.8L49.7997 127.3C49.7997 127.3 49.4996 125.9 48.9996 125.4H47.4996Z" fill="white"/>
<path d="M105.3 169V149.5L84.3 149.7L72.5 169H105.3Z" fill="#E31518" stroke="#13110C" stroke-miterlimit="10"/>
<path d="M105.3 172.5V177.8L66.2998 178.1L70.5997 172.5H105.3Z" fill="#211C4B" stroke="#13110C" stroke-miterlimit="10"/>
<path d="M125.3 149.7H106.5V182.1L125.3 170.5V149.7Z" fill="#211C4B" stroke="#13110C" stroke-miterlimit="10"/>
<path d="M139.8 163.3C139.8 163.3 118.8 152.5 105.9 125.5H124C124.1 125.4 140.4 142.9 139.8 163.3Z" fill="#211C4B" stroke="#13110C" stroke-miterlimit="10"/>
<path d="M115.4 135.6C121.9 131.5 119.1 125.4 119.1 125.4H121.4C123 126.5 122.5 129 122.5 129C131.8 128.9 129.7 139 129.7 139C138.9 141.2 133.9 150 133.9 150C140.7 155 137.9 160.6 137.9 160.6C137.9 160.6 135 160.9 135.7 157.2C135.7 157.2 135.3 152.5 129.7 151.8C129.7 151.8 123.9 151.9 123.7 149.6C123.7 149.6 123.3 148.3 130.5 148C130.5 148 134.2 143.6 128.3 142.1C128.3 142.1 120.8 142.6 118.8 143.6C118.8 143.6 116.1 143.2 120.8 141C120.8 141 128.6 137.8 126.2 134.4C126.2 134.4 123.7 129.4 118.6 135.4C118.6 135.4 112.5 140.5 114.6 136.7L115.4 135.6Z" fill="#FFE922"/>
<path d="M141.6 125.4H126.6C126.6 125.4 140.4 136.2 142.4 164.6C142.4 164.6 148.5 167.5 152.8 168.3C152.8 168.4 153.1 138.6 141.6 125.4Z" fill="#E31518" stroke="#13110C" stroke-miterlimit="10"/>
<path d="M150.8 153.8C144.3 157.4 148.4 166.4 148.4 166.4L145.7 165.2C145.7 165.2 145 159 145.7 156.5L142.6 156.3L144.5 153.5C144.5 153.5 137.9 145.9 140.3 140H137.9L139.2 136.6C139.2 136.6 133.4 132.1 133.5 125.5H135.4C135.4 125.5 135.2 137.2 145 134.3C145 134.3 147.6 134.1 146 136.3C146 136.3 140.2 139.9 142.1 146.4C142.1 146.4 143.6 152.6 150.1 151.7C150.2 151.6 153.8 152.1 150.8 153.8Z" fill="white"/>
<path d="M85.3998 178.1H69.2998C69.2998 178.1 73.1997 185.9 75.1997 185.5C77.0997 185.2 84.9997 184.5 85.0997 183.7C85.1997 182.9 86.8998 180.2 86.2998 179.3C85.5998 178.5 85.3998 178.1 85.3998 178.1Z" fill="#AFA3C7" stroke="#13120D" stroke-width="0.5" stroke-miterlimit="10"/>
<path d="M101 209.9C101 209.9 103.4 200.8 107 195.5C107 195.5 107.9 190.4 107 187.1C107 187.1 108.2 183.8 110.6 185.9C110.6 185.9 116.199 187.9 116.399 182C116.399 182 116.3 171.7 106.2 177.2C106.2 177.2 103.9 179.4 103.3 176.7C103.3 176.7 98.7995 171.9 94.1995 176C94.1995 176 92.2996 179.6 91.2996 176.5C91.2996 176.5 87.0996 173.2 84.9996 179.1C84.9996 179.1 85.3996 182.5 82.3996 182.4C82.3996 182.4 77.5996 185.8 77.5996 186.5C77.5996 187.2 75.3996 206.9 75.3996 206.9C75.3996 206.9 74.7996 215 83.3996 213.1C91.9996 211.2 96.6995 211.8 96.6995 211.8L101 209.9Z" fill="#E2C80B" stroke="#13110C" stroke-miterlimit="10"/>
<path d="M48.8999 224.2H110.6L101.7 209.8C101.7 209.8 73.3999 213.5 58.4999 208.8L48.8999 224.2Z" fill="#E31518" stroke="#13110C" stroke-miterlimit="10"/>
<path d="M58.4998 208.8L56.7998 211.5C76.1998 217.9 103.4 212.4 103.4 212.4L101.7 209.7C101.7 209.8 72.6998 213.6 58.4998 208.8Z" fill="#211C4B" stroke="#13110C" stroke-miterlimit="10"/>
<path d="M103.1 224.2L100 219.2H92.3L91.8999 224.2H89.8999L90.3 217.3L101.4 216.5L105.6 224.2H103.1Z" fill="#211C4B"/>
<path d="M56.1997 224.2L59.2998 219.2L66.9998 219.1L67.3998 224.2H69.3998L68.9998 217.3L57.8998 216.5L53.6997 224.2H56.1997Z" fill="#211C4B"/>
<path d="M86.0999 224.2V218.3H73.6997V224.2H75.5997L75.6997 219.6H83.4998V224.2H86.0999Z" fill="#211C4B"/>
<path d="M29.0996 125.4H90.9996H106L107.9 129.2L77.9996 129.5L76.2997 125.4H56.1996C56.1996 125.4 67.7997 139.2 81.8997 144.7C81.8997 144.7 80.5997 134.4 76.2997 125.4" fill="#13110C"/>
<path d="M29.0996 125.4H90.9996H106L107.9 129.2L77.9996 129.5L76.2997 125.4H56.1996C56.1996 125.4 67.7997 139.2 81.8997 144.7C81.8997 144.7 80.5997 134.4 76.2997 125.4" stroke="#13110C" stroke-miterlimit="10"/>
<path d="M58.0001 191.2C58.0001 191.2 57.7001 186.5 59.2001 186.3L59.3002 185.9L59.8002 184.4C59.8002 184.4 57.9001 178.8 61.6001 178.2C61.6001 178.2 69.2001 177.3 72.6001 179.8C72.6001 179.8 80.4001 183.2 79.1001 185.7C77.7001 189.6 79.9002 191.1 79.9002 191.1C82.0002 192.8 80.2001 197.8 80.2001 197.8C78.8001 201.2 77.8002 210.8 77.8002 210.8C75.0002 211.9 59.5001 209.3 59.5001 209.3C59.5001 209.3 60.6001 203.5 58.1001 199.5C58.0001 199.3 49.8001 188.4 58.0001 191.2C58.0001 191.2 60.9001 189.8 61.6001 192.8L58.0001 191.2Z" fill="#FED68A"/>
<path d="M58.0001 191.2C58.0001 191.2 57.7001 186.5 59.2001 186.3L59.3002 185.9L59.8002 184.4C59.8002 184.4 57.9001 178.8 61.6001 178.2C61.6001 178.2 69.2001 177.3 72.6001 179.8C72.6001 179.8 80.4001 183.2 79.1001 185.7C77.7001 189.6 79.9002 191.1 79.9002 191.1C82.0002 192.8 80.2001 197.8 80.2001 197.8C78.8001 201.2 77.8002 210.8 77.8002 210.8C75.0002 211.9 59.5001 209.3 59.5001 209.3C59.5001 209.3 60.6001 203.5 58.1001 199.5C58.0001 199.3 49.8001 188.4 58.0001 191.2ZM58.0001 191.2C58.0001 191.2 60.9001 189.8 61.6001 192.8" stroke="#13110C" stroke-miterlimit="10"/>
<path d="M62.3998 186L59.2998 185.9" stroke="#13110C" stroke-miterlimit="10"/>
<path d="M67.5999 189.4C67.5999 189.4 68.4999 191.3 69.4999 189.7C69.4999 189.7 70.3998 186.3 65.6998 187.3C65.6998 187.3 62.2999 189.9 60.8999 189" stroke="#13110C" stroke-miterlimit="10"/>
<path d="M71.5996 204.2C71.5996 204.2 64.8996 209 61.5996 205.8" stroke="#13110C" stroke-miterlimit="10"/>
<path d="M62.8001 200.9C65.5001 198.9 67.5001 200.3 67.5001 200.3C67.4001 202.9 63.0001 203 63.0001 203C63.0001 203 61.3001 202 62.8001 200.9Z" fill="#13110C"/>
<path d="M63.5 203.7C63.5 203.7 68.6 202.9 70.5 201.4" stroke="#13110C" stroke-miterlimit="10"/>
<path d="M61.5996 200.1C61.5996 200.1 62.1996 198 66.9996 197.3" stroke="#13110C" stroke-miterlimit="10"/>
<path d="M99.5 208.8C99.5 208.8 102.8 198.1 104.5 196.2C106.1 194.3 104.7 188.4 104.5 187.6C104.5 187.6 103.7 184.6 101.2 186C101.2 186 103.6 187.1 102.4 188.7C102.4 188.7 99.1999 191.1 98.8999 187.1C98.8999 187.1 99.9001 182.1 104.6 184.7C104.6 184.7 106.8 189 105.6 192.6" stroke="#13110C" stroke-width="0.5" stroke-miterlimit="10"/>
<path d="M97.1 191.8C97.1 191.8 98.1999 189.4 96.2999 186.6C96.2999 186.6 93.7998 182.5 90.8998 185.5C90.8998 185.5 89.2999 189.8 92.2999 189.8C92.2999 189.8 94.4 190.2 93.1 188.1C93.1 188.1 90.8999 186.2 93.2999 186C93.2999 186 96.3999 185 96.4999 190.3" stroke="#13110C" stroke-width="0.5" stroke-miterlimit="10"/>
<path d="M89.8996 188.1C89.8996 188.1 88.0998 182.7 84.7998 182.9C81.4998 183.1 77.3997 184.1 79.1997 190.3C79.1997 190.3 83.4998 194 85.2998 189.9C85.2998 189.9 85.6998 185.7 82.2998 187.4C82.2998 187.4 82.8998 190.1 81.2998 188.7C81.2998 188.7 80.7998 179.6 88.7998 187.4" stroke="#13110C" stroke-width="0.5" stroke-miterlimit="10"/>
<path d="M113.4 176C113.4 176 120.6 187.2 109.6 183.9C109.6 183.9 107.4 180.7 110.6 179.5C110.6 179.5 113.9 180.2 111.5 181.6C111.5 181.6 109.3 182.3 111.2 182.9C113.1 183.6 116.5 184.3 113.6 177.9" stroke="#13110C" stroke-width="0.5" stroke-miterlimit="10"/>
<path d="M96.5998 176.6C95.9998 177.1 99.4998 174.4 100.8 176.6C102.1 178.8 101.6 177.2 99.6997 177.9C97.7997 178.6 99.6997 180.7 99.6997 180.7C103.1 181.8 102.7 177.9 102.7 177.9C102.7 177.9 100.2 173.2 96.5998 176.6Z" stroke="#13110C" stroke-width="0.5" stroke-miterlimit="10"/>
<path d="M87.1001 177.5C88.3001 176.2 90 176.5 91 178.2C92 179.8 89.8999 179.9 89.8999 179.9C89.8999 179.9 88.8 180 89.2 178.8C89.6 177.7 89.0001 176.7 87.1001 177.5Z" stroke="#13110C" stroke-width="0.5" stroke-miterlimit="10"/>
<path d="M98.1997 208.5C98.1997 208.5 102 196.9 102.8 195.5C103.6 194.1 103.8 190.8 102.8 190" stroke="#13110C" stroke-width="0.5" stroke-miterlimit="10"/>
<path d="M96.6001 208.5C96.6001 208.5 101.1 197.1 100.8 194.2C100.5 191.3 102.2 192.7 100.5 191.3" stroke="#13110C" stroke-width="0.5" stroke-miterlimit="10"/>
<path d="M94.3999 208.5C94.3999 208.5 98.4001 199.5 98.1001 196.9C97.8001 194.3 99.5 192.3 98.8 191.3" stroke="#13110C" stroke-width="0.5" stroke-miterlimit="10"/>
<path d="M92.3999 208.8C92.3999 208.8 98.6999 195.5 95.8999 191.8" stroke="#13110C" stroke-width="0.5" stroke-miterlimit="10"/>
<path d="M91 208.5C91 208.5 96.6 195 94 191.9" stroke="#13110C" stroke-width="0.5" stroke-miterlimit="10"/>
<path d="M88.7998 208.8C88.7998 208.8 95.3998 194.5 91.2998 191.2" stroke="#13110C" stroke-width="0.5" stroke-miterlimit="10"/>
<path d="M87.1001 208.5C87.1001 208.5 92 193.6 88.8 190.3" stroke="#13110C" stroke-width="0.5" stroke-miterlimit="10"/>
<path d="M84.2998 208.8C84.2998 208.8 89.3999 194.4 87.0999 188.6" stroke="#13110C" stroke-width="0.5" stroke-miterlimit="10"/>
<path d="M82.1997 208.5C82.1997 208.5 85.8998 194.5 84.7998 192.6" stroke="#13110C" stroke-width="0.5" stroke-miterlimit="10"/>
<path d="M80.0996 208.1C80.0996 208.1 83.6996 195.6 82.5996 193.3" stroke="#13110C" stroke-width="0.5" stroke-miterlimit="10"/>
<path d="M111.4 177.9C111.4 177.9 105 179.4 103.9 181.7" stroke="#13110C" stroke-width="0.5" stroke-miterlimit="10"/>
<path d="M107.7 181.7C107.7 181.7 106.1 181.8 105.6 183.9" stroke="#13110C" stroke-width="0.5" stroke-miterlimit="10"/>
<path d="M99.7001 182.9C99.7001 182.9 97.3001 182.3 97.5001 184.5" stroke="#13110C" stroke-width="0.5" stroke-miterlimit="10"/>
<path d="M97.3999 178.6C97.3999 178.6 95.1001 180 94.6001 183.9" stroke="#13110C" stroke-width="0.5" stroke-miterlimit="10"/>
<path d="M94 178.6C94 178.6 91 181.8 91 183.7" stroke="#13110C" stroke-width="0.5" stroke-miterlimit="10"/>
<path d="M87.6999 179.8C87.6999 179.8 87.3999 181.9 89.1999 183.7" stroke="#13110C" stroke-width="0.5" stroke-miterlimit="10"/>
<path d="M79.8999 182.9L74.8999 178.8" stroke="#13110C" stroke-width="0.5" stroke-miterlimit="10"/>
<path d="M81.0996 182.1L77.5996 178.9" stroke="#13110C" stroke-width="0.5" stroke-miterlimit="10"/>
<path d="M81.9998 181.3L79.2998 178.8" stroke="#13110C" stroke-width="0.5" stroke-miterlimit="10"/>
<path d="M83.3999 180.5L81.3999 178.6" stroke="#13110C" stroke-width="0.5" stroke-miterlimit="10"/>
<path d="M40.6997 179.6C40.6997 179.6 45.6997 181.3 45.6997 187.4C45.6997 187.4 45.8997 193.7 43.1997 195.2L42.6997 195.7L46.6997 199.9L42.7998 204.3C42.7998 204.3 45.6998 209.5 45.3998 214.7C45.3998 214.7 46.0998 222.2 39.7998 222.8C39.7998 222.8 31.3997 219.5 37.6997 207L38.9998 204.3L35.1997 199.4L39.0997 195.9C39.0997 195.9 34.4998 190.7 35.8998 185C35.8998 185 37.2997 181.5 40.6997 179.6Z" fill="#FFE922" stroke="#13110C" stroke-miterlimit="10"/>
<path d="M39.1997 214.1C39.1997 211.6 39.7998 209.5 40.4998 209.5C41.1998 209.5 41.7998 211.6 41.7998 214.1C41.7998 216.6 41.1998 218.7 40.4998 218.7C39.6998 218.7 39.1997 216.7 39.1997 214.1Z" fill="#E31518" stroke="#13110C" stroke-miterlimit="10"/>
<path d="M40.7998 191.9C41.6835 191.9 42.3998 189.975 42.3998 187.6C42.3998 185.225 41.6835 183.3 40.7998 183.3C39.9161 183.3 39.1997 185.225 39.1997 187.6C39.1997 189.975 39.9161 191.9 40.7998 191.9Z" fill="#E31518" stroke="#13110C" stroke-miterlimit="10"/>
<path d="M41.6998 209.6C41.6998 209.6 40.2999 203.9 36.3999 200.9" stroke="#13110C" stroke-miterlimit="10"/>
<path d="M41.2 192.3C41.2 192.3 40.6 195.9 45.2 198.3" stroke="#13110C" stroke-miterlimit="10"/>
<path d="M42.3997 203C42.3997 203 42.2996 199.2 39.5996 197.4" stroke="#13110C" stroke-miterlimit="10"/>
<path d="M29.0996 160.1L50.3997 173.7L59.5996 179.6" stroke="#13110C" stroke-miterlimit="10"/>
<path d="M38.9998 166.4L36.5998 167.4C35.0998 167.9 36.1998 170.4 36.1998 170.4C34.5998 172.1 36.3999 173.7 36.3999 173.7C33.8999 174.5 36.6998 177.1 36.6998 177.1C34.5998 177.9 35.4998 179.8 35.4998 179.8C36.7998 180 38.1998 179.9 39.4998 179.7C41.4998 179.5 43.0998 179 43.0998 179C47.6998 179.5 50.0998 174.2 50.0998 174.2L50.2999 173.6L38.9998 166.4Z" fill="#FED68A" stroke="#13110C" stroke-miterlimit="10"/>
<path d="M41.9998 177.1C41.9998 177.1 39.0998 177.3 36.7998 177.1" stroke="#13110C" stroke-miterlimit="10"/>
<path d="M36.3999 173.7H42.3999" stroke="#13110C" stroke-miterlimit="10"/>
<path d="M36.2998 170.3H41.1997" stroke="#13110C" stroke-miterlimit="10"/>
<path d="M141.6 125.4C153.1 136.9 152.9 168.3 152.9 168.3V129.2V125.3H146.9H141.6" fill="#13110C"/>
<path d="M141.6 125.4C153.1 136.9 152.9 168.3 152.9 168.3V129.2V125.3H146.9H141.6" stroke="#13110C" stroke-miterlimit="10"/>
<path d="M146.1 125.4C146.1 125.4 150.1 128.2 152.9 129.6V127.5C152.9 127.5 150.5 126 149.7 125.4H146.1Z" fill="#FFE922" stroke="#13110C" stroke-miterlimit="10"/>
<path d="M124.1 125.4C141.7 144.3 139.9 163.2 139.9 163.2L142.2 164.4C142.2 164.4 142.4 140.4 126.7 125.4H124.1Z" fill="#FFE922" stroke="#13110C" stroke-miterlimit="10"/>
<path d="M151.7 164.5C151 164.2 149.2 162.4 149.2 162.4L151.7 164.5Z" fill="white"/>
<path d="M151.7 164.5C151 164.2 149.2 162.4 149.2 162.4" stroke="white" stroke-miterlimit="10"/>
<path d="M151.2 156.3C151.2 156.3 148.9 158.1 148.7 159.1L151.2 156.3Z" fill="white"/>
<path d="M151.2 156.3C151.2 156.3 148.9 158.1 148.7 159.1" stroke="white" stroke-miterlimit="10"/>
<path d="M150 148.7C150 148.7 145.5 147.1 144.5 145.9L150 148.7Z" fill="white"/>
<path d="M150 148.7C150 148.7 145.5 147.1 144.5 145.9" stroke="white" stroke-miterlimit="10"/>
<path d="M147.2 139L143.8 143.9" stroke="white" stroke-miterlimit="10"/>
<path d="M143.8 131.8L138.9 130.7" stroke="white" stroke-miterlimit="10"/>
<path d="M137.9 128.5L138.9 125.9" stroke="white" stroke-miterlimit="10"/>
<path d="M127.1 144.7C127.8 143.7 128.1 143.9 128.1 143.9C128.1 143.9 130.3 148.1 127.9 146.9C127.9 146.9 125.5 146.1 122 146.6C122 146.6 120.2 145.7 123.8 145.2C123.8 145.2 126.7 145.4 127.1 144.7Z" fill="#FFE922"/>
<path d="M133.1 157.7C133.1 157.7 133.2 153.4 131.6 153.8C129.9 154.2 130.5 156.1 131.3 156.8C132 157.4 133.1 157.7 133.1 157.7Z" fill="#FFE922"/>
<path d="M121.4 135.7C121.5 134.4 122 134.4 122 134.4C122 134.4 126.3 137.1 123.4 137.3C123.4 137.3 120.7 137.9 117.6 140.3C117.6 140.3 115.5 140.5 118.6 138C118.5 138 121.3 136.6 121.4 135.7Z" fill="#FFE922"/>
<path d="M115.2 129.4C114.9 128.2 115.3 128.1 115.3 128.1C115.3 128.1 120.1 129.4 117.5 130.4C117.5 130.4 115.2 131.7 113.1 134.7C113.1 134.7 111.2 135.4 113.3 132.3C113.4 132.4 115.5 130.3 115.2 129.4Z" fill="#FFE922"/>
<path d="M115.4 125.4C115.4 125.4 112.1 132 111.3 132.5C109.6 133.6 111.8 124.2 111.3 125.4H115.4Z" fill="#FFE922"/>
<path d="M138.5 162.3C138.5 162.3 132.5 159.1 127.6 154.4L127.4 169.2L138.5 162.3L114.7 177L138.5 162.3Z" fill="#E31518"/>
<path d="M138.5 162.3C138.5 162.3 132.5 159.1 127.6 154.4L127.4 169.2L138.5 162.3ZM138.5 162.3L114.7 177" stroke="#13110C" stroke-miterlimit="10"/>
<path d="M127.6 154.4L127.4 169.2L125.3 170.5V152.3L127.6 154.4Z" fill="white" stroke="#13110C" stroke-miterlimit="10"/>
<path d="M81.7998 150.1C85.2998 153.5 92.5999 150.3 92.5999 150.3C96.6999 154.1 103.9 150.3 103.9 150.3C110.1 154.1 115.4 149.8 115.4 149.8C119.8 153.3 123.5 150.6 123.5 150.6L118.4 145C118.4 145 116.3 145.6 115.3 145C115.3 145 109.3 148.1 104.3 145C104.3 145 97.5997 148.3 92.8997 145C92.8997 145 86.4998 148 81.7998 145.2V150.1Z" fill="white" stroke="#13110C" stroke-miterlimit="10"/>
<path d="M121.9 148.9C120.4 149.3 118 149.5 115.4 147.4C115.4 147.4 110.2 151.6 103.9 147.9C103.9 147.9 96.6999 151.7 92.5999 147.9C92.5999 147.9 85.1998 151.1 81.7998 147.7" stroke="#13110C" stroke-miterlimit="10"/>
<path d="M122.2 172.4V151.2L119.8 151.6V173.9L122.2 172.4Z" fill="white" stroke="#13110C" stroke-miterlimit="10"/>
<path d="M107.7 176.5V151.7L105.3 151V177.8L107.7 176.5Z" fill="white" stroke="#13110C" stroke-miterlimit="10"/>
<path d="M110.1 170.6C108 166.9 112.8 167.4 112.8 167.4L112.2 164.6H114.4L113.9 167.6C113.9 167.6 119.2 167.4 116 172L113.3 174.9L110.1 170.6Z" fill="white"/>
<path d="M110.1 159C108 155.3 112.8 155.8 112.8 155.8L112.2 153H114.4L113.9 156C113.9 156 119.2 155.8 116 160.4L113.3 163.3L110.1 159Z" fill="white"/>
<path d="M105.3 172.5V169H72.4996L70.5996 172.5H105.3Z" fill="#FFE922" stroke="#13110C" stroke-miterlimit="10"/>
<path d="M102.4 151.9V165.9L77.8999 165.7L85.7999 152.3" stroke="#13110C" stroke-miterlimit="10"/>
<path d="M98.6 152.3V162.5H83.3999L88.8998 152.3" stroke="#13110C" stroke-miterlimit="10"/>
<path d="M95.1001 152.7V160.1H88.3999L92.5 152.3" stroke="white" stroke-miterlimit="10"/>
<path d="M83.3998 151.2L81.7998 150.1L64.2998 177.9L66.2998 178L70.5997 172.5L72.4998 169L83.3998 151.2Z" fill="white" stroke="#13110C" stroke-miterlimit="10"/>
<path d="M78.9998 151.9C78.9998 151.9 76.0998 152.6 75.2998 153.6" stroke="white" stroke-miterlimit="10"/>
<path d="M68.7997 150.1C68.7997 150.1 68.8996 146.1 68.0996 145.5" stroke="white" stroke-miterlimit="10"/>
<path d="M65.3997 144.4C65.3997 144.4 62.7996 145 62.0996 145.5" stroke="white" stroke-miterlimit="10"/>
<path d="M56.0996 141.4C56.0996 141.4 57.3996 137.4 56.0996 136.6" stroke="white" stroke-miterlimit="10"/>
<path d="M54.4998 134.9C54.4998 134.9 50.7997 133.4 49.6997 134.1" stroke="white" stroke-miterlimit="10"/>
<path d="M44.3999 128.8C44.3999 128.8 44.7999 126.6 45.3999 126.5" stroke="white" stroke-miterlimit="10"/>
<path d="M47 171.5L62.1 148.1C65.6 151.4 77.2 157.4 77.2 157.4L64.3 177.9C64.3 177.9 60.4 177.5 59.7 179.5L47 171.5Z" fill="#211C4B" stroke="#13110C" stroke-miterlimit="10"/>
<path d="M58.2998 169.1C58.5998 164.9 62.2998 167.9 62.2998 167.9L63.2998 165.2L65.1997 166.4L63.0997 168.6C63.0997 168.6 67.5998 171.3 62.4998 173.4L58.5997 174.3L58.2998 169.1Z" fill="white"/>
<path d="M65.7998 158.5C66.0998 154.3 69.7998 157.3 69.7998 157.3L70.7998 154.6L72.6997 155.8L70.5997 158C70.5997 158 75.0998 160.7 69.9998 162.8L66.0997 163.7L65.7998 158.5Z" fill="white"/>
<path d="M67.5997 152L65.7998 150.9L50.7998 173.9L52.4998 175L67.5997 152Z" fill="white" stroke="#13110C" stroke-miterlimit="10"/>
<path d="M48.7997 168.8L29.0996 156.2V160.1L46.9996 171.5L48.7997 168.8Z" fill="#E31518" stroke="#13110C" stroke-miterlimit="10"/>
<path d="M48.7997 168.8L50.2997 166.4L29.0996 152.3V156.2L48.7997 168.8Z" fill="#211C4B" stroke="#13110C" stroke-miterlimit="10"/>
<path d="M50.2997 166.4L52.2997 163.3L29.0996 148.1V152.3L50.2997 166.4Z" fill="#E31518" stroke="#13110C" stroke-miterlimit="10"/>
<path d="M29.0996 137.3C40.8996 143.1 43.6996 157.7 43.6996 157.7L46.2997 159.4C46.2997 159.4 43.6996 140.3 29.0996 134.4V137.3Z" fill="#FFE922" stroke="#13110C" stroke-miterlimit="10"/>
<path d="M29.0996 137.3V148.2L43.6996 157.8C43.6996 157.7 40.7996 142.6 29.0996 137.3Z" fill="#211C4B" stroke="#13110C" stroke-miterlimit="10"/>
<path d="M30.2998 142.9C30.2998 142 31.0998 141.2 31.9998 141.2C32.8998 141.2 33.6997 141.9 33.6997 142.9C33.6997 143.8 32.8998 144.6 31.9998 144.6C30.9998 144.6 30.2998 143.8 30.2998 142.9Z" fill="#FFE922"/>
<path d="M33 146.6C33 145.7 33.8 145.1 34.7 145.1C35.6 145.1 36.4 145.8 36.4 146.6C36.4 147.5 35.6 148.1 34.7 148.1C33.8 148.1 33 147.5 33 146.6Z" fill="#FFE922"/>
<path d="M36 150.2C36 149.3 36.8 148.5 37.7 148.5C38.6 148.5 39.4 149.3 39.4 150.2C39.4 151.1 38.6 151.9 37.7 151.9C36.8 151.9 36 151.1 36 150.2Z" fill="#FFE922"/>
<path d="M38.8999 153.3C38.8999 152.6 39.4999 152.1 40.0999 152.1C40.7999 152.1 41.2999 152.6 41.2999 153.3C41.2999 154 40.6999 154.5 40.0999 154.5C39.4999 154.5 38.8999 154 38.8999 153.3Z" fill="#FFE922"/>
<path d="M35.3997 125.4C53.1997 141.2 54.9996 154.5 54.9996 154.5L60.4996 146.9L62.0996 148.1L54.7997 159.4C54.7997 159.4 50.1996 137.4 32.5996 125.4H35.3997Z" fill="#FFE922" stroke="#13110C" stroke-miterlimit="10"/>
<path d="M60.4999 146.9L54.9999 154.5C54.9999 154.5 52.9999 140.9 35.3999 125.4H40.0999C40.0999 125.4 46.4999 135.8 60.4999 146.9Z" fill="#13110C" stroke="#13110C" stroke-miterlimit="10"/>
<path d="M54.7997 159.4L52.2997 163.3L46.2997 159.4C46.2997 159.4 43.5996 140.2 29.0996 134.4V126.1H31.8997C31.8997 126.1 47.8997 132.9 54.7997 159.4Z" fill="#211C4B" stroke="#13110C" stroke-miterlimit="10"/>
<path d="M52.8998 156.6L47.2998 157.7" stroke="white" stroke-miterlimit="10"/>
<path d="M50.0996 150.2L45.5996 152.3" stroke="white" stroke-miterlimit="10"/>
<path d="M47.2998 143.8L43.1997 146.3" stroke="white" stroke-miterlimit="10"/>
<path d="M43.6997 138.2L40.1997 141.2" stroke="white" stroke-miterlimit="10"/>
<path d="M39.4 133.4L36 136.9" stroke="white" stroke-miterlimit="10"/>
<path d="M34.6996 129.2L31.5996 133.1" stroke="white" stroke-miterlimit="10"/>
<path d="M49.2998 159.5C49.2998 159 49.7998 158.6 50.3998 158.6C50.9998 158.6 51.4998 159 51.4998 159.5C51.4998 160 50.9998 160.4 50.3998 160.4C49.7998 160.4 49.2998 160 49.2998 159.5Z" fill="white"/>
<path d="M47.6997 154.2C47.6997 153.7 48.1998 153.3 48.7998 153.3C49.3998 153.3 49.8998 153.7 49.8998 154.2C49.8998 154.7 49.3998 155.1 48.7998 155.1C48.1998 155.1 47.6997 154.7 47.6997 154.2Z" fill="white"/>
<path d="M45.2998 147.8C45.2998 147.3 45.7998 146.9 46.3998 146.9C46.9998 146.9 47.4998 147.3 47.4998 147.8C47.4998 148.3 46.9998 148.7 46.3998 148.7C45.6998 148.7 45.2998 148.3 45.2998 147.8Z" fill="white"/>
<path d="M42.1997 142.4C42.1997 141.9 42.6998 141.5 43.2998 141.5C43.8998 141.5 44.3998 141.9 44.3998 142.4C44.3998 142.9 43.8998 143.3 43.2998 143.3C42.6998 143.4 42.1997 142.9 42.1997 142.4Z" fill="white"/>
<path d="M38.5996 137.3C38.5996 136.8 39.0996 136.4 39.6996 136.4C40.2996 136.4 40.7997 136.8 40.7997 137.3C40.7997 137.8 40.2996 138.2 39.6996 138.2C39.0996 138.2 38.5996 137.8 38.5996 137.3Z" fill="white"/>
<path d="M34.6997 133.4C34.6997 132.9 35.1998 132.5 35.7998 132.5C36.3998 132.5 36.8998 132.9 36.8998 133.4C36.8998 133.9 36.3998 134.3 35.7998 134.3C35.1998 134.3 34.6997 133.9 34.6997 133.4Z" fill="white"/>
<path d="M30.5 129.2C30.5 128.7 31 128.3 31.6 128.3C32.2 128.3 32.7 128.7 32.7 129.2C32.7 129.7 32.2 130.1 31.6 130.1C31 130.2 30.5 129.7 30.5 129.2Z" fill="white"/>
<path d="M64.3 125.4C65.9 129 69.3 125.4 69.3 125.4H72.2L71.9 126.1C70.6 135.5 77.2 135.2 77.2 135.2C80.2 136.3 77.9 137.8 77.9 137.8C77.9 137.8 70.1 138 69.3 130.2C69.3 130.2 62 132.3 61 125.5H64.3V125.4Z" fill="#FFE922" stroke="#13110C" stroke-miterlimit="10"/>
<path d="M74.1 128.3C72.8 127.2 75.3001 127.1 75.3001 127.1C74.9001 128.4 76.4 130.2 76.4 130.2C76.4 130.2 76.9 131.9 75.9 131.2C75.9 131.2 72.9 131.2 73 129.6C73.1 129.6 75.1 129.1 74.1 128.3Z" fill="#FFE922" stroke="#13110C" stroke-miterlimit="10"/>
<path d="M57.9998 125.4H55.7998C55.7998 125.4 64.2998 136.3 81.7998 144.9L81.4998 142.8C69.5998 138.6 58.2998 125.3 58.2998 125.3" fill="#FFE922"/>
<path d="M57.9998 125.4H55.7998C55.7998 125.4 64.2998 136.3 81.7998 144.9L81.4998 142.8C69.5998 138.6 58.2998 125.3 58.2998 125.3" stroke="#13110C" stroke-miterlimit="10"/>
<path d="M111.3 135.1H79.7997L79.0996 132.7L109.6 132.3L111.3 135.1Z" fill="white" stroke="#13110C" stroke-miterlimit="10"/>
<path d="M109.3 132.3L107.9 129.2L78 129.5L79.1 132.7L109.3 132.3Z" fill="#E31518" stroke="#13110C" stroke-miterlimit="10"/>
<path d="M81.7998 145.2C82.0998 142.7 79.7998 135.1 79.7998 135.1H111.3C113.6 139.2 118.5 145 118.5 145C118.5 145 116.7 145.9 115.4 145C115.4 145 109.6 148.1 104.4 145C104.4 145 97.9998 148.3 92.9998 145C92.9998 145 86.2998 147.7 81.7998 145.2Z" fill="#FFE922" stroke="#13110C" stroke-miterlimit="10"/>
<path d="M104.4 145V135.1" stroke="#13110C" stroke-miterlimit="10"/>
<path d="M92.9998 145L92.6997 135.1" stroke="#13110C" stroke-miterlimit="10"/>
<path d="M113.3 138.3C113.3 138.3 114.4 143.2 109.9 143C109.9 143 105.8 143.7 106.5 135.1" stroke="#13110C" stroke-miterlimit="10"/>
<path d="M101.4 135.1C101.4 135.1 101.9 143 101.2 143C101.2 143 95.6 143.9 95.5 142V135" stroke="#13110C" stroke-miterlimit="10"/>
<path d="M89.9996 135.5C89.9996 135.5 90.4997 143.4 89.7997 143.4C89.7997 143.4 84.1996 144.3 84.0996 142.4V135.4" stroke="#13110C" stroke-miterlimit="10"/>
<path d="M109.9 140.3V135.5" stroke="#13110C" stroke-miterlimit="10"/>
<path d="M98.6001 140.3L98.5 135.2" stroke="#13110C" stroke-miterlimit="10"/>
<path d="M87.1001 140.3V135.2" stroke="#13110C" stroke-miterlimit="10"/>
<path d="M17.3 41.3L15.8 43.1C14.5 44.6 12.3 44.9 10.8 43.6L10.5 43.4001C9 42.1001 8.7 39.9001 10 38.4001L12.4 35.4001L16.8 30.0001C16.9 29.8001 17.0999 29.7 17.1999 29.6C17.2999 29.7 17.5 29.9001 17.6 30.0001L24.4 38.4001C25.6 39.9001 25.4 42.2001 23.9 43.4001L23.6 43.6C22.1 44.8 19.8 44.6 18.6 43.1L17.3 41.3L18.1 40.4001C18.1 40.4001 16.4999 44.2001 14.1999 46.4001H20.1C20.1 46.3001 17.2 43.4 17.3 41.3Z" fill="#13110C"/>
<path d="M17.3 41.3L15.8 43.1C14.5 44.6 12.3 44.9 10.8 43.6L10.5 43.4001C9 42.1001 8.7 39.9001 10 38.4001L12.4 35.4001L16.8 30.0001C16.9 29.8001 17.0999 29.7 17.1999 29.6C17.2999 29.7 17.5 29.9001 17.6 30.0001L24.4 38.4001C25.6 39.9001 25.4 42.2001 23.9 43.4001L23.6 43.6C22.1 44.8 19.8 44.6 18.6 43.1L17.3 41.3ZM17.3 41.3L18.1 40.4001C18.1 40.4001 16.4999 44.2001 14.1999 46.4001H20.1C20.1 46.3001 17.2 43.4 17.3 41.3Z" stroke="#13110C" stroke-miterlimit="10"/>
<path d="M164.2 212.4L165.7 210.6C167 209.1 169.2 208.8 170.7 210.1L171 210.3C172.5 211.6 172.8 213.8 171.5 215.3L169.1 218.3L164.7 223.7C164.6 223.9 164.4 224 164.3 224.1C164.2 224 164 223.8 163.9 223.7L157.1 215.3C155.9 213.8 156.1 211.5 157.6 210.3L157.9 210.1C159.4 208.9 161.7 209.1 162.9 210.6L164.2 212.4L163.4 213.3C163.4 213.3 165 209.5 167.3 207.3H161.4C161.4 207.4 164.3 210.3 164.2 212.4Z" fill="#13110C"/>
<path d="M164.2 212.4L165.7 210.6C167 209.1 169.2 208.8 170.7 210.1L171 210.3C172.5 211.6 172.8 213.8 171.5 215.3L169.1 218.3L164.7 223.7C164.6 223.9 164.4 224 164.3 224.1C164.2 224 164 223.8 163.9 223.7L157.1 215.3C155.9 213.8 156.1 211.5 157.6 210.3L157.9 210.1C159.4 208.9 161.7 209.1 162.9 210.6L164.2 212.4ZM164.2 212.4L163.4 213.3C163.4 213.3 165 209.5 167.3 207.3H161.4C161.4 207.4 164.3 210.3 164.2 212.4Z" stroke="#13110C" stroke-miterlimit="10"/>
<path d="M49.3996 53.9001L47.2996 56.5001C45.4996 58.7001 42.2996 59 40.0996 57.2L39.6995 56.9001C37.4995 55.1001 37.1996 51.9 38.9996 49.7L42.4996 45.4001L48.8996 37.7C49.0996 37.5 49.2996 37.3 49.4996 37.1C49.6996 37.3 49.8996 37.5 50.0996 37.7L59.8996 49.8C61.6996 52 61.2996 55.2001 59.0996 57.0001L58.6995 57.3C56.4995 59.1 53.2996 58.7001 51.4996 56.5001L49.3996 53.9001L50.4996 52.6C50.4996 52.6 48.2996 58 44.8996 61.2H53.3996C53.4996 61.1 49.2996 56.9001 49.3996 53.9001Z" fill="#13110C"/>
<path d="M49.3996 53.9001L47.2996 56.5001C45.4996 58.7001 42.2996 59 40.0996 57.2L39.6995 56.9001C37.4995 55.1001 37.1996 51.9 38.9996 49.7L42.4996 45.4001L48.8996 37.7C49.0996 37.5 49.2996 37.3 49.4996 37.1C49.6996 37.3 49.8996 37.5 50.0996 37.7L59.8996 49.8C61.6996 52 61.2996 55.2001 59.0996 57.0001L58.6995 57.3C56.4995 59.1 53.2996 58.7001 51.4996 56.5001L49.3996 53.9001ZM49.3996 53.9001L50.4996 52.6C50.4996 52.6 48.2996 58 44.8996 61.2H53.3996C53.4996 61.1 49.2996 56.9001 49.3996 53.9001Z" stroke="#13110C" stroke-miterlimit="10"/>
<path d="M133.6 195.2L135.7 192.6C137.5 190.4 140.7 190.1 142.9 191.9L143.3 192.2C145.5 194 145.8 197.2 144 199.4L140.5 203.7L134.1 211.4C133.9 211.6 133.7 211.8 133.5 212C133.3 211.8 133.1 211.6 132.9 211.4L123.1 199.3C121.3 197.1 121.7 193.9 123.9 192.1L124.3 191.8C126.5 190 129.7 190.4 131.5 192.6L133.6 195.2L132.5 196.5C132.5 196.5 134.7 191.1 138.1 187.9H129.6C129.5 188 133.7 192.2 133.6 195.2Z" fill="#13110C"/>
<path d="M133.6 195.2L135.7 192.6C137.5 190.4 140.7 190.1 142.9 191.9L143.3 192.2C145.5 194 145.8 197.2 144 199.4L140.5 203.7L134.1 211.4C133.9 211.6 133.7 211.8 133.5 212C133.3 211.8 133.1 211.6 132.9 211.4L123.1 199.3C121.3 197.1 121.7 193.9 123.9 192.1L124.3 191.8C126.5 190 129.7 190.4 131.5 192.6L133.6 195.2ZM133.6 195.2L132.5 196.5C132.5 196.5 134.7 191.1 138.1 187.9H129.6C129.5 188 133.7 192.2 133.6 195.2Z" stroke="#13110C" stroke-miterlimit="10"/>
</svg>
