<svg width="181" height="254" viewBox="0 0 181 254" fill="none" xmlns="http://www.w3.org/2000/svg">
<path d="M179.7 231.9C179.7 243.7 172.9 253.3 164.5 253.3H16.2C7.79995 253.3 1 243.7 1 231.9V22.8002C1 11.0002 7.79995 1.40015 16.2 1.40015H164.5C172.9 1.40015 179.7 11.0002 179.7 22.8002V231.9Z" fill="white" stroke="#1D1D1B" stroke-miterlimit="10"/>
<path d="M149.3 120.3V101.9L149.2 95.9001L130.6 77.5001L73.3997 78.3002L56.2998 96.8002L76.0999 121.1L149.3 120.3Z" fill="#13110C" stroke="#13110C" stroke-miterlimit="10"/>
<path d="M77.7002 127.8C77.7002 123.7 76.2002 119.6 76.2002 119.6H101.6C101.6 119.6 100.7 126.2 101 128.1L77.7002 128" fill="#211C4B"/>
<path d="M77.7002 127.8C77.7002 123.7 76.2002 119.6 76.2002 119.6H101.6C101.6 119.6 100.7 126.2 101 128.1L77.7002 128" stroke="#13110C" stroke-miterlimit="10"/>
<path d="M103.5 127.8C103.5 127.8 101.7 115.8 108 109.9C108 109.9 116.4 99.3001 125.7 100C125.7 100 134.8 99.6002 143 103.1L147.8 105.5L127.8 127.9H103.5V127.8Z" fill="#13110C" stroke="#13110C" stroke-miterlimit="10"/>
<path d="M132.1 127.8L149.3 109.1L149.2 127.8H132.1Z" fill="#211C4B" stroke="#13110C" stroke-miterlimit="10"/>
<path d="M147.7 120.2C147.6 118.5 146.3 119.2 146.3 119.2C146.3 118 145.4 118 145.4 118C144.2 117.8 145 121.9 145 121.9C145 121.9 147.7 120.8 147.7 120.2Z" fill="white"/>
<path d="M59.6001 119.1C59.6001 119.1 62.9 122.7 63.5 127.8H75.3999C75.3999 127.8 76.5999 121.3 67.3999 110.5L59.6001 119.1Z" fill="#13110C" stroke="#13110C" stroke-miterlimit="10"/>
<path d="M31.8999 127.8H47.1001L64.7 109.1L56.5 101.3L31.8999 127.8Z" fill="#211C4B" stroke="#13110C" stroke-miterlimit="10"/>
<path d="M51.7998 85.5001H39.2998V97.3002H51.7998V85.5001Z" fill="#211C4B"/>
<path d="M49.3999 94.6002C54.2999 95.4002 54.1999 91.7002 54.1999 91.7002C54.7999 87.4002 48.8 88.4001 48.8 88.4001C50.4 83.2001 46.1001 82.8002 46.1001 82.8002C41.3001 83.1002 43 88.9001 43 88.9001C43 88.9001 37.9 88.3001 38 92.5001C38 92.5001 38.0999 95.8002 43.1999 95.1002C43.1999 95.1002 42.4999 99.1002 46.3999 99.1002C46.3999 99.2002 49.9999 99.2002 49.3999 94.6002Z" fill="#FFEA24" stroke="#13110C" stroke-miterlimit="10"/>
<path d="M123.8 80.6002C120.6 77.8002 116.7 72.1002 116.7 72.1002C109.7 76.1002 97.4998 75.9001 97.4998 75.9001C89.6998 76.4001 77.8997 72.1002 77.8997 72.1002L71.2998 81.2002C71.2998 81.2002 94.8998 94.2002 122.5 81.6002L123.8 80.6002Z" fill="#211C4B" stroke="#13110C" stroke-miterlimit="10"/>
<path d="M77.3 82.5001C80.4 82.0001 82 75.0001 82 75.0001L80.3999 74.4001C78.9999 80.0001 76.8999 80.9001 76.8999 80.9001C75.0999 79.5001 78.3 73.6002 78.3 73.6002L76.3 72.8002C76.3 72.8002 72.6001 81.5001 76.1001 82.0001L77.3 82.5001Z" fill="#FFEA24"/>
<path d="M75.6001 77.5001L78.6001 75.5001L80.1001 79.3002L76.8999 80.9001L75.6001 77.5001Z" fill="#E31013"/>
<path d="M119.4 81.9001C121.5 79.6001 118.3 73.1002 118.3 73.1002L116.7 73.6002C119.2 78.8002 118.1 80.9001 118.1 80.9001C115.9 80.9001 114.5 74.3002 114.5 74.3002L112.5 75.0001C112.5 75.0001 115.1 84.1002 118.2 82.3002L119.4 81.9001Z" fill="#FFEA24"/>
<path d="M114.9 79.1002L116 75.7002L119.6 77.6002L118.1 80.9001L114.9 79.1002Z" fill="#E31013"/>
<path d="M111.7 61.6002C102.8 74.3002 95.3001 73.6002 95.3001 73.6002C89.3001 73.4002 85.2 63.3002 85.2 63.3002C82.9 59.4002 83.3001 40.7002 83.3001 40.7002V30.6002H107.4C107.3 30.6002 106 44.6002 111.7 61.6002Z" fill="#FED68A" stroke="#13110C" stroke-miterlimit="10"/>
<path d="M156.9 229.5C157.7 229.5 158.3 229.5 158.7 229.6C159.1 229.7 159.5 229.9 159.9 230.2C160.8 229.5 161.7 229.1 162.8 229.1C163.9 229.1 164.9 229.5 165.8 230.3C166.7 231.1 167.2 232.1 167.2 233.2V234.8H168.4V236.8C168.4 236.8 168 236.8 167.2 236.9V243.1C167.2 244.2 166.7 245.2 165.8 246.1C164.9 246.9 163.9 247.3 162.8 247.3C161.7 247.3 160.6 246.9 159.7 246.1C158.8 245.3 158.3 244.3 158.3 243.2V233.3C158.3 232.8 158.4 232.4 158.6 231.9C158.4 231.8 158.2 231.7 158.1 231.6H156.9V229.5ZM165.1 236.9C164.2 236.8 163.4 236.4 162.5 235.7C162 235.3 161.3 234.6 160.5 233.7V243.1C160.5 243.6 160.7 244.1 161.2 244.5C161.7 244.9 162.2 245.1 162.8 245.1C163.4 245.1 163.9 244.9 164.4 244.5C164.9 244.1 165.1 243.6 165.1 243.1V236.9ZM161.6 231.7L164.3 234.4C164.5 234.6 164.8 234.8 165.2 234.8V233.3C165.2 232.8 165 232.4 164.5 231.9C164 231.5 163.5 231.3 162.9 231.3C162.4 231.3 162 231.5 161.6 231.7Z" fill="#13110C"/>
<path d="M22.5 25.2002C21.7 25.2002 21.1 25.2002 20.7 25.1002C20.3 25.0002 19.9 24.8001 19.5 24.5001C18.6 25.2001 17.7001 25.6002 16.6001 25.6002C15.5001 25.6002 14.5001 25.2001 13.6001 24.4001C12.7001 23.6001 12.2 22.6001 12.2 21.5001V19.9001H11V17.9001C11 17.9001 11.4 17.9002 12.2 17.8002V11.6002C12.2 10.5002 12.7001 9.50022 13.6001 8.60022C14.5001 7.80022 15.5001 7.40015 16.6001 7.40015C17.7001 7.40015 18.8 7.80022 19.7 8.60022C20.6 9.40022 21.1001 10.4001 21.1001 11.5001V21.4001C21.1001 21.9001 21 22.3002 20.8 22.8002C21 22.9002 21.2 23.0002 21.3 23.1002H22.5V25.2002ZM14.2 17.8002C15.1 17.9002 15.9 18.3001 16.8 19.0001C17.3 19.4001 18 20.1001 18.8 21.0001V11.6002C18.8 11.1002 18.6001 10.6002 18.1001 10.2002C17.6001 9.8002 17.1 9.60022 16.5 9.60022C15.9 9.60022 15.3999 9.8002 14.8999 10.2002C14.3999 10.6002 14.2 11.1002 14.2 11.6002V17.8002ZM17.8 23.0001L15.1001 20.3002C14.9001 20.1002 14.6 19.9001 14.2 19.9001V21.4001C14.2 21.9001 14.3999 22.3002 14.8999 22.8002C15.3999 23.2002 15.9 23.4001 16.5 23.4001C17 23.4001 17.4 23.2001 17.8 23.0001Z" fill="#13110C"/>
<path d="M149.2 225H29.7998V30.6002H118H149.2V225Z" stroke="#13110C" stroke-miterlimit="10"/>
<path d="M118 30.6002C122.8 43.5002 138.5 65.4001 138.5 65.4001C138.5 65.4001 142.1 63.4001 149.1 63.0001C149.1 63.0001 136.2 43.2002 148.1 30.6002H118Z" fill="#FFEA24" stroke="#13110C" stroke-miterlimit="10"/>
<path d="M122.1 30.6002C122.1 30.6002 123.8 39.6002 129.1 42.2002C129.1 42.2002 123.4 33.0002 125.6 30.6002H122.1Z" fill="#211C4B"/>
<path d="M136.2 51.1002C134.2 51.0002 131.4 46.1002 131.4 46.1002C131.4 46.1002 131.9 53.9001 139.9 60.4001C139.9 60.4001 135.4 52.6002 136.2 51.1002Z" fill="#211C4B"/>
<path d="M126.8 31.5001C126.8 31.5001 127.2 37.6002 130.9 40.2002" stroke="#211C4B" stroke-miterlimit="10"/>
<path d="M132.5 43.2002C132.5 43.2002 134.5 49.3002 138.2 50.2002C138.2 50.2002 138.5 57.2002 142.3 59.6002" stroke="#211C4B" stroke-miterlimit="10"/>
<path d="M131.4 43.8002C131.4 44.5002 130.9 45.0001 130.2 45.0001C129.5 45.0001 129 44.5002 129 43.8002C129 43.1002 129.5 42.6002 130.2 42.6002C130.9 42.6002 131.4 43.2002 131.4 43.8002Z" fill="#211C4B" stroke="#211C4B" stroke-miterlimit="10"/>
<path d="M142.3 62.1002C142.3 62.8002 141.8 63.3002 141.1 63.3002C140.4 63.3002 139.9 62.8002 139.9 62.1002C139.9 61.4002 140.4 60.9001 141.1 60.9001C141.8 60.9001 142.3 61.5002 142.3 62.1002Z" fill="#211C4B" stroke="#211C4B" stroke-miterlimit="10"/>
<path d="M136.6 38.8002C134.5 40.1002 132.6 41.0003 132.5 40.7003C132.3 40.5003 134 39.2002 136.1 37.9002C138.2 36.6002 140.1 35.7002 140.2 36.0002C140.4 36.2002 138.8 37.4002 136.6 38.8002Z" fill="#211C4B" stroke="#211C4B" stroke-miterlimit="10"/>
<path d="M131.9 35.8002C132.2 37.9002 132.2 39.5003 131.9 39.6003C131.6 39.6003 131.1 38.0002 130.9 36.0002C130.6 33.9002 130.6 32.3002 130.9 32.2002C131.2 32.1002 131.7 33.8002 131.9 35.8002Z" fill="#211C4B" stroke="#211C4B" stroke-miterlimit="10"/>
<path d="M136.7 43.4001C138.3 44.7001 139.5 45.9002 139.4 46.1002C139.2 46.3002 137.7 45.5002 136.1 44.2002C134.5 42.9002 133.3 41.7001 133.4 41.5001C133.6 41.3001 135 42.1001 136.7 43.4001Z" fill="#211C4B" stroke="#211C4B" stroke-miterlimit="10"/>
<path d="M144.9 58.8002C144 59.4002 143.1 59.7002 142.9 59.4002C142.7 59.1002 143.4 58.5002 144.3 57.9002C145.2 57.3002 146.1 57.0002 146.3 57.3002C146.5 57.5002 145.8 58.2002 144.9 58.8002Z" fill="#211C4B" stroke="#211C4B" stroke-miterlimit="10"/>
<path d="M142.3 54.5002C142.6 56.6002 142.6 58.2002 142.3 58.3002C142 58.3002 141.5 56.7002 141.3 54.7002C141 52.6002 141 51.0002 141.3 50.9002C141.6 50.8002 142.1 52.4002 142.3 54.5002Z" fill="#211C4B" stroke="#211C4B" stroke-miterlimit="10"/>
<path d="M145.4 60.8002C146.1 61.3002 146.5 61.9002 146.3 62.2002C146.1 62.4002 145.4 62.2002 144.7 61.7002C144 61.2002 143.6 60.6002 143.8 60.3002C144 60.0002 144.7 60.2002 145.4 60.8002Z" fill="#211C4B" stroke="#211C4B" stroke-miterlimit="10"/>
<path d="M118 30.6002H114.7C114.7 30.6002 126.1 58.5002 135.6 67.3002C135.6 67.3002 137.6 65.8001 138.5 65.4001C138.6 65.4001 122.9 43.5002 118 30.6002Z" fill="#E31013" stroke="#13110C" stroke-miterlimit="10"/>
<path d="M110.7 30.6002H114.7C114.7 30.6002 126.7 65.0001 149.2 81.9001V94.0001C149.2 93.9001 133.7 84.6002 110.7 30.6002Z" fill="#13110C" stroke="#13110C" stroke-miterlimit="10"/>
<path d="M108 30.6002H110.7C110.7 30.6002 128.1 74.7001 149.2 93.9001L149.3 101.9C149.3 101.9 126.5 81.0002 108 30.6002Z" fill="#E31013" stroke="#13110C" stroke-miterlimit="10"/>
<path d="M83.2003 47.5001L66.1005 72.7002C62.3005 77.3002 67.4003 85.0001 67.4003 85.0001L63.8004 87.9001C56.6004 79.9001 61.4003 71.8002 61.4003 71.8002C62.0003 69.7002 73.2003 55.2002 73.2003 55.2002C82.0003 43.8002 81.4003 30.6002 81.4003 30.6002H83.1005V47.5001H83.2003Z" fill="#E31013" stroke="#13110C" stroke-miterlimit="10"/>
<path d="M83.1998 56.2002V47.5001L67.1 71.2002C67.1 71.2002 62.8998 75.5001 65.3998 80.9001L67.3998 85.0001L70.9999 81.5001C70.9999 81.5001 67.9 75.7001 71.1 72.5001L83.1998 56.2002Z" fill="#13110C" stroke="#13110C" stroke-miterlimit="10"/>
<path d="M83.2 56.7002C83.2 56.7002 84.1 61.8002 84.7 62.7002L71 81.5001C71 81.5001 68.6 76.3002 70 74.1002L83.2 56.7002Z" fill="#E31013" stroke="#13110C" stroke-miterlimit="10"/>
<path d="M83.2002 30.6002V40.7002C83.2002 40.7002 91.9001 37.7002 93.4001 30.6002H83.2002Z" fill="#AFA3C7" stroke="#13120D" stroke-width="0.5" stroke-miterlimit="10"/>
<path d="M141.1 92.6002C131.3 90.2002 123.2 79.8002 123.2 79.8002C105 63.0002 107.3 30.6002 107.3 30.6002H108C108 30.6002 123.6 71.7002 141.1 92.6002Z" fill="#AFA3C7" stroke="#13120D" stroke-miterlimit="10"/>
<path d="M107.3 30.6002C107.3 30.6002 106.2 36.9002 107.2 39.6002C107.2 39.6002 94 37.4002 93.5 30.6002H107.3Z" fill="#AFA3C7" stroke="#13120D" stroke-width="0.5" stroke-miterlimit="10"/>
<path d="M84.1001 37.6002C84.1001 37.6002 88.5999 35.1002 89.8999 32.1002" stroke="#13110C" stroke-width="0.5" stroke-miterlimit="10"/>
<path d="M84.1001 35.7002C84.1001 35.7002 86.7999 34.5002 88.3999 32.2002" stroke="#13110C" stroke-width="0.5" stroke-miterlimit="10"/>
<path d="M84.1001 33.4001C84.1001 33.4001 85.7 33.1002 86.2 32.1002" stroke="#13110C" stroke-width="0.5" stroke-miterlimit="10"/>
<path d="M84.7998 38.3002C84.7998 38.3002 90.7998 35.7002 91.2998 32.1002" stroke="#13110C" stroke-width="0.5" stroke-miterlimit="10"/>
<path d="M95.2002 31.5001C95.2002 31.5001 99.6002 37.0002 105.7 37.6002" stroke="#13110C" stroke-width="0.5" stroke-miterlimit="10"/>
<path d="M97.6001 31.5001C97.6001 31.5001 101.5 35.7002 105.8 35.7002" stroke="#13110C" stroke-width="0.5" stroke-miterlimit="10"/>
<path d="M100.5 31.5001C100.5 31.5001 102.8 34.0001 105.8 33.9001" stroke="#13110C" stroke-width="0.5" stroke-miterlimit="10"/>
<path d="M103.9 31.5001C103.9 31.5001 104.5 32.8002 105.7 32.7002" stroke="#13110C" stroke-width="0.5" stroke-miterlimit="10"/>
<path d="M108.8 47.0001C108.8 47.0001 111.2 50.6002 116.3 52.7002" stroke="#13110C" stroke-width="0.5" stroke-miterlimit="10"/>
<path d="M109.8 50.9001C109.8 50.9001 113.2 54.2002 117.3 55.3002" stroke="#13110C" stroke-width="0.5" stroke-miterlimit="10"/>
<path d="M110.7 54.6002C110.7 54.6002 114.1 57.2001 118.8 58.4001" stroke="#13110C" stroke-width="0.5" stroke-miterlimit="10"/>
<path d="M111.9 58.3002C111.9 58.3002 117 61.4002 120 61.6002" stroke="#13110C" stroke-width="0.5" stroke-miterlimit="10"/>
<path d="M113.5 62.1002C113.5 62.1002 118.2 64.6001 122.1 65.4001" stroke="#13110C" stroke-width="0.5" stroke-miterlimit="10"/>
<path d="M114.7 65.4001C114.7 65.4001 118.5 67.7002 124.1 69.1002" stroke="#13110C" stroke-width="0.5" stroke-miterlimit="10"/>
<path d="M116.3 69.1002C116.3 69.1002 122.6 72.8002 126.6 73.7002" stroke="#13110C" stroke-width="0.5" stroke-miterlimit="10"/>
<path d="M118.9 73.0001C118.9 73.0001 125.4 77.5002 129.2 77.8002" stroke="#13110C" stroke-width="0.5" stroke-miterlimit="10"/>
<path d="M124.1 79.0001C124.1 79.0001 128.7 81.3002 131.4 81.6002" stroke="#13110C" stroke-width="0.5" stroke-miterlimit="10"/>
<path d="M127.8 83.3002C127.8 83.3002 133.3 86.3001 134.6 86.0001" stroke="#13110C" stroke-width="0.5" stroke-miterlimit="10"/>
<path d="M132.1 87.0001C132.1 87.0001 135.6 89.1002 136.7 88.8002" stroke="#13110C" stroke-width="0.5" stroke-miterlimit="10"/>
<path d="M108.8 43.8002C108.8 43.8002 113.5 49.8001 114.7 49.9001" stroke="#13110C" stroke-width="0.5" stroke-miterlimit="10"/>
<path d="M108.8 41.5001C108.8 41.5001 111.9 44.3002 112.5 44.6002" stroke="#13110C" stroke-width="0.5" stroke-miterlimit="10"/>
<path d="M108 38.3002C108 38.3002 110.2 40.7002 110.7 40.7002" stroke="#13110C" stroke-width="0.5" stroke-miterlimit="10"/>
<path d="M108 36.4001L109.8 38.3002" stroke="#13110C" stroke-width="0.5" stroke-miterlimit="10"/>
<path d="M84.1001 41.5001C84.1001 41.5001 88.5 39.4002 91.3 42.2002C91.3 42.2002 92.0001 48.5001 89.6001 54.5001C89.6001 54.5001 86.7 58.3002 92 58.7002" stroke="#13110C" stroke-miterlimit="10"/>
<path d="M91.8004 58.8002C91.8004 58.8002 91.2002 56.5002 93.4002 57.8002C93.4002 57.8002 97.8004 57.4002 95.1004 54.2002" stroke="#13110C" stroke-miterlimit="10"/>
<path d="M93.8999 41.5002C93.8999 41.5002 100.2 39.8002 104.8 42.2002" stroke="#13110C" stroke-miterlimit="10"/>
<path d="M89.5001 47.5001C83.5001 47.8001 84.1002 45.0001 84.1002 45.0001C84.1002 45.0001 87.2 43.2001 90.4 45.0001C90.4 45.0001 90.2001 47.5001 89.5001 47.5001Z" stroke="#13110C" stroke-miterlimit="10"/>
<path d="M90.3999 48.5001C90.3999 48.5001 88.8999 49.9001 87.8999 49.9001" stroke="#13110C" stroke-miterlimit="10"/>
<path d="M104.4 47.6002C92.7997 49.8002 95.1997 45.1002 95.1997 45.1002C95.1997 45.1002 101.2 43.2002 104.8 46.2002C104.8 46.2002 105.6 47.3002 104.4 47.6002Z" stroke="#13110C" stroke-miterlimit="10"/>
<path d="M95 48.2002C95 48.2002 97.1 50.5001 100 51.4001" stroke="#13110C" stroke-miterlimit="10"/>
<path d="M88.8 46.0001C88.8 46.2001 88.1999 46.3002 87.3999 46.3002C86.5999 46.3002 86 46.2001 86 46.0001C86 45.8001 86.5999 45.7002 87.3999 45.7002C88.1999 45.7002 88.8 45.8001 88.8 46.0001Z" stroke="#13110C" stroke-miterlimit="10"/>
<path d="M101.6 46.3002C101.6 46.6002 100.7 46.9001 99.6001 46.9001C98.5001 46.9001 97.6001 46.6002 97.6001 46.3002C97.6001 46.0002 98.5001 45.7002 99.6001 45.7002C100.7 45.7002 101.6 46.0002 101.6 46.3002Z" fill="#13110C" stroke="#13110C" stroke-miterlimit="10"/>
<path d="M88.3999 63.8002H97.3999" stroke="#13110C" stroke-miterlimit="10"/>
<path d="M91.2002 63.3002H95.0002" stroke="#13110C" stroke-miterlimit="10"/>
<path d="M91.2002 64.3002H95.0002" stroke="#13110C" stroke-miterlimit="10"/>
<path d="M91.7998 66.3002L95.1997 69.1002" stroke="#13110C" stroke-miterlimit="10"/>
<path d="M91.2002 69.1002L95.2002 66.3002" stroke="#13110C" stroke-miterlimit="10"/>
<path d="M97.6001 73.3002C97.6001 73.3002 110.1 73.9002 115.6 70.2002C115.6 70.2002 112.4 64.1002 111.6 61.6002C111.6 61.6002 105.9 70.7002 97.6001 73.3002Z" fill="#AFA3C7" stroke="#13120D" stroke-miterlimit="10"/>
<path d="M102.7 71.9001C102.7 71.9001 109.7 71.5001 113.5 69.9001" stroke="#13110C" stroke-width="0.5" stroke-miterlimit="10"/>
<path d="M105.1 70.2002C105.1 70.2002 111.2 69.6001 112.6 68.4001" stroke="#13110C" stroke-width="0.5" stroke-miterlimit="10"/>
<path d="M108.1 67.7002C108.1 67.7002 111.6 67.4002 112.6 66.7002" stroke="#13110C" stroke-width="0.5" stroke-miterlimit="10"/>
<path d="M109.8 65.4001C109.8 65.4001 111.3 65.5001 111.9 64.9001" stroke="#13110C" stroke-width="0.5" stroke-miterlimit="10"/>
<path d="M89.5 127.8H149.3" stroke="#13110C" stroke-miterlimit="10"/>
<path d="M116.8 72.1002L115.6 70.2002C110.1 74.2002 95.6001 74.0001 95.6001 74.0001C86.8001 73.7001 79 70.6002 79 70.6002L77.8999 72.1002C77.8999 72.1002 89.0999 76.3001 97.3999 75.9001C97.3999 75.9001 111.3 75.9002 116.8 72.1002Z" fill="#FFEA24" stroke="#13110C" stroke-miterlimit="10"/>
<path d="M69.2998 83.3002L71.3997 81.2002C71.3997 81.2002 84.2999 87.6001 98.0999 87.0001C98.0999 87.0001 116.6 86.2002 124.1 80.6002L125.5 82.4001C125.5 82.4001 116.5 88.7002 98.3997 89.2002C98.2997 89.1002 85.5998 89.6002 69.2998 83.3002Z" fill="#FFEA24" stroke="#13110C" stroke-miterlimit="10"/>
<path d="M98.4002 86.0001C101.1 84.5001 100 77.3002 100 77.3002H98.3004C99.1004 83.1002 97.4002 84.6002 97.4002 84.6002C95.3002 83.9002 96.0003 77.3002 96.0003 77.3002H93.8004C93.8004 77.3002 93.5003 86.7001 97.0003 86.0001H98.4002Z" fill="#FFEA24"/>
<path d="M95 81.9001L97.1001 79.0001L99.8999 81.9001L97.3999 84.6002L95 81.9001Z" fill="#E31013"/>
<path d="M105.7 85.3002C108.2 83.4002 106.2 76.5001 106.2 76.5001L104.5 76.7002C106 82.3002 104.5 84.1002 104.5 84.1002C102.3 83.7002 102.2 77.0001 102.2 77.0001L100.1 77.3002C100.1 77.3002 101 86.7001 104.3 85.5001L105.7 85.3002Z" fill="#FFEA24"/>
<path d="M101.7 81.8002L103.5 78.6002L106.6 81.2002L104.5 84.1002L101.7 81.8002Z" fill="#E31013"/>
<path d="M91.3003 85.7002C94.2003 84.6002 94.2002 77.4001 94.2002 77.4001L92.5002 77.2002C92.4002 83.0002 90.5002 84.3002 90.5002 84.3002C88.5002 83.3002 90.2002 76.8002 90.2002 76.8002L88.1003 76.5001C88.1003 76.5001 86.4002 85.8001 90.0002 85.5001L91.3003 85.7002Z" fill="#FFEA24"/>
<path d="M88.5 81.2002L91 78.6002L93.3 81.9001L90.5 84.2002L88.5 81.2002Z" fill="#E31013"/>
<path d="M113.1 84.0001C115.4 81.8001 112.7 75.2002 112.7 75.2002L111 75.6002C113.1 81.0002 111.8 83.0001 111.8 83.0001C109.5 82.9001 108.7 76.2002 108.7 76.2002L106.5 76.7002C106.5 76.7002 108.4 86.0001 111.7 84.4001L113.1 84.0001Z" fill="#FFEA24"/>
<path d="M108.7 80.9001L110.1 77.5001L113.6 79.7002L111.8 82.9001L108.7 80.9001Z" fill="#E31013"/>
<path d="M84.3 84.5001C87.5 83.7001 88.1999 76.5001 88.1999 76.5001L86.3998 76.0001C85.7998 81.8001 83.6 82.9001 83.6 82.9001C81.5 81.7001 83.9999 75.4001 83.9999 75.4001L81.6999 74.8002C81.6999 74.8002 78.9998 83.8002 82.8998 84.1002L84.3 84.5001Z" fill="#FFEA24"/>
<path d="M81.7002 79.6002L84.7002 77.3002L86.9001 81.0001L83.6003 82.9001L81.7002 79.6002Z" fill="#E31013"/>
<path d="M36.2 118.7C30.2 118.1 32.5001 108.1 32.5001 108.1C32.5001 102.5 38.0001 103.3 38.0001 103.3C40.2001 103.1 39.8001 104.7 39.8001 104.7C39.8001 104.7 46.3001 105 46.3001 107.5L36.2 118.7Z" fill="#FED68A" stroke="#13110C" stroke-miterlimit="10"/>
<path d="M39.6 105.4C39.6 105.4 35.6998 105.2 35.8998 107.3C35.8998 107.3 35.2 109.2 39.3 109.2C39.3 109.2 42.4999 108.4 41.9999 112.3" stroke="#13110C" stroke-miterlimit="10"/>
<path d="M38.1001 109.8C38.1001 109.8 33.3 109.6 32.5 108.3" stroke="#13110C" stroke-miterlimit="10"/>
<path d="M38.5 112.7C38.5 112.7 32.6001 112.2 32.1001 111.9" stroke="#13110C" stroke-miterlimit="10"/>
<path d="M36.7 115.7C36.7 115.7 32.9 115.6 32.5 115.1" stroke="#13110C" stroke-miterlimit="10"/>
<path d="M40.4001 104C38.2001 103 35.3003 101 35.3003 101C30.1003 96.5001 32.5002 90.1002 32.5002 90.1002C32.5002 90.1002 40.2001 97.5001 40.4001 101.9V104Z" fill="#BBB32E" stroke="#13110C" stroke-miterlimit="10"/>
<path d="M33.1001 93.6002C33.1001 93.6002 37.3999 100.2 38.8999 101" stroke="#13110C" stroke-miterlimit="10"/>
<path d="M57 100.6C53.2 106.8 42.6001 105 42.6001 105C42.6001 105 46 97.8002 57 99.8002V100.6Z" fill="#BBB32E" stroke="#13110C" stroke-miterlimit="10"/>
<path d="M44.2998 104C44.2998 104 53.2997 102.5 54.3997 101.1" stroke="#13110C" stroke-miterlimit="10"/>
<path d="M42.5 97.3002L44.3 98.5001L42 104.9L40.3999 104.7L42.5 97.3002Z" fill="#BBB32E" stroke="#13110C" stroke-miterlimit="10"/>
<path d="M45.3999 87.9001L49.1001 91.6002L45.8 95.2002L42.3999 91.5001L45.3999 87.9001Z" fill="#E31013"/>
<path d="M29.7998 124.8V127.8H31.8997H89.4998" stroke="#13110C" stroke-miterlimit="10"/>
<path d="M53.4001 104.5L31.9001 127.9H29.7002V125.2L49.3003 105.1C49.4003 105 52.5001 104.7 53.4001 104.5Z" fill="#E31013" stroke="#13110C" stroke-miterlimit="10"/>
<path d="M54.2 99.2002L56.3 96.8002L68.7 109.1L51.7 127.8H47.1001L64.7 109.1L54.2 99.2002Z" fill="#E31013" stroke="#13110C" stroke-miterlimit="10"/>
<path d="M60.0002 108.3C60.3002 106.2 58.6003 106.8 58.6003 106.8C58.8003 105.3 57.7001 105.2 57.7001 105.2C56.2001 104.7 56.3002 109.8 56.3002 109.8C56.3002 109.8 59.9002 109.1 60.0002 108.3Z" fill="white"/>
<path d="M54.5 106.7C52.8 106.3 53.2 107.7 53.2 107.7C52 107.4 51.8001 108.3 51.8001 108.3C51.3001 109.4 55.3999 109.8 55.3999 109.8C55.3999 109.8 55.1 106.8 54.5 106.7Z" fill="white"/>
<path d="M51.8999 112.2C51.3999 113.8 52.8 113.6 52.8 113.6C52.4 114.8 53.3 115 53.3 115C54.4 115.6 55 111.5 55 111.5C55 111.5 52.0999 111.6 51.8999 112.2Z" fill="white"/>
<path d="M57.3 113.9C59 114.1 58.5 112.7 58.5 112.7C59.7 112.9 59.8 112 59.8 112C60.2 110.8 56.1001 110.9 56.1001 110.9C56.1001 110.9 56.6 113.8 57.3 113.9Z" fill="white"/>
<path d="M50.1999 119.3C50.4999 117.2 48.8 117.8 48.8 117.8C49 116.3 47.8998 116.2 47.8998 116.2C46.3998 115.7 46.4999 120.8 46.4999 120.8C46.4999 120.8 50.0999 120 50.1999 119.3Z" fill="white"/>
<path d="M44.7998 117.6C43.0998 117.2 43.4998 118.6 43.4998 118.6C42.2998 118.3 42.0999 119.2 42.0999 119.2C41.5999 120.3 45.6997 120.7 45.6997 120.7C45.6997 120.7 45.3998 117.8 44.7998 117.6Z" fill="white"/>
<path d="M42.1997 123.1C41.6997 124.7 43.0998 124.5 43.0998 124.5C42.6998 125.7 43.5998 125.9 43.5998 125.9C44.6998 126.5 45.2998 122.4 45.2998 122.4C45.2998 122.4 42.3997 122.5 42.1997 123.1Z" fill="white"/>
<path d="M47.4998 124.8C49.1998 125 48.6997 123.6 48.6997 123.6C49.8997 123.8 49.9998 122.9 49.9998 122.9C50.3998 121.7 46.2998 121.8 46.2998 121.8C46.2998 121.8 46.8998 124.8 47.4998 124.8Z" fill="white"/>
<path d="M77.7 127.8C77.2 115 68.8 109 68.8 109L67.5 110.4C67.5 110.4 76.2 119.8 75.5 127.7H77.7V127.8Z" fill="#FFEA24" stroke="#13110C" stroke-miterlimit="10"/>
<path d="M66.9001 124.6C67.4001 124.4 71.5002 122.7 71.5002 122.7C75.1002 120.7 71.9001 117.5 71.9001 117.5C69.6001 115 64.2002 120.7 64.2002 120.7L64.9001 121.8C64.9001 121.8 69.1003 118.6 69.8003 119.4C69.8003 119.4 71.3002 120.6 66.0002 123.2L66.9001 124.6Z" fill="#FFEA24"/>
<path d="M54.7002 124.6C54.7002 124.6 55.8002 125.8 56.0002 127.8H58.6003C58.6003 127.8 57.5002 124.3 56.0002 123.1L54.7002 124.6Z" fill="#FFEA24" stroke="#13110C" stroke-miterlimit="10"/>
<path d="M56 123.1L59.6001 119.1C59.6001 119.1 63.2 123.2 63.5 127.8H58.5C58.6 127.8 58 125.8 56 123.1Z" fill="#211C4B" stroke="#13110C" stroke-miterlimit="10"/>
<path d="M57.7998 124.2L59.1997 126.9L61.5999 124.3L57.9998 124.2" fill="white"/>
<path d="M68.3999 127.4C73.1999 127 72.8999 125.9 72.8999 125.9C72.6999 124.6 67.3999 125.9 67.3999 125.9V124.8C67.3999 124.8 72.4 122.3 73.8 124.1C73.8 124.1 75.3 126.3 74.2 127.4H68.3999Z" fill="#FFEA24"/>
<path d="M66.6003 113.9C66.7003 115.2 62.7002 118.4 62.7002 118.4L64.0002 119.9C64.0002 119.9 70.1002 116.2 69.2002 113.2C69.2002 113.2 67.7002 110.3 66.0002 112.6C65.9002 112.7 66.9003 113.2 66.6003 113.9Z" fill="#FFEA24"/>
<path d="M54.5002 125.1C54.5002 125.1 55.7002 126.5 55.7002 127.8H53.4001C53.4001 127.8 53.5002 127.1 53.2002 126.3L54.5002 125.1Z" fill="white" stroke="#13110C" stroke-miterlimit="10"/>
<path d="M149.2 104.3C149.2 104.3 147.1 102.7 141.6 100C136.1 97.3001 124.7 96.6002 119.6 98.7002C114.4 100.7 108 105.3 104.2 111.8C100.4 118.3 101 127.8 101 127.8H103.5C103.5 127.8 102.5 119.9 105.1 114.5C107.7 109.1 113.4 103.8 119.4 101.1C119.4 101.1 132.1 96.3001 147.8 105.4L149.2 106V104.3Z" fill="#FFEA24" stroke="#13110C" stroke-miterlimit="10"/>
<path d="M134.5 120.7C130.8 118 126.8 119.9 126.8 119.9C121.9 121.7 122.9 127.8 122.9 127.8H120.8C120.8 127.8 120.1 121.1 123.4 119.1C123.4 119.1 127.9 114.4 136.1 119.1L134.5 120.7Z" fill="#FFEA24" stroke="#13110C" stroke-miterlimit="10"/>
<path d="M147.8 105.5L149.2 106.1L149.3 109.1L132.1 127.8H127.8L147.8 105.5Z" fill="#E31013" stroke="#13110C" stroke-miterlimit="10"/>
<path d="M142.7 119.3C141 118.9 141.4 120.3 141.4 120.3C140.2 120 140 120.9 140 120.9C139.5 122 143.6 122.4 143.6 122.4C143.6 122.4 143.3 119.5 142.7 119.3Z" fill="white"/>
<path d="M140.3 124.6C140 126.3 141.4 125.9 141.4 125.9C141.1 127.1 142 127.3 142 127.3C143.2 127.8 143.3 123.6 143.3 123.6C143.3 123.6 140.4 124 140.3 124.6Z" fill="white"/>
<path d="M144.8 126.3C146.3 127.1 146.3 125.6 146.3 125.6C147.4 126.2 147.8 125.4 147.8 125.4C148.6 124.4 144.7 123.1 144.7 123.1C144.7 123.1 144.2 126 144.8 126.3Z" fill="white"/>
<path d="M122.9 127.8C122.9 127.8 122.9 115.7 134.3 120.5L133 121.9C133 121.9 125.8 118 125 127.8H122.9Z" fill="white" stroke="#13110C" stroke-miterlimit="10"/>
<path d="M133 122C125.2 118.7 125 127.6 125 127.6L127.7 127.9L133 122Z" fill="#13110C" stroke="#13110C" stroke-miterlimit="10"/>
<path d="M120.8 127.8C120.8 127.8 120.1 118.8 126.1 117.6C126.1 117.6 129.6 115.8 135.8 119L138.6 115.8C138.6 115.8 133.5 111.6 125.5 113.2C125.5 113.2 119.2 114.6 117.2 122.4C117.2 122.4 116.6 126.2 117.2 127.8H120.8Z" fill="#211C4B" stroke="#13110C" stroke-miterlimit="10"/>
<path d="M133.8 117.1L136.3 115.6L135.8 118.2L133.8 117.1Z" fill="white"/>
<path d="M129.7 116.1C129.7 116.1 132.2 116.3 132.6 116.6C133 116.9 131.9 113.8 131.9 113.8L129.7 116.1Z" fill="white"/>
<path d="M125.9 116.4L128.9 116.2L127.7 113.5L125.9 116.4Z" fill="white"/>
<path d="M122.1 115.6L125.1 116.9L122.4 118.8L122.1 115.6Z" fill="white"/>
<path d="M118.9 119.5L121.6 119.8L120.1 122.7L118.9 119.5Z" fill="white"/>
<path d="M117.5 125.4L119.8 127.1V124.1L117.5 125.4Z" fill="white"/>
<path d="M106.1 124C106 122.8 111.7 123.5 111.7 123.5L111.9 121.9C103.8 119.4 103.8 124.2 103.8 124.2C102.9 128.2 111.9 127.1 111.9 127.1V125.5C111.9 125.5 105.9 126 105.8 124.4L106.1 124Z" fill="#FFEA24"/>
<path d="M108.8 119.2C105.7 117.7 107.7 116.6 107.7 116.6C109.4 116.1 112.6 119.2 112.6 119.2L113.7 118.2C110.1 114.2 106.3 114.3 106.3 114.3C106.3 114.3 104 114.9 104.5 117.7C104.5 117.7 105 120.7 111.7 121.8L112.1 120.5C112.2 120.6 109.1 119.4 108.8 119.2Z" fill="#FFEA24"/>
<path d="M111.6 114.5C108.9 112.3 111.2 111.7 111.2 111.7C113 111.6 115.3 115.4 115.3 115.4L116.6 114.7C114 110 110.4 109.2 110.4 109.2C110.4 109.2 108.1 109.3 107.8 112.1C107.8 112.1 107.6 115.1 113.8 117.8L114.5 116.6C114.6 116.6 111.9 114.7 111.6 114.5Z" fill="#FFEA24"/>
<path d="M115.1 110.5C112.8 107.9 115.1 107.6 115.1 107.6C116.8 107.8 118.6 111.9 118.6 111.9L120 111.4C118.2 106.4 114.7 105 114.7 105C114.7 105 112.4 104.7 111.7 107.5C111.7 107.5 111 110.4 116.8 114L117.7 112.9C117.7 113 115.3 110.7 115.1 110.5Z" fill="#FFEA24"/>
<path d="M119.5 107.4C117.9 104.3 120.2 104.6 120.2 104.6C121.8 105.2 122.5 109.7 122.5 109.7L124 109.6C123.5 104.3 120.5 102.1 120.5 102.1C120.5 102.1 118.3 101.2 117 103.7C117 103.7 115.6 106.4 120.3 111.3L121.4 110.5C121.4 110.4 119.6 107.6 119.5 107.4Z" fill="#FFEA24"/>
<path d="M124.8 105.6C124 102.2 126.2 103.1 126.2 103.1C127.6 104.1 127.2 108.6 127.2 108.6L128.7 108.9C129.5 103.6 127.1 100.7 127.1 100.7C127.1 100.7 125.2 99.3002 123.3 101.4C123.3 101.4 121.3 103.7 124.6 109.5L125.9 109C125.9 109 124.9 105.9 124.8 105.6Z" fill="#FFEA24"/>
<path d="M130.2 105.2C130 101.9 131.9 103 131.9 103C133.1 104.2 132 108.4 132 108.4L133.3 108.9C134.9 104 133 100.9 133 100.9C133 100.9 131.4 99.3001 129.3 101C129.3 101 127.1 102.8 129.3 108.9L130.6 108.6C130.7 108.6 130.3 105.5 130.2 105.2Z" fill="#FFEA24"/>
<path d="M135.2 106C136.7 103.1 137.7 105 137.7 105C138.1 106.6 135.1 109.6 135.1 109.6L136 110.7C139.8 107.3 139.8 103.8 139.8 103.8C139.8 103.8 139.2 101.7 136.6 102C136.6 102 133.8 102.4 132.6 108.7L133.8 109.1C133.9 109.1 135.1 106.2 135.2 106Z" fill="#FFEA24"/>
<path d="M140.4 107.5C142.2 104.8 143 106.8 143 106.8C143.2 108.4 139.9 111.1 139.9 111.1L140.7 112.3C144.9 109.4 145.3 105.9 145.3 105.9C145.3 105.9 145 103.7 142.3 103.7C142.3 103.7 139.5 103.8 137.6 109.9L138.8 110.5C138.8 110.5 140.3 107.7 140.4 107.5Z" fill="#FFEA24"/>
<path d="M75.2002 117.3H102C102 117.3 101.5 119.4 101.5 119.6H76.1003L75.2002 117.3Z" fill="#13110C" stroke="#13110C" stroke-miterlimit="10"/>
<path d="M83.8999 126.3L91.2 134.1L95.8 129.6L87.8 122.1L83.8999 126.3Z" fill="#13110C" stroke="#13110C" stroke-miterlimit="10"/>
<path d="M86.2998 126.3L91.2998 131L92.5999 129.7L87.8997 125.2H87.5999L86.2998 126.3Z" fill="white" stroke="white" stroke-miterlimit="10"/>
<path d="M68.5 108.8L76.1001 99.1002V119.6C76.1001 119.6 72.8 111.6 68.5 108.8Z" fill="#E31013" stroke="#13110C" stroke-miterlimit="10"/>
<path d="M71.7998 106.2C71.7998 106.2 74.2998 108.4 73.7998 113.3" stroke="white" stroke-miterlimit="10"/>
<path d="M56.5999 97.0001L56.2998 96.7002L63.8997 87.8002L67.2998 85.1002C67.2998 85.1002 72.7999 90.1001 70.5999 98.0001C70.5999 98.0001 68.5999 103.2 65.5999 105.8L56.5999 97.0001Z" fill="#211C4B" stroke="#13110C" stroke-miterlimit="10"/>
<path d="M62 91.5001C62 91.5001 65.2 95.5002 61.5 100.2" stroke="white" stroke-miterlimit="10"/>
<path d="M66.4001 87.0001C66.4001 87.0001 73.4002 93.6001 65.2002 103.9" stroke="white" stroke-miterlimit="10"/>
<path d="M77 89.5001C77 90.5001 76.2 91.2002 75.3 91.2002C74.3 91.2002 73.6001 90.4001 73.6001 89.5001C73.6001 88.5001 74.4 87.8002 75.3 87.8002C76.2 87.8002 77 88.6001 77 89.5001Z" fill="#E31013" stroke="#13110C" stroke-miterlimit="10"/>
<path d="M80.1004 117.3C79.7004 107.2 80.8003 88.8002 80.8003 88.8002H78.3003C78.3003 88.8002 77.1004 107.5 77.6004 117.3H80.1004Z" fill="#FFEA24" stroke="#13110C" stroke-miterlimit="10"/>
<path d="M97.3003 117.3C102.7 97.8002 109.6 90.5001 109.6 90.5001H106.8C106.8 90.5001 98.4002 102.3 95.7002 117.3H97.3003Z" fill="#FFEA24" stroke="#13110C" stroke-miterlimit="10"/>
<path d="M88.8003 117.3C88.3003 107.3 91.3003 91.4001 91.3003 91.4001L88.8003 91.2002C88.8003 91.2002 86.1001 107.7 86.9001 117.2H88.8003V117.3Z" fill="white" stroke="#13110C" stroke-miterlimit="10"/>
<path d="M81.6997 91.5001L84.7998 96.8002L80.7998 101.1L84.7998 107.9L81.1997 112.3L84.7998 116.4" stroke="#FFEA24" stroke-miterlimit="10"/>
<path d="M82.7998 90.4001L86.2998 95.9001" stroke="#FFEA24" stroke-miterlimit="10"/>
<path d="M86.2998 98.0001L82.7998 101.3L85.5999 106.6" stroke="#FFEA24" stroke-miterlimit="10"/>
<path d="M85.2998 109.5L82.7998 112.3L85.2998 114.9" stroke="#FFEA24" stroke-miterlimit="10"/>
<path d="M80.7998 114L82.7998 116.4" stroke="#FFEA24" stroke-miterlimit="10"/>
<path d="M80.7998 110.5L83.1997 107.5L80.7998 103.9" stroke="#FFEA24" stroke-miterlimit="10"/>
<path d="M81.2998 98.0001L82.7998 96.4001L81.2998 93.2002" stroke="#FFEA24" stroke-miterlimit="10"/>
<path d="M86.9001 92.2002C87.2867 92.2002 87.6003 91.8867 87.6003 91.5001C87.6003 91.1135 87.2867 90.8002 86.9001 90.8002C86.5135 90.8002 86.2002 91.1135 86.2002 91.5001C86.2002 91.8867 86.5135 92.2002 86.9001 92.2002Z" fill="#FFEA29"/>
<path d="M85.4998 103.1C85.8864 103.1 86.1997 102.787 86.1997 102.4C86.1997 102.014 85.8864 101.7 85.4998 101.7C85.1132 101.7 84.7998 102.014 84.7998 102.4C84.7998 102.787 85.1132 103.1 85.4998 103.1Z" fill="#FFEA29"/>
<path d="M85.3 113C85.6866 113 86 112.687 86 112.3C86 111.914 85.6866 111.6 85.3 111.6C84.9134 111.6 84.6001 111.914 84.6001 112.3C84.6001 112.687 84.9134 113 85.3 113Z" fill="#FFEA29"/>
<path d="M98.4998 91.5001L91.8997 97.5001L95.7998 103.2L89.7998 108.2L93.8997 113L89.7998 116.4" stroke="#FFEA29" stroke-miterlimit="10"/>
<path d="M102.7 91.5001L95 98.0001L98.2 103.9L92.6001 108.9L95.8 112.8L92.6001 116.4" stroke="#FFEA29" stroke-miterlimit="10"/>
<path d="M94.6003 92.6002C94.6003 93.0002 94.3001 93.3002 93.9001 93.3002C93.5001 93.3002 93.2002 93.0002 93.2002 92.6002C93.2002 92.2002 93.5001 91.9001 93.9001 91.9001C94.3001 91.9001 94.6003 92.3002 94.6003 92.6002Z" fill="#FFEA29"/>
<path d="M91.9998 103.2C92.3864 103.2 92.6997 102.887 92.6997 102.5C92.6997 102.114 92.3864 101.8 91.9998 101.8C91.6132 101.8 91.2998 102.114 91.2998 102.5C91.2998 102.887 91.6132 103.2 91.9998 103.2Z" fill="#FFEA29"/>
<path d="M90.4998 113.5C90.8864 113.5 91.1997 113.187 91.1997 112.8C91.1997 112.414 90.8864 112.1 90.4998 112.1C90.1132 112.1 89.7998 112.414 89.7998 112.8C89.7998 113.187 90.1132 113.5 90.4998 113.5Z" fill="#FFEA29"/>
<path d="M102 117.3H99.2002C99.2002 117.3 105.6 95.6002 115 88.8002L128.2 85.0001L132.2 88.3002C132.2 88.3002 119.7 96.1002 117.5 99.7002C117.5 99.7002 104 106 102 117.3Z" fill="#E31013" stroke="#13110C" stroke-miterlimit="10"/>
<path d="M126.6 88.4001C127.152 88.4001 127.6 87.9524 127.6 87.4001C127.6 86.8479 127.152 86.4001 126.6 86.4001C126.048 86.4001 125.6 86.8479 125.6 87.4001C125.6 87.9524 126.048 88.4001 126.6 88.4001Z" fill="white"/>
<path d="M116.3 98.5001C116.852 98.5001 117.3 98.0524 117.3 97.5001C117.3 96.9478 116.852 96.5001 116.3 96.5001C115.748 96.5001 115.3 96.9478 115.3 97.5001C115.3 98.0524 115.748 98.5001 116.3 98.5001Z" fill="white"/>
<path d="M108.6 102.4C109.152 102.4 109.6 101.952 109.6 101.4C109.6 100.848 109.152 100.4 108.6 100.4C108.048 100.4 107.6 100.848 107.6 101.4C107.6 101.952 108.048 102.4 108.6 102.4Z" fill="white"/>
<path d="M122.1 87.4001C122.1 87.4001 118.6 92.6002 115.3 93.3002C115.3 93.3002 110.9 96.8001 111.6 99.9001C111.6 99.9001 107.6 106.4 105 106.3" stroke="white" stroke-miterlimit="10"/>
<path d="M29.8999 135.3V153.7V159.7L48.6001 178.1L105.7 177.3L122.8 158.8L103 134.5L29.8999 135.3Z" fill="#13110C" stroke="#13110C" stroke-miterlimit="10"/>
<path d="M101.5 127.8C101.5 131.9 103 136 103 136H77.6001C77.6001 136 78.5 129.4 78.2 127.5L101.5 127.6" fill="#211C4B"/>
<path d="M101.5 127.8C101.5 131.9 103 136 103 136H77.6001C77.6001 136 78.5 129.4 78.2 127.5L101.5 127.6" stroke="#13110C" stroke-miterlimit="10"/>
<path d="M75.7 127.8C75.7 127.8 77.5 139.8 71.2 145.7C71.2 145.7 62.8 156.3 53.5 155.6C53.5 155.6 44.4 156 36.2 152.5L31.3999 150.1L51.3999 127.7H75.7V127.8Z" fill="#13110C" stroke="#13110C" stroke-miterlimit="10"/>
<path d="M47 127.8L29.8999 146.5V127.8H47Z" fill="#211C4B" stroke="#13110C" stroke-miterlimit="10"/>
<path d="M31.4997 135.4C31.5997 137.1 32.8996 136.4 32.8996 136.4C32.8996 137.6 33.7997 137.6 33.7997 137.6C34.9997 137.8 34.1996 133.7 34.1996 133.7C34.1996 133.7 31.3997 134.8 31.4997 135.4Z" fill="white"/>
<path d="M119.5 136.5C119.5 136.5 116.2 132.9 115.6 127.8H103.7C103.7 127.8 102.5 134.3 111.7 145.1L119.5 136.5Z" fill="#13110C" stroke="#13110C" stroke-miterlimit="10"/>
<path d="M147.2 127.8H132.1L114.5 146.5L122.7 154.3L147.2 127.8Z" fill="#211C4B" stroke="#13110C" stroke-miterlimit="10"/>
<path d="M139.9 158.3H127.4V170.1H139.9V158.3Z" fill="#211C4B"/>
<path d="M129.7 161C124.8 160.2 124.9 163.9 124.9 163.9C124.3 168.2 130.3 167.2 130.3 167.2C128.7 172.4 133 172.8 133 172.8C137.8 172.5 136.1 166.7 136.1 166.7C136.1 166.7 141.2 167.3 141.1 163.1C141.1 163.1 141 159.8 135.9 160.5C135.9 160.5 136.6 156.5 132.7 156.5C132.7 156.4 129.2 156.4 129.7 161Z" fill="#FFEA24" stroke="#13110C" stroke-miterlimit="10"/>
<path d="M55.2998 175C58.4998 177.8 62.3997 183.5 62.3997 183.5C69.3997 179.5 81.5999 179.7 81.5999 179.7C89.3999 179.2 101.2 183.5 101.2 183.5L107.8 174.4C107.8 174.4 84.1999 161.4 56.5999 174L55.2998 175Z" fill="#211C4B" stroke="#13110C" stroke-miterlimit="10"/>
<path d="M101.8 173.1C98.7 173.6 97.1001 180.6 97.1001 180.6L98.7 181.2C100.1 175.6 102.2 174.7 102.2 174.7C104 176.1 100.8 182 100.8 182L102.8 182.8C102.8 182.8 106.5 174.1 103 173.6L101.8 173.1Z" fill="#FFEA24"/>
<path d="M103.6 178.1L100.5 180.1L99 176.3L102.2 174.7L103.6 178.1Z" fill="#E31013"/>
<path d="M59.7 173.7C57.6 176 60.8001 182.5 60.8001 182.5L62.3999 182C59.8999 176.8 61 174.7 61 174.7C63.2 174.7 64.6001 181.3 64.6001 181.3L66.6001 180.6C66.6001 180.6 63.9999 171.5 60.8999 173.3L59.7 173.7Z" fill="#FFEA24"/>
<path d="M64.2 176.5L63.1001 179.9L59.6001 178L61.1001 174.7L64.2 176.5Z" fill="#E31013"/>
<path d="M67.5 194C76.4 181.3 83.8999 182 83.8999 182C89.8999 182.2 94 192.3 94 192.3C96.3 196.2 95.8999 214.9 95.8999 214.9V225H71.8C71.8 225 73.1 211 67.5 194Z" fill="#FED68A" stroke="#13110C" stroke-miterlimit="10"/>
<path d="M61.1001 225C56.3001 212.1 40.6001 190.2 40.6001 190.2C40.6001 190.2 37 192.2 30 192.6C30 192.6 42.9 212.4 31 225H61.1001Z" fill="#FFEA24" stroke="#13110C" stroke-miterlimit="10"/>
<path d="M57 225C57 225 55.3 216 50 213.4C50 213.4 55.7 222.6 53.5 225H57Z" fill="#211C4B"/>
<path d="M42.9999 204.5C44.9999 204.6 47.7999 209.5 47.7999 209.5C47.7999 209.5 47.2999 201.7 39.2999 195.2C39.1999 195.2 43.7999 203 42.9999 204.5Z" fill="#211C4B"/>
<path d="M52.3997 224.1C52.3997 224.1 51.9998 218 48.2998 215.4" stroke="#211C4B" stroke-miterlimit="10"/>
<path d="M46.7 212.4C46.7 212.4 44.7 206.3 41 205.4C41 205.4 40.6999 198.4 36.8999 196" stroke="#211C4B" stroke-miterlimit="10"/>
<path d="M47.7002 211.8C47.7002 211.1 48.2001 210.6 48.9001 210.6C49.6001 210.6 50.1003 211.1 50.1003 211.8C50.1003 212.5 49.6001 213 48.9001 213C48.2001 213 47.7002 212.4 47.7002 211.8Z" fill="#211C4B" stroke="#211C4B" stroke-miterlimit="10"/>
<path d="M38.1001 194.7C38.7628 194.7 39.3 194.163 39.3 193.5C39.3 192.837 38.7628 192.3 38.1001 192.3C37.4374 192.3 36.8999 192.837 36.8999 193.5C36.8999 194.163 37.4374 194.7 38.1001 194.7Z" fill="#211C4B" stroke="#211C4B" stroke-miterlimit="10"/>
<path d="M42.5 216.8C44.6 215.5 46.5001 214.6 46.6001 214.9C46.8001 215.2 45.1 216.4 43 217.7C40.9 219 39 219.9 38.9 219.6C38.8 219.4 40.4 218.2 42.5 216.8Z" fill="#211C4B" stroke="#211C4B" stroke-miterlimit="10"/>
<path d="M47.1996 219.8C46.8996 217.7 46.8996 216.1 47.1996 216C47.4996 216 47.9996 217.6 48.1996 219.6C48.4996 221.7 48.4996 223.3 48.1996 223.4C47.8996 223.5 47.4996 221.8 47.1996 219.8Z" fill="#211C4B" stroke="#211C4B" stroke-miterlimit="10"/>
<path d="M42.4997 212.2C40.8997 210.9 39.6998 209.7 39.7998 209.5C39.9998 209.3 41.4998 210.1 43.0998 211.4C44.6998 212.7 45.8998 213.9 45.7998 214.1C45.5998 214.3 44.0997 213.5 42.4997 212.2Z" fill="#211C4B" stroke="#211C4B" stroke-miterlimit="10"/>
<path d="M34.2998 196.8C35.1998 196.2 36.0998 195.9 36.2998 196.2C36.4998 196.4 35.7996 197.1 34.8996 197.7C33.9996 198.3 33.0996 198.6 32.8996 198.3C32.6996 198.1 33.2998 197.4 34.2998 196.8Z" fill="#211C4B" stroke="#211C4B" stroke-miterlimit="10"/>
<path d="M36.8002 201.1C36.5002 199 36.5002 197.4 36.8002 197.3C37.1002 197.3 37.6002 198.9 37.8002 200.9C38.1002 203 38.1002 204.6 37.8002 204.7C37.5002 204.8 37.1002 203.2 36.8002 201.1Z" fill="#211C4B" stroke="#211C4B" stroke-miterlimit="10"/>
<path d="M33.8003 194.8C33.1003 194.3 32.7001 193.7 32.9001 193.4C33.1001 193.2 33.8002 193.4 34.5002 193.9C35.2002 194.4 35.6001 195 35.4001 195.3C35.2001 195.6 34.5003 195.4 33.8003 194.8Z" fill="#211C4B" stroke="#211C4B" stroke-miterlimit="10"/>
<path d="M61.1001 225H64.3999C64.3999 225 53 197.1 43.5 188.3C43.5 188.3 41.5001 189.8 40.6001 190.2C40.6001 190.2 56.2001 212.1 61.1001 225Z" fill="#E31013" stroke="#13110C" stroke-miterlimit="10"/>
<path d="M68.3999 225H64.3999C64.3999 225 52.3999 190.6 29.8999 173.7V161.6C29.8999 161.7 45.4999 171 68.3999 225Z" fill="#13110C" stroke="#13110C" stroke-miterlimit="10"/>
<path d="M71.0999 225H68.3997C68.3997 225 50.9997 180.9 29.8997 161.7L29.7998 153.7C29.8998 153.7 52.5999 174.6 71.0999 225Z" fill="#E31013" stroke="#13110C" stroke-miterlimit="10"/>
<path d="M95.8999 208.1L113 182.9C116.8 178.3 111.7 170.6 111.7 170.6L115.3 167.7C122.5 175.7 117.7 183.8 117.7 183.8C117.1 185.9 105.9 200.4 105.9 200.4C97.0999 211.8 97.7 225 97.7 225H96V208.1H95.8999Z" fill="#E31013" stroke="#13110C" stroke-miterlimit="10"/>
<path d="M95.8999 199.4V208.1L112 184.4C112 184.4 116.2 180.1 113.7 174.7L111.7 170.6L108.1 174.1C108.1 174.1 111.2 179.9 108 183.1L95.8999 199.4Z" fill="#13110C" stroke="#13110C" stroke-miterlimit="10"/>
<path d="M95.8999 198.9C95.8999 198.9 94.9999 193.8 94.3999 192.9L108.1 174.1C108.1 174.1 110.5 179.3 109.1 181.5L95.8999 198.9Z" fill="#E31013" stroke="#13110C" stroke-miterlimit="10"/>
<path d="M95.9001 225V214.8C95.9001 214.8 87.2002 217.8 85.7002 224.9H95.9001V225Z" fill="#AFA3C7" stroke="#13120D" stroke-width="0.5" stroke-miterlimit="10"/>
<path d="M38.1001 163C47.9001 165.4 56 175.8 56 175.8C74.2 192.6 71.8999 225 71.8999 225H71.2C71.1 225 55.6001 183.9 38.1001 163Z" fill="#AFA3C7" stroke="#13120D" stroke-miterlimit="10"/>
<path d="M71.7998 225C71.7998 225 72.8997 218.7 71.8997 216C71.8997 216 85.0999 218.2 85.5999 225H71.7998Z" fill="#AFA3C7" stroke="#13120D" stroke-width="0.5" stroke-miterlimit="10"/>
<path d="M95.0999 218C95.0999 218 90.5998 220.5 89.2998 223.5" stroke="#13110C" stroke-width="0.5" stroke-miterlimit="10"/>
<path d="M95.0999 219.9C95.0999 219.9 92.3998 221.1 90.7998 223.4" stroke="#13110C" stroke-width="0.5" stroke-miterlimit="10"/>
<path d="M95.1001 222.2C95.1001 222.2 93.5 222.5 93 223.5" stroke="#13110C" stroke-width="0.5" stroke-miterlimit="10"/>
<path d="M94.3999 217.3C94.3999 217.3 88.3999 219.9 87.8999 223.5" stroke="#13110C" stroke-width="0.5" stroke-miterlimit="10"/>
<path d="M83.8999 224.1C83.8999 224.1 79.4999 218.6 73.3999 218" stroke="#13110C" stroke-width="0.5" stroke-miterlimit="10"/>
<path d="M81.6001 224.1C81.6001 224.1 77.6999 219.9 73.3999 219.9" stroke="#13110C" stroke-width="0.5" stroke-miterlimit="10"/>
<path d="M78.7 224.1C78.7 224.1 76.3999 221.6 73.3999 221.7" stroke="#13110C" stroke-width="0.5" stroke-miterlimit="10"/>
<path d="M75.2 224.1C75.2 224.1 74.5999 222.8 73.3999 222.9" stroke="#13110C" stroke-width="0.5" stroke-miterlimit="10"/>
<path d="M70.2998 208.6C70.2998 208.6 67.8998 205 62.7998 202.9" stroke="#13110C" stroke-width="0.5" stroke-miterlimit="10"/>
<path d="M69.3999 204.7C69.3999 204.7 65.9999 201.4 61.8999 200.3" stroke="#13110C" stroke-width="0.5" stroke-miterlimit="10"/>
<path d="M68.3997 201C68.3997 201 64.9998 198.4 60.2998 197.2" stroke="#13110C" stroke-width="0.5" stroke-miterlimit="10"/>
<path d="M67.2 197.3C67.2 197.3 62.1001 194.2 59.1001 194" stroke="#13110C" stroke-width="0.5" stroke-miterlimit="10"/>
<path d="M65.7 193.5C65.7 193.5 61.0001 191 57.1001 190.2" stroke="#13110C" stroke-width="0.5" stroke-miterlimit="10"/>
<path d="M64.3999 190.2C64.3999 190.2 60.6 187.9 55 186.5" stroke="#13110C" stroke-width="0.5" stroke-miterlimit="10"/>
<path d="M62.8 186.5C62.8 186.5 56.5 182.8 52.5 181.9" stroke="#13110C" stroke-width="0.5" stroke-miterlimit="10"/>
<path d="M60.3 182.6C60.3 182.6 53.8 178.1 50 177.8" stroke="#13110C" stroke-width="0.5" stroke-miterlimit="10"/>
<path d="M55.0002 176.6C55.0002 176.6 50.4002 174.3 47.7002 174" stroke="#13110C" stroke-width="0.5" stroke-miterlimit="10"/>
<path d="M51.3999 172.3C51.3999 172.3 45.9001 169.3 44.6001 169.6" stroke="#13110C" stroke-width="0.5" stroke-miterlimit="10"/>
<path d="M47 168.6C47 168.6 43.4999 166.5 42.3999 166.8" stroke="#13110C" stroke-width="0.5" stroke-miterlimit="10"/>
<path d="M70.3 211.8C70.3 211.8 65.5999 205.8 64.3999 205.7" stroke="#13110C" stroke-width="0.5" stroke-miterlimit="10"/>
<path d="M70.3 214.1C70.3 214.1 67.2001 211.3 66.6001 211" stroke="#13110C" stroke-width="0.5" stroke-miterlimit="10"/>
<path d="M71.1001 217.3C71.1001 217.3 68.8999 214.9 68.3999 214.9" stroke="#13110C" stroke-width="0.5" stroke-miterlimit="10"/>
<path d="M71.1001 219.2L69.3999 217.3" stroke="#13110C" stroke-width="0.5" stroke-miterlimit="10"/>
<path d="M95.1003 214.1C95.1003 214.1 90.7001 216.2 87.9001 213.4C87.9001 213.4 87.2003 207.1 89.6003 201.1C89.6003 201.1 92.5002 197.3 87.2002 196.9" stroke="#13110C" stroke-miterlimit="10"/>
<path d="M87.3 196.8C87.3 196.8 87.8999 199.1 85.6999 197.8C85.6999 197.8 81.3 198.2 84 201.4" stroke="#13110C" stroke-miterlimit="10"/>
<path d="M85.1997 214.1C85.1997 214.1 78.8998 215.8 74.2998 213.4" stroke="#13110C" stroke-miterlimit="10"/>
<path d="M89.7 208.1C95.7 207.8 95.1002 210.6 95.1002 210.6C95.1002 210.6 92.0001 212.4 88.8001 210.6C88.7001 210.6 88.9 208.1 89.7 208.1Z" stroke="#13110C" stroke-miterlimit="10"/>
<path d="M88.7002 207.1C88.7002 207.1 90.2002 205.7 91.2002 205.7" stroke="#13110C" stroke-miterlimit="10"/>
<path d="M74.7 208C86.3 205.8 83.9 210.5 83.9 210.5C83.9 210.5 77.9001 212.4 74.3001 209.4C74.3001 209.4 73.6 208.3 74.7 208Z" stroke="#13110C" stroke-miterlimit="10"/>
<path d="M84.1001 207.4C84.1001 207.4 82.0001 205.1 79.1001 204.2" stroke="#13110C" stroke-miterlimit="10"/>
<path d="M90.2998 209.6C90.2998 209.4 90.8997 209.3 91.6997 209.3C92.4997 209.3 93.0999 209.4 93.0999 209.6C93.0999 209.8 92.4997 209.9 91.6997 209.9C90.9997 209.9 90.2998 209.8 90.2998 209.6Z" stroke="#13110C" stroke-miterlimit="10"/>
<path d="M77.5 209.3C77.5 209 78.4 208.7 79.5 208.7C80.6 208.7 81.5 209 81.5 209.3C81.5 209.6 80.6 209.9 79.5 209.9C78.4 209.9 77.5 209.6 77.5 209.3Z" fill="#13110C" stroke="#13110C" stroke-miterlimit="10"/>
<path d="M90.8003 191.8H81.7002" stroke="#13110C" stroke-miterlimit="10"/>
<path d="M87.8999 192.3H84.1001" stroke="#13110C" stroke-miterlimit="10"/>
<path d="M87.8999 191.3H84.1001" stroke="#13110C" stroke-miterlimit="10"/>
<path d="M87.3999 189.3L83.8999 186.5" stroke="#13110C" stroke-miterlimit="10"/>
<path d="M87.8999 186.5L83.8999 189.3" stroke="#13110C" stroke-miterlimit="10"/>
<path d="M81.6001 182.3C81.6001 182.3 69.1001 181.7 63.6001 185.4C63.6001 185.4 66.8001 191.5 67.6001 194C67.5001 194 73.3001 184.9 81.6001 182.3Z" fill="#AFA3C7" stroke="#13120D" stroke-miterlimit="10"/>
<path d="M76.3999 183.7C76.3999 183.7 69.4001 184.1 65.6001 185.7" stroke="#13110C" stroke-width="0.5" stroke-miterlimit="10"/>
<path d="M74.1001 185.4C74.1001 185.4 68.0001 186 66.6001 187.2" stroke="#13110C" stroke-width="0.5" stroke-miterlimit="10"/>
<path d="M71 187.9C71 187.9 67.5 188.2 66.5 188.9" stroke="#13110C" stroke-width="0.5" stroke-miterlimit="10"/>
<path d="M69.3997 190.2C69.3997 190.2 67.8998 190.1 67.2998 190.7" stroke="#13110C" stroke-width="0.5" stroke-miterlimit="10"/>
<path d="M89.7 127.8H29.8999" stroke="#13110C" stroke-miterlimit="10"/>
<path d="M62.3999 183.5L63.6001 185.4C69.1001 181.4 83.6001 181.6 83.6001 181.6C92.4001 181.9 100.2 185 100.2 185L101.3 183.5C101.3 183.5 90.1 179.3 81.8 179.7C81.7 179.7 67.8999 179.7 62.3999 183.5Z" fill="#FFEA24" stroke="#13110C" stroke-miterlimit="10"/>
<path d="M109.9 172.3L107.8 174.4C107.8 174.4 94.9003 168 81.1003 168.6C81.1003 168.6 62.6003 169.4 55.1003 175L53.7002 173.2C53.7002 173.2 62.7003 166.9 80.8003 166.4C80.8003 166.5 93.5001 166 109.9 172.3Z" fill="#FFEA24" stroke="#13110C" stroke-miterlimit="10"/>
<path d="M80.6996 169.6C77.9996 171.1 79.0997 178.3 79.0997 178.3H80.7997C79.9997 172.5 81.6996 171 81.6996 171C83.7996 171.7 83.0997 178.3 83.0997 178.3H85.2997C85.2997 178.3 85.5997 168.9 82.0997 169.6H80.6996Z" fill="#FFEA24"/>
<path d="M84.1997 173.7L81.9998 176.6L79.2998 173.7L81.6997 171L84.1997 173.7Z" fill="#E31013"/>
<path d="M73.5001 170.3C71.0001 172.2 73.0001 179.1 73.0001 179.1L74.7 178.9C73.2 173.3 74.7 171.5 74.7 171.5C76.9 171.9 77.0001 178.6 77.0001 178.6L79.1002 178.3C79.1002 178.3 78.2 168.9 74.9 170.1L73.5001 170.3Z" fill="#FFEA24"/>
<path d="M77.3999 173.8L75.7 177L72.6001 174.4L74.6001 171.5L77.3999 173.8Z" fill="#E31013"/>
<path d="M87.8 169.9C84.9 171 84.8999 178.2 84.8999 178.2L86.6001 178.4C86.7001 172.6 88.6001 171.3 88.6001 171.3C90.6001 172.3 88.8999 178.8 88.8999 178.8L91 179.1C91 179.1 92.7001 169.8 89.1001 170.1L87.8 169.9Z" fill="#FFEA24"/>
<path d="M90.5999 174.4L88.0999 177L85.7998 173.7L88.5999 171.4L90.5999 174.4Z" fill="#E31013"/>
<path d="M66.0998 171.6C63.7998 173.8 66.4997 180.4 66.4997 180.4L68.1997 180C66.0997 174.6 67.3996 172.6 67.3996 172.6C69.6996 172.7 70.4997 179.4 70.4997 179.4L72.6997 178.9C72.6997 178.9 70.7997 169.6 67.4997 171.2L66.0998 171.6Z" fill="#FFEA24"/>
<path d="M70.5 174.7L69 178.1L65.6001 175.9L67.3999 172.7L70.5 174.7Z" fill="#E31013"/>
<path d="M94.8 171.1C91.6 171.9 90.8999 179.1 90.8999 179.1L92.7 179.6C93.3 173.8 95.5 172.7 95.5 172.7C97.6 173.9 95.1001 180.2 95.1001 180.2L97.3999 180.8C97.3999 180.8 100.1 171.8 96.2 171.5L94.8 171.1Z" fill="#FFEA24"/>
<path d="M97.3997 175.9L94.4998 178.3L92.2998 174.6L95.4998 172.7L97.3997 175.9Z" fill="#E31013"/>
<path d="M142.9 136.9C148.9 137.5 146.6 147.5 146.6 147.5C146.6 153.1 141.1 152.3 141.1 152.3C138.9 152.5 139.3 150.9 139.3 150.9C139.3 150.9 132.8 150.6 132.8 148.1L142.9 136.9Z" fill="#FED68A" stroke="#13110C" stroke-miterlimit="10"/>
<path d="M139.6 150.2C139.6 150.2 143.5 150.4 143.3 148.3C143.3 148.3 144 146.4 139.9 146.4C139.9 146.4 136.7 147.2 137.2 143.3" stroke="#13110C" stroke-miterlimit="10"/>
<path d="M141.1 145.8C141.1 145.8 145.9 146 146.7 147.3" stroke="#13110C" stroke-miterlimit="10"/>
<path d="M140.6 142.9C140.6 142.9 146.5 143.4 147 143.7" stroke="#13110C" stroke-miterlimit="10"/>
<path d="M142.5 139.9C142.5 139.9 146.3 140 146.7 140.5" stroke="#13110C" stroke-miterlimit="10"/>
<path d="M138.7 151.6C140.9 152.6 143.8 154.6 143.8 154.6C149 159.1 146.6 165.5 146.6 165.5C146.6 165.5 138.9 158.1 138.7 153.7V151.6Z" fill="#BBB32E" stroke="#13110C" stroke-miterlimit="10"/>
<path d="M146 162C146 162 141.7 155.4 140.2 154.6" stroke="#13110C" stroke-miterlimit="10"/>
<path d="M122.2 155C126 148.8 136.6 150.6 136.6 150.6C136.6 150.6 133.2 157.8 122.2 155.8V155Z" fill="#BBB32E" stroke="#13110C" stroke-miterlimit="10"/>
<path d="M134.8 151.6C134.8 151.6 125.8 153.1 124.7 154.5" stroke="#13110C" stroke-miterlimit="10"/>
<path d="M136.6 158.3L134.8 157.1L137.1 150.7L138.7 150.9L136.6 158.3Z" fill="#BBB32E" stroke="#13110C" stroke-miterlimit="10"/>
<path d="M133.7 167.7L130 164L133.3 160.4L136.8 164.1L133.7 167.7Z" fill="#E31013"/>
<path d="M149.4 127.8H147.2H89.7002" stroke="#13110C" stroke-miterlimit="10"/>
<path d="M125.7 151.1L147.2 127.7H149.2L149.1 130.5L129.7 150.5C129.7 150.6 126.6 150.9 125.7 151.1Z" fill="#E31013" stroke="#13110C" stroke-miterlimit="10"/>
<path d="M124.9 156.4L122.8 158.8L110.4 146.5L127.4 127.8H132.1L114.5 146.5L124.9 156.4Z" fill="#E31013" stroke="#13110C" stroke-miterlimit="10"/>
<path d="M119.2 147.2C118.9 149.3 120.6 148.7 120.6 148.7C120.4 150.2 121.5 150.3 121.5 150.3C123 150.8 122.9 145.7 122.9 145.7C122.9 145.7 119.3 146.5 119.2 147.2Z" fill="white"/>
<path d="M124.6 148.9C126.3 149.3 125.9 147.9 125.9 147.9C127.1 148.2 127.3 147.3 127.3 147.3C127.8 146.2 123.7 145.8 123.7 145.8C123.7 145.8 124 148.8 124.6 148.9Z" fill="white"/>
<path d="M127.2 143.4C127.7 141.8 126.3 142 126.3 142C126.7 140.8 125.8 140.6 125.8 140.6C124.7 140 124.1 144.1 124.1 144.1C124.1 144.1 127.1 144 127.2 143.4Z" fill="white"/>
<path d="M121.9 141.7C120.2 141.5 120.7 142.9 120.7 142.9C119.5 142.7 119.4 143.6 119.4 143.6C119 144.8 123.1 144.7 123.1 144.7C123.1 144.7 122.5 141.8 121.9 141.7Z" fill="white"/>
<path d="M128.9 136.3C128.6 138.4 130.3 137.8 130.3 137.8C130.1 139.3 131.2 139.4 131.2 139.4C132.7 139.9 132.6 134.8 132.6 134.8C132.6 134.8 129 135.6 128.9 136.3Z" fill="white"/>
<path d="M134.4 138C136.1 138.4 135.7 137 135.7 137C136.9 137.3 137.1 136.4 137.1 136.4C137.6 135.3 133.5 134.9 133.5 134.9C133.5 134.9 133.8 137.8 134.4 138Z" fill="white"/>
<path d="M137 132.5C137.5 130.9 136.1 131.1 136.1 131.1C136.5 129.9 135.6 129.7 135.6 129.7C134.5 129.1 133.9 133.2 133.9 133.2C133.9 133.2 136.8 133.1 137 132.5Z" fill="white"/>
<path d="M131.6 130.8C129.9 130.6 130.4 132 130.4 132C129.2 131.8 129.1 132.7 129.1 132.7C128.7 133.9 132.8 133.8 132.8 133.8C132.8 133.8 132.2 130.8 131.6 130.8Z" fill="white"/>
<path d="M101.5 127.8C102 140.6 110.4 146.6 110.4 146.6L111.7 145.2C111.7 145.2 103 135.8 103.7 127.9H101.5V127.8Z" fill="#FFEA24" stroke="#13110C" stroke-miterlimit="10"/>
<path d="M112.2 131C111.7 131.2 107.6 132.9 107.6 132.9C104 134.9 107.2 138.1 107.2 138.1C109.5 140.6 114.9 134.9 114.9 134.9L114.2 133.8C114.2 133.8 110 137 109.3 136.2C109.3 136.2 107.8 135 113.1 132.4L112.2 131Z" fill="#FFEA24"/>
<path d="M124.5 131C124.5 131 123.4 129.8 123.2 127.8H120.6C120.6 127.8 121.7 131.3 123.2 132.5L124.5 131Z" fill="#FFEA24" stroke="#13110C" stroke-miterlimit="10"/>
<path d="M123.1 132.5L119.5 136.5C119.5 136.5 115.9 132.4 115.6 127.8H120.6C120.6 127.8 121.2 129.8 123.1 132.5Z" fill="#211C4B" stroke="#13110C" stroke-miterlimit="10"/>
<path d="M121.3 131.4L119.9 128.7L117.5 131.3L121.1 131.4" fill="white"/>
<path d="M110.8 128.2C106 128.6 106.3 129.7 106.3 129.7C106.5 131 111.8 129.7 111.8 129.7V130.8C111.8 130.8 106.8 133.3 105.4 131.5C105.4 131.5 103.9 129.3 105 128.2H110.8Z" fill="#FFEA24"/>
<path d="M112.6 141.7C112.5 140.4 116.5 137.2 116.5 137.2L115.2 135.7C115.2 135.7 109.1 139.4 110 142.4C110 142.4 111.5 145.3 113.2 143C113.2 142.9 112.2 142.4 112.6 141.7Z" fill="#FFEA24"/>
<path d="M124.7 130.5C124.7 130.5 123.5 129.1 123.5 127.8H125.8C125.8 127.8 125.7 128.5 126 129.3L124.7 130.5Z" fill="white" stroke="#13110C" stroke-miterlimit="10"/>
<path d="M29.8999 151.3C29.8999 151.3 32 152.9 37.5 155.6C43 158.3 54.4 159 59.5 156.9C64.7 154.9 71.0999 150.3 74.8999 143.8C78.6999 137.3 78.1001 127.8 78.1001 127.8H75.6001C75.6001 127.8 76.6 135.7 74 141.1C71.4 146.5 65.7 151.8 59.7 154.5C59.7 154.5 47 159.3 31.3 150.2L29.8999 149.6V151.3Z" fill="#FFEA24" stroke="#13110C" stroke-miterlimit="10"/>
<path d="M44.6001 134.9C48.3001 137.6 52.3 135.7 52.3 135.7C57.2 133.9 56.2 127.8 56.2 127.8H58.3C58.3 127.8 59 134.5 55.7 136.5C55.7 136.5 51.2 141.2 43 136.5L44.6001 134.9Z" fill="#FFEA24" stroke="#13110C" stroke-miterlimit="10"/>
<path d="M31.3 150.1L29.8999 149.5V146.5L47 127.8H51.3999L31.3 150.1Z" fill="#E31013" stroke="#13110C" stroke-miterlimit="10"/>
<path d="M36.5 136.3C38.2 136.7 37.8 135.3 37.8 135.3C39 135.6 39.2 134.7 39.2 134.7C39.7 133.6 35.6001 133.2 35.6001 133.2C35.6001 133.2 35.9 136.1 36.5 136.3Z" fill="white"/>
<path d="M38.8999 131C39.1999 129.3 37.8 129.7 37.8 129.7C38.1 128.5 37.2 128.3 37.2 128.3C36 127.8 35.8999 132 35.8999 132C35.8999 132 38.7999 131.6 38.8999 131Z" fill="white"/>
<path d="M34.4002 129.3C32.9002 128.5 32.9002 130 32.9002 130C31.8002 129.4 31.4002 130.2 31.4002 130.2C30.6002 131.2 34.5003 132.5 34.5003 132.5C34.5003 132.5 34.9002 129.6 34.4002 129.3Z" fill="white"/>
<path d="M56.3 127.8C56.3 127.8 56.2999 139.9 44.8999 135.1L46.2 133.7C46.2 133.7 53.6 137.6 54.5 127.8H56.3Z" fill="white" stroke="#13110C" stroke-miterlimit="10"/>
<path d="M46.1001 133.6C53.9001 136.9 54.3999 127.7 54.3999 127.7H51.3999L46.1001 133.6Z" fill="#13110C" stroke="#13110C" stroke-miterlimit="10"/>
<path d="M58.3999 127.8C58.3999 127.8 59.1001 136.8 53.1001 138C53.1001 138 49.5999 139.8 43.3999 136.6L40.6001 139.8C40.6001 139.8 45.7 144 53.7 142.4C53.7 142.4 60 141 62 133.2C62 133.2 62.6 129.4 62 127.8H58.3999Z" fill="#211C4B" stroke="#13110C" stroke-miterlimit="10"/>
<path d="M45.3 138.5L42.8999 140L43.3999 137.4L45.3 138.5Z" fill="white"/>
<path d="M49.3996 139.5C49.3996 139.5 46.8997 139.3 46.4997 139C46.0997 138.7 47.1996 141.8 47.1996 141.8L49.3996 139.5Z" fill="white"/>
<path d="M53.2002 139.2L50.2002 139.4L51.5002 142.1L53.2002 139.2Z" fill="white"/>
<path d="M57 140L54.1001 138.7L56.8 136.8L57 140Z" fill="white"/>
<path d="M60.2 136.1L57.5 135.8L59.1001 132.9L60.2 136.1Z" fill="white"/>
<path d="M61.6997 130.2L59.2998 128.5V131.5L61.6997 130.2Z" fill="white"/>
<path d="M73.0002 131.6C73.1002 132.8 67.4001 132.1 67.4001 132.1L67.2002 133.7C75.3002 136.2 75.3003 131.4 75.3003 131.4C76.2003 127.4 67.2002 128.5 67.2002 128.5V130.1C67.2002 130.1 73.2003 129.6 73.3003 131.2L73.0002 131.6Z" fill="#FFEA24"/>
<path d="M70.3 136.4C73.4 137.9 71.3999 139 71.3999 139C69.6999 139.5 66.5 136.4 66.5 136.4L65.3999 137.4C68.9999 141.4 72.8 141.3 72.8 141.3C72.8 141.3 75.1001 140.7 74.6001 137.9C74.6001 137.9 74.0999 134.9 67.3999 133.8L67 135.1C67 135 70 136.2 70.3 136.4Z" fill="#FFEA24"/>
<path d="M67.5 141.1C70.2 143.3 67.8999 143.9 67.8999 143.9C66.0999 144 63.8 140.2 63.8 140.2L62.5 140.9C65.1 145.6 68.7 146.4 68.7 146.4C68.7 146.4 71 146.3 71.3 143.5C71.3 143.5 71.5 140.5 65.3 137.8L64.6001 139C64.6001 139 67.3 140.9 67.5 141.1Z" fill="#FFEA24"/>
<path d="M64 145.1C66.3 147.7 64 148 64 148C62.3 147.8 60.5 143.7 60.5 143.7L59.1001 144.2C60.9001 149.2 64.3999 150.6 64.3999 150.6C64.3999 150.6 66.6999 150.9 67.3999 148.1C67.3999 148.1 68.1 145.2 62.3 141.6L61.3999 142.7C61.4999 142.6 63.8 144.9 64 145.1Z" fill="#FFEA24"/>
<path d="M59.7002 148.2C61.3002 151.3 59.0002 151 59.0002 151C57.4002 150.4 56.7002 145.9 56.7002 145.9L55.2002 146C55.7002 151.3 58.7002 153.5 58.7002 153.5C58.7002 153.5 60.9002 154.4 62.2002 151.9C62.2002 151.9 63.6001 149.2 58.9001 144.3L57.8003 145.1C57.8003 145.2 59.5002 148 59.7002 148.2Z" fill="#FFEA24"/>
<path d="M54.2997 150C55.0997 153.4 52.8996 152.5 52.8996 152.5C51.4996 151.5 51.8996 147 51.8996 147L50.3996 146.7C49.5996 152 51.9997 154.9 51.9997 154.9C51.9997 154.9 53.8997 156.3 55.7997 154.2C55.7997 154.2 57.7997 151.9 54.4997 146.1L53.1996 146.6C53.2996 146.6 54.2997 149.7 54.2997 150Z" fill="#FFEA24"/>
<path d="M48.8999 150.4C49.0999 153.7 47.1999 152.6 47.1999 152.6C45.9999 151.4 47.1001 147.2 47.1001 147.2L45.8 146.7C44.2 151.6 46.1001 154.7 46.1001 154.7C46.1001 154.7 47.7 156.3 49.8 154.6C49.8 154.6 52 152.8 49.8 146.7L48.5 147C48.4 147 48.8999 150.1 48.8999 150.4Z" fill="#FFEA24"/>
<path d="M43.8997 149.6C42.3997 152.5 41.3997 150.6 41.3997 150.6C40.9997 149 43.9998 146 43.9998 146L43.0999 144.9C39.2999 148.3 39.2998 151.8 39.2998 151.8C39.2998 151.8 39.8998 153.9 42.4998 153.6C42.4998 153.6 45.2998 153.2 46.4998 146.9L45.2998 146.5C45.1998 146.5 43.9997 149.4 43.8997 149.6Z" fill="#FFEA24"/>
<path d="M38.6997 148.1C36.8997 150.8 36.0999 148.8 36.0999 148.8C35.8999 147.2 39.1997 144.5 39.1997 144.5L38.3997 143.3C34.1997 146.2 33.7998 149.7 33.7998 149.7C33.7998 149.7 34.0998 151.9 36.7998 151.9C36.7998 151.9 39.5998 151.8 41.4998 145.7L40.2998 145.1C40.3998 145.1 38.8997 147.9 38.6997 148.1Z" fill="#FFEA24"/>
<path d="M104 138.3H77.2002C77.2002 138.3 77.7002 136.2 77.7002 136H103.1L104 138.3Z" fill="#13110C" stroke="#13110C" stroke-miterlimit="10"/>
<path d="M110.6 146.8L103 156.5V136C103 136 106.3 144 110.6 146.8Z" fill="#E31013" stroke="#13110C" stroke-miterlimit="10"/>
<path d="M107.3 149.4C107.3 149.4 104.8 147.2 105.3 142.3" stroke="white" stroke-miterlimit="10"/>
<path d="M122.6 158.6L122.9 158.9L115.3 167.8L111.9 170.5C111.9 170.5 106.4 165.5 108.6 157.6C108.6 157.6 110.6 152.4 113.6 149.8L122.6 158.6Z" fill="#211C4B" stroke="#13110C" stroke-miterlimit="10"/>
<path d="M117.2 164.1C117.2 164.1 114 160.1 117.7 155.4" stroke="white" stroke-miterlimit="10"/>
<path d="M112.7 168.6C112.7 168.6 105.7 162 113.9 151.7" stroke="white" stroke-miterlimit="10"/>
<path d="M103.9 167.8C104.839 167.8 105.6 167.039 105.6 166.1C105.6 165.161 104.839 164.4 103.9 164.4C102.961 164.4 102.2 165.161 102.2 166.1C102.2 167.039 102.961 167.8 103.9 167.8Z" fill="#E31013" stroke="#13110C" stroke-miterlimit="10"/>
<path d="M98.9998 138.3C99.3998 148.4 98.2998 166.8 98.2998 166.8H100.8C100.8 166.8 102 148.1 101.5 138.3H98.9998Z" fill="#FFEA24" stroke="#13110C" stroke-miterlimit="10"/>
<path d="M81.8 138.3C76.4 157.8 69.5 165.1 69.5 165.1H72.3C72.3 165.1 80.6999 153.3 83.3999 138.3H81.8Z" fill="#FFEA24" stroke="#13110C" stroke-miterlimit="10"/>
<path d="M90.2998 138.3C90.7998 148.3 87.7998 164.2 87.7998 164.2L90.2998 164.4C90.2998 164.4 92.9997 147.9 92.1997 138.4H90.2998V138.3Z" fill="white" stroke="#13110C" stroke-miterlimit="10"/>
<path d="M97.3999 164.1L94.3999 158.8L98.3 154.5L94.3999 147.7L98 143.3L94.3999 139.2" stroke="#FFEA24" stroke-miterlimit="10"/>
<path d="M96.3 165.2L92.8999 159.7" stroke="#FFEA24" stroke-miterlimit="10"/>
<path d="M92.8999 157.6L96.3 154.3L93.5 149" stroke="#FFEA24" stroke-miterlimit="10"/>
<path d="M93.8999 146.1L96.3 143.2L93.8999 140.7" stroke="#FFEA24" stroke-miterlimit="10"/>
<path d="M98.2998 141.5L96.2998 139.2" stroke="#FFEA24" stroke-miterlimit="10"/>
<path d="M98.3 145.1L95.8999 148.1L98.3 151.7" stroke="#FFEA24" stroke-miterlimit="10"/>
<path d="M97.8997 157.6L96.2998 159.2L97.8997 162.4" stroke="#FFEA24" stroke-miterlimit="10"/>
<path d="M92.3 164.8C92.6866 164.8 93 164.487 93 164.1C93 163.714 92.6866 163.4 92.3 163.4C91.9134 163.4 91.6001 163.714 91.6001 164.1C91.6001 164.487 91.9134 164.8 92.3 164.8Z" fill="#FFEA29"/>
<path d="M93.7 153.9C94.0866 153.9 94.3999 153.587 94.3999 153.2C94.3999 152.814 94.0866 152.5 93.7 152.5C93.3134 152.5 93 152.814 93 153.2C93 153.587 93.3134 153.9 93.7 153.9Z" fill="#FFEA29"/>
<path d="M93.2002 143.2C93.2002 142.8 93.5001 142.5 93.9001 142.5C94.3001 142.5 94.6003 142.8 94.6003 143.2C94.6003 143.6 94.3001 143.9 93.9001 143.9C93.5001 143.9 93.2002 143.6 93.2002 143.2Z" fill="#FFEA29"/>
<path d="M80.6001 164.1L87.3 158.1L83.3999 152.4L89.3 147.4L85.2 142.6L89.3 139.2" stroke="#FFEA29" stroke-miterlimit="10"/>
<path d="M76.3999 164.1L84.2 157.6L81 151.7L86.6001 146.7L83.3999 142.8L86.6001 139.2" stroke="#FFEA29" stroke-miterlimit="10"/>
<path d="M85.2 163.7C85.5866 163.7 85.8999 163.387 85.8999 163C85.8999 162.614 85.5866 162.3 85.2 162.3C84.8134 162.3 84.5 162.614 84.5 163C84.5 163.387 84.8134 163.7 85.2 163.7Z" fill="#FFEA29"/>
<path d="M86.3999 153.1C86.3999 152.7 86.7001 152.4 87.1001 152.4C87.5001 152.4 87.8 152.7 87.8 153.1C87.8 153.5 87.5001 153.8 87.1001 153.8C86.7001 153.8 86.3999 153.5 86.3999 153.1Z" fill="#FFEA29"/>
<path d="M88.6001 143.5C88.9867 143.5 89.3 143.187 89.3 142.8C89.3 142.414 88.9867 142.1 88.6001 142.1C88.2135 142.1 87.8999 142.414 87.8999 142.8C87.8999 143.187 88.2135 143.5 88.6001 143.5Z" fill="#FFEA29"/>
<path d="M77.2 138.3H80C80 138.3 73.6 160 64.2 166.8L51 170.6L47 167.3C47 167.3 59.5 159.5 61.7 155.9C61.7 155.9 75.1 149.6 77.2 138.3Z" fill="#E31013" stroke="#13110C" stroke-miterlimit="10"/>
<path d="M52.5 169.2C53.0523 169.2 53.5 168.752 53.5 168.2C53.5 167.648 53.0523 167.2 52.5 167.2C51.9477 167.2 51.5 167.648 51.5 168.2C51.5 168.752 51.9477 169.2 52.5 169.2Z" fill="white"/>
<path d="M62.7998 159.1C63.3521 159.1 63.7998 158.653 63.7998 158.1C63.7998 157.548 63.3521 157.1 62.7998 157.1C62.2475 157.1 61.7998 157.548 61.7998 158.1C61.7998 158.653 62.2475 159.1 62.7998 159.1Z" fill="white"/>
<path d="M70.5 155.2C71.0523 155.2 71.5 154.752 71.5 154.2C71.5 153.648 71.0523 153.2 70.5 153.2C69.9477 153.2 69.5 153.648 69.5 154.2C69.5 154.752 69.9477 155.2 70.5 155.2Z" fill="white"/>
<path d="M57 168.2C57 168.2 60.5 163 63.8 162.3C63.8 162.3 68.2 158.8 67.5 155.7C67.5 155.7 71.5001 149.2 74.1001 149.3" stroke="white" stroke-miterlimit="10"/>
<path d="M78.4998 129.9L79.4998 130.6L81.6997 127.8L91.5999 137.2L100.6 127.8L100.9 126.7L100.2 126.1L98.5999 127.2L97.5999 127.8L87.7998 119.6L79.3997 127.2L78.2998 129.6L78.4998 129.9Z" fill="white" stroke="white" stroke-miterlimit="10"/>
<path d="M95.3 129.3L87.8999 121.5L83.3999 126L91.3 133.5L95.3 129.3Z" fill="#13110C" stroke="#13110C" stroke-miterlimit="10"/>
<path d="M92.8999 129.3L87.8 124.6L86.6001 125.9L91.2 130.4H91.5L92.8999 129.3Z" fill="white" stroke="white" stroke-miterlimit="10"/>
<path d="M17.1003 43.6002C17.5003 44.7002 18.2003 46.3001 19.3003 47.0001H14.5002C15.7002 46.0001 16.3003 44.6002 16.6003 43.6002C15.9003 44.8002 14.6002 45.6002 13.2002 45.6002C11.0002 45.6002 9.2002 43.8002 9.2002 41.6002C9.2002 39.4002 11.0002 37.6002 13.2002 37.6002C13.6002 37.6002 14.1002 37.7002 14.5002 37.8002C13.7002 37.1002 13.2002 36.0001 13.2002 34.9001C13.2002 32.7001 15.0002 30.9001 17.2002 30.9001C19.4002 30.9001 21.2002 32.7001 21.2002 34.9001C21.2002 36.1001 20.6003 37.2001 19.8003 37.9001C20.1003 37.8001 20.5003 37.8002 20.8003 37.8002C23.0003 37.8002 24.8003 39.6002 24.8003 41.8002C24.8003 44.0002 23.0003 45.8002 20.8003 45.8002C19.0003 45.8002 17.7003 44.9002 17.1003 43.6002Z" fill="#13110C" stroke="#13110C" stroke-miterlimit="10"/>
<path d="M164.1 211.6C163.7 210.5 163 208.9 161.9 208.2H166.7C165.5 209.2 164.9 210.6 164.6 211.6C165.3 210.4 166.6 209.6 168 209.6C170.2 209.6 172 211.4 172 213.6C172 215.8 170.2 217.6 168 217.6C167.6 217.6 167.1 217.5 166.7 217.4C167.5 218.1 168 219.2 168 220.3C168 222.5 166.2 224.3 164 224.3C161.8 224.3 160 222.5 160 220.3C160 219.1 160.6 218 161.4 217.3C161.1 217.4 160.7 217.4 160.4 217.4C158.2 217.4 156.4 215.6 156.4 213.4C156.4 211.2 158.2 209.4 160.4 209.4C162.1 209.4 163.4 210.3 164.1 211.6Z" fill="#13110C" stroke="#13110C" stroke-miterlimit="10"/>
<path d="M52.2002 59.4001C52.7002 61.0001 53.7001 63.3002 55.4001 64.3002H48.4001C50.2001 62.9002 51.0001 60.8001 51.4001 59.4001C50.4001 61.1001 48.6001 62.3002 46.4001 62.3002C43.2001 62.3002 40.7002 59.7002 40.7002 56.6002C40.7002 53.4002 43.3001 50.9001 46.4001 50.9001C47.0001 50.9001 47.6002 51.0002 48.2002 51.2002C47.1002 50.2002 46.4001 48.7001 46.4001 47.0001C46.4001 43.8001 49.0003 41.3002 52.1003 41.3002C55.2003 41.3002 57.8003 43.9001 57.8003 47.0001C57.8003 48.8001 57.0003 50.3001 55.8003 51.4001C56.3003 51.3001 56.8003 51.2002 57.3003 51.2002C60.5003 51.2002 63.0002 53.8001 63.0002 56.9001C63.0002 60.1001 60.4003 62.6002 57.3003 62.6002C55.1003 62.6002 53.1002 61.3001 52.2002 59.4001Z" fill="#13110C" stroke="#13110C" stroke-miterlimit="10"/>
<path d="M130.3 194.3C129.8 192.7 128.8 190.4 127.1 189.4H134.1C132.3 190.8 131.5 192.9 131.1 194.3C132.1 192.6 133.9 191.4 136.1 191.4C139.3 191.4 141.8 194 141.8 197.1C141.8 200.3 139.2 202.8 136.1 202.8C135.5 202.8 134.9 202.7 134.3 202.5C135.4 203.5 136.1 205 136.1 206.7C136.1 209.9 133.5 212.4 130.4 212.4C127.2 212.4 124.7 209.8 124.7 206.7C124.7 204.9 125.5 203.4 126.7 202.3C126.2 202.4 125.7 202.5 125.2 202.5C122 202.5 119.5 199.9 119.5 196.8C119.5 193.6 122.1 191.1 125.2 191.1C127.4 191.2 129.4 192.4 130.3 194.3Z" fill="#13110C" stroke="#13110C" stroke-miterlimit="10"/>
</svg>
