<svg width="181" height="253" viewBox="0 0 181 253" fill="none" xmlns="http://www.w3.org/2000/svg">
<path d="M179.6 231C179.6 242.8 172.8 252.4 164.4 252.4H16.1001C7.7001 252.4 0.899902 242.8 0.899902 231V21.9C0.899902 10.1 7.7001 0.5 16.1001 0.5H164.4C172.8 0.5 179.6 10.1 179.6 21.9V231Z" fill="white" stroke="#1D1D1B" stroke-miterlimit="10"/>
<path d="M151.5 125V84.8L113.9 63L99.8003 50.9L78.5002 56.7L65.2002 71.3L38.7002 97.8L29.7002 119.6V125H90.6003" fill="#211C4B"/>
<path d="M151.5 125V84.8L113.9 63L99.8003 50.9L78.5002 56.7L65.2002 71.3L38.7002 97.8L29.7002 119.6V125H90.6003" stroke="#13110C" stroke-width="0.5" stroke-miterlimit="10"/>
<path d="M151.5 85.3V112.7C151.5 112.7 138 112.4 131.4 110.7C131.4 110.7 140.8 97.8 145.3 81.5L151.5 85.3Z" fill="#13110C" stroke="#13110C" stroke-miterlimit="10"/>
<path d="M118 118.6L125.2 118.5C125.2 118.5 140.7 102.1 144.8 81.2L138.5 77.4C138.5 77.4 134.1 91.5 124.6 107.3L118 118.6Z" fill="#E31013" stroke="#13110C" stroke-miterlimit="10"/>
<path d="M105.5 118.5C88.1002 104.1 76.2002 99.2 76.2002 99.2C76.6002 94.5 72.2002 87.3 72.2002 87.3C72.2002 87.3 92.4003 93.2 117.3 118.5H105.5Z" fill="#E31013" stroke="#13110C" stroke-miterlimit="10"/>
<path d="M59 121.1L48.3 110.3L34.1001 125H56L59 121.1Z" fill="white" stroke="#13110C" stroke-miterlimit="10"/>
<path d="M48.7002 109.7L68.5002 88C68.5002 88 73.1003 95.7 72.6003 102C72.6003 102 72.6003 107.6 68.8003 112.1C68.8003 112.1 64.7003 116.6 59.1003 121.1L48.7002 109.7Z" fill="white" stroke="#13110C" stroke-miterlimit="10"/>
<path d="M131 72.9L151.5 85.3" stroke="#13110C" stroke-miterlimit="10"/>
<path d="M47.2 72.9H35V85.6H47.2V72.9Z" fill="#211C4B" stroke="#13110C" stroke-width="0.5" stroke-miterlimit="10"/>
<path d="M39.1999 81.5L38.6999 84.6C39.1999 87.6 42.8 86.4 42.8 86.4C43.8 86.1 43.3 81.2 43.3 81.2C44.4 82.2 46.9999 81.8 46.9999 81.8C48.4999 82 48.6 79 48.6 79C47.7 75.4 42.8 76.7 42.8 76.7L42.8998 76.2C45.0998 70.2 40.3 70.6 40.3 70.6C36.4 70.5 38.6999 77.1 38.6999 77.1C38.6999 77.1 33.6998 75.1 33.3998 78.2C33.3998 78.2 32.4999 81.7 35.6999 81.9L39.1999 81.5Z" fill="#FFEA24" stroke="#13110C" stroke-miterlimit="10"/>
<path d="M151.6 26H29.7002V223.9H151.6V26Z" stroke="#13110C" stroke-miterlimit="10"/>
<path d="M17.0002 39.9L15.5002 41.7C14.2002 43.2 12.0002 43.5 10.5002 42.2L10.2002 42C8.70019 40.7 8.40019 38.5 9.70019 37L12.1003 34L16.5002 28.6C16.6002 28.4 16.8001 28.3 16.9001 28.2C17.0001 28.3 17.2003 28.5 17.3003 28.6L24.1003 37C25.3003 38.5 25.1003 40.8 23.6003 42L23.3003 42.2C21.8003 43.4 19.5003 43.2 18.3003 41.7L17.0002 39.9L17.8003 39C17.8003 39 16.2001 42.8 13.9001 45H19.8003C19.9003 44.9 17.0002 42 17.0002 39.9Z" fill="#13110C"/>
<path d="M17.0002 39.9L15.5002 41.7C14.2002 43.2 12.0002 43.5 10.5002 42.2L10.2002 42C8.70019 40.7 8.40019 38.5 9.70019 37L12.1003 34L16.5002 28.6C16.6002 28.4 16.8001 28.3 16.9001 28.2C17.0001 28.3 17.2003 28.5 17.3003 28.6L24.1003 37C25.3003 38.5 25.1003 40.8 23.6003 42L23.3003 42.2C21.8003 43.4 19.5003 43.2 18.3003 41.7L17.0002 39.9ZM17.0002 39.9L17.8003 39C17.8003 39 16.2001 42.8 13.9001 45H19.8003C19.9003 44.9 17.0002 42 17.0002 39.9Z" stroke="#13110C" stroke-miterlimit="10"/>
<path d="M162.4 212.6L163.9 210.8C165.2 209.3 167.4 209 168.9 210.3L169.2 210.5C170.7 211.8 171 214 169.7 215.5L167.3 218.5L162.9 223.9C162.8 224.1 162.6 224.2 162.5 224.3C162.4 224.2 162.2 224 162.1 223.9L155.3 215.5C154.1 214 154.3 211.7 155.8 210.5L156.1 210.3C157.6 209.1 159.9 209.3 161.1 210.8L162.4 212.6L161.6 213.5C161.6 213.5 163.2 209.7 165.5 207.5H159.6C159.6 207.6 162.4 210.5 162.4 212.6Z" fill="#13110C"/>
<path d="M162.4 212.6L163.9 210.8C165.2 209.3 167.4 209 168.9 210.3L169.2 210.5C170.7 211.8 171 214 169.7 215.5L167.3 218.5L162.9 223.9C162.8 224.1 162.6 224.2 162.5 224.3C162.4 224.2 162.2 224 162.1 223.9L155.3 215.5C154.1 214 154.3 211.7 155.8 210.5L156.1 210.3C157.6 209.1 159.9 209.3 161.1 210.8L162.4 212.6ZM162.4 212.6L161.6 213.5C161.6 213.5 163.2 209.7 165.5 207.5H159.6C159.6 207.6 162.4 210.5 162.4 212.6Z" stroke="#13110C" stroke-miterlimit="10"/>
<path d="M49.0999 53.6L46.9998 56.2C45.1998 58.4 41.9999 58.7 39.7999 56.9L39.3997 56.6C37.1997 54.8 36.8998 51.6 38.6998 49.4L42.1998 45.1L48.5999 37.4C48.7999 37.2 48.9998 37 49.1998 36.8C49.3998 37 49.5999 37.2 49.7999 37.4L59.5999 49.5C61.3999 51.7 60.9999 54.9 58.7999 56.7L58.3997 57C56.1997 58.8 52.9998 58.4 51.1998 56.2L49.0999 53.6L50.1998 52.3C50.1998 52.3 47.9999 57.7 44.5999 60.9H53.0999C53.1999 60.8 49.0999 56.6 49.0999 53.6Z" fill="#13110C"/>
<path d="M49.0999 53.6L46.9998 56.2C45.1998 58.4 41.9999 58.7 39.7999 56.9L39.3997 56.6C37.1997 54.8 36.8998 51.6 38.6998 49.4L42.1998 45.1L48.5999 37.4C48.7999 37.2 48.9998 37 49.1998 36.8C49.3998 37 49.5999 37.2 49.7999 37.4L59.5999 49.5C61.3999 51.7 60.9999 54.9 58.7999 56.7L58.3997 57C56.1997 58.8 52.9998 58.4 51.1998 56.2L49.0999 53.6ZM49.0999 53.6L50.1998 52.3C50.1998 52.3 47.9999 57.7 44.5999 60.9H53.0999C53.1999 60.8 49.0999 56.6 49.0999 53.6Z" stroke="#13110C" stroke-miterlimit="10"/>
<path d="M133.3 194.9L135.4 192.3C137.2 190.1 140.4 189.8 142.6 191.6L143 191.9C145.2 193.7 145.5 196.9 143.7 199.1L140.2 203.4L133.8 211.1C133.6 211.3 133.4 211.5 133.2 211.7C133 211.5 132.8 211.3 132.6 211.1L122.8 199C121 196.8 121.4 193.6 123.6 191.8L124 191.5C126.2 189.7 129.4 190.1 131.2 192.3L133.3 194.9L132.2 196.2C132.2 196.2 134.4 190.8 137.8 187.6H129.3C129.3 187.7 133.4 191.9 133.3 194.9Z" fill="#13110C"/>
<path d="M133.3 194.9L135.4 192.3C137.2 190.1 140.4 189.8 142.6 191.6L143 191.9C145.2 193.7 145.5 196.9 143.7 199.1L140.2 203.4L133.8 211.1C133.6 211.3 133.4 211.5 133.2 211.7C133 211.5 132.8 211.3 132.6 211.1L122.8 199C121 196.8 121.4 193.6 123.6 191.8L124 191.5C126.2 189.7 129.4 190.1 131.2 192.3L133.3 194.9ZM133.3 194.9L132.2 196.2C132.2 196.2 134.4 190.8 137.8 187.6H129.3C129.3 187.7 133.4 191.9 133.3 194.9Z" stroke="#13110C" stroke-miterlimit="10"/>
<path d="M71.6997 58.8H68.6997C72.2997 35.7 66.2998 26 66.2998 26H92.3997C92.3997 26 87.0997 39.3 71.6997 58.8Z" fill="#FFEA24" stroke="#13110C" stroke-miterlimit="10"/>
<path d="M71.7002 58.8H75.7002C75.7002 58.8 87.4002 45 96.5002 26H92.4001C92.4001 26 87.4002 38.4 71.7002 58.8Z" fill="#E31013" stroke="#13110C" stroke-miterlimit="10"/>
<path d="M70 55.7C70 55.7 78.2 46.7 78.5 40" stroke="#211C4B" stroke-miterlimit="10"/>
<path d="M81.8999 35.9C81.8999 35.9 85.9001 32.6 87.1001 27.7" stroke="#211C4B" stroke-miterlimit="10"/>
<path d="M70.8999 50.9C70.8999 50.9 74.4 47.8 76.2 42.4" stroke="#211C4B" stroke-miterlimit="10"/>
<path d="M81 34.1C81 34.1 83.9999 31.1 84.3999 28.6" stroke="#211C4B" stroke-miterlimit="10"/>
<path d="M80.0002 39.4C80.7182 39.4 81.3003 38.8179 81.3003 38.1C81.3003 37.382 80.7182 36.8 80.0002 36.8C79.2823 36.8 78.7002 37.382 78.7002 38.1C78.7002 38.8179 79.2823 39.4 80.0002 39.4Z" fill="#211C4B" stroke="#211C4B" stroke-miterlimit="10"/>
<path d="M77.9001 36.6C77.5001 37.1 75.5003 36 73.3003 34.3C71.1003 32.6 69.7003 30.8 70.1003 30.3C70.5003 29.8 72.5002 30.9 74.7002 32.6C76.8002 34.4 78.2001 36.2 77.9001 36.6Z" fill="#211C4B"/>
<path d="M79.3 35.9C78.9 35.9 78.6001 34.1 78.6001 31.8C78.6001 29.5 78.8 27.7 79.2 27.7C79.6 27.7 79.8999 29.5 79.8999 31.8C79.8999 34.1 79.6 35.9 79.3 35.9Z" fill="#211C4B"/>
<path d="M71.0003 41C70.8003 40.7 72.0002 39.7 73.7002 38.8C75.4002 37.9 76.8003 37.5 77.0003 37.8C77.2003 38.1 76.0003 39.1 74.3003 40C72.6003 40.8 71.1003 41.3 71.0003 41Z" fill="#211C4B"/>
<path d="M65.2002 71.3C71.8002 72.7 76.2002 69.6 76.2002 69.6C92.9002 53.3 105.2 26 105.2 26H96.5002C96.5002 26 91.9003 36.5 80.1003 53.1L65.2002 71.3Z" fill="#13110C" stroke="#13110C" stroke-miterlimit="10"/>
<path d="M100.2 26C100.2 26 88.8 50.5 77 64.5C77 64.5 74.6001 66.9 70.1001 65.9" stroke="white" stroke-miterlimit="10"/>
<path d="M91.2998 50.9C91.2998 50.9 98.6997 62.9 107.9 65.4C107.9 65.4 114.7 66.7 119.6 53.7C119.6 53.7 122.9 46.2 123.8 28.5V26H105.3C105.2 26 100.1 37.1 91.2998 50.9Z" fill="#FED68A" stroke="#13110C" stroke-miterlimit="10"/>
<path d="M100.9 34.4C100.9 34.4 109.8 34.3 112.9 26.8C113 26.5 113.1 26.3 113.2 26H105.2L100.9 34.4Z" fill="#AFA3C7" stroke="#13120D" stroke-width="0.5" stroke-miterlimit="10"/>
<path d="M123.2 35.9C123.2 35.9 113.8 34.1 112.7 27.3L113.2 26H123.7C123.7 26 123.3 34.7 123.2 35.9Z" fill="#AFA3C7" stroke="#13120D" stroke-width="0.5" stroke-miterlimit="10"/>
<path d="M102.8 33C102.8 33 108.9 31.3 111.3 27.7" stroke="#13110C" stroke-width="0.5" stroke-miterlimit="10"/>
<path d="M104.2 30.8C104.2 30.8 108.1 30 109.9 27.2" stroke="#13110C" stroke-width="0.5" stroke-miterlimit="10"/>
<path d="M104.7 29.1C104.7 29.1 107.4 28.3 108.1 27.2" stroke="#13110C" stroke-width="0.5" stroke-miterlimit="10"/>
<path d="M114.1 27.7C114.1 27.7 116.6 33.4 122.3 34.5" stroke="#13110C" stroke-width="0.5" stroke-miterlimit="10"/>
<path d="M116.1 27.7C116.1 27.7 117.4 31.7 122.3 33" stroke="#13110C" stroke-width="0.5" stroke-miterlimit="10"/>
<path d="M118.7 27.7C118.7 27.7 119.3 30.3 122 31" stroke="#13110C" stroke-width="0.5" stroke-miterlimit="10"/>
<path d="M120.3 27.7C120.3 27.7 121 29.6 122.3 29.5" stroke="#13110C" stroke-width="0.5" stroke-miterlimit="10"/>
<path d="M101.5 35.9C101.5 35.9 110.5 35.8 111.3 36.3L101.5 35.9Z" fill="white"/>
<path d="M101.5 35.9C101.5 35.9 110.5 35.8 111.3 36.3" stroke="#13110C" stroke-miterlimit="10"/>
<path d="M122.3 37.7C119.6 35.1 114.8 36.8 114.8 36.8C114.8 36.8 113.2 43.1 114.8 45.8C114.8 45.8 118.4 52 114.8 51.7C114.8 51.7 112.7 50 112.2 50.9C112.2 50.9 107.6 52.7 109.4 48.2" stroke="#13110C" stroke-miterlimit="10"/>
<path d="M112.7 51.6V53.4" stroke="#13110C" stroke-miterlimit="10"/>
<path d="M106.4 58.2C106.4 58.2 111 57.3 114.8 58.2" stroke="#13110C" stroke-miterlimit="10"/>
<path d="M109 62.3L111.3 60.4H110.1L111.8 62.3" stroke="#13110C" stroke-miterlimit="10"/>
<path d="M109.9 39.4C104.4 38.3 100.2 41.1 100.2 41.1C100.2 41.1 107.8 45.7 109.9 40.6V39.4Z" stroke="#13110C" stroke-miterlimit="10"/>
<path d="M109.5 42.4C109.5 42.4 108.7 44.8 105.2 46.1" stroke="#13110C" stroke-miterlimit="10"/>
<path d="M114.8 43.9C114.8 43.9 117.1 46.5 118.7 46" stroke="#13110C" stroke-miterlimit="10"/>
<path d="M121.3 41.1C117.7 44.8 114.8 41.1 114.8 41.1C114.8 41.1 116.6 38.9 121 40.5L121.3 41.1Z" stroke="#13110C" stroke-miterlimit="10"/>
<path d="M108.1 40.6C108.1 41.1 107.3 41.4 106.3 41.4C105.3 41.4 104.5 41 104.5 40.6C104.5 40.1 105.3 39.8 106.3 39.8C107.3 39.8 108.1 40.1 108.1 40.6Z" fill="#13110C" stroke="#13110C" stroke-miterlimit="10"/>
<path d="M119 41.1C119 41.4 118.6 41.6 118.1 41.6C117.6 41.6 117.2 41.4 117.2 41.1C117.2 40.8 117.6 40.6 118.1 40.6C118.6 40.6 119 40.8 119 41.1Z" fill="#13110C" stroke="#13110C" stroke-miterlimit="10"/>
<path d="M84.5 60.2C89.2 61.2 99.8 60.8 99.8 60.8C99.8 60.8 94.8 56.5 91.2 50.8C91.3 50.9 84.8 59.9 84.5 60.2Z" fill="#AFA3C7" stroke="#13120D" stroke-width="0.5" stroke-miterlimit="10"/>
<path d="M86.5 59.3C86.5 59.3 91.9 59.6 97 59.7" stroke="#13110C" stroke-width="0.5" stroke-miterlimit="10"/>
<path d="M88.3999 57.4C88.3999 57.4 90.5 57.7 95 57.8" stroke="#13110C" stroke-width="0.5" stroke-miterlimit="10"/>
<path d="M89.7998 55.5C89.7998 55.5 91.0999 55.8 93.5999 55.9" stroke="#13110C" stroke-width="0.5" stroke-miterlimit="10"/>
<path d="M90.6001 53.9L92.2 54.1" stroke="#13110C" stroke-width="0.5" stroke-miterlimit="10"/>
<path d="M134.4 74.7C130.4 49.4 123.3 34.4 123.3 34.4L122.6 40.5C122.6 40.5 130 61.6 131 72.8L134.4 74.7Z" fill="#E31013" stroke="#13110C" stroke-miterlimit="10"/>
<path d="M122.6 40.6C122.6 40.6 120.9 56 113.9 63C113.9 63 125.6 68.8 131 72.9C131 72.9 129.5 60.6 122.6 40.6Z" fill="#13110C" stroke="#13110C" stroke-miterlimit="10"/>
<path d="M120.2 52.9C120.2 52.9 124.2 61.1 125.2 68.5L120.2 52.9Z" fill="white"/>
<path d="M120.2 52.9C120.2 52.9 124.2 61.1 125.2 68.5" stroke="white" stroke-miterlimit="10"/>
<path d="M148.3 43.9C149.5 49.3 144.8 48.8 144.8 48.8C144.8 48.8 139.5 49 141.1 43.9L144.7 30.3L148.3 43.9Z" fill="#FFEA24" stroke="#13110C" stroke-miterlimit="10"/>
<path d="M144.6 40.6L143.2 53.4L144.6 57.1L146.3 53.4L144.6 40.6Z" fill="#FFEA24" stroke="#13110C" stroke-miterlimit="10"/>
<path d="M144.7 88.1H143.1C138.5 87.4 140.2 77.9 140.2 77.9C140.6 76.1 142.1 63.1 142.1 63.1C142.6 54.1 139.6 50.1 139.6 50.1L143.1 53.4L144.5 57.1L146.2 53.4L149.1 50.9C145.6 59.7 147.3 68.5 147.3 68.5C149.2 78.1 149.1 83.9 149.1 83.9C149.1 87.2 146.2 88.1 146.2 88.1H144.7Z" fill="#FFEA24" stroke="#13110C" stroke-miterlimit="10"/>
<path d="M148.6 92.9C148.6 95.2 146.7 97.1 144.4 97.1C144.2 97.1 144 97.1 143.8 97.1C141.8 96.8 140.2 95.1 140.2 93C140.2 90.7 142.1 88.8 144.4 88.8C146.7 88.8 148.6 90.6 148.6 92.9Z" fill="#FFEA24" stroke="#13110C" stroke-miterlimit="10"/>
<path d="M148 103.9C148.8 97.5 145.1 97.4 145.1 97.4H144C144 97.4 140.8 98.4 141 102L141.6 112.1H147.8L148 103.9Z" fill="#FFEA24" stroke="#13110C" stroke-miterlimit="10"/>
<path d="M148.2 92.8C148.2 94.5 147.2 96 146 96C144.8 96 143.8 94.6 143.8 92.8C143.8 91.1 144.8 89.6 146 89.6C147.2 89.6 148.2 91.1 148.2 92.8Z" fill="#BBB32E"/>
<path d="M147.7 55.9C147.7 55.9 147.5 56.2 147.2 56.7C147.1 56.9 146.9 57.2 146.8 57.6C145.7 60.1 144 65.7 144.8 75.8C144.8 75.8 143.6 91.2 148.1 86.4C148.1 86.4 149.7 85.9 147.8 72.9C147.8 72.9 147.4 71.4 147.6 72.2C147.6 72.2 146.6 59.3 147.1 57" fill="#BBB32E"/>
<path d="M147.3 111.7H144.5C144.5 111.7 144 99.7 145.9 99.8C145.9 99.8 147 99.1 147.5 100.4C148 101.7 147.7 105 147.3 111.3" fill="#BBB32E"/>
<path d="M43.2 79C43.2 80.2 42.1999 81.3 40.8999 81.3C39.5999 81.3 38.6001 80.3 38.6001 79C38.6001 78.4 38.8001 77.9 39.1001 77.5C39.5001 77 40.1 76.7 40.8 76.7C42.2 76.7 43.2 77.7 43.2 79Z" fill="white" stroke="#13110C" stroke-miterlimit="10"/>
<path d="M49.8 98.1C49.7 96.4 49.2 94.3 48.7 92.2C47.8 88.7 46.7 85.5 46.7 85.5H44.6001C44.6001 85.5 47.6999 96 47.8999 98.1H49.8Z" fill="#BBB32E" stroke="#13110C" stroke-miterlimit="10"/>
<path d="M48.8999 91.8C48.8999 91.8 48.9 86.9 56.2 85.5C56.2 85.5 59.1999 85.1 56.3999 88.8C56.3999 88.8 53.9 93.7 50.5 93.3C50.5 93.4 49.0999 93.5 48.8999 91.8Z" fill="#BBB32E" stroke="#13110C" stroke-miterlimit="10"/>
<path d="M45.8003 91.8C45.8003 91.8 41.8002 87.9 36.2002 91.5C36.2002 91.5 36.4003 93.6 39.1003 94.1C39.1003 94.1 45.3003 95.7 45.8003 93.7C45.8003 93.7 46.5003 93.5 45.8003 91.8Z" fill="#BBB32E" stroke="#13110C" stroke-miterlimit="10"/>
<path d="M38.3999 91.8C38.3999 91.8 42.2001 93 44.6001 92.6" stroke="#13110C" stroke-miterlimit="10"/>
<path d="M50.3999 91.8C50.3999 91.8 53.8 87.7 56 87.1" stroke="#13110C" stroke-miterlimit="10"/>
<path d="M29.7002 119.6C31.5002 116.9 38.5002 109.3 38.5002 109.3V98.1C35.0002 96.6 29.7002 87.3 29.7002 87.3V91.3C29.7002 91.3 33.0003 97.2 36.3003 100V101.5L32.4001 104L36.3003 107.2V108.3C36.3003 108.3 31.8002 113.6 29.7002 117V119.6Z" fill="#FFEA24" stroke="#13110C" stroke-miterlimit="10"/>
<path d="M38.7002 97.8C38.7002 97.8 40.6003 96.5 42.1003 97.8V109.8C40.9003 111.4 39.0002 109.8 39.0002 109.8L38.7002 97.8Z" fill="#FFEA24" stroke="#13110C" stroke-miterlimit="10"/>
<path d="M29.7002 91.4V117.1L36.3003 108.4V107.3L32.4001 104.1L36.3003 101.6V100.1C36.2003 100 31.7002 95.7 29.7002 91.4Z" fill="#E31518" stroke="#13110C" stroke-miterlimit="10"/>
<path d="M57.8 108.6C58.7 102.8 54.1001 99.7 54.1001 99.7C48.3001 96.9 42 99 42 99V108.7C42 108.7 45.6 109.3 48 114.7C48 114.7 49.9001 115.9 50.1001 113.8C50.1001 113.8 52.6 115 52.7 112.8L52.6001 112.1C52.6001 112.1 55.1 113.3 55.2 111.2C55.2 111.2 56.9 111.1 56.3 109.5C56.4 109.7 57.7 109.3 57.8 108.6Z" fill="#FED68A" stroke="#13110C" stroke-miterlimit="10"/>
<path d="M50.2002 113.9C50.2002 113 48.7002 109.7 48.7002 109.7" stroke="#13110C" stroke-miterlimit="10"/>
<path d="M51.3999 108C51.3999 108 53.3001 110.9 53.6001 112.5" stroke="#13110C" stroke-miterlimit="10"/>
<path d="M54.7002 105.4C54.7002 105.4 56.4002 108.8 56.5002 109.7" stroke="#13110C" stroke-miterlimit="10"/>
<path d="M75.6003 94.8C77.9003 102.8 73.2002 111.3 73.2002 111.3C71.7002 113.7 59.5002 125 59.5002 125L56.2002 124.8L65.4001 115.5C68.4001 113.6 71.5002 107.5 71.5002 107.5C74.9002 98.4 69.3003 89.4 69.3003 89.4C66.8003 83.9 59.3003 78 59.3003 78L62.3003 75.1C62.3003 75.1 71.7001 84.2 73.9001 90.8L75.6003 94.8Z" fill="#FFEA24" stroke="#13110C" stroke-miterlimit="10"/>
<path d="M111 112.1C87.5 91 72.3 87.4 72.3 87.4L69.8999 83.8C69.8999 83.8 95.4001 92.4 110.6 109.4L111 112.1Z" fill="#FFEA24" stroke="#13110C" stroke-miterlimit="10"/>
<path d="M110.4 101.9C110.4 101.1 111 100 111 100C109.4 97.8 96.5 83.7 96.5 83.7C94 80.4 78.5 67.2 78.5 67.2L76.6001 69.1C76.6001 69.1 86.6 76.9 93.5 83.7C93.5 83.7 106.9 98.1 110.2 102.5" fill="#FFEA24"/>
<path d="M110.4 101.9C110.4 101.1 111 100 111 100C109.4 97.8 96.5 83.7 96.5 83.7C94 80.4 78.5 67.2 78.5 67.2L76.6001 69.1C76.6001 69.1 86.6 76.9 93.5 83.7C93.5 83.7 106.9 98.1 110.2 102.5" stroke="#13110C" stroke-miterlimit="10"/>
<path d="M120.2 99.2C123.2 92.1 126.7 70 126.7 70L124.7 68.8C124.7 68.8 121.5 91.1 118.9 98.2L120.2 99.2Z" fill="#FFEA24" stroke="#13110C" stroke-miterlimit="10"/>
<path d="M124.6 107.3C132.2 96 138.5 77.4 138.5 77.4L136 75.9C136 75.9 131 92.4 123.7 104.7L124.6 107.3Z" fill="#FFEA24" stroke="#13110C" stroke-miterlimit="10"/>
<path d="M123.7 105.9C125.3 111.6 123.6 117 120 118C116.4 119 112.1 115.2 110.6 109.5C109 103.8 110.7 98.4 114.3 97.4C117.9 96.4 122.1 100.2 123.7 105.9Z" fill="#FFEA24" stroke="#13110C" stroke-miterlimit="10"/>
<path d="M121 107.2C121.8 110.8 120.8 114.1 118.8 114.5C116.8 115 114.5 112.4 113.6 108.9C112.8 105.3 113.8 102 115.8 101.6C117.9 101.1 120.2 103.6 121 107.2Z" fill="#E31013" stroke="#13110C" stroke-miterlimit="10"/>
<path d="M115 101.7L112.7 98.2" stroke="#13110C" stroke-miterlimit="10"/>
<path d="M117.1 101.6L117.4 97.7" stroke="#13110C" stroke-miterlimit="10"/>
<path d="M119 102.9L120.6 100" stroke="#13110C" stroke-miterlimit="10"/>
<path d="M120.4 105.3L123 104" stroke="#13110C" stroke-miterlimit="10"/>
<path d="M121.2 108H124.1" stroke="#13110C" stroke-miterlimit="10"/>
<path d="M121.2 111.2L124.1 112.6" stroke="#13110C" stroke-miterlimit="10"/>
<path d="M120.2 113.6L122.4 116.3" stroke="#13110C" stroke-miterlimit="10"/>
<path d="M118.8 114.5L119 118.2" stroke="#13110C" stroke-miterlimit="10"/>
<path d="M116.5 113.8L115 116.7" stroke="#13110C" stroke-miterlimit="10"/>
<path d="M114.9 111.9L112.2 113.6" stroke="#13110C" stroke-miterlimit="10"/>
<path d="M113.7 108.9L110.6 109.2" stroke="#13110C" stroke-miterlimit="10"/>
<path d="M113.4 106.4L109.9 105.7" stroke="#13110C" stroke-miterlimit="10"/>
<path d="M113.8 103.7L110.6 101.4" stroke="#13110C" stroke-miterlimit="10"/>
<path d="M66.8999 90.6H69.3" stroke="#211C4B" stroke-width="0.5" stroke-miterlimit="10"/>
<path d="M65.8999 91.8H69.8" stroke="#211C4B" stroke-width="0.5" stroke-miterlimit="10"/>
<path d="M64.2002 93.6H70.4001" stroke="#211C4B" stroke-width="0.5" stroke-miterlimit="10"/>
<path d="M63.1001 95.3H70.8" stroke="#211C4B" stroke-width="0.5" stroke-miterlimit="10"/>
<path d="M61.6001 96.8H71.1001" stroke="#211C4B" stroke-width="0.5" stroke-miterlimit="10"/>
<path d="M60.1001 98.3H71.7" stroke="#211C4B" stroke-width="0.5" stroke-miterlimit="10"/>
<path d="M59 100H71.7" stroke="#211C4B" stroke-width="0.5" stroke-miterlimit="10"/>
<path d="M57.7002 101.5H71.7002" stroke="#211C4B" stroke-width="0.5" stroke-miterlimit="10"/>
<path d="M58 103.1H71.7" stroke="#211C4B" stroke-width="0.5" stroke-miterlimit="10"/>
<path d="M58.6001 104.5H71.1001" stroke="#211C4B" stroke-width="0.5" stroke-miterlimit="10"/>
<path d="M59 106H71.1001" stroke="#211C4B" stroke-width="0.5" stroke-miterlimit="10"/>
<path d="M59 107.5H70.3999" stroke="#211C4B" stroke-width="0.5" stroke-miterlimit="10"/>
<path d="M59 109.1H69.5" stroke="#211C4B" stroke-width="0.5" stroke-miterlimit="10"/>
<path d="M57.7002 111L68.4001 111.1" stroke="#211C4B" stroke-width="0.5" stroke-miterlimit="10"/>
<path d="M56 112.5H66.8999" stroke="#211C4B" stroke-width="0.5" stroke-miterlimit="10"/>
<path d="M54.2998 113.9H65.3997" stroke="#211C4B" stroke-width="0.5" stroke-miterlimit="10"/>
<path d="M55.5 115.4L63.8999 115.2" stroke="#211C4B" stroke-width="0.5" stroke-miterlimit="10"/>
<path d="M56.3999 117.1H62.1001" stroke="#211C4B" stroke-width="0.5" stroke-miterlimit="10"/>
<path d="M58 118.5L60.6001 118.6" stroke="#211C4B" stroke-width="0.5" stroke-miterlimit="10"/>
<path d="M41.5 123.4V120.8C41.5 120.8 45.8999 121.2 49.3999 116.8L49.8 117.4C49.8 117.3 45.7 124 41.5 123.4Z" fill="#211C4B" stroke="#13110C" stroke-width="0.5" stroke-miterlimit="10"/>
<path d="M47.8999 125C47.8999 125 49.8999 121 52.8999 119.6L53.5 120.7C53.5 120.7 49.6999 122.8 49.3999 124.9L47.8999 125Z" fill="#211C4B" stroke="#13110C" stroke-width="0.5" stroke-miterlimit="10"/>
<path d="M43.6001 125H46.1001L51.3999 118.2L43.6001 125Z" fill="#211C4B" stroke="#13110C" stroke-width="0.5" stroke-miterlimit="10"/>
<path d="M47.2002 116.8C45.3002 116.4 45.7002 117.7 45.7002 117.7L51.0002 123.5C51.0002 123.5 52.4002 123.6 52.5002 122.9C52.6002 122.2 47.2002 116.8 47.2002 116.8Z" fill="#211C4B" stroke="#13110C" stroke-width="0.5" stroke-miterlimit="10"/>
<path d="M67.8999 78C67.8999 78 65.3 77.1 67 75C67 75 69.3001 72.9 71.8001 76.8C71.8001 76.8 73.1 81.2 76.7 81.5C76.7 81.5 83 81.3 84.2 82.2C84.2 82.2 86.4 84.3 86 86.5C86 86.5 90.7001 85.1 92.6001 89.2C92.6001 89.2 94.4001 94.5 95.6001 94.8C95.6001 94.8 98.2999 96.5 99.8999 93.8C99.8999 93.8 100.4 90.4 96.7 91.3" stroke="white" stroke-miterlimit="10"/>
<path d="M81.2 77.4C81.6418 77.4 82 77.0418 82 76.6C82 76.1581 81.6418 75.8 81.2 75.8C80.7581 75.8 80.3999 76.1581 80.3999 76.6C80.3999 77.0418 80.7581 77.4 81.2 77.4Z" fill="white" stroke="white" stroke-miterlimit="10"/>
<path d="M82.8999 85.9C82.8999 86.4 82.5 86.8 82 86.8C81.5 86.8 81.1001 86.4 81.1001 85.9C81.1001 85.4 81.5 85 82 85C82.5 85 82.8999 85.4 82.8999 85.9Z" fill="white" stroke="white" stroke-miterlimit="10"/>
<path d="M90.2 90.3C90.2 90.8 89.8 91.2 89.3 91.2C88.8 91.2 88.3999 90.8 88.3999 90.3C88.3999 89.8 88.8 89.4 89.3 89.4C89.8 89.5 90.2 89.9 90.2 90.3Z" fill="white" stroke="white" stroke-miterlimit="10"/>
<path d="M89.3999 83.6C89.3999 84.1 89 84.5 88.5 84.5C88 84.5 87.6001 84.1 87.6001 83.6C87.6001 83.1 88 82.7 88.5 82.7C89 82.7 89.3999 83.1 89.3999 83.6Z" fill="white" stroke="white" stroke-miterlimit="10"/>
<path d="M96.2 88.3C96.2 88.8 95.8 89.2 95.3 89.2C94.8 89.2 94.3999 88.8 94.3999 88.3C94.3999 87.8 94.8 87.4 95.3 87.4C95.8 87.4 96.2 87.9 96.2 88.3Z" fill="white" stroke="white" stroke-miterlimit="10"/>
<path d="M72.2002 77.8C72.2002 77.8 73.3002 72.7 75.5002 73.6C75.5002 73.6 78.9002 74.4 78.0002 76.9C78.0002 76.9 77.1002 78.6 76.0002 77.4" stroke="white" stroke-miterlimit="10"/>
<path d="M128.5 73.2C128.5 73.2 126.7 75.4 129.5 76.3C129.5 76.3 133.1 76.7 132.4 80.3C132.4 80.3 128.2 84.5 127.5 86.1C127.5 86.1 128.6 88.7 126.7 90.2C126.7 90.2 123.9 92 125.7 95.5C125.7 95.5 125.8 101.4 122.4 98" stroke="white" stroke-miterlimit="10"/>
<path d="M129.3 80.1C129.3 80.1 126.2 78.5 129.6 76.2" stroke="white" stroke-miterlimit="10"/>
<path d="M127.2 82C127.2 82.4 126.9 82.7 126.5 82.7C126.1 82.7 125.8 82.4 125.8 82C125.8 81.6 126.1 81.3 126.5 81.3C126.9 81.3 127.2 81.6 127.2 82Z" fill="white" stroke="white" stroke-miterlimit="10"/>
<path d="M131 86.5C131 86.9 130.7 87.2 130.3 87.2C129.9 87.2 129.6 86.9 129.6 86.5C129.6 86.1 129.9 85.8 130.3 85.8C130.7 85.8 131 86.1 131 86.5Z" fill="white" stroke="white" stroke-miterlimit="10"/>
<path d="M128.7 92.6C128.7 93 128.4 93.3 128 93.3C127.6 93.3 127.3 93 127.3 92.6C127.3 92.2 127.6 91.9 128 91.9C128.4 91.9 128.7 92.2 128.7 92.6Z" fill="white" stroke="white" stroke-miterlimit="10"/>
<path d="M124 94.7C124 95 123.8 95.2 123.5 95.2C123.2 95.2 123 95 123 94.7C123 94.4 123.2 94.2 123.5 94.2C123.8 94.2 124 94.4 124 94.7Z" fill="white" stroke="white" stroke-miterlimit="10"/>
<path d="M82 66.1H85.1001L83.6001 63.6L82 66.1Z" fill="#FFEA24"/>
<path d="M91.3 64.4L89 67.9H93.5" fill="#FFEA24"/>
<path d="M100.1 64.6L98 67.9H102.1" fill="#FFEA24"/>
<path d="M106.9 66L105.3 68.5H108.5" fill="#FFEA24"/>
<path d="M114.5 65L112.5 68.3H116.5" fill="#FFEA24"/>
<path d="M89.3999 70.5L96.2 72.1L92.3999 73.9L92.8 72.2L89.3999 70.5Z" fill="#FFEA24"/>
<path d="M94.3999 75.7L100.4 77.1L97.1001 78.7L97.3999 77.2L94.3999 75.7Z" fill="#FFEA24"/>
<path d="M98.1001 80.1L103.9 81.5L100.7 83L101 81.5L98.1001 80.1Z" fill="#FFEA24"/>
<path d="M102.4 84.5L107.5 85.7L104.7 87.1L104.9 85.8L102.4 84.5Z" fill="#FFEA24"/>
<path d="M105.5 88.2L109.5 89.2L107.3 90.3L107.5 89.3L105.5 88.2Z" fill="#FFEA24"/>
<path d="M108.3 91.6L110.7 92.2L109.4 92.8L109.5 92.2L108.3 91.6Z" fill="#FFEA24"/>
<path d="M120.5 68.4L115.9 73.8L120 73L118.7 71.8L120.5 68.4Z" fill="#FFEA24"/>
<path d="M120.5 74.8L116.5 79.5L120.1 78.8L119 77.8L120.5 74.8Z" fill="#FFEA24"/>
<path d="M119.9 80.8L116.5 84.8L119.6 84.2L118.6 83.3L119.9 80.8Z" fill="#FFEA24"/>
<path d="M118.5 86.6L116.2 89.4L118.3 89L117.6 88.4L118.5 86.6Z" fill="#FFEA24"/>
<path d="M118 90.6L116.4 92.6L117.8 92.3L117.4 91.9L118 90.6Z" fill="#FFEA24"/>
<path d="M106.4 69.6L100.4 72.6L107.5 73.5L105.5 71.8L106.4 69.6Z" fill="#FFEA24"/>
<path d="M107.5 69.6L113.6 70.5L109 73.5L109.5 71.1L107.5 69.6Z" fill="#FFEA24"/>
<path d="M108.6 74.8L104 77L109.4 77.7L107.9 76.4L108.6 74.8Z" fill="#FFEA24"/>
<path d="M109.4 74.8L113.9 75.4L110.5 77.7L110.9 75.9L109.4 74.8Z" fill="#FFEA24"/>
<path d="M110.4 79.6L106.6 81.4L111 82L109.8 80.9L110.4 79.6Z" fill="#FFEA24"/>
<path d="M111 79.6L114.8 80.1L111.9 82L112.3 80.5L111 79.6Z" fill="#FFEA24"/>
<path d="M112 83.8L109.1 85.2L112.5 85.7L111.5 84.9L112 83.8Z" fill="#FFEA24"/>
<path d="M112.5 83.8L115.4 84.2L113.2 85.7L113.5 84.5L112.5 83.8Z" fill="#FFEA24"/>
<path d="M112.5 87.5L110.3 88.6L112.9 88.9L112.2 88.3L112.5 87.5Z" fill="#FFEA24"/>
<path d="M112.9 87.5L115.1 87.8L113.4 88.9L113.6 88.1L112.9 87.5Z" fill="#FFEA24"/>
<path d="M113.3 90.8L111.9 91.4L113.5 91.6L113.1 91.2L113.3 90.8Z" fill="#FFEA24"/>
<path d="M113.5 90.8L114.9 90.9L113.9 91.6L114 91.1L113.5 90.8Z" fill="#FFEA24"/>
<path d="M114.1 93.3L112.9 93.8L114.3 94L113.9 93.7L114.1 93.3Z" fill="#FFEA24"/>
<path d="M114.3 93.3L115.5 93.4L114.6 94L114.7 93.6L114.3 93.3Z" fill="#FFEA24"/>
<path d="M80.6001 97.4C80.6001 97.4 81.5 93.6 84.2 96.8C84.2 96.8 87.6999 101 89.3999 101.5C89.3999 101.5 90.9 104.8 96.2 104.9C96.8 104.9 97.4001 104.9 98.1001 104.8C98.1001 104.8 103.1 106.6 106.6 112.6C106.6 112.6 111.5 117.2 115.4 118.7" stroke="#13110C" stroke-miterlimit="10"/>
<path d="M99.8001 107.7C99.8001 107.7 96 112.3 96.2 104.8" stroke="#13110C" stroke-miterlimit="10"/>
<path d="M99.3 109C98.7 109.4 98.0998 109.4 97.8998 109.2C97.7998 109 98.0999 108.5 98.6999 108.1C99.2999 107.7 99.9 107.7 100.1 107.9C100.3 108.1 99.9 108.6 99.3 109Z" fill="#13110C" stroke="#13110C" stroke-miterlimit="10"/>
<path d="M91.6002 101C90.9002 101.8 90 102.2 89.7 101.8C89.4 101.5 89.7001 100.6 90.5001 99.8C91.2001 99 92.1 98.6 92.4 99C92.7 99.4 92.4002 100.3 91.6002 101Z" fill="#13110C" stroke="#13110C" stroke-miterlimit="10"/>
<path d="M106 111.5C106 111.5 101.6 112.8 103.9 114.2" stroke="#13110C" stroke-miterlimit="10"/>
<path d="M103.8 114.8C103.4 114.5 103.3 114.1 103.4 113.9C103.5 113.8 103.9 113.9 104.3 114.2C104.6 114.5 104.8 114.9 104.7 115.1C104.5 115.3 104.2 115.1 103.8 114.8Z" fill="#13110C" stroke="#13110C" stroke-miterlimit="10"/>
<path d="M121.2 118.2C121.2 118.2 128.1 114.6 128.8 108.9C128.8 108.9 129.8 99.4 132.5 98.3C132.5 98.3 138.9 96.4 138 92.6C138 92.6 136.9 85.6 140.3 85.9" stroke="#13110C" stroke-miterlimit="10"/>
<path d="M136.3 94C136.908 94 137.4 93.5075 137.4 92.9C137.4 92.2925 136.908 91.8 136.3 91.8C135.693 91.8 135.2 92.2925 135.2 92.9C135.2 93.5075 135.693 94 136.3 94Z" fill="#13110C" stroke="#13110C" stroke-miterlimit="10"/>
<path d="M135.3 101.6C135.3 102.1 134.9 102.5 134.4 102.5C133.9 102.5 133.5 102.1 133.5 101.6C133.5 101.1 133.9 100.7 134.4 100.7C134.9 100.7 135.3 101.1 135.3 101.6Z" fill="#13110C" stroke="#13110C" stroke-miterlimit="10"/>
<path d="M131.9 106.4C131.9 106.9 131.5 107.3 131 107.3C130.5 107.3 130.1 106.9 130.1 106.4C130.1 105.9 130.5 105.5 131 105.5C131.5 105.5 131.9 105.8 131.9 106.4Z" fill="#13110C" stroke="#13110C" stroke-miterlimit="10"/>
<path d="M128.3 108C128.3 108.6 127.8 109.1 127.2 109.1C126.6 109.1 126.1 108.6 126.1 108C126.1 107.4 126.6 106.9 127.2 106.9C127.8 106.9 128.3 107.4 128.3 108Z" fill="#13110C" stroke="#13110C" stroke-miterlimit="10"/>
<path d="M134.1 97.7C134.1 97.7 135.8 100.1 134.4 101.7" stroke="#13110C" stroke-miterlimit="10"/>
<path d="M135.3 111L140.3 103.1" stroke="white" stroke-miterlimit="10"/>
<path d="M119.8 125L125.2 118.6C128.7 114.5 131.4 110.8 131.4 110.8C131.4 110.8 141.3 113 151.5 112.8V116.4C151.5 116.4 137 116.4 132.7 114.6L124.3 125.1H119.8V125Z" fill="#FFEA24" stroke="#13110C" stroke-miterlimit="10"/>
<path d="M90.6001 125H151.5" stroke="#13110C" stroke-miterlimit="10"/>
<path d="M124.3 125H130.3L144.8 125.1L151.5 118.1V116.4C151.5 116.4 139.7 116.7 132.7 114.6L124.3 125Z" fill="white" stroke="#13110C" stroke-miterlimit="10"/>
<path d="M133 125C134.2 123.7 134.1 120.9 134.1 120.9H132.1C132.1 120.9 132.2 124.2 131.7 125H133Z" fill="#211C4B" stroke="#13110C" stroke-width="0.5" stroke-miterlimit="10"/>
<path d="M135.6 124.8L137.9 120.5L141.2 119.9L140.9 123.1L137.3 124.8H135.6Z" fill="#211C4B" stroke="#13110C" stroke-width="0.5" stroke-miterlimit="10"/>
<path d="M76.5 99.3C86.5 103.8 100.8 114.7 100.8 114.7H70.3999C70.3999 114.8 75.9 109.6 76.5 99.3Z" fill="#13110C" stroke="#13110C" stroke-miterlimit="10"/>
<path d="M76.6001 112.5L79.5 103.5L93.5 112.5H76.6001Z" stroke="white" stroke-miterlimit="10"/>
<path d="M79.5 110.5L80.8 106.5L87 110.5H79.5Z" stroke="white" stroke-miterlimit="10"/>
<path d="M69.8999 115L66.6001 118.2L105.5 118.5L101 115H69.8999Z" fill="#FFEA24" stroke="#13110C" stroke-miterlimit="10"/>
<path d="M66.6001 118.2L63.8999 120.9L122.7 121.1L125.2 118.5L66.6001 118.2Z" fill="#E31013" stroke="#13110C" stroke-miterlimit="10"/>
<path d="M63.8999 120.9L59.5 125H62.1001H119.8L122.7 121.1L63.8999 120.9Z" fill="#13110C" stroke="#13110C" stroke-miterlimit="10"/>
<path d="M68.3999 125L65.3999 122.3L63.1001 125H68.3999Z" fill="white" stroke="white" stroke-width="0.2" stroke-miterlimit="10"/>
<path d="M76.6003 125L73.6003 122.3L71.2002 125H76.6003Z" fill="white" stroke="white" stroke-width="0.2" stroke-miterlimit="10"/>
<path d="M85.0002 124.8L82.1003 122.1L79.7002 124.8H85.0002Z" fill="white" stroke="white" stroke-width="0.2" stroke-miterlimit="10"/>
<path d="M93.3999 124.9L90.3999 122.2L88.1001 124.9H93.3999Z" fill="white" stroke="white" stroke-width="0.2" stroke-miterlimit="10"/>
<path d="M101.6 124.9L98.6003 122.2L96.2002 124.9H101.6Z" fill="white" stroke="white" stroke-width="0.2" stroke-miterlimit="10"/>
<path d="M110.1 124.7L107.1 122.1L104.7 124.7H110.1Z" fill="white" stroke="white" stroke-width="0.2" stroke-miterlimit="10"/>
<path d="M118.2 124.7L115.2 122.1L112.8 124.7H118.2Z" fill="white" stroke="white" stroke-width="0.2" stroke-miterlimit="10"/>
<path d="M29.7002 124.8V165L67.3003 186.8L81.4001 198.9L102.7 193L116 178.5L142.5 152L151.5 130.2V124.8H90.6003" fill="#211C4B"/>
<path d="M29.7002 124.8V165L67.3003 186.8L81.4001 198.9L102.7 193L116 178.5L142.5 152L151.5 130.2V124.8H90.6003" stroke="#13110C" stroke-width="0.5" stroke-miterlimit="10"/>
<path d="M29.7002 164.5V137.1C29.7002 137.1 43.2003 137.4 49.8003 139.1C49.8003 139.1 40.4001 152 35.9001 168.3L29.7002 164.5Z" fill="#13110C" stroke="#13110C" stroke-miterlimit="10"/>
<path d="M63.2 131.2L56 131.3C56 131.3 40.4999 147.7 36.3999 168.6L42.7 172.4C42.7 172.4 47.1001 158.3 56.6001 142.5L63.2 131.2Z" fill="#E31013" stroke="#13110C" stroke-miterlimit="10"/>
<path d="M75.8 131.3C93.2 145.7 105.1 150.6 105.1 150.6C104.7 155.3 109.1 162.5 109.1 162.5C109.1 162.5 88.9 156.6 64 131.3H75.8Z" fill="#E31013" stroke="#13110C" stroke-miterlimit="10"/>
<path d="M121.9 128.5L132.6 139.3L145.1 124.3L125.2 124.5L121.9 128.5Z" fill="white" stroke="#13110C" stroke-miterlimit="10"/>
<path d="M132.5 140.1L112.7 161.8C112.7 161.8 108.1 154.1 108.6 147.8C108.6 147.8 108.6 142.2 112.4 137.7C112.4 137.7 116.5 133.2 122.1 128.7L132.5 140.1Z" fill="white" stroke="#13110C" stroke-miterlimit="10"/>
<path d="M50.2002 176.9L29.7002 164.5" stroke="#13110C" stroke-miterlimit="10"/>
<path d="M146.2 164.2H134V176.9H146.2V164.2Z" fill="#211C4B" stroke="#13110C" stroke-width="0.5" stroke-miterlimit="10"/>
<path d="M142 168.3L142.5 165.2C142 162.2 138.4 163.4 138.4 163.4C137.4 163.7 137.9 168.6 137.9 168.6C136.8 167.6 134.2 168 134.2 168C132.7 167.8 132.6 170.8 132.6 170.8C133.5 174.4 138.4 173.1 138.4 173.1L138.3 173.6C136.1 179.6 140.9 179.2 140.9 179.2C144.8 179.3 142.5 172.7 142.5 172.7C142.5 172.7 147.5 174.7 147.8 171.6C147.8 171.6 148.7 168.1 145.5 167.9L142 168.3Z" fill="#FFEA24" stroke="#13110C" stroke-miterlimit="10"/>
<path d="M109.6 191H112.6C109 214.1 115 223.8 115 223.8H88.8998C88.7998 223.8 94.2 210.5 109.6 191Z" fill="#FFEA24" stroke="#13110C" stroke-miterlimit="10"/>
<path d="M109.6 191H105.6C105.6 191 93.8998 204.8 84.7998 223.8H88.8997C88.7997 223.8 93.7999 211.4 109.6 191Z" fill="#E31013" stroke="#13110C" stroke-miterlimit="10"/>
<path d="M111.2 194.1C111.2 194.1 103 203.1 102.7 209.8" stroke="#211C4B" stroke-miterlimit="10"/>
<path d="M99.3 213.9C99.3 213.9 95.3001 217.2 94.1001 222.1" stroke="#211C4B" stroke-miterlimit="10"/>
<path d="M110.3 198.9C110.3 198.9 106.8 202 105 207.4" stroke="#211C4B" stroke-miterlimit="10"/>
<path d="M100.2 215.7C100.2 215.7 97.1998 218.7 96.7998 221.2" stroke="#211C4B" stroke-miterlimit="10"/>
<path d="M101.2 213C101.918 213 102.5 212.418 102.5 211.7C102.5 210.982 101.918 210.4 101.2 210.4C100.482 210.4 99.8999 210.982 99.8999 211.7C99.8999 212.418 100.482 213 101.2 213Z" fill="#211C4B" stroke="#211C4B" stroke-miterlimit="10"/>
<path d="M103.3 213.1C103.7 212.6 105.7 213.7 107.9 215.4C110.1 217.1 111.5 218.9 111.1 219.4C110.7 219.9 108.7 218.8 106.5 217.1C104.4 215.4 103 213.6 103.3 213.1Z" fill="#211C4B"/>
<path d="M102 213.9C102.4 213.9 102.7 215.7 102.7 218C102.7 220.3 102.5 222.1 102.1 222.1C101.7 222.1 101.4 220.3 101.4 218C101.3 215.7 101.6 213.9 102 213.9Z" fill="#211C4B"/>
<path d="M110.2 208.8C110.4 209.1 109.2 210.1 107.5 211C105.8 211.9 104.4 212.3 104.2 212C104 211.7 105.2 210.7 106.9 209.8C108.6 209 110.1 208.5 110.2 208.8Z" fill="#211C4B"/>
<path d="M116 178.5C109.4 177.1 105 180.2 105 180.2C88.3 196.5 76 223.8 76 223.8H84.7C84.7 223.8 89.3001 213.3 101.1 196.7L116 178.5Z" fill="#13110C" stroke="#13110C" stroke-miterlimit="10"/>
<path d="M81 223.8C81 223.8 92.4 199.3 104.2 185.3C104.2 185.3 106.6 182.9 111.1 183.9" stroke="white" stroke-miterlimit="10"/>
<path d="M90 198.9C90 198.9 82.5999 186.9 73.3999 184.4C73.3999 184.4 66.6 183.1 61.7 196.1C61.7 196.1 58.4 203.6 57.5 221.3V223.8H76C76.1 223.8 81.1 212.7 90 198.9Z" fill="#FED68A" stroke="#13110C" stroke-miterlimit="10"/>
<path d="M80.3 215.3C80.3 215.3 71.4 215.4 68.3 222.9C68.2 223.2 68.1 223.4 68 223.7H76L80.3 215.3Z" fill="#AFA3C7" stroke="#13120D" stroke-width="0.5" stroke-miterlimit="10"/>
<path d="M58 213.9C58 213.9 67.4 215.7 68.5 222.5L68 223.8H57.5C57.5 223.8 57.9 215.1 58 213.9Z" fill="#AFA3C7" stroke="#13120D" stroke-width="0.5" stroke-miterlimit="10"/>
<path d="M78.3999 216.8C78.3999 216.8 72.2999 218.5 69.8999 222.1" stroke="#13110C" stroke-width="0.5" stroke-miterlimit="10"/>
<path d="M76.9998 218.9C76.9998 218.9 73.0998 219.7 71.2998 222.5" stroke="#13110C" stroke-width="0.5" stroke-miterlimit="10"/>
<path d="M76.5 220.7C76.5 220.7 73.8001 221.5 73.1001 222.6" stroke="#13110C" stroke-width="0.5" stroke-miterlimit="10"/>
<path d="M67.1001 222.1C67.1001 222.1 64.5999 216.4 58.8999 215.3" stroke="#13110C" stroke-width="0.5" stroke-miterlimit="10"/>
<path d="M65.1001 222.1C65.1001 222.1 63.7999 218.1 58.8999 216.8" stroke="#13110C" stroke-width="0.5" stroke-miterlimit="10"/>
<path d="M62.5002 222.1C62.5002 222.1 61.9002 219.5 59.2002 218.8" stroke="#13110C" stroke-width="0.5" stroke-miterlimit="10"/>
<path d="M60.8999 222.1C60.8999 222.1 60.1999 220.2 58.8999 220.3" stroke="#13110C" stroke-width="0.5" stroke-miterlimit="10"/>
<path d="M79.8 213.9C79.8 213.9 70.8 214 70 213.5L79.8 213.9Z" fill="white"/>
<path d="M79.8 213.9C79.8 213.9 70.8 214 70 213.5" stroke="#13110C" stroke-miterlimit="10"/>
<path d="M58.8999 212.1C61.5999 214.7 66.3999 213 66.3999 213C66.3999 213 67.9999 206.7 66.3999 204C66.3999 204 62.7999 197.8 66.3999 198.1C66.3999 198.1 68.5 199.8 69 198.9C69 198.9 73.6 197.1 71.8 201.6" stroke="#13110C" stroke-miterlimit="10"/>
<path d="M68.5 198.1V196.4" stroke="#13110C" stroke-miterlimit="10"/>
<path d="M74.8 191.6C74.8 191.6 70.1999 192.5 66.3999 191.6" stroke="#13110C" stroke-miterlimit="10"/>
<path d="M72.2 187.5L69.8999 189.4H71.1001L69.3999 187.5" stroke="#13110C" stroke-miterlimit="10"/>
<path d="M71.2998 210.4C76.7998 211.5 80.9998 208.7 80.9998 208.7C80.9998 208.7 73.3998 204.1 71.2998 209.2V210.4Z" stroke="#13110C" stroke-miterlimit="10"/>
<path d="M71.7998 207.4C71.7998 207.4 72.5999 205 76.0999 203.7" stroke="#13110C" stroke-miterlimit="10"/>
<path d="M66.3999 205.9C66.3999 205.9 64.1 203.3 62.5 203.8" stroke="#13110C" stroke-miterlimit="10"/>
<path d="M59.8999 208.7C63.4999 205 66.3999 208.7 66.3999 208.7C66.3999 208.7 64.6 210.9 60.2 209.3L59.8999 208.7Z" stroke="#13110C" stroke-miterlimit="10"/>
<path d="M73.1001 209.2C73.1001 208.7 73.8999 208.4 74.8999 208.4C75.8999 208.4 76.7 208.8 76.7 209.2C76.7 209.7 75.8999 210 74.8999 210C73.8999 210 73.1001 209.6 73.1001 209.2Z" fill="#13110C" stroke="#13110C" stroke-miterlimit="10"/>
<path d="M62.2998 208.7C62.2998 208.4 62.6997 208.2 63.1997 208.2C63.6997 208.2 64.0999 208.4 64.0999 208.7C64.0999 209 63.6997 209.2 63.1997 209.2C62.6997 209.2 62.2998 209 62.2998 208.7Z" fill="#13110C" stroke="#13110C" stroke-miterlimit="10"/>
<path d="M96.7 189.6C92 188.6 81.3999 189 81.3999 189C81.3999 189 86.4 193.3 90 199C90 198.9 96.5 189.8 96.7 189.6Z" fill="#AFA3C7" stroke="#13120D" stroke-width="0.5" stroke-miterlimit="10"/>
<path d="M94.7998 190.5C94.7998 190.5 89.3998 190.2 84.2998 190.1" stroke="#13110C" stroke-width="0.5" stroke-miterlimit="10"/>
<path d="M92.8003 192.3C92.8003 192.3 90.7002 192 86.2002 191.9" stroke="#13110C" stroke-width="0.5" stroke-miterlimit="10"/>
<path d="M91.5002 194.3C91.5002 194.3 90.2002 194 87.7002 193.9" stroke="#13110C" stroke-width="0.5" stroke-miterlimit="10"/>
<path d="M90.6001 195.9L89 195.7" stroke="#13110C" stroke-width="0.5" stroke-miterlimit="10"/>
<path d="M46.7998 175.1C50.7998 200.4 57.8997 215.4 57.8997 215.4L58.5999 209.3C58.5999 209.3 51.1997 188.2 50.1997 177L46.7998 175.1Z" fill="#E31013" stroke="#13110C" stroke-miterlimit="10"/>
<path d="M58.6003 209.2C58.6003 209.2 60.3003 193.8 67.3003 186.8C67.3003 186.8 55.6002 181 50.2002 176.9C50.2002 176.9 51.7003 189.2 58.6003 209.2Z" fill="#13110C" stroke="#13110C" stroke-miterlimit="10"/>
<path d="M61 196.9C61 196.9 57 188.7 56 181.3L61 196.9Z" fill="white"/>
<path d="M61 196.9C61 196.9 57 188.7 56 181.3" stroke="white" stroke-miterlimit="10"/>
<path d="M32.9998 205.9C31.7998 200.5 36.4998 201 36.4998 201C36.4998 201 41.7997 200.8 40.1997 205.9L36.5999 219.5L32.9998 205.9Z" fill="#FFEA24" stroke="#13110C" stroke-miterlimit="10"/>
<path d="M36.6001 209.2L38.1001 196.4L36.6001 192.7L34.8999 196.4L36.6001 209.2Z" fill="#FFEA24" stroke="#13110C" stroke-miterlimit="10"/>
<path d="M36.4999 161.7H38.1C42.7 162.4 40.9999 171.9 40.9999 171.9C40.5999 173.7 39.1 186.7 39.1 186.7C38.6 195.7 41.6 199.7 41.6 199.7L38.1 196.4L36.6999 192.7L34.9999 196.4L32.1 198.9C35.6 190.1 33.8998 181.3 33.8998 181.3C31.9998 171.7 32.1 165.9 32.1 165.9C32.1 162.6 34.9999 161.7 34.9999 161.7H36.4999Z" fill="#FFEA24" stroke="#13110C" stroke-miterlimit="10"/>
<path d="M32.6001 156.9C32.6001 154.6 34.5 152.7 36.8 152.7C37 152.7 37.1999 152.7 37.3999 152.7C39.3999 153 41 154.7 41 156.8C41 159.1 39.1 161 36.8 161C34.5 161 32.6001 159.2 32.6001 156.9Z" fill="#FFEA24" stroke="#13110C" stroke-miterlimit="10"/>
<path d="M33.2998 145.9C32.4998 152.3 36.1997 152.4 36.1997 152.4H37.2998C37.2998 152.4 40.4998 151.4 40.2998 147.8L39.6997 137.7H33.4997L33.2998 145.9Z" fill="#FFEA24" stroke="#13110C" stroke-miterlimit="10"/>
<path d="M35.3 160.2C36.5151 160.2 37.5 158.767 37.5 157C37.5 155.233 36.5151 153.8 35.3 153.8C34.085 153.8 33.1001 155.233 33.1001 157C33.1001 158.767 34.085 160.2 35.3 160.2Z" fill="#BBB32E"/>
<path d="M33.4997 193.9C33.4997 193.9 33.6997 193.6 33.9997 193.1C34.0997 192.9 34.2996 192.6 34.3996 192.2C35.4996 189.7 37.1996 184.1 36.3996 174C36.3996 174 37.5998 158.6 33.0998 163.4C33.0998 163.4 31.4996 163.9 33.3996 176.9C33.3996 176.9 33.7998 178.4 33.5998 177.6C33.5998 177.6 34.5998 190.5 34.0998 192.8" fill="#BBB32E"/>
<path d="M33.8999 138.1H36.6999C36.6999 138.1 37.2 150.1 35.3 150C35.3 150 34.1999 150.7 33.6999 149.4C33.1999 148.1 33.4999 144.8 33.8999 138.5" fill="#BBB32E"/>
<path d="M138 170.8C138 169.6 139 168.5 140.3 168.5C141.6 168.5 142.6 169.5 142.6 170.8C142.6 171.4 142.4 171.9 142.1 172.3C141.7 172.8 141.1 173.1 140.4 173.1C139 173.1 138 172.1 138 170.8Z" fill="white" stroke="#13110C" stroke-miterlimit="10"/>
<path d="M131.4 151.7C131.5 153.4 132 155.5 132.5 157.6C133.4 161.1 134.5 164.3 134.5 164.3H136.6C136.6 164.3 133.5 153.8 133.3 151.7H131.4Z" fill="#BBB32E" stroke="#13110C" stroke-miterlimit="10"/>
<path d="M132.3 157.9C132.3 157.9 132.3 162.8 125 164.2C125 164.2 122 164.6 124.8 160.9C124.8 160.9 127.3 156 130.7 156.4C130.7 156.4 132.1 156.3 132.3 157.9Z" fill="#BBB32E" stroke="#13110C" stroke-miterlimit="10"/>
<path d="M135.4 157.9C135.4 157.9 139.4 161.8 145 158.2C145 158.2 144.8 156.1 142.1 155.6C142.1 155.6 135.9 154 135.4 156C135.4 156.1 134.7 156.3 135.4 157.9Z" fill="#BBB32E" stroke="#13110C" stroke-miterlimit="10"/>
<path d="M142.8 157.9C142.8 157.9 139 156.7 136.6 157.1" stroke="#13110C" stroke-miterlimit="10"/>
<path d="M130.8 157.9C130.8 157.9 127.4 162 125.2 162.6" stroke="#13110C" stroke-miterlimit="10"/>
<path d="M151.5 130.2C149.7 132.9 142.7 140.5 142.7 140.5V151.7C146.2 153.2 151.5 162.5 151.5 162.5V158.5C151.5 158.5 148.2 152.6 144.9 149.8V148.3L148.8 145.8L144.9 142.6V141.5C144.9 141.5 149.4 136.2 151.5 132.8V130.2Z" fill="#FFEA24" stroke="#13110C" stroke-miterlimit="10"/>
<path d="M142.5 152C142.5 152 140.6 153.3 139.1 152V140C140.3 138.4 142.2 140 142.2 140L142.5 152Z" fill="#FFEA24" stroke="#13110C" stroke-miterlimit="10"/>
<path d="M151.5 158.4V132.7L144.9 141.4V142.5L148.8 145.7L144.9 148.2V149.7C145 149.8 149.6 154.1 151.5 158.4Z" fill="#E31518" stroke="#13110C" stroke-miterlimit="10"/>
<path d="M123.4 141.2C122.5 147 127.1 150.1 127.1 150.1C132.9 152.9 139.2 150.8 139.2 150.8V141.1C139.2 141.1 135.6 140.5 133.2 135.1C133.2 135.1 131.3 133.9 131.1 136C131.1 136 128.6 134.8 128.5 137L128.6 137.7C128.6 137.7 126.1 136.5 126 138.6C126 138.6 124.3 138.7 124.9 140.3C124.8 140.1 123.5 140.4 123.4 141.2Z" fill="#FED68A" stroke="#13110C" stroke-miterlimit="10"/>
<path d="M131 135.9C131 136.8 132.5 140.1 132.5 140.1" stroke="#13110C" stroke-miterlimit="10"/>
<path d="M129.9 141.8C129.9 141.8 128 138.9 127.7 137.3" stroke="#13110C" stroke-miterlimit="10"/>
<path d="M126.6 144.4C126.6 144.4 124.9 141 124.8 140.1" stroke="#13110C" stroke-miterlimit="10"/>
<path d="M105.7 155C103.4 147 108.1 138.5 108.1 138.5C109.6 136.1 121.8 124.8 121.8 124.8L125.5 124.7L116 134.3C113 136.2 109.9 142.3 109.9 142.3C106.5 151.4 112.1 160.4 112.1 160.4C114.6 165.9 122.1 171.8 122.1 171.8L119.1 174.7C119.1 174.7 109.7 165.6 107.5 159L105.7 155Z" fill="#FFEA24" stroke="#13110C" stroke-miterlimit="10"/>
<path d="M70.2998 137.7C93.7998 158.8 109 162.4 109 162.4L111.4 166C111.4 166 85.8997 157.4 70.6997 140.4L70.2998 137.7Z" fill="#FFEA24" stroke="#13110C" stroke-miterlimit="10"/>
<path d="M70.8003 147.9C70.8003 148.7 70.2002 149.8 70.2002 149.8C71.8002 152 84.7002 166.1 84.7002 166.1C87.2002 169.4 102.7 182.6 102.7 182.6L104.6 180.7C104.6 180.7 94.6002 172.9 87.7002 166.1C87.7002 166.1 74.3002 151.7 71.0002 147.3" fill="#FFEA24"/>
<path d="M70.8003 147.9C70.8003 148.7 70.2002 149.8 70.2002 149.8C71.8002 152 84.7002 166.1 84.7002 166.1C87.2002 169.4 102.7 182.6 102.7 182.6L104.6 180.7C104.6 180.7 94.6002 172.9 87.7002 166.1C87.7002 166.1 74.3002 151.7 71.0002 147.3" stroke="#13110C" stroke-miterlimit="10"/>
<path d="M61 150.6C58 157.7 54.5 179.8 54.5 179.8L56.5 181C56.5 181 59.7 158.7 62.3 151.6L61 150.6Z" fill="#FFEA24" stroke="#13110C" stroke-miterlimit="10"/>
<path d="M56.6003 142.5C49.0003 153.8 42.7002 172.4 42.7002 172.4L45.2002 173.9C45.2002 173.9 50.2002 157.4 57.5002 145.1L56.6003 142.5Z" fill="#FFEA24" stroke="#13110C" stroke-miterlimit="10"/>
<path d="M57.5 143.9C55.9 138.2 57.5999 132.8 61.1999 131.8C64.7999 130.8 69.1001 134.6 70.6001 140.3C72.2001 146 70.4999 151.4 66.8999 152.4C63.2999 153.4 59.1 149.6 57.5 143.9Z" fill="#FFEA24" stroke="#13110C" stroke-miterlimit="10"/>
<path d="M60.2 142.6C59.4 139 60.4 135.7 62.4 135.3C64.4 134.9 66.7002 137.4 67.6002 140.9C68.4002 144.5 67.4 147.8 65.4 148.2C63.3 148.7 61 146.2 60.2 142.6Z" fill="#E31013" stroke="#13110C" stroke-miterlimit="10"/>
<path d="M66.2998 148.1L68.4998 151.6" stroke="#13110C" stroke-miterlimit="10"/>
<path d="M64.1001 148.2L63.8999 152.1" stroke="#13110C" stroke-miterlimit="10"/>
<path d="M62.3 146.9L60.6001 149.7" stroke="#13110C" stroke-miterlimit="10"/>
<path d="M60.8003 144.5L58.2002 145.8" stroke="#13110C" stroke-miterlimit="10"/>
<path d="M60 141.8H57.1001" stroke="#13110C" stroke-miterlimit="10"/>
<path d="M60.0002 138.6L57.2002 137.2" stroke="#13110C" stroke-miterlimit="10"/>
<path d="M60.9998 136.2L58.7998 133.5" stroke="#13110C" stroke-miterlimit="10"/>
<path d="M62.3997 135.3L62.2998 131.6" stroke="#13110C" stroke-miterlimit="10"/>
<path d="M64.7002 136L66.3003 133.1" stroke="#13110C" stroke-miterlimit="10"/>
<path d="M66.3999 137.9L69 136.2" stroke="#13110C" stroke-miterlimit="10"/>
<path d="M67.5 140.9L70.7 140.6" stroke="#13110C" stroke-miterlimit="10"/>
<path d="M67.7998 143.4L71.2998 144.1" stroke="#13110C" stroke-miterlimit="10"/>
<path d="M67.3999 146.1L70.7 148.4" stroke="#13110C" stroke-miterlimit="10"/>
<path d="M114.3 159.2H112" stroke="#211C4B" stroke-width="0.5" stroke-miterlimit="10"/>
<path d="M115.3 157.9H111.4" stroke="#211C4B" stroke-width="0.5" stroke-miterlimit="10"/>
<path d="M117 156.1H110.8" stroke="#211C4B" stroke-width="0.5" stroke-miterlimit="10"/>
<path d="M118.1 154.5H110.4" stroke="#211C4B" stroke-width="0.5" stroke-miterlimit="10"/>
<path d="M119.6 153L110.1 152.9" stroke="#211C4B" stroke-width="0.5" stroke-miterlimit="10"/>
<path d="M121.1 151.5H109.5" stroke="#211C4B" stroke-width="0.5" stroke-miterlimit="10"/>
<path d="M122.2 149.7H109.5" stroke="#211C4B" stroke-width="0.5" stroke-miterlimit="10"/>
<path d="M123.5 148.3H109.5" stroke="#211C4B" stroke-width="0.5" stroke-miterlimit="10"/>
<path d="M123.3 146.7H109.5" stroke="#211C4B" stroke-width="0.5" stroke-miterlimit="10"/>
<path d="M122.7 145.2H110.1" stroke="#211C4B" stroke-width="0.5" stroke-miterlimit="10"/>
<path d="M122.2 143.8H110.1" stroke="#211C4B" stroke-width="0.5" stroke-miterlimit="10"/>
<path d="M122.2 142.2H110.8" stroke="#211C4B" stroke-width="0.5" stroke-miterlimit="10"/>
<path d="M122.2 140.7H111.7" stroke="#211C4B" stroke-width="0.5" stroke-miterlimit="10"/>
<path d="M123.5 138.8L112.8 138.7" stroke="#211C4B" stroke-width="0.5" stroke-miterlimit="10"/>
<path d="M125.2 137.3H114.3" stroke="#211C4B" stroke-width="0.5" stroke-miterlimit="10"/>
<path d="M126.9 135.9H115.8" stroke="#211C4B" stroke-width="0.5" stroke-miterlimit="10"/>
<path d="M125.7 134.4L117.4 134.6" stroke="#211C4B" stroke-width="0.5" stroke-miterlimit="10"/>
<path d="M124.8 132.7H119.1" stroke="#211C4B" stroke-width="0.5" stroke-miterlimit="10"/>
<path d="M123.3 131.3L120.6 131.2" stroke="#211C4B" stroke-width="0.5" stroke-miterlimit="10"/>
<path d="M139.7 126.4V129C139.7 129 135.3 128.6 131.8 133L131.4 132.4C131.4 132.4 135.5 125.8 139.7 126.4Z" fill="#211C4B" stroke="#13110C" stroke-width="0.5" stroke-miterlimit="10"/>
<path d="M133.4 124.8C133.4 124.8 131.4 128.8 128.4 130.2L127.8 129.1C127.8 129.1 131.6 127 131.9 124.9L133.4 124.8Z" fill="#211C4B" stroke="#13110C" stroke-width="0.5" stroke-miterlimit="10"/>
<path d="M137.6 124.8H135.1L129.9 131.5L137.6 124.8Z" fill="#211C4B" stroke="#13110C" stroke-width="0.5" stroke-miterlimit="10"/>
<path d="M134 133C135.9 133.4 135.5 132.1 135.5 132.1L130.2 126.3C130.2 126.3 128.8 126.2 128.7 126.9C128.7 127.6 134 133 134 133Z" fill="#211C4B" stroke="#13110C" stroke-width="0.5" stroke-miterlimit="10"/>
<path d="M113.4 171.8C113.4 171.8 116 172.7 114.3 174.8C114.3 174.8 112 176.9 109.5 173C109.5 173 108.2 168.6 104.6 168.3C104.6 168.3 98.2998 168.5 97.0998 167.6C97.0998 167.6 94.8997 165.5 95.2997 163.3C95.2997 163.3 90.5996 164.7 88.6996 160.6C88.6996 160.6 86.8996 155.3 85.6996 155C85.6996 155 82.9996 153.3 81.3996 156C81.3996 156 80.8998 159.4 84.5998 158.5" stroke="white" stroke-miterlimit="10"/>
<path d="M100 174C100.442 174 100.8 173.642 100.8 173.2C100.8 172.758 100.442 172.4 100 172.4C99.5584 172.4 99.2002 172.758 99.2002 173.2C99.2002 173.642 99.5584 174 100 174Z" fill="white" stroke="white" stroke-miterlimit="10"/>
<path d="M98.2998 163.9C98.2998 163.4 98.6997 163 99.1997 163C99.6997 163 100.1 163.4 100.1 163.9C100.1 164.4 99.6997 164.8 99.1997 164.8C98.6997 164.8 98.2998 164.4 98.2998 163.9Z" fill="white" stroke="white" stroke-miterlimit="10"/>
<path d="M91 159.5C91 159 91.3999 158.6 91.8999 158.6C92.3999 158.6 92.8 159 92.8 159.5C92.8 160 92.3999 160.4 91.8999 160.4C91.3999 160.3 91 159.9 91 159.5Z" fill="white" stroke="white" stroke-miterlimit="10"/>
<path d="M91.7998 166.2C91.7998 165.7 92.1997 165.3 92.6997 165.3C93.1997 165.3 93.5999 165.7 93.5999 166.2C93.5999 166.7 93.1997 167.1 92.6997 167.1C92.1997 167.1 91.7998 166.7 91.7998 166.2Z" fill="white" stroke="white" stroke-miterlimit="10"/>
<path d="M85 161.4C85 160.9 85.3999 160.5 85.8999 160.5C86.3999 160.5 86.8 160.9 86.8 161.4C86.8 161.9 86.3999 162.3 85.8999 162.3C85.3999 162.3 85 161.9 85 161.4Z" fill="white" stroke="white" stroke-miterlimit="10"/>
<path d="M109.1 172C109.1 172 108 177.1 105.8 176.2C105.8 176.2 102.4 175.4 103.3 172.9C103.3 172.9 104.2 171.2 105.3 172.4" stroke="white" stroke-miterlimit="10"/>
<path d="M52.7002 176.6C52.7002 176.6 54.5002 174.4 51.7002 173.5C51.7002 173.5 48.1003 173.1 48.8003 169.5C48.8003 169.5 53.0002 165.3 53.7002 163.7C53.7002 163.7 52.6002 161.1 54.5002 159.6C54.5002 159.6 57.3002 157.8 55.5002 154.3C55.5002 154.3 55.4003 148.4 58.8003 151.8" stroke="white" stroke-miterlimit="10"/>
<path d="M52.0002 169.6C52.0002 169.6 55.1002 171.2 51.7002 173.5" stroke="white" stroke-miterlimit="10"/>
<path d="M54 167.8C54 167.4 54.3 167.1 54.7 167.1C55.1 167.1 55.3999 167.4 55.3999 167.8C55.3999 168.2 55.1 168.5 54.7 168.5C54.3 168.5 54 168.2 54 167.8Z" fill="white" stroke="white" stroke-miterlimit="10"/>
<path d="M50.2002 163.3C50.2002 162.9 50.5001 162.6 50.9001 162.6C51.3001 162.6 51.6003 162.9 51.6003 163.3C51.6003 163.7 51.3001 164 50.9001 164C50.5001 164 50.2002 163.7 50.2002 163.3Z" fill="white" stroke="white" stroke-miterlimit="10"/>
<path d="M52.6001 157.2C52.6001 156.8 52.9 156.5 53.3 156.5C53.7 156.5 54 156.8 54 157.2C54 157.6 53.7 157.9 53.3 157.9C52.9 157.9 52.6001 157.6 52.6001 157.2Z" fill="white" stroke="white" stroke-miterlimit="10"/>
<path d="M57.2998 155.1C57.2998 154.8 57.4998 154.6 57.7998 154.6C58.0998 154.6 58.2998 154.8 58.2998 155.1C58.2998 155.4 58.0998 155.6 57.7998 155.6C57.4998 155.6 57.2998 155.4 57.2998 155.1Z" fill="white" stroke="white" stroke-miterlimit="10"/>
<path d="M99.2 183.7H96.1001L97.7 186.2L99.2 183.7Z" fill="#FFEA24"/>
<path d="M89.9998 185.4L92.1997 181.9H87.7998" fill="#FFEA24"/>
<path d="M81.2 185.1L83.2 181.9H79.1001" fill="#FFEA24"/>
<path d="M74.2998 183.8L75.8997 181.3H72.7998" fill="#FFEA24"/>
<path d="M66.7002 184.7L68.7002 181.5H64.7002" fill="#FFEA24"/>
<path d="M91.8 179.3L85 177.7L88.8 175.9L88.3999 177.6L91.8 179.3Z" fill="#FFEA24"/>
<path d="M86.8 174.1L80.8999 172.7L84.2 171.1L83.8 172.6L86.8 174.1Z" fill="#FFEA24"/>
<path d="M83.0999 169.7L77.2998 168.3L80.4998 166.8L80.1997 168.3L83.0999 169.7Z" fill="#FFEA24"/>
<path d="M78.9001 165.3L73.7002 164L76.6003 162.7L76.3003 164L78.9001 165.3Z" fill="#FFEA24"/>
<path d="M75.8003 161.5L71.7002 160.6L74.0002 159.5L73.7002 160.5L75.8003 161.5Z" fill="#FFEA24"/>
<path d="M72.8999 158.2L70.5 157.6L71.8999 157L71.7 157.6L72.8999 158.2Z" fill="#FFEA24"/>
<path d="M60.7002 181.3L65.3003 176L61.2002 176.8L62.5002 178L60.7002 181.3Z" fill="#FFEA24"/>
<path d="M60.7002 175L64.7002 170.3L61.1003 171L62.2002 172L60.7002 175Z" fill="#FFEA24"/>
<path d="M61.2998 169L64.6997 165L61.6997 165.6L62.5999 166.5L61.2998 169Z" fill="#FFEA24"/>
<path d="M62.7002 163.2L65.0002 160.4L62.9001 160.8L63.6003 161.4L62.7002 163.2Z" fill="#FFEA24"/>
<path d="M63.2002 159.1L64.9001 157.2L63.4001 157.5L63.9001 157.9L63.2002 159.1Z" fill="#FFEA24"/>
<path d="M74.8003 180.2L80.9001 177.2L73.7002 176.3L75.8003 178L74.8003 180.2Z" fill="#FFEA24"/>
<path d="M73.7002 180.2L67.7002 179.3L72.2002 176.3L71.7002 178.7L73.7002 180.2Z" fill="#FFEA24"/>
<path d="M72.5999 175L77.1997 172.8L71.7998 172.1L73.3997 173.4L72.5999 175Z" fill="#FFEA24"/>
<path d="M71.7998 175L67.2998 174.4L70.6997 172.1L70.2998 173.9L71.7998 175Z" fill="#FFEA24"/>
<path d="M70.9001 170.2L74.6003 168.4L70.2002 167.8L71.5002 168.8L70.9001 170.2Z" fill="#FFEA24"/>
<path d="M70.2 170.2L66.3999 169.7L69.3 167.8L69 169.3L70.2 170.2Z" fill="#FFEA24"/>
<path d="M69.2002 166L72.2002 164.6L68.7002 164.1L69.7002 164.9L69.2002 166Z" fill="#FFEA24"/>
<path d="M68.6997 166L65.7998 165.6L67.9998 164.1L67.6997 165.3L68.6997 166Z" fill="#FFEA24"/>
<path d="M68.6997 162.3L70.8997 161.2L68.2998 160.8L69.0999 161.5L68.6997 162.3Z" fill="#FFEA24"/>
<path d="M68.3 162.3L66.1001 161.9L67.8 160.8L67.6001 161.7L68.3 162.3Z" fill="#FFEA24"/>
<path d="M67.9001 159L69.3003 158.4L67.7002 158.2L68.2002 158.5L67.9001 159Z" fill="#FFEA24"/>
<path d="M67.6997 159L66.2998 158.8L67.3997 158.2L67.2998 158.7L67.6997 159Z" fill="#FFEA24"/>
<path d="M67.1001 156.5L68.3 155.9L66.8999 155.8L67.3 156.1L67.1001 156.5Z" fill="#FFEA24"/>
<path d="M66.9001 156.5L65.7002 156.4L66.6003 155.8L66.5002 156.2L66.9001 156.5Z" fill="#FFEA24"/>
<path d="M100.7 152.4C100.7 152.4 99.8001 156.2 97.1001 153C97.1001 153 93.5999 148.8 91.8999 148.3C91.8999 148.3 90.4001 145 85.1001 144.9C84.5001 144.9 83.9 144.9 83.2 145C83.2 145 78.2 143.2 74.7 137.2C74.7 137.2 69.7999 132.6 65.8999 131.1" stroke="#13110C" stroke-miterlimit="10"/>
<path d="M81.3999 142.1C81.3999 142.1 85.2 137.5 85 145" stroke="#13110C" stroke-miterlimit="10"/>
<path d="M81.8997 140.8C82.4997 140.4 83.0998 140.4 83.2998 140.6C83.3998 140.8 83.0998 141.3 82.4998 141.7C81.8998 142.1 81.2999 142.1 81.0999 141.9C80.8999 141.7 81.2997 141.2 81.8997 140.8Z" fill="#13110C" stroke="#13110C" stroke-miterlimit="10"/>
<path d="M89.6002 148.8C90.3002 148 91.2001 147.6 91.5001 148C91.8001 148.3 91.5 149.2 90.7 150C90 150.8 89.1001 151.2 88.8001 150.8C88.5001 150.4 88.8002 149.5 89.6002 148.8Z" fill="#13110C" stroke="#13110C" stroke-miterlimit="10"/>
<path d="M75.2002 138.2C75.2002 138.2 79.6003 136.9 77.3003 135.5" stroke="#13110C" stroke-miterlimit="10"/>
<path d="M77.3996 135C77.7996 135.3 77.8997 135.7 77.7997 135.9C77.6997 136 77.2996 135.9 76.8996 135.6C76.5996 135.3 76.3997 134.9 76.4997 134.7C76.6997 134.5 77.0996 134.6 77.3996 135Z" fill="#13110C" stroke="#13110C" stroke-miterlimit="10"/>
<path d="M60 131.6C60 131.6 53.0999 135.2 52.3999 140.9C52.3999 140.9 51.4 150.4 48.7 151.5C48.7 151.5 42.3 153.4 43.2 157.2C43.2 157.2 44.2999 164.2 40.8999 163.9" stroke="#13110C" stroke-miterlimit="10"/>
<path d="M44.8997 158C45.5072 158 45.9998 157.507 45.9998 156.9C45.9998 156.292 45.5072 155.8 44.8997 155.8C44.2921 155.8 43.7998 156.292 43.7998 156.9C43.7998 157.507 44.2921 158 44.8997 158Z" fill="#13110C" stroke="#13110C" stroke-miterlimit="10"/>
<path d="M46.8 149.1C47.2971 149.1 47.7 148.697 47.7 148.2C47.7 147.703 47.2971 147.3 46.8 147.3C46.303 147.3 45.8999 147.703 45.8999 148.2C45.8999 148.697 46.303 149.1 46.8 149.1Z" fill="#13110C" stroke="#13110C" stroke-miterlimit="10"/>
<path d="M49.2998 143.4C49.2998 142.9 49.6997 142.5 50.1997 142.5C50.6997 142.5 51.0999 142.9 51.0999 143.4C51.0999 143.9 50.6997 144.3 50.1997 144.3C49.6997 144.3 49.2998 143.9 49.2998 143.4Z" fill="#13110C" stroke="#13110C" stroke-miterlimit="10"/>
<path d="M54 142.9C54.6075 142.9 55.1001 142.408 55.1001 141.8C55.1001 141.192 54.6075 140.7 54 140.7C53.3925 140.7 52.8999 141.192 52.8999 141.8C52.8999 142.408 53.3925 142.9 54 142.9Z" fill="#13110C" stroke="#13110C" stroke-miterlimit="10"/>
<path d="M47.1001 152.1C47.1001 152.1 45.4 149.7 46.8 148.1" stroke="#13110C" stroke-miterlimit="10"/>
<path d="M45.8999 138.8L40.8999 146.7" stroke="white" stroke-miterlimit="10"/>
<path d="M61.4001 124.8L56.0002 131.2C52.5002 135.3 49.8003 139 49.8003 139C49.8003 139 39.9002 136.8 29.7002 137V133.4C29.7002 133.4 44.2002 133.4 48.5002 135.2L56.9001 124.7H61.4001V124.8Z" fill="#FFEA24" stroke="#13110C" stroke-miterlimit="10"/>
<path d="M90.6003 124.8H29.7002" stroke="#13110C" stroke-miterlimit="10"/>
<path d="M56.8999 124.8H50.8999L34.3999 124.6L29.6001 131.7V133.4C29.6001 133.4 41.3999 133.1 48.3999 135.2L56.8999 124.8Z" fill="white" stroke="#13110C" stroke-miterlimit="10"/>
<path d="M48.2 124.6C47 125.9 47.1002 128.7 47.1002 128.7H49.1002C49.1002 128.7 49.0001 125.4 49.5001 124.6H48.2Z" fill="#211C4B" stroke="#13110C" stroke-width="0.5" stroke-miterlimit="10"/>
<path d="M46.1001 124.7L43.7 128.9L40.5 129.5L40.8 126.4L44.3999 124.6L46.1001 124.7Z" fill="#211C4B" stroke="#13110C" stroke-width="0.5" stroke-miterlimit="10"/>
<path d="M104.8 150.5C94.8 146 80.5 135.1 80.5 135.1H110.9C110.8 135 105.3 140.2 104.8 150.5Z" fill="#13110C" stroke="#13110C" stroke-miterlimit="10"/>
<path d="M104.6 137.3L101.7 146.3L87.7002 137.3H104.6Z" stroke="white" stroke-miterlimit="10"/>
<path d="M101.7 139.3L100.4 143.3L94.2002 139.3H101.7Z" stroke="white" stroke-miterlimit="10"/>
<path d="M111.3 134.8L114.6 131.6L75.7998 131.3L80.1997 134.8H111.3Z" fill="#FFEA24" stroke="#13110C" stroke-miterlimit="10"/>
<path d="M114.6 131.6L117.4 128.9L58.6001 128.7L56 131.3L114.6 131.6Z" fill="#E31013" stroke="#13110C" stroke-miterlimit="10"/>
<path d="M117.4 128.9L121.7 124.8H119.1H61.3999L58.6001 128.7L117.4 128.9Z" fill="#13110C" stroke="#13110C" stroke-miterlimit="10"/>
<path d="M112.8 124.8L115.8 127.5L118.2 124.8H112.8Z" fill="white" stroke="white" stroke-width="0.2" stroke-miterlimit="10"/>
<path d="M104.6 124.8L107.6 127.5L110 124.8H104.6Z" fill="white" stroke="white" stroke-width="0.2" stroke-miterlimit="10"/>
<path d="M96.2002 125L99.2002 127.6L101.5 125H96.2002Z" fill="white" stroke="white" stroke-width="0.2" stroke-miterlimit="10"/>
<path d="M87.7998 124.9L90.7998 127.6L93.1997 124.9H87.7998Z" fill="white" stroke="white" stroke-width="0.2" stroke-miterlimit="10"/>
<path d="M79.6001 124.9L82.6001 127.6L85 124.9H79.6001Z" fill="white" stroke="white" stroke-width="0.2" stroke-miterlimit="10"/>
<path d="M71.2002 125.1L74.2002 127.7L76.5002 125.1H71.2002Z" fill="white" stroke="white" stroke-width="0.2" stroke-miterlimit="10"/>
<path d="M63 125.1L66 127.7L68.3999 125.1H63Z" fill="white" stroke="white" stroke-width="0.2" stroke-miterlimit="10"/>
<path d="M156.8 228.6C157.6 228.6 158.2 228.6 158.6 228.7C159 228.8 159.4 229 159.8 229.3C160.7 228.6 161.6 228.2 162.7 228.2C163.8 228.2 164.8 228.6 165.7 229.4C166.6 230.2 167.1 231.2 167.1 232.3V233.9H168.3V235.9C168.3 235.9 167.9 235.9 167.1 236V242.2C167.1 243.3 166.6 244.3 165.7 245.2C164.8 246 163.8 246.4 162.7 246.4C161.6 246.4 160.5 246 159.6 245.2C158.7 244.4 158.2 243.4 158.2 242.3V232.4C158.2 231.9 158.3 231.5 158.5 231C158.3 230.9 158.1 230.8 158 230.7H156.8V228.6ZM165 236.1C164.1 236 163.3 235.6 162.4 234.9C161.9 234.5 161.2 233.8 160.4 232.9V242.3C160.4 242.8 160.6 243.3 161.1 243.7C161.6 244.1 162.1 244.3 162.7 244.3C163.3 244.3 163.8 244.1 164.3 243.7C164.8 243.3 165 242.8 165 242.3V236.1ZM161.4 230.9L164.1 233.6C164.3 233.8 164.6 234 165 234V232.5C165 232 164.8 231.6 164.3 231.1C163.8 230.7 163.3 230.5 162.7 230.5C162.2 230.5 161.8 230.6 161.4 230.9Z" fill="#13110C"/>
<path d="M22.2998 24.3C21.4998 24.3 20.8998 24.3 20.4998 24.2C20.0998 24.1 19.6998 23.9 19.2998 23.6C18.3998 24.3 17.4997 24.7 16.3997 24.7C15.2997 24.7 14.2997 24.3 13.3997 23.5C12.4997 22.7 11.9998 21.7 11.9998 20.6V19H10.7998V17C10.7998 17 11.1998 17 11.9998 16.9V10.7C11.9998 9.59998 12.4997 8.59998 13.3997 7.69998C14.2997 6.89998 15.2997 6.5 16.3997 6.5C17.4997 6.5 18.5998 6.89998 19.4998 7.69998C20.3998 8.49998 20.8997 9.49998 20.8997 10.6V20.5C20.8997 21 20.7999 21.4 20.5999 21.9C20.7999 22 20.9999 22.1 21.0999 22.2H22.2998V24.3ZM14.0999 16.9C14.9999 17 15.7997 17.4 16.6997 18.1C17.1997 18.5 17.8997 19.2 18.6997 20.1V10.7C18.6997 10.2 18.4998 9.69999 17.9998 9.29999C17.4998 8.89999 16.9997 8.69998 16.3997 8.69998C15.7997 8.69998 15.2998 8.89999 14.7998 9.29999C14.2998 9.69999 14.0999 10.2 14.0999 10.7V16.9ZM17.6997 22.1L14.9998 19.4C14.7998 19.2 14.4999 19 14.0999 19V20.5C14.0999 21 14.2998 21.4 14.7998 21.9C15.2998 22.3 15.7997 22.5 16.3997 22.5C16.7997 22.5 17.2997 22.4 17.6997 22.1Z" fill="#13110C"/>
</svg>
