<svg width="181" height="254" viewBox="0 0 181 254" fill="none" xmlns="http://www.w3.org/2000/svg">
<path d="M180.1 231.4C180.1 243.2 173.3 252.8 164.9 252.8H16.6001C8.2001 252.8 1.3999 243.2 1.3999 231.4V22.3002C1.3999 10.5002 8.2001 0.900146 16.6001 0.900146H164.9C173.3 0.900146 180.1 10.5002 180.1 22.3002V231.4Z" fill="white" stroke="#1D1D1B" stroke-miterlimit="10"/>
<path d="M66 127.1H89L148.5 127.5L148.3 120.9C142.1 108.9 125.5 89.8002 125.5 89.8002C110 112 111.3 127.2 111.3 127.2" fill="#211C4B"/>
<path d="M66 127.1H89L148.5 127.5L148.3 120.9C142.1 108.9 125.5 89.8002 125.5 89.8002C110 112 111.3 127.2 111.3 127.2" stroke="#13110C" stroke-miterlimit="10"/>
<path d="M144.9 122L146.1 126L142.7 123.3L144.9 122Z" fill="#FFEA24"/>
<path d="M79.2002 126.7L79.7002 119.6L99.1003 119.9L98.1003 127.1L79.2002 126.7Z" fill="#13110C" stroke="#13110C" stroke-miterlimit="10"/>
<path d="M79.7002 123.4L82.5002 126.5" stroke="white" stroke-width="2" stroke-miterlimit="10"/>
<path d="M93.1001 126.9L90 122.9L86 126.6" stroke="white" stroke-width="2" stroke-miterlimit="10"/>
<path d="M95.2998 127L98.3997 123.6" stroke="white" stroke-width="2" stroke-miterlimit="10"/>
<path d="M29.5 127.1H66C66 127.1 68.1 113.6 60.2 93.5002C60.2 93.5002 36.9 102.3 29.5 110.3V127.1Z" fill="#211C4B" stroke="#13110C" stroke-miterlimit="10"/>
<path d="M11.7998 23.7002H13.3997V9.90015H11.7998V8.00018H16.6997V9.90015H15.2998V16.6002L19.5999 9.90015H17.8997V8.00018H23.2998V9.90015H21.7998L18.2998 15.3002L21.8997 23.6002H23.3997V25.5002H17.9998V23.6002H19.6997L16.9998 17.3002L15.2998 19.9001V23.6002H16.6997V25.5002H11.7998V23.7002Z" fill="#E30B13"/>
<path d="M169.1 229.7H167.5V243.5H169.1V245.4H164.2V243.5H165.6V236.8L161.3 243.5H163V245.4H157.6V243.5H159.1L162.6 238.1L159 229.8H157.5V227.9H162.9V229.8H161.2L163.9 236.1L165.6 233.5V229.8H164.2V227.9H169.1V229.7Z" fill="#E30B13"/>
<path d="M148.5 30.3002H29.5V223.9H148.5V30.3002Z" stroke="#13110C" stroke-miterlimit="10"/>
<path d="M62.3999 30.3002L71.3999 43.1002C71.3999 43.1002 80.0001 39.0001 91.1001 41.9001C91.1001 41.9001 109.2 48.0002 113 48.6002C113 48.6002 118.2 49.1002 120.1 48.2002C120.1 48.2002 123.4 37.5002 130.8 30.3002H62.3999Z" fill="#FFEA24" stroke="#13110C" stroke-miterlimit="10"/>
<path d="M71.3999 43.0002L72.8 45.2002C72.8 45.2002 86 40.4002 97.8 47.6002C97.8 47.6002 110.2 52.9002 119.2 52.1002L120.2 48.1002C120.2 48.1002 115.7 50.5002 101.8 45.2002C101.8 45.2002 88.2001 40.1002 84.1001 40.7002C84.1001 40.8002 76.6999 39.7002 71.3999 43.0002Z" fill="#E31013" stroke="#13110C" stroke-miterlimit="10"/>
<path d="M72.7998 45.2002L73.9998 48.6002C73.9998 48.6002 82.6998 44.6002 95.7998 50.1002C95.7998 50.1002 112.2 57.3002 119.1 56.0002L119.3 52.0002C119.3 52.0002 108.9 52.3002 98.8997 47.9002C88.8997 43.5002 86.9997 43.0002 79.6997 43.7002C72.3997 44.6002 72.7998 45.2002 72.7998 45.2002Z" fill="#13110C" stroke="#13110C" stroke-miterlimit="10"/>
<path d="M70.5 40.0002C70.5 40.0002 75.1001 39.7001 78.1001 38.4001" stroke="#231E48" stroke-miterlimit="10"/>
<path d="M79.5 38.0002C79.5 38.0002 85.2 41.1001 88.2 37.9001" stroke="#231E48" stroke-miterlimit="10"/>
<path d="M89.5 37.5002C89.5 37.5002 91.9 40.7002 95.8 39.5002" stroke="#231E48" stroke-miterlimit="10"/>
<path d="M98.5 39.8002C98.5 39.8002 102.2 43.6002 106.1 41.2002" stroke="#231E48" stroke-miterlimit="10"/>
<path d="M107.7 41.5002C107.7 41.5002 110.5 45.6002 115.5 43.6002" stroke="#231E48" stroke-miterlimit="10"/>
<path d="M117.3 43.6002C117.3 43.6002 119.5 44.7002 120.8 45.0002" stroke="#231E48" stroke-miterlimit="10"/>
<path d="M79.7 38.3002C79.7 38.8002 79.3 39.2002 78.8 39.2002C78.3 39.2002 77.8999 38.8002 77.8999 38.3002C77.8999 37.8002 78.3 37.4001 78.8 37.4001C79.3 37.4001 79.7 37.8002 79.7 38.3002Z" stroke="#231E48" stroke-miterlimit="10"/>
<path d="M89.8999 37.5002C89.8999 38.0002 89.5 38.4001 89 38.4001C88.5 38.4001 88.1001 38.0002 88.1001 37.5002C88.1001 37.0002 88.5 36.6002 89 36.6002C89.5 36.6002 89.8999 37.0002 89.8999 37.5002Z" stroke="#231E48" stroke-miterlimit="10"/>
<path d="M98.0999 39.8002C98.0999 40.3002 97.6997 40.7002 97.1997 40.7002C96.6997 40.7002 96.2998 40.3002 96.2998 39.8002C96.2998 39.3002 96.6997 38.9001 97.1997 38.9001C97.6997 38.8001 98.0999 39.3002 98.0999 39.8002Z" stroke="#231E48" stroke-miterlimit="10"/>
<path d="M107.7 41.5002C107.7 42.0002 107.3 42.4001 106.8 42.4001C106.3 42.4001 105.9 42.0002 105.9 41.5002C105.9 41.0002 106.3 40.6002 106.8 40.6002C107.3 40.6002 107.7 41.0002 107.7 41.5002Z" stroke="#231E48" stroke-miterlimit="10"/>
<path d="M117.3 43.6002C117.3 44.1002 116.9 44.5002 116.4 44.5002C115.9 44.5002 115.5 44.1002 115.5 43.6002C115.5 43.1002 115.9 42.7002 116.4 42.7002C116.9 42.7002 117.3 43.1002 117.3 43.6002Z" stroke="#231E48" stroke-miterlimit="10"/>
<path d="M69.7998 38.4001C69.7998 38.4001 74.0997 38.1002 75.3997 36.6002" stroke="#231E48" stroke-miterlimit="10"/>
<path d="M81.8999 36.3002C81.8999 36.3002 85 38.0002 86.5 36.5002" stroke="#231E48" stroke-miterlimit="10"/>
<path d="M91.6001 36.3002C91.6001 36.3002 93.7 38.5001 95.8 37.9001" stroke="#231E48" stroke-miterlimit="10"/>
<path d="M99.7002 38.6002C99.7002 38.6002 102.8 41.0002 104.7 39.7002" stroke="#231E48" stroke-miterlimit="10"/>
<path d="M109.6 40.1002C109.6 40.1002 111.5 43.1002 114.7 42.0002" stroke="#231E48" stroke-miterlimit="10"/>
<path d="M89.5002 34.3002C89.5002 34.8002 89.1003 35.2002 88.6003 35.2002C88.1003 35.2002 87.7002 34.8002 87.7002 34.3002C87.7002 33.8002 88.1003 33.4001 88.6003 33.4001C89.1003 33.4001 89.5002 33.8002 89.5002 34.3002Z" stroke="#231E48" stroke-miterlimit="10"/>
<path d="M108.6 38.2002C108.6 38.7002 108.2 39.1002 107.7 39.1002C107.2 39.1002 106.8 38.7002 106.8 38.2002C106.8 37.7002 107.2 37.3002 107.7 37.3002C108.2 37.3002 108.6 37.7002 108.6 38.2002Z" stroke="#231E48" stroke-miterlimit="10"/>
<path d="M79.1997 34.0002C79.1997 35.5002 78.8998 36.6002 78.4998 36.6002C78.0998 36.6002 77.7998 35.4002 77.7998 34.0002C77.7998 32.5002 78.0998 31.4002 78.4998 31.4002C78.8998 31.3002 79.1997 32.5002 79.1997 34.0002Z" fill="#231E48"/>
<path d="M82.1997 35.5002C80.9997 36.3002 79.7999 36.6002 79.5999 36.3002C79.3999 36.0002 80.1998 35.0002 81.4998 34.3002C82.6998 33.5002 83.8999 33.2002 84.0999 33.5002C84.2999 33.8002 83.4997 34.7002 82.1997 35.5002Z" fill="#231E48"/>
<path d="M75.3999 34.5002C76.5999 35.4002 77.4001 36.3002 77.1001 36.6002C76.9001 36.9002 75.7 36.5002 74.5 35.7002C73.3 34.8002 72.5001 33.9002 72.8001 33.6002C73.1001 33.2002 74.1999 33.7002 75.3999 34.5002Z" fill="#231E48"/>
<path d="M99.7001 34.9002C99.3001 36.4002 98.7002 37.5002 98.3002 37.4002C97.9002 37.3002 97.9001 36.0002 98.2001 34.5002C98.6001 33.0002 99.2003 31.9002 99.6003 32.0002C100.1 32.1002 100.1 33.4002 99.7001 34.9002Z" fill="#231E48"/>
<path d="M102.3 37.2002C100.8 37.7002 99.5999 37.7002 99.3999 37.3002C99.2999 36.9002 100.3 36.2002 101.8 35.7002C103.3 35.2002 104.5 35.2002 104.7 35.6002C104.9 36.0002 103.8 36.7002 102.3 37.2002Z" fill="#231E48"/>
<path d="M95.7002 34.4002C96.7002 35.6002 97.2002 36.7002 96.9002 37.0002C96.6002 37.3002 95.5003 36.5002 94.5003 35.4002C93.5003 34.2002 93.0003 33.1002 93.3003 32.8002C93.7003 32.5002 94.7002 33.2002 95.7002 34.4002Z" fill="#231E48"/>
<path d="M118.1 37.7002C117.8 39.2002 117.2 40.4001 116.8 40.4001C116.4 40.3001 116.3 39.0001 116.6 37.4001C116.9 35.9001 117.5 34.7002 117.9 34.7002C118.3 34.8002 118.4 36.1002 118.1 37.7002Z" fill="#231E48"/>
<path d="M120.9 39.9002C119.4 40.5002 118.1 40.6002 117.9 40.2002C117.7 39.8002 118.8 39.0002 120.3 38.4002C121.8 37.8002 123.1 37.7002 123.3 38.1002C123.5 38.5002 122.4 39.3002 120.9 39.9002Z" fill="#231E48"/>
<path d="M113.9 37.5002C115 38.6002 115.6 39.8002 115.3 40.1002C115 40.4002 113.8 39.7002 112.8 38.6002C111.7 37.5002 111.1 36.3002 111.4 36.0002C111.7 35.6002 112.8 36.3002 113.9 37.5002Z" fill="#231E48"/>
<path d="M118 41.5002C118 41.5002 119 43.0001 121.2 42.4001" stroke="#231E48" stroke-miterlimit="10"/>
<path d="M94.8002 72.1002C94.1002 71.2002 92.9001 65.4001 92.9001 65.4001C90.6001 58.1001 93.7001 49.3002 93.7001 49.3002L103.6 53.2002C113.8 56.8002 119.6 56.2002 119.6 56.2002C119.6 56.2002 120.4 65.8002 123.3 68.8002C123.3 68.8002 125.9 74.2002 124.7 80.2002L123.9 84.2002H93.1003C93.1003 84.2002 86.9002 82.6002 88.5002 76.2002C88.5002 76.2002 89.3001 70.4002 93.9001 72.0002L94.8002 72.1002Z" fill="#AFA3C7" stroke="#13120D" stroke-miterlimit="10"/>
<path d="M93.3002 49.2002C93.2002 50.7002 92.2001 56.2002 92.2001 56.2002C91.2001 61.5002 93.9001 69.8002 93.9001 69.8002C95.8001 73.2002 93.1003 71.7002 93.1003 71.7002C88.4003 71.4002 88.4001 78.7002 88.4001 78.7002H73.4001C71.9001 78.6002 72.5002 77.9001 72.5002 77.9001C74.9002 75.9001 73.7001 75.5002 73.7001 75.5002C71.9001 75.3002 72.8002 72.9001 72.8002 72.9001C71.7002 72.9001 71.5002 70.2002 71.5002 70.2002C72.5002 69.6002 71.9001 67.8002 71.9001 67.8002C67.1001 66.7002 69.7001 63.0002 69.7001 63.0002C71.8001 61.3002 74.0002 54.6002 74.0002 54.6002C72.6002 51.7002 74.0002 48.6002 74.0002 48.6002C74.0002 48.6002 82.8002 45.1002 93.3002 49.2002Z" fill="#FED68A" stroke="#13110C" stroke-miterlimit="10"/>
<path d="M76.6001 49.9002C76.6001 49.9002 84.7 49.8002 88.3 54.1002" stroke="#13110C" stroke-miterlimit="10"/>
<path d="M84.1002 55.2002C79.0002 52.3002 76.6002 54.3002 76.6002 54.3002C76.6002 54.3002 75.3 58.5002 84.2 56.7002C84.2 56.6002 85.4002 55.9002 84.1002 55.2002Z" stroke="#13110C" stroke-miterlimit="10"/>
<path d="M80.6003 57.8002C80.6003 57.8002 78.3002 60.1001 77.2002 60.4001" stroke="#13110C" stroke-miterlimit="10"/>
<path d="M81.5 55.2002C81.5 55.5002 80.7 55.8002 79.8 55.8002C78.9 55.8002 78.1001 55.5002 78.1001 55.2002C78.1001 54.9002 78.9 54.6002 79.8 54.6002C80.7 54.6002 81.5 54.9002 81.5 55.2002Z" fill="#13110C" stroke="#13110C" stroke-miterlimit="10"/>
<path d="M72.2002 67.1002C72.2002 67.1002 75.8003 67.3001 76.6003 66.4001" stroke="#13110C" stroke-miterlimit="10"/>
<path d="M74.3999 68.9001C74.3999 68.9001 78.3001 67.9002 81.1001 72.3002C81.1001 72.3002 84.1 74.9002 86.3 72.7002C86.3 72.7002 88.1 69.8001 84.7 68.9001C84.7 68.9001 82.3 69.0002 83.5 71.3002C83.5 71.3002 84.3 71.9002 85.2 71.3002" stroke="#13110C" stroke-miterlimit="10"/>
<path d="M72.7998 73.0002C72.7998 73.0002 77.0997 73.4002 77.1997 72.7002" stroke="#13110C" stroke-miterlimit="10"/>
<path d="M73.2002 72.7002H75.2002" stroke="#13110C" stroke-miterlimit="10"/>
<path d="M72.8004 78.7002C72.8004 78.7002 70.5004 81.1002 70.3004 79.3002C70.1004 77.5002 65.8004 76.0002 64.0004 78.8002C64.0004 78.8002 61.5003 84.2001 65.9003 84.9001H84.2003H90.9003C90.9003 84.9001 92.4004 84.7002 93.0004 84.1002C93.0004 84.1002 88.8005 82.1002 88.6005 78.8002L72.8004 78.7002Z" fill="#AFA3C7" stroke="#13120D" stroke-miterlimit="10"/>
<path d="M95.0998 77.2002C95.0998 77.2002 94.0997 75.0001 92.6997 76.4001C91.2997 77.8001 92.7997 79.7002 93.6997 80.2002C94.5997 80.7002 97.5997 80.5001 97.1997 75.4001C96.7997 70.3001 94.6997 65.7002 94.6997 63.6002C94.6997 61.5002 93.8998 56.6002 95.0998 52.1002" stroke="#13110C" stroke-width="0.5" stroke-miterlimit="10"/>
<path d="M95.1001 75.1002C95.1001 75.1002 92.4001 73.7002 91.6001 76.3002C90.8001 78.9002 91.9 81.4002 93.3 82.1002C94.6 82.8002 99.1 82.9001 99 77.4001C99 71.8001 98.1 69.7002 97.3 68.0002C96.5 66.3002 95.6999 58.7002 96.3999 53.1002" stroke="#13110C" stroke-width="0.5" stroke-miterlimit="10"/>
<path d="M94.6 77.2002C94.6 77.2002 92.8999 77.1002 93.6999 78.0002C94.4999 78.9002 95.1 79.4002 95.8 78.4002" stroke="#13110C" stroke-width="0.5" stroke-miterlimit="10"/>
<path d="M93.7 73.6002C93.7 73.6002 89.8999 73.2002 89.8999 78.2002C89.8999 78.2002 90.7 85.5001 99.5 81.9001C99.5 81.9001 102.6 79.1001 100 70.9001C97.4 62.7001 97.1 54.6002 98 53.0002" stroke="#13110C" stroke-width="0.5" stroke-miterlimit="10"/>
<path d="M101 82.8002C101 82.8002 105 75.7002 102.3 71.2002C99.5997 66.7002 98.9997 54.9002 99.7997 53.6002" stroke="#13110C" stroke-width="0.5" stroke-miterlimit="10"/>
<path d="M103.2 82.8002C103.2 82.8002 106.9 75.7001 105.2 71.9001C103.5 68.1001 100.5 60.1002 102.1 54.6002" stroke="#13110C" stroke-width="0.5" stroke-miterlimit="10"/>
<path d="M105.8 82.8002C105.8 82.8002 109.5 75.8002 107.6 71.2002C105.7 66.6002 103.8 59.5002 104.7 57.0002L105.2 55.3002" stroke="#13110C" stroke-width="0.5" stroke-miterlimit="10"/>
<path d="M108.1 82.8002C108.1 82.8002 111.8 75.8002 109.9 71.2002C108 66.6002 106.1 59.5002 107 57.0002" stroke="#13110C" stroke-width="0.5" stroke-miterlimit="10"/>
<path d="M110.7 82.8002C110.7 82.8002 114.4 75.8002 112.5 71.2002C110.6 66.6002 108.7 59.5002 109.6 57.0002" stroke="#13110C" stroke-width="0.5" stroke-miterlimit="10"/>
<path d="M113.5 82.8002C113.5 82.8002 117.2 75.8002 115.3 71.2002C113.4 66.6002 111.5 59.5002 112.4 57.0002" stroke="#13110C" stroke-width="0.5" stroke-miterlimit="10"/>
<path d="M115.9 82.8002C115.9 82.8002 119.6 75.8002 117.7 71.2002C115.8 66.6002 113.9 59.5002 114.8 57.0002" stroke="#13110C" stroke-width="0.5" stroke-miterlimit="10"/>
<path d="M118.5 83.6002C118.5 83.6002 122.2 76.6002 120.3 72.0002C118.4 67.4002 116.5 60.3002 117.4 57.8002" stroke="#13110C" stroke-width="0.5" stroke-miterlimit="10"/>
<path d="M120.2 83.6002C120.2 83.6002 123.9 76.6002 122 72.0002C120.1 67.4002 118.2 60.3002 119.1 57.8002" stroke="#13110C" stroke-width="0.5" stroke-miterlimit="10"/>
<path d="M67.8002 80.5002C67.8002 80.5002 66.8002 79.3002 66.1002 80.5002C65.4002 81.7002 67.8002 83.5002 69.8002 82.3002C71.8002 81.1002 73.2001 79.5002 73.2001 79.5002" stroke="#13110C" stroke-width="0.5" stroke-miterlimit="10"/>
<path d="M68.5998 81.1002C68.5998 81.1002 69.8998 79.2002 67.0998 78.8002C64.2998 78.4002 64.5997 82.0002 64.9997 82.4002C64.9997 82.4002 68.0997 85.1002 70.4997 82.9002L74.2997 80.0002" stroke="#13110C" stroke-width="0.5" stroke-miterlimit="10"/>
<path d="M72.2002 83.6002L75.8003 80.0002" stroke="#13110C" stroke-width="0.5" stroke-miterlimit="10"/>
<path d="M74.3999 83.6002L78 80.0002" stroke="#13110C" stroke-width="0.5" stroke-miterlimit="10"/>
<path d="M76.7002 83.6002L80.3003 80.0002" stroke="#13110C" stroke-width="0.5" stroke-miterlimit="10"/>
<path d="M79.2002 83.6002L82.9001 80.0002" stroke="#13110C" stroke-width="0.5" stroke-miterlimit="10"/>
<path d="M82 83.6002L85.6001 80.0002" stroke="#13110C" stroke-width="0.5" stroke-miterlimit="10"/>
<path d="M84.1001 84.1002L87.8 80.6002" stroke="#13110C" stroke-width="0.5" stroke-miterlimit="10"/>
<path d="M86.7998 84.1002L88.5999 81.8002" stroke="#13110C" stroke-width="0.5" stroke-miterlimit="10"/>
<path d="M148.5 88.4001V41.5002L142.4 47.8002V85.9001L148.5 88.4001Z" fill="#E31013" stroke="#13110C" stroke-miterlimit="10"/>
<path d="M142.4 85.9001L139.6 84.9001V46.8002L148.5 37.1002V41.5002L142.4 47.8002V85.9001Z" fill="#FFEA24" stroke="#13110C" stroke-miterlimit="10"/>
<path d="M134 57.1002L136.2 61.0002C134.3 62.8002 133.6 67.7002 133.6 67.7002L139.3 63.5002L139.6 57.2002V50.9001L134.1 46.4001C134.1 46.4001 134.6 51.4002 136.4 53.2002L134 57.1002Z" fill="#8B92C8" stroke="#13110C" stroke-miterlimit="10"/>
<path d="M134 57.1002L136.4 60.9001C134.2 63.7001 134.1 67.7002 134.1 67.7002C132.6 68.9002 131 74.0002 131 74.0002C129.3 69.4002 133.6 60.5002 133.6 60.5002L130.6 57.0002L133.6 53.5002C133.6 53.5002 129.3 44.7002 131 40.0002C131 40.0002 132.6 45.1002 134.1 46.3002C134.1 46.3002 134.2 50.4002 136.4 53.1002L134 57.1002Z" fill="#FFEA24" stroke="#13110C" stroke-miterlimit="10"/>
<path d="M130.5 71.4001C121 55.7001 130.5 40.9001 130.5 40.9001C130.5 40.9001 130.4 47.9001 132 49.9001L133.5 53.6002L130.5 57.1002L133.5 60.6002C133.5 60.5002 130.5 68.9001 130.5 71.4001Z" stroke="#13110C" stroke-miterlimit="10"/>
<path d="M36.5003 95.2002C36.5003 95.2002 31.8002 88.7002 32.9002 83.7002C32.9002 83.7002 33.5004 82.0002 34.8004 83.5002C34.8004 83.5002 33.7003 79.7002 36.0003 80.8002C36.0003 80.8002 34.8004 76.9001 37.8004 78.1001C37.8004 78.1001 38.7004 75.2001 41.3004 77.9001L44.3004 82.2002C44.3004 82.2002 46.0003 83.0002 45.5003 78.7002C45.5003 78.7002 46.7004 75.2001 48.6004 78.4001C48.6004 78.4001 49.4004 82.4002 51.1004 83.5002C51.1004 83.5002 53.6004 87.1002 51.1004 88.5002L36.5003 95.2002Z" fill="#FED68A" stroke="#13110C" stroke-miterlimit="10"/>
<path d="M37.8 90.6002L34.8999 83.7002" stroke="#13110C" stroke-miterlimit="10"/>
<path d="M40.3999 89.7002L36 80.8002" stroke="#13110C" stroke-miterlimit="10"/>
<path d="M43.5999 88.2002L37.7998 78.1002" stroke="#13110C" stroke-miterlimit="10"/>
<path d="M47.7 86.8002L44.8999 82.2002" stroke="#13110C" stroke-miterlimit="10"/>
<path d="M45.8999 78.0002C45.8999 78.0002 43.2 75.3002 42.5 78.0002L44.8999 81.9001" fill="#FED68A"/>
<path d="M45.8999 78.0002C45.8999 78.0002 43.2 75.3002 42.5 78.0002L44.8999 81.9001" stroke="#13110C" stroke-miterlimit="10"/>
<path d="M68.3 126.7C70.1 106.6 59.5 85.6002 59.5 85.6002L56.5 86.4001C56.5 86.4001 67.9 104.3 66 127.1L68.3 126.7Z" fill="#FFEA24" stroke="#13110C" stroke-miterlimit="10"/>
<path d="M60.3 94.0002C43.8 100 29.5 111.7 29.5 111.7V99.8002C39.8 92.6002 56.5 86.4001 56.5 86.4001C56.5 86.4001 60.3 93.1002 60.3 94.0002Z" fill="#13110C" stroke="#13110C" stroke-miterlimit="10"/>
<path d="M29.5 103.9C29.5 105.5 29.5 107.5 29.5 107.5C29.5 107.5 48.8 94.0002 59.3 91.5002L58.2 89.4001C58.2 89.5001 42.2 94.0001 29.5 103.9Z" fill="white" stroke="#13110C" stroke-miterlimit="10"/>
<path d="M29.5 112.1V119.7C29.5 119.7 39.0999 115.1 44.8999 101.3C44.8999 101.3 36.7 105.3 29.5 112.1Z" fill="#E31013" stroke="#13110C" stroke-miterlimit="10"/>
<path d="M29.5 119.7V123.8C29.5 123.8 49.0001 113.5 50.1001 98.5002L45 101.3C44.9 101.3 42 110.6 29.5 119.7Z" fill="#13110C" stroke="#13110C" stroke-miterlimit="10"/>
<path d="M50.6001 127.1C50.6001 127.1 60.8001 114.7 61.1001 109.4C61.1001 109.4 63.5 113 62.5 127.1H64.3999C64.3999 127.1 66.5 116.1 61.3 104.8C61.3 104.8 55.1999 118.2 48.3999 127.1H50.6001Z" fill="white"/>
<path d="M54.5 127.1L59.8999 119.2V127.1" fill="#13110C"/>
<path d="M54.5 127.1L59.8999 119.2V127.1" stroke="#13110C" stroke-miterlimit="10"/>
<path d="M39.2998 127.1C40.1998 126.5 41.0997 125.8 41.8997 125.2C58.4997 111.9 58.0999 94.9001 58.0999 94.9001L59.9998 94.2002C59.9998 94.2002 62.5998 109.4 42.9998 127.2H39.2998V127.1Z" fill="#FFEA24"/>
<path d="M39.3003 127.1L37.2002 122.2L41.9001 125.2L39.3003 127.1Z" fill="#FFEA24"/>
<path d="M42.5 125L39.8999 120.3L44.8999 122.9L42.5 125Z" fill="#FFEA24"/>
<path d="M45.3997 122.5L42.2998 118.1L47.4998 120L45.3997 122.5Z" fill="#FFEA24"/>
<path d="M48 119.7L44.3999 115.5L50.2 117.1L48 119.7Z" fill="#FFEA24"/>
<path d="M51.2002 116.3L47.2002 112.7L52.8003 113.5L51.2002 116.3Z" fill="#FFEA24"/>
<path d="M53.2 113.1L49 109.9L54.5 110.2L53.2 113.1Z" fill="#FFEA24"/>
<path d="M54.8997 109.6L50.2998 106.9L55.7998 106.6L54.8997 109.6Z" fill="#FFEA24"/>
<path d="M56.1001 106.1L51.1001 103.7L57.1001 102.8L56.1001 106.1Z" fill="#FFEA24"/>
<path d="M57.2998 103.3L52.2998 101.4L57.6997 100.1L57.2998 103.3Z" fill="#FFEA24"/>
<path d="M57.8999 99.7002L52.6001 98.1002L58.3 96.2002L57.8999 99.7002Z" fill="#FFEA24"/>
<path d="M73.2002 84.9001C73.2002 84.9001 79.7002 107.5 77.2002 126.8H79.3003C79.3003 126.8 81.6002 107.9 76.2002 84.9001H73.2002Z" fill="#FFEA24" stroke="#13110C" stroke-miterlimit="10"/>
<path d="M73.2 84.9002C73.2 84.9002 68.9001 83.9002 59.6001 85.7002C59.6001 85.7002 70.0999 107.8 68.3999 126.8H77.3C77.2 126.7 79.7 107 73.2 84.9002Z" fill="#211C4B" stroke="#13110C" stroke-miterlimit="10"/>
<path d="M63.5 93.4001L69.5 97.9001L74 89.5002L67.6001 85.3002L63.5 93.4001Z" fill="#E31013"/>
<path d="M67.2998 106.6L70.3997 100.5L75.7998 104.8L72.1997 111.5L67.2998 106.6Z" fill="#E31013"/>
<path d="M68.7998 117.6L72.3997 112.7L76.4998 117L72.5999 122.2L68.7998 117.6Z" fill="#E31013"/>
<path d="M69.2998 126.9L73.0999 123.3L76.2998 126.9H69.2998Z" fill="#E31013"/>
<path d="M78.5 97.5002L78.8 100.1L95.1001 87.2002H125.4C125.4 87.2002 110.9 104.4 109.4 127L111.2 127.1C111.2 127.1 110.6 106.6 129.9 84.0002L93.3999 84.8002L78.5 97.5002Z" fill="#FFEA24" stroke="#13110C" stroke-miterlimit="10"/>
<path d="M78.5002 97.1002L76.2002 84.9001H93.6003L78.5002 97.1002Z" fill="#13110C" stroke="#13110C" stroke-miterlimit="10"/>
<path d="M80 89.4001H87.1001L80.3999 95.3002L80 89.4001Z" fill="#E31013"/>
<path d="M79.6001 109.4L99 95.7002H108C108 95.7002 100.8 115.4 100.5 127.1H98.1001C98.1001 127.1 99.8 110.5 104.5 98.5002H99.3999L79.6001 111.7V109.4Z" fill="#FFEA24" stroke="#13110C" stroke-miterlimit="10"/>
<path d="M79.7002 119.2V117.4L99.4001 117.8L99.1003 119.6L79.7002 119.4" fill="#FFEA24"/>
<path d="M79.7002 119.2V117.4L99.4001 117.8L99.1003 119.6L79.7002 119.4" stroke="#13110C" stroke-miterlimit="10"/>
<path d="M79.7 114.5L99.3999 101.7H103.3L104.5 98.5002H99.3999L79.6001 111.7L79.7 114.5Z" fill="#211C4B" stroke="#13110C" stroke-miterlimit="10"/>
<path d="M79.7002 114.8V117.5L99.4001 117.9C99.4001 117.9 101.6 105.1 103.3 101.8H99.4001L79.7002 114.8Z" fill="#E31013"/>
<path d="M99.8999 104.8L97.3999 113.6L85.3999 113.4" stroke="white" stroke-miterlimit="10"/>
<path d="M97.3997 113.6L93.7998 108.8" stroke="white" stroke-miterlimit="10"/>
<path d="M100.5 127.1H109.4C109.4 127.1 108.5 110.9 125.4 87.3002H95.0999L78.7998 100.2C78.7998 100.2 79.5999 107.9 79.5999 109.5L98.9998 95.8002H108C107.9 95.7002 100.8 115.1 100.5 127.1Z" fill="#211C4B" stroke="#13110C" stroke-miterlimit="10"/>
<path d="M79.7002 105C79.7002 105 83.6002 105.5 83.7002 103.2C83.8002 100.9 81.7002 98.0002 81.7002 98.0002L82.6003 97.1002C82.6003 97.1002 88.4003 103.1 84.6003 105.8C84.6003 105.8 81.2001 108 79.9001 107.1L79.7002 105Z" fill="#FFEA24"/>
<path d="M91.4998 101C86.1998 104.8 82.7998 97.0002 82.7998 97.0002L84.2998 95.8002C84.2998 95.8002 87.5998 101.8 90.4998 99.7002C90.4998 99.7002 94.2999 98.0001 88.5999 92.4001L89.7998 91.4001C89.7998 91.4001 96.2998 97.0002 92.4998 100.2L91.4998 101Z" fill="#FFEA24"/>
<path d="M97.6003 96.7002C94.0003 98.4002 90.2002 91.2002 90.2002 91.2002L91.3003 90.3002C91.3003 90.3002 95.5001 95.8002 96.9001 94.1002C96.9001 94.1002 98.5003 94.0002 97.6003 87.2002H99.1003C99.1003 87.2002 100.5 95.3002 97.6003 96.7002Z" fill="#FFEA24"/>
<path d="M104.2 95.7002C98.7 96.3002 99.3999 87.2002 99.3999 87.2002H101.6C101.6 87.2002 101 93.8002 103.9 93.7002C103.9 93.7002 107.7 94.6002 106.3 87.2002H107.9C107.9 87.2002 109.3 95.1002 104.2 95.7002Z" fill="#FFEA24"/>
<path d="M112.2 95.0002C106.4 94.8002 108.2 87.2002 108.2 87.2002H109.8C109.8 87.2002 109.1 92.7001 111.8 92.9001C111.8 92.9001 115.7 93.8002 114.5 87.2002H115.9C115.9 87.2002 116.7 95.1002 112.2 95.0002Z" fill="#FFEA24"/>
<path d="M116.4 87.2002L119.3 95.8002L120.7 94.1002L117.7 87.2002H116.4Z" fill="#FFEA24"/>
<path d="M108.1 97.6002C107.7 94.4002 118.5 95.3002 118.5 95.3002V97.1002C118.5 97.1002 110.3 95.5002 110.4 98.8002C110.4 98.8002 109.3 101.7 116.7 100.6L116.2 102.3C116.2 102.3 106.6 102.8 107.9 98.8002L108.1 97.6002Z" fill="#FFEA24"/>
<path d="M107.8 104.8C108.4 102.7 115.4 104.1 115.4 104.1L115.9 102.6C115.9 102.6 105.8 99.8002 105.7 104.8C105.7 104.8 105.2 109 113.8 108.3L114.2 107.2C114.1 107.2 107.2 106.9 107.8 104.8Z" fill="#FFEA24"/>
<path d="M105.9 111.9C104.7 108.5 112.7 110.3 112.7 110.3L113.2 108.8C113.2 108.8 102.9 106.8 103.8 111.9C103.8 111.9 103.5 114.7 105.7 114.2C105.6 114.1 106.5 113.4 105.9 111.9Z" fill="#FFEA24"/>
<path d="M102.9 117.4L106.7 113.9L110 117.8L106.1 121.2L102.9 117.4Z" fill="#E31013"/>
<path d="M80 103C80 103 83.0999 104.8 82.3999 101.7" stroke="white" stroke-miterlimit="10"/>
<path d="M86.7998 97.4001C86.7998 97.4001 88.3997 99.4002 89.8997 98.6002C89.8997 98.6002 91.7997 98.5002 89.8997 95.6002" stroke="white" stroke-miterlimit="10"/>
<path d="M93.5 91.0002C93.5 91.0002 97.7001 96.6002 96.6001 89.5002" stroke="white" stroke-miterlimit="10"/>
<path d="M102.9 88.9001C102.9 88.9001 101.8 92.5001 103.7 92.4001C105.6 92.3001 105.6 91.2002 105.6 89.5002" stroke="white" stroke-miterlimit="10"/>
<path d="M110.4 89.4001C110.4 89.4001 110.3 92.0002 112.2 92.1002C112.2 92.1002 113.5 92.1001 113.5 89.4001" stroke="white" stroke-miterlimit="10"/>
<path d="M116.4 92.1002V94.4001" stroke="white" stroke-miterlimit="10"/>
<path d="M119 88.3002L119.7 89.4001" stroke="white" stroke-miterlimit="10"/>
<path d="M120.1 90.3002L121.1 92.1002" stroke="white" stroke-miterlimit="10"/>
<path d="M114 97.3002C114 97.3002 111.5 97.2002 111.5 98.5002C111.5 98.5002 111.1 100.1 113.5 100" stroke="white" stroke-miterlimit="10"/>
<path d="M111.3 104.4C111.3 104.4 107.4 104.9 111.3 106" stroke="white" stroke-miterlimit="10"/>
<path d="M110 110.8C110 110.8 105 111.6 108.5 113.1" stroke="white" stroke-miterlimit="10"/>
<path d="M129.9 84.1002C129.9 84.1002 137.4 84.0002 139.6 84.9002L148.5 88.4002V110.8C148.5 110.8 138.6 91.9002 129.9 84.1002Z" fill="#13110C" stroke="#13110C" stroke-miterlimit="10"/>
<path d="M138.3 88.3002L145.4 97.4001V90.6002L138.3 88.3002Z" stroke="white" stroke-miterlimit="10"/>
<path d="M129.9 84.1002L126.9 87.8002C126.9 87.8002 143.2 105.1 148.4 117.6V110.8C148.5 110.8 143.6 99.1002 129.9 84.1002Z" fill="#E31013" stroke="#13110C" stroke-miterlimit="10"/>
<path d="M126.9 87.8002L125.4 89.8002C125.4 89.8002 140.1 105.5 148.4 121.2V117.5C148.5 117.5 141.9 103.8 126.9 87.8002Z" fill="white" stroke="#13110C" stroke-miterlimit="10"/>
<path d="M147.4 119.2C147.4 119.2 137.3 125.1 134.7 127.4L137.3 127.5C137.3 127.5 144.3 123 148.3 120.9L147.4 119.2Z" fill="#FFEA24"/>
<path d="M146.8 121.1L147.8 123.8L145.4 122.1L146.8 121.1Z" fill="#FFEA24"/>
<path d="M141.9 123.4L143.1 127.3L139.8 124.6L141.9 123.4Z" fill="#FFEA24"/>
<path d="M119.3 99.5002C119.3 99.5002 134.2 115.6 137 125.6L134 127.4C134 127.4 128.5 115.3 118 102.2L119.3 99.5002Z" fill="#E31013" stroke="#13110C" stroke-miterlimit="10"/>
<path d="M133.5 127.4C133.5 127.4 128.1 114.8 117.7 102.5L116.5 105.2C116.5 105.2 128 119.5 130.9 127.3" fill="#FFEA24"/>
<path d="M133.5 127.4C133.5 127.4 128.1 114.8 117.7 102.5L116.5 105.2C116.5 105.2 128 119.5 130.9 127.3" stroke="#13110C" stroke-miterlimit="10"/>
<path d="M115.1 127.2C115.1 127.2 116.8 115.8 117.9 114.2C117.9 114.2 124.3 121.9 126.5 127.3H128.6C128.6 127.3 120.2 112.4 117.5 110.4C117.5 110.4 114.1 118.3 113.1 127.2" fill="white"/>
<path d="M117.9 127.1L118.5 119.2L123.8 127.3L117.9 127.1Z" fill="#13110C" stroke="#13110C" stroke-miterlimit="10"/>
<path d="M119.9 98.5002L119.3 99.5002L121.5 102L128.7 101.7L126.9 109.2L129.4 111.9H136.4L133.5 118.2L135.8 122.5L140.5 123.4L144.4 121V118.5L137.3 119.2L142.2 110.9L139.8 107.5L131.6 107.2L134.2 100L131.7 97.0002L119.9 98.5002Z" fill="#FFEA24"/>
<path d="M121.5 102L128.7 101.7L126.9 109.2L121.5 102Z" fill="#E31013"/>
<path d="M129.4 111.9H136.4L133.5 118.2L129.4 111.9Z" fill="#E31013"/>
<path d="M112.2 127.7H89.2002L29.7002 127.3L29.9001 133.9C36.1001 145.9 52.7002 165 52.7002 165C68.2002 142.8 66.9001 127.6 66.9001 127.6" fill="#211C4B"/>
<path d="M112.2 127.7H89.2002L29.7002 127.3L29.9001 133.9C36.1001 145.9 52.7002 165 52.7002 165C68.2002 142.8 66.9001 127.6 66.9001 127.6" stroke="#13110C" stroke-miterlimit="10"/>
<path d="M33.3 132.8L32.1001 128.8L35.3999 131.5L33.3 132.8Z" fill="#FFEA24"/>
<path d="M98.8999 128.1L98.3999 135.2L79 134.9L80 127.7L98.8999 128.1Z" fill="#13110C" stroke="#13110C" stroke-miterlimit="10"/>
<path d="M98.4001 131.4L95.7002 128.3" stroke="white" stroke-width="2" stroke-miterlimit="10"/>
<path d="M86 128.3L89.2 132.3L93.1001 128.6" stroke="white" stroke-width="2" stroke-miterlimit="10"/>
<path d="M83.1001 128.2L79.8999 131.6" stroke="white" stroke-width="2" stroke-miterlimit="10"/>
<path d="M148.7 127.7H112.2C112.2 127.7 110.1 141.2 118 161.3C118 161.3 141.3 152.5 148.7 144.5V127.7Z" fill="#211C4B" stroke="#13110C" stroke-miterlimit="10"/>
<path d="M116.3 223.9L106.8 211.8C106.8 211.8 98.2001 215.9 87.1001 213C87.1001 213 69 206.9 65.2 206.3C65.2 206.3 60.0001 205.8 58.1001 206.7C58.1001 206.7 54.7999 216.8 47.3999 223.9H116.3Z" fill="#FFEA24" stroke="#13110C" stroke-miterlimit="10"/>
<path d="M106.8 211.8L105.4 209.6C105.4 209.6 92.1999 214.4 80.3999 207.2C80.3999 207.2 68 201.9 59 202.7L58 206.7C58 206.7 62.4999 204.3 76.3999 209.6C76.3999 209.6 90.0001 214.7 94.1001 214.1C94.1001 214 101.5 215.1 106.8 211.8Z" fill="#E31013" stroke="#13110C" stroke-miterlimit="10"/>
<path d="M105.3 209.6L104.1 206.2C104.1 206.2 95.3998 210.2 82.2998 204.7C82.2998 204.7 65.8998 197.5 58.9998 198.8L58.7998 202.8C58.7998 202.8 69.1997 202.5 79.1997 206.9C89.1997 211.3 91.0997 211.8 98.3997 211.1C105.8 210.2 105.3 209.6 105.3 209.6Z" fill="#13110C" stroke="#13110C" stroke-miterlimit="10"/>
<path d="M107.7 214.8C107.7 214.8 103.1 215.1 100.1 216.4" stroke="#231E48" stroke-miterlimit="10"/>
<path d="M98.7 216.8C98.7 216.8 93 213.7 90 216.9" stroke="#231E48" stroke-miterlimit="10"/>
<path d="M88.5999 217.3C88.5999 217.3 86.1998 214.1 82.2998 215.3" stroke="#231E48" stroke-miterlimit="10"/>
<path d="M79.7 215C79.7 215 76.0001 211.2 72.1001 213.6" stroke="#231E48" stroke-miterlimit="10"/>
<path d="M70.5002 213.3C70.5002 213.3 67.7002 209.2 62.7002 211.2" stroke="#231E48" stroke-miterlimit="10"/>
<path d="M60.8999 211.2C60.8999 211.2 58.6999 210.1 57.3999 209.8" stroke="#231E48" stroke-miterlimit="10"/>
<path d="M98.5 216.5C98.5 216 98.8999 215.6 99.3999 215.6C99.8999 215.6 100.3 216 100.3 216.5C100.3 217 99.8999 217.4 99.3999 217.4C98.8999 217.4 98.5 217 98.5 216.5Z" stroke="#231E48" stroke-miterlimit="10"/>
<path d="M88.2998 217.3C88.2998 216.8 88.6997 216.4 89.1997 216.4C89.6997 216.4 90.0999 216.8 90.0999 217.3C90.0999 217.8 89.6997 218.2 89.1997 218.2C88.6997 218.2 88.2998 217.8 88.2998 217.3Z" stroke="#231E48" stroke-miterlimit="10"/>
<path d="M80 215C80 214.5 80.3999 214.1 80.8999 214.1C81.3999 214.1 81.8 214.5 81.8 215C81.8 215.5 81.3999 215.9 80.8999 215.9C80.4999 216 80 215.5 80 215Z" stroke="#231E48" stroke-miterlimit="10"/>
<path d="M70.5 213.3C70.5 212.8 70.8999 212.4 71.3999 212.4C71.8999 212.4 72.3 212.8 72.3 213.3C72.3 213.8 71.8999 214.2 71.3999 214.2C70.8999 214.2 70.5 213.8 70.5 213.3Z" stroke="#231E48" stroke-miterlimit="10"/>
<path d="M60.8999 211.2C60.8999 210.7 61.3 210.3 61.8 210.3C62.3 210.3 62.7 210.7 62.7 211.2C62.7 211.7 62.3 212.1 61.8 212.1C61.3 212.1 60.8999 211.7 60.8999 211.2Z" stroke="#231E48" stroke-miterlimit="10"/>
<path d="M108.4 216.4C108.4 216.4 104.1 216.7 102.8 218.2" stroke="#231E48" stroke-miterlimit="10"/>
<path d="M96.3003 218.5C96.3003 218.5 93.2002 216.8 91.7002 218.3" stroke="#231E48" stroke-miterlimit="10"/>
<path d="M86.6001 218.5C86.6001 218.5 84.4999 216.3 82.3999 216.9" stroke="#231E48" stroke-miterlimit="10"/>
<path d="M78.3999 216.2C78.3999 216.2 75.2999 213.8 73.3999 215.1" stroke="#231E48" stroke-miterlimit="10"/>
<path d="M68.5 214.7C68.5 214.7 66.5999 211.7 63.3999 212.8" stroke="#231E48" stroke-miterlimit="10"/>
<path d="M88.6001 220.5C88.6001 220 89 219.6 89.5 219.6C90 219.6 90.3999 220 90.3999 220.5C90.3999 221 90 221.4 89.5 221.4C89 221.4 88.6001 221 88.6001 220.5Z" stroke="#231E48" stroke-miterlimit="10"/>
<path d="M69.6001 216.6C69.6001 216.1 70 215.7 70.5 215.7C71 215.7 71.3999 216.1 71.3999 216.6C71.3999 217.1 71 217.5 70.5 217.5C70 217.5 69.6001 217.1 69.6001 216.6Z" stroke="#231E48" stroke-miterlimit="10"/>
<path d="M98.8999 220.8C98.8999 219.3 99.2001 218.2 99.6001 218.2C100 218.2 100.3 219.4 100.3 220.8C100.3 222.3 100 223.4 99.6001 223.4C99.2001 223.5 98.8999 222.3 98.8999 220.8Z" fill="#231E48"/>
<path d="M95.9 219.3C97.1 218.5 98.3001 218.2 98.5001 218.5C98.7001 218.8 97.9002 219.8 96.6002 220.5C95.4002 221.3 94.2001 221.6 94.0001 221.3C93.8001 221 94.7 220.1 95.9 219.3Z" fill="#231E48"/>
<path d="M102.8 220.3C101.6 219.4 100.8 218.5 101.1 218.2C101.3 217.9 102.5 218.3 103.7 219.1C104.9 220 105.7 220.9 105.4 221.2C105.1 221.6 103.9 221.2 102.8 220.3Z" fill="#231E48"/>
<path d="M78.3998 219.9C78.7998 218.4 79.4 217.3 79.8 217.4C80.2 217.5 80.1998 218.8 79.8998 220.3C79.4998 221.8 78.8999 222.9 78.4999 222.8C78.0999 222.7 78.0998 221.4 78.3998 219.9Z" fill="#231E48"/>
<path d="M75.8 217.6C77.3 217.1 78.4999 217.1 78.6999 217.5C78.7999 217.9 77.8 218.6 76.3 219.1C74.8 219.6 73.5999 219.6 73.3999 219.2C73.2999 218.8 74.4 218.1 75.8 217.6Z" fill="#231E48"/>
<path d="M82.5003 220.4C81.5003 219.2 81.0003 218.1 81.3003 217.8C81.6003 217.5 82.7002 218.3 83.7002 219.4C84.7002 220.6 85.2002 221.7 84.9002 222C84.5002 222.3 83.4003 221.6 82.5003 220.4Z" fill="#231E48"/>
<path d="M60.1002 217.1C60.4002 215.6 61 214.4 61.4 214.4C61.8 214.5 61.9002 215.8 61.6002 217.4C61.3002 218.9 60.7002 220.1 60.3002 220.1C59.9002 220 59.8002 218.7 60.1002 217.1Z" fill="#231E48"/>
<path d="M57.1997 214.9C58.6997 214.3 59.9997 214.2 60.1997 214.6C60.3997 215 59.2998 215.8 57.7998 216.4C56.2998 217 54.9998 217.1 54.7998 216.7C54.6998 216.3 55.6997 215.5 57.1997 214.9Z" fill="#231E48"/>
<path d="M64.3003 217.3C63.2003 216.2 62.6002 215 62.9002 214.7C63.2002 214.4 64.4002 215.1 65.4002 216.2C66.5002 217.3 67.1003 218.5 66.8003 218.8C66.5003 219.2 65.4003 218.5 64.3003 217.3Z" fill="#231E48"/>
<path d="M60.2 213.3C60.2 213.3 59.2 211.8 57 212.4" stroke="#231E48" stroke-miterlimit="10"/>
<path d="M83.3999 182.7C84.0999 183.6 85.3001 189.4 85.3001 189.4C87.6001 196.7 84.5 205.5 84.5 205.5L74.6001 201.6C64.4001 198 58.6001 198.6 58.6001 198.6C58.6001 198.6 57.7999 189 54.8999 186C54.8999 186 52.3 180.6 53.5 174.6L54.3001 170.6H85.1001C85.1001 170.6 91.3 172.2 89.7 178.6C89.7 178.6 88.9001 184.4 84.3001 182.8L83.3999 182.7Z" fill="#AFA3C7" stroke="#13120D" stroke-miterlimit="10"/>
<path d="M84.8 205.6C84.9 204.1 85.8998 198.6 85.8998 198.6C86.8998 193.3 84.1999 185 84.1999 185C82.2999 181.6 84.9999 183.1 84.9999 183.1C89.6999 183.4 89.6999 176.1 89.6999 176.1H104.7C106.2 176.2 105.6 176.9 105.6 176.9C103.2 178.9 104.4 179.3 104.4 179.3C106.2 179.5 105.3 181.9 105.3 181.9C106.4 181.9 106.6 184.6 106.6 184.6C105.6 185.2 106.2 187 106.2 187C111 188.1 108.4 191.8 108.4 191.8C106.3 193.5 104.1 200.2 104.1 200.2C105.5 203.1 104.1 206.2 104.1 206.2C104.1 206.2 95.4 209.7 84.8 205.6Z" fill="#FED68A" stroke="#13110C" stroke-miterlimit="10"/>
<path d="M101.5 204.9C101.5 204.9 93.3998 205 89.7998 200.7" stroke="#13110C" stroke-miterlimit="10"/>
<path d="M94 199.6C99.1 202.5 101.5 200.5 101.5 200.5C101.5 200.5 102.8 196.3 93.8999 198.1C93.9999 198.2 92.8 199 94 199.6Z" stroke="#13110C" stroke-miterlimit="10"/>
<path d="M97.5 197C97.5 197 99.7999 194.7 100.9 194.4" stroke="#13110C" stroke-miterlimit="10"/>
<path d="M96.7002 199.6C96.7002 199.3 97.5001 199 98.4001 199C99.3001 199 100.1 199.3 100.1 199.6C100.1 199.9 99.3001 200.2 98.4001 200.2C97.4001 200.2 96.7002 199.9 96.7002 199.6Z" fill="#13110C" stroke="#13110C" stroke-miterlimit="10"/>
<path d="M106 187.7C106 187.7 102.4 187.5 101.6 188.4" stroke="#13110C" stroke-miterlimit="10"/>
<path d="M103.8 185.9C103.8 185.9 99.9001 186.9 97.1001 182.5C97.1001 182.5 94.0999 179.9 91.8999 182.1C91.8999 182.1 90.1 185 93.5 185.9C93.5 185.9 95.8999 185.8 94.6999 183.5C94.6999 183.5 93.9 182.9 93 183.5" stroke="#13110C" stroke-miterlimit="10"/>
<path d="M105.3 181.8C105.3 181.8 101 181.4 100.9 182.1" stroke="#13110C" stroke-miterlimit="10"/>
<path d="M105 182.1H103" stroke="#13110C" stroke-miterlimit="10"/>
<path d="M105.3 176.1C105.3 176.1 107.6 173.7 107.8 175.5C108 177.3 112.3 178.8 114.1 176C114.1 176 116.6 170.6 112.2 169.9H93.8999H87.2C87.2 169.9 85.7001 170.1 85.1001 170.7C85.1001 170.7 89.3 172.7 89.5 176L105.3 176.1Z" fill="#AFA3C7" stroke="#13120D" stroke-miterlimit="10"/>
<path d="M83.1 177.6C83.1 177.6 84.0999 179.8 85.4999 178.4C86.8999 177 85.3999 175.1 84.4999 174.6C83.5999 174.1 80.5999 174.3 80.9999 179.4C81.3999 184.5 83.4999 189.1 83.4999 191.2C83.4999 193.3 84.3 198.2 83.1 202.7" stroke="#13110C" stroke-width="0.5" stroke-miterlimit="10"/>
<path d="M83.1 179.7C83.1 179.7 85.8 181.1 86.6 178.5C87.4 175.9 86.2998 173.4 84.8998 172.7C83.5998 172 79.0999 171.9 79.1999 177.4C79.1999 183 80.0998 185.1 80.8998 186.8C81.6998 188.5 82.5 196.1 81.8 201.7" stroke="#13110C" stroke-width="0.5" stroke-miterlimit="10"/>
<path d="M83.6001 177.6C83.6001 177.6 85.3 177.7 84.5 176.8C83.7 175.9 83.0999 175.4 82.3999 176.4" stroke="#13110C" stroke-width="0.5" stroke-miterlimit="10"/>
<path d="M84.5 181.2C84.5 181.2 88.3 181.6 88.3 176.6C88.3 176.6 87.4999 169.3 78.6999 172.9C78.6999 172.9 75.5999 175.7 78.1999 183.9C80.7999 192.1 81.0999 200.2 80.1999 201.8" stroke="#13110C" stroke-width="0.5" stroke-miterlimit="10"/>
<path d="M77.1999 172C77.1999 172 73.1999 179.1 75.8999 183.6C78.5999 188.1 79.1999 199.9 78.3999 201.2" stroke="#13110C" stroke-width="0.5" stroke-miterlimit="10"/>
<path d="M74.9999 172C74.9999 172 71.2999 179.1 72.9999 182.9C74.5999 186.7 77.7 194.7 76.1 200.2" stroke="#13110C" stroke-width="0.5" stroke-miterlimit="10"/>
<path d="M72.3002 172C72.3002 172 68.6001 179 70.5001 183.6C72.4001 188.2 74.3 195.3 73.4 197.8L72.9 199.5" stroke="#13110C" stroke-width="0.5" stroke-miterlimit="10"/>
<path d="M70.1005 172C70.1005 172 66.4004 179 68.3004 183.6C70.2004 188.2 72.1003 195.3 71.2003 197.8" stroke="#13110C" stroke-width="0.5" stroke-miterlimit="10"/>
<path d="M67.4 172C67.4 172 63.7002 179 65.6002 183.6C67.5002 188.2 69.4001 195.3 68.5001 197.8" stroke="#13110C" stroke-width="0.5" stroke-miterlimit="10"/>
<path d="M64.6005 172C64.6005 172 60.9004 179 62.8004 183.6C64.7004 188.2 66.6003 195.3 65.7003 197.8" stroke="#13110C" stroke-width="0.5" stroke-miterlimit="10"/>
<path d="M62.3002 172C62.3002 172 58.6001 179 60.5001 183.6C62.4001 188.2 64.3 195.3 63.4 197.8" stroke="#13110C" stroke-width="0.5" stroke-miterlimit="10"/>
<path d="M59.6005 171.2C59.6005 171.2 55.9004 178.2 57.8004 182.8C59.7004 187.4 61.6003 194.5 60.7003 197" stroke="#13110C" stroke-width="0.5" stroke-miterlimit="10"/>
<path d="M57.9999 171.2C57.9999 171.2 54.2998 178.2 56.1998 182.8C58.0998 187.4 60 194.5 59.1 197" stroke="#13110C" stroke-width="0.5" stroke-miterlimit="10"/>
<path d="M110.4 174.3C110.4 174.3 111.4 175.5 112.1 174.3C112.8 173.1 110.4 171.3 108.4 172.5C106.4 173.6 105 175.3 105 175.3" stroke="#13110C" stroke-width="0.5" stroke-miterlimit="10"/>
<path d="M109.6 173.7C109.6 173.7 108.3 175.6 111.1 176C113.9 176.4 113.6 172.8 113.2 172.4C113.2 172.4 110.1 169.7 107.7 171.9L103.9 174.8" stroke="#13110C" stroke-width="0.5" stroke-miterlimit="10"/>
<path d="M106 171.2L102.3 174.8" stroke="#13110C" stroke-width="0.5" stroke-miterlimit="10"/>
<path d="M103.8 171.2L100.2 174.8" stroke="#13110C" stroke-width="0.5" stroke-miterlimit="10"/>
<path d="M101.5 171.2L97.7998 174.8" stroke="#13110C" stroke-width="0.5" stroke-miterlimit="10"/>
<path d="M98.8997 171.2L95.2998 174.8" stroke="#13110C" stroke-width="0.5" stroke-miterlimit="10"/>
<path d="M96.1001 171.2L92.5 174.8" stroke="#13110C" stroke-width="0.5" stroke-miterlimit="10"/>
<path d="M94 170.7L90.3999 174.3" stroke="#13110C" stroke-width="0.5" stroke-miterlimit="10"/>
<path d="M91.3999 170.7L89.5 173" stroke="#13110C" stroke-width="0.5" stroke-miterlimit="10"/>
<path d="M29.7002 166.4V213.3L35.8003 207V168.9L29.7002 166.4Z" fill="#E31013" stroke="#13110C" stroke-miterlimit="10"/>
<path d="M35.8003 168.9L38.6003 169.9V208L29.7002 217.7V213.3L35.8003 207V168.9Z" fill="#FFEA24" stroke="#13110C" stroke-miterlimit="10"/>
<path d="M44.2 197.8L42 193.9C43.9 192.1 44.6001 187.2 44.6001 187.2L38.8999 191.4L38.6001 197.7V204L44.1001 208.5C44.1001 208.5 43.6 203.5 41.8 201.7C41.8 201.6 44.2 197.8 44.2 197.8Z" fill="#8B92C8" stroke="#13110C" stroke-miterlimit="10"/>
<path d="M44.1997 197.8L41.7998 194C43.9998 191.2 44.0999 187.2 44.0999 187.2C45.5999 186 47.1997 180.9 47.1997 180.9C48.8997 185.5 44.5999 194.4 44.5999 194.4L47.5999 197.9L44.5999 201.4C44.5999 201.4 48.8997 210.2 47.1997 214.9C47.1997 214.9 45.5999 209.8 44.0999 208.6C44.0999 208.6 43.9998 204.5 41.7998 201.8L44.1997 197.8Z" fill="#FFEA24" stroke="#13110C" stroke-miterlimit="10"/>
<path d="M47.6001 183.4C57.1001 199.1 47.6001 213.9 47.6001 213.9C47.6001 213.9 47.7001 206.9 46.1001 204.9L44.6001 201.2L47.6001 197.7L44.6001 194.2C44.6001 194.3 47.6001 185.9 47.6001 183.4Z" stroke="#13110C" stroke-miterlimit="10"/>
<path d="M141.6 159.6C141.6 159.6 146.3 166.1 145.2 171.1C145.2 171.1 144.6 172.8 143.3 171.3C143.3 171.3 144.4 175.1 142.1 174C142.1 174 143.3 177.9 140.3 176.7C140.3 176.7 139.4 179.6 136.8 176.9L133.8 172.6C133.8 172.6 132.1 171.8 132.6 176.1C132.6 176.1 131.4 179.6 129.5 176.4C129.5 176.4 128.7 172.4 127 171.3C127 171.3 124.5 167.7 127 166.3L141.6 159.6Z" fill="#FED68A" stroke="#13110C" stroke-miterlimit="10"/>
<path d="M140.3 164.2L143.3 171.1" stroke="#13110C" stroke-miterlimit="10"/>
<path d="M137.7 165.1L142.1 174" stroke="#13110C" stroke-miterlimit="10"/>
<path d="M134.5 166.6L140.3 176.7" stroke="#13110C" stroke-miterlimit="10"/>
<path d="M130.5 168L133.3 172.6" stroke="#13110C" stroke-miterlimit="10"/>
<path d="M132.3 176.8C132.3 176.8 135 179.5 135.7 176.8L133.3 172.9" fill="#FED68A"/>
<path d="M132.3 176.8C132.3 176.8 135 179.5 135.7 176.8L133.3 172.9" stroke="#13110C" stroke-miterlimit="10"/>
<path d="M109.8 128.1C108 148.2 118.6 169.2 118.6 169.2L121.6 168.4C121.6 168.4 110.2 150.5 112.1 127.7L109.8 128.1Z" fill="#FFEA24" stroke="#13110C" stroke-miterlimit="10"/>
<path d="M117.8 160.8C134.3 154.8 148.6 143.1 148.6 143.1V155C138.3 162.2 121.6 168.4 121.6 168.4C121.6 168.4 117.8 161.7 117.8 160.8Z" fill="#13110C" stroke="#13110C" stroke-miterlimit="10"/>
<path d="M148.7 150.9C148.7 149.3 148.7 147.3 148.7 147.3C148.7 147.3 129.4 160.8 118.9 163.3L120 165.4C120 165.4 135.9 160.8 148.7 150.9Z" fill="white" stroke="#13110C" stroke-miterlimit="10"/>
<path d="M148.7 142.7V135.1C148.7 135.1 139.1 139.7 133.3 153.5C133.3 153.5 141.4 149.5 148.7 142.7Z" fill="#E31013" stroke="#13110C" stroke-miterlimit="10"/>
<path d="M148.7 135.1V131C148.7 131 129.2 141.3 128.1 156.3L133.2 153.5C133.3 153.5 136.2 144.2 148.7 135.1Z" fill="#13110C" stroke="#13110C" stroke-miterlimit="10"/>
<path d="M126.5 127.3C126.5 127.3 117.3 140.1 117 145.4C117 145.4 114.1 141.3 115.1 127.2H113.2C113.2 127.2 111.7 138.7 116.8 150C116.8 150 121.9 136.2 128.7 127.3H126.5Z" fill="white"/>
<path d="M124 127.3L118.3 135.6L117.9 127.1" fill="#13110C"/>
<path d="M124 127.3L118.3 135.6L117.9 127.1" stroke="#13110C" stroke-miterlimit="10"/>
<path d="M138.8 127.7C137.9 128.3 137 129 136.2 129.6C119.6 142.9 120 159.9 120 159.9L118.1 160.6C118.1 160.6 115.5 145.4 135.1 127.6H138.8V127.7Z" fill="#FFEA24"/>
<path d="M138.8 127.7L141 132.6L136.3 129.6L138.8 127.7Z" fill="#FFEA24"/>
<path d="M135.7 129.8L138.2 134.5L133.3 131.9L135.7 129.8Z" fill="#FFEA24"/>
<path d="M132.7 132.3L135.9 136.7L130.6 134.8L132.7 132.3Z" fill="#FFEA24"/>
<path d="M130.2 135.1L133.8 139.3L128 137.7L130.2 135.1Z" fill="#FFEA24"/>
<path d="M127 138.5L130.9 142.1L125.4 141.3L127 138.5Z" fill="#FFEA24"/>
<path d="M124.9 141.7L129.2 144.9L123.6 144.6L124.9 141.7Z" fill="#FFEA24"/>
<path d="M123.2 145.2L127.9 147.9L122.3 148.3L123.2 145.2Z" fill="#FFEA24"/>
<path d="M122 148.7L127 151.1L121.1 152L122 148.7Z" fill="#FFEA24"/>
<path d="M120.8 151.5L125.9 153.4L120.4 154.7L120.8 151.5Z" fill="#FFEA24"/>
<path d="M120.2 155.1L125.5 156.7L119.8 158.6L120.2 155.1Z" fill="#FFEA24"/>
<path d="M105 169.9C105 169.9 98.4998 147.3 101 128H98.8997C98.8997 128 96.5998 146.9 102 169.9H105Z" fill="#FFEA24" stroke="#13110C" stroke-miterlimit="10"/>
<path d="M105 169.9C105 169.9 109.3 170.9 118.6 169.1C118.6 169.1 108.1 147 109.8 128H100.9C101 128.1 98.4003 147.9 105 169.9Z" fill="#211C4B" stroke="#13110C" stroke-miterlimit="10"/>
<path d="M114.6 161.4L108.6 156.9L104.2 165.4L110.5 169.5L114.6 161.4Z" fill="#E31013"/>
<path d="M110.8 148.3L107.7 154.3L102.3 150L106 143.3L110.8 148.3Z" fill="#E31013"/>
<path d="M109.4 137.2L105.7 142.1L101.7 137.8L105.5 132.6L109.4 137.2Z" fill="#E31013"/>
<path d="M108.7 127.6L104.9 131.3L101.6 127.6H108.7Z" fill="#E31013"/>
<path d="M99.6997 157.3L99.3997 154.7L83.0999 167.6H52.7998C52.7998 167.6 67.2998 150.4 68.7998 127.8L66.9998 127.7C66.9998 127.7 67.5998 148.2 48.2998 170.8L84.7998 170L99.6997 157.3Z" fill="#FFEA24" stroke="#13110C" stroke-miterlimit="10"/>
<path d="M99.7 157.7L102 169.9H84.6001L99.7 157.7Z" fill="#13110C" stroke="#13110C" stroke-miterlimit="10"/>
<path d="M98.1001 165.4H91.1001L97.8 159.6L98.1001 165.4Z" fill="#E31013"/>
<path d="M98.6003 145.4L79.2002 159.1H70.2002C70.2002 159.1 77.4002 139.4 77.7002 127.7H80.1003C80.1003 127.7 78.4002 144.3 73.7002 156.3H78.8003L98.6003 143.1V145.4Z" fill="#FFEA24" stroke="#13110C" stroke-miterlimit="10"/>
<path d="M98.4001 135.6V137.4L78.7002 137L79.0002 135.2L98.4001 135.4" fill="#FFEA24"/>
<path d="M98.4001 135.6V137.4L78.7002 137L79.0002 135.2L98.4001 135.4" stroke="#13110C" stroke-miterlimit="10"/>
<path d="M98.3999 140.3L78.7 153.1H74.8L73.6001 156.3H78.7L98.6001 143.1L98.3999 140.3Z" fill="#211C4B" stroke="#13110C" stroke-miterlimit="10"/>
<path d="M98.3997 140V137.3L78.6997 136.9C78.6997 136.9 76.4998 149.7 74.7998 153H78.6997L98.3997 140Z" fill="#E31013"/>
<path d="M78.2998 150L80.6997 141.2L92.6997 141.4" stroke="white" stroke-miterlimit="10"/>
<path d="M80.7002 141.2L84.4001 146" stroke="white" stroke-miterlimit="10"/>
<path d="M77.6997 127.7H68.7998C68.7998 127.7 69.6998 143.9 52.7998 167.5H83.0999L99.3997 154.6C99.3997 154.6 98.5999 146.9 98.5999 145.3L79.1997 159H70.1997C70.1997 159.1 77.2997 139.7 77.6997 127.7Z" fill="#211C4B" stroke="#13110C" stroke-miterlimit="10"/>
<path d="M98.3997 149.8C98.3997 149.8 94.4997 149.3 94.3997 151.6C94.2997 153.9 96.3997 156.8 96.3997 156.8L95.4998 157.7C95.4998 157.7 89.6998 151.7 93.4998 149C93.4998 149 96.8997 146.8 98.1997 147.7L98.3997 149.8Z" fill="#FFEA24"/>
<path d="M86.6003 153.8C91.9003 150 95.3002 157.8 95.3002 157.8L93.8002 159C93.8002 159 90.5003 153 87.6003 155.1C87.6003 155.1 83.8002 156.8 89.5002 162.4L88.3002 163.4C88.3002 163.4 81.8003 157.8 85.6003 154.6L86.6003 153.8Z" fill="#FFEA24"/>
<path d="M80.5001 158.1C84.1001 156.4 87.9 163.6 87.9 163.6L86.8002 164.5C86.8002 164.5 82.6001 159 81.2001 160.7C81.2001 160.7 79.6001 160.8 80.5001 167.6H79.0001C79.0001 167.6 77.7001 159.5 80.5001 158.1Z" fill="#FFEA24"/>
<path d="M73.9002 159.1C79.4002 158.5 78.7003 167.6 78.7003 167.6H76.5003C76.5003 167.6 77.1003 161 74.2003 161.1C74.2003 161.1 70.4004 160.2 71.8004 167.6H70.2003C70.2003 167.6 68.8002 159.7 73.9002 159.1Z" fill="#FFEA24"/>
<path d="M65.9 159.8C71.7 160 69.9 167.6 69.9 167.6H68.3001C68.3001 167.6 69.0001 162.1 66.3001 161.9C66.3001 161.9 62.4002 161 63.6002 167.6H62.2C62.3 167.6 61.4 159.7 65.9 159.8Z" fill="#FFEA24"/>
<path d="M61.8 167.6L58.8999 159L57.5 160.7L60.3999 167.6H61.8Z" fill="#FFEA24"/>
<path d="M70 157.2C70.4 160.4 59.6001 159.5 59.6001 159.5V157.7C59.6001 157.7 67.8 159.3 67.7 156C67.7 156 68.7999 153.1 61.3999 154.2L61.8999 152.5C61.8999 152.5 71.5 152 70.2 156L70 157.2Z" fill="#FFEA24"/>
<path d="M70.3003 150C69.7003 152.1 62.7002 150.7 62.7002 150.7L62.2002 152.2C62.2002 152.2 72.3001 155 72.4001 150C72.4001 150 72.9003 145.8 64.3003 146.5L63.9001 147.6C64.1001 147.6 70.9003 147.9 70.3003 150Z" fill="#FFEA24"/>
<path d="M72.2 142.9C73.4 146.3 65.3999 144.5 65.3999 144.5L64.8999 146C64.8999 146 75.2 148 74.3 142.9C74.3 142.9 74.5999 140.1 72.3999 140.6C72.4999 140.7 71.7 141.4 72.2 142.9Z" fill="#FFEA24"/>
<path d="M75.2 137.4L71.3999 140.9L68.1001 137L72 133.6L75.2 137.4Z" fill="#E31013"/>
<path d="M76.2998 126.9L72.4998 131.6L69.2998 126.9H76.2998Z" fill="#E31013"/>
<path d="M98.0997 151.8C98.0997 151.8 94.9996 150 95.6996 153.1" stroke="white" stroke-miterlimit="10"/>
<path d="M91.3999 157.4C91.3999 157.4 89.8 155.4 88.3 156.2C88.3 156.2 86.4 156.3 88.3 159.2" stroke="white" stroke-miterlimit="10"/>
<path d="M84.7 163.8C84.7 163.8 80.5002 158.2 81.6002 165.3" stroke="white" stroke-miterlimit="10"/>
<path d="M75.2 165.9C75.2 165.9 76.2999 162.3 74.3999 162.4C72.4999 162.5 72.5 163.6 72.5 165.3" stroke="white" stroke-miterlimit="10"/>
<path d="M67.7 165.4C67.7 165.4 67.7999 162.8 65.8999 162.7C65.8999 162.7 64.6001 162.7 64.6001 165.4" stroke="white" stroke-miterlimit="10"/>
<path d="M61.7998 162.7V160.4" stroke="white" stroke-miterlimit="10"/>
<path d="M59.1001 166.5L58.3999 165.4" stroke="white" stroke-miterlimit="10"/>
<path d="M58 164.5L57 162.7" stroke="white" stroke-miterlimit="10"/>
<path d="M64.1001 157.5C64.1001 157.5 66.6001 157.6 66.6001 156.3C66.6001 156.3 67.0001 154.7 64.6001 154.8" stroke="white" stroke-miterlimit="10"/>
<path d="M66.8999 150.4C66.8999 150.4 70.7999 149.9 66.8999 148.8" stroke="white" stroke-miterlimit="10"/>
<path d="M68.1001 144C68.1001 144 73.1001 143.2 69.6001 141.7" stroke="white" stroke-miterlimit="10"/>
<path d="M48.2 170.7C48.2 170.7 40.7 170.8 38.5 169.9L29.6001 166.4V144C29.7001 144 39.5 162.9 48.2 170.7Z" fill="#13110C" stroke="#13110C" stroke-miterlimit="10"/>
<path d="M39.8003 166.5L32.7002 157.4V164.2L39.8003 166.5Z" stroke="white" stroke-miterlimit="10"/>
<path d="M48.2002 170.7L51.2002 167C51.2002 167 34.9002 149.7 29.7002 137.2V144C29.7002 144 34.5002 155.7 48.2002 170.7Z" fill="#E31013" stroke="#13110C" stroke-miterlimit="10"/>
<path d="M51.2002 167L52.7002 165C52.7002 165 38.0002 149.3 29.7002 133.6V137.3C29.7002 137.3 36.3002 151 51.2002 167Z" fill="white" stroke="#13110C" stroke-miterlimit="10"/>
<path d="M30.8 135.6C30.8 135.6 40.9 129.7 43.5 127.4L40.8999 127.3C40.8999 127.3 33.8999 131.8 29.8999 133.9L30.8 135.6Z" fill="#FFEA24"/>
<path d="M31.2998 133.7L30.2998 131L32.6997 132.7L31.2998 133.7Z" fill="#FFEA24"/>
<path d="M36.2 131.4L35 127.5L38.3 130.2L36.2 131.4Z" fill="#FFEA24"/>
<path d="M58.8 155.3C58.8 155.3 43.9001 139.2 41.1001 129.2L44.1001 127.4C44.1001 127.4 49.6001 139.5 60.1001 152.6L58.8 155.3Z" fill="#E31013" stroke="#13110C" stroke-miterlimit="10"/>
<path d="M44.6001 127.4C44.6001 127.4 49.9999 140 60.3999 152.3L61.6001 149.6C61.6001 149.6 50.1 135.3 47.2 127.5" fill="#FFEA24"/>
<path d="M44.6001 127.4C44.6001 127.4 49.9999 140 60.3999 152.3L61.6001 149.6C61.6001 149.6 50.1 135.3 47.2 127.5" stroke="#13110C" stroke-miterlimit="10"/>
<path d="M62.5 127.1C62.5 127.1 61.3 139 60.2 140.6C60.2 140.6 52.9 132.3 50.7 127H48.6001C48.6001 127 57.9001 142.4 60.6001 144.4C60.6001 144.4 63.3999 136.1 64.3999 127.1" fill="white"/>
<path d="M60.2 127.7L59.6001 135.6L54.3999 127.5L60.2 127.7Z" fill="#13110C" stroke="#13110C" stroke-miterlimit="10"/>
<path d="M58.3003 156.3L58.8003 155.3L56.7002 152.8L49.5002 153.1L51.2002 145.6L48.7002 142.9H41.8003L44.6003 136.6L42.4001 132.3L37.6003 131.4L33.7002 133.8V136.3L40.8003 135.6L35.9001 143.9L38.3003 147.3L46.5002 147.6L44.0002 154.8L46.5002 157.9L58.3003 156.3Z" fill="#FFEA24"/>
<path d="M56.7 152.8L49.5 153.1L51.2 145.6L56.7 152.8Z" fill="#E31013"/>
<path d="M48.6997 142.9H41.7998L44.5999 136.6L48.6997 142.9Z" fill="#E31013"/>
<path d="M101.6 127.6L105.5 123L108.7 127.6H101.6Z" fill="#E31013"/>
<path d="M10.2998 38.2002L17.2998 47.0002L24.3997 38.2002L17.3997 29.4001L10.2998 38.2002Z" fill="#E30B13"/>
<path d="M156.5 215.5L163.5 224.3L170.6 215.5L163.5 206.8L156.5 215.5Z" fill="#E30B13"/>
<path d="M39.2998 54.1002L48.3997 65.5002L57.4998 54.1002L48.3997 42.9001L39.2998 54.1002Z" fill="#E30B13"/>
<path d="M118.9 199.1L127.9 210.4L137 199.1L127.9 187.8L118.9 199.1Z" fill="#E30B13"/>
</svg>
