<svg width="181" height="254" viewBox="0 0 181 254" fill="none" xmlns="http://www.w3.org/2000/svg">
<path d="M180.1 231.5C180.1 243.3 173.3 252.9 164.9 252.9H16.6001C8.2001 252.9 1.3999 243.3 1.3999 231.5V22.4C1.3999 10.6 8.2001 1 16.6001 1H164.9C173.3 1 180.1 10.6 180.1 22.4V231.5Z" fill="white" stroke="#1D1D1B" stroke-miterlimit="10"/>
<path d="M149.3 31.3H30.6001V222.3H149.3V31.3Z" fill="white" stroke="#13110C" stroke-miterlimit="10"/>
<path d="M89.8999 126.8H137.3L137 102L118.6 81.3L66.1001 83.7L30.6001 113.2V126.8H89.8999H146.9H89.8999Z" fill="#E31013"/>
<path d="M89.8999 126.8H137.3L137 102L118.6 81.3L66.1001 83.7L30.6001 113.2V126.8H89.8999ZM89.8999 126.8H146.9" stroke="#13110C" stroke-miterlimit="10"/>
<path d="M124.2 90.9L121.3 96L127.1 99.4" fill="#13110C"/>
<path d="M124.2 90.9L121.3 96L127.1 99.4" stroke="white" stroke-miterlimit="10"/>
<path d="M127.6 101.7L123.5 107.5L128.3 112.3" fill="#13110C"/>
<path d="M127.6 101.7L123.5 107.5L128.3 112.3" stroke="white" stroke-miterlimit="10"/>
<path d="M128 115L123 117.6L125.5 124.7" fill="#13110C"/>
<path d="M128 115L123 117.6L125.5 124.7" stroke="white" stroke-miterlimit="10"/>
<path d="M125.2 125.5L119.6 126.8" stroke="white" stroke-miterlimit="10"/>
<path d="M118.6 81.3L117.2 88.3L123.5 89.3" fill="#13110C"/>
<path d="M118.6 81.3L117.2 88.3L123.5 89.3" stroke="white" stroke-miterlimit="10"/>
<path d="M146.9 110.2L137.3 99.9V126.8H146.9V110.2Z" fill="#211C4B" stroke="#13110C" stroke-miterlimit="10"/>
<path d="M141.4 126.5L145.2 124.3L138.4 116.9L144.5 110.3L137.3 102.4" stroke="white" stroke-width="2" stroke-miterlimit="10"/>
<path d="M98.2 126.8C98.2 126.8 96.0001 101 99.5001 81.2L118.7 81.3C118.7 81.3 106 92.8 108.6 126.8H98.2Z" fill="white" stroke="#13110C" stroke-miterlimit="10"/>
<path d="M102.4 91.7C100.1 86.4 103.1 84.9 103.1 84.9C103.1 84.9 105.6 86.5 103.7 88.9C103.7 88.8 102.1 90.7 102.4 91.7Z" fill="#211C4B"/>
<path d="M110.3 91.7C108 86.4 111 84.9 111 84.9C111 84.9 113.5 86.5 111.6 88.9C111.5 88.8 109.9 90.7 110.3 91.7Z" fill="#211C4B"/>
<path d="M105.7 109.9C103.4 104.6 106.4 103.1 106.4 103.1C106.4 103.1 108.9 104.7 107 107.1C106.9 107 105.4 108.9 105.7 109.9Z" fill="#211C4B"/>
<path d="M103 118.4C100.7 113.1 103.7 111.6 103.7 111.6C103.7 111.6 106.3 113.2 104.3 115.6C104.2 115.6 102.7 117.4 103 118.4Z" fill="#211C4B"/>
<path d="M101 128.2C98.7001 122.9 101.7 121.4 101.7 121.4C101.7 121.4 104.2 123 102.3 125.4C102.2 125.3 100.7 127.2 101 128.2Z" fill="#211C4B"/>
<path d="M71.3 119.9C68.7 121.3 65.8999 126.8 65.8999 126.8L68.1001 126.9C68.1001 126.9 69.9 123.2 71.5 121.5L71.3 119.9Z" fill="white" stroke="#13110C" stroke-width="0.5" stroke-miterlimit="10"/>
<path d="M44.3999 126.9V120.5L54 120.1L54.8 116.9L61.7 117.4V126.9H44.3999Z" fill="#13110C"/>
<path d="M88.5 86C88.5 86 80.7 95.8 75 100.8C75 100.8 77.1001 105.7 80.6001 117.5L97.6001 97.9C97.6001 97.9 99.2999 84.2 99.3999 82C99.4999 82 95.2 77 88.5 86Z" fill="#FFEA24" stroke="#13110C" stroke-miterlimit="10"/>
<path d="M78.6001 104L78.7 108.3H82.5L84.3999 101.6L78.6001 104Z" fill="#211C4B"/>
<path d="M32.7998 126.8L32.8997 120.5H43.3997V126.9L32.7998 126.8Z" fill="#211C4B"/>
<path d="M41.9998 120.9L33.7998 126.4" stroke="white" stroke-width="2" stroke-miterlimit="10"/>
<path d="M43.3999 120.5V126.8" stroke="#FFEA24" stroke-width="3" stroke-miterlimit="10"/>
<path d="M32.5 120.5L32.3999 126.8" stroke="#FFEA24" stroke-width="3" stroke-miterlimit="10"/>
<path d="M30.6001 108C30.6001 108 48.6 91 55.3 89.9" stroke="#FFEA24" stroke-width="2" stroke-miterlimit="10"/>
<path d="M149.3 73.8H124V83.9H149.3V73.8Z" fill="#13110C"/>
<path d="M124.6 82.2H149.3" stroke="#E31013" stroke-width="2" stroke-miterlimit="10"/>
<path d="M139.9 59L129.4 59.1L139.9 59C139.9 59.1 142 69.2 149.3 73.7V81.4C144.6 80.4 140.6 73.7 140.6 73.7L136.6 82.1C133.9 81.3 131 74.1 131 74.1L123.4 80.7L121.1 78.1C121.1 78.1 121.8 73.2 122.4 73.2C122.4 73.2 130.3 66.8 129.4 59.1" fill="#FFEA24"/>
<path d="M139.9 59L129.4 59.1L139.9 59ZM139.9 59C139.9 59.1 142 69.2 149.3 73.7V81.4C144.6 80.4 140.6 73.7 140.6 73.7L136.6 82.1C133.9 81.3 131 74.1 131 74.1L123.4 80.7L121.1 78.1C121.1 78.1 121.8 73.2 122.4 73.2C122.4 73.2 130.3 66.8 129.4 59.1" stroke="#13110C" stroke-miterlimit="10"/>
<path d="M125.6 83.2H149.3V92.6L134.7 93.4L125.6 83.2Z" fill="#211C4B"/>
<path d="M138.4 97.4H149.3" stroke="#E31013" stroke-width="2" stroke-miterlimit="10"/>
<path d="M134.4 94.4H149.1" stroke="#FFEA24" stroke-width="4" stroke-miterlimit="10"/>
<path d="M141.5 43H129.4V49.4H141.5V43Z" fill="#211C4B"/>
<path d="M115.1 51.4C115.1 51.4 119.3 65.8 121.2 66.6C121.2 66.6 126 78.7 116.6 81.3H97.3002C97.3002 81.3 94.4002 92.3 84.3002 83.1C84.3002 83.1 81.4002 79.9 81.8002 78.5L79.5001 78.6C79.5001 78.6 75.1002 87 68.1002 86.9C68.1002 86.9 58.9002 86 64.1002 78.7C64.1002 78.7 67.6001 77.2 64.2001 75.2C64.2001 75.2 62.2002 70.6 67.1002 70.9C67.1002 70.9 70.1002 73.2 69.3002 67.4C69.3002 67.4 70.8001 62.1 68.0001 61.8C68.0001 61.8 66.5001 58.7 68.7001 58.5C68.7001 58.5 69.9002 51.7 71.6002 52L71.4 50.2C71.2 49.9 101.6 46.3 115.1 51.4Z" fill="#AFA3C7" stroke="#13120D" stroke-width="0.5" stroke-miterlimit="10"/>
<path d="M51.2998 61.1C51.4998 60.9 51.6996 60.7 51.8996 60.4L58.5998 52.2L62.2998 47.7C64.1998 45.4 63.8997 42 61.4997 40.1L61.0998 39.8C58.7998 37.9 55.3997 38.2 53.4997 40.6L51.2998 43.3L49.0998 40.6C47.1998 38.3 43.7997 37.9 41.4997 39.8L41.0998 40.1C38.7998 42 38.3998 45.4 40.2998 47.7L50.6997 60.5C50.8997 60.7 51.0998 60.9 51.2998 61.1Z" fill="#E30B13"/>
<path d="M18 48.4C18.2 48.2 18.3 48.1 18.5 47.9L23.7 41.5L26.6001 38C28.1001 36.2 27.8 33.5 26 32.1L25.7 31.8C23.9 30.3 21.2001 30.6 19.8001 32.4L18.1001 34.5L16.3999 32.4C14.8999 30.6 12.3 30.3 10.5 31.8L10.2 32.1C8.39998 33.6 8.10012 36.2 9.60012 38L17.7 47.9C17.7 48 17.8 48.2 18 48.4Z" fill="#E30B13"/>
<path d="M125.9 31.3H59.2002C59.2002 31.3 66.5002 39.5 70.2002 47.7C70.7002 48.7 71.1001 49.7 71.4001 50.7C71.4001 50.7 96.8002 46.4 115 51.5C115.1 51.4 122.8 32.8 125.9 31.3Z" fill="#FFEA24" stroke="#13110C" stroke-miterlimit="10"/>
<path d="M115.9 49.5C95.5999 42.2 70.5 48.2 70.5 48.2L71.3999 50.6C71.3999 50.6 94.6 46.2 115 51.4L115.9 49.5Z" fill="#13110C" stroke="#13110C" stroke-miterlimit="10"/>
<path d="M116.1 49C116.1 49 98.3 41.3 70.2 47.7L68.5 44.3C68.5 44.3 96 38.5 117.7 45.5" fill="#E31013"/>
<path d="M116.1 49C116.1 49 98.3 41.3 70.2 47.7L68.5 44.3C68.5 44.3 96 38.5 117.7 45.5" stroke="#13110C" stroke-miterlimit="10"/>
<path d="M85 35.8C85.5523 35.8 86 35.3523 86 34.8C86 34.2477 85.5523 33.8 85 33.8C84.4477 33.8 84 34.2477 84 34.8C84 35.3523 84.4477 35.8 85 35.8Z" fill="#211C4B"/>
<path d="M105.2 35.4C105.2 36 104.7 36.4 104.2 36.4C103.6 36.4 103.2 35.9 103.2 35.4C103.2 34.8 103.7 34.4 104.2 34.4C104.7 34.3 105.2 34.8 105.2 35.4Z" fill="#211C4B"/>
<path d="M95.1001 38.6C95.1001 39.3 94.7001 39.9 94.1001 39.9C93.6001 39.9 93.1001 39.3 93.1001 38.6C93.1001 37.9 93.5001 37.3 94.1001 37.3C94.7001 37.3 95.1001 37.9 95.1001 38.6Z" fill="#211C4B"/>
<path d="M76.5998 39.6C76.8998 40.3 76.8996 41 76.3996 41.2C75.9996 41.4 75.2997 41.1 74.9997 40.4C74.6997 39.7 74.6996 39 75.1996 38.8C75.5996 38.5 76.2998 38.9 76.5998 39.6Z" fill="#211C4B"/>
<path d="M113.8 40.6C113.5 41.2 112.9 41.5 112.5 41.2C112.1 41 112.1 40.3 112.4 39.8C112.7 39.2 113.3 38.9 113.7 39.2C114.1 39.3 114.1 40 113.8 40.6Z" fill="#211C4B"/>
<path d="M68.1001 41.4C68.1001 41.4 71.0999 40.2 73.8999 40.2" stroke="#211C4B" stroke-miterlimit="10"/>
<path d="M67.6001 40.2C67.6001 40.2 70.5999 39 73.3999 39" stroke="#211C4B" stroke-miterlimit="10"/>
<path d="M77.8999 39.6C77.8999 39.6 86.4 38 91.5 39.6" stroke="#211C4B" stroke-miterlimit="10"/>
<path d="M77.8999 38C77.8999 38 86.4 36.4 91.5 38" stroke="#211C4B" stroke-miterlimit="10"/>
<path d="M96.3999 39.9C96.3999 39.9 106 38.2 110.6 40.7" stroke="#211C4B" stroke-miterlimit="10"/>
<path d="M96.3999 38.5C96.3999 38.5 106 36.8 110.6 39.3" stroke="#211C4B" stroke-miterlimit="10"/>
<path d="M115 41.4C115 41.4 117.1 41.2 118 42.5" stroke="#211C4B" stroke-miterlimit="10"/>
<path d="M115.6 40.2C115.6 40.2 117.7 40 118.6 41.3" stroke="#211C4B" stroke-miterlimit="10"/>
<path d="M70.5 35.9L75.3 37.9L79.5 33.8" stroke="#231E48" stroke-miterlimit="10"/>
<path d="M74.7998 33.8L75.2998 37.9" stroke="#231E48" stroke-miterlimit="10"/>
<path d="M89.7002 33.6L94.1003 36.4L99.0002 33" stroke="#231E48" stroke-miterlimit="10"/>
<path d="M94.3 32.3L94.1001 36.4" stroke="#231E48" stroke-miterlimit="10"/>
<path d="M109.9 34.6L113.9 37.9L119.1 35.1" stroke="#231E48" stroke-miterlimit="10"/>
<path d="M114.6 33.8L113.9 37.9" stroke="#231E48" stroke-miterlimit="10"/>
<path d="M95.7999 49V58.3C95.5999 60.7 96.9999 62.8 96.9999 62.8C98.3999 66.3 93.1998 69.4 93.1998 69.4C86.3998 79.2 80.1 78.5 80.1 78.5C76.5 78.6 72.2999 72.1 72.2999 72.1C70.3999 69.8 71.2999 50.6 71.2999 50.6C71.2999 50.6 83.5999 48.4 95.7999 49Z" fill="#FED68A" stroke="#13110C" stroke-miterlimit="10"/>
<path d="M72.5 52.5H78.8999V62.6C78.8999 62.6 75.1001 67.4 78.1001 67.4C78.1001 67.4 85 68.8 84.2 64.6" stroke="#13110C" stroke-miterlimit="10"/>
<path d="M74.7998 69.5C74.7998 69.5 78.1998 65.2 86.9998 68.3" stroke="#13110C" stroke-miterlimit="10"/>
<path d="M76.7998 71.3H85.5999" stroke="#13110C" stroke-miterlimit="10"/>
<path d="M79.1001 73.4C79.1001 73.4 80.7999 76.2 82.8999 73.4" stroke="#13110C" stroke-miterlimit="10"/>
<path d="M79.3999 70.7H82.8999" stroke="#13110C" stroke-miterlimit="10"/>
<path d="M79.3999 71.8H82.8999" stroke="#13110C" stroke-miterlimit="10"/>
<path d="M82.8999 52.5C82.8999 52.5 89.4 49.9 94.2 54" stroke="#13110C" stroke-miterlimit="10"/>
<path d="M92.1997 58C86.6997 53.3 82.2998 57.1 82.2998 57.1C82.2998 57.1 86.6997 60.6 92.1997 58Z" stroke="#13110C" stroke-miterlimit="10"/>
<path d="M82.8999 58.3C82.8999 58.3 85 62 88.2 61.6" stroke="#13110C" stroke-miterlimit="10"/>
<path d="M77.6001 58.9C73.1001 60.1 72 57.7 72 57.7C72 57.7 74.8999 55.8 77.8999 57.2C77.8999 57.3 78.5001 58.7 77.6001 58.9Z" stroke="#13110C" stroke-miterlimit="10"/>
<path d="M72 59.3C72 59.3 72.2 62.4 75.8 62.4" stroke="#13110C" stroke-miterlimit="10"/>
<path d="M75.6001 58.2C75.9867 58.2 76.3 58.1104 76.3 58C76.3 57.8895 75.9867 57.8 75.6001 57.8C75.2135 57.8 74.8999 57.8895 74.8999 58C74.8999 58.1104 75.2135 58.2 75.6001 58.2Z" stroke="#13110C" stroke-miterlimit="10"/>
<path d="M86.9998 57.6C87.6625 57.6 88.1997 57.4657 88.1997 57.3C88.1997 57.1343 87.6625 57 86.9998 57C86.337 57 85.7998 57.1343 85.7998 57.3C85.7998 57.4657 86.337 57.6 86.9998 57.6Z" stroke="#13110C" stroke-miterlimit="10"/>
<path d="M97.2001 49.9C97.2001 49.9 96.5001 59.3 99.0001 63C101.4 66.7 101.5 73.4 101.3 74.7" stroke="#13110C" stroke-width="0.5" stroke-miterlimit="10"/>
<path d="M95.8002 84.2L95.1003 82.3C94.8003 79.9 93.9001 82 93.9001 82C90.9001 84.4 91.5002 79.2 91.5002 79.2C96.9002 75.1 96.4001 82.4 96.4001 82.4L95.8002 84.2Z" stroke="#13110C" stroke-width="0.5" stroke-miterlimit="10"/>
<path d="M93.8997 81.1C93.8997 81.1 91.4997 81.7 93.8997 79.1" stroke="#13110C" stroke-width="0.5" stroke-miterlimit="10"/>
<path d="M97.2 81.3C97.2 81.3 95.4 75.6 99 74.7C99 74.7 104.3 74.8 101.4 79.5C101.4 79.5 97.6001 80.8 99.3001 78C99.3001 78 99.2001 74.7 97.8001 78.6L97.2 81.3Z" stroke="#13110C" stroke-width="0.5" stroke-miterlimit="10"/>
<path d="M99.5 75.7C99.5 75.7 101.5 76.4 100.3 78" stroke="#13110C" stroke-width="0.5" stroke-miterlimit="10"/>
<path d="M82.8999 79.1C82.8999 79.1 89 87.5 94 84.6" stroke="#13110C" stroke-width="0.5" stroke-miterlimit="10"/>
<path d="M84.2998 78.5C84.2998 78.5 89.0997 84.4 92.1997 83.6" stroke="#13110C" stroke-width="0.5" stroke-miterlimit="10"/>
<path d="M86.2998 78C86.2998 78 87.7997 81.5 90.3997 81.3" stroke="#13110C" stroke-width="0.5" stroke-miterlimit="10"/>
<path d="M88.1001 76.9C88.1001 76.9 89.2999 79 90.3999 79.1" stroke="#13110C" stroke-width="0.5" stroke-miterlimit="10"/>
<path d="M89.2998 75.7L91.4998 77.5" stroke="#13110C" stroke-width="0.5" stroke-miterlimit="10"/>
<path d="M90.3999 74.3C90.3999 74.3 93.5 75.6 94.2 76.9" stroke="#13110C" stroke-width="0.5" stroke-miterlimit="10"/>
<path d="M92.6001 72.3C92.6001 72.3 95.3 74.4 95.8 75.7" stroke="#13110C" stroke-width="0.5" stroke-miterlimit="10"/>
<path d="M94.7998 70.7C94.7998 70.7 96.3997 72.9 97.1997 74" stroke="#13110C" stroke-width="0.5" stroke-miterlimit="10"/>
<path d="M96.3999 68.3C96.3999 68.3 98.9 71.4 99 72.8" stroke="#13110C" stroke-width="0.5" stroke-miterlimit="10"/>
<path d="M98.2002 67.2C98.2002 67.2 100.7 71.1 100.1 73.4" stroke="#13110C" stroke-width="0.5" stroke-miterlimit="10"/>
<path d="M99.2003 50.2C99.2003 50.2 98.0003 60.1 100.7 63.1C100.7 63.1 104 69.3 103.5 80.1" stroke="#13110C" stroke-width="0.5" stroke-miterlimit="10"/>
<path d="M101.1 50.2C101.1 50.2 99.9002 60.1 102.6 63.1C102.6 63.1 105.9 69.3 105.4 80.1" stroke="#13110C" stroke-width="0.5" stroke-miterlimit="10"/>
<path d="M103.1 50.2C103.1 50.2 101.9 60.1 104.6 63.1C104.6 63.1 107.9 69.3 107.4 80.1" stroke="#13110C" stroke-width="0.5" stroke-miterlimit="10"/>
<path d="M104.9 50.2C104.9 50.2 103.7 60.1 106.4 63.1C106.4 63.1 109.7 69.3 109.2 80.1" stroke="#13110C" stroke-width="0.5" stroke-miterlimit="10"/>
<path d="M106.5 50.2C106.5 50.2 105.3 60.1 108 63.1C108 63.1 111.3 69.3 110.8 80.1" stroke="#13110C" stroke-width="0.5" stroke-miterlimit="10"/>
<path d="M108.4 50.2C108.4 50.2 107.2 60.1 109.9 63.1C109.9 63.1 113.2 69.3 112.7 80.1" stroke="#13110C" stroke-width="0.5" stroke-miterlimit="10"/>
<path d="M110.4 50.2C110.4 50.2 109.2 60.1 111.9 63.1C111.9 63.1 115.2 69.3 114.7 80.1" stroke="#13110C" stroke-width="0.5" stroke-miterlimit="10"/>
<path d="M112.2 50.2C112.2 50.2 111 60.1 113.7 63.1C113.7 63.1 117 69.3 116.5 80.1" stroke="#13110C" stroke-width="0.5" stroke-miterlimit="10"/>
<path d="M113.9 52.2C113.9 52.2 113.3 59.6 115.6 62.4C117.9 65.2 118.8 77.7 118.6 79.1" stroke="#13110C" stroke-width="0.5" stroke-miterlimit="10"/>
<path d="M115.6 55.3C115.6 55.3 116 60.9 117.7 63.1C119.4 65.4 120.2 76.4 120 77.5" stroke="#13110C" stroke-width="0.5" stroke-miterlimit="10"/>
<path d="M73.3998 75.2C73.3998 75.2 72.8999 82.6 70.9999 83.7C70.9999 83.7 63.4999 87.8 64.6999 80.5C64.6999 80.5 66.8999 78.9 67.4999 80.7C67.4999 80.7 65.0998 81.1 66.3998 82.2C66.3998 82.2 69.0998 85.6 70.3998 80.5C70.3998 80.5 69.2 76.5 65.6 77.6" stroke="#13110C" stroke-width="0.5" stroke-miterlimit="10"/>
<path d="M74.8 76.9C74.8 76.9 73.7 83.1 72.5 84.3" stroke="#13110C" stroke-width="0.5" stroke-miterlimit="10"/>
<path d="M75.7998 78C75.7998 78 75.4998 82.3 74.7998 82.9" stroke="#13110C" stroke-width="0.5" stroke-miterlimit="10"/>
<path d="M66.2001 72.8C66.2001 72.8 65.9002 75.4 67.6002 74.7C67.6002 74.7 70.1001 72.8 67.2001 71.3" stroke="#13110C" stroke-width="0.5" stroke-miterlimit="10"/>
<path d="M66.1001 76.9C66.1001 76.9 70.6 76.6 71 72.4" stroke="#13110C" stroke-width="0.5" stroke-miterlimit="10"/>
<path d="M71.2002 79.1V74.7" stroke="#13110C" stroke-width="0.5" stroke-miterlimit="10"/>
<path d="M69.6999 58.9C69.6999 58.9 67.7999 59.3 69.6999 60.4" stroke="#13110C" stroke-width="0.5" stroke-miterlimit="10"/>
<path d="M70.1001 64.8C70.1001 64.8 70.4001 71.1 70.1001 71.8" stroke="#13110C" stroke-width="0.5" stroke-miterlimit="10"/>
<path d="M64.8999 78C64.8999 78 57.0001 79.1 48.1001 83.2C42.0001 86 35.4 90.2 30.5 96.6" stroke="#13110C" stroke-miterlimit="10"/>
<path d="M125.9 40.2C125.9 40.2 125.5 34.4 127.5 33.3C129.4 32.2 132.5 32.4 133.5 34.3C133.5 34.3 134.2 39.5 130.1 37.1C130.1 37.1 128.4 36.1 129.6 43.7C129.6 43.7 132.3 53.9 130.5 56C130.5 56 127.6 61.5 124.9 57.9C124.9 57.9 122.9 53.1 126 53.5C126 53.5 129.2 53 127.2 49.4C127.1 49.4 123.4 45.4 125.9 40.2Z" fill="#FFEA24" stroke="#13110C" stroke-miterlimit="10"/>
<path d="M120.2 40.2H125.9" stroke="#211C4B" stroke-miterlimit="10"/>
<path d="M116 54.5L124.2 54.4" stroke="#211C4B" stroke-miterlimit="10"/>
<path d="M120.877 43.594L117.969 46.8963L121.271 49.8043L124.179 46.5019L120.877 43.594Z" stroke="#231D49" stroke-miterlimit="10"/>
<path d="M116 50.2H127.5" stroke="#231E48" stroke-miterlimit="10"/>
<path d="M145.9 45.1C145.4 41.9 142 42 142 42V49.4C142 49.4 145.3 50.2 145.9 46.8V45.1Z" fill="#FFEA24" stroke="#13110C" stroke-miterlimit="10"/>
<path d="M131.6 41.4C131.6 42.3 131.3 43 130.9 43C130.5 43 130.2 42.3 130.2 41.4C130.2 40.5 130.5 39.8 130.9 39.8C131.3 39.8 131.6 40.5 131.6 41.4Z" fill="white" stroke="#13110C" stroke-miterlimit="10"/>
<path d="M134.3 43C134.3 44.8 133.8 46.2 133.2 46.2C132.6 46.2 132.1 44.8 132.1 43C132.1 41.2 132.6 39.8 133.2 39.8C133.8 39.8 134.3 41.2 134.3 43Z" fill="white" stroke="#13110C" stroke-miterlimit="10"/>
<path d="M137 43.9C137 46.2 136.5 48 135.8 48C135.1 48 134.6 46.2 134.6 43.9C134.6 41.6 135.1 39.8 135.8 39.8C136.5 39.8 137 41.6 137 43.9Z" fill="white" stroke="#13110C" stroke-miterlimit="10"/>
<path d="M139.5 44C139.5 46.1 139.1 47.8 138.6 47.8C138.1 47.8 137.7 46.1 137.7 44C137.7 41.9 138.1 40.2 138.6 40.2C139.1 40.2 139.5 41.9 139.5 44Z" fill="white" stroke="#13110C" stroke-miterlimit="10"/>
<path d="M141.5 44.2C141.5 46.1 141.1 47.7 140.7 47.7C140.3 47.7 139.9 46.1 139.9 44.2C139.9 42.3 140.3 40.7 140.7 40.7C141.1 40.7 141.5 42.3 141.5 44.2Z" fill="white" stroke="#13110C" stroke-miterlimit="10"/>
<path d="M129.1 57.8L129.3 59L139.9 58.8V55.9" stroke="#13110C" stroke-miterlimit="10"/>
<path d="M137.7 56.9C137.7 56.9 140.8 57 141.3 49.9" stroke="#13110C" stroke-miterlimit="10"/>
<path d="M132.4 56.9C132.4 56.9 135.7 54.6 135.8 51.9" stroke="#13110C" stroke-miterlimit="10"/>
<path d="M130.2 60.9H139.7" stroke="#13110C" stroke-miterlimit="10"/>
<path d="M137 66.2C137 67.5 136.4 68.6 135.7 68.6C135 68.6 134.4 67.5 134.4 66.2C134.4 64.9 135 63.8 135.7 63.8C136.5 63.8 137 64.9 137 66.2Z" fill="#211C4B"/>
<path d="M139.7 98.8H149.3V109.5" fill="#13110C"/>
<path d="M139.7 98.8H149.3V109.5" stroke="#13110C" stroke-miterlimit="10"/>
<path d="M123.4 80.8L149.3 109.5V126.8H146.9V110.7L119.6 79.8C119.6 79.8 121.1 76.5 123.4 80.8Z" fill="#FFEA24" stroke="#13110C" stroke-miterlimit="10"/>
<path d="M123.5 78.2L131.6 70L135.7 79.1L140.7 70L149.3 79.1" stroke="#13110C" stroke-miterlimit="10"/>
<path d="M123 75.7L132.2 65.7L135.8 74.6L139.9 66L145.2 71.5L149.3 75.7" stroke="#13110C" stroke-miterlimit="10"/>
<path d="M129.3 62.5H141" stroke="#13110C" stroke-miterlimit="10"/>
<path d="M126.2 80L130.6 76.5C130.6 76.5 131.3 79.8 132.9 80.1" stroke="white" stroke-miterlimit="10"/>
<path d="M139.2 80.4C139.2 80.4 140.8 79.2 141.3 78C141.3 78 143.1 80.3 145.2 80.4" stroke="white" stroke-miterlimit="10"/>
<path d="M50 85.7C42.1 87.2 30.6001 98.8 30.6001 98.8V97.3C36.0001 88.4 48.2 83.1 48.2 83.1L50 85.7Z" fill="#FFEA24" stroke="#13110C" stroke-miterlimit="10"/>
<path d="M64.8999 105C63.8999 96.5 48.1001 83.2 48.1001 83.2C48.1001 83.2 57.2999 79.3 63.3999 78.1C63.3999 78.1 71.6 90.3 76.8 105.8C76.8 105.8 72.4999 103.8 64.8999 105.1" fill="white"/>
<path d="M64.8999 105C63.8999 96.5 48.1001 83.2 48.1001 83.2C48.1001 83.2 57.2999 79.3 63.3999 78.1C63.3999 78.1 71.6 90.3 76.8 105.8C76.8 105.8 72.4999 103.8 64.8999 105.1" stroke="#13110C" stroke-miterlimit="10"/>
<path d="M30.6001 99.7V106.8C30.6001 106.8 49.9 89.6 54.8 89.4L50.5 85.2C50.5 85.2 38.8001 89.4 30.6001 99.7Z" fill="#13110C"/>
<path d="M32.2998 99.7C32.2998 99.7 37.2998 103.7 34.9998 97.3C34.9998 97.3 40.8999 101.5 38.0999 94.4C38.0999 94.4 44.2998 98.5 41.7998 92C41.7998 92 46.9998 95.5 45.4998 89.9C45.4998 89.9 50.9998 92.6 48.7998 87.2" stroke="white" stroke-miterlimit="10"/>
<path d="M30.6001 110.2C41.7001 97.2 55.7 90.4 55.7 90.4L59.3 94.5L50.6001 100L47.8 98.4L48.2 106.9C42.3 109.3 40.3 112.6 40.3 112.6L30.6001 121.2V110.2Z" fill="#211C4B" stroke="#13110C" stroke-miterlimit="10"/>
<path d="M50.5999 100L47.7998 98.4L48.1997 106.9C48.1997 106.9 44.0998 108.3 40.2998 112.6C40.2998 112.6 44.4997 116.7 48.1997 117.8L46.8997 125.5C46.8997 125.5 55.5998 121.7 58.2998 118.4V105C58.1998 105 55.7999 102 50.5999 100Z" fill="#FFEA24" stroke="#13110C" stroke-miterlimit="10"/>
<path d="M49.3 101L51.6001 106.8L44.3999 111.9L50 116.3L49.3 122.8" stroke="#13110C" stroke-miterlimit="10"/>
<path d="M52.3 102L54.8 108.5L48.6001 111.9L54.2 115.8L51.6001 121.2" stroke="#13110C" stroke-miterlimit="10"/>
<path d="M56.5 105V117.7" stroke="#13110C" stroke-miterlimit="10"/>
<path d="M73.3997 117C72.4997 117.2 71.4998 117.3 70.4998 117.4C64.6998 118 58.2998 117 58.2998 117V106.8C58.2998 106.8 63.5998 104.1 73.4998 104.9C73.4998 104.9 78.4998 105.2 79.4998 107.5C79.4998 107.5 81.6999 108.2 81.0999 109.4L80.3997 110.2C80.3997 110.2 83.2997 111.6 80.1997 112.9C80.1997 112.9 81.9999 114.5 78.5999 115.2C78.3999 115.3 75.7997 117 73.3997 117Z" fill="#FED68A" stroke="#13110C" stroke-miterlimit="10"/>
<path d="M79.3999 107.5H69.8999" stroke="#13110C" stroke-miterlimit="10"/>
<path d="M80.3003 110.3H70.2002" stroke="#13110C" stroke-miterlimit="10"/>
<path d="M80.0002 113H70.2002" stroke="#13110C" stroke-miterlimit="10"/>
<path d="M57.6001 88.8C52.5001 86.1 53.8001 83.1 53.8001 83.1C53.8001 83.1 56.8001 82.7 56.8001 85.8C56.8001 85.8 56.7001 88.3 57.6001 88.8Z" fill="#211C4B"/>
<path d="M62.2002 87.7C57.1002 85 58.4002 82 58.4002 82C58.4002 82 61.4002 81.6 61.4002 84.7C61.4002 84.7 61.4002 87.1 62.2002 87.7Z" fill="#211C4B"/>
<path d="M65.4002 95C60.3002 92.3 61.6004 89.3 61.6004 89.3C61.6004 89.3 64.6004 88.9 64.6004 92C64.6004 92 64.5002 94.4 65.4002 95Z" fill="#211C4B"/>
<path d="M73 101.2C67.9 98.5 69.2 95.5 69.2 95.5C69.2 95.5 72.2 95.1 72.2 98.2C72.2 98.2 72.1 100.6 73 101.2Z" fill="#211C4B"/>
<path d="M68.1001 103.1C63.0001 100.4 64.3001 97.4 64.3001 97.4C64.3001 97.4 67.3001 97 67.3001 100.1C67.3001 100.1 67.2001 102.5 68.1001 103.1Z" fill="#211C4B"/>
<path d="M70.7998 117.4C71.6998 120.2 71.8997 126.8 71.8997 126.8H82.3997C82.3997 126.8 80.9997 116 79.3997 115C79.3997 115 75.4998 116.8 70.7998 117.4Z" fill="white" stroke="#13110C" stroke-miterlimit="10"/>
<path d="M75.1996 117.5C78.2996 122.3 75.6996 124.3 75.6996 124.3C75.6996 124.3 72.8997 123.1 74.4997 120.5C74.3997 120.5 75.5996 118.4 75.1996 117.5Z" fill="#211C4B"/>
<path d="M31.2998 120.5H47.6997" stroke="#13110C" stroke-miterlimit="10"/>
<path d="M68.5 86.7C68.5 86.7 74.6 86.8 79.3 78.6H81.6001C81.6001 78.6 82.3999 82.9 88.3999 86L86.2 88.8C86.2 88.8 82.5001 86.6 81.1001 83.7H79.3C79.3 83.7 74.5 89.6 70 89.8L68.5 86.7Z" fill="#13110C" stroke="#13110C" stroke-miterlimit="10"/>
<path d="M71.5 92.6L80.3 87.7L83.7 91" stroke="white" stroke-width="2" stroke-miterlimit="10"/>
<path d="M84.2002 97.4L84.3003 101.7H88.1003L89.9001 95L84.2002 97.4Z" fill="#211C4B"/>
<path d="M90 90.6L90.1001 95H93.8999L95.7 88.3L90 90.6Z" fill="#211C4B"/>
<path d="M76.7998 102.7C76.7998 102.7 87.5997 91.3 90.3997 87.7" stroke="#13110C" stroke-miterlimit="10"/>
<path d="M82.3999 112.5L96 96.5" stroke="#13110C" stroke-miterlimit="10"/>
<path d="M79.3999 100.2L82.3999 101.2L81.6001 97.6" stroke="#13110C" stroke-miterlimit="10"/>
<path d="M86.3 108L85.6001 103.7L89 104.8" stroke="#13110C" stroke-miterlimit="10"/>
<path d="M85.2998 93.6L88.3997 94.1L87.2998 91.4" stroke="#13110C" stroke-miterlimit="10"/>
<path d="M92.3003 100.9L90.7002 96.5L94.5002 98.3" stroke="#13110C" stroke-miterlimit="10"/>
<path d="M53.1001 126.8C53.1001 126.8 55.8 121 61.8 118.5V119.8C61.8 119.8 56.7 123.2 55.3 126.9L53.1001 126.8Z" fill="#FFEA24"/>
<path d="M63.1001 126.5C63.1001 126.5 66.2 119.8 70 117.8C70 117.8 71.3 117.3 71.3 119.8C71.3 119.8 68.2001 122 66.1001 126.4L63.1001 126.5Z" fill="#FFEA24" stroke="#13110C" stroke-miterlimit="10"/>
<path d="M97.4001 121.7V119.1H83.4001V117.5L97.4001 103V98.1L80.7002 117.4C80.7002 117.4 81.6002 121.1 81.7002 121.6C81.7002 122.2 97.4001 121.7 97.4001 121.7Z" fill="#13110C" stroke="#13110C" stroke-miterlimit="10"/>
<path d="M97.3999 124.8H82.1001L81.6001 121.7H97.3999V124.8Z" fill="#FFEA24" stroke="#13110C" stroke-miterlimit="10"/>
<path d="M100.7 109.2C98.3998 103.9 101.4 102.4 101.4 102.4C101.4 102.4 103.9 104 102 106.4C101.9 106.3 100.4 108.2 100.7 109.2Z" fill="#211C4B"/>
<path d="M104.5 99.4C102.2 94.1 105.2 92.6 105.2 92.6C105.2 92.6 107.7 94.2 105.8 96.6C105.8 96.6 104.2 98.4 104.5 99.4Z" fill="#211C4B"/>
<path d="M105.3 128.9C103 123.6 106 122.1 106 122.1C106 122.1 108.5 123.7 106.6 126.1C106.5 126 105 127.9 105.3 128.9Z" fill="#211C4B"/>
<path d="M108.5 126.5C121.4 112.1 111.5 94.4 111.5 94.4C111.5 94.4 107.1 110.1 108.5 126.5Z" fill="#211C4B" stroke="#13110C" stroke-miterlimit="10"/>
<path d="M109.7 103.1L113.9 106.8C113.9 106.8 110.3 111 112.4 116.9L108.4 123.2C108.3 123.3 108.2 110.6 109.7 103.1Z" fill="#FFEA24" stroke="#13110C" stroke-miterlimit="10"/>
<path d="M113.3 107.5H109" stroke="#13110C" stroke-miterlimit="10"/>
<path d="M112.4 116.9H108.4" stroke="#13110C" stroke-miterlimit="10"/>
<path d="M112.5 91.7C112.5 91.7 124.8 108.6 111.1 126.8H113.4C113.4 126.8 128 112.6 113.4 89.6L112.5 91.7Z" fill="white" stroke="#13110C" stroke-miterlimit="10"/>
<path d="M114.7 86.9C114.7 86.9 129.9 105 117.3 126.8H113.9C113.9 126.8 127.5 110.2 113.4 89.6L114.7 86.9Z" fill="#FFEA24" stroke="#13110C" stroke-miterlimit="10"/>
<path d="M118.6 81.3C118.6 81.3 135.6 102.2 124.6 126.8H126.8C126.8 126.8 139.7 108.9 120 80.3L118.6 81.3Z" fill="#FFEA24" stroke="#13110C" stroke-miterlimit="10"/>
<path d="M135.5 97.7L137.3 99.9V126.8H135.5V97.7Z" fill="#FFEA24" stroke="#13110C" stroke-miterlimit="10"/>
<path d="M121.3 81.8L135.4 97.8V101L126.8 92.4C126.8 92.4 123.4 82.7 121.3 81.8Z" fill="#13110C" stroke="#13110C" stroke-miterlimit="10"/>
<path d="M127.2 126.8L135.5 122V126.8H127.2Z" fill="#13110C" stroke="#13110C" stroke-miterlimit="10"/>
<path d="M90.5 126.6H43.2L43.3999 151.3L61.8 172.1L114.3 169.7L149.3 140.4V126.8L90.5 126.6H33.5H90.5Z" fill="#E31013"/>
<path d="M90.5 126.6H43.2L43.3999 151.3L61.8 172.1L114.3 169.7L149.3 140.4V126.8L90.5 126.6ZM90.5 126.6H33.5" stroke="#13110C" stroke-miterlimit="10"/>
<path d="M56.2 162.5L59.1001 157.4L53.3999 154" fill="#13110C"/>
<path d="M56.2 162.5L59.1001 157.4L53.3999 154" stroke="white" stroke-miterlimit="10"/>
<path d="M52.9001 151.7L57.0002 145.9L52.2002 141.1" fill="#13110C"/>
<path d="M52.9001 151.7L57.0002 145.9L52.2002 141.1" stroke="white" stroke-miterlimit="10"/>
<path d="M52.5 138.4L57.3999 135.8L54.8999 128.7" fill="#13110C"/>
<path d="M52.5 138.4L57.3999 135.8L54.8999 128.7" stroke="white" stroke-miterlimit="10"/>
<path d="M55.2002 127.9L60.9001 126.6" stroke="white" stroke-miterlimit="10"/>
<path d="M61.8 172.1L63.3 165.1L57 164.1" fill="#13110C"/>
<path d="M61.8 172.1L63.3 165.1L57 164.1" stroke="white" stroke-miterlimit="10"/>
<path d="M33.5 143.2L43.2 153.5V126.6H33.5V143.2Z" fill="#211C4B" stroke="#13110C" stroke-miterlimit="10"/>
<path d="M38.9998 126.9L35.2998 129.1L42.0999 136.4L35.9998 143.1L43.1997 151" stroke="white" stroke-width="2" stroke-miterlimit="10"/>
<path d="M82.2998 126.6C82.2998 126.6 84.4998 152.4 80.9998 172.2L61.7998 172.1C61.7998 172.1 74.4997 160.6 71.8997 126.6H82.2998Z" fill="white" stroke="#13110C" stroke-miterlimit="10"/>
<path d="M78.0997 161.7C80.3997 167 77.3995 168.5 77.3995 168.5C77.3995 168.5 74.8997 166.9 76.7997 164.5C76.7997 164.6 78.3997 162.7 78.0997 161.7Z" fill="#211C4B"/>
<path d="M70.2003 161.7C72.5003 167 69.5003 168.5 69.5003 168.5C69.5003 168.5 67.0002 166.9 68.9002 164.5C69.0002 164.6 70.5003 162.7 70.2003 161.7Z" fill="#211C4B"/>
<path d="M74.7999 143.5C77.0999 148.8 74.0999 150.3 74.0999 150.3C74.0999 150.3 71.5998 148.7 73.4998 146.3C73.4998 146.4 75.0999 144.5 74.7999 143.5Z" fill="#211C4B"/>
<path d="M77.5001 134.9C79.8001 140.2 76.8001 141.7 76.8001 141.7C76.8001 141.7 74.3 140.1 76.2 137.7C76.3 137.8 77.8001 136 77.5001 134.9Z" fill="#211C4B"/>
<path d="M79.5001 125.2C81.8001 130.5 78.8001 132 78.8001 132C78.8001 132 76.3 130.4 78.2 128C78.2 128.1 79.8001 126.2 79.5001 125.2Z" fill="#211C4B"/>
<path d="M109.2 133.5C111.8 132.1 114.6 126.6 114.6 126.6L112.4 126.5C112.4 126.5 110.6 130.2 109 131.9L109.2 133.5Z" fill="white" stroke="#13110C" stroke-width="0.5" stroke-miterlimit="10"/>
<path d="M136.1 126.5V132.9L126.5 133.3L125.7 136.4L118.7 136V126.5H136.1Z" fill="#13110C"/>
<path d="M92.0002 167.4C92.0002 167.4 99.8002 157.6 105.5 152.6C105.5 152.6 103.4 147.7 99.9001 135.9L82.9001 155.5C82.9001 155.5 81.2003 169.2 81.1003 171.4C81.0003 171.4 85.3002 176.4 92.0002 167.4Z" fill="#FFEA24" stroke="#13110C" stroke-miterlimit="10"/>
<path d="M101.9 149.4L101.8 145.1H97.8999L96.1001 151.8L101.9 149.4Z" fill="#211C4B"/>
<path d="M147.7 126.6L147.5 132.9H137.1V126.5L147.7 126.6Z" fill="#211C4B"/>
<path d="M138.5 132.4L146.6 126.9" stroke="white" stroke-width="2" stroke-miterlimit="10"/>
<path d="M137.1 132.9V126.6" stroke="#FFEA24" stroke-width="3" stroke-miterlimit="10"/>
<path d="M148 132.9V126.6" stroke="#FFEA24" stroke-width="3" stroke-miterlimit="10"/>
<path d="M149.2 145.4C149.2 145.4 131.9 162.4 125.3 163.5" stroke="#FFEA24" stroke-width="2" stroke-miterlimit="10"/>
<path d="M56.5002 169.5H31.2002V179.6H56.5002V169.5Z" fill="#13110C"/>
<path d="M55.8003 171.2H31.2002" stroke="#E31013" stroke-width="2" stroke-miterlimit="10"/>
<path d="M40.5 194.4L51 194.3L40.5 194.4C40.5 194.3 38.4001 184.2 31.1001 179.7V172C35.8001 173 39.8 179.7 39.8 179.7L43.8 171.3C46.5 172.1 49.3999 179.3 49.3999 179.3L57 172.7L59.3 175.3C59.3 175.3 58.6 180.2 58 180.2C58 180.2 50.1 186.6 51 194.3" fill="#FFEA24"/>
<path d="M40.5 194.4L51 194.3L40.5 194.4ZM40.5 194.4C40.5 194.3 38.4001 184.2 31.1001 179.7V172C35.8001 173 39.8 179.7 39.8 179.7L43.8 171.3C46.5 172.1 49.3999 179.3 49.3999 179.3L57 172.7L59.3 175.3C59.3 175.3 58.6 180.2 58 180.2C58 180.2 50.1 186.6 51 194.3" stroke="#13110C" stroke-miterlimit="10"/>
<path d="M54.9001 170.2H31.2002V160.8L45.7002 160L54.9001 170.2Z" fill="#211C4B"/>
<path d="M42.1003 156H31.2002" stroke="#E31013" stroke-width="2" stroke-miterlimit="10"/>
<path d="M46 158.9H31.3999" stroke="#FFEA24" stroke-width="4" stroke-miterlimit="10"/>
<path d="M51.1001 204H39V210.4H51.1001V204Z" fill="#211C4B"/>
<path d="M65.3995 202C65.3995 202 61.1997 187.6 59.2997 186.8C59.2997 186.8 54.4995 174.7 63.8995 172.1H83.1996C83.1996 172.1 86.0996 161.1 96.1996 170.3C96.1996 170.3 99.0996 173.5 98.6996 174.9L101 174.8C101 174.8 105.4 166.4 112.4 166.5C112.4 166.5 121.6 167.4 116.4 174.7C116.4 174.7 112.9 176.2 116.3 178.2C116.3 178.2 118.3 182.8 113.4 182.5C113.4 182.5 110.4 180.2 111.2 186C111.2 186 109.7 191.3 112.5 191.6C112.5 191.6 114 194.7 111.8 194.9C111.8 194.9 110.6 201.7 108.9 201.4L109.1 203.2C109.3 203.5 78.7995 207.1 65.3995 202Z" fill="#AFA3C7" stroke="#13120D" stroke-width="0.5" stroke-miterlimit="10"/>
<path d="M129.2 192.3C129 192.5 128.8 192.7 128.6 193L121.9 201.2L118.2 205.7C116.3 208 116.6 211.4 119 213.3L119.4 213.6C121.7 215.5 125.1 215.2 127 212.8L129.2 210.1L131.4 212.8C133.3 215.1 136.7 215.5 139 213.6L139.4 213.3C141.7 211.4 142.1 208 140.2 205.7L129.8 192.9C129.6 192.7 129.4 192.5 129.2 192.3Z" fill="#E30B13"/>
<path d="M162.5 205C162.3 205.2 162.2 205.3 162 205.5L156.8 211.9L153.9 215.4C152.4 217.2 152.7 219.9 154.5 221.3L154.8 221.6C156.6 223.1 159.3 222.8 160.7 221L162.4 218.9L164.1 221C165.6 222.8 168.2 223.1 170 221.6L170.3 221.3C172.1 219.8 172.4 217.2 170.9 215.4L162.8 205.5C162.8 205.4 162.6 205.2 162.5 205Z" fill="#E30B13"/>
<path d="M54.6001 222.1H121.3C121.3 222.1 114 213.9 110.3 205.7C109.8 204.7 109.4 203.7 109.1 202.7C109.1 202.7 83.7 207 65.5 201.9C65.4 202 57.7001 220.6 54.6001 222.1Z" fill="#FFEA24" stroke="#13110C" stroke-miterlimit="10"/>
<path d="M64.6001 203.9C84.9001 211.2 110 205.2 110 205.2L109.1 202.8C109.1 202.8 85.9 207.2 65.5 202L64.6001 203.9Z" fill="#13110C" stroke="#13110C" stroke-miterlimit="10"/>
<path d="M64.3003 204.4C64.3003 204.4 82.1002 212.1 110.2 205.7L111.9 209.1C111.9 209.1 84.4002 214.9 62.7002 207.9" fill="#E31013"/>
<path d="M64.3003 204.4C64.3003 204.4 82.1002 212.1 110.2 205.7L111.9 209.1C111.9 209.1 84.4002 214.9 62.7002 207.9" stroke="#13110C" stroke-miterlimit="10"/>
<path d="M94.3999 218.6C94.3999 218 94.8999 217.6 95.3999 217.6C95.9999 217.6 96.3999 218.1 96.3999 218.6C96.3999 219.2 95.8999 219.6 95.3999 219.6C94.8999 219.6 94.3999 219.1 94.3999 218.6Z" fill="#211C4B"/>
<path d="M75.2998 218C75.2998 217.4 75.7998 217 76.2998 217C76.7998 217 77.2998 217.5 77.2998 218C77.2998 218.6 76.7998 219 76.2998 219C75.7998 219 75.2998 218.6 75.2998 218Z" fill="#211C4B"/>
<path d="M85.2998 214.8C85.2998 214.1 85.6998 213.5 86.2998 213.5C86.7998 213.5 87.2998 214.1 87.2998 214.8C87.2998 215.5 86.8998 216.1 86.2998 216.1C85.7998 216.1 85.2998 215.5 85.2998 214.8Z" fill="#211C4B"/>
<path d="M103.9 213.8C103.6 213.1 103.6 212.4 104.1 212.2C104.5 212 105.2 212.3 105.5 213C105.8 213.7 105.8 214.4 105.3 214.6C104.8 214.9 104.2 214.5 103.9 213.8Z" fill="#211C4B"/>
<path d="M66.6999 212.8C66.9999 212.2 67.6 211.9 68 212.2C68.4 212.4 68.4001 213.1 68.1001 213.6C67.8001 214.2 67.2 214.5 66.8 214.2C66.4 214.1 66.2999 213.4 66.6999 212.8Z" fill="#211C4B"/>
<path d="M112.3 212C112.3 212 109.3 213.2 106.5 213.2" stroke="#211C4B" stroke-miterlimit="10"/>
<path d="M112.9 213.2C112.9 213.2 109.9 214.4 107.1 214.4" stroke="#211C4B" stroke-miterlimit="10"/>
<path d="M102.6 213.8C102.6 213.8 94.1 215.4 89 213.8" stroke="#211C4B" stroke-miterlimit="10"/>
<path d="M102.6 215.4C102.6 215.4 94.1 217 89 215.4" stroke="#211C4B" stroke-miterlimit="10"/>
<path d="M84.1001 213.5C84.1001 213.5 74.4999 215.2 69.8999 212.7" stroke="#211C4B" stroke-miterlimit="10"/>
<path d="M84.1001 214.9C84.1001 214.9 74.4999 216.6 69.8999 214.1" stroke="#211C4B" stroke-miterlimit="10"/>
<path d="M65.5 212C65.5 212 63.4 212.2 62.5 210.9" stroke="#211C4B" stroke-miterlimit="10"/>
<path d="M64.8999 213.2C64.8999 213.2 62.7999 213.4 61.8999 212.1" stroke="#211C4B" stroke-miterlimit="10"/>
<path d="M110 217.5L105.2 215.5L101 219.6" stroke="#231E48" stroke-miterlimit="10"/>
<path d="M105.7 219.6L105.2 215.5" stroke="#231E48" stroke-miterlimit="10"/>
<path d="M90.7 219.8L86.3 217L81.5 220.4" stroke="#231E48" stroke-miterlimit="10"/>
<path d="M86.1001 221.1L86.3 217" stroke="#231E48" stroke-miterlimit="10"/>
<path d="M70.5999 218.8L66.5999 215.5L61.2998 218.3" stroke="#231E48" stroke-miterlimit="10"/>
<path d="M65.8999 219.6L66.6001 215.5" stroke="#231E48" stroke-miterlimit="10"/>
<path d="M84.7 204.4V195.1C84.9 192.7 83.5 190.6 83.5 190.6C82.1 187.1 87.3001 184 87.3001 184C94.1001 174.2 100.4 174.9 100.4 174.9C104 174.8 108.2 181.3 108.2 181.3C110.1 183.6 109.2 202.8 109.2 202.8C109.2 202.8 96.9 205 84.7 204.4Z" fill="#FED68A" stroke="#13110C" stroke-miterlimit="10"/>
<path d="M108 200.9H101.6V190.8C101.6 190.8 105.4 186 102.4 186C102.4 186 95.4999 184.6 96.2999 188.8" stroke="#13110C" stroke-miterlimit="10"/>
<path d="M105.7 183.9C105.7 183.9 102.3 188.2 93.5 185.1" stroke="#13110C" stroke-miterlimit="10"/>
<path d="M103.7 182.1H94.8999" stroke="#13110C" stroke-miterlimit="10"/>
<path d="M101.4 180C101.4 180 99.7001 177.2 97.6001 180" stroke="#13110C" stroke-miterlimit="10"/>
<path d="M101 182.7H97.6001" stroke="#13110C" stroke-miterlimit="10"/>
<path d="M101 181.6H97.6001" stroke="#13110C" stroke-miterlimit="10"/>
<path d="M97.5999 200.9C97.5999 200.9 91.0998 203.5 86.2998 199.4" stroke="#13110C" stroke-miterlimit="10"/>
<path d="M88.2998 195.4C93.7998 200.1 98.1997 196.3 98.1997 196.3C98.1997 196.3 93.7998 192.8 88.2998 195.4Z" stroke="#13110C" stroke-miterlimit="10"/>
<path d="M97.5999 195.1C97.5999 195.1 95.4998 191.4 92.2998 191.8" stroke="#13110C" stroke-miterlimit="10"/>
<path d="M102.9 194.5C107.4 193.3 108.5 195.7 108.5 195.7C108.5 195.7 105.6 197.6 102.6 196.2C102.6 196.1 102 194.7 102.9 194.5Z" stroke="#13110C" stroke-miterlimit="10"/>
<path d="M108.5 194.1C108.5 194.1 108.3 191 104.7 191" stroke="#13110C" stroke-miterlimit="10"/>
<path d="M104.9 195.6C105.287 195.6 105.6 195.51 105.6 195.4C105.6 195.29 105.287 195.2 104.9 195.2C104.514 195.2 104.2 195.29 104.2 195.4C104.2 195.51 104.514 195.6 104.9 195.6Z" stroke="#13110C" stroke-miterlimit="10"/>
<path d="M93.4998 196.4C94.1625 196.4 94.6997 196.266 94.6997 196.1C94.6997 195.934 94.1625 195.8 93.4998 195.8C92.837 195.8 92.2998 195.934 92.2998 196.1C92.2998 196.266 92.837 196.4 93.4998 196.4Z" stroke="#13110C" stroke-miterlimit="10"/>
<path d="M83.2001 203.5C83.2001 203.5 83.9001 194.1 81.4001 190.4C79.0001 186.7 78.9002 180 79.1002 178.7" stroke="#13110C" stroke-width="0.5" stroke-miterlimit="10"/>
<path d="M84.7 169.1L85.3999 171C85.6999 173.4 86.6001 171.3 86.6001 171.3C89.6001 168.9 89 174.1 89 174.1C83.6 178.2 84.1001 170.9 84.1001 170.9L84.7 169.1Z" stroke="#13110C" stroke-width="0.5" stroke-miterlimit="10"/>
<path d="M86.5 172.3C86.5 172.3 88.9 171.7 86.5 174.3" stroke="#13110C" stroke-width="0.5" stroke-miterlimit="10"/>
<path d="M83.2003 172.1C83.2003 172.1 85.0003 177.8 81.4003 178.7C81.4003 178.7 76.1004 178.6 79.0004 173.9C79.0004 173.9 82.8005 172.6 81.1005 175.4C81.1005 175.4 81.2005 178.7 82.6005 174.8L83.2003 172.1Z" stroke="#13110C" stroke-width="0.5" stroke-miterlimit="10"/>
<path d="M80.9999 177.7C80.9999 177.7 78.9998 177 80.1998 175.4" stroke="#13110C" stroke-width="0.5" stroke-miterlimit="10"/>
<path d="M97.6001 174.3C97.6001 174.3 91.5 165.9 86.5 168.8" stroke="#13110C" stroke-width="0.5" stroke-miterlimit="10"/>
<path d="M96.1997 174.9C96.1997 174.9 91.3998 169 88.2998 169.8" stroke="#13110C" stroke-width="0.5" stroke-miterlimit="10"/>
<path d="M94.1001 175.4C94.1001 175.4 92.6 171.9 90 172.1" stroke="#13110C" stroke-width="0.5" stroke-miterlimit="10"/>
<path d="M92.3999 176.5C92.3999 176.5 91.2001 174.4 90.1001 174.3" stroke="#13110C" stroke-width="0.5" stroke-miterlimit="10"/>
<path d="M91.2 177.7L89 175.9" stroke="#13110C" stroke-width="0.5" stroke-miterlimit="10"/>
<path d="M90.0999 179.1C90.0999 179.1 86.9998 177.8 86.2998 176.5" stroke="#13110C" stroke-width="0.5" stroke-miterlimit="10"/>
<path d="M87.9001 181.1C87.9001 181.1 85.2002 179 84.7002 177.7" stroke="#13110C" stroke-width="0.5" stroke-miterlimit="10"/>
<path d="M85.6003 182.7C85.6003 182.7 84.0002 180.5 83.2002 179.4" stroke="#13110C" stroke-width="0.5" stroke-miterlimit="10"/>
<path d="M84.1001 185.1C84.1001 185.1 81.6 182 81.5 180.6" stroke="#13110C" stroke-width="0.5" stroke-miterlimit="10"/>
<path d="M82.2998 186.2C82.2998 186.2 79.7996 182.3 80.3996 180" stroke="#13110C" stroke-width="0.5" stroke-miterlimit="10"/>
<path d="M81.2003 203.2C81.2003 203.2 82.4003 193.3 79.7003 190.3C79.7003 190.3 76.4002 184.1 76.9002 173.3" stroke="#13110C" stroke-width="0.5" stroke-miterlimit="10"/>
<path d="M79.4002 203.2C79.4002 203.2 80.6002 193.3 77.9002 190.3C77.9002 190.3 74.6004 184.1 75.1004 173.3" stroke="#13110C" stroke-width="0.5" stroke-miterlimit="10"/>
<path d="M77.4002 203.2C77.4002 203.2 78.6002 193.3 75.9002 190.3C75.9002 190.3 72.6004 184.1 73.1004 173.3" stroke="#13110C" stroke-width="0.5" stroke-miterlimit="10"/>
<path d="M75.5001 203.2C75.5001 203.2 76.7001 193.3 74.0001 190.3C74.0001 190.3 70.7 184.1 71.2 173.3" stroke="#13110C" stroke-width="0.5" stroke-miterlimit="10"/>
<path d="M73.9002 203.2C73.9002 203.2 75.1002 193.3 72.4002 190.3C72.4002 190.3 69.1004 184.1 69.6004 173.3" stroke="#13110C" stroke-width="0.5" stroke-miterlimit="10"/>
<path d="M72.1002 203.2C72.1002 203.2 73.3002 193.3 70.6002 190.3C70.6002 190.3 67.3001 184.1 67.8001 173.3" stroke="#13110C" stroke-width="0.5" stroke-miterlimit="10"/>
<path d="M70.1002 203.2C70.1002 203.2 71.3002 193.3 68.6002 190.3C68.6002 190.3 65.3001 184.1 65.8001 173.3" stroke="#13110C" stroke-width="0.5" stroke-miterlimit="10"/>
<path d="M68.2003 203.2C68.2003 203.2 69.4003 193.3 66.7003 190.3C66.7003 190.3 63.4002 184.1 63.9002 173.3" stroke="#13110C" stroke-width="0.5" stroke-miterlimit="10"/>
<path d="M66.6003 201.2C66.6003 201.2 67.2001 193.8 64.9001 191C62.6001 188.2 61.7001 175.7 61.9001 174.3" stroke="#13110C" stroke-width="0.5" stroke-miterlimit="10"/>
<path d="M64.8997 198.1C64.8997 198.1 64.4999 192.5 62.7999 190.3C61.0999 188.1 60.2998 177 60.4998 175.9" stroke="#13110C" stroke-width="0.5" stroke-miterlimit="10"/>
<path d="M107.1 178.2C107.1 178.2 107.6 170.8 109.5 169.7C109.5 169.7 117 165.6 115.8 172.9C115.8 172.9 113.6 174.5 113 172.7C113 172.7 115.4 172.3 114.1 171.2C114.1 171.2 111.4 167.8 110.1 172.9C110.1 172.9 111.3 176.9 114.9 175.8" stroke="#13110C" stroke-width="0.5" stroke-miterlimit="10"/>
<path d="M105.7 176.5C105.7 176.5 106.8 170.3 108 169.1" stroke="#13110C" stroke-width="0.5" stroke-miterlimit="10"/>
<path d="M104.7 175.4C104.7 175.4 105 171.1 105.7 170.5" stroke="#13110C" stroke-width="0.5" stroke-miterlimit="10"/>
<path d="M114.3 180.6C114.3 180.6 114.6 178 112.9 178.7C112.9 178.7 110.4 180.6 113.3 182.1" stroke="#13110C" stroke-width="0.5" stroke-miterlimit="10"/>
<path d="M114.3 176.5C114.3 176.5 109.8 176.8 109.4 181" stroke="#13110C" stroke-width="0.5" stroke-miterlimit="10"/>
<path d="M109.3 174.3V178.7" stroke="#13110C" stroke-width="0.5" stroke-miterlimit="10"/>
<path d="M110.8 194.5C110.8 194.5 112.7 194.1 110.8 193" stroke="#13110C" stroke-width="0.5" stroke-miterlimit="10"/>
<path d="M110.4 188.6C110.4 188.6 110.1 182.3 110.4 181.6" stroke="#13110C" stroke-width="0.5" stroke-miterlimit="10"/>
<path d="M115.6 175.4C115.6 175.4 123.5 174.3 132.4 170.2C138.5 167.4 144.5 163.2 149.4 156.8" stroke="#13110C" stroke-miterlimit="10"/>
<path d="M54.6001 213.2C54.6001 213.2 55 219 53 220.1C51.1 221.2 48 221 47 219.1C47 219.1 46.2999 213.9 50.3999 216.3C50.3999 216.3 52.0999 217.3 50.8999 209.7C50.8999 209.7 48.2 199.5 50 197.4C50 197.4 52.9001 191.9 55.6001 195.5C55.6001 195.5 57.6 200.3 54.5 199.9C54.5 199.9 51.3 200.4 53.3 204C53.4 204 57.1001 208 54.6001 213.2Z" fill="#FFEA24" stroke="#13110C" stroke-miterlimit="10"/>
<path d="M60.3 213.2H54.6001" stroke="#211C4B" stroke-miterlimit="10"/>
<path d="M64.5002 198.9L56.2002 199" stroke="#211C4B" stroke-miterlimit="10"/>
<path d="M59.1405 203.352L56.2324 206.654L59.5346 209.562L62.4427 206.26L59.1405 203.352Z" stroke="#231D49" stroke-miterlimit="10"/>
<path d="M64.5 203.2H53" stroke="#231E48" stroke-miterlimit="10"/>
<path d="M34.5 208.3C35 211.5 38.3999 211.4 38.3999 211.4V204C38.3999 204 35.1 203.2 34.5 206.6V208.3Z" fill="#FFEA24" stroke="#13110C" stroke-miterlimit="10"/>
<path d="M48.8999 212C48.8999 211.1 49.2001 210.4 49.6001 210.4C50.0001 210.4 50.3 211.1 50.3 212C50.3 212.9 50.0001 213.6 49.6001 213.6C49.2001 213.6 48.8999 212.9 48.8999 212Z" fill="white" stroke="#13110C" stroke-miterlimit="10"/>
<path d="M46.2002 210.4C46.2002 208.6 46.7003 207.2 47.3003 207.2C47.9003 207.2 48.4001 208.6 48.4001 210.4C48.4001 212.2 47.9003 213.6 47.3003 213.6C46.7003 213.6 46.2002 212.2 46.2002 210.4Z" fill="white" stroke="#13110C" stroke-miterlimit="10"/>
<path d="M43.5 209.5C43.5 207.2 44 205.4 44.7 205.4C45.4 205.4 45.8999 207.2 45.8999 209.5C45.8999 211.8 45.4 213.6 44.7 213.6C44 213.6 43.5 211.7 43.5 209.5Z" fill="white" stroke="#13110C" stroke-miterlimit="10"/>
<path d="M41 209.4C41 207.3 41.3999 205.6 41.8999 205.6C42.3999 205.6 42.8 207.3 42.8 209.4C42.8 211.5 42.3999 213.2 41.8999 213.2C41.3999 213.2 41 211.5 41 209.4Z" fill="white" stroke="#13110C" stroke-miterlimit="10"/>
<path d="M39 209.2C39 207.3 39.4 205.7 39.8 205.7C40.2 205.7 40.6001 207.3 40.6001 209.2C40.6001 211.1 40.2 212.7 39.8 212.7C39.4 212.7 39 211.1 39 209.2Z" fill="white" stroke="#13110C" stroke-miterlimit="10"/>
<path d="M51.3 195.6L51.2 194.4L40.5 194.6V197.5" stroke="#13110C" stroke-miterlimit="10"/>
<path d="M42.8003 196.5C42.8003 196.5 39.7002 196.4 39.2002 203.5" stroke="#13110C" stroke-miterlimit="10"/>
<path d="M48.1003 196.5C48.1003 196.5 44.8002 198.8 44.7002 201.5" stroke="#13110C" stroke-miterlimit="10"/>
<path d="M50.2998 192.5H40.7998" stroke="#13110C" stroke-miterlimit="10"/>
<path d="M43.3999 187.2C43.3999 185.9 44 184.8 44.7 184.8C45.4 184.8 46 185.9 46 187.2C46 188.5 45.4 189.6 44.7 189.6C44 189.6 43.3999 188.5 43.3999 187.2Z" fill="#211C4B"/>
<path d="M40.8003 154.6H31.2002V143.9" fill="#13110C"/>
<path d="M40.8003 154.6H31.2002V143.9" stroke="#13110C" stroke-miterlimit="10"/>
<path d="M57.1003 172.6L31.2002 143.9V126.6H33.6003V142.7L60.9001 173.6C60.9001 173.6 59.4003 176.9 57.1003 172.6Z" fill="#FFEA24" stroke="#13110C" stroke-miterlimit="10"/>
<path d="M57.0002 175.2L48.9001 183.4L44.7002 174.3L39.7002 183.4L31.2002 174.3" stroke="#13110C" stroke-miterlimit="10"/>
<path d="M57.4001 177.7L48.3003 187.7L44.7002 178.8L40.5002 187.4L35.2002 181.9L31.2002 177.7" stroke="#13110C" stroke-miterlimit="10"/>
<path d="M51.2 190.9H39.5" stroke="#13110C" stroke-miterlimit="10"/>
<path d="M54.3 173.4L49.8999 176.9C49.8999 176.9 49.2001 173.6 47.6001 173.3" stroke="white" stroke-miterlimit="10"/>
<path d="M41.2998 173C41.2998 173 39.6997 174.2 39.1997 175.4C39.1997 175.4 37.3998 173.1 35.2998 173" stroke="white" stroke-miterlimit="10"/>
<path d="M130.5 167.7C138.4 166.2 149.3 154.5 149.3 154.5V156.1C143.9 165 132.3 170.3 132.3 170.3L130.5 167.7Z" fill="#FFEA24" stroke="#13110C" stroke-miterlimit="10"/>
<path d="M115.6 148.4C116.6 156.9 132.4 170.2 132.4 170.2C132.4 170.2 123.2 174.1 117.1 175.3C117.1 175.3 108.9 163.1 103.7 147.6C103.7 147.6 108 149.6 115.6 148.3" fill="white"/>
<path d="M115.6 148.4C116.6 156.9 132.4 170.2 132.4 170.2C132.4 170.2 123.2 174.1 117.1 175.3C117.1 175.3 108.9 163.1 103.7 147.6C103.7 147.6 108 149.6 115.6 148.3" stroke="#13110C" stroke-miterlimit="10"/>
<path d="M149.9 153.7V146.6C149.9 146.6 130.6 163.8 125.7 164L130 168.2C130 168.2 141.7 164 149.9 153.7Z" fill="#13110C"/>
<path d="M148.2 153.7C148.2 153.7 143.2 149.7 145.5 156.1C145.5 156.1 139.6 151.9 142.4 159C142.4 159 136.2 154.9 138.7 161.4C138.7 161.4 133.5 157.9 135 163.5C135 163.5 129.5 160.8 131.7 166.2" stroke="white" stroke-miterlimit="10"/>
<path d="M149.3 143.1C138.2 156.1 124.8 163 124.8 163L121.2 158.9L129.9 153.4L132.7 155L132.3 146.5C138.2 144.1 140.2 140.8 140.2 140.8L149.3 132.2V143.1Z" fill="#211C4B" stroke="#13110C" stroke-miterlimit="10"/>
<path d="M129.9 153.4L132.7 155L132.3 146.5C132.3 146.5 136.4 145.1 140.2 140.8C140.2 140.8 136 136.7 132.3 135.6L133.6 127.9C133.6 127.9 124.9 131.7 122.2 135V148.4C122.2 148.4 124.7 151.4 129.9 153.4Z" fill="#FFEA24" stroke="#13110C" stroke-miterlimit="10"/>
<path d="M131.1 152.4L128.9 146.6L136.1 141.5L130.5 137.1L131.2 130.6" stroke="#13110C" stroke-miterlimit="10"/>
<path d="M128.2 151.3L125.7 144.9L131.9 141.5L126.3 137.6L128.9 132.2" stroke="#13110C" stroke-miterlimit="10"/>
<path d="M123.9 148.4V135.7" stroke="#13110C" stroke-miterlimit="10"/>
<path d="M107.1 136.4C108 136.2 109 136.1 110 136C115.8 135.4 122.2 136.4 122.2 136.4V146.5C122.2 146.5 116.9 149.2 107 148.4C107 148.4 102 148.1 101 145.8C101 145.8 98.7996 145.1 99.3996 143.9L100.1 143.1C100.1 143.1 97.1998 141.7 100.3 140.4C100.3 140.4 98.4996 138.8 101.9 138.1C102.1 138.1 104.7 136.4 107.1 136.4Z" fill="#FED68A" stroke="#13110C" stroke-miterlimit="10"/>
<path d="M101 145.9H110.6" stroke="#13110C" stroke-miterlimit="10"/>
<path d="M100.2 143.1H110.2" stroke="#13110C" stroke-miterlimit="10"/>
<path d="M100.4 140.4H110.2" stroke="#13110C" stroke-miterlimit="10"/>
<path d="M122.9 164.6C128 167.3 126.7 170.3 126.7 170.3C126.7 170.3 123.7 170.7 123.7 167.6C123.7 167.6 123.8 165.1 122.9 164.6Z" fill="#211C4B"/>
<path d="M118.2 165.7C123.3 168.4 122 171.4 122 171.4C122 171.4 119 171.8 119 168.7C119.1 168.7 119.1 166.3 118.2 165.7Z" fill="#211C4B"/>
<path d="M115.1 158.4C120.2 161.1 118.9 164.1 118.9 164.1C118.9 164.1 115.9 164.5 115.9 161.4C115.9 161.4 115.9 159 115.1 158.4Z" fill="#211C4B"/>
<path d="M107.5 152.2C112.6 154.9 111.3 157.9 111.3 157.9C111.3 157.9 108.3 158.3 108.3 155.2C108.3 155.2 108.3 152.8 107.5 152.2Z" fill="#211C4B"/>
<path d="M112.4 150.3C117.5 153 116.2 156 116.2 156C116.2 156 113.2 156.4 113.2 153.3C113.2 153.3 113.2 150.9 112.4 150.3Z" fill="#211C4B"/>
<path d="M109.7 136C108.8 133.2 108.6 126.6 108.6 126.6H98.1001C98.1001 126.6 99.5001 137.4 101.1 138.4C101 138.4 104.9 136.6 109.7 136Z" fill="white" stroke="#13110C" stroke-miterlimit="10"/>
<path d="M105.3 135.9C102.2 131.1 104.8 129.1 104.8 129.1C104.8 129.1 107.6 130.3 106 132.9C106.1 132.9 104.8 135 105.3 135.9Z" fill="#211C4B"/>
<path d="M149.2 132.9H132.8" stroke="#13110C" stroke-miterlimit="10"/>
<path d="M111.9 166.7C111.9 166.7 105.8 166.6 101.1 174.8H98.8C98.8 174.8 98 170.5 92 167.4L94.2 164.6C94.2 164.6 97.9 166.8 99.3 169.7H101.1C101.1 169.7 105.9 163.8 110.4 163.6L111.9 166.7Z" fill="#13110C" stroke="#13110C" stroke-miterlimit="10"/>
<path d="M109 160.8L100.2 165.7L96.7002 162.4" stroke="white" stroke-width="2" stroke-miterlimit="10"/>
<path d="M96.3 156L96.2 151.7H92.3999L90.5 158.4L96.3 156Z" fill="#211C4B"/>
<path d="M90.5002 162.7L90.4001 158.4H86.6003L84.7002 165.1L90.5002 162.7Z" fill="#211C4B"/>
<path d="M103.7 150.7C103.7 150.7 92.9001 162.1 90.1001 165.7" stroke="#13110C" stroke-miterlimit="10"/>
<path d="M98.1001 140.9L84.3999 156.9" stroke="#13110C" stroke-miterlimit="10"/>
<path d="M101 153.2L98.1001 152.2L98.8999 155.8" stroke="#13110C" stroke-miterlimit="10"/>
<path d="M94.2 145.4L94.8999 149.7L91.5 148.6" stroke="#13110C" stroke-miterlimit="10"/>
<path d="M95.2 159.8L92.1001 159.3L93.2 162" stroke="#13110C" stroke-miterlimit="10"/>
<path d="M88.1001 152.5L89.7 156.9L86 155.1" stroke="#13110C" stroke-miterlimit="10"/>
<path d="M127.4 126.6C127.4 126.6 124.7 132.4 118.7 134.9V133.6C118.7 133.6 123.8 130.2 125.2 126.5L127.4 126.6Z" fill="#FFEA24"/>
<path d="M117.4 126.9C117.4 126.9 114.3 133.6 110.5 135.6C110.5 135.6 109.2 136.1 109.2 133.6C109.2 133.6 112.3 131.4 114.4 127L117.4 126.9Z" fill="#FFEA24" stroke="#13110C" stroke-miterlimit="10"/>
<path d="M83.1001 131.7V134.3H97.1001V135.9L83.1001 150.4V155.3L99.8 136C99.8 136 98.9 132.3 98.8 131.8C98.8 131.2 83.1001 131.7 83.1001 131.7Z" fill="#13110C" stroke="#13110C" stroke-miterlimit="10"/>
<path d="M83.1001 128.6H98.3999L98.8999 131.7H83.1001V128.6Z" fill="#FFEA24" stroke="#13110C" stroke-miterlimit="10"/>
<path d="M79.7999 144.2C82.0999 149.5 79.0999 151 79.0999 151C79.0999 151 76.5998 149.4 78.4998 147C78.4998 147.1 80.0999 145.2 79.7999 144.2Z" fill="#211C4B"/>
<path d="M76.0001 154C78.3001 159.3 75.3001 160.8 75.3001 160.8C75.3001 160.8 72.8 159.2 74.7 156.8C74.7 156.8 76.3001 155 76.0001 154Z" fill="#211C4B"/>
<path d="M75.2003 124.5C77.5003 129.8 74.5003 131.3 74.5003 131.3C74.5003 131.3 72.0002 129.7 73.9002 127.3C73.9002 127.4 75.5003 125.5 75.2003 124.5Z" fill="#211C4B"/>
<path d="M71.9002 126.9C59.0002 141.3 68.9002 159 68.9002 159C68.9002 159 73.4002 143.3 71.9002 126.9Z" fill="#211C4B" stroke="#13110C" stroke-miterlimit="10"/>
<path d="M70.8 150.3L66.6001 146.6C66.6001 146.6 70.2001 142.4 68.1001 136.5L72.1001 130.2C72.2001 130.1 72.3 142.8 70.8 150.3Z" fill="#FFEA24" stroke="#13110C" stroke-miterlimit="10"/>
<path d="M67.1001 145.9H71.5" stroke="#13110C" stroke-miterlimit="10"/>
<path d="M68.1001 136.4H72.1001" stroke="#13110C" stroke-miterlimit="10"/>
<path d="M68.0001 161.7C68.0001 161.7 55.7 144.8 69.4 126.6H67.1002C67.1002 126.6 52.5002 140.8 67.1002 163.8L68.0001 161.7Z" fill="white" stroke="#13110C" stroke-miterlimit="10"/>
<path d="M65.8004 166.4C65.8004 166.4 50.6003 148.3 63.2003 126.5H66.6005C66.6005 126.5 53.0005 143.1 67.1005 163.7L65.8004 166.4Z" fill="#FFEA24" stroke="#13110C" stroke-miterlimit="10"/>
<path d="M61.7999 172.1C61.7999 172.1 44.7999 151.2 55.7999 126.6H53.6C53.6 126.6 40.6998 144.5 60.3998 173.1L61.7999 172.1Z" fill="#FFEA24" stroke="#13110C" stroke-miterlimit="10"/>
<path d="M45.0002 155.7L43.2002 153.5V126.6H45.0002V155.7Z" fill="#FFEA24" stroke="#13110C" stroke-miterlimit="10"/>
<path d="M59.1001 171.6L45 155.6V152.4L53.6001 161C53.6001 161 57.1001 170.7 59.1001 171.6Z" fill="#13110C" stroke="#13110C" stroke-miterlimit="10"/>
<path d="M53.2 126.6L45 131.4V126.6H53.2Z" fill="#13110C" stroke="#13110C" stroke-miterlimit="10"/>
<path d="M11.8999 23.3H13.5V9.50001H11.8999V7.60001H16.8V9.50001H15.3999V16.2L19.7 9.50001H18V7.60001H23.3999V9.50001H21.8999L18.3999 14.9L22 23.2H23.5V25.1H18.1001V23.2H19.8L17.1001 16.9L15.3999 19.5V23.2H16.8V25.1H11.8999V23.3Z" fill="#E30B13"/>
<path d="M168.6 230.8H167V244.6H168.6V246.5H163.7V244.6H165.1V237.9L160.8 244.6H162.5V246.5H157.1V244.6H158.6L162.1 239.2L158.5 230.9H157V228.8H162.4V230.7H160.7L163.4 237L165.1 234.4V230.8H163.7V228.8H168.6V230.8Z" fill="#E30B13"/>
</svg>
