<svg width="180" height="254" viewBox="0 0 180 254" fill="none" xmlns="http://www.w3.org/2000/svg">
<path d="M179.4 231.3C179.4 243.1 172.6 252.7 164.2 252.7H15.9001C7.50015 252.7 0.700195 243.1 0.700195 231.3V22.2001C0.700195 10.4001 7.50015 0.800049 15.9001 0.800049H164.2C172.6 0.800049 179.4 10.4001 179.4 22.2001V231.3Z" fill="white" stroke="#1D1D1B" stroke-miterlimit="10"/>
<path d="M15.2 22.1001V24.2001H10.5V22.1001H12L14.8999 6.6001H17.5L20.3999 22.1001H21.8999V24.2001H17.2V22.1001H18.2L17.8999 20.3H14.3999L14.1001 22.1001H15.2ZM14.8999 18.1001H17.6001L16.2 10.9L14.8999 18.1001Z" fill="#1D1D1B"/>
<path d="M163.101 230.9V228.8H167.801V230.9H166.301L163.4 246.4H160.801L157.9 230.9H156.4V228.8H161.101V230.9H160.101L160.4 232.7H163.9L164.2 230.9H163.101ZM163.4 234.9H160.7L162.101 242.1L163.4 234.9Z" fill="#1D1D1B"/>
<path d="M90.6003 137.2C91.4003 139.7 92.9002 143.1 95.5002 144.6H84.9001C87.6001 142.5 88.9001 139.3 89.4001 137.1C87.9001 139.7 85.1001 141.5 81.9001 141.5C77.1001 141.5 73.2002 137.6 73.2002 132.8C73.2002 128 77.1001 124.1 81.9001 124.1C82.9001 124.1 83.8002 124.3 84.7002 124.5C83.0002 122.9 81.9001 120.7 81.9001 118.2C81.9001 113.4 85.8003 109.5 90.6003 109.5C95.4003 109.5 99.3003 113.4 99.3003 118.2C99.3003 120.9 98.1002 123.3 96.2002 124.9C96.9002 124.7 97.7001 124.6 98.4001 124.6C103.2 124.6 107.1 128.5 107.1 133.3C107.1 138.1 103.2 142 98.4001 142C94.9001 142 92.0003 140.1 90.6003 137.2Z" fill="#1D1D1B"/>
<path d="M17.1003 42.2001C17.5003 43.3001 18.2003 44.9001 19.3003 45.6001H14.5002C15.7002 44.6001 16.3003 43.2001 16.6003 42.2001C15.9003 43.4001 14.6002 44.2001 13.2002 44.2001C11.0002 44.2001 9.2002 42.4001 9.2002 40.2001C9.2002 38.0001 11.0002 36.2001 13.2002 36.2001C13.6002 36.2001 14.1002 36.3 14.5002 36.4C13.7002 35.7 13.2002 34.6 13.2002 33.5C13.2002 31.3 15.0002 29.5 17.2002 29.5C19.4002 29.5 21.2002 31.3 21.2002 33.5C21.2002 34.7 20.6003 35.8 19.8003 36.5C20.1003 36.4 20.5003 36.4 20.8003 36.4C23.0003 36.4 24.8003 38.2 24.8003 40.4C24.8003 42.6 23.0003 44.4 20.8003 44.4C19.1003 44.4 17.7003 43.5001 17.1003 42.2001Z" fill="#1D1D1B"/>
<path d="M164.101 210.2C163.701 209.1 163 207.5 161.9 206.8H166.7C165.5 207.8 164.901 209.2 164.601 210.2C165.301 209 166.6 208.2 168 208.2C170.2 208.2 172 210 172 212.2C172 214.4 170.2 216.2 168 216.2C167.6 216.2 167.1 216.1 166.7 216C167.5 216.7 168 217.8 168 218.9C168 221.1 166.2 222.9 164 222.9C161.8 222.9 160 221.1 160 218.9C160 217.7 160.6 216.6 161.4 215.9C161.1 216 160.7 216 160.4 216C158.2 216 156.4 214.2 156.4 212C156.4 209.8 158.2 208 160.4 208C162.1 208 163.501 208.9 164.101 210.2Z" fill="#1D1D1B"/>
</svg>
