<svg width="180" height="254" viewBox="0 0 180 254" fill="none" xmlns="http://www.w3.org/2000/svg">
<path d="M179.4 231.4C179.4 243.2 172.6 252.8 164.2 252.8H15.9001C7.50015 252.8 0.700195 243.2 0.700195 231.4V22.3002C0.700195 10.5002 7.50015 0.900146 15.9001 0.900146H164.2C172.6 0.900146 179.4 10.5002 179.4 22.3002V231.4Z" fill="white" stroke="#1D1D1B" stroke-miterlimit="10"/>
<path d="M15.2 21.5002V23.6002H10.5V21.5002H12L14.8999 6.00018H17.5L20.3999 21.5002H21.8999V23.6002H17.2V21.5002H18.2L17.8999 19.7002H14.3999L14.1001 21.5002H15.2ZM14.8999 17.5002H17.6001L16.2 10.3002L14.8999 17.5002Z" fill="#E30B13"/>
<path d="M161.4 229.3V227.2H166.1V229.3H164.6L161.7 244.8H159.1L156.2 229.3H154.7V227.2H159.4V229.3H158.4L158.7 231.1H162.2L162.5 229.3H161.4ZM161.7 233.2H159L160.4 240.4L161.7 233.2Z" fill="#E30B13"/>
<path d="M75.6006 125.8L90.0005 143.9L104.5 125.8L90.1006 107.9L75.6006 125.8Z" fill="#E30B13"/>
<path d="M10.2002 36.5002L17.2002 45.4001L24.3003 36.5002L17.3003 27.8002L10.2002 36.5002Z" fill="#E30B13"/>
<path d="M154.5 212.9L161.5 221.7L168.5 212.9L161.5 204.1L154.5 212.9Z" fill="#E30B13"/>
</svg>
