<svg width="180" height="254" viewBox="0 0 180 254" fill="none" xmlns="http://www.w3.org/2000/svg">
<path d="M179.4 231.4C179.4 243.2 172.6 252.8 164.2 252.8H15.9001C7.50015 252.8 0.700195 243.2 0.700195 231.4V22.3C0.700195 10.5 7.50015 0.900024 15.9001 0.900024H164.2C172.6 0.900024 179.4 10.5 179.4 22.3V231.4Z" fill="white" stroke="#1D1D1B" stroke-miterlimit="10"/>
<path d="M88.5002 146.2C88.9002 145.9 89.2002 145.5 89.5002 145.2L100.1 132.3L105.9 125.2C108.9 121.6 108.4 116.2 104.7 113.2L104.1 112.7C100.5 109.7 95.1003 110.2 92.1003 113.9L88.6003 118.1L85.2002 113.9C82.2002 110.3 76.9002 109.7 73.2002 112.6L72.6003 113.1C69.0003 116.1 68.4003 121.4 71.3003 125.1L87.5002 145.1C87.9002 145.6 88.2002 145.9 88.5002 146.2Z" fill="#E30B13"/>
<path d="M17.5 48C17.7 47.8 17.8 47.7 18 47.5L23.2 41.1L26.1001 37.6C27.6001 35.8 27.3 33.1 25.5 31.7L25.2 31.4C23.4 29.9 20.7001 30.2 19.3001 32L17.6001 34.1L15.8999 32C14.3999 30.2 11.8 29.9 10 31.4L9.69998 31.7C7.89998 33.2 7.60012 35.8 9.10012 37.6L17.2 47.5C17.2 47.7 17.3 47.8 17.5 48Z" fill="#E30B13"/>
<path d="M161.2 204.8C161 205 160.9 205.1 160.7 205.3L155.5 211.7L152.6 215.2C151.1 217 151.4 219.7 153.2 221.1L153.5 221.4C155.3 222.9 158 222.6 159.4 220.8L161.1 218.7L162.8 220.8C164.3 222.6 166.9 222.9 168.7 221.4L169 221.1C170.8 219.6 171.1 217 169.6 215.2L161.5 205.3C161.6 205.1 161.4 205 161.2 204.8Z" fill="#E30B13"/>
<path d="M14.9001 23.2V25.3H10.2002V23.2H11.7002L14.6003 7.70001H17.2002L20.1003 23.2H21.6003V25.3H16.9001V23.2H17.9001L17.6003 21.4H14.1003L13.8003 23.2H14.9001ZM14.6003 19.2H17.3003L15.9001 12L14.6003 19.2Z" fill="#E30B13"/>
<path d="M161.2 230.8V228.7H165.9V230.8H164.4L161.5 246.3H158.9L156 230.8H154.5V228.7H159.2V230.8H158.2L158.5 232.6H162L162.3 230.8H161.2ZM161.5 234.8H158.8L160.2 242L161.5 234.8Z" fill="#E30B13"/>
</svg>
