<svg width="181" height="253" viewBox="0 0 181 253" fill="none" xmlns="http://www.w3.org/2000/svg">
<path d="M180.1 231.1C180.1 242.9 173.3 252.5 164.9 252.5H16.5999C8.1999 252.5 1.3999 242.9 1.3999 231.1V21.9C1.3999 10.1 8.1999 0.5 16.5999 0.5H164.9C173.3 0.5 180.1 10.1 180.1 21.9V231.1Z" fill="white" stroke="#1D1D1B" stroke-miterlimit="10"/>
<path d="M21.0999 19.3H23.2999V23.8H12.0999V22.6C12.0999 20.5 12.8999 18.6 14.3999 16.9C14.9999 16.3 16.4999 15.1 18.6999 13.4C20.2999 12.3 20.9999 11.3 20.9999 10.5C20.9999 9.7 20.5999 9.20001 19.6999 8.70001C18.9999 8.40001 18.2999 8.20001 17.3999 8.20001C15.2999 8.20001 14.1999 8.89999 14.1999 10.3C14.1999 10.6 14.2999 10.9 14.3999 11.3L12.2999 12.2C11.9999 11.5 11.8999 10.9 11.8999 10.3C11.8999 8.79999 12.3999 7.69996 13.4999 6.89996C14.4999 6.19996 15.6999 5.89996 17.2999 5.89996C18.8999 5.89996 20.0999 6.3 21.1999 7C22.4999 7.9 23.0999 8.99996 23.0999 10.4C23.0999 11.7 22.3999 13 21.0999 14.2C19.7999 15.2 18.4999 16.2 17.0999 17.2C15.5999 18.5 14.5999 19.9 14.2999 21.3H20.8999V19.3H21.0999Z" fill="#E30B13"/>
<path d="M159.9 231.5H157.7V227H169V228.2C169 230.3 168.2 232.2 166.7 233.9C166.1 234.5 164.6 235.7 162.4 237.4C160.8 238.5 160.1 239.5 160.1 240.3C160.1 241.1 160.5 241.6 161.4 242.1C162.1 242.4 162.8 242.6 163.7 242.6C165.8 242.6 166.9 241.9 166.9 240.5C166.9 240.2 166.8 239.9 166.7 239.5L168.8 238.6C169.1 239.3 169.2 239.9 169.2 240.5C169.2 242 168.7 243.1 167.6 243.9C166.6 244.6 165.4 244.9 163.8 244.9C162.3 244.9 161 244.5 159.9 243.8C158.6 242.9 158 241.8 158 240.4C158 239.1 158.7 237.8 160 236.6C161.3 235.6 162.6 234.6 164 233.6C165.5 232.3 166.5 230.9 166.8 229.5H160.2V231.5H159.9Z" fill="#E30B13"/>
<path d="M10.5 35.9L17.5 44.7L24.6 35.9L17.5 27.2L10.5 35.9Z" fill="#E30B13"/>
<path d="M156.5 213.2L163.5 222L170.5 213.2L163.5 204.4L156.5 213.2Z" fill="#E30B13"/>
<path d="M75.0999 35.8L89.4999 54L104 35.8L89.5999 17.9L75.0999 35.8Z" fill="#E30B13"/>
<path d="M75.0999 216.4L89.4999 234.6L104 216.4L89.5999 198.5L75.0999 216.4Z" fill="#E30B13"/>
</svg>
