<svg width="180" height="254" viewBox="0 0 180 254" fill="none" xmlns="http://www.w3.org/2000/svg">
<path d="M179.4 232C179.4 243.8 172.6 253.4 164.2 253.4H16.0001C7.60006 253.4 0.800049 243.8 0.800049 232V22.8C0.800049 11 7.60006 1.40002 16.0001 1.40002H164.3C172.7 1.40002 179.5 11 179.5 22.8V232H179.4Z" fill="white" stroke="#1D1D1B" stroke-miterlimit="10"/>
<path d="M18.6002 26.2C17.3002 26.2 16.1002 25.7 15.0002 24.8C14.0002 24 13.3001 22.9 12.9001 21.5L15.0002 20.7C15.3002 21.6 15.7001 22.3 16.3001 22.8C17.0001 23.4 17.7002 23.8 18.6002 23.8C19.7002 23.8 20.6001 23.4 21.4001 22.5C22.2001 21.7 22.6002 20.7 22.6002 19.7C22.6002 18.7 22.3002 17.8 21.6002 17.1C20.9002 16.4 20.1002 16.1 19.0002 16.1C18.5002 16.1 18.1001 16.2 17.8001 16.3C17.5001 16.4 17.2001 16.7 16.8001 17L15.2002 15.4L20.4001 10.5H15.4001V12.7H13.2002V8.10001H24.7002V9.50003L20.2002 13.7C21.6002 14 22.7002 14.6 23.6002 15.7C24.4002 16.8 24.9001 18 24.9001 19.5C24.9001 21.2 24.3002 22.7 23.1002 24C21.7002 25.6 20.3002 26.2 18.6002 26.2Z" fill="#13110C"/>
<path d="M162.1 228.7C163.4 228.7 164.6 229.2 165.7 230.1C166.7 230.9 167.4 232 167.8 233.4L165.7 234.2C165.4 233.3 165 232.6 164.4 232.1C163.7 231.5 163 231.1 162.1 231.1C161 231.1 160.1 231.5 159.3 232.4C158.5 233.2 158.1 234.2 158.1 235.2C158.1 236.2 158.4 237.1 159.1 237.8C159.8 238.5 160.6 238.8 161.7 238.8C162.2 238.8 162.6 238.7 162.9 238.6C163.2 238.5 163.5 238.2 163.9 237.9L165.5 239.5L160.3 244.4H165.3V242.2H167.5V246.8H156V245.4L160.5 241.2C159.1 240.9 158 240.3 157.1 239.2C156.3 238.1 155.8 236.9 155.8 235.4C155.8 233.7 156.4 232.2 157.6 230.9C159 229.3 160.4 228.7 162.1 228.7Z" fill="#13110C"/>
<path d="M17.4001 40.6L15.9001 42.4C14.6001 43.9 12.4001 44.2 10.9001 42.9L10.6001 42.7C9.10009 41.4 8.80009 39.2 10.1001 37.7L12.5001 34.7L16.9001 29.3C17.0001 29.1 17.2001 29 17.3001 28.9C17.4001 29 17.6001 29.2 17.7001 29.3L24.5001 37.7C25.7001 39.2 25.5001 41.5 24.0001 42.7L23.7001 42.9C22.2001 44.1 19.9001 43.9 18.7001 42.4L17.4001 40.6L18.2001 39.7C18.2001 39.7 16.6001 43.5 14.3001 45.7H20.2001C20.3001 45.7 17.4001 42.7 17.4001 40.6Z" fill="#13110C"/>
<path d="M17.4001 40.6L15.9001 42.4C14.6001 43.9 12.4001 44.2 10.9001 42.9L10.6001 42.7C9.10009 41.4 8.80009 39.2 10.1001 37.7L12.5001 34.7L16.9001 29.3C17.0001 29.1 17.2001 29 17.3001 28.9C17.4001 29 17.6001 29.2 17.7001 29.3L24.5001 37.7C25.7001 39.2 25.5001 41.5 24.0001 42.7L23.7001 42.9C22.2001 44.1 19.9001 43.9 18.7001 42.4L17.4001 40.6ZM17.4001 40.6L18.2001 39.7C18.2001 39.7 16.6001 43.5 14.3001 45.7H20.2001C20.3001 45.7 17.4001 42.7 17.4001 40.6Z" stroke="#13110C" stroke-miterlimit="10"/>
<path d="M162.8 213.4L164.3 211.6C165.6 210.1 167.8 209.8 169.3 211.1L169.6 211.3C171.1 212.6 171.4 214.8 170.1 216.3L167.7 219.3L163.3 224.7C163.2 224.9 163 225 162.9 225.1C162.8 225 162.6 224.8 162.5 224.7L155.7 216.3C154.5 214.8 154.7 212.5 156.2 211.3L156.5 211.1C158 209.9 160.3 210.1 161.5 211.6L162.8 213.4L162 214.3C162 214.3 163.6 210.5 165.9 208.3H160C159.9 208.3 162.8 211.3 162.8 213.4Z" fill="#13110C"/>
<path d="M162.8 213.4L164.3 211.6C165.6 210.1 167.8 209.8 169.3 211.1L169.6 211.3C171.1 212.6 171.4 214.8 170.1 216.3L167.7 219.3L163.3 224.7C163.2 224.9 163 225 162.9 225.1C162.8 225 162.6 224.8 162.5 224.7L155.7 216.3C154.5 214.8 154.7 212.5 156.2 211.3L156.5 211.1C158 209.9 160.3 210.1 161.5 211.6L162.8 213.4ZM162.8 213.4L162 214.3C162 214.3 163.6 210.5 165.9 208.3H160C159.9 208.3 162.8 211.3 162.8 213.4Z" stroke="#13110C" stroke-miterlimit="10"/>
<path d="M91.3 208.9L94.3 205.3C96.8 202.2 101.4 201.8 104.5 204.3L105 204.7C108.1 207.2 108.5 211.8 106 214.9L101.1 220.9L92.1 231.9C91.8 232.2 91.5 232.5 91.2 232.8C90.9 232.5 90.6 232.3 90.4 232L76.6 215C74.1 211.9 74.6 207.3 77.7 204.8L78.2 204.4C81.3 201.9 85.9 202.4 88.4 205.5L91.3 208.9L89.7 210.8C89.7 210.8 92.9 203.2 97.6 198.7H85.6C85.6 198.7 91.4 204.7 91.3 208.9Z" fill="#13110C"/>
<path d="M91.3 208.9L94.3 205.3C96.8 202.2 101.4 201.8 104.5 204.3L105 204.7C108.1 207.2 108.5 211.8 106 214.9L101.1 220.9L92.1 231.9C91.8 232.2 91.5 232.5 91.2 232.8C90.9 232.5 90.6 232.3 90.4 232L76.6 215C74.1 211.9 74.6 207.3 77.7 204.8L78.2 204.4C81.3 201.9 85.9 202.4 88.4 205.5L91.3 208.9ZM91.3 208.9L89.7 210.8C89.7 210.8 92.9 203.2 97.6 198.7H85.6C85.6 198.7 91.4 204.7 91.3 208.9Z" stroke="#13110C" stroke-miterlimit="10"/>
<path d="M90.9001 47.5L87.9001 51.1C85.4001 54.2 80.8001 54.6 77.7001 52.1L77.2001 51.7C74.1001 49.2 73.7001 44.6 76.2001 41.5L81.1001 35.5L90.1001 24.6C90.4001 24.3 90.7001 24 91.0001 23.7C91.3001 24 91.6001 24.2 91.8001 24.5L105.6 41.5C108.1 44.6 107.6 49.2 104.5 51.7L104 52.1C100.9 54.6 96.3001 54.1 93.8001 51L90.9001 47.5L92.5001 45.6C92.5001 45.6 89.3001 53.2 84.6001 57.7H96.6001C96.6001 57.7 90.8001 51.8 90.9001 47.5Z" fill="#13110C"/>
<path d="M90.9001 47.5L87.9001 51.1C85.4001 54.2 80.8001 54.6 77.7001 52.1L77.2001 51.7C74.1001 49.2 73.7001 44.6 76.2001 41.5L81.1001 35.5L90.1001 24.6C90.4001 24.3 90.7001 24 91.0001 23.7C91.3001 24 91.6001 24.2 91.8001 24.5L105.6 41.5C108.1 44.6 107.6 49.2 104.5 51.7L104 52.1C100.9 54.6 96.3001 54.1 93.8001 51L90.9001 47.5ZM90.9001 47.5L92.5001 45.6C92.5001 45.6 89.3001 53.2 84.6001 57.7H96.6001C96.6001 57.7 90.8001 51.8 90.9001 47.5Z" stroke="#13110C" stroke-miterlimit="10"/>
<path d="M90.9001 134.9L87.9001 138.5C85.4001 141.6 80.8001 142 77.7001 139.5L77.2001 139.1C74.1001 136.6 73.7001 132 76.2001 128.9L81.1001 122.9L90.1001 111.9C90.4001 111.6 90.7001 111.3 91.0001 111C91.3001 111.3 91.6001 111.5 91.8001 111.8L105.6 128.8C108.1 131.9 107.6 136.5 104.5 139L104 139.4C100.9 141.9 96.3001 141.4 93.8001 138.3L90.9001 134.9L92.5001 133C92.5001 133 89.3001 140.6 84.6001 145.1H96.6001C96.6001 145.1 90.8001 139.1 90.9001 134.9Z" fill="#13110C"/>
<path d="M90.9001 134.9L87.9001 138.5C85.4001 141.6 80.8001 142 77.7001 139.5L77.2001 139.1C74.1001 136.6 73.7001 132 76.2001 128.9L81.1001 122.9L90.1001 111.9C90.4001 111.6 90.7001 111.3 91.0001 111C91.3001 111.3 91.6001 111.5 91.8001 111.8L105.6 128.8C108.1 131.9 107.6 136.5 104.5 139L104 139.4C100.9 141.9 96.3001 141.4 93.8001 138.3L90.9001 134.9ZM90.9001 134.9L92.5001 133C92.5001 133 89.3001 140.6 84.6001 145.1H96.6001C96.6001 145.1 90.8001 139.1 90.9001 134.9Z" stroke="#13110C" stroke-miterlimit="10"/>
</svg>
