<svg width="180" height="253" viewBox="0 0 180 253" fill="none" xmlns="http://www.w3.org/2000/svg">
<path d="M179.1 231.1C179.1 242.9 172.3 252.5 163.9 252.5H15.7C7.30001 252.5 0.5 242.9 0.5 231.1V21.9C0.5 10.1 7.30001 0.5 15.7 0.5H164C172.4 0.5 179.2 10.1 179.2 21.9V231.1H179.1Z" fill="white" stroke="#1D1D1B" stroke-miterlimit="10"/>
<path d="M52.4 57.9C52.8 57.6 53.1 57.2 53.4 56.9L64 44L69.8 36.9C72.8 33.3 72.3 27.9 68.6 24.9L68 24.4C64.4 21.4 59 21.9 56 25.6L52.5 29.8L49.1 25.6C46.1 22 40.8 21.4 37.1 24.3L36.5 24.8C32.9 27.8 32.3 33.1 35.3 36.8L51.5 56.8C51.8 57.3 52.1 57.6 52.4 57.9Z" fill="#E30B13"/>
<path d="M128.4 57.9C128.8 57.6 129.1 57.2 129.4 56.9L140 44L145.8 36.9C148.8 33.3 148.3 27.9 144.6 24.9L144 24.4C140.4 21.4 135 21.9 132 25.6L128.5 29.8L125.1 25.6C122.1 22 116.8 21.4 113.1 24.3L112.5 24.8C108.9 27.8 108.3 33.1 111.3 36.8L127.5 56.8C127.8 57.3 128.1 57.6 128.4 57.9Z" fill="#E30B13"/>
<path d="M90.5001 144.5C90.9001 144.2 91.2001 143.8 91.5001 143.5L102.1 130.6L107.9 123.5C110.9 119.9 110.4 114.5 106.7 111.5L106.1 111C102.5 108 97.1001 108.5 94.1001 112.2L90.6001 116.4L87.2001 112.2C84.2001 108.6 78.9001 108 75.2001 110.9L74.6001 111.4C71.0001 114.4 70.4001 119.7 73.4001 123.4L89.6001 143.4C89.8001 143.9 90.2001 144.2 90.5001 144.5Z" fill="#E30B13"/>
<path d="M52.4 197.1C52 197.4 51.7 197.8 51.4 198.1L40.8 211L35 218.1C32 221.7 32.5 227.1 36.2 230.1L36.8 230.6C40.4 233.6 45.8 233.1 48.8 229.4L52.3 225.2L55.7 229.4C58.7 233 64 233.6 67.7 230.7L68.3 230.2C71.9 227.2 72.5 221.9 69.5 218.2L53.3 198.2C53.1 197.7 52.8 197.4 52.4 197.1Z" fill="#E30B13"/>
<path d="M129 197.1C128.6 197.4 128.3 197.8 128 198.1L117.4 211L111.6 218.1C108.6 221.7 109.1 227.1 112.8 230.1L113.4 230.6C117 233.6 122.4 233.1 125.4 229.4L128.9 225.2L132.3 229.4C135.3 233 140.6 233.6 144.3 230.7L144.9 230.2C148.5 227.2 149.1 221.9 146.1 218.2L129.9 198.2C129.6 197.7 129.3 197.4 129 197.1Z" fill="#E30B13"/>
<path d="M17.2998 47.8C17.4998 47.6 17.5998 47.5 17.7998 47.3L22.9999 40.9L25.8999 37.4C27.3999 35.6 27.0998 32.9 25.2998 31.5L24.9999 31.2C23.1999 29.7 20.4998 30 19.0998 31.8L17.3999 33.9L15.6999 31.8C14.1999 30 11.5998 29.7 9.79984 31.2L9.49986 31.5C7.69986 33 7.39988 35.6 8.89988 37.4L16.9999 47.3C16.9999 47.5 17.0998 47.7 17.2998 47.8Z" fill="#E30B13"/>
<path d="M162.1 204.8C161.9 205 161.8 205.1 161.6 205.3L156.4 211.7L153.5 215.2C152 217 152.3 219.7 154.1 221.1L154.4 221.4C156.2 222.9 158.9 222.6 160.3 220.8L162 218.7L163.7 220.8C165.2 222.6 167.8 222.9 169.6 221.4L169.9 221.1C171.7 219.6 172 217 170.5 215.2L162.4 205.3C162.4 205.1 162.2 204.9 162.1 204.8Z" fill="#E30B13"/>
<path d="M17.0999 25.4C15.7999 25.4 14.6999 25 13.5999 24.1C12.6999 23.3 11.9999 22.3 11.3999 21L13.4999 20.1C13.7999 20.9 14.2999 21.6 14.7999 22.1C15.4999 22.7 16.1999 23 16.9999 23C18.0999 23 19.0999 22.5 19.7999 21.4C20.4999 20.5 20.7999 19.4 20.7999 18.3C20.7999 17.1 20.4999 16.1 19.7999 15.2C19.0999 14.2 18.0999 13.7 16.9999 13.7C15.9999 13.7 15.0999 14.2 14.0999 15.3L12.4999 14.3V7.29999H20.9999V9.79999H14.6999V12C15.3999 11.7 16.1999 11.5 16.9999 11.5C18.7999 11.5 20.1999 12.2 21.3999 13.7C22.4999 15 23.0999 16.6 23.0999 18.4C23.0999 20.2 22.5999 21.8 21.4999 23.2C20.3999 24.6 18.8999 25.4 17.0999 25.4Z" fill="#E30B13"/>
<path d="M162.1 226.5C163.4 226.5 164.5 226.9 165.6 227.8C166.5 228.6 167.2 229.6 167.8 230.9L165.7 231.8C165.4 231 164.9 230.3 164.4 229.8C163.7 229.2 163 228.9 162.2 228.9C161.1 228.9 160.1 229.4 159.4 230.5C158.7 231.4 158.4 232.5 158.4 233.6C158.4 234.8 158.7 235.8 159.4 236.7C160.1 237.7 161.1 238.2 162.2 238.2C163.2 238.2 164.1 237.7 165.1 236.6L166.7 237.6V244.6H158.2V242.3H164.5V240.1C163.8 240.4 163 240.6 162.2 240.6C160.4 240.6 159 239.9 157.8 238.4C156.7 237.1 156.1 235.5 156.1 233.7C156.1 231.9 156.6 230.3 157.7 228.9C158.9 227.3 160.3 226.5 162.1 226.5Z" fill="#E30B13"/>
</svg>
