<svg width="180" height="254" viewBox="0 0 180 254" fill="none" xmlns="http://www.w3.org/2000/svg">
<path d="M179.2 231.7C179.2 243.5 172.4 253.1 164 253.1H15.8001C7.40011 253.1 0.600098 243.5 0.600098 231.7V22.6C0.600098 10.8 7.40011 1.19995 15.8001 1.19995H164.1C172.5 1.19995 179.3 10.8 179.3 22.6V231.7H179.2Z" fill="white" stroke="#1D1D1B" stroke-miterlimit="10"/>
<path d="M11.0004 17.2C11.0004 17.3 10.9004 16.8 10.9004 15.7C10.9004 13.2 11.2004 11.2999 11.9004 9.79993C12.9004 7.69993 14.4003 6.69995 16.6003 6.69995C17.7003 6.69995 18.7003 6.99998 19.6003 7.59998C20.5003 8.19998 21.2004 8.8999 21.7004 9.8999L19.7004 11.1C18.9004 9.79998 17.9003 9.09998 16.6003 9.09998C14.9003 9.09998 13.8004 10.3999 13.4004 12.9999C14.4004 12.0999 15.4003 11.7 16.6003 11.7C18.3003 11.7 19.7004 12.3999 20.8004 13.8999C21.8004 15.1999 22.3004 16.8 22.3004 18.6C22.3004 20.3 21.8004 21.8 20.7004 23.1C19.6004 24.5 18.2003 25.1 16.6003 25.1C15.8003 25.1 14.9003 24.7999 14.1003 24.2999C13.2003 23.6999 12.4004 22.7 11.9004 21.2C11.4004 19.8 11.1004 18.6 11.0004 17.2ZM16.6003 22.6C17.6003 22.6 18.4003 22.1 19.1003 21.2C19.7003 20.4 20.0004 19.3999 20.0004 18.3999C20.0004 17.1999 19.7003 16.1999 19.1003 15.3999C18.5003 14.3999 17.6004 13.8999 16.5004 13.8999C15.7004 13.8999 15.0004 14.3 14.3004 15.1C13.8004 15.7 13.4003 16.4999 13.1003 17.3999C13.2003 18.6999 13.5004 19.8 13.9004 20.7C14.7004 21.9 15.6003 22.6 16.6003 22.6Z" fill="#1D1D1B"/>
<path d="M168.8 234.9C168.8 234.8 168.9 235.3 168.9 236.4C168.9 238.9 168.6 240.8 167.9 242.3C166.9 244.4 165.4 245.4 163.2 245.4C162.1 245.4 161.1 245.1 160.2 244.5C159.3 243.9 158.6 243.2 158.1 242.2L160.1 241C160.9 242.3 161.9 243 163.2 243C164.9 243 166 241.7 166.4 239.1C165.4 240 164.4 240.4 163.2 240.4C161.5 240.4 160.1 239.7 159 238.2C158 236.9 157.5 235.3 157.5 233.5C157.5 231.8 158 230.3 159.1 229C160.2 227.6 161.6 227 163.2 227C164 227 164.9 227.3 165.7 227.8C166.6 228.4 167.4 229.4 167.9 230.9C168.4 232.2 168.7 233.5 168.8 234.9ZM163.2 229.5C162.2 229.5 161.4 230 160.7 230.9C160.1 231.7 159.8 232.7 159.8 233.7C159.8 234.9 160.1 235.9 160.7 236.7C161.3 237.7 162.2 238.2 163.3 238.2C164.1 238.2 164.8 237.8 165.5 237C166 236.4 166.4 235.6 166.7 234.7C166.6 233.4 166.3 232.3 165.9 231.4C165.1 230.2 164.2 229.5 163.2 229.5Z" fill="#1D1D1B"/>
<path d="M17.5001 42.7999C17.9001 43.8999 18.6001 45.5 19.7001 46.2H14.9001C16.1001 45.2 16.7001 43.7999 17.0001 42.7999C16.3001 43.9999 15.0001 44.7999 13.6001 44.7999C11.4001 44.7999 9.6001 42.9999 9.6001 40.7999C9.6001 38.5999 11.4001 36.7999 13.6001 36.7999C14.0001 36.7999 14.5001 36.8999 14.9001 36.9999C14.1001 36.2999 13.6001 35.2 13.6001 34.1C13.6001 31.9 15.4001 30.1 17.6001 30.1C19.8001 30.1 21.6001 31.9 21.6001 34.1C21.6001 35.3 21.0001 36.4 20.2001 37.1C20.5001 37 20.9001 36.9999 21.2001 36.9999C23.4001 36.9999 25.2001 38.7999 25.2001 40.9999C25.2001 43.1999 23.4001 44.9999 21.2001 44.9999C19.4001 44.9999 18.1001 44.0999 17.5001 42.7999Z" fill="#1D1D1B"/>
<path d="M164.5 210.8C164.1 209.7 163.4 208.1 162.3 207.4H167.1C165.9 208.4 165.3 209.8 165 210.8C165.7 209.6 167 208.8 168.4 208.8C170.6 208.8 172.4 210.6 172.4 212.8C172.4 215 170.6 216.8 168.4 216.8C168 216.8 167.5 216.7 167.1 216.6C167.9 217.3 168.4 218.4 168.4 219.5C168.4 221.7 166.6 223.5 164.4 223.5C162.2 223.5 160.4 221.7 160.4 219.5C160.4 218.3 161 217.2 161.8 216.5C161.5 216.6 161.1 216.6 160.8 216.6C158.6 216.6 156.8 214.8 156.8 212.6C156.8 210.4 158.6 208.6 160.8 208.6C162.5 208.6 163.8 209.5 164.5 210.8Z" fill="#1D1D1B"/>
<path d="M47.3004 47.3999C48.1004 49.8999 49.6004 53.2999 52.2004 54.7999H41.6003C44.3003 52.6999 45.6003 49.4999 46.1003 47.2999C44.6003 49.8999 41.8003 51.7 38.6003 51.7C33.8003 51.7 29.9004 47.7999 29.9004 42.9999C29.9004 38.1999 33.8003 34.2999 38.6003 34.2999C39.6003 34.2999 40.5004 34.5 41.4004 34.7C39.7004 33.1 38.6003 30.8999 38.6003 28.3999C38.6003 23.5999 42.5004 19.7 47.3004 19.7C52.1004 19.7 56.0004 23.5999 56.0004 28.3999C56.0004 31.0999 54.8004 33.5 52.9004 35.1C53.6004 34.9 54.4003 34.7999 55.1003 34.7999C59.9003 34.7999 63.8004 38.6999 63.8004 43.4999C63.8004 48.2999 59.9003 52.2 55.1003 52.2C51.7003 52.2 48.8004 50.2999 47.3004 47.3999Z" fill="#1D1D1B"/>
<path d="M46.4004 206.9C45.6004 204.4 44.1004 201 41.5004 199.5H52.1003C49.4003 201.6 48.1003 204.8 47.6003 207C49.1003 204.4 51.9003 202.6 55.1003 202.6C59.9003 202.6 63.8004 206.5 63.8004 211.3C63.8004 216.1 59.9003 220 55.1003 220C54.1003 220 53.2004 219.8 52.3004 219.6C54.0004 221.2 55.1003 223.4 55.1003 225.9C55.1003 230.7 51.2004 234.6 46.4004 234.6C41.6004 234.6 37.7004 230.7 37.7004 225.9C37.7004 223.2 38.9004 220.8 40.8004 219.2C40.1004 219.4 39.3003 219.5 38.6003 219.5C33.8003 219.5 29.9004 215.6 29.9004 210.8C29.9004 206 33.8003 202.1 38.6003 202.1C42.0003 202.1 45.0004 204 46.4004 206.9Z" fill="#1D1D1B"/>
<path d="M133.3 47.3999C134.1 49.8999 135.6 53.2999 138.2 54.7999H127.6C130.3 52.6999 131.6 49.4999 132.1 47.2999C130.6 49.8999 127.8 51.7 124.6 51.7C119.8 51.7 115.9 47.7999 115.9 42.9999C115.9 38.1999 119.8 34.2999 124.6 34.2999C125.6 34.2999 126.5 34.5 127.4 34.7C125.7 33.1 124.6 30.8999 124.6 28.3999C124.6 23.5999 128.5 19.7 133.3 19.7C138.1 19.7 142 23.5999 142 28.3999C142 31.0999 140.8 33.5 138.9 35.1C139.6 34.9 140.4 34.7999 141.1 34.7999C145.9 34.7999 149.8 38.6999 149.8 43.4999C149.8 48.2999 145.9 52.2 141.1 52.2C137.6 52.2 134.7 50.2999 133.3 47.3999Z" fill="#1D1D1B"/>
<path d="M132.3 206.9C131.5 204.4 130 201 127.4 199.5H138C135.3 201.6 134 204.8 133.5 207C135 204.4 137.8 202.6 141 202.6C145.8 202.6 149.7 206.5 149.7 211.3C149.7 216.1 145.8 220 141 220C140 220 139.1 219.8 138.2 219.6C139.9 221.2 141 223.4 141 225.9C141 230.7 137.1 234.6 132.3 234.6C127.5 234.6 123.6 230.7 123.6 225.9C123.6 223.2 124.8 220.8 126.7 219.2C126 219.4 125.2 219.5 124.5 219.5C119.7 219.5 115.8 215.6 115.8 210.8C115.8 206 119.7 202.1 124.5 202.1C127.9 202.1 130.9 204 132.3 206.9Z" fill="#1D1D1B"/>
<path d="M47.3004 137.2C48.1004 139.7 49.6004 143.1 52.2004 144.6H41.6003C44.3003 142.5 45.6003 139.3 46.1003 137.1C44.6003 139.7 41.8003 141.5 38.6003 141.5C33.8003 141.5 29.9004 137.6 29.9004 132.8C29.9004 128 33.8003 124.1 38.6003 124.1C39.6003 124.1 40.5004 124.3 41.4004 124.5C39.7004 122.9 38.6003 120.7 38.6003 118.2C38.6003 113.4 42.5004 109.5 47.3004 109.5C52.1004 109.5 56.0004 113.4 56.0004 118.2C56.0004 120.9 54.8004 123.3 52.9004 124.9C53.6004 124.7 54.4003 124.6 55.1003 124.6C59.9003 124.6 63.8004 128.5 63.8004 133.3C63.8004 138.1 59.9003 142 55.1003 142C51.7003 142 48.8004 140.1 47.3004 137.2Z" fill="#1D1D1B"/>
<path d="M133.3 137.2C134.1 139.7 135.6 143.1 138.2 144.6H127.6C130.3 142.5 131.6 139.3 132.1 137.1C130.6 139.7 127.8 141.5 124.6 141.5C119.8 141.5 115.9 137.6 115.9 132.8C115.9 128 119.8 124.1 124.6 124.1C125.6 124.1 126.5 124.3 127.4 124.5C125.7 122.9 124.6 120.7 124.6 118.2C124.6 113.4 128.5 109.5 133.3 109.5C138.1 109.5 142 113.4 142 118.2C142 120.9 140.8 123.3 138.9 124.9C139.6 124.7 140.4 124.6 141.1 124.6C145.9 124.6 149.8 128.5 149.8 133.3C149.8 138.1 145.9 142 141.1 142C137.6 142 134.7 140.1 133.3 137.2Z" fill="#1D1D1B"/>
</svg>
