<svg width="181" height="253" viewBox="0 0 181 253" fill="none" xmlns="http://www.w3.org/2000/svg">
<path d="M179.5 231.1C179.5 242.9 172.7 252.5 164.3 252.5H16.0999C7.69985 252.5 0.899902 242.9 0.899902 231.1V21.9C0.899902 10.1 7.69985 0.5 16.0999 0.5H164.4C172.8 0.5 179.6 10.1 179.6 21.9V231.1H179.5Z" fill="white" stroke="#1D1D1B" stroke-miterlimit="10"/>
<path d="M10.1996 16.5C10.1996 16.6 10.0996 16.1 10.0996 15C10.0996 12.5 10.3996 10.6 11.0996 9.09998C12.0996 6.99998 13.5996 6 15.7996 6C16.8996 6 17.8996 6.29996 18.7996 6.89996C19.6996 7.49996 20.3997 8.20001 20.8997 9.20001L18.8997 10.4C18.0997 9.09996 17.0996 8.39996 15.7996 8.39996C14.0996 8.39996 12.9996 9.69999 12.5996 12.3C13.5996 11.4 14.5996 11 15.7996 11C17.4996 11 18.8996 11.7 19.9996 13.2C20.9996 14.5 21.4996 16.1 21.4996 17.9C21.4996 19.6 20.9997 21.1 19.8997 22.4C18.7997 23.8 17.3996 24.4 15.7996 24.4C14.9996 24.4 14.0996 24.1 13.2996 23.6C12.3996 23 11.5996 22 11.0996 20.5C10.5996 19.2 10.2996 17.9 10.1996 16.5ZM15.7996 21.9C16.7996 21.9 17.5996 21.4 18.2996 20.5C18.8996 19.7 19.1996 18.7 19.1996 17.7C19.1996 16.5 18.8996 15.5 18.2996 14.7C17.6996 13.7 16.7996 13.2 15.6996 13.2C14.8996 13.2 14.1996 13.6 13.4996 14.4C12.9996 15 12.5996 15.8 12.2996 16.7C12.3996 18 12.6996 19.1 13.0996 20C13.8996 21.2 14.7996 21.9 15.7996 21.9Z" fill="#E30B13"/>
<path d="M169.1 234.2C169.1 234.1 169.2 234.6 169.2 235.7C169.2 238.2 168.9 240.1 168.2 241.6C167.2 243.7 165.7 244.7 163.5 244.7C162.4 244.7 161.4 244.4 160.5 243.8C159.6 243.2 158.9 242.5 158.4 241.5L160.4 240.3C161.2 241.6 162.2 242.3 163.5 242.3C165.2 242.3 166.3 241 166.7 238.4C165.7 239.3 164.7 239.7 163.5 239.7C161.8 239.7 160.4 239 159.3 237.5C158.3 236.2 157.8 234.6 157.8 232.8C157.8 231.1 158.3 229.6 159.4 228.3C160.5 226.9 161.9 226.3 163.5 226.3C164.3 226.3 165.2 226.6 166 227.1C166.9 227.7 167.7 228.7 168.2 230.2C168.7 231.6 169 232.8 169.1 234.2ZM163.5 228.8C162.5 228.8 161.7 229.3 161 230.2C160.4 231 160.1 232 160.1 233C160.1 234.2 160.4 235.2 161 236C161.6 237 162.5 237.5 163.6 237.5C164.4 237.5 165.1 237.1 165.8 236.3C166.3 235.7 166.7 234.9 167 234C166.9 232.7 166.6 231.6 166.2 230.7C165.4 229.5 164.5 228.8 163.5 228.8Z" fill="#E30B13"/>
<path d="M10.5 36.5L17.5 45.4L24.6 36.5L17.5 27.8L10.5 36.5Z" fill="#E30B13"/>
<path d="M156.6 213.8L163.6 222.7L170.7 213.8L163.7 205.1L156.6 213.8Z" fill="#E30B13"/>
<path d="M32.1997 34.4L46.4997 52.6L61.0997 34.4L46.5997 16.5L32.1997 34.4Z" fill="#E30B13"/>
<path d="M32.1997 215L46.4997 233.2L61.0997 215L46.5997 197.1L32.1997 215Z" fill="#E30B13"/>
<path d="M115.7 35L130.1 53.2L144.7 35L130.2 17.1L115.7 35Z" fill="#E30B13"/>
<path d="M115.7 215.6L130.1 233.7L144.7 215.6L130.2 197.7L115.7 215.6Z" fill="#E30B13"/>
<path d="M31.7998 125.5L46.0998 143.7L60.6998 125.5L46.1998 107.6L31.7998 125.5Z" fill="#E30B13"/>
<path d="M115.4 126.1L129.7 144.2L144.3 126.1L129.8 108.2L115.4 126.1Z" fill="#E30B13"/>
</svg>
