<svg width="181" height="254" viewBox="0 0 181 254" fill="none" xmlns="http://www.w3.org/2000/svg">
<path d="M179.5 232C179.5 243.8 172.7 253.4 164.3 253.4H16.0999C7.69985 253.4 0.899902 243.8 0.899902 232V22.8C0.899902 11 7.69985 1.40002 16.0999 1.40002H164.4C172.8 1.40002 179.6 11 179.6 22.8V232H179.5Z" fill="white" stroke="#1D1D1B" stroke-miterlimit="10"/>
<path d="M10.1996 17.4C10.1996 17.5 10.0996 17 10.0996 15.9C10.0996 13.4 10.3996 11.5 11.0996 10C12.0996 7.90003 13.5996 6.90002 15.7996 6.90002C16.8996 6.90002 17.8996 7.20002 18.7996 7.80002C19.6996 8.40002 20.3997 9.10001 20.8997 10.1L18.8997 11.3C18.0997 10 17.0996 9.30002 15.7996 9.30002C14.0996 9.30002 12.9996 10.6 12.5996 13.2C13.5996 12.3 14.5996 11.9 15.7996 11.9C17.4996 11.9 18.8996 12.6 19.9996 14.1C20.9996 15.4 21.4996 17 21.4996 18.8C21.4996 20.5 20.9997 22 19.8997 23.3C18.7997 24.7 17.3996 25.3 15.7996 25.3C14.9996 25.3 14.0996 25 13.2996 24.5C12.3996 23.9 11.5996 22.9 11.0996 21.4C10.5996 20.1 10.2996 18.8 10.1996 17.4ZM15.7996 22.8C16.7996 22.8 17.5996 22.3 18.2996 21.4C18.8996 20.6 19.1996 19.6 19.1996 18.6C19.1996 17.4 18.8996 16.4 18.2996 15.6C17.6996 14.6 16.7996 14.1 15.6996 14.1C14.8996 14.1 14.1996 14.5 13.4996 15.3C12.9996 15.9 12.5996 16.7 12.2996 17.6C12.3996 18.9 12.6996 20 13.0996 20.9C13.8996 22.1 14.7996 22.8 15.7996 22.8Z" fill="#13110C"/>
<path d="M166.1 236.3C166.1 236.2 166.2 236.7 166.2 237.8C166.2 240.3 165.9 242.2 165.2 243.7C164.2 245.8 162.7 246.8 160.5 246.8C159.4 246.8 158.4 246.5 157.5 245.9C156.6 245.3 155.9 244.6 155.4 243.6L157.4 242.4C158.2 243.7 159.2 244.4 160.5 244.4C162.2 244.4 163.3 243.1 163.7 240.5C162.7 241.4 161.7 241.8 160.5 241.8C158.8 241.8 157.4 241.1 156.3 239.6C155.3 238.3 154.8 236.7 154.8 234.9C154.8 233.2 155.3 231.7 156.4 230.4C157.5 229 158.9 228.4 160.5 228.4C161.3 228.4 162.2 228.7 163 229.2C163.9 229.8 164.7 230.8 165.2 232.3C165.7 233.6 166 234.9 166.1 236.3ZM160.5 230.9C159.5 230.9 158.7 231.4 158 232.3C157.4 233.1 157.1 234.1 157.1 235.1C157.1 236.3 157.4 237.3 158 238.1C158.6 239.1 159.5 239.6 160.6 239.6C161.4 239.6 162.1 239.2 162.8 238.4C163.3 237.8 163.7 237 164 236.1C163.9 234.8 163.6 233.7 163.2 232.8C162.4 231.5 161.6 230.9 160.5 230.9Z" fill="#13110C"/>
<path d="M18.8997 41L17.3997 42.8C16.0997 44.3 13.8997 44.6 12.3997 43.3L12.0996 43.1C10.5996 41.8 10.2996 39.6 11.5996 38.1L13.9996 35.1L18.3997 29.7C18.4997 29.5 18.6996 29.4 18.7996 29.3C18.8996 29.4 19.0996 29.6 19.1996 29.7L25.9996 38.1C27.1996 39.6 26.9996 41.9 25.4996 43.1L25.1996 43.3C23.6996 44.5 21.3996 44.3 20.1996 42.8L18.8997 41L19.6996 40.1C19.6996 40.1 18.0996 43.9 15.7996 46.1H21.6996C21.6996 46.1 18.7997 43.1 18.8997 41Z" fill="#13110C"/>
<path d="M18.8997 41L17.3997 42.8C16.0997 44.3 13.8997 44.6 12.3997 43.3L12.0996 43.1C10.5996 41.8 10.2996 39.6 11.5996 38.1L13.9996 35.1L18.3997 29.7C18.4997 29.5 18.6996 29.4 18.7996 29.3C18.8996 29.4 19.0996 29.6 19.1996 29.7L25.9996 38.1C27.1996 39.6 26.9996 41.9 25.4996 43.1L25.1996 43.3C23.6996 44.5 21.3996 44.3 20.1996 42.8L18.8997 41ZM18.8997 41L19.6996 40.1C19.6996 40.1 18.0996 43.9 15.7996 46.1H21.6996C21.6996 46.1 18.7997 43.1 18.8997 41Z" stroke="#13110C" stroke-miterlimit="10"/>
<path d="M164.2 213.8L165.7 212C167 210.5 169.2 210.2 170.7 211.5L171 211.7C172.5 213 172.8 215.2 171.5 216.7L169.1 219.7L164.7 225.1C164.6 225.3 164.4 225.4 164.3 225.5C164.2 225.4 164 225.2 163.9 225.1L157.1 216.7C155.9 215.2 156.1 212.9 157.6 211.7L157.9 211.5C159.4 210.3 161.7 210.5 162.9 212L164.2 213.8L163.4 214.7C163.4 214.7 165 210.9 167.3 208.7H161.4C161.4 208.7 164.3 211.7 164.2 213.8Z" fill="#13110C"/>
<path d="M164.2 213.8L165.7 212C167 210.5 169.2 210.2 170.7 211.5L171 211.7C172.5 213 172.8 215.2 171.5 216.7L169.1 219.7L164.7 225.1C164.6 225.3 164.4 225.4 164.3 225.5C164.2 225.4 164 225.2 163.9 225.1L157.1 216.7C155.9 215.2 156.1 212.9 157.6 211.7L157.9 211.5C159.4 210.3 161.7 210.5 162.9 212L164.2 213.8ZM164.2 213.8L163.4 214.7C163.4 214.7 165 210.9 167.3 208.7H161.4C161.4 208.7 164.3 211.7 164.2 213.8Z" stroke="#13110C" stroke-miterlimit="10"/>
<path d="M53.5998 208.4L56.5998 204.8C59.0998 201.7 63.6998 201.3 66.7998 203.8L67.2998 204.2C70.3998 206.7 70.7998 211.3 68.2998 214.4L63.3999 220.4L54.3999 231.4C54.0999 231.7 53.7998 232 53.4998 232.3C53.1998 232 52.8998 231.8 52.6998 231.5L38.8999 214.5C36.3999 211.4 36.8998 206.8 39.9998 204.3L40.4998 203.9C43.5998 201.4 48.1998 201.9 50.6998 205L53.5998 208.4L51.9998 210.3C51.9998 210.3 55.1999 202.7 59.8999 198.2H47.8999C47.8999 198.2 53.6998 204.2 53.5998 208.4Z" fill="#13110C"/>
<path d="M53.5998 208.4L56.5998 204.8C59.0998 201.7 63.6998 201.3 66.7998 203.8L67.2998 204.2C70.3998 206.7 70.7998 211.3 68.2998 214.4L63.3999 220.4L54.3999 231.4C54.0999 231.7 53.7998 232 53.4998 232.3C53.1998 232 52.8998 231.8 52.6998 231.5L38.8999 214.5C36.3999 211.4 36.8998 206.8 39.9998 204.3L40.4998 203.9C43.5998 201.4 48.1998 201.9 50.6998 205L53.5998 208.4ZM53.5998 208.4L51.9998 210.3C51.9998 210.3 55.1999 202.7 59.8999 198.2H47.8999C47.8999 198.2 53.6998 204.2 53.5998 208.4Z" stroke="#13110C" stroke-miterlimit="10"/>
<path d="M53.2 47.1L50.2 50.7C47.7 53.8 43.1 54.2 40 51.7L39.5 51.3C36.4 48.8 36 44.2 38.5 41.1L43.4 35.1L52.4 24.2C52.7 23.9 52.9999 23.6 53.2999 23.3C53.5999 23.6 53.8999 23.8 54.0999 24.1L67.9 41.1C70.4 44.2 69.8999 48.8 66.7999 51.3L66.2999 51.7C63.1999 54.2 58.5999 53.7 56.0999 50.6L53.2 47.1L54.7999 45.2C54.7999 45.2 51.6 52.8 46.9 57.3H58.9C58.9 57.3 53.1 51.3 53.2 47.1Z" fill="#13110C"/>
<path d="M53.2 47.1L50.2 50.7C47.7 53.8 43.1 54.2 40 51.7L39.5 51.3C36.4 48.8 36 44.2 38.5 41.1L43.4 35.1L52.4 24.2C52.7 23.9 52.9999 23.6 53.2999 23.3C53.5999 23.6 53.8999 23.8 54.0999 24.1L67.9 41.1C70.4 44.2 69.8999 48.8 66.7999 51.3L66.2999 51.7C63.1999 54.2 58.5999 53.7 56.0999 50.6L53.2 47.1ZM53.2 47.1L54.7999 45.2C54.7999 45.2 51.6 52.8 46.9 57.3H58.9C58.9 57.3 53.1 51.3 53.2 47.1Z" stroke="#13110C" stroke-miterlimit="10"/>
<path d="M131.1 208.3L134.1 204.7C136.6 201.6 141.2 201.2 144.3 203.7L144.8 204.1C147.9 206.6 148.3 211.2 145.8 214.3L140.9 220.3L131.9 231.3C131.6 231.6 131.3 231.9 131 232.2C130.7 231.9 130.4 231.7 130.2 231.4L116.4 214.4C113.9 211.3 114.4 206.7 117.5 204.2L118 203.8C121.1 201.3 125.7 201.8 128.2 204.9L131.1 208.3L129.5 210.2C129.5 210.2 132.7 202.6 137.4 198.1H125.4C125.4 198.1 131.3 204 131.1 208.3Z" fill="#13110C"/>
<path d="M131.1 208.3L134.1 204.7C136.6 201.6 141.2 201.2 144.3 203.7L144.8 204.1C147.9 206.6 148.3 211.2 145.8 214.3L140.9 220.3L131.9 231.3C131.6 231.6 131.3 231.9 131 232.2C130.7 231.9 130.4 231.7 130.2 231.4L116.4 214.4C113.9 211.3 114.4 206.7 117.5 204.2L118 203.8C121.1 201.3 125.7 201.8 128.2 204.9L131.1 208.3ZM131.1 208.3L129.5 210.2C129.5 210.2 132.7 202.6 137.4 198.1H125.4C125.4 198.1 131.3 204 131.1 208.3Z" stroke="#13110C" stroke-miterlimit="10"/>
<path d="M130.7 46.9L127.7 50.5C125.2 53.6 120.6 54 117.5 51.5L117 51.1C113.9 48.6 113.5 44 116 40.9L120.9 34.9L129.9 24C130.2 23.7 130.5 23.4 130.8 23.1C131.1 23.4 131.4 23.6 131.6 23.9L145.4 40.9C147.9 44 147.4 48.6 144.3 51.1L143.8 51.5C140.7 54 136.1 53.5 133.6 50.4L130.7 46.9L132.3 45C132.3 45 129.1 52.6 124.4 57.1H136.4C136.4 57.1 130.6 51.2 130.7 46.9Z" fill="#13110C"/>
<path d="M130.7 46.9L127.7 50.5C125.2 53.6 120.6 54 117.5 51.5L117 51.1C113.9 48.6 113.5 44 116 40.9L120.9 34.9L129.9 24C130.2 23.7 130.5 23.4 130.8 23.1C131.1 23.4 131.4 23.6 131.6 23.9L145.4 40.9C147.9 44 147.4 48.6 144.3 51.1L143.8 51.5C140.7 54 136.1 53.5 133.6 50.4L130.7 46.9ZM130.7 46.9L132.3 45C132.3 45 129.1 52.6 124.4 57.1H136.4C136.4 57.1 130.6 51.2 130.7 46.9Z" stroke="#13110C" stroke-miterlimit="10"/>
<path d="M53.4002 135.1L50.4002 138.7C47.9002 141.8 43.3001 142.2 40.2001 139.7L39.7001 139.3C36.6001 136.8 36.2001 132.2 38.7001 129.1L43.6001 123.1L52.6001 112.2C52.9001 111.9 53.2001 111.6 53.5001 111.3C53.8001 111.6 54.1001 111.8 54.3001 112.1L68.1001 129.1C70.6001 132.2 70.1001 136.8 67.0001 139.3L66.5001 139.7C63.4001 142.2 58.8001 141.7 56.3001 138.6L53.4002 135.1L55.0001 133.2C55.0001 133.2 51.8001 140.8 47.1001 145.3H59.1001C59.1001 145.4 53.3002 139.4 53.4002 135.1Z" fill="#13110C"/>
<path d="M53.4002 135.1L50.4002 138.7C47.9002 141.8 43.3001 142.2 40.2001 139.7L39.7001 139.3C36.6001 136.8 36.2001 132.2 38.7001 129.1L43.6001 123.1L52.6001 112.2C52.9001 111.9 53.2001 111.6 53.5001 111.3C53.8001 111.6 54.1001 111.8 54.3001 112.1L68.1001 129.1C70.6001 132.2 70.1001 136.8 67.0001 139.3L66.5001 139.7C63.4001 142.2 58.8001 141.7 56.3001 138.6L53.4002 135.1ZM53.4002 135.1L55.0001 133.2C55.0001 133.2 51.8001 140.8 47.1001 145.3H59.1001C59.1001 145.4 53.3002 139.4 53.4002 135.1Z" stroke="#13110C" stroke-miterlimit="10"/>
<path d="M130.8 135.1L127.8 138.7C125.3 141.8 120.7 142.2 117.6 139.7L117.1 139.3C114 136.8 113.6 132.2 116.1 129.1L121 123.1L130 112.2C130.3 111.9 130.6 111.6 130.9 111.3C131.2 111.6 131.5 111.8 131.7 112.1L145.5 129.1C148 132.2 147.5 136.8 144.4 139.3L143.9 139.7C140.8 142.2 136.2 141.7 133.7 138.6L130.8 135.1L132.4 133.2C132.4 133.2 129.2 140.8 124.5 145.3H136.5C136.6 145.4 130.7 139.4 130.8 135.1Z" fill="#13110C"/>
<path d="M130.8 135.1L127.8 138.7C125.3 141.8 120.7 142.2 117.6 139.7L117.1 139.3C114 136.8 113.6 132.2 116.1 129.1L121 123.1L130 112.2C130.3 111.9 130.6 111.6 130.9 111.3C131.2 111.6 131.5 111.8 131.7 112.1L145.5 129.1C148 132.2 147.5 136.8 144.4 139.3L143.9 139.7C140.8 142.2 136.2 141.7 133.7 138.6L130.8 135.1ZM130.8 135.1L132.4 133.2C132.4 133.2 129.2 140.8 124.5 145.3H136.5C136.6 145.4 130.7 139.4 130.8 135.1Z" stroke="#13110C" stroke-miterlimit="10"/>
</svg>
