<svg width="181" height="253" viewBox="0 0 181 253" fill="none" xmlns="http://www.w3.org/2000/svg">
<path d="M179.9 231.1C179.9 242.9 173.1 252.5 164.7 252.5H16.4003C8.00027 252.5 1.2002 242.9 1.2002 231.1V21.9C1.2002 10.1 8.00027 0.5 16.4003 0.5H164.7C173.1 0.5 179.9 10.1 179.9 21.9V231.1Z" fill="white" stroke="#1D1D1B" stroke-miterlimit="10"/>
<path d="M11.3003 11V6.29999H21.6002L22.8003 8.29999C19.9003 12.4 17.9003 17.6 16.8003 23.8H14.3003C15.3003 18.1 17.0002 13.1 19.5002 8.79999H13.7002V11H11.3003Z" fill="#E30B13"/>
<path d="M167.1 238.6V243.3H156.8L155.6 241.3C158.5 237.2 160.5 232 161.6 225.8H164.1C163.1 231.5 161.4 236.5 158.9 240.8H164.7V238.6H167.1Z" fill="#E30B13"/>
<path d="M9.7002 35.9L16.7002 44.8L23.8003 35.9L16.8003 27.2L9.7002 35.9Z" fill="#E30B13"/>
<path d="M155.9 211.9L162.9 220.7L170 211.9L163 203.1L155.9 211.9Z" fill="#E30B13"/>
<path d="M32.2002 34.4L46.5002 52.6L61.1002 34.4L46.6002 16.5L32.2002 34.4Z" fill="#E30B13"/>
<path d="M32.2002 215L46.5002 233.2L61.1002 215L46.6002 197.1L32.2002 215Z" fill="#E30B13"/>
<path d="M115.7 35L130.1 53.2L144.7 35L130.2 17.1L115.7 35Z" fill="#E30B13"/>
<path d="M115.7 215.6L130.1 233.7L144.7 215.6L130.2 197.7L115.7 215.6Z" fill="#E30B13"/>
<path d="M31.8003 125.5L46.1002 143.7L60.7002 125.5L46.2002 107.6L31.8003 125.5Z" fill="#E30B13"/>
<path d="M115.4 126.1L129.7 144.2L144.3 126.1L129.8 108.2L115.4 126.1Z" fill="#E30B13"/>
<path d="M76.1001 79.1L90.5001 97.2L105 79.1L90.5001 61.2L76.1001 79.1Z" fill="#E30B13"/>
</svg>
