<svg width="180" height="254" viewBox="0 0 180 254" fill="none" xmlns="http://www.w3.org/2000/svg">
<path d="M179.2 231.4C179.2 243.2 172.4 252.8 164 252.8H15.7C7.29995 252.8 0.5 243.2 0.5 231.4V22.3002C0.5 10.5002 7.29995 0.900146 15.7 0.900146H164C172.4 0.900146 179.2 10.5002 179.2 22.3002V231.4Z" fill="white" stroke="#1D1D1B" stroke-miterlimit="10"/>
<path d="M17.8 25.1002C16.2 25.1002 14.9 24.6002 13.8 23.6002C12.6 22.6002 12 21.3002 12 19.8002C12 18.0002 12.8 16.6001 14.3 15.5001C13.2 14.6001 12.6 13.4001 12.6 12.0001C12.6 10.6001 13.1 9.50022 14.2 8.60022C15.2 7.70022 16.4 7.30017 17.8 7.30017C19.2 7.30017 20.4 7.70022 21.4 8.60022C22.5 9.50022 23 10.7001 23 12.0001C23 13.4001 22.4 14.6001 21.3 15.5001C22.9 16.6001 23.6 18.0002 23.6 19.8002C23.6 21.3002 23 22.6002 21.9 23.6002C20.7 24.6002 19.3 25.1002 17.8 25.1002ZM17.8 16.7002C16.9 16.7002 16.1 17.0001 15.4 17.5001C14.6 18.1001 14.3 18.8002 14.3 19.7002C14.3 20.6002 14.7 21.3001 15.4 21.9001C16.1 22.4001 16.9 22.7002 17.8 22.7002C18.7 22.7002 19.5 22.4001 20.2 21.9001C21 21.3001 21.3 20.6002 21.3 19.7002C21.3 18.8002 20.9 18.1001 20.2 17.5001C19.5 17.0001 18.7 16.7002 17.8 16.7002ZM17.8 9.50012C17.1 9.50012 16.4 9.7002 15.8 10.2002C15.2 10.7002 14.9 11.3001 14.9 12.0001C14.9 12.7001 15.2 13.3002 15.8 13.8002C16.4 14.2002 17 14.5001 17.8 14.5001C18.5 14.5001 19.2 14.3002 19.8 13.8002C20.4 13.3002 20.7 12.7001 20.7 12.0001C20.7 11.3001 20.4 10.7002 19.8 10.2002C19.2 9.7002 18.5 9.50012 17.8 9.50012Z" fill="#1D1D1B"/>
<path d="M162.2 225.9C163.8 225.9 165.1 226.4 166.2 227.4C167.4 228.4 168 229.7 168 231.2C168 233 167.2 234.4 165.7 235.5C166.8 236.4 167.4 237.6 167.4 239C167.4 240.4 166.9 241.5 165.8 242.4C164.8 243.3 163.6 243.7 162.2 243.7C160.8 243.7 159.6 243.3 158.6 242.4C157.5 241.5 157 240.3 157 239C157 237.6 157.6 236.4 158.7 235.5C157.1 234.4 156.4 233 156.4 231.2C156.4 229.7 157 228.4 158.1 227.4C159.3 226.4 160.6 225.9 162.2 225.9ZM162.2 234.3C163.1 234.3 163.9 234 164.6 233.5C165.4 232.9 165.7 232.2 165.7 231.3C165.7 230.4 165.3 229.7 164.6 229.1C163.9 228.6 163.1 228.3 162.2 228.3C161.3 228.3 160.5 228.6 159.8 229.1C159 229.7 158.7 230.4 158.7 231.3C158.7 232.2 159.1 232.9 159.8 233.5C160.5 234 161.3 234.3 162.2 234.3ZM162.2 241.5C162.9 241.5 163.6 241.3 164.2 240.8C164.8 240.3 165.1 239.7 165.1 239C165.1 238.3 164.8 237.7 164.2 237.2C163.6 236.8 163 236.5 162.2 236.5C161.5 236.5 160.8 236.7 160.2 237.2C159.6 237.7 159.3 238.3 159.3 239C159.3 239.7 159.6 240.3 160.2 240.8C160.8 241.3 161.4 241.5 162.2 241.5Z" fill="#1D1D1B"/>
<path d="M17.1002 42.8002C17.5002 43.9002 18.2003 45.5002 19.3003 46.2002H14.5002C15.7002 45.2002 16.3002 43.8002 16.6002 42.8002C15.9002 44.0002 14.6002 44.8002 13.2002 44.8002C11.0002 44.8002 9.2002 43.0002 9.2002 40.8002C9.2002 38.6002 11.0002 36.8002 13.2002 36.8002C13.6002 36.8002 14.1002 36.9001 14.5002 37.0001C13.7002 36.3001 13.2002 35.2002 13.2002 34.1002C13.2002 31.9002 15.0002 30.1002 17.2002 30.1002C19.4002 30.1002 21.2002 31.9002 21.2002 34.1002C21.2002 35.3002 20.6003 36.4002 19.8003 37.1002C20.1003 37.0002 20.5003 37.0001 20.8003 37.0001C23.0003 37.0001 24.8003 38.8001 24.8003 41.0001C24.8003 43.2001 23.0003 45.0001 20.8003 45.0001C19.1003 45.0001 17.7002 44.1002 17.1002 42.8002Z" fill="#1D1D1B"/>
<path d="M164.1 210.8C163.7 209.7 163 208.1 161.9 207.4H166.7C165.5 208.4 164.9 209.8 164.6 210.8C165.3 209.6 166.6 208.8 168 208.8C170.2 208.8 172 210.6 172 212.8C172 215 170.2 216.8 168 216.8C167.6 216.8 167.1 216.7 166.7 216.6C167.5 217.3 168 218.4 168 219.5C168 221.7 166.2 223.5 164 223.5C161.8 223.5 160 221.7 160 219.5C160 218.3 160.6 217.2 161.4 216.5C161.1 216.6 160.7 216.6 160.4 216.6C158.2 216.6 156.4 214.8 156.4 212.6C156.4 210.4 158.2 208.6 160.4 208.6C162.1 208.6 163.5 209.5 164.1 210.8Z" fill="#1D1D1B"/>
<path d="M48.9 47.5001C49.7 50.0001 51.2 53.4001 53.8 54.9001H43.2C45.9 52.8001 47.2 49.6001 47.7 47.4001C46.2 50.0001 43.4 51.8002 40.2 51.8002C35.4 51.8002 31.5 47.9002 31.5 43.1002C31.5 38.3002 35.4 34.4001 40.2 34.4001C41.2 34.4001 42.1 34.6002 43 34.8002C41.3 33.2002 40.2 31.0001 40.2 28.5001C40.2 23.7001 44.1 19.8002 48.9 19.8002C53.7 19.8002 57.6 23.7001 57.6 28.5001C57.6 31.2001 56.4 33.6002 54.5 35.2002C55.2 35.0002 56 34.9001 56.7 34.9001C61.5 34.9001 65.4 38.8002 65.4 43.6002C65.4 48.4002 61.5 52.3002 56.7 52.3002C53.3 52.3002 50.3 50.4001 48.9 47.5001Z" fill="#1D1D1B"/>
<path d="M48 207C47.2 204.5 45.7 201.1 43.1 199.6H53.7C51 201.7 49.7 204.9 49.2 207.1C50.7 204.5 53.5 202.7 56.7 202.7C61.5 202.7 65.4 206.6 65.4 211.4C65.4 216.2 61.5 220.1 56.7 220.1C55.7 220.1 54.8 219.9 53.9 219.7C55.6 221.3 56.7 223.5 56.7 226C56.7 230.8 52.8 234.7 48 234.7C43.2 234.7 39.3 230.8 39.3 226C39.3 223.3 40.5 220.9 42.4 219.3C41.7 219.5 40.9 219.6 40.2 219.6C35.4 219.6 31.5 215.7 31.5 210.9C31.5 206.1 35.4 202.2 40.2 202.2C43.6 202.2 46.5 204.1 48 207Z" fill="#1D1D1B"/>
<path d="M134.8 47.5001C135.6 50.0001 137.1 53.4001 139.7 54.9001H129.1C131.8 52.8001 133.1 49.6001 133.6 47.4001C132.1 50.0001 129.3 51.8002 126.1 51.8002C121.3 51.8002 117.4 47.9002 117.4 43.1002C117.4 38.3002 121.3 34.4001 126.1 34.4001C127.1 34.4001 128 34.6002 128.9 34.8002C127.2 33.2002 126.1 31.0001 126.1 28.5001C126.1 23.7001 130 19.8002 134.8 19.8002C139.6 19.8002 143.5 23.7001 143.5 28.5001C143.5 31.2001 142.3 33.6002 140.4 35.2002C141.1 35.0002 141.9 34.9001 142.6 34.9001C147.4 34.9001 151.3 38.8002 151.3 43.6002C151.3 48.4002 147.4 52.3002 142.6 52.3002C139.2 52.3002 136.2 50.4001 134.8 47.5001Z" fill="#1D1D1B"/>
<path d="M133.9 207C133.1 204.5 131.6 201.1 129 199.6H139.6C136.9 201.7 135.6 204.9 135.1 207.1C136.6 204.5 139.4 202.7 142.6 202.7C147.4 202.7 151.3 206.6 151.3 211.4C151.3 216.2 147.4 220.1 142.6 220.1C141.6 220.1 140.7 219.9 139.8 219.7C141.5 221.3 142.6 223.5 142.6 226C142.6 230.8 138.7 234.7 133.9 234.7C129.1 234.7 125.2 230.8 125.2 226C125.2 223.3 126.4 220.9 128.3 219.3C127.6 219.5 126.8 219.6 126.1 219.6C121.3 219.6 117.4 215.7 117.4 210.9C117.4 206.1 121.3 202.2 126.1 202.2C129.5 202.2 132.4 204.1 133.9 207Z" fill="#1D1D1B"/>
<path d="M48.9 137.3C49.7 139.8 51.2 143.2 53.8 144.7H43.2C45.9 142.6 47.2 139.4 47.7 137.2C46.2 139.8 43.4 141.6 40.2 141.6C35.4 141.6 31.5 137.7 31.5 132.9C31.5 128.1 35.4 124.2 40.2 124.2C41.2 124.2 42.1 124.4 43 124.6C41.3 123 40.2 120.8 40.2 118.3C40.2 113.5 44.1 109.6 48.9 109.6C53.7 109.6 57.6 113.5 57.6 118.3C57.6 121 56.4 123.4 54.5 125C55.2 124.8 56 124.7 56.7 124.7C61.5 124.7 65.4 128.6 65.4 133.4C65.4 138.2 61.5 142.1 56.7 142.1C53.3 142.1 50.3 140.1 48.9 137.3Z" fill="#1D1D1B"/>
<path d="M134.8 137.3C135.6 139.8 137.1 143.2 139.7 144.7H129.1C131.8 142.6 133.1 139.4 133.6 137.2C132.1 139.8 129.3 141.6 126.1 141.6C121.3 141.6 117.4 137.7 117.4 132.9C117.4 128.1 121.3 124.2 126.1 124.2C127.1 124.2 128 124.4 128.9 124.6C127.2 123 126.1 120.8 126.1 118.3C126.1 113.5 130 109.6 134.8 109.6C139.6 109.6 143.5 113.5 143.5 118.3C143.5 121 142.3 123.4 140.4 125C141.1 124.8 141.9 124.7 142.6 124.7C147.4 124.7 151.3 128.6 151.3 133.4C151.3 138.2 147.4 142.1 142.6 142.1C139.2 142.1 136.2 140.1 134.8 137.3Z" fill="#1D1D1B"/>
<path d="M90.4 92.1002C91.2 94.6002 92.7 98.0001 95.3 99.5001H84.7C87.4 97.4001 88.7 94.2001 89.2 92.0001C87.7 94.6001 84.9 96.4001 81.7 96.4001C76.9 96.4001 73 92.5002 73 87.7002C73 82.9002 76.9 79.0001 81.7 79.0001C82.7 79.0001 83.6 79.2001 84.5 79.4001C82.8 77.8001 81.7 75.6002 81.7 73.1002C81.7 68.3002 85.6 64.4001 90.4 64.4001C95.2 64.4001 99.1 68.3002 99.1 73.1002C99.1 75.8002 97.9 78.2002 96 79.8002C96.7 79.6002 97.5 79.5001 98.2 79.5001C103 79.5001 106.9 83.4002 106.9 88.2002C106.9 93.0002 103 96.9001 98.2 96.9001C94.7 96.9001 91.8 94.9002 90.4 92.1002Z" fill="#1D1D1B"/>
<path d="M89.3999 161.6C88.5999 159.1 87.0999 155.7 84.4999 154.2H95.0999C92.3999 156.3 91.0999 159.5 90.5999 161.7C92.0999 159.1 94.8999 157.3 98.0999 157.3C102.9 157.3 106.8 161.2 106.8 166C106.8 170.8 102.9 174.7 98.0999 174.7C97.0999 174.7 96.1999 174.5 95.2999 174.3C96.9999 175.9 98.0999 178.1 98.0999 180.6C98.0999 185.4 94.1999 189.3 89.3999 189.3C84.5999 189.3 80.6998 185.4 80.6998 180.6C80.6998 177.9 81.8999 175.5 83.7999 173.9C83.0999 174.1 82.2999 174.2 81.5999 174.2C76.7999 174.2 72.8999 170.3 72.8999 165.5C72.8999 160.7 76.7999 156.8 81.5999 156.8C85.0999 156.8 87.9999 158.8 89.3999 161.6Z" fill="#1D1D1B"/>
</svg>
