<svg width="180" height="253" viewBox="0 0 180 253" fill="none" xmlns="http://www.w3.org/2000/svg">
<path d="M179.2 231.1C179.2 242.9 172.4 252.5 164 252.5H15.7C7.29995 252.5 0.5 242.9 0.5 231.1V21.9C0.5 10.1 7.29995 0.5 15.7 0.5H164C172.4 0.5 179.2 10.1 179.2 21.9V231.1Z" fill="white" stroke="#1D1D1B" stroke-miterlimit="10"/>
<path d="M16.5002 22.8C14.9002 22.8 13.6002 22.3 12.5002 21.3C11.3002 20.3 10.7002 19 10.7002 17.5C10.7002 15.7 11.5002 14.3 13.0002 13.2C11.9002 12.3 11.3003 11.1 11.3003 9.70001C11.3003 8.30001 11.8003 7.19999 12.9003 6.29999C13.9003 5.39999 15.1002 5 16.5002 5C17.9002 5 19.1002 5.39999 20.1002 6.29999C21.2002 7.19999 21.7002 8.40001 21.7002 9.70001C21.7002 11.1 21.1002 12.3 20.0002 13.2C21.6002 14.3 22.3003 15.7 22.3003 17.5C22.3003 19 21.7002 20.3 20.6002 21.3C19.4002 22.3 18.1002 22.8 16.5002 22.8ZM16.5002 14.4C15.6002 14.4 14.8002 14.7 14.1002 15.2C13.3002 15.8 13.0002 16.5 13.0002 17.4C13.0002 18.3 13.4002 19 14.1002 19.6C14.8002 20.1 15.6002 20.4 16.5002 20.4C17.4002 20.4 18.2003 20.1 18.9003 19.6C19.7003 19 20.0002 18.3 20.0002 17.4C20.0002 16.5 19.6003 15.8 18.9003 15.2C18.2003 14.7 17.4002 14.4 16.5002 14.4ZM16.5002 7.20001C15.8002 7.20001 15.1002 7.39996 14.5002 7.89996C13.9002 8.39996 13.6002 9.00001 13.6002 9.70001C13.6002 10.4 13.9002 11 14.5002 11.5C15.1002 11.9 15.7002 12.2 16.5002 12.2C17.2002 12.2 17.9002 12 18.5002 11.5C19.1002 11 19.4003 10.4 19.4003 9.70001C19.4003 9.00001 19.1002 8.39996 18.5002 7.89996C17.9002 7.39996 17.2002 7.20001 16.5002 7.20001Z" fill="#E30B13"/>
<path d="M162.2 225.5C163.8 225.5 165.1 226 166.2 227C167.4 228 168 229.3 168 230.8C168 232.6 167.2 234 165.7 235.1C166.8 236 167.4 237.2 167.4 238.6C167.4 240 166.9 241.1 165.8 242C164.8 242.9 163.6 243.3 162.2 243.3C160.8 243.3 159.6 242.9 158.6 242C157.5 241.1 157 239.9 157 238.6C157 237.2 157.6 236 158.7 235.1C157.1 234 156.4 232.6 156.4 230.8C156.4 229.3 157 228 158.1 227C159.3 226 160.6 225.5 162.2 225.5ZM162.2 233.9C163.1 233.9 163.9 233.6 164.6 233.1C165.4 232.5 165.7 231.8 165.7 230.9C165.7 230 165.3 229.3 164.6 228.7C163.9 228.2 163.1 227.9 162.2 227.9C161.3 227.9 160.5 228.2 159.8 228.7C159 229.3 158.7 230 158.7 230.9C158.7 231.8 159.1 232.5 159.8 233.1C160.5 233.7 161.3 233.9 162.2 233.9ZM162.2 241.1C162.9 241.1 163.6 240.9 164.2 240.4C164.8 239.9 165.1 239.3 165.1 238.6C165.1 237.9 164.8 237.3 164.2 236.8C163.6 236.4 163 236.1 162.2 236.1C161.5 236.1 160.8 236.3 160.2 236.8C159.6 237.3 159.3 237.9 159.3 238.6C159.3 239.3 159.6 239.9 160.2 240.4C160.8 240.9 161.4 241.1 162.2 241.1Z" fill="#E30B13"/>
<path d="M9.6001 34.8L16.6001 43.7L23.6001 34.8L16.6001 26.1L9.6001 34.8Z" fill="#E30B13"/>
<path d="M155.7 212.1L162.7 221L169.8 212.1L162.8 203.4L155.7 212.1Z" fill="#E30B13"/>
<path d="M33.7998 35.5L48.1997 53.7L62.7998 35.5L48.2998 17.6L33.7998 35.5Z" fill="#E30B13"/>
<path d="M33.7998 216.1L48.1997 234.2L62.7998 216.1L48.2998 198.2L33.7998 216.1Z" fill="#E30B13"/>
<path d="M117.4 36.1L131.8 54.2L146.3 36.1L131.9 18.2L117.4 36.1Z" fill="#E30B13"/>
<path d="M117.4 216.7L131.8 234.8L146.3 216.7L131.9 198.8L117.4 216.7Z" fill="#E30B13"/>
<path d="M33.5 126.6L47.8 144.7L62.4 126.6L47.9 108.7L33.5 126.6Z" fill="#E30B13"/>
<path d="M117.1 127.1L131.4 145.3L146 127.1L131.5 109.2L117.1 127.1Z" fill="#E30B13"/>
<path d="M75.5 80.2L89.8 98.3L104.4 80.2L89.9 62.3L75.5 80.2Z" fill="#E30B13"/>
<path d="M75.5 175.3L89.8 193.5L104.4 175.3L89.9 157.4L75.5 175.3Z" fill="#E30B13"/>
</svg>
