<svg width="180" height="254" viewBox="0 0 180 254" fill="none" xmlns="http://www.w3.org/2000/svg">
<path d="M179.2 231.9C179.2 243.7 172.4 253.3 164 253.3H15.7C7.29995 253.3 0.5 243.7 0.5 231.9V22.7C0.5 10.9 7.29995 1.30005 15.7 1.30005H164C172.4 1.30005 179.2 10.9 179.2 22.7V231.9Z" fill="white" stroke="#1D1D1B" stroke-miterlimit="10"/>
<path d="M15.0997 24.9001C13.4997 24.9001 12.1997 24.4001 11.0997 23.4001C9.89973 22.4001 9.2998 21.1 9.2998 19.6C9.2998 17.8 10.0997 16.4 11.5997 15.3C10.4997 14.4 9.89978 13.2 9.89978 11.8C9.89978 10.4 10.3998 9.30006 11.4998 8.40005C12.4998 7.50005 13.6997 7.10004 15.0997 7.10004C16.4997 7.10004 17.6997 7.50005 18.6997 8.40005C19.7997 9.30006 20.2998 10.5 20.2998 11.8C20.2998 13.2 19.6997 14.4 18.5997 15.3C20.1997 16.4 20.8998 17.8 20.8998 19.6C20.8998 21.1 20.2997 22.4001 19.1997 23.4001C17.9997 24.4001 16.6997 24.9001 15.0997 24.9001ZM15.0997 16.5001C14.1997 16.5001 13.3997 16.8 12.6997 17.3C11.8997 17.9 11.5997 18.6001 11.5997 19.5001C11.5997 20.4001 11.9997 21.1 12.6997 21.7C13.3997 22.2 14.1997 22.5001 15.0997 22.5001C15.9997 22.5001 16.7998 22.2 17.4998 21.7C18.2998 21.1 18.5997 20.4001 18.5997 19.5001C18.5997 18.6001 18.1998 17.9 17.4998 17.3C16.7998 16.8 15.9997 16.5001 15.0997 16.5001ZM15.0997 9.30005C14.3997 9.30005 13.6997 9.50006 13.0997 10.0001C12.4997 10.5001 12.1997 11.1 12.1997 11.8C12.1997 12.5 12.4997 13.1 13.0997 13.6C13.6997 14 14.2997 14.3 15.0997 14.3C15.7997 14.3 16.4997 14.1 17.0997 13.6C17.6997 13.1 17.9998 12.5 17.9998 11.8C17.9998 11.1 17.6997 10.5001 17.0997 10.0001C16.4997 9.50006 15.7997 9.30005 15.0997 9.30005Z" fill="#13110C"/>
<path d="M159.9 228.6C161.5 228.6 162.8 229.1 163.9 230.1C165.1 231.1 165.7 232.4 165.7 233.9C165.7 235.7 164.9 237.1 163.4 238.2C164.5 239.1 165.1 240.3 165.1 241.7C165.1 243.1 164.6 244.2 163.5 245.1C162.5 246 161.3 246.4 159.9 246.4C158.5 246.4 157.3 246 156.3 245.1C155.2 244.2 154.7 243 154.7 241.7C154.7 240.3 155.3 239.1 156.4 238.2C154.8 237.1 154.1 235.7 154.1 233.9C154.1 232.4 154.7 231.1 155.8 230.1C157 229.1 158.3 228.6 159.9 228.6ZM159.9 237C160.8 237 161.6 236.7 162.3 236.2C163.1 235.6 163.4 234.9 163.4 234C163.4 233.1 163 232.4 162.3 231.8C161.6 231.3 160.8 231 159.9 231C159 231 158.2 231.3 157.5 231.8C156.7 232.4 156.4 233.1 156.4 234C156.4 234.9 156.8 235.6 157.5 236.2C158.2 236.8 159 237 159.9 237ZM159.9 244.2C160.6 244.2 161.3 244 161.9 243.5C162.5 243 162.8 242.4 162.8 241.7C162.8 241 162.5 240.4 161.9 239.9C161.3 239.5 160.7 239.2 159.9 239.2C159.2 239.2 158.5 239.4 157.9 239.9C157.3 240.4 157 241 157 241.7C157 242.4 157.3 243 157.9 243.5C158.5 244 159.2 244.2 159.9 244.2Z" fill="#13110C"/>
<path d="M16.6998 40.9001L15.1998 42.7C13.8998 44.2 11.6998 44.5 10.1998 43.2L9.8999 43.0001C8.3999 41.7001 8.0999 39.5001 9.3999 38.0001L11.7999 35.0001L16.1998 29.6C16.2998 29.4 16.4998 29.3 16.5998 29.2C16.6999 29.3 16.8999 29.5 16.9999 29.6L23.7999 38.0001C24.9999 39.5001 24.7999 41.8001 23.2999 43.0001L22.9999 43.2C21.4999 44.4 19.1999 44.2 17.9999 42.7L16.6998 40.9001L17.4999 40.0001C17.4999 40.0001 15.8998 43.8001 13.5998 46.0001H19.4999C19.5999 46.0001 16.6998 43.0001 16.6998 40.9001Z" fill="#13110C"/>
<path d="M16.6998 40.9001L15.1998 42.7C13.8998 44.2 11.6998 44.5 10.1998 43.2L9.8999 43.0001C8.3999 41.7001 8.0999 39.5001 9.3999 38.0001L11.7999 35.0001L16.1998 29.6C16.2998 29.4 16.4998 29.3 16.5998 29.2C16.6998 29.3 16.8999 29.5 16.9999 29.6L23.7999 38.0001C24.9999 39.5001 24.7999 41.8001 23.2999 43.0001L22.9999 43.2C21.4999 44.4 19.1999 44.2 17.9999 42.7L16.6998 40.9001ZM16.6998 40.9001L17.4999 40.0001C17.4999 40.0001 15.8998 43.8001 13.5998 46.0001H19.4999C19.5999 46.0001 16.6998 43.0001 16.6998 40.9001Z" stroke="#13110C" stroke-miterlimit="10"/>
<path d="M161.8 213.7L163.3 211.9C164.6 210.4 166.8 210.1 168.3 211.4L168.6 211.6C170.1 212.9 170.4 215.1 169.1 216.6L166.7 219.6L162.3 225C162.2 225.2 162 225.3 161.9 225.4C161.8 225.3 161.6 225.1 161.5 225L154.7 216.6C153.5 215.1 153.7 212.8 155.2 211.6L155.5 211.4C157 210.2 159.3 210.4 160.5 211.9L161.8 213.7L161 214.6C161 214.6 162.6 210.8 164.9 208.6H159C159 208.6 161.9 211.6 161.8 213.7Z" fill="#13110C"/>
<path d="M161.8 213.7L163.3 211.9C164.6 210.4 166.8 210.1 168.3 211.4L168.6 211.6C170.1 212.9 170.4 215.1 169.1 216.6L166.7 219.6L162.3 225C162.2 225.2 162 225.3 161.9 225.4C161.8 225.3 161.6 225.1 161.5 225L154.7 216.6C153.5 215.1 153.7 212.8 155.2 211.6L155.5 211.4C157 210.2 159.3 210.4 160.5 211.9L161.8 213.7ZM161.8 213.7L161 214.6C161 214.6 162.6 210.8 164.9 208.6H159C159 208.6 161.9 211.6 161.8 213.7Z" stroke="#13110C" stroke-miterlimit="10"/>
<path d="M50.0998 207.9L53.0998 204.3C55.5998 201.2 60.1999 200.8 63.2999 203.3L63.7999 203.7C66.8999 206.2 67.2999 210.8 64.7999 213.9L59.8999 219.9L50.8999 230.9C50.5999 231.2 50.3998 231.5 49.9998 231.8C49.6998 231.5 49.4998 231.3 49.1998 231L35.3999 214C32.8999 210.9 33.3998 206.3 36.4998 203.8L36.9998 203.4C40.0998 200.9 44.6998 201.4 47.1998 204.5L50.0998 207.9L48.4998 209.8C48.4998 209.8 51.6999 202.2 56.3999 197.7H44.3999C44.3999 197.7 50.2998 203.7 50.0998 207.9Z" fill="#13110C"/>
<path d="M50.0998 207.9L53.0998 204.3C55.5998 201.2 60.1999 200.8 63.2999 203.3L63.7999 203.7C66.8999 206.2 67.2999 210.8 64.7999 213.9L59.8999 219.9L50.8999 230.9C50.5999 231.2 50.3998 231.5 49.9998 231.8C49.6998 231.5 49.4998 231.3 49.1998 231L35.3999 214C32.8999 210.9 33.3998 206.3 36.4998 203.8L36.9998 203.4C40.0998 200.9 44.6998 201.4 47.1998 204.5L50.0998 207.9ZM50.0998 207.9L48.4998 209.8C48.4998 209.8 51.6999 202.2 56.3999 197.7H44.3999C44.3999 197.7 50.2998 203.7 50.0998 207.9Z" stroke="#13110C" stroke-miterlimit="10"/>
<path d="M49.6999 46.6L46.6999 50.2C44.1999 53.3 39.6 53.7 36.5 51.2L36 50.8C32.9 48.3 32.5 43.7 35 40.6L39.9 34.6L48.9 23.7C49.2 23.4 49.4 23.1 49.8 22.8C50.1 23.1 50.2999 23.3 50.5999 23.6L64.4 40.6C66.9 43.7 66.4 48.3 63.3 50.8L62.8 51.2C59.7 53.7 55.0999 53.2 52.5999 50.1L49.6999 46.6L51.3 44.7C51.3 44.7 48.1 52.3 43.4 56.8H55.4C55.4 56.8 49.5999 50.8 49.6999 46.6Z" fill="#13110C"/>
<path d="M49.6999 46.6L46.6999 50.2C44.1999 53.3 39.6 53.7 36.5 51.2L36 50.8C32.9 48.3 32.5 43.7 35 40.6L39.9 34.6L48.9 23.7C49.2 23.4 49.4 23.1 49.8 22.8C50.1 23.1 50.2999 23.3 50.5999 23.6L64.4 40.6C66.9 43.7 66.4 48.3 63.3 50.8L62.8 51.2C59.7 53.7 55.0999 53.2 52.5999 50.1L49.6999 46.6ZM49.6999 46.6L51.3 44.7C51.3 44.7 48.1 52.3 43.4 56.8H55.4C55.4 56.8 49.5999 50.8 49.6999 46.6Z" stroke="#13110C" stroke-miterlimit="10"/>
<path d="M127.7 207.8L130.7 204.2C133.2 201.1 137.8 200.7 140.9 203.2L141.4 203.6C144.5 206.1 144.9 210.7 142.4 213.8L137.5 219.8L128.5 230.8C128.2 231.1 127.9 231.4 127.6 231.7C127.3 231.4 127 231.2 126.8 230.9L113 213.9C110.5 210.8 111 206.2 114.1 203.7L114.6 203.3C117.7 200.8 122.3 201.3 124.8 204.4L127.7 207.8L126.1 209.7C126.1 209.7 129.3 202.1 134 197.6H122C121.9 197.5 127.8 203.5 127.7 207.8Z" fill="#13110C"/>
<path d="M127.7 207.8L130.7 204.2C133.2 201.1 137.8 200.7 140.9 203.2L141.4 203.6C144.5 206.1 144.9 210.7 142.4 213.8L137.5 219.8L128.5 230.8C128.2 231.1 127.9 231.4 127.6 231.7C127.3 231.4 127 231.2 126.8 230.9L113 213.9C110.5 210.8 111 206.2 114.1 203.7L114.6 203.3C117.7 200.8 122.3 201.3 124.8 204.4L127.7 207.8ZM127.7 207.8L126.1 209.7C126.1 209.7 129.3 202.1 134 197.6H122C121.9 197.5 127.8 203.5 127.7 207.8Z" stroke="#13110C" stroke-miterlimit="10"/>
<path d="M127.2 46.4001L124.2 50.0001C121.7 53.1001 117.1 53.5001 114 51.0001L113.5 50.6C110.4 48.1 110 43.5001 112.5 40.4001L117.4 34.4001L126.4 23.5001C126.7 23.2001 127 22.9 127.3 22.6C127.6 22.9 127.9 23.1001 128.1 23.4001L141.9 40.4001C144.4 43.5001 143.9 48.1 140.8 50.6L140.3 51.0001C137.2 53.5001 132.6 53.0001 130.1 49.9001L127.2 46.4001L128.8 44.5001C128.8 44.5001 125.6 52.1 120.9 56.6H132.9C133 56.6 127.1 50.6001 127.2 46.4001Z" fill="#13110C"/>
<path d="M127.2 46.4001L124.2 50.0001C121.7 53.1001 117.1 53.5001 114 51.0001L113.5 50.6C110.4 48.1 110 43.5001 112.5 40.4001L117.4 34.4001L126.4 23.5001C126.7 23.2001 127 22.9 127.3 22.6C127.6 22.9 127.9 23.1001 128.1 23.4001L141.9 40.4001C144.4 43.5001 143.9 48.1 140.8 50.6L140.3 51.0001C137.2 53.5001 132.6 53.0001 130.1 49.9001L127.2 46.4001ZM127.2 46.4001L128.8 44.5001C128.8 44.5001 125.6 52.1 120.9 56.6H132.9C133 56.6 127.1 50.6001 127.2 46.4001Z" stroke="#13110C" stroke-miterlimit="10"/>
<path d="M49.9002 134.6L46.9002 138.2C44.4002 141.3 39.8001 141.7 36.7001 139.2L36.2001 138.8C33.1001 136.3 32.7001 131.7 35.2001 128.6L40.1002 122.6L49.1002 111.7C49.4002 111.4 49.7002 111.1 50.0002 110.8C50.3002 111.1 50.6002 111.3 50.8002 111.6L64.6002 128.6C67.1002 131.7 66.6002 136.3 63.5002 138.8L63.0002 139.2C59.9002 141.7 55.3002 141.2 52.8002 138.1L49.9002 134.6L51.5002 132.7C51.5002 132.7 48.3002 140.3 43.6002 144.8H55.6002C55.6002 144.8 49.8002 138.9 49.9002 134.6Z" fill="#13110C"/>
<path d="M49.9002 134.6L46.9002 138.2C44.4002 141.3 39.8001 141.7 36.7001 139.2L36.2001 138.8C33.1001 136.3 32.7001 131.7 35.2001 128.6L40.1002 122.6L49.1002 111.7C49.4002 111.4 49.7002 111.1 50.0002 110.8C50.3002 111.1 50.6002 111.3 50.8002 111.6L64.6002 128.6C67.1002 131.7 66.6002 136.3 63.5002 138.8L63.0002 139.2C59.9002 141.7 55.3002 141.2 52.8002 138.1L49.9002 134.6ZM49.9002 134.6L51.5002 132.7C51.5002 132.7 48.3002 140.3 43.6002 144.8H55.6002C55.6002 144.8 49.8002 138.9 49.9002 134.6Z" stroke="#13110C" stroke-miterlimit="10"/>
<path d="M127.3 134.6L124.3 138.2C121.8 141.3 117.2 141.7 114.1 139.2L113.6 138.8C110.5 136.3 110.1 131.7 112.6 128.6L117.5 122.6L126.5 111.7C126.8 111.4 127.1 111.1 127.4 110.8C127.7 111.1 128 111.3 128.2 111.6L142 128.6C144.5 131.7 144 136.3 140.9 138.8L140.4 139.2C137.3 141.7 132.7 141.2 130.2 138.1L127.3 134.6L128.9 132.7C128.9 132.7 125.7 140.3 121 144.8H133C133.1 144.8 127.2 138.9 127.3 134.6Z" fill="#13110C"/>
<path d="M127.3 134.6L124.3 138.2C121.8 141.3 117.2 141.7 114.1 139.2L113.6 138.8C110.5 136.3 110.1 131.7 112.6 128.6L117.5 122.6L126.5 111.7C126.8 111.4 127.1 111.1 127.4 110.8C127.7 111.1 128 111.3 128.2 111.6L142 128.6C144.5 131.7 144 136.3 140.9 138.8L140.4 139.2C137.3 141.7 132.7 141.2 130.2 138.1L127.3 134.6ZM127.3 134.6L128.9 132.7C128.9 132.7 125.7 140.3 121 144.8H133C133.1 144.8 127.2 138.9 127.3 134.6Z" stroke="#13110C" stroke-miterlimit="10"/>
<path d="M88.3001 90.6L85.3001 94.2C82.8001 97.3 78.2 97.7 75.1 95.2L74.6 94.8C71.5 92.3 71.1 87.7 73.6 84.6L78.5001 78.6L87.5001 67.6C87.8001 67.3 88.1001 67 88.4001 66.7C88.7001 67 89 67.2001 89.2 67.5001L103 84.5001C105.5 87.6001 105 92.2 101.9 94.7L101.4 95.1C98.3001 97.6 93.7 97.1001 91.2 94.0001L88.3001 90.6L89.9001 88.7C89.9001 88.7 86.7001 96.3 82.0001 100.8H94.0001C94.0001 100.8 88.2001 94.8 88.3001 90.6Z" fill="#13110C"/>
<path d="M88.3001 90.6L85.3001 94.2C82.8001 97.3 78.2 97.7 75.1 95.2L74.6 94.8C71.5 92.3 71.1 87.7 73.6 84.6L78.5001 78.6L87.5001 67.6C87.8001 67.3 88.1001 67 88.4001 66.7C88.7001 67 89 67.2001 89.2 67.5001L103 84.5001C105.5 87.6001 105 92.2 101.9 94.7L101.4 95.1C98.3001 97.6 93.7 97.1001 91.2 94.0001L88.3001 90.6ZM88.3001 90.6L89.9001 88.7C89.9001 88.7 86.7001 96.3 82.0001 100.8H94.0001C94.0001 100.8 88.2001 94.8 88.3001 90.6Z" stroke="#13110C" stroke-miterlimit="10"/>
<path d="M89.9002 165.8L92.9002 162.2C95.4002 159.1 100 158.7 103.1 161.2L103.6 161.6C106.7 164.1 107.1 168.7 104.6 171.8L99.7001 177.8L90.7001 188.7C90.4001 189 90.1002 189.3 89.8002 189.6C89.5002 189.3 89.2001 189.1 89.0001 188.8L75.2001 171.8C72.7001 168.7 73.2002 164.1 76.3002 161.6L76.8002 161.2C79.9002 158.7 84.5001 159.2 87.0001 162.3L89.9002 165.8L88.3002 167.7C88.3002 167.7 91.5001 160.1 96.2001 155.6H84.2001C84.2001 155.6 90.0002 161.6 89.9002 165.8Z" fill="#13110C"/>
<path d="M89.9002 165.8L92.9002 162.2C95.4002 159.1 100 158.7 103.1 161.2L103.6 161.6C106.7 164.1 107.1 168.7 104.6 171.8L99.7001 177.8L90.7001 188.7C90.4001 189 90.1002 189.3 89.8002 189.6C89.5002 189.3 89.2001 189.1 89.0001 188.8L75.2001 171.8C72.7001 168.7 73.2002 164.1 76.3002 161.6L76.8002 161.2C79.9002 158.7 84.5001 159.2 87.0001 162.3L89.9002 165.8ZM89.9002 165.8L88.3002 167.7C88.3002 167.7 91.5001 160.1 96.2001 155.6H84.2001C84.2001 155.6 90.0002 161.6 89.9002 165.8Z" stroke="#13110C" stroke-miterlimit="10"/>
</svg>
