<svg width="180" height="254" viewBox="0 0 180 254" fill="none" xmlns="http://www.w3.org/2000/svg">
<path d="M179.3 231.3C179.3 243.1 172.5 252.7 164.1 252.7H15.8002C7.40017 252.7 0.600098 243.1 0.600098 231.3V22.2001C0.600098 10.4001 7.40017 0.800049 15.8002 0.800049H164.1C172.5 0.800049 179.3 10.4001 179.3 22.2001V231.3Z" fill="white" stroke="#1D1D1B" stroke-miterlimit="10"/>
<path d="M146.8 31.2H29.5V222.5H146.8V31.2Z" fill="white" stroke="#13110C" stroke-miterlimit="10"/>
<path d="M29.5 110.7V126.9H146.7V89.1C133.3 86 126.6 76.9 126.6 76.9L75.7 73.6L29.5 110.7L44.9 98.3L29.5 110.7Z" fill="#211C4B"/>
<path d="M29.5 110.7V126.9H146.7V89.1C133.3 86 126.6 76.9 126.6 76.9L75.7 73.6L29.5 110.7ZM29.5 110.7L44.9 98.3" stroke="#211C4B" stroke-miterlimit="10"/>
<path d="M134.5 101.2C134.5 101.2 140.6 97.3001 142.3 99.0001C142.3 99.0001 145.2 101.8 137.1 105.8" fill="white"/>
<path d="M134.5 101.2C134.5 101.2 140.6 97.3001 142.3 99.0001C142.3 99.0001 145.2 101.8 137.1 105.8" stroke="#13110C" stroke-miterlimit="10"/>
<path d="M141.2 101.5C141.1 101.8 140.7 102 140.3 101.9C139.9 101.8 139.6 101.5 139.6 101.2L139.7 100.8C139.8 100.5 140.2 100.3 140.6 100.4C141 100.5 141.3 100.8 141.3 101.1L141.2 101.5Z" stroke="#13110C" stroke-width="0.5" stroke-miterlimit="10"/>
<path d="M138.4 105.6C138.1 105.8 138 106.1 138.2 106.4C138.4 106.7 138.7 106.8 139 106.6L144.2 103.3C144.5 103.1 144.6 102.8 144.4 102.5C144.2 102.2 143.9 102.1 143.6 102.3L138.4 105.6Z" fill="white" stroke="#13110C" stroke-miterlimit="10"/>
<path d="M37.7002 126.9H40.5002H48.4003C48.4003 126.9 54.3002 116.8 55.5002 111.6C55.5002 111.6 58.1002 94.4 57.1002 88.7L48.5002 95.6001C48.4002 95.5001 48.2002 114.6 37.7002 126.9Z" fill="#FFEA24" stroke="#13110C" stroke-miterlimit="10"/>
<path d="M44.8003 123.5H42.7002V125.6H44.8003V123.5Z" fill="#211C4B" stroke="#211C4B" stroke-miterlimit="10"/>
<path d="M48.5004 119.9H46.4004V122H48.5004V119.9Z" fill="#211C4B" stroke="#211C4B" stroke-miterlimit="10"/>
<path d="M49.6 114.8H47.5V116.9H49.6V114.8Z" fill="#211C4B" stroke="#211C4B" stroke-miterlimit="10"/>
<path d="M51.7001 110.4H49.6001V112.5H51.7001V110.4Z" fill="#211C4B" stroke="#211C4B" stroke-miterlimit="10"/>
<path d="M51.7001 104.9H49.6001V107H51.7001V104.9Z" fill="#211C4B" stroke="#211C4B" stroke-miterlimit="10"/>
<path d="M53.7001 100.6H51.6001V102.7H53.7001V100.6Z" fill="#211C4B" stroke="#211C4B" stroke-miterlimit="10"/>
<path d="M52.6 95.1H50.5V97.2H52.6V95.1Z" fill="#211C4B" stroke="#211C4B" stroke-miterlimit="10"/>
<path d="M29.5004 110.7L44.9004 98.3C46.4004 110.6 37.1003 122 33.7003 125.6C33.0003 126.4 32.5004 126.8 32.5004 126.8H29.4004V110.7H29.5004Z" fill="#E30613" stroke="#13110C" stroke-miterlimit="10"/>
<path d="M49.5003 94.6001C49.5003 94.6001 47.1002 84.7001 41.7002 84.4001C41.7002 84.4001 33.0003 86.7001 36.9003 88.6001C36.9003 88.6001 41.8003 89.6001 42.0003 93.1001C42.0003 93.1001 41.2003 97.1 41.8003 98.7001C42.4003 100.3 42.3003 100.4 42.3003 100.4" fill="#FCD48E"/>
<path d="M49.5003 94.6001C49.5003 94.6001 47.1002 84.7001 41.7002 84.4001C41.7002 84.4001 33.0003 86.7001 36.9003 88.6001C36.9003 88.6001 41.8003 89.6001 42.0003 93.1001C42.0003 93.1001 41.2003 97.1001 41.8003 98.7001C42.4003 100.3 42.3003 100.4 42.3003 100.4" stroke="#13110C" stroke-width="0.6" stroke-miterlimit="10"/>
<path d="M34.4002 98.5001C34.4002 98.5001 39.6001 102 40.7001 101.7C41.8001 101.4 43.6001 99.4001 43.6001 99.4001C43.6001 99.4001 43.0001 88.9001 41.1001 88.4001C39.2001 87.8001 36.2001 88.8001 35.5001 90.4001C34.8001 92.0001 33.3001 96.3001 33.5001 96.8001C33.7001 97.2001 34.4002 98.5001 34.4002 98.5001Z" fill="#1E1A2B"/>
<path d="M82.4003 113.7C82.4003 113.7 87.7003 117.8 96.3003 113.7C96.3003 113.7 118.8 82.3001 119.1 81.5001C119.4 80.7001 118.9 73.5001 112 80.1001C105.1 86.7001 80.6003 88.2001 78.4003 85.6001C76.1003 82.9001 72.5002 78.7001 72.1002 79.0001C71.7002 79.3001 69.5002 78.7001 69.5002 78.7001L65.7002 81.8001L68.8003 86.7001C68.8003 86.7001 78.0002 101.7 79.7002 107C81.4002 112.4 82.4003 113.7 82.4003 113.7Z" fill="#FFEA24" stroke="#13110C" stroke-miterlimit="10"/>
<path d="M128 83C128 83 110 96.9 102.7 116L93.5 114.9C93.5 114.9 99.4 96.6 120.2 77.4L121.4 76.7L128 83Z" fill="white" stroke="#13110C" stroke-miterlimit="10"/>
<path d="M75.5002 73.8001L69.3003 78.7001C69.3003 78.8001 69.4003 78.9001 69.4003 78.9001C69.7003 80.1001 71.6002 84.8001 83.6002 85.6001C83.6002 85.6001 102.1 86.5001 109.5 84.8001C109.5 84.8001 115 81.2001 115.8 79.2001C115.8 79.2001 101.6 57.9001 88.2002 67.9001C82.7002 72.0001 78.5002 73.8001 75.5002 73.8001Z" fill="#FFEA24" stroke="#13110C" stroke-miterlimit="10"/>
<path d="M73.3004 83.2C73.3004 83.2 84.0003 99.3001 87.9003 115.4C87.9003 115.4 103.4 88.7 109.2 85C109.2 85 105.5 83.4 101.1 83.7C96.7005 84.1 76.4004 82.1 76.4004 82.1C76.4004 82.1 73.5004 82 73.4004 82.1C73.2004 82.3 73.3004 83.2 73.3004 83.2Z" fill="#E30613" stroke="#13110C" stroke-miterlimit="10"/>
<path d="M87.4002 74.1001H107.6C107.6 74.1001 100.3 59.7001 92.4002 65.1001C84.6002 70.4001 85.7003 71.3001 86.5003 72.3001C87.4003 73.2001 87.4002 74.1001 87.4002 74.1001Z" fill="#BBB32E" stroke="#13110C" stroke-miterlimit="10"/>
<path d="M72.8003 60.7001C72.8003 60.7001 73.2003 66.4001 75.5003 67.7001C75.5003 67.7001 76.0003 72.7001 75.8003 73.6001C75.8003 73.6001 82.0002 79.3001 88.4002 73.6001C94.8002 67.9001 96.5003 66.0001 96.5003 66.0001L96.8003 66.3001C93.8003 63.3001 93.7002 59.0001 93.7002 59.0001C93.1002 51.8001 88.7002 42.5001 88.7002 42.5001C85.5002 41.8001 73.6002 43.5001 73.6002 43.5001V50.9001C73.6002 50.9001 70.8003 55.9001 70.5003 56.8001C70.2003 57.7001 70.0002 62.9001 73.6002 60.1001C77.1002 57.3001 76.5003 58.8001 76.8003 59.2001" fill="#FED68A"/>
<path d="M72.8003 60.7001C72.8003 60.7001 73.2003 66.4001 75.5003 67.7001C75.5003 67.7001 76.0003 72.7001 75.8003 73.6001C75.8003 73.6001 82.0002 79.3001 88.4002 73.6001C94.8002 67.9001 96.5003 66.0001 96.5003 66.0001L96.8003 66.3001C93.8003 63.3001 93.7002 59.0001 93.7002 59.0001C93.1002 51.8001 88.7002 42.5001 88.7002 42.5001C85.5002 41.8001 73.6002 43.5001 73.6002 43.5001V50.9001C73.6002 50.9001 70.8003 55.9001 70.5003 56.8001C70.2003 57.7001 70.0002 62.9001 73.6002 60.1001C77.1002 57.3001 76.5003 58.8001 76.8003 59.2001" stroke="#13110C" stroke-miterlimit="10"/>
<path d="M126.4 31.2H64.7002L73.6002 43.6C73.6002 43.6 101.9 40.4 116.8 44.4L126.4 31.2Z" fill="#E31518" stroke="#13110C" stroke-miterlimit="10"/>
<path d="M116.8 44.4L118.5 42C99.1004 36.5 71.9004 41.2 71.9004 41.2L73.6003 43.5C73.6003 43.6 102.7 40.4 116.8 44.4Z" fill="#13110C" stroke="#13110C" stroke-miterlimit="10"/>
<path d="M72.3003 31.2L75.4003 35.6H83.1002L83.4003 31.2H85.5002L85.0002 37.2L74.0002 37.8L69.8003 31.2H72.3003Z" fill="white"/>
<path d="M119.1 31.8L116.1 36.1001L108.3 36.2001L108 31.8H105.9L106.4 37.8L117.5 38.4L121.6 31.8H119.1Z" fill="white"/>
<path d="M89.3003 31.2V36.3H101.7V31.2H99.7002V35.2H91.9001V31.2H89.3003Z" fill="white"/>
<path d="M75 65.1C75 65.1 77.9 66.1 78.1 65.8" stroke="#13110C" stroke-miterlimit="10"/>
<path d="M77.3003 62.6001C77.3003 62.6001 79.5003 61.9001 81.8003 64.4001C81.8003 64.4001 84.7002 64.1001 84.2002 62.4001C84.2002 62.4001 83.6002 59.9001 82.7002 62.2001" stroke="#13110C" stroke-miterlimit="10"/>
<path d="M76.6001 47.0001C76.6001 47.0001 81.5002 45.8001 86.6002 47.9001" stroke="#13110C" stroke-miterlimit="10"/>
<path d="M84.3004 50.5001C80.9004 48.4001 77.7003 49.3001 77.7003 49.3001C75.6003 51.0001 78.0003 52.2001 78.0003 52.2001C78.0003 52.2001 81.8004 52.4001 84.3004 50.5001Z" fill="#13110C"/>
<path d="M123.1 68.2001C123.1 68.2001 120.3 66.1001 119.7 58.4001C119.7 58.4001 118.5 46.1001 117.8 45.6001L116.9 44.5001C105.8 41.1001 88.7002 42.4001 88.7002 42.4001V42.6001C88.7002 42.6001 93.1002 51.9001 93.7002 59.1001C93.7002 59.1001 93.9003 63.4001 96.8003 66.4001L96.5002 66.1001L96.8003 66.4001C96.8003 66.4001 102.2 72.3001 107.7 74.1001C107.7 74.1001 116.8 81.1001 123.4 78.4001C123.4 78.4001 130.7 75.9001 130.3 72.7001C130.3 72.7001 129.3 65.9001 123.3 68.8001C123.3 68.8001 118.4 72.8001 124.6 75.8001C124.6 75.8001 129.4 75.2001 128 71.3001C128 71.3001 125 68.5001 123.8 71.6001C123.8 71.6001 122.9 73.8001 125 74.0001C125 74.0001 127.4 73.7001 125.8 71.8001" fill="#E2C80B"/>
<path d="M123.1 68.2001C123.1 68.2001 120.3 66.1001 119.7 58.4001C119.7 58.4001 118.5 46.1001 117.8 45.6001L116.9 44.5001C105.8 41.1001 88.7002 42.4001 88.7002 42.4001V42.6001C88.7002 42.6001 93.1002 51.9001 93.7002 59.1001C93.7002 59.1001 93.9003 63.4001 96.8003 66.4001L96.5002 66.1001L96.8003 66.4001C96.8003 66.4001 102.2 72.3001 107.7 74.1001C107.7 74.1001 116.8 81.1001 123.4 78.4001C123.4 78.4001 130.7 75.9001 130.3 72.7001C130.3 72.7001 129.3 65.9001 123.3 68.8001C123.3 68.8001 118.4 72.8001 124.6 75.8001C124.6 75.8001 129.4 75.2001 128 71.3001C128 71.3001 125 68.5001 123.8 71.6001C123.8 71.6001 122.9 73.8001 125 74.0001C125 74.0001 127.4 73.7001 125.8 71.8001" stroke="#13110C" stroke-miterlimit="10"/>
<path d="M91.1001 43.1C91.1001 43.1 95.5 56.2 95.5 60.5C95.5 64.8 102.3 68.8 103.3 69.6C104.3 70.4 116.5 77.9 120.8 76.7" stroke="#13110C" stroke-width="0.5" stroke-miterlimit="10"/>
<path d="M93.5 43.1C93.5 43.1 97.8999 56.2 97.8999 60.5C97.8999 64.8 104.7 68.8 105.7 69.6C106.7 70.4 118.9 77.9 123.2 76.7" stroke="#13110C" stroke-width="0.5" stroke-miterlimit="10"/>
<path d="M103.4 69.6C104.4 70.4 116.6 77.9 120.9 76.7" stroke="#13110C" stroke-width="0.5" stroke-miterlimit="10"/>
<path d="M95.6001 43.1C95.6001 43.1 100 56.2 100 60.5C100 64.8 106.8 68.8 107.8 69.6C108.8 70.4 121 77.9 125.3 76.7" stroke="#13110C" stroke-width="0.5" stroke-miterlimit="10"/>
<path d="M97.8003 43.1C97.8003 43.1 102.2 56.2 102.2 60.5C102.2 64.8 109 68.8 110 69.6C110.8 70.2 118.8 75.2 124.1 76.5" stroke="#13110C" stroke-width="0.5" stroke-miterlimit="10"/>
<path d="M100 43.1C100 43.1 104.4 56.2 104.4 60.5C104.4 64.8 111.2 68.8 112.2 69.6C112.8 70 117.1 72.8 121.5 74.7" stroke="#13110C" stroke-width="0.5" stroke-miterlimit="10"/>
<path d="M102.4 43.7C102.4 43.7 106.8 56.8 106.8 61.1C106.8 65.4 113.6 69.4 114.6 70.2C115.1 70.5 118 72.4 121.4 74.1" stroke="#13110C" stroke-width="0.5" stroke-miterlimit="10"/>
<path d="M104.9 43.7C104.9 43.7 109.3 56.8 109.3 61.1C109.3 65.4 116.1 69.4 117.1 70.2C117.4 70.5 119.2 71.6 121.4 72.8" stroke="#13110C" stroke-width="0.5" stroke-miterlimit="10"/>
<path d="M107.5 43.7C107.5 43.7 111.9 56.8 111.9 61.1C111.9 65.4 118.7 69.4 119.7 70.2C119.9 70.3 120.5 70.8 121.5 71.3" stroke="#13110C" stroke-width="0.5" stroke-miterlimit="10"/>
<path d="M110.4 44.2C110.4 44.2 114.8 57.3 114.8 61.6C114.8 65.3 119.9 68.8 121.9 70.2" stroke="#13110C" stroke-width="0.5" stroke-miterlimit="10"/>
<path d="M113.8 45.8C113.8 45.8 118.2 58.9001 118.2 63.2001C118.2 65.6001 120.3 67.9001 122.4 69.6001" stroke="#13110C" stroke-width="0.5" stroke-miterlimit="10"/>
<path d="M91 73.1001L96.3 68.0001" stroke="#13110C" stroke-width="0.5" stroke-miterlimit="10"/>
<path d="M93.1001 73.1001L97.5 68.8" stroke="#13110C" stroke-width="0.5" stroke-miterlimit="10"/>
<path d="M95.3999 73.1L98.8999 69.6" stroke="#13110C" stroke-width="0.5" stroke-miterlimit="10"/>
<path d="M97.3999 73.3001L100.2 70.5001" stroke="#13110C" stroke-width="0.5" stroke-miterlimit="10"/>
<path d="M99.6001 73.4001L101.6 71.4001" stroke="#13110C" stroke-width="0.5" stroke-miterlimit="10"/>
<path d="M92.8 78.7H90V81.5H92.8V78.7Z" fill="#211C4B" stroke="#211C4B" stroke-miterlimit="10"/>
<path d="M86.4 78.4001H83.6001V81.2001H86.4V78.4001Z" fill="#211C4B" stroke="#211C4B" stroke-miterlimit="10"/>
<path d="M80.1002 77.0001H77.3003V79.8001H80.1002V77.0001Z" fill="#211C4B" stroke="#211C4B" stroke-miterlimit="10"/>
<path d="M98.6003 78.7H95.8003V81.5H98.6003V78.7Z" fill="#211C4B" stroke="#211C4B" stroke-miterlimit="10"/>
<path d="M104.2 78.4001H101.4V81.2001H104.2V78.4001Z" fill="#211C4B" stroke="#211C4B" stroke-miterlimit="10"/>
<path d="M110.3 77.3H107.5V80.1001H110.3V77.3Z" fill="#211C4B" stroke="#211C4B" stroke-miterlimit="10"/>
<path d="M101 89.6001C98.4004 90.2001 89.1005 106.9 89.1005 106.9C88.1005 102.2 80.4004 89.2 80.4004 89.2C80.4004 89.2 97.2004 90.6001 101 89.6001Z" fill="#FFFCFB"/>
<path d="M96.7 92C95.2 92.4 89.7 102.2 89.7 102.2C89.1 99.5 84.6001 91.8 84.6001 91.8C84.6001 91.8 94.5 92.6 96.7 92Z" fill="#13110C" stroke="#13110C" stroke-miterlimit="10"/>
<path d="M93.1003 94C92.4003 94.2 90.0002 98.5 90.0002 98.5C89.7002 97.3 87.8003 93.9001 87.8003 93.9001C87.8003 93.9001 92.1003 94.3 93.1003 94Z" fill="#FFFCFB"/>
<path d="M139.9 44.2001L140 86.7001C140 86.7001 144.3 88.7 146.7 89V37.8L139.9 44.2001Z" fill="#B91818" stroke="#13110C" stroke-miterlimit="10"/>
<path d="M131.8 39.8C126.3 43.4 124.6 54.5 124.6 54.5C124 61.9 131.8 70.2001 131.8 70.2001C131.8 70.2001 137.2 49.9 135.2 48.5C133.1 47.3 131.8 39.8 131.8 39.8Z" fill="#8B92C8"/>
<path d="M138.2 59.3001C132.5 69.0001 132 67.8001 132 67.8001C132 67.8001 131.5 60.7001 132 59.9001C132 59.9001 125.9 56.7001 125.3 55.1001C125.3 55.1001 129.5 51.6001 132 51.0001C132 51.0001 131.1 43.2001 132.4 41.4001C132.4 41.4001 135.4 49.4001 138.7 50.3001L138.2 59.3001Z" fill="#FBE900" stroke="#13110C" stroke-miterlimit="10"/>
<path d="M138.1 60.5001L138.2 86.6001C138.2 86.6001 143.6 88.7001 146.7 89.0001V35.0001L138 41.7001V49.6001C138 49.6001 133.6 47.5001 132.4 39.3001C132.4 39.3001 131 46.7001 135.8 52.3001C135.8 52.3001 130.5 52.6001 128.5 54.8001C128.5 54.8001 131.2 57.7001 135.7 58.1001C135.7 58.1001 132 62.6001 131.6 70.1001C131.8 70.2001 135.9 62.0001 138.1 60.5001Z" fill="#FBE900" stroke="#13110C" stroke-miterlimit="10"/>
<path d="M139.9 44.2001L140 86.7001C140 86.7001 144.3 88.7 146.7 89V37.8L139.9 44.2001Z" fill="#B91818" stroke="#13110C" stroke-miterlimit="10"/>
<path d="M142 48.2001L142.1 86.9001C142.1 86.9001 145.1 88.7001 146.8 89.0001V42.4001L142 48.2001Z" fill="#E30613" stroke="#13110C" stroke-miterlimit="10"/>
<path d="M36.8999 84.4C37.4999 85.2 37.3998 86.3 36.6998 86.8C35.9998 87.3 34.9999 87 34.3999 86.2C33.7999 85.4 33.8998 84.3 34.5998 83.8C35.1998 83.2 36.2999 83.5 36.8999 84.4Z" fill="#FCD48E" stroke="#13110C" stroke-width="0.6" stroke-miterlimit="10"/>
<path d="M36.8999 88.6001C38.7999 90.3001 39.8999 92.2001 39.2999 92.9001C38.6999 93.5001 36.6999 92.7001 34.7999 90.9001L34.6998 90.8001C32.7998 89.1001 31.6999 87.2001 32.2999 86.5001C32.8999 85.9001 34.8999 86.8001 36.8999 88.6001Z" fill="#FCD48E" stroke="#13110C" stroke-width="0.6" stroke-miterlimit="10"/>
<path d="M35.8999 91.7C37.7999 93.4 38.8999 95.3 38.2999 96C37.6999 96.6 35.6999 95.8 33.7999 94L33.6998 93.9C31.7998 92.2 30.6999 90.3 31.2999 89.6C31.8999 89 33.8999 89.9 35.8999 91.7Z" fill="#FCD48E" stroke="#13110C" stroke-width="0.6" stroke-miterlimit="10"/>
<path d="M34.6001 94.4C36.5001 96.1 37.6001 98 37.0001 98.7C36.4001 99.3 34.4001 98.5 32.5001 96.7L32.4001 96.6C30.5001 94.9 29.4001 93 30.0001 92.3C30.6001 91.7 32.6001 92.6 34.6001 94.4Z" fill="#FCD48E" stroke="#13110C" stroke-width="0.6" stroke-miterlimit="10"/>
<path d="M122.7 81.8C122.7 81.8 109.6 92.8 99.6001 112.8" stroke="#13110C" stroke-miterlimit="10"/>
<path d="M61 85.4C61 85.4 73.6 98.7001 77.3 115.4H84.6001C84.6001 115.4 81.9 99.6 67.6 81.5L66.7 80.8L61 85.4Z" fill="white" stroke="#13110C" stroke-miterlimit="10"/>
<path d="M65.3003 84.9001C65.3003 84.9001 74.4002 95.4001 80.1002 113.1" stroke="#13110C" stroke-miterlimit="10"/>
<path d="M59.6 74.8C56.3 77.4 50.7 76.1001 50.7 76.1001C43.2 73.6001 38.6 78.2001 38.6 78.2001C32.9 83.1 39.2 84.8 39.2 84.8C39.2 84.8 42.6001 85.6 44.8001 83.4C44.8001 83.4 52.5 84.5 54.7 83.4C54.6 83.5 60.6 81.7 59.6 74.8Z" fill="#FFEA24" stroke="#13110C" stroke-miterlimit="10"/>
<path d="M38.5 83.1C38.5 83.1 42.6 78.2 49.5 79.9C49.5 79.9 53.8 80.8 56.4 78.6" stroke="#13110C" stroke-miterlimit="10"/>
<path d="M29.5 117.3C29.5 117.3 36.3 108.8 35.6 105.8" stroke="#13110C" stroke-miterlimit="10"/>
<path d="M29.5 121.6C29.5 121.6 38.5 114.2 38.5 103.4" stroke="#13110C" stroke-miterlimit="10"/>
<path d="M33.6001 119.9L33.8002 125.6C33.8002 125.6 37.6001 120.9 38.1001 120.2L33.6001 119.9Z" fill="#FFEA24" stroke="#13110C" stroke-miterlimit="10"/>
<path d="M37.2002 113.6L39.0002 118.7C39.0002 118.7 41.9002 113.6 42.1002 113L37.2002 113.6Z" fill="#FFEA24" stroke="#13110C" stroke-miterlimit="10"/>
<path d="M39.5 107.4L42.6 112C42.6 112 44.5 107.5 44.5 105.7L39.5 107.4Z" fill="#FFEA24" stroke="#13110C" stroke-miterlimit="10"/>
<path d="M41.1001 101.4L44.7001 105C44.7001 105 45.6001 98.7 44.9001 98.3L41.1001 101.4Z" fill="#FFEA24" stroke="#13110C" stroke-miterlimit="10"/>
<path d="M45.0002 98.3001L48.5002 95.5001C46.7002 119 37.8003 126.9 37.8003 126.9H32.7002C32.7002 126.9 39.6002 120.1 42.5002 112.6C42.4002 112.6 46.7002 102 45.0002 98.3001Z" fill="#211C4B" stroke="#14120D" stroke-miterlimit="10"/>
<path d="M51.5002 93L53.5002 96.2L48.3003 101.6L53.5002 107L46.2002 109.9L51.1002 117.3L43.2002 118.4L45.8003 126.9H47.0002L45.2002 119.9L53.5002 118.1L48.4003 110.7L56.1002 107L50.9003 101.6L57.2002 95.5L53.0002 91.8L51.5002 93Z" fill="white" stroke="#13110C" stroke-miterlimit="10"/>
<path d="M48.4004 126.9H52.3004L52.7003 118.7L48.4004 126.9Z" fill="#E30613" stroke="#13110C" stroke-miterlimit="10"/>
<path d="M69.7002 97.3C52.8002 109.7 52.3003 126.9 52.3003 126.9H54.2002C54.2002 126.9 54.1002 111.8 71.0002 99.4001L69.7002 97.3Z" fill="#FFEA24" stroke="#13110C" stroke-miterlimit="10"/>
<path d="M115.1 96.1C129.2 110.6 126.4 126.7 126.4 126.7L124.6 126.4C124.6 126.4 127.6 112.3 113.5 97.8L115.1 96.1Z" fill="#FFEA24" stroke="#13110C" stroke-miterlimit="10"/>
<path d="M54.1 126.9C54.1 126.9 53.6001 121.4 62.3001 125L62.1 125.7C62.1 125.7 57.0001 125.2 57.3001 126.9" fill="#E30613"/>
<path d="M54.1 126.9C54.1 126.9 53.6001 121.4 62.3001 125L62.1 125.7C62.1 125.7 57.0001 125.2 57.3001 126.9" stroke="#13110C" stroke-miterlimit="10"/>
<path d="M62.5001 124.6C62.5001 124.6 54.7001 122.5 55.8001 118.8C55.8001 118.8 58.1 115 64.7 120L63.8001 121.3C60.8001 119.3 59.4001 120.5 59.4001 120.5C59.1001 121.3 63.2 123.5 63.2 123.5L62.5001 124.6Z" fill="#E30613" stroke="#13110C" stroke-miterlimit="10"/>
<path d="M65.1 119.2C65.1 119.2 57.8 117.2 58.9 113.6C58.9 113.6 60.9999 110 67.1999 114.7L66.4 116C63.6 114.1 62.3 115.2 62.3 115.2C62 116 65.8 118.1 65.8 118.1L65.1 119.2Z" fill="#E30613" stroke="#13110C" stroke-miterlimit="10"/>
<path d="M67.5 114.1C67.5 114.1 61.1 111.2 62.5 107.7C62.5 107.7 64.9001 104.3 69.9001 109.8L69 111C66.7 108.7 65.4001 109.7 65.4001 109.7C65.0001 110.4 68.2 113.1 68.2 113.1L67.5 114.1Z" fill="#E30613" stroke="#13110C" stroke-miterlimit="10"/>
<path d="M70.7002 109.1C70.7002 109.1 65.1003 105.9 66.8003 102.7C66.8003 102.7 69.3003 99.7 73.4003 105.3L72.5002 106.3C70.6002 104 69.3003 104.8 69.3003 104.8C68.9003 105.5 71.6002 108.2 71.6002 108.2L70.7002 109.1Z" fill="#E30613" stroke="#13110C" stroke-miterlimit="10"/>
<path d="M123.7 126.8C123.7 126.8 124.8 121.7 116.3 124L116.4 124.6C116.4 124.6 121.2 124.8 120.7 126.4" fill="#E30613"/>
<path d="M123.7 126.8C123.7 126.8 124.8 121.7 116.3 124L116.4 124.6C116.4 124.6 121.2 124.8 120.7 126.4" stroke="#13110C" stroke-miterlimit="10"/>
<path d="M116.2 123.6C116.2 123.6 123.7 122.6 123.1 118.9C123.1 118.9 121.4 115 114.7 118.9L115.4 120.3C118.4 118.8 119.6 120.1 119.6 120.1C119.8 120.9 115.7 122.5 115.7 122.5L116.2 123.6Z" fill="#E30613" stroke="#13110C" stroke-miterlimit="10"/>
<path d="M114.4 118.2C114.4 118.2 121.4 117.2 120.8 113.7C120.8 113.7 119.3 110 113 113.7L113.6 115C116.4 113.5 117.5 114.8 117.5 114.8C117.7 115.6 113.9 117.1 113.9 117.1L114.4 118.2Z" fill="#E30613" stroke="#13110C" stroke-miterlimit="10"/>
<path d="M112.9 113.1C112.9 113.1 119.2 111.2 118.3 107.7C118.3 107.7 116.5 104.2 111.2 108.8L111.9 110C114.3 108.1 115.4 109.3 115.4 109.3C115.7 110 112.4 112.1 112.4 112.1L112.9 113.1Z" fill="#E30613" stroke="#13110C" stroke-miterlimit="10"/>
<path d="M110.5 107.9C110.5 107.9 116 105.5 114.9 102.3C114.9 102.3 113 99.1001 108.5 103.9L109.3 105C111.3 103 112.4 104 112.4 104C112.7 104.7 109.9 107 109.9 107L110.5 107.9Z" fill="#E30613" stroke="#13110C" stroke-miterlimit="10"/>
<path d="M66.5002 126.6C66.5002 126.6 66.3002 123.4 70.3002 125.5L70.2001 125.9C70.2001 125.9 67.9002 125.6 68.0002 126.6" fill="#FFEA24"/>
<path d="M66.5002 126.6C66.5002 126.6 66.3002 123.4 70.3002 125.5L70.2001 125.9C70.2001 125.9 67.9002 125.6 68.0002 126.6" stroke="#13110C" stroke-width="0.5" stroke-miterlimit="10"/>
<path d="M70.3001 125.3C70.3001 125.3 66.7 124.1 67.2 121.9C67.2 121.9 68.2001 119.7 71.3001 122.6L70.9001 123.4C69.5001 122.2 68.9001 122.9 68.9001 122.9C68.7001 123.4 70.6 124.7 70.6 124.7L70.3001 125.3Z" fill="#FFEA24" stroke="#13110C" stroke-width="0.5" stroke-miterlimit="10"/>
<path d="M71.5001 122.2C71.5001 122.2 68.2 121.1 68.6 119C68.6 119 69.6001 116.9 72.4001 119.7L72.0001 120.4C70.7001 119.3 70.1 120 70.1 120C69.9 120.4 71.7 121.7 71.7 121.7L71.5001 122.2Z" fill="#FFEA24" stroke="#13110C" stroke-width="0.5" stroke-miterlimit="10"/>
<path d="M72.5999 119.3C72.5999 119.3 69.7 117.6 70.3 115.6C70.3 115.6 71.3999 113.6 73.6999 116.8L73.3 117.5C72.2 116.2 71.5999 116.8 71.5999 116.8C71.3999 117.2 72.9 118.7 72.9 118.7L72.5999 119.3Z" fill="#FFEA24" stroke="#13110C" stroke-width="0.5" stroke-miterlimit="10"/>
<path d="M74.1003 116.4C74.1003 116.4 71.5004 114.5 72.3004 112.7C72.3004 112.7 73.4004 110.9 75.3004 114.2L74.9003 114.8C74.0003 113.5 73.4003 114 73.4003 114C73.2003 114.4 74.4003 116 74.4003 116L74.1003 116.4Z" fill="#FFEA24" stroke="#13110C" stroke-width="0.5" stroke-miterlimit="10"/>
<path d="M70.5 126.9L72.1 124.1H110L107.3 126.9H70.5Z" fill="#E30613" stroke="#13110C" stroke-miterlimit="10"/>
<path d="M80.8003 126.9L84.2002 124.1" stroke="#13110C" stroke-miterlimit="10"/>
<path d="M93.5 126.9L96.7 124.1" stroke="#13110C" stroke-miterlimit="10"/>
<path d="M110 117.6H74.7002V118.7H110V117.6Z" fill="white"/>
<path d="M73.7002 123.2H110L109.3 120.2L108.2 122.2H106.6L105.4 120.2L104.2 122.2H102.6L101.7 119.9L100.1 122.2H98.8003L97.8003 119.9L96.7002 122.2H95.1003L94.1003 119.9L92.8003 122.2H91.1003L90.3003 119.9L88.5002 122.2H87.2002L86.3003 119.5L84.6003 122.2H83.2002L82.1002 119.5L80.8003 122.2H79.4003L78.6002 119.5L77.0002 122.2L75.2002 122L74.5002 120.2L73.7002 122.2V123.2Z" fill="white" stroke="#13110C" stroke-width="0.4" stroke-miterlimit="10"/>
<path d="M105.7 109.6C105.7 109.6 109.3 108.5 110.1 110.6C110.1 110.6 110.5 113 106.3 112.4L106.2 111.5C108 111.7 108.1 110.7 108.1 110.7C108 110.2 105.7 110.2 105.7 110.2V109.6Z" fill="#FFEA24" stroke="#13110C" stroke-width="0.5" stroke-miterlimit="10"/>
<path d="M106.4 112.9C106.4 112.9 109.8 112 110.6 113.9C110.6 113.9 111 116.2 107.1 115.5L107 114.7C108.7 114.9 108.8 114 108.8 114C108.7 113.6 106.5 113.5 106.5 113.5L106.4 112.9Z" fill="#FFEA24" stroke="#13110C" stroke-width="0.5" stroke-miterlimit="10"/>
<path d="M118.6 100.2L121.4 97.7L122.8 96.5L125.7 93.9001C125.7 93.9001 137.9 108.5 140 113.6L128.1 126.8H126.5C126.4 126.8 128 111.4 118.6 100.2Z" fill="#E30613" stroke="#13110C" stroke-miterlimit="10"/>
<path d="M122.7 96.5001C128.3 103.2 130.3 117.2 130.3 117.2L138.1 110.4L139.1 112.1L128.9 121.9C128.9 121.9 127.9 107.9 121.6 97.7001L122.7 96.5001Z" fill="white" stroke="#13110C" stroke-miterlimit="10"/>
<path d="M123.9 95.5001C123.9 95.5001 130.2 103.7 131.7 111.5L136.2 107.6" stroke="#13110C" stroke-miterlimit="10"/>
<path d="M146.9 119C146.9 119 142.1 118.2 139.9 113.6L128 126.8H129.9L138.8 126.9C138.8 126.9 143.5 121 146.7 119.1" fill="#FFEA24"/>
<path d="M146.9 119C146.9 119 142.1 118.2 139.9 113.6L128 126.8H129.9L138.8 126.9C138.8 126.9 143.5 121 146.7 119.1" stroke="#13110C" stroke-miterlimit="10"/>
<path d="M136.7 123.1H134.6V125.2H136.7V123.1Z" fill="#211C4B" stroke="#211C4B" stroke-miterlimit="10"/>
<path d="M140.4 119.8H138.7V121.5H140.4V119.8Z" fill="#211C4B" stroke="#211C4B" stroke-miterlimit="10"/>
<path d="M145.4 118.6L136.7 117.4L137.3 125.6L129.9 126.8L138.8 126.9L138.2 119.4L145.7 119.8L145.4 118.6Z" fill="white" stroke="#13110C" stroke-miterlimit="10"/>
<path d="M142.6 117C140.6 105.9 122.7 87.7 122.7 87.7L120.9 89.3C120.9 89.3 130.9 99 133.8 104.2C133.8 104.2 141.1 114.6 141.7 116.2C142.3 117.7 142.6 117 142.6 117Z" fill="#FFEA24" stroke="#13110C" stroke-miterlimit="10"/>
<path d="M123.9 88.9001C123.9 88.9001 129 83.8001 131 85.0001C131 85.0001 134.4 87.1001 127.4 92.8001" fill="white"/>
<path d="M123.9 88.9001C123.9 88.9001 129 83.8001 131 85.0001C131 85.0001 134.4 87.1001 127.4 92.8001" stroke="#13110C" stroke-miterlimit="10"/>
<path d="M130.1 87.7001C130.1 88.1001 129.8 88.4001 129.4 88.4001C129 88.4001 128.7 88.1001 128.7 87.7001V87.2001C128.7 86.8001 129 86.5001 129.4 86.5001C129.8 86.5001 130.1 86.8001 130.1 87.2001V87.7001Z" stroke="#13110C" stroke-width="0.5" stroke-miterlimit="10"/>
<path d="M128.6 93.0001C128.4 93.2001 128.4 93.6001 128.6 93.8001C128.8 94.0001 129.2 94.0001 129.4 93.8001L133.7 89.4001C133.9 89.2001 133.9 88.8001 133.7 88.6001C133.5 88.4001 133.1 88.4001 132.9 88.6001L128.6 93.0001Z" fill="white" stroke="#13110C" stroke-miterlimit="10"/>
<path d="M129.6 95.0001C129.6 95.0001 135.2 90.5001 137.1 91.9001C137.1 91.9001 140.3 94.3001 132.8 99.3001" fill="white"/>
<path d="M129.6 95.0001C129.6 95.0001 135.2 90.5001 137.1 91.9001C137.1 91.9001 140.3 94.3001 132.8 99.3001" stroke="#13110C" stroke-miterlimit="10"/>
<path d="M135.8 94.4001C135.8 94.8001 135.4 95.1001 135 95.0001C134.6 95.0001 134.3 94.6001 134.4 94.2001L134.5 93.7001C134.5 93.3001 134.9 93.0001 135.3 93.1001C135.7 93.1001 136 93.5001 135.9 93.9001L135.8 94.4001Z" stroke="#13110C" stroke-width="0.5" stroke-miterlimit="10"/>
<path d="M133.8 99.5C133.6 99.7 133.5 100.1 133.7 100.3C133.9 100.5 134.3 100.6 134.5 100.4L139.3 96.5C139.5 96.3 139.6 95.9 139.4 95.7C139.2 95.4 138.8 95.4001 138.6 95.6001L133.8 99.5Z" fill="white" stroke="#13110C" stroke-miterlimit="10"/>
<path d="M139.2 107.7C139.2 107.7 144.1 104.6 145.5 105.9C145.5 105.9 147.8 108.2 141.3 111.4" fill="white"/>
<path d="M139.2 107.7C139.2 107.7 144.1 104.6 145.5 105.9C145.5 105.9 147.8 108.2 141.3 111.4" stroke="#13110C" stroke-miterlimit="10"/>
<path d="M145.1 107.3C145 107.6 144.6 107.8 144.2 107.7C143.8 107.6 143.5 107.3 143.5 107L143.6 106.6C143.7 106.3 144.1 106.1 144.5 106.2C144.9 106.3 145.2 106.6 145.2 106.9L145.1 107.3Z" stroke="#13110C" stroke-width="0.5" stroke-miterlimit="10"/>
<path d="M146.2 88.9001C146.4 88.9001 146.6 89 146.8 89V91.6001C138.6 90.7001 128.1 83 128.1 83L123.4 78.3L126.7 76.8C126.7 76.8 132.6 85.3 146.8 89" fill="#FFEA24"/>
<path d="M146.2 88.9001C146.4 88.9001 146.6 89 146.8 89V91.6001C138.6 90.7001 128.1 83 128.1 83L123.4 78.3L126.7 76.8C126.7 76.8 132.6 85.3 146.8 89" stroke="#13110C" stroke-miterlimit="10"/>
<path d="M49.2001 61C49.4001 60.8 49.6002 60.6 49.8002 60.3L56.5002 52.1L60.2001 47.6C62.1001 45.3 61.8002 41.9 59.4002 40L59.0002 39.7C56.7002 37.8 53.3002 38.1 51.4002 40.5L49.2001 43.2L47.0002 40.5C45.1002 38.2 41.7002 37.8 39.4002 39.7L39.0002 40C36.7002 41.9 36.3001 45.3 38.2001 47.6L48.6002 60.4C48.8002 60.6 49.0001 60.8 49.2001 61Z" fill="#E30B13"/>
<path d="M146.9 142.1V125.9H29.6001V163.8C43.0001 166.9 49.7001 176 49.7001 176L100.6 179.3L146.9 142.1L131.5 154.5L146.9 142.1Z" fill="#211C4B"/>
<path d="M146.9 142.1V125.9H29.6001V163.8C43.0001 166.9 49.7001 176 49.7001 176L100.6 179.3L146.9 142.1ZM146.9 142.1L131.5 154.5" stroke="#13110C" stroke-miterlimit="10"/>
<path d="M41.9002 151.6C41.9002 151.6 35.8001 155.5 34.1001 153.8C34.1001 153.8 31.2002 151 39.3002 147" fill="white"/>
<path d="M41.9002 151.6C41.9002 151.6 35.8001 155.5 34.1001 153.8C34.1001 153.8 31.2002 151 39.3002 147" stroke="#13110C" stroke-miterlimit="10"/>
<path d="M35.2001 151.3C35.3001 151 35.7001 150.8 36.1001 150.9C36.5001 151 36.8002 151.3 36.8002 151.6L36.7001 152C36.6001 152.3 36.2002 152.5 35.8002 152.4C35.4002 152.3 35.1001 152 35.1001 151.7L35.2001 151.3Z" stroke="#13110C" stroke-width="0.5" stroke-miterlimit="10"/>
<path d="M38.0001 147.2C38.3001 147 38.4 146.7 38.2 146.4C38 146.1 37.7001 146 37.4001 146.2L32.2 149.5C31.9 149.7 31.8001 150 32.0001 150.3C32.2001 150.6 32.5001 150.7 32.8001 150.5L38.0001 147.2Z" fill="white" stroke="#13110C" stroke-miterlimit="10"/>
<path d="M138.7 125.9H135.9H128C128 125.9 122.1 136 120.9 141.2C120.9 141.2 118.3 158.4 119.3 164.1L127.9 157.2C128 157.3 128.2 138.2 138.7 125.9Z" fill="#FFEA24" stroke="#13110C" stroke-miterlimit="10"/>
<path d="M133.7 127.2H131.6V129.3H133.7V127.2Z" fill="#211C4B" stroke="#211C4B" stroke-miterlimit="10"/>
<path d="M130 130.7H127.9V132.8H130V130.7Z" fill="#211C4B" stroke="#211C4B" stroke-miterlimit="10"/>
<path d="M128.9 135.8H126.8V137.9H128.9V135.8Z" fill="#211C4B" stroke="#211C4B" stroke-miterlimit="10"/>
<path d="M126.8 140.2H124.7V142.3H126.8V140.2Z" fill="#211C4B" stroke="#211C4B" stroke-miterlimit="10"/>
<path d="M126.8 145.7H124.7V147.8H126.8V145.7Z" fill="#211C4B" stroke="#211C4B" stroke-miterlimit="10"/>
<path d="M124.8 150H122.7V152.1H124.8V150Z" fill="#211C4B" stroke="#211C4B" stroke-miterlimit="10"/>
<path d="M125.9 155.5H123.8V157.6H125.9V155.5Z" fill="#211C4B" stroke="#211C4B" stroke-miterlimit="10"/>
<path d="M146.9 142.1L131.5 154.5C130 142.2 139.3 130.8 142.7 127.2C143.4 126.4 143.9 126 143.9 126H147V142.1H146.9Z" fill="#E30613" stroke="#13110C" stroke-miterlimit="10"/>
<path d="M126.9 158.2C126.9 158.2 129.3 168.1 134.7 168.4C134.7 168.4 143.4 166.1 139.5 164.2C139.5 164.2 134.6 163.2 134.4 159.7C134.4 159.7 135.2 155.7 134.6 154.1C134 152.5 134.1 152.4 134.1 152.4" fill="#FCD48E"/>
<path d="M126.9 158.2C126.9 158.2 129.3 168.1 134.7 168.4C134.7 168.4 143.4 166.1 139.5 164.2C139.5 164.2 134.6 163.2 134.4 159.7C134.4 159.7 135.2 155.7 134.6 154.1C134 152.5 134.1 152.4 134.1 152.4" stroke="#13110C" stroke-width="0.6" stroke-miterlimit="10"/>
<path d="M142 154.3C142 154.3 136.8 150.8 135.7 151.1C134.6 151.4 132.8 153.4 132.8 153.4C132.8 153.4 133.4 163.9 135.3 164.4C137.2 165 140.2 164 140.9 162.4C141.6 160.8 143.1 156.5 142.9 156C142.7 155.6 142 154.3 142 154.3Z" fill="#1E1A2B"/>
<path d="M94.0004 139.1C94.0004 139.1 88.7004 135 80.1004 139.1C80.1004 139.1 57.6005 170.5 57.3005 171.3C57.0005 172.1 57.5004 179.3 64.4004 172.7C71.3004 166.1 95.8004 164.6 98.0004 167.2C100.3 169.9 103.9 174.1 104.3 173.8C104.7 173.5 106.9 174.1 106.9 174.1L110.7 171L107.601 166.1C107.601 166.1 98.4004 151.1 96.7004 145.8C95.0004 140.4 94.0004 139.1 94.0004 139.1Z" fill="#FFEA24" stroke="#13110C" stroke-miterlimit="10"/>
<path d="M48.4004 169.8C48.4004 169.8 66.4003 155.9 73.7003 136.9L82.9004 138C82.9004 138 77.0003 156.3 56.2003 175.5L55.0004 176.2L48.4004 169.8Z" fill="white" stroke="#13110C" stroke-miterlimit="10"/>
<path d="M100.9 179L107.1 174.1C107.1 174 107 173.9 107 173.9C106.7 172.7 104.8 168 92.8002 167.2C92.8002 167.2 74.3001 166.3 66.9001 168C66.9001 168 61.4001 171.6 60.6001 173.6C60.6001 173.6 74.8001 194.9 88.2001 184.9C93.7001 180.8 97.9 179 100.9 179Z" fill="#FFEA24" stroke="#13110C" stroke-miterlimit="10"/>
<path d="M103.2 169.6C103.2 169.6 92.5003 153.5 88.6003 137.4C88.6003 137.4 73.1003 164.1 67.3003 167.8C67.3003 167.8 71.0003 169.4 75.4003 169.1C79.8003 168.8 100.1 170.7 100.1 170.7C100.1 170.7 103 170.8 103.1 170.7C103.2 170.5 103.2 169.6 103.2 169.6Z" fill="#E30613" stroke="#13110C" stroke-miterlimit="10"/>
<path d="M89.0002 178.7H68.8003C68.8003 178.7 76.1002 193.1 84.0002 187.7C91.8002 182.4 90.7001 181.5 89.9001 180.5C89.1001 179.5 89.0002 178.7 89.0002 178.7Z" fill="#BBB32E" stroke="#13110C" stroke-miterlimit="10"/>
<path d="M103.6 192.1C103.6 192.1 103.2 186.4 100.9 185.1C100.9 185.1 100.4 180.1 100.6 179.2C100.6 179.2 94.4001 173.5 88.0001 179.2C81.6001 184.9 79.9001 186.8 79.9001 186.8L79.6001 186.5C82.6001 189.5 82.7001 193.8 82.7001 193.8C83.3001 201 87.7001 210.3 87.7001 210.3C90.9001 211 102.8 209.3 102.8 209.3V201.9C102.8 201.9 105.6 196.9 105.9 196C106.2 195.1 106.4 189.9 102.8 192.7C99.3002 195.5 100.3 193.5 100 193.2" fill="#FED68A"/>
<path d="M103.6 192.1C103.6 192.1 103.2 186.4 100.9 185.1C100.9 185.1 100.4 180.1 100.6 179.2C100.6 179.2 94.4001 173.5 88.0001 179.2C81.6001 184.9 79.9001 186.8 79.9001 186.8L79.6001 186.5C82.6001 189.5 82.7001 193.8 82.7001 193.8C83.3001 201 87.7001 210.3 87.7001 210.3C90.9001 211 102.8 209.3 102.8 209.3V201.9C102.8 201.9 105.6 196.9 105.9 196C106.2 195.1 106.4 189.9 102.8 192.7C99.3002 195.5 100.3 193.5 100 193.2" stroke="#13110C" stroke-miterlimit="10"/>
<path d="M50 221.6H111.7L102.8 209.2C102.8 209.2 74.5 212.4 59.6 208.4L50 221.6Z" fill="#E31518" stroke="#13110C" stroke-miterlimit="10"/>
<path d="M59.6003 208.4L57.9004 210.8C77.3004 216.3 104.5 211.6 104.5 211.6L102.8 209.3C102.8 209.2 73.7003 212.4 59.6003 208.4Z" fill="#13110C" stroke="#13110C" stroke-miterlimit="10"/>
<path d="M104.1 221.6L101.1 217.2H93.3L93 221.6H90.8999L91.3999 215.6L102.5 215L106.6 221.6H104.1Z" fill="white"/>
<path d="M57.3003 221L60.4003 216.7L68.1002 216.6L68.4003 221H70.5002L70.0002 215L58.9003 214.4L54.8003 221H57.3003Z" fill="white"/>
<path d="M87.1003 221.6V216.5H74.7002V221.6H76.7002V217.6H84.5002V221.6H87.1003Z" fill="white"/>
<path d="M101.4 187.8C101.4 187.8 98.5003 186.8 98.3003 187.1" stroke="#13110C" stroke-miterlimit="10"/>
<path d="M99.1002 190.2C99.1002 190.2 96.9002 190.9 94.6002 188.4C94.6002 188.4 91.7 188.7 92.2 190.4C92.2 190.4 92.8 192.9 93.7 190.6" stroke="#13110C" stroke-miterlimit="10"/>
<path d="M99.8003 205.8C99.8003 205.8 94.9003 207 89.8003 204.9" stroke="#13110C" stroke-miterlimit="10"/>
<path d="M92.1001 202.3C95.5001 204.4 98.7 203.5 98.7 203.5C100.8 201.8 98.3999 200.6 98.3999 200.6C98.3999 200.6 94.6001 200.4 92.1001 202.3Z" fill="#13110C"/>
<path d="M53.2999 184.6C53.2999 184.6 56.0998 186.7 56.6998 194.4C56.6998 194.4 57.8998 206.7 58.5998 207.2L59.4999 208.3C70.5999 211.7 87.6998 210.4 87.6998 210.4V210.2C87.6998 210.2 83.2998 200.9 82.6998 193.7C82.6998 193.7 82.4998 189.4 79.5998 186.4L79.8999 186.7L79.5998 186.4C79.5998 186.4 74.1998 180.5 68.6998 178.7C68.6998 178.7 59.5999 171.7 52.9999 174.4C52.9999 174.4 45.6998 176.9 46.0998 180.1C46.0998 180.1 47.0998 186.9 53.0998 184C53.0998 184 57.9999 180 51.7999 177C51.7999 177 46.9999 177.6 48.3999 181.5C48.3999 181.5 51.3998 184.3 52.5998 181.2C52.5998 181.2 53.4999 179 51.3999 178.8C51.3999 178.8 48.9998 179.1 50.5998 181" fill="#E2C80B"/>
<path d="M53.2999 184.6C53.2999 184.6 56.0998 186.7 56.6998 194.4C56.6998 194.4 57.8998 206.7 58.5998 207.2L59.4999 208.3C70.5999 211.7 87.6998 210.4 87.6998 210.4V210.2C87.6998 210.2 83.2998 200.9 82.6998 193.7C82.6998 193.7 82.4998 189.4 79.5998 186.4L79.8999 186.7L79.5998 186.4C79.5998 186.4 74.1998 180.5 68.6998 178.7C68.6998 178.7 59.5999 171.7 52.9999 174.4C52.9999 174.4 45.6998 176.9 46.0998 180.1C46.0998 180.1 47.0998 186.9 53.0998 184C53.0998 184 57.9999 180 51.7999 177C51.7999 177 46.9999 177.6 48.3999 181.5C48.3999 181.5 51.3998 184.3 52.5998 181.2C52.5998 181.2 53.4999 179 51.3999 178.8C51.3999 178.8 48.9998 179.1 50.5998 181" stroke="#13110C" stroke-miterlimit="10"/>
<path d="M85.3002 209.7C85.3002 209.7 80.9001 196.6 80.9001 192.3C80.9001 188 74.1001 184 73.1001 183.2C72.1001 182.4 59.9001 174.9 55.6001 176.1" stroke="#13110C" stroke-width="0.5" stroke-miterlimit="10"/>
<path d="M82.9003 209.7C82.9003 209.7 78.5002 196.6 78.5002 192.3C78.5002 188 71.7002 184 70.7002 183.2C69.7002 182.4 57.5002 174.9 53.2002 176.1" stroke="#13110C" stroke-width="0.5" stroke-miterlimit="10"/>
<path d="M73 183.2C72 182.4 59.8 174.9 55.5 176.1" stroke="#13110C" stroke-width="0.5" stroke-miterlimit="10"/>
<path d="M80.9003 209.7C80.9003 209.7 76.5002 196.6 76.5002 192.3C76.5002 188 69.7002 184 68.7002 183.2C67.7002 182.4 55.5002 174.9 51.2002 176.1" stroke="#13110C" stroke-width="0.5" stroke-miterlimit="10"/>
<path d="M78.7003 209.7C78.7003 209.7 74.3004 196.6 74.3004 192.3C74.3004 188 67.5004 184 66.5004 183.2C65.7004 182.6 57.7004 177.6 52.4004 176.3" stroke="#13110C" stroke-width="0.5" stroke-miterlimit="10"/>
<path d="M76.4004 209.7C76.4004 209.7 72.0004 196.6 72.0004 192.3C72.0004 188 65.2003 184 64.2003 183.2C63.6003 182.8 59.3004 180 54.9004 178.1" stroke="#13110C" stroke-width="0.5" stroke-miterlimit="10"/>
<path d="M74 209.1C74 209.1 69.6 196 69.6 191.7C69.6 187.4 62.8 183.4 61.8 182.6C61.3 182.3 58.4 180.4 55 178.7" stroke="#13110C" stroke-width="0.5" stroke-miterlimit="10"/>
<path d="M71.5 209.1C71.5 209.1 67.1 196 67.1 191.7C67.1 187.4 60.3 183.4 59.3 182.6C59 182.3 57.2 181.2 55 180" stroke="#13110C" stroke-width="0.5" stroke-miterlimit="10"/>
<path d="M68.9004 209.1C68.9004 209.1 64.5004 196 64.5004 191.7C64.5004 187.4 57.7003 183.4 56.7003 182.6C56.5003 182.5 55.9004 182 54.9004 181.5" stroke="#13110C" stroke-width="0.5" stroke-miterlimit="10"/>
<path d="M66 208.6C66 208.6 61.6 195.5 61.6 191.2C61.6 187.5 56.5 184 54.5 182.6" stroke="#13110C" stroke-width="0.5" stroke-miterlimit="10"/>
<path d="M62.6 207C62.6 207 58.2 193.9 58.2 189.6C58.2 187.2 56.1 184.9 54 183.2" stroke="#13110C" stroke-width="0.5" stroke-miterlimit="10"/>
<path d="M85.4 179.7L80.1001 184.8" stroke="#13110C" stroke-width="0.5" stroke-miterlimit="10"/>
<path d="M83.4004 179.7L78.9004 184" stroke="#13110C" stroke-width="0.5" stroke-miterlimit="10"/>
<path d="M81 179.7L77.5 183.2" stroke="#13110C" stroke-width="0.5" stroke-miterlimit="10"/>
<path d="M79.0002 179.5L76.2002 182.3" stroke="#13110C" stroke-width="0.5" stroke-miterlimit="10"/>
<path d="M76.8003 179.4L74.8003 181.4" stroke="#13110C" stroke-width="0.5" stroke-miterlimit="10"/>
<path d="M86.4 171.3H83.6001V174.1H86.4V171.3Z" fill="#211C4B" stroke="#211C4B" stroke-miterlimit="10"/>
<path d="M92.8 171.6H90V174.4H92.8V171.6Z" fill="#211C4B" stroke="#211C4B" stroke-miterlimit="10"/>
<path d="M99.1003 173H96.3003V175.8H99.1003V173Z" fill="#211C4B" stroke="#211C4B" stroke-miterlimit="10"/>
<path d="M80.7003 171.3H77.9004V174.1H80.7003V171.3Z" fill="#211C4B" stroke="#211C4B" stroke-miterlimit="10"/>
<path d="M75.1002 171.6H72.3003V174.4H75.1002V171.6Z" fill="#211C4B" stroke="#211C4B" stroke-miterlimit="10"/>
<path d="M68.9001 172.7H66.1001V175.5H68.9001V172.7Z" fill="#211C4B" stroke="#211C4B" stroke-miterlimit="10"/>
<path d="M75.4004 163.2C78.0004 162.6 87.3004 145.9 87.3004 145.9C88.3004 150.6 96.0004 163.6 96.0004 163.6C96.0004 163.6 79.2004 162.2 75.4004 163.2Z" fill="#FFFCFB"/>
<path d="M79.7002 160.8C81.2002 160.4 86.7002 150.6 86.7002 150.6C87.3002 153.3 91.8003 161 91.8003 161C91.8003 161 81.9002 160.2 79.7002 160.8Z" fill="#13110C" stroke="#13110C" stroke-miterlimit="10"/>
<path d="M83.3003 158.8C84.0003 158.6 86.4001 154.3 86.4001 154.3C86.7001 155.5 88.6003 158.9 88.6003 158.9C88.6003 158.9 84.3003 158.5 83.3003 158.8Z" fill="#FFFCFB"/>
<path d="M36.5002 208.6L36.4003 166.1C36.4003 166.1 32.1002 164.1 29.7002 163.8V215L36.5002 208.6Z" fill="#B91818" stroke="#13110C" stroke-miterlimit="10"/>
<path d="M44.7002 213C50.2002 209.4 51.9003 198.3 51.9003 198.3C52.5003 190.9 44.7002 182.6 44.7002 182.6C44.7002 182.6 39.3003 202.9 41.3003 204.3C43.3003 205.5 44.7002 213 44.7002 213Z" fill="#8B92C8"/>
<path d="M38.2002 193.5C43.9002 183.8 44.4003 185 44.4003 185C44.4003 185 44.9003 192.1 44.4003 192.9C44.4003 192.9 50.5002 196.1 51.1002 197.7C51.1002 197.7 46.9003 201.2 44.4003 201.8C44.4003 201.8 45.3002 209.6 44.0002 211.4C44.0002 211.4 41.0002 203.4 37.7002 202.5L38.2002 193.5Z" fill="#FBE900" stroke="#13110C" stroke-miterlimit="10"/>
<path d="M38.3003 192.3L38.2002 166.2C38.2002 166.2 32.8002 164.1 29.7002 163.8V217.8L38.4003 211.1V203.2C38.4003 203.2 42.8002 205.3 44.0002 213.5C44.0002 213.5 45.4002 206.1 40.6002 200.5C40.6002 200.5 45.9003 200.2 47.9003 198C47.9003 198 45.2002 195.1 40.7002 194.7C40.7002 194.7 44.4003 190.2 44.8003 182.7C44.7003 182.6 40.5003 190.8 38.3003 192.3Z" fill="#FBE900" stroke="#13110C" stroke-miterlimit="10"/>
<path d="M36.5002 208.6L36.4003 166.1C36.4003 166.1 32.1002 164.1 29.7002 163.8V215L36.5002 208.6Z" fill="#B91818" stroke="#13110C" stroke-miterlimit="10"/>
<path d="M34.4001 204.6L34.3002 165.9C34.3002 165.9 31.3001 164.1 29.6001 163.8V210.4L34.4001 204.6Z" fill="#E30613" stroke="#13110C" stroke-miterlimit="10"/>
<path d="M139.5 168.4C138.9 167.6 139 166.5 139.7 166C140.4 165.5 141.4 165.8 142 166.6C142.6 167.4 142.5 168.5 141.8 169C141.2 169.6 140.1 169.3 139.5 168.4Z" fill="#FCD48E" stroke="#13110C" stroke-width="0.6" stroke-miterlimit="10"/>
<path d="M139.5 164.2C137.6 162.5 136.5 160.6 137.1 159.9C137.7 159.3 139.7 160.1 141.6 161.9L141.7 162C143.6 163.7 144.7 165.6 144.1 166.3C143.5 166.9 141.5 166 139.5 164.2Z" fill="#FCD48E" stroke="#13110C" stroke-width="0.6" stroke-miterlimit="10"/>
<path d="M140.5 161.1C138.6 159.4 137.5 157.5 138.1 156.8C138.7 156.2 140.7 157 142.6 158.8L142.7 158.9C144.6 160.6 145.7 162.5 145.1 163.2C144.5 163.8 142.5 162.9 140.5 161.1Z" fill="#FCD48E" stroke="#13110C" stroke-width="0.6" stroke-miterlimit="10"/>
<path d="M141.8 158.4C139.9 156.7 138.8 154.8 139.4 154.1C140 153.5 142 154.3 143.9 156.1L144 156.2C145.9 157.9 147 159.8 146.4 160.5C145.8 161.1 143.8 160.2 141.8 158.4Z" fill="#FCD48E" stroke="#13110C" stroke-width="0.6" stroke-miterlimit="10"/>
<path d="M53.7002 171C53.7002 171 66.8003 160 76.8003 140" stroke="#13110C" stroke-miterlimit="10"/>
<path d="M115.4 167.4C115.4 167.4 102.8 154.1 99.1003 137.4H91.8003C91.8003 137.4 94.5003 153.2 108.8 171.3L109.7 172L115.4 167.4Z" fill="white" stroke="#13110C" stroke-miterlimit="10"/>
<path d="M111.2 167.9C111.2 167.9 102.1 157.5 96.3999 139.7" stroke="#13110C" stroke-miterlimit="10"/>
<path d="M116.8 178C120.1 175.4 125.7 176.7 125.7 176.7C133.2 179.2 137.8 174.6 137.8 174.6C143.5 169.7 137.2 168 137.2 168C137.2 168 133.8 167.2 131.6 169.4C131.6 169.4 123.9 168.3 121.7 169.4C121.8 169.3 115.8 171.1 116.8 178Z" fill="#FFEA24" stroke="#13110C" stroke-miterlimit="10"/>
<path d="M137.9 169.7C137.9 169.7 133.8 174.6 126.9 172.9C126.9 172.9 122.6 172 120 174.2" stroke="#13110C" stroke-miterlimit="10"/>
<path d="M146.9 135.5C146.9 135.5 140.1 144 140.8 147" stroke="#13110C" stroke-miterlimit="10"/>
<path d="M146.9 131.2C146.9 131.2 137.9 138.6 137.9 149.4" stroke="#13110C" stroke-miterlimit="10"/>
<path d="M142.9 132.9L142.7 127.2C142.7 127.2 138.9 131.9 138.4 132.6L142.9 132.9Z" fill="#FFEA24" stroke="#13110C" stroke-miterlimit="10"/>
<path d="M139.2 139.2L137.4 134.1C137.4 134.1 134.5 139.2 134.3 139.8L139.2 139.2Z" fill="#FFEA24" stroke="#13110C" stroke-miterlimit="10"/>
<path d="M136.9 145.5L133.8 140.9C133.8 140.9 131.9 145.4 131.9 147.2L136.9 145.5Z" fill="#FFEA24" stroke="#13110C" stroke-miterlimit="10"/>
<path d="M135.3 151.5L131.7 147.9C131.7 147.9 130.8 154.2 131.5 154.6L135.3 151.5Z" fill="#FFEA24" stroke="#13110C" stroke-miterlimit="10"/>
<path d="M131.5 154.5L128 157.3C129.8 133.8 138.7 125.9 138.7 125.9H143.8C143.8 125.9 136.9 132.7 134 140.2C134 140.2 129.7 150.8 131.5 154.5Z" fill="#211C4B" stroke="#14120D" stroke-miterlimit="10"/>
<path d="M124.9 159.8L122.9 156.6L128.1 151.2L122.9 145.8L130.2 142.9L125.3 135.5L133.2 134.4L130.7 125.9H129.4L131.2 132.9L122.9 134.7L128 142.1L120.3 145.8L125.5 151.2L119.2 157.3L123.4 161L124.9 159.8Z" fill="white" stroke="#13110C" stroke-miterlimit="10"/>
<path d="M128 125.9H124.1L123.7 134.1L128 125.9Z" fill="#E30613" stroke="#13110C" stroke-miterlimit="10"/>
<path d="M106.7 155.5C123.6 143.1 124.1 125.9 124.1 125.9H122.2C122.2 125.9 122.3 141 105.4 153.4L106.7 155.5Z" fill="#FFEA24" stroke="#13110C" stroke-miterlimit="10"/>
<path d="M61.3002 156.7C47.2002 142.2 50.0002 126.1 50.0002 126.1L51.8002 126.4C51.8002 126.4 48.8002 140.5 62.9002 155L61.3002 156.7Z" fill="#FFEA24" stroke="#13110C" stroke-miterlimit="10"/>
<path d="M122.3 125.9C122.3 125.9 122.8 131.4 114.1 127.8L114.3 127.1C114.3 127.1 119.4 127.6 119.1 125.9" fill="#E30613"/>
<path d="M122.3 125.9C122.3 125.9 122.8 131.4 114.1 127.8L114.3 127.1C114.3 127.1 119.4 127.6 119.1 125.9" stroke="#13110C" stroke-miterlimit="10"/>
<path d="M113.9 128.2C113.9 128.2 121.7 130.3 120.6 134C120.6 134 118.3 137.8 111.7 132.8L112.6 131.5C115.6 133.5 117 132.3 117 132.3C117.3 131.5 113.2 129.3 113.2 129.3L113.9 128.2Z" fill="#E30613" stroke="#13110C" stroke-miterlimit="10"/>
<path d="M111.3 133.6C111.3 133.6 118.6 135.6 117.5 139.2C117.5 139.2 115.4 142.8 109.2 138.1L110 136.8C112.8 138.7 114.1 137.6 114.1 137.6C114.4 136.8 110.6 134.7 110.6 134.7L111.3 133.6Z" fill="#E30613" stroke="#13110C" stroke-miterlimit="10"/>
<path d="M108.9 138.7C108.9 138.7 115.3 141.6 113.9 145.1C113.9 145.1 111.5 148.5 106.5 143L107.4 141.8C109.7 144.1 111 143.1 111 143.1C111.4 142.4 108.2 139.7 108.2 139.7L108.9 138.7Z" fill="#E30613" stroke="#13110C" stroke-miterlimit="10"/>
<path d="M105.7 143.7C105.7 143.7 111.3 146.9 109.6 150.1C109.6 150.1 107.1 153.1 103 147.5L103.9 146.5C105.8 148.8 107.1 148 107.1 148C107.5 147.3 104.8 144.6 104.8 144.6L105.7 143.7Z" fill="#E30613" stroke="#13110C" stroke-miterlimit="10"/>
<path d="M52.6998 126C52.6998 126 51.5998 131.1 60.0998 128.8L59.9999 128.2C59.9999 128.2 55.1998 128 55.6998 126.4" fill="#E30613"/>
<path d="M52.6998 126C52.6998 126 51.5998 131.1 60.0998 128.8L59.9999 128.2C59.9999 128.2 55.1998 128 55.6998 126.4" stroke="#13110C" stroke-miterlimit="10"/>
<path d="M60.2002 129.2C60.2002 129.2 52.7003 130.2 53.3003 133.9C53.3003 133.9 55.0002 137.8 61.7002 133.9L61.0002 132.5C58.0002 134 56.8003 132.7 56.8003 132.7C56.6003 131.9 60.7002 130.3 60.7002 130.3L60.2002 129.2Z" fill="#E30613" stroke="#13110C" stroke-miterlimit="10"/>
<path d="M62 134.6C62 134.6 55 135.6 55.6 139.1C55.6 139.1 57.1 142.8 63.4 139.1L62.8 137.8C60 139.3 58.9 138 58.9 138C58.7 137.2 62.5 135.7 62.5 135.7L62 134.6Z" fill="#E30613" stroke="#13110C" stroke-miterlimit="10"/>
<path d="M63.5002 139.7C63.5002 139.7 57.2002 141.6 58.1002 145.1C58.1002 145.1 59.9002 148.6 65.2002 144L64.5002 142.8C62.1002 144.7 61.0002 143.5 61.0002 143.5C60.7002 142.8 64.0002 140.7 64.0002 140.7L63.5002 139.7Z" fill="#E30613" stroke="#13110C" stroke-miterlimit="10"/>
<path d="M65.9 144.9C65.9 144.9 60.3999 147.3 61.4999 150.5C61.4999 150.5 63.4 153.7 67.9 148.9L67.0999 147.8C65.0999 149.8 63.9999 148.8 63.9999 148.8C63.6999 148.1 66.4999 145.8 66.4999 145.8L65.9 144.9Z" fill="#E30613" stroke="#13110C" stroke-miterlimit="10"/>
<path d="M110 126.2C110 126.2 110.2 129.4 106.2 127.3L106.3 126.9C106.3 126.9 108.6 127.2 108.5 126.2" fill="#FFEA24"/>
<path d="M110 126.2C110 126.2 110.2 129.4 106.2 127.3L106.3 126.9C106.3 126.9 108.6 127.2 108.5 126.2" stroke="#13110C" stroke-width="0.5" stroke-miterlimit="10"/>
<path d="M106.1 127.5C106.1 127.5 109.7 128.7 109.2 130.9C109.2 130.9 108.2 133.1 105.1 130.2L105.5 129.4C106.9 130.6 107.5 129.9 107.5 129.9C107.7 129.4 105.8 128.1 105.8 128.1L106.1 127.5Z" fill="#FFEA24" stroke="#13110C" stroke-width="0.5" stroke-miterlimit="10"/>
<path d="M104.9 130.6C104.9 130.6 108.2 131.7 107.8 133.8C107.8 133.8 106.8 135.9 104 133.1L104.4 132.4C105.7 133.5 106.3 132.8 106.3 132.8C106.5 132.4 104.7 131.1 104.7 131.1L104.9 130.6Z" fill="#FFEA24" stroke="#13110C" stroke-width="0.5" stroke-miterlimit="10"/>
<path d="M103.8 133.5C103.8 133.5 106.7 135.2 106.1 137.2C106.1 137.2 105 139.2 102.7 136L103.1 135.3C104.2 136.6 104.8 136 104.8 136C105 135.6 103.5 134.1 103.5 134.1L103.8 133.5Z" fill="#FFEA24" stroke="#13110C" stroke-width="0.5" stroke-miterlimit="10"/>
<path d="M102.4 136.4C102.4 136.4 105 138.3 104.2 140.1C104.2 140.1 103.1 141.9 101.2 138.6L101.6 138C102.5 139.3 103.1 138.8 103.1 138.8C103.3 138.4 102.1 136.8 102.1 136.8L102.4 136.4Z" fill="#FFEA24" stroke="#13110C" stroke-width="0.5" stroke-miterlimit="10"/>
<path d="M105.9 125.9L104.3 128.7H66.4004L69.1003 125.9H105.9Z" fill="#E30613" stroke="#13110C" stroke-miterlimit="10"/>
<path d="M95.6003 125.9L92.2002 128.7" stroke="#13110C" stroke-miterlimit="10"/>
<path d="M82.9003 125.9L79.7002 128.7" stroke="#13110C" stroke-miterlimit="10"/>
<path d="M101.7 134.1H66.4004V135.2H101.7V134.1Z" fill="white"/>
<path d="M102.7 129.6H66.4004L67.1003 132.6L68.2003 130.6H69.8004L71.0004 132.6L72.2003 130.6H73.8004L74.7003 132.9L76.3004 130.6H77.6003L78.6003 132.9L79.7003 130.6H81.3004L82.3004 132.9L83.6003 130.6H85.3004L86.1005 132.9L87.9003 130.6H89.2003L90.1005 133.3L91.8004 130.6H93.2003L94.3004 133.3L95.6005 130.6H97.0004L97.9003 133.3L99.5004 130.6L101.2 130.8L101.9 132.6L102.7 130.6V129.6Z" fill="white" stroke="#13110C" stroke-width="0.4" stroke-miterlimit="10"/>
<path d="M70.7002 143.2C70.7002 143.2 67.1003 144.3 66.3003 142.2C66.3003 142.2 65.9002 139.8 70.1002 140.4L70.2002 141.3C68.4002 141.1 68.3003 142.1 68.3003 142.1C68.4003 142.6 70.7002 142.6 70.7002 142.6V143.2Z" fill="#FFEA24" stroke="#13110C" stroke-width="0.5" stroke-miterlimit="10"/>
<path d="M70.0001 139.9C70.0001 139.9 66.6002 140.8 65.8002 138.9C65.8002 138.9 65.4002 136.6 69.3002 137.3L69.4001 138.1C67.7001 137.9 67.6001 138.8 67.6001 138.8C67.7001 139.2 69.9001 139.3 69.9001 139.3L70.0001 139.9Z" fill="#FFEA24" stroke="#13110C" stroke-width="0.5" stroke-miterlimit="10"/>
<path d="M57.8004 152.6L55.0004 155.1L53.6003 156.3L50.7003 158.9C50.7003 158.9 38.5004 144.3 36.4004 139.2L48.3004 126H49.9004C50.0004 126 48.4004 141.4 57.8004 152.6Z" fill="#E30613" stroke="#13110C" stroke-miterlimit="10"/>
<path d="M53.7002 156.3C48.1002 149.6 46.1002 135.6 46.1002 135.6L38.3003 142.4L37.3003 140.7L47.5002 130.9C47.5002 130.9 48.5003 144.9 54.8003 155.1L53.7002 156.3Z" fill="white" stroke="#13110C" stroke-miterlimit="10"/>
<path d="M52.5002 157.3C52.5002 157.3 46.2002 149.1 44.7002 141.3L40.2002 145.2" stroke="#13110C" stroke-miterlimit="10"/>
<path d="M29.5 133.8C29.5 133.8 34.3 134.6 36.5 139.2L48.4 126H46.5L37.6 125.9C37.6 125.9 32.9 131.8 29.7 133.7" fill="#FFEA24"/>
<path d="M29.5 133.8C29.5 133.8 34.3 134.6 36.5 139.2L48.4 126H46.5L37.6 125.9C37.6 125.9 32.9 131.8 29.7 133.7" stroke="#13110C" stroke-miterlimit="10"/>
<path d="M41.8003 127.6H39.7002V129.7H41.8003V127.6Z" fill="#211C4B" stroke="#211C4B" stroke-miterlimit="10"/>
<path d="M37.7 131.3H36V133H37.7V131.3Z" fill="#211C4B" stroke="#211C4B" stroke-miterlimit="10"/>
<path d="M31.0002 134.2L39.7002 135.4L39.2002 127.2L46.5002 126L37.6002 125.9L38.2002 133.4L30.7002 133L31.0002 134.2Z" fill="white" stroke="#13110C" stroke-miterlimit="10"/>
<path d="M33.8003 135.8C35.8003 146.9 53.7002 165.1 53.7002 165.1L55.5002 163.5C55.5002 163.5 45.5002 153.8 42.6002 148.6C42.6002 148.6 35.3002 138.2 34.7002 136.6C34.2002 135.1 33.8003 135.8 33.8003 135.8Z" fill="#FFEA24" stroke="#13110C" stroke-miterlimit="10"/>
<path d="M52.5002 163.9C52.5002 163.9 47.4003 169 45.4003 167.8C45.4003 167.8 42.0002 165.7 49.0002 160" fill="white"/>
<path d="M52.5002 163.9C52.5002 163.9 47.4003 169 45.4003 167.8C45.4003 167.8 42.0002 165.7 49.0002 160" stroke="#13110C" stroke-miterlimit="10"/>
<path d="M46.3003 165.1C46.3003 164.7 46.6002 164.4 47.0002 164.4C47.4002 164.4 47.7002 164.7 47.7002 165.1V165.6C47.7002 166 47.4002 166.3 47.0002 166.3C46.6002 166.3 46.3003 166 46.3003 165.6V165.1Z" stroke="#13110C" stroke-width="0.5" stroke-miterlimit="10"/>
<path d="M47.7999 159.8C47.9999 159.6 47.9999 159.2 47.7999 159C47.5999 158.8 47.1999 158.8 46.9999 159L42.6998 163.4C42.4998 163.6 42.4998 164 42.6998 164.2C42.8998 164.4 43.2999 164.4 43.4999 164.2L47.7999 159.8Z" fill="white" stroke="#13110C" stroke-miterlimit="10"/>
<path d="M46.8 157.8C46.8 157.8 41.2 162.3 39.3 160.9C39.3 160.9 36.0999 158.5 43.5999 153.5" fill="white"/>
<path d="M46.8 157.8C46.8 157.8 41.2 162.3 39.3 160.9C39.3 160.9 36.0999 158.5 43.5999 153.5" stroke="#13110C" stroke-miterlimit="10"/>
<path d="M40.5998 158.4C40.5998 158 40.9999 157.7 41.3999 157.8C41.7999 157.8 42.0999 158.2 41.9999 158.6L41.8999 159.1C41.8999 159.5 41.4998 159.8 41.0998 159.7C40.6998 159.7 40.3999 159.3 40.4999 158.9L40.5998 158.4Z" stroke="#13110C" stroke-width="0.5" stroke-miterlimit="10"/>
<path d="M42.6001 153.3C42.8001 153.1 42.9001 152.7 42.7001 152.5C42.5001 152.2 42.1002 152.2 41.9002 152.4L37.1001 156.3C36.9001 156.5 36.8001 156.9 37.0001 157.1C37.2001 157.4 37.6002 157.4 37.8002 157.2L42.6001 153.3Z" fill="white" stroke="#13110C" stroke-miterlimit="10"/>
<path d="M37.1998 145.1C37.1998 145.1 32.2999 148.2 30.8999 146.9C30.8999 146.9 28.5999 144.6 35.0999 141.4" fill="white"/>
<path d="M37.1998 145.1C37.1998 145.1 32.2999 148.2 30.8999 146.9C30.8999 146.9 28.5999 144.6 35.0999 141.4" stroke="#13110C" stroke-miterlimit="10"/>
<path d="M31.3003 145.5C31.4003 145.2 31.8002 145 32.2002 145.1C32.6002 145.2 32.9003 145.5 32.9003 145.8L32.8003 146.2C32.7003 146.5 32.3003 146.7 31.9003 146.6C31.5003 146.5 31.2002 146.2 31.2002 145.9L31.3003 145.5Z" stroke="#13110C" stroke-width="0.5" stroke-miterlimit="10"/>
<path d="M30.2001 163.9C30.0001 163.9 29.8001 163.8 29.6001 163.8V161.2C37.8001 162.1 48.3002 169.8 48.3002 169.8L53.0001 174.5L49.7001 176C49.7001 176 43.8001 167.5 29.6001 163.8" fill="#FFEA24"/>
<path d="M30.2001 163.9C30.0001 163.9 29.8001 163.8 29.6001 163.8V161.2C37.8001 162.1 48.3002 169.8 48.3002 169.8L53.0001 174.5L49.7001 176C49.7001 176 43.8001 167.5 29.6001 163.8" stroke="#13110C" stroke-miterlimit="10"/>
<path d="M127.2 191.8C127 192 126.8 192.2 126.6 192.5L119.9 200.7L116.2 205.2C114.3 207.5 114.6 210.9 117 212.8L117.4 213.1C119.7 215 123.1 214.7 125 212.3L127.2 209.6L129.4 212.3C131.3 214.6 134.7 215 137 213.1L137.4 212.8C139.7 210.9 140.1 207.5 138.2 205.2L127.8 192.4C127.6 192.2 127.4 192 127.2 191.8Z" fill="#E30B13"/>
<path d="M15.9 48.2001C16.1 48.0001 16.2 47.9001 16.4 47.7001L21.6 41.3001L24.5 37.8001C26 36.0001 25.7 33.3001 23.9 31.9001L23.6 31.6001C21.8 30.1001 19.0999 30.4001 17.6999 32.2001L16 34.3001L14.3 32.2001C12.8 30.4001 10.2 30.1001 8.4 31.6001L8.09995 31.9001C6.29995 33.4001 5.99998 36.0001 7.49998 37.8001L15.6 47.7001C15.6 47.9001 15.7 48.1001 15.9 48.2001Z" fill="#E30B13"/>
<path d="M11.7002 21.9001C11.7002 22.8001 11.7002 23.1001 11.7002 23.0001C11.7002 23.8001 11.9002 24.5001 12.2002 25.0001C12.6002 25.6001 13.2003 25.9001 14.1003 25.9001C14.8003 25.9001 15.4003 25.6001 15.8003 25.1001C16.2003 24.6001 16.4003 24.0001 16.4003 23.3001V12.9001H14.5003V10.4001H20.7002V12.9001H18.9003V23.3001C18.9003 24.7001 18.5003 25.9001 17.6003 26.8001C16.7003 27.8001 15.6002 28.3001 14.2002 28.3001C12.8002 28.3001 11.6002 27.8001 10.7002 26.8001C9.80024 25.8001 9.30032 24.6001 9.40032 23.2001V21.8001H11.7002V21.9001Z" fill="#E30B13"/>
<path d="M159.6 204.8C159.4 205 159.3 205.1 159.1 205.3L153.9 211.7L151 215.2C149.5 217 149.8 219.7 151.6 221.1L151.9 221.4C153.7 222.9 156.4 222.6 157.8 220.8L159.5 218.7L161.2 220.8C162.7 222.6 165.3 222.9 167.1 221.4L167.4 221.1C169.2 219.6 169.5 217 168 215.2L159.9 205.3C159.9 205.1 159.8 204.9 159.6 204.8Z" fill="#E30B13"/>
<path d="M163.9 231.1C163.9 230.2 163.9 229.9 163.9 230C163.9 229.2 163.7 228.5 163.4 228C163 227.4 162.4 227.1 161.5 227.1C160.8 227.1 160.2 227.4 159.8 227.9C159.4 228.4 159.2 229 159.2 229.7V240.1H161.1V242.6H154.9V240.1H156.7V229.7C156.7 228.3 157.1 227.1 158 226.2C158.9 225.2 160 224.7 161.4 224.7C162.8 224.7 164 225.2 164.9 226.2C165.8 227.2 166.3 228.4 166.2 229.8V231.2H163.9V231.1Z" fill="#E30B13"/>
</svg>
