<svg width="181" height="253" viewBox="0 0 181 253" fill="none" xmlns="http://www.w3.org/2000/svg">
<path d="M179.5 231.1C179.5 242.9 172.7 252.5 164.3 252.5H16.0999C7.69985 252.5 0.899902 242.9 0.899902 231.1V21.9C0.899902 10.1 7.69985 0.5 16.0999 0.5H164.4C172.8 0.5 179.6 10.1 179.6 21.9V231.1H179.5Z" fill="white" stroke="#1D1D1B" stroke-miterlimit="10"/>
<path d="M49.8997 57.9C50.2997 57.6 50.5997 57.2 50.8997 56.9L61.4997 44L67.2997 36.9C70.2997 33.3 69.7997 27.9 66.0997 24.9L65.4997 24.4C61.8997 21.4 56.4997 21.9 53.4997 25.6L49.9997 29.8L46.5997 25.6C43.5997 22 38.2997 21.4 34.5997 24.3L33.9997 24.8C30.3997 27.8 29.7997 33.1 32.6997 36.8L48.8997 56.8C49.2997 57.3 49.5997 57.6 49.8997 57.9Z" fill="#E30B13"/>
<path d="M128 57.9C128.4 57.6 128.7 57.2 129 56.9L139.6 44L145.4 36.9C148.4 33.3 147.9 27.9 144.2 24.9L143.6 24.4C140 21.4 134.6 21.9 131.6 25.6L128.1 29.8L124.7 25.6C121.7 22 116.4 21.4 112.7 24.3L112.1 24.8C108.5 27.8 107.9 33.1 110.9 36.8L127.1 56.8C127.3 57.3 127.6 57.6 128 57.9Z" fill="#E30B13"/>
<path d="M49.8997 146.2C50.2997 145.9 50.5997 145.5 50.8997 145.2L61.4997 132.3L67.2997 125.2C70.2997 121.6 69.7997 116.2 66.0997 113.2L65.4997 112.8C61.8997 109.8 56.4997 110.3 53.4997 114L49.9997 118.2L46.5997 114C43.5997 110.4 38.2997 109.8 34.5997 112.7L33.9997 113.2C30.3997 116.2 29.7997 121.5 32.6997 125.2L48.8997 145.2C49.2997 145.6 49.5997 145.9 49.8997 146.2Z" fill="#E30B13"/>
<path d="M128 146.2C128.4 145.9 128.7 145.5 129 145.2L139.6 132.3L145.4 125.2C148.4 121.6 147.9 116.2 144.2 113.2L143.6 112.7C140 109.7 134.6 110.2 131.6 113.9L128.1 118.1L124.7 113.9C121.7 110.3 116.4 109.7 112.7 112.6L112.1 113.1C108.5 116.1 107.9 121.4 110.9 125.1L127.1 145.1C127.3 145.6 127.6 145.9 128 146.2Z" fill="#E30B13"/>
<path d="M49.7001 197.1C49.3001 197.4 49 197.8 48.7001 198.1L38.1 211L32.3 218.1C29.3 221.7 29.8 227.1 33.5 230.1L34.1 230.6C37.7 233.6 43.1 233.1 46.1 229.4L49.6 225.2L53 229.4C56 233 61.3 233.6 65 230.7L65.6 230.2C69.2 227.2 69.8 221.9 66.8 218.2L50.6 198.2C50.3 197.7 50 197.4 49.7001 197.1Z" fill="#E30B13"/>
<path d="M128.2 197.1C127.8 197.4 127.5 197.8 127.2 198.1L116.6 211L110.8 218.1C107.8 221.7 108.3 227.1 112 230.1L112.6 230.6C116.2 233.6 121.6 233.1 124.6 229.4L128.1 225.2L131.5 229.4C134.5 233 139.8 233.6 143.5 230.7L144.1 230.2C147.7 227.2 148.3 221.9 145.3 218.2L129.1 198.2C128.8 197.7 128.5 197.4 128.2 197.1Z" fill="#E30B13"/>
<path d="M15.5001 47.8C15.7001 47.6 15.8001 47.5 16.0001 47.3L21.2001 40.9L24.1001 37.4C25.6001 35.6 25.3001 32.9 23.5001 31.5L23.2001 31.2C21.4001 29.7 18.7001 30 17.3001 31.8L15.6001 33.9L13.9001 31.8C12.4001 30 9.80008 29.7 8.00008 31.2L7.70009 31.5C5.90009 33 5.60005 35.6 7.10005 37.4L15.2001 47.3C15.1001 47.5 15.3001 47.7 15.5001 47.8Z" fill="#E30B13"/>
<path d="M159.7 204.8C159.5 205 159.4 205.1 159.2 205.3L154 211.7L151.1 215.2C149.6 217 149.9 219.7 151.7 221.1L152 221.4C153.8 222.9 156.5 222.6 157.9 220.8L159.6 218.7L161.3 220.8C162.8 222.6 165.4 222.9 167.2 221.4L167.5 221.1C169.3 219.6 169.6 217 168.1 215.2L160 205.3C160.1 205.1 159.9 204.9 159.7 204.8Z" fill="#E30B13"/>
<path d="M10.1996 16.5C10.1996 16.6 10.0996 16.1 10.0996 15C10.0996 12.5 10.3996 10.6 11.0996 9.1C12.0996 7 13.5996 6 15.7996 6C16.8996 6 17.8996 6.3 18.7996 6.9C19.6996 7.5 20.3997 8.2 20.8997 9.2L18.8997 10.4C18.0997 9.1 17.0996 8.4 15.7996 8.4C14.0996 8.4 12.9996 9.7 12.5996 12.3C13.5996 11.4 14.5996 11 15.7996 11C17.4996 11 18.8996 11.7 19.9996 13.2C20.9996 14.5 21.4996 16.1 21.4996 17.9C21.4996 19.6 20.9997 21.1 19.8997 22.4C18.7997 23.8 17.3996 24.4 15.7996 24.4C14.9996 24.4 14.0996 24.1 13.2996 23.6C12.3996 23 11.5996 22 11.0996 20.5C10.5996 19.2 10.2996 17.9 10.1996 16.5ZM15.7996 21.9C16.7996 21.9 17.5996 21.4 18.2996 20.5C18.8996 19.7 19.1996 18.7 19.1996 17.7C19.1996 16.5 18.8996 15.5 18.2996 14.7C17.6996 13.7 16.7996 13.2 15.6996 13.2C14.8996 13.2 14.1996 13.6 13.4996 14.4C12.9996 15 12.5996 15.8 12.2996 16.7C12.3996 18 12.6996 19.1 13.0996 20C13.8996 21.2 14.7996 21.9 15.7996 21.9Z" fill="#E30B13"/>
<path d="M166.1 235.4C166.1 235.3 166.2 235.8 166.2 236.9C166.2 239.4 165.9 241.3 165.2 242.8C164.2 244.9 162.7 245.9 160.5 245.9C159.4 245.9 158.4 245.6 157.5 245C156.6 244.4 155.9 243.7 155.4 242.7L157.4 241.5C158.2 242.8 159.2 243.5 160.5 243.5C162.2 243.5 163.3 242.2 163.7 239.6C162.7 240.5 161.7 240.9 160.5 240.9C158.8 240.9 157.4 240.2 156.3 238.7C155.3 237.4 154.8 235.8 154.8 234C154.8 232.3 155.3 230.8 156.4 229.5C157.5 228.1 158.9 227.5 160.5 227.5C161.3 227.5 162.2 227.8 163 228.3C163.9 228.9 164.7 229.9 165.2 231.4C165.7 232.7 166 234 166.1 235.4ZM160.5 230C159.5 230 158.7 230.5 158 231.4C157.4 232.2 157.1 233.2 157.1 234.2C157.1 235.4 157.4 236.4 158 237.2C158.6 238.2 159.5 238.7 160.6 238.7C161.4 238.7 162.1 238.3 162.8 237.5C163.3 236.9 163.7 236.1 164 235.2C163.9 233.9 163.6 232.8 163.2 231.9C162.4 230.6 161.6 230 160.5 230Z" fill="#E30B13"/>
</svg>
