<svg width="181" height="254" viewBox="0 0 181 254" fill="none" xmlns="http://www.w3.org/2000/svg">
<path d="M180 231.7C180 243.5 173.2 253.1 164.8 253.1H16.5001C8.10006 253.1 1.30005 243.5 1.30005 231.7V22.6C1.30005 10.8 8.10006 1.19995 16.5001 1.19995H164.8C173.2 1.19995 180 10.8 180 22.6V231.7Z" fill="white" stroke="#1D1D1B" stroke-miterlimit="10"/>
<path d="M15.9001 21.6H17.3V19.7999H10.3V17.9999L17.6001 6.49988H19.5001V17.6H21.7001V19.8999H19.5001V21.7H20.6001V23.9999H15.9001V21.6ZM13.4001 17.3999H17.4001V11.1L13.4001 17.3999Z" fill="#1D1D1B"/>
<path d="M162.8 230.4H161.4V232.2H168.4V234L161.1 245.5H159.2V234.4H157V232.1H159.2V230.3H158V228H162.7V230.4H162.8ZM165.3 234.5H161.3V240.8L165.3 234.5Z" fill="#1D1D1B"/>
<path d="M17.2001 42.6C17.6001 43.7 18.3001 45.2999 19.4001 45.9999H14.6001C15.8001 44.9999 16.4001 43.6 16.7001 42.6C16.0001 43.8 14.7 44.6 13.3 44.6C11.1 44.6 9.30005 42.8 9.30005 40.6C9.30005 38.4 11.1 36.6 13.3 36.6C13.7 36.6 14.2001 36.6999 14.6001 36.7999C13.8001 36.0999 13.3 34.9999 13.3 33.8999C13.3 31.6999 15.1 29.8999 17.3 29.8999C19.5 29.8999 21.3 31.6999 21.3 33.8999C21.3 35.0999 20.7001 36.1999 19.9001 36.8999C20.2001 36.7999 20.6001 36.7999 20.9001 36.7999C23.1001 36.7999 24.9001 38.5999 24.9001 40.7999C24.9001 42.9999 23.1001 44.7999 20.9001 44.7999C19.1001 44.6999 17.8001 43.9 17.2001 42.6Z" fill="#1D1D1B"/>
<path d="M164.2 210.5C163.8 209.4 163.1 207.8 162 207.1H166.8C165.6 208.1 165 209.5 164.7 210.5C165.4 209.3 166.7 208.5 168.1 208.5C170.3 208.5 172.1 210.3 172.1 212.5C172.1 214.7 170.3 216.5 168.1 216.5C167.7 216.5 167.2 216.4 166.8 216.3C167.6 217 168.1 218.1 168.1 219.2C168.1 221.4 166.3 223.2 164.1 223.2C161.9 223.2 160.1 221.4 160.1 219.2C160.1 218 160.7 216.9 161.5 216.2C161.2 216.3 160.8 216.3 160.5 216.3C158.3 216.3 156.5 214.5 156.5 212.3C156.5 210.1 158.3 208.3 160.5 208.3C162.2 208.3 163.5 209.2 164.2 210.5Z" fill="#1D1D1B"/>
<path d="M48.0001 46.7999C48.8001 49.2999 50.3001 52.7 52.9001 54.2H42.3001C45.0001 52.1 46.3001 48.9 46.8001 46.7C45.3001 49.3 42.5001 51.1 39.3001 51.1C34.5001 51.1 30.6001 47.1999 30.6001 42.3999C30.6001 37.5999 34.5001 33.7 39.3001 33.7C40.3001 33.7 41.2001 33.9 42.1001 34.1C40.4001 32.5 39.3001 30.2999 39.3001 27.7999C39.3001 22.9999 43.2001 19.1 48.0001 19.1C52.8001 19.1 56.7001 22.9999 56.7001 27.7999C56.7001 30.4999 55.5001 32.8999 53.6001 34.4999C54.3001 34.2999 55.1001 34.2 55.8001 34.2C60.6001 34.2 64.5001 38.0999 64.5001 42.8999C64.5001 47.6999 60.6001 51.6 55.8001 51.6C52.4001 51.6 49.4001 49.6999 48.0001 46.7999Z" fill="#1D1D1B"/>
<path d="M47.1001 206.3C46.3001 203.8 44.8001 200.4 42.2001 198.9H52.8001C50.1001 201 48.8001 204.2 48.3001 206.4C49.8001 203.8 52.6001 202 55.8001 202C60.6001 202 64.5001 205.9 64.5001 210.7C64.5001 215.5 60.6001 219.4 55.8001 219.4C54.8001 219.4 53.9001 219.2 53.0001 219C54.7001 220.6 55.8001 222.8 55.8001 225.3C55.8001 230.1 51.9001 234 47.1001 234C42.3001 234 38.4001 230.1 38.4001 225.3C38.4001 222.6 39.6001 220.2 41.5001 218.6C40.8001 218.8 40.0001 218.9 39.3001 218.9C34.5001 218.9 30.6001 215 30.6001 210.2C30.6001 205.4 34.5001 201.5 39.3001 201.5C42.7001 201.5 45.6001 203.4 47.1001 206.3Z" fill="#1D1D1B"/>
<path d="M133 46.7999C133.8 49.2999 135.3 52.7 137.9 54.2H127.3C130 52.1 131.3 48.9 131.8 46.7C130.3 49.3 127.5 51.1 124.3 51.1C119.5 51.1 115.6 47.1999 115.6 42.3999C115.6 37.5999 119.5 33.7 124.3 33.7C125.3 33.7 126.2 33.9 127.1 34.1C125.4 32.5 124.3 30.2999 124.3 27.7999C124.3 22.9999 128.2 19.1 133 19.1C137.8 19.1 141.7 22.9999 141.7 27.7999C141.7 30.4999 140.5 32.8999 138.6 34.4999C139.3 34.2999 140.1 34.2 140.8 34.2C145.6 34.2 149.5 38.0999 149.5 42.8999C149.5 47.6999 145.6 51.6 140.8 51.6C137.4 51.6 134.5 49.6999 133 46.7999Z" fill="#1D1D1B"/>
<path d="M132.1 206.3C131.3 203.8 129.8 200.4 127.2 198.9H137.8C135.1 201 133.8 204.2 133.3 206.4C134.8 203.8 137.6 202 140.8 202C145.6 202 149.5 205.9 149.5 210.7C149.5 215.5 145.6 219.4 140.8 219.4C139.8 219.4 138.9 219.2 138 219C139.7 220.6 140.8 222.8 140.8 225.3C140.8 230.1 136.9 234 132.1 234C127.3 234 123.4 230.1 123.4 225.3C123.4 222.6 124.6 220.2 126.5 218.6C125.8 218.8 125 218.9 124.3 218.9C119.5 218.9 115.6 215 115.6 210.2C115.6 205.4 119.5 201.5 124.3 201.5C127.7 201.5 130.7 203.4 132.1 206.3Z" fill="#1D1D1B"/>
</svg>
