<svg width="181" height="253" viewBox="0 0 181 253" fill="none" xmlns="http://www.w3.org/2000/svg">
<path d="M179.8 231.1C179.8 242.9 173 252.5 164.6 252.5H16.3001C7.90008 252.5 1.1001 242.9 1.1001 231.1V21.9C1.1001 10.1 7.90008 0.5 16.3001 0.5H164.6C173 0.5 179.8 10.1 179.8 21.9V231.1Z" fill="white" stroke="#1D1D1B" stroke-miterlimit="10"/>
<path d="M51.3001 57.3C51.7001 57 52.0001 56.6 52.3001 56.3L62.9002 43.4L68.7001 36.3C71.7001 32.7 71.2001 27.3 67.5001 24.3L66.9002 23.8C63.3001 20.8 57.9002 21.3 54.9002 25L51.4002 29.2L48.0001 25C45.0001 21.4 39.7001 20.8 36.0001 23.7L35.4001 24.2C31.8001 27.2 31.2001 32.5 34.2001 36.2L50.4002 56.2C50.7001 56.6 51.0001 57 51.3001 57.3Z" fill="#E30B13"/>
<path d="M127.8 57.3C128.2 57 128.5 56.6 128.8 56.3L139.4 43.4L145.2 36.3C148.2 32.7 147.7 27.3 144 24.3L143.4 23.8C139.8 20.8 134.4 21.3 131.4 25L127.9 29.2L124.5 25C121.5 21.4 116.2 20.8 112.5 23.7L111.9 24.2C108.3 27.2 107.7 32.5 110.7 36.2L126.9 56.2C127.2 56.6 127.5 57 127.8 57.3Z" fill="#E30B13"/>
<path d="M51.5001 196.5C51.1001 196.8 50.8001 197.2 50.5001 197.5L39.9001 210.4L34.1001 217.5C31.1001 221.1 31.6001 226.5 35.3001 229.5L35.9001 230C39.5001 233 44.9001 232.5 47.9001 228.8L51.4001 224.6L54.8001 228.8C57.8001 232.4 63.1001 233 66.8001 230.1L67.4001 229.6C71.0001 226.6 71.6001 221.3 68.6001 217.6L52.4001 197.6C52.2001 197.1 51.9001 196.8 51.5001 196.5Z" fill="#E30B13"/>
<path d="M128 196.5C127.6 196.8 127.3 197.2 127 197.5L116.5 210.4L110.7 217.5C107.7 221.1 108.2 226.5 111.9 229.5L112.5 230C116.1 233 121.5 232.5 124.5 228.8L128 224.6L131.4 228.8C134.4 232.4 139.7 233 143.4 230.1L144 229.6C147.6 226.6 148.2 221.3 145.2 217.6L129 197.6C128.7 197.1 128.4 196.8 128 196.5Z" fill="#E30B13"/>
<path d="M16.0001 47.4C16.2001 47.2 16.3001 47.1 16.5001 46.9L21.7001 40.5L24.6001 37C26.1001 35.2 25.8001 32.5 24.0001 31.1L23.7001 30.8C21.9001 29.3 19.2 29.6 17.8 31.4L16.1001 33.5L14.4001 31.4C12.9001 29.6 10.3001 29.3 8.50006 30.8L8.20007 31.1C6.40007 32.6 6.10006 35.2 7.60006 37L15.7001 46.9C15.7001 47.1 15.9001 47.2 16.0001 47.4Z" fill="#E30B13"/>
<path d="M161.6 203.2C161.4 203.4 161.3 203.5 161.1 203.7L155.9 210.1L153 213.6C151.5 215.4 151.8 218.1 153.6 219.5L153.9 219.8C155.7 221.3 158.4 221 159.8 219.2L161.5 217.1L163.2 219.2C164.7 221 167.3 221.3 169.1 219.8L169.4 219.5C171.2 218 171.5 215.4 170 213.6L161.9 203.7C162 203.5 161.8 203.4 161.6 203.2Z" fill="#E30B13"/>
<path d="M15.7001 20.9H17.1001V19.1H10.1001V17.3L17.4001 5.79999H19.3001V16.8H21.5001V19.1H19.3001V20.9H20.4001V23.2H15.7001V20.9ZM13.2001 16.8H17.2001V10.5L13.2001 16.8Z" fill="#E30B13"/>
<path d="M162.6 229.7H161.2V231.5H168.2V233.3L160.9 244.8H159V233.7H156.8V231.4H159V229.6H157.9V227.3H162.6V229.7ZM165.1 233.9H161.1V240.2L165.1 233.9Z" fill="#E30B13"/>
</svg>
