<svg width="181" height="253" viewBox="0 0 181 253" fill="none" xmlns="http://www.w3.org/2000/svg">
<path d="M179.8 231.1C179.8 242.9 173 252.5 164.6 252.5H16.3001C7.90008 252.5 1.1001 242.9 1.1001 231.1V21.9C1.1001 10.1 7.90008 0.5 16.3001 0.5H164.6C173 0.5 179.8 10.1 179.8 21.9V231.1Z" fill="white" stroke="#1D1D1B" stroke-miterlimit="10"/>
<path d="M15.7001 20.9H17.1001V19.1H10.1001V17.3L17.4001 5.79999H19.3001V16.8H21.5001V19.1H19.3001V20.9H20.4001V23.2H15.7001V20.9ZM13.2001 16.8H17.2001V10.5L13.2001 16.8Z" fill="#E30B13"/>
<path d="M162.6 229.7H161.2V231.5H168.2V233.3L160.9 244.8H159V233.7H156.8V231.4H159V229.6H157.9V227.3H162.6V229.7ZM165.1 233.9H161.1V240.2L165.1 233.9Z" fill="#E30B13"/>
<path d="M9.40015 35.5L16.4001 44.3L23.5002 35.5L16.5002 26.7L9.40015 35.5Z" fill="#E30B13"/>
<path d="M155.6 212.8L162.6 221.6L169.7 212.8L162.6 204.1L155.6 212.8Z" fill="#E30B13"/>
<path d="M31.9001 33.3L46.2002 51.5L60.8001 33.3L46.3001 15.4L31.9001 33.3Z" fill="#E30B13"/>
<path d="M31.9001 213.9L46.2002 232.1L60.8001 213.9L46.3001 196L31.9001 213.9Z" fill="#E30B13"/>
<path d="M115.5 33.9L129.8 52.1L144.4 33.9L129.9 16L115.5 33.9Z" fill="#E30B13"/>
<path d="M115.5 214.5L129.8 232.7L144.4 214.5L129.9 196.6L115.5 214.5Z" fill="#E30B13"/>
</svg>
