<svg width="181" height="254" viewBox="0 0 181 254" fill="none" xmlns="http://www.w3.org/2000/svg">
<path d="M179.9 231.9C179.9 243.7 173.1 253.3 164.7 253.3H16.4003C8.00027 253.3 1.2002 243.7 1.2002 231.9V22.7C1.2002 10.9 8.00027 1.30005 16.4003 1.30005H164.7C173.1 1.30005 179.9 10.9 179.9 22.7V231.9Z" fill="white" stroke="#1D1D1B" stroke-miterlimit="10"/>
<path d="M11 13.0001V8.30005H21.3L22.5 10.3C19.6 14.4 17.6 19.6 16.5 25.8H14C15 20.1 16.7 15.1 19.2 10.8H13.4V13.0001H11Z" fill="#13110C"/>
<path d="M165.1 241.1V245.8H154.8L153.6 243.8C156.5 239.7 158.5 234.5 159.6 228.3H162.1C161.1 234 159.4 239 156.9 243.3H162.7V241.1H165.1Z" fill="#13110C"/>
<path d="M18.5002 40.9001L17.0002 42.7C15.7002 44.2 13.5002 44.5 12.0002 43.2L11.7002 43.0001C10.2002 41.7001 9.90019 39.5001 11.2002 38.0001L13.6002 35.0001L18.0002 29.6C18.1002 29.4 18.3003 29.3 18.4003 29.2C18.5003 29.3 18.7003 29.5 18.8003 29.6L25.6002 38.0001C26.8002 39.5001 26.6002 41.8001 25.1002 43.0001L24.8003 43.2C23.3003 44.4 21.0003 44.2 19.8003 42.7L18.5002 40.9001L19.3003 40.0001C19.3003 40.0001 17.7003 43.8001 15.4003 46.0001H21.3003C21.3003 46.0001 18.4002 43.0001 18.5002 40.9001Z" fill="#13110C"/>
<path d="M18.5002 40.9001L17.0002 42.7C15.7002 44.2 13.5002 44.5 12.0002 43.2L11.7002 43.0001C10.2002 41.7001 9.90019 39.5001 11.2002 38.0001L13.6002 35.0001L18.0002 29.6C18.1002 29.4 18.3003 29.3 18.4003 29.2C18.5003 29.3 18.7003 29.5 18.8003 29.6L25.6002 38.0001C26.8002 39.5001 26.6002 41.8001 25.1002 43.0001L24.8003 43.2C23.3003 44.4 21.0003 44.2 19.8003 42.7L18.5002 40.9001ZM18.5002 40.9001L19.3003 40.0001C19.3003 40.0001 17.7003 43.8001 15.4003 46.0001H21.3003C21.3003 46.0001 18.4002 43.0001 18.5002 40.9001Z" stroke="#13110C" stroke-miterlimit="10"/>
<path d="M163.9 213.7L165.4 211.9C166.7 210.4 168.9 210.1 170.4 211.4L170.7 211.6C172.2 212.9 172.5 215.1 171.2 216.6L168.8 219.6L164.4 225C164.3 225.2 164.1 225.3 164 225.4C163.9 225.3 163.7 225.1 163.6 225L156.8 216.6C155.6 215.1 155.8 212.8 157.3 211.6L157.6 211.4C159.1 210.2 161.4 210.4 162.6 211.9L163.9 213.7L163.1 214.6C163.1 214.6 164.7 210.8 167 208.6H161.1C161 208.6 163.9 211.6 163.9 213.7Z" fill="#13110C"/>
<path d="M163.9 213.7L165.4 211.9C166.7 210.4 168.9 210.1 170.4 211.4L170.7 211.6C172.2 212.9 172.5 215.1 171.2 216.6L168.8 219.6L164.4 225C164.3 225.2 164.1 225.3 164 225.4C163.9 225.3 163.7 225.1 163.6 225L156.8 216.6C155.6 215.1 155.8 212.8 157.3 211.6L157.6 211.4C159.1 210.2 161.4 210.4 162.6 211.9L163.9 213.7ZM163.9 213.7L163.1 214.6C163.1 214.6 164.7 210.8 167 208.6H161.1C161 208.6 163.9 211.6 163.9 213.7Z" stroke="#13110C" stroke-miterlimit="10"/>
<path d="M54.3001 208.3L57.3001 204.7C59.8001 201.6 64.4001 201.2 67.5001 203.7L68.0001 204.1C71.1001 206.6 71.5001 211.2 69.0001 214.3L64.1 220.3L55.1 231.2C54.8 231.5 54.6 231.8 54.2 232.1C53.9 231.8 53.7001 231.6 53.4001 231.3L39.6 214.3C37.1 211.2 37.6 206.6 40.7 204.1L41.2 203.7C44.3 201.2 48.9001 201.7 51.4001 204.8L54.3001 208.3L52.7 210.2C52.7 210.2 55.9 202.6 60.6 198.1H48.6C48.5 198.1 54.4001 204.1 54.3001 208.3Z" fill="#13110C"/>
<path d="M54.3001 208.3L57.3001 204.7C59.8001 201.6 64.4001 201.2 67.5001 203.7L68.0001 204.1C71.1001 206.6 71.5001 211.2 69.0001 214.3L64.1 220.3L55.1 231.2C54.8 231.5 54.6 231.8 54.2 232.1C53.9 231.8 53.7001 231.6 53.4001 231.3L39.6 214.3C37.1 211.2 37.6 206.6 40.7 204.1L41.2 203.7C44.3 201.2 48.9001 201.7 51.4001 204.8L54.3001 208.3ZM54.3001 208.3L52.7 210.2C52.7 210.2 55.9 202.6 60.6 198.1H48.6C48.5 198.1 54.4001 204.1 54.3001 208.3Z" stroke="#13110C" stroke-miterlimit="10"/>
<path d="M53.8001 47.0001L50.8001 50.6C48.3001 53.7 43.7 54.1 40.6 51.6L40.1 51.2C37 48.7 36.6 44.1001 39.1 41.0001L44.0001 35.0001L53.0001 24.0001C53.3001 23.7001 53.5001 23.4 53.9001 23.1C54.2001 23.4 54.4 23.6001 54.7 23.9001L68.5001 40.9001C71.0001 44.0001 70.5001 48.6 67.4001 51.1L66.9001 51.5001C63.8001 54.0001 59.2 53.5001 56.7 50.4001L53.8001 47.0001L55.4001 45.1C55.4001 45.1 52.2001 52.7 47.5001 57.2H59.5001C59.6001 57.2 53.7001 51.2001 53.8001 47.0001Z" fill="#13110C"/>
<path d="M53.8001 47.0001L50.8001 50.6C48.3001 53.7 43.7 54.1 40.6 51.6L40.1 51.2C37 48.7 36.6 44.1001 39.1 41.0001L44.0001 35.0001L53.0001 24.0001C53.3001 23.7001 53.5001 23.4 53.9001 23.1C54.2001 23.4 54.4 23.6001 54.7 23.9001L68.5001 40.9001C71.0001 44.0001 70.5001 48.6 67.4001 51.1L66.9001 51.5001C63.8001 54.0001 59.2 53.5001 56.7 50.4001L53.8001 47.0001ZM53.8001 47.0001L55.4001 45.1C55.4001 45.1 52.2001 52.7 47.5001 57.2H59.5001C59.6001 57.2 53.7001 51.2001 53.8001 47.0001Z" stroke="#13110C" stroke-miterlimit="10"/>
<path d="M131.8 208.2L134.8 204.6C137.3 201.5 141.9 201.1 145 203.6L145.5 204C148.6 206.5 149 211.1 146.5 214.2L141.6 220.2L132.6 231.1C132.3 231.4 132 231.7 131.7 232C131.4 231.7 131.1 231.5 130.9 231.2L117.1 214.2C114.6 211.1 115.1 206.5 118.2 204L118.7 203.6C121.8 201.1 126.4 201.6 128.9 204.7L131.8 208.2L130.2 210.1C130.2 210.1 133.4 202.5 138.1 198H126.1C126.1 198 131.9 204 131.8 208.2Z" fill="#13110C"/>
<path d="M131.8 208.2L134.8 204.6C137.3 201.5 141.9 201.1 145 203.6L145.5 204C148.6 206.5 149 211.1 146.5 214.2L141.6 220.2L132.6 231.1C132.3 231.4 132 231.7 131.7 232C131.4 231.7 131.1 231.5 130.9 231.2L117.1 214.2C114.6 211.1 115.1 206.5 118.2 204L118.7 203.6C121.8 201.1 126.4 201.6 128.9 204.7L131.8 208.2ZM131.8 208.2L130.2 210.1C130.2 210.1 133.4 202.5 138.1 198H126.1C126.1 198 131.9 204 131.8 208.2Z" stroke="#13110C" stroke-miterlimit="10"/>
<path d="M131.4 46.8L128.4 50.4001C125.9 53.5001 121.3 53.9001 118.2 51.4001L117.7 51.0001C114.6 48.5001 114.2 43.9 116.7 40.8L121.6 34.8L130.6 23.8C130.9 23.5 131.2 23.2001 131.5 22.9001C131.8 23.2001 132.1 23.4 132.3 23.7L146.1 40.7C148.6 43.8 148.1 48.4001 145 50.9001L144.5 51.3C141.4 53.8 136.8 53.3 134.3 50.2L131.4 46.8L133 44.9001C133 44.9001 129.8 52.5001 125.1 57.0001H137.1C137.1 57.0001 131.2 51.1 131.4 46.8Z" fill="#13110C"/>
<path d="M131.4 46.8L128.4 50.4001C125.9 53.5001 121.3 53.9001 118.2 51.4001L117.7 51.0001C114.6 48.5001 114.2 43.9 116.7 40.8L121.6 34.8L130.6 23.8C130.9 23.5 131.2 23.2001 131.5 22.9001C131.8 23.2001 132.1 23.4 132.3 23.7L146.1 40.7C148.6 43.8 148.1 48.4001 145 50.9001L144.5 51.3C141.4 53.8 136.8 53.3 134.3 50.2L131.4 46.8ZM131.4 46.8L133 44.9001C133 44.9001 129.8 52.5001 125.1 57.0001H137.1C137.1 57.0001 131.2 51.1 131.4 46.8Z" stroke="#13110C" stroke-miterlimit="10"/>
<path d="M54.0002 135.1L51.0002 138.7C48.5002 141.8 43.9002 142.2 40.8002 139.7L40.3002 139.3C37.2002 136.8 36.8002 132.2 39.3002 129.1L44.2001 123.1L53.2001 112.1C53.5001 111.8 53.8002 111.5 54.1002 111.2C54.4002 111.5 54.7002 111.7 54.9002 112L68.7001 129C71.2001 132.1 70.7002 136.7 67.6002 139.2L67.1002 139.6C64.0002 142.1 59.4002 141.6 56.9002 138.5L54.0002 135.1L55.6002 133.2C55.6002 133.2 52.4001 140.8 47.7001 145.3H59.7001C59.8001 145.3 53.9002 139.3 54.0002 135.1Z" fill="#13110C"/>
<path d="M54.0002 135.1L51.0002 138.7C48.5002 141.8 43.9002 142.2 40.8002 139.7L40.3002 139.3C37.2002 136.8 36.8002 132.2 39.3002 129.1L44.2001 123.1L53.2001 112.1C53.5001 111.8 53.8002 111.5 54.1002 111.2C54.4002 111.5 54.7002 111.7 54.9002 112L68.7001 129C71.2001 132.1 70.7002 136.7 67.6002 139.2L67.1002 139.6C64.0002 142.1 59.4002 141.6 56.9002 138.5L54.0002 135.1ZM54.0002 135.1L55.6002 133.2C55.6002 133.2 52.4001 140.8 47.7001 145.3H59.7001C59.8001 145.3 53.9002 139.3 54.0002 135.1Z" stroke="#13110C" stroke-miterlimit="10"/>
<path d="M131.5 135.1L128.5 138.7C126 141.8 121.4 142.2 118.3 139.7L117.8 139.3C114.7 136.8 114.3 132.2 116.8 129.1L121.7 123.1L130.7 112.1C131 111.8 131.3 111.5 131.6 111.2C131.9 111.5 132.2 111.7 132.4 112L146.2 129C148.7 132.1 148.2 136.7 145.1 139.2L144.6 139.6C141.5 142.1 136.9 141.6 134.4 138.5L131.5 135.1L133.1 133.2C133.1 133.2 129.9 140.8 125.2 145.3H137.2C137.2 145.3 131.4 139.3 131.5 135.1Z" fill="#13110C"/>
<path d="M131.5 135.1L128.5 138.7C126 141.8 121.4 142.2 118.3 139.7L117.8 139.3C114.7 136.8 114.3 132.2 116.8 129.1L121.7 123.1L130.7 112.1C131 111.8 131.3 111.5 131.6 111.2C131.9 111.5 132.2 111.7 132.4 112L146.2 129C148.7 132.1 148.2 136.7 145.1 139.2L144.6 139.6C141.5 142.1 136.9 141.6 134.4 138.5L131.5 135.1ZM131.5 135.1L133.1 133.2C133.1 133.2 129.9 140.8 125.2 145.3H137.2C137.2 145.3 131.4 139.3 131.5 135.1Z" stroke="#13110C" stroke-miterlimit="10"/>
<path d="M92.4002 91.0001L89.4002 94.6C86.9002 97.7 82.3001 98.1 79.2001 95.6L78.7001 95.2C75.6001 92.7 75.2001 88.1001 77.7001 85.0001L82.6002 79.0001L91.6002 68.1C91.9002 67.8 92.2002 67.5 92.5002 67.2C92.8002 67.5 93.1002 67.7001 93.3002 68.0001L107.1 85.0001C109.6 88.1001 109.1 92.7 106 95.2L105.5 95.6C102.4 98.1 97.8002 97.6001 95.3002 94.5001L92.4002 91.0001L94.0002 89.1C94.0002 89.1 90.8002 96.7 86.1002 101.2H98.1002C98.1002 101.2 92.3002 95.2001 92.4002 91.0001Z" fill="#13110C"/>
<path d="M92.4002 91.0001L89.4002 94.6C86.9002 97.7 82.3001 98.1 79.2001 95.6L78.7001 95.2C75.6001 92.7 75.2001 88.1001 77.7001 85.0001L82.6002 79.0001L91.6002 68.1C91.9002 67.8 92.2002 67.5 92.5002 67.2C92.8002 67.5 93.1002 67.7001 93.3002 68.0001L107.1 85.0001C109.6 88.1001 109.1 92.7 106 95.2L105.5 95.6C102.4 98.1 97.8002 97.6001 95.3002 94.5001L92.4002 91.0001ZM92.4002 91.0001L94.0002 89.1C94.0002 89.1 90.8002 96.7 86.1002 101.2H98.1002C98.1002 101.2 92.3002 95.2001 92.4002 91.0001Z" stroke="#13110C" stroke-miterlimit="10"/>
</svg>
