<svg width="180" height="254" viewBox="0 0 180 254" fill="none" xmlns="http://www.w3.org/2000/svg">
<path d="M179.4 231.3C179.4 243.1 172.6 252.7 164.2 252.7H15.9001C7.50015 252.7 0.700195 243.1 0.700195 231.3V22.1001C0.700195 10.3001 7.50015 0.700073 15.9001 0.700073H164.2C172.6 0.700073 179.4 10.3001 179.4 22.1001V231.3Z" fill="white" stroke="#1D1D1B" stroke-miterlimit="10"/>
<path d="M90.1005 133.6L87.1005 137.2C84.6005 140.3 80.0003 140.7 76.9003 138.2L76.4003 137.8C73.3003 135.3 72.9003 130.7 75.4003 127.6L80.3005 121.6L89.3005 110.7C89.6005 110.4 89.8004 110.1 90.2004 109.8C90.5004 110.1 90.7004 110.3 91.0004 110.6L104.8 127.6C107.3 130.7 106.8 135.3 103.7 137.8L103.2 138.2C100.1 140.7 95.5004 140.2 93.0004 137.1L90.1005 133.6L91.7004 131.7C91.7004 131.7 88.5005 139.3 83.8005 143.8H95.8005C95.8005 143.8 90.0005 137.8 90.1005 133.6Z" fill="#13110C"/>
<path d="M90.1005 133.6L87.1005 137.2C84.6005 140.3 80.0003 140.7 76.9003 138.2L76.4003 137.8C73.3003 135.3 72.9003 130.7 75.4003 127.6L80.3005 121.6L89.3005 110.7C89.6005 110.4 89.8004 110.1 90.2004 109.8C90.5004 110.1 90.7004 110.3 91.0004 110.6L104.8 127.6C107.3 130.7 106.8 135.3 103.7 137.8L103.2 138.2C100.1 140.7 95.5004 140.2 93.0004 137.1L90.1005 133.6ZM90.1005 133.6L91.7004 131.7C91.7004 131.7 88.5005 139.3 83.8005 143.8H95.8005C95.8005 143.8 90.0005 137.8 90.1005 133.6Z" stroke="#13110C" stroke-miterlimit="10"/>
<path d="M14.0002 24.0001V26.1001H9.30029V24.0001H10.8003L13.7002 8.50009H16.3003L19.2002 24.0001H20.7002V26.1001H16.0002V24.0001H17.0002L16.7002 22.2001H13.2002L12.9001 24.0001H14.0002ZM13.7002 20.0001H16.4001L15.0002 12.8001L13.7002 20.0001Z" fill="#13110C"/>
<path d="M160.301 231.6V229.5H165V231.6H163.5L160.601 247.1H158L155.101 231.6H153.601V229.5H158.301V231.6H157.301L157.601 233.4H161.101L161.4 231.6H160.301ZM160.601 235.6H157.9L159.301 242.8L160.601 235.6Z" fill="#13110C"/>
<path d="M16.5002 40.5001L15.0002 42.3001C13.7002 43.8001 11.5002 44.1001 10.0002 42.8001L9.70019 42.6001C8.20019 41.3001 7.90019 39.1001 9.20019 37.6001L11.6003 34.6001L16.0002 29.2001C16.1002 29.0001 16.3001 28.9001 16.4001 28.8001C16.5001 28.9001 16.7003 29.1001 16.8003 29.2001L23.6003 37.6001C24.8003 39.1001 24.6003 41.4001 23.1003 42.6001L22.8003 42.8001C21.3003 44.0001 19.0003 43.8001 17.8003 42.3001L16.5002 40.5001L17.3003 39.6001C17.3003 39.6001 15.7001 43.4001 13.4001 45.6001H19.3003C19.3003 45.5001 16.4002 42.6001 16.5002 40.5001Z" fill="#13110C"/>
<path d="M16.5002 40.5001L15.0002 42.3001C13.7002 43.8001 11.5002 44.1001 10.0002 42.8001L9.70019 42.6001C8.20019 41.3001 7.90019 39.1001 9.20019 37.6001L11.6003 34.6001L16.0002 29.2001C16.1002 29.0001 16.3001 28.9001 16.4001 28.8001C16.5001 28.9001 16.7003 29.1001 16.8003 29.2001L23.6003 37.6001C24.8003 39.1001 24.6003 41.4001 23.1003 42.6001L22.8003 42.8001C21.3003 44.0001 19.0003 43.8001 17.8003 42.3001L16.5002 40.5001ZM16.5002 40.5001L17.3003 39.6001C17.3003 39.6001 15.7001 43.4001 13.4001 45.6001H19.3003C19.3003 45.5001 16.4002 42.6001 16.5002 40.5001Z" stroke="#13110C" stroke-miterlimit="10"/>
<path d="M161.9 213.2L163.4 211.4C164.7 209.9 166.9 209.6 168.4 210.9L168.7 211.1C170.2 212.4 170.5 214.6 169.2 216.1L166.8 219.1L162.4 224.5C162.3 224.7 162.1 224.8 162 224.9C161.9 224.8 161.7 224.6 161.6 224.5L154.8 216.1C153.6 214.6 153.8 212.3 155.3 211.1L155.6 210.9C157.1 209.7 159.4 209.9 160.6 211.4L161.9 213.2L161.1 214.1C161.1 214.1 162.7 210.3 165 208.1H159.1C159 208.2 161.9 211.1 161.9 213.2Z" fill="#13110C"/>
<path d="M161.9 213.2L163.4 211.4C164.7 209.9 166.9 209.6 168.4 210.9L168.7 211.1C170.2 212.4 170.5 214.6 169.2 216.1L166.8 219.1L162.4 224.5C162.3 224.7 162.1 224.8 162 224.9C161.9 224.8 161.7 224.6 161.6 224.5L154.8 216.1C153.6 214.6 153.8 212.3 155.3 211.1L155.6 210.9C157.1 209.7 159.4 209.9 160.6 211.4L161.9 213.2ZM161.9 213.2L161.1 214.1C161.1 214.1 162.7 210.3 165 208.1H159.1C159 208.2 161.9 211.1 161.9 213.2Z" stroke="#13110C" stroke-miterlimit="10"/>
</svg>
