<svg width="181" height="253" viewBox="0 0 181 253" fill="none" xmlns="http://www.w3.org/2000/svg">
<path d="M179.9 231.1C179.9 242.9 173.1 252.5 164.7 252.5H16.4003C8.00027 252.5 1.2002 242.9 1.2002 231.1V21.9C1.2002 10.1 8.00027 0.5 16.4003 0.5H164.7C173.1 0.5 179.9 10.1 179.9 21.9V231.1Z" fill="white" stroke="#1D1D1B" stroke-miterlimit="10"/>
<path d="M50.3002 57.9C50.7002 57.6 51.0002 57.2 51.3002 56.9L61.9002 44L67.7001 36.9C70.7001 33.3 70.2002 27.9 66.5002 24.9L65.9002 24.4C62.3002 21.4 56.9002 21.9 53.9002 25.6L50.4002 29.8L47.0002 25.6C44.0002 22 38.7002 21.4 35.0002 24.3L34.4002 24.8C30.8002 27.8 30.2001 33.1 33.2001 36.8L49.4002 56.8C49.7002 57.3 50.0002 57.6 50.3002 57.9Z" fill="#E30B13"/>
<path d="M128.3 57.9C128.7 57.6 129 57.2 129.3 56.9L139.9 44L145.7 36.9C148.7 33.3 148.2 27.9 144.5 24.9L143.9 24.4C140.3 21.4 134.9 21.9 131.9 25.6L128.4 29.8L125 25.6C122 22 116.7 21.4 113 24.3L112.4 24.8C108.8 27.8 108.2 33.1 111.1 36.8L127.3 56.8C127.7 57.3 128 57.6 128.3 57.9Z" fill="#E30B13"/>
<path d="M50.3002 146.2C50.7002 145.9 51.0002 145.5 51.3002 145.2L61.9002 132.3L67.7001 125.2C70.7001 121.6 70.2002 116.2 66.5002 113.2L65.9002 112.7C62.3002 109.7 56.9002 110.2 53.9002 113.9L50.4002 118.1L47.0002 113.9C44.0002 110.3 38.7002 109.7 35.0002 112.6L34.4002 113.1C30.8002 116.1 30.2001 121.4 33.2001 125.1L49.4002 145.1C49.7002 145.6 50.0002 145.9 50.3002 146.2Z" fill="#E30B13"/>
<path d="M128.3 146.2C128.7 145.9 129 145.5 129.3 145.2L139.9 132.3L145.7 125.2C148.7 121.6 148.2 116.2 144.5 113.2L143.9 112.7C140.3 109.7 134.9 110.2 131.9 113.9L128.4 118.1L125 113.9C122 110.3 116.7 109.7 113 112.6L112.4 113.1C108.8 116.1 108.2 121.4 111.1 125.1L127.3 145.1C127.7 145.6 128 145.9 128.3 146.2Z" fill="#E30B13"/>
<path d="M50.0999 197.1C49.6999 197.4 49.3999 197.8 49.0999 198.1L38.5 211L32.6999 218.1C29.6999 221.7 30.2 227.1 33.9 230.1L34.5 230.6C38.1 233.6 43.5 233.1 46.5 229.4L50 225.2L53.4 229.4C56.4 233 61.7 233.6 65.4 230.7L66 230.2C69.5999 227.2 70.1999 221.9 67.1999 218.2L51 198.2C50.7 197.7 50.3999 197.4 50.0999 197.1Z" fill="#E30B13"/>
<path d="M128.6 197.1C128.2 197.4 127.9 197.8 127.6 198.1L117 211L111.2 218.1C108.2 221.7 108.7 227.1 112.4 230.1L113 230.6C116.6 233.6 122 233.1 125 229.4L128.5 225.2L131.9 229.4C134.9 233 140.2 233.6 143.9 230.7L144.5 230.2C148.1 227.2 148.7 221.9 145.8 218.2L129.6 198.2C129.2 197.7 128.9 197.4 128.6 197.1Z" fill="#E30B13"/>
<path d="M89.2005 101.1C89.6005 100.8 89.9005 100.4 90.2005 100.1L100.801 87.2L106.6 80.1C109.6 76.5 109.101 71.1 105.401 68.1L104.801 67.6C101.201 64.6 95.8006 65.1 92.8006 68.8L89.3006 73L85.9005 68.8C82.9005 65.2 77.6005 64.6 73.9005 67.5L73.3006 68C69.7006 71 69.1005 76.3 72.1005 80L88.3006 100C88.5006 100.5 88.8005 100.8 89.2005 101.1Z" fill="#E30B13"/>
<path d="M15.5001 47.8C15.7001 47.6 15.8001 47.5 16.0001 47.3L21.2001 40.9L24.1001 37.4C25.6001 35.6 25.3001 32.9 23.5001 31.5L23.2001 31.2C21.4001 29.7 18.7001 30 17.3001 31.8L15.6001 33.9L13.9001 31.8C12.4001 30 9.8001 29.7 8.0001 31.2L7.70005 31.5C5.90005 33 5.60008 35.6 7.10008 37.4L15.2001 47.3C15.2001 47.5 15.3001 47.7 15.5001 47.8Z" fill="#E30B13"/>
<path d="M160.1 204.8C159.9 205 159.8 205.1 159.6 205.3L154.4 211.7L151.5 215.2C150 217 150.3 219.7 152.1 221.1L152.4 221.4C154.2 222.9 156.901 222.6 158.301 220.8L160 218.7L161.7 220.8C163.2 222.6 165.8 222.9 167.6 221.4L167.9 221.1C169.7 219.6 170 217 168.5 215.2L160.4 205.3C160.4 205.1 160.2 204.9 160.1 204.8Z" fill="#E30B13"/>
<path d="M11 12.2V7.5H21.3L22.5 9.5C19.6 13.6 17.6 18.8 16.5 25H14C15 19.3 16.7 14.3 19.2 10H13.4V12.2H11Z" fill="#E30B13"/>
<path d="M165.1 240.3V245H154.8L153.6 243C156.5 238.9 158.5 233.7 159.6 227.5H162.1C161.1 233.2 159.4 238.2 156.9 242.5H162.7V240.3H165.1Z" fill="#E30B13"/>
</svg>
