<svg width="181" height="253" viewBox="0 0 181 253" fill="none" xmlns="http://www.w3.org/2000/svg">
<path d="M180 231.1C180 242.9 173.2 252.5 164.8 252.5H16.4998C8.09976 252.5 1.2998 242.9 1.2998 231.1V21.9C1.2998 10.1 8.09976 0.5 16.4998 0.5H164.8C173.2 0.5 180 10.1 180 21.9V231.1Z" fill="white" stroke="#1D1D1B" stroke-miterlimit="10"/>
<path d="M50.3998 57.9C50.7998 57.6 51.0998 57.2 51.3998 56.9L61.9998 44L67.7998 36.9C70.7998 33.3 70.2997 27.9 66.5997 24.9L65.9998 24.4C62.3998 21.4 56.9998 21.9 53.9998 25.6L50.4998 29.8L47.0997 25.6C44.0997 22 38.7997 21.4 35.0997 24.3L34.4998 24.8C30.8998 27.8 30.2997 33.1 33.1997 36.8L49.3998 56.8C49.7998 57.3 50.0998 57.6 50.3998 57.9Z" fill="#E30B13"/>
<path d="M128.4 57.9C128.8 57.6 129.1 57.2 129.4 56.9L140 44L145.8 36.9C148.8 33.3 148.3 27.9 144.6 24.9L144 24.4C140.4 21.4 135 21.9 132 25.6L128.5 29.8L125.1 25.6C122.1 22 116.8 21.4 113.1 24.3L112.5 24.8C108.9 27.8 108.3 33.1 111.2 36.8L127.4 56.8C127.8 57.3 128.1 57.6 128.4 57.9Z" fill="#E30B13"/>
<path d="M51.4998 116C51.8998 115.7 52.1998 115.3 52.4998 115L63.0998 102.1L68.8999 95C71.8999 91.4 71.3998 86 67.6998 83L67.0998 82.5C63.4998 79.5 58.0998 80 55.0998 83.7L51.5998 87.9L48.1998 83.7C45.1998 80.1 39.8998 79.5 36.1998 82.4L35.5998 82.9C31.9998 85.9 31.3999 91.2 34.3999 94.9L50.5998 114.9C50.8998 115.4 51.1998 115.7 51.4998 116Z" fill="#E30B13"/>
<path d="M129.5 116C129.9 115.7 130.2 115.3 130.5 115L141.1 102.1L146.9 95C149.9 91.4 149.4 86 145.7 83L145.1 82.5C141.5 79.5 136.1 80 133.1 83.7L129.6 87.9L126.2 83.7C123.2 80.1 117.9 79.5 114.2 82.4L113.6 82.9C110 85.9 109.4 91.2 112.3 94.9L128.5 114.9C128.9 115.4 129.2 115.7 129.5 116Z" fill="#E30B13"/>
<path d="M50.0999 197.1C49.6999 197.4 49.3999 197.8 49.0999 198.1L38.5 211L32.6999 218.1C29.6999 221.7 30.2 227.1 33.9 230.1L34.5 230.6C38.1 233.6 43.5 233.1 46.5 229.4L50 225.2L53.4 229.4C56.4 233 61.7 233.6 65.4 230.7L66 230.2C69.5999 227.2 70.2 221.9 67.3 218.2L51.0999 198.2C50.7999 197.7 50.4999 197.4 50.0999 197.1Z" fill="#E30B13"/>
<path d="M128.6 197.1C128.2 197.4 127.9 197.8 127.6 198.1L117 211L111.2 218.1C108.2 221.7 108.7 227.1 112.4 230.1L113 230.6C116.6 233.6 122 233.1 125 229.4L128.5 225.2L131.9 229.4C134.9 233 140.2 233.6 143.9 230.7L144.5 230.2C148.1 227.2 148.7 221.9 145.8 218.2L129.6 198.2C129.3 197.7 129 197.4 128.6 197.1Z" fill="#E30B13"/>
<path d="M15.8995 47.8C16.0995 47.6 16.1995 47.5 16.3995 47.3L21.5995 40.9L24.4995 37.4C25.9995 35.6 25.6995 32.9 23.8995 31.5L23.5995 31.2C21.7995 29.7 19.0994 30 17.6994 31.8L15.9995 33.9L14.2995 31.8C12.7995 30 10.1995 29.7 8.39951 31.2L8.09947 31.5C6.29947 33 5.99949 35.6 7.49949 37.4L15.5995 47.3C15.5995 47.5 15.7995 47.7 15.8995 47.8Z" fill="#E30B13"/>
<path d="M160.2 204.8C160 205 159.9 205.1 159.7 205.3L154.5 211.7L151.6 215.2C150.1 217 150.4 219.7 152.2 221.1L152.5 221.4C154.3 222.9 157 222.6 158.4 220.8L160.1 218.7L161.8 220.8C163.3 222.6 165.9 222.9 167.7 221.4L168 221.1C169.8 219.6 170.1 217 168.6 215.2L160.5 205.3C160.5 205.1 160.3 204.9 160.2 204.8Z" fill="#E30B13"/>
<path d="M51.4998 140C51.0998 140.3 50.7998 140.7 50.4998 141L39.8999 153.9L34.0998 161C31.0998 164.6 31.5999 170 35.2999 173L35.8999 173.5C39.4999 176.5 44.8999 176 47.8999 172.3L51.3999 168.1L54.7999 172.3C57.7999 175.9 63.0999 176.5 66.7999 173.6L67.3999 173.1C70.9999 170.1 71.5998 164.8 68.6998 161.1L52.4998 141.1C52.0998 140.6 51.7998 140.3 51.4998 140Z" fill="#E30B13"/>
<path d="M130 140C129.6 140.3 129.3 140.7 129 141L118.4 153.9L112.6 161C109.6 164.6 110.1 170 113.8 173L114.4 173.5C118 176.5 123.4 176 126.4 172.3L129.9 168.1L133.3 172.3C136.3 175.9 141.6 176.5 145.3 173.6L145.9 173.1C149.5 170.1 150.1 164.8 147.2 161.1L131 141.1C130.7 140.6 130.3 140.3 130 140Z" fill="#E30B13"/>
<path d="M90.4998 145.2C90.8998 144.9 91.1998 144.5 91.4998 144.2L102.1 131.3L107.9 124.2C110.9 120.6 110.4 115.2 106.7 112.2L106.1 111.7C102.5 108.7 97.0998 109.2 94.0998 112.9L90.5998 117.1L87.1998 112.9C84.1998 109.3 78.8998 108.7 75.1998 111.6L74.5998 112.1C70.9998 115.1 70.3999 120.4 73.2999 124.1L89.4998 144.1C89.8998 144.5 90.1998 144.9 90.4998 145.2Z" fill="#E30B13"/>
<path d="M88.6995 87.3C89.0995 87 89.3995 86.6 89.6995 86.3L100.3 73.4L106.099 66.3C109.099 62.7 108.6 57.3 104.9 54.3L104.3 53.8C100.7 50.8 95.2996 51.3 92.2996 55L88.7996 59.2L85.3995 55C82.3995 51.4 77.0995 50.8 73.3995 53.7L72.7996 54.2C69.1996 57.2 68.5995 62.5 71.4995 66.2L87.6995 86.2C88.0995 86.7 88.3995 87 88.6995 87.3Z" fill="#E30B13"/>
<path d="M88.9998 169.8C88.5998 170.1 88.2998 170.5 87.9998 170.8L77.3999 183.7L71.5998 190.8C68.5998 194.4 69.0999 199.8 72.7999 202.8L73.3999 203.3C76.9999 206.3 82.3999 205.8 85.3999 202.1L88.8999 197.9L92.2999 202.1C95.2999 205.7 100.6 206.3 104.3 203.4L104.9 202.9C108.5 199.9 109.1 194.6 106.2 190.9L89.9998 170.9C89.5998 170.5 89.2998 170.1 88.9998 169.8Z" fill="#E30B13"/>
<path d="M18.0997 25.5H9.2998V23.3H12.6997V11.8H9.2998V9.59998H14.7998V23.3H18.0997V25.5Z" fill="#E30B13"/>
<path d="M20.7998 20.3V14.7C20.7998 13.2 21.2998 12 22.2998 10.9C23.2998 9.79999 24.4998 9.29999 25.9998 9.29999C27.4998 9.29999 28.6997 9.79999 29.6997 10.9C30.6997 12 31.1997 13.2 31.1997 14.7V20.3C31.1997 21.8 30.6997 23 29.6997 24.1C28.6997 25.2 27.4998 25.7 25.9998 25.7C24.4998 25.7 23.2998 25.2 22.2998 24.1C21.2998 23.1 20.7998 21.8 20.7998 20.3ZM22.9998 14.7V20.3C22.9998 21.2 23.2998 21.9 23.8998 22.6C24.4998 23.2 25.1998 23.6 25.9998 23.6C26.7998 23.6 27.4997 23.3 28.0997 22.6C28.6997 22 28.9998 21.2 28.9998 20.4V14.8C28.9998 14 28.6997 13.2 28.0997 12.6C27.4997 12 26.7998 11.7 25.9998 11.7C25.1998 11.7 24.4998 12 23.8998 12.6C23.2998 13.1 22.9998 13.8 22.9998 14.7Z" fill="#E30B13"/>
<path d="M160 229H168.8V231.2H165.4V242.6H168.8V244.8H163.3V231.1H160V229Z" fill="#E30B13"/>
<path d="M157.3 234.2V239.8C157.3 241.3 156.8 242.5 155.8 243.6C154.8 244.7 153.6 245.2 152.1 245.2C150.6 245.2 149.4 244.7 148.4 243.6C147.4 242.5 146.9 241.3 146.9 239.8V234.2C146.9 232.7 147.4 231.5 148.4 230.4C149.4 229.3 150.6 228.8 152.1 228.8C153.6 228.8 154.8 229.3 155.8 230.4C156.8 231.4 157.3 232.7 157.3 234.2ZM155.1 239.8V234.2C155.1 233.3 154.8 232.6 154.2 231.9C153.6 231.3 152.9 230.9 152.1 230.9C151.3 230.9 150.6 231.2 150 231.9C149.4 232.5 149.1 233.3 149.1 234.1V239.7C149.1 240.5 149.4 241.3 150 241.9C150.6 242.5 151.3 242.8 152.1 242.8C152.9 242.8 153.6 242.5 154.2 241.9C154.8 241.4 155.1 240.7 155.1 239.8Z" fill="#E30B13"/>
</svg>
