<svg width="181" height="253" viewBox="0 0 181 253" fill="none" xmlns="http://www.w3.org/2000/svg">
<path d="M180.1 231C180.1 242.8 173.3 252.4 164.9 252.4H16.6001C8.2001 252.4 1.3999 242.8 1.3999 231V21.9C1.3999 10.1 8.2001 0.5 16.6001 0.5H164.9C173.3 0.5 180.1 10.1 180.1 21.9V231Z" fill="white" stroke="#1D1D1B" stroke-miterlimit="10"/>
<path d="M90.2998 80.2001L101.1 87.2001L115.9 79.6001L103.3 72.9L90.2998 80.2001Z" fill="#E31013" stroke="#13110C" stroke-miterlimit="10"/>
<path d="M137.2 87.2001L137.5 125.3H133.6C133.6 125.3 129.4 121.1 124.7 120.4C124.7 120.4 120.4 99.1001 137.2 87.2001Z" fill="#13110C" stroke="#13110C" stroke-miterlimit="10"/>
<path d="M75.2002 122H106.8" stroke="white" stroke-miterlimit="10"/>
<path d="M107.5 125.4C106.9 125 106.9 123.2 106.9 123.2L75.5 123C75.5 123 76.1 124.5 76.3 125.5L107.5 125.4Z" fill="#13110C" stroke="#13110C" stroke-miterlimit="10"/>
<path d="M45.3999 118.5H73.6001V99.3C73.6001 99.3 63.7001 89.2001 57.1001 85.1001C57.1001 85.1001 49.1999 89.6001 45.3999 92.2001V118.5Z" fill="white" stroke="#13110C" stroke-miterlimit="10"/>
<path d="M54.5 87.8H59" stroke="#211C4B" stroke-miterlimit="10"/>
<path d="M50.7998 89.6001H61.6997" stroke="#211C4B" stroke-miterlimit="10"/>
<path d="M47 93H64.6001" stroke="#211C4B" stroke-miterlimit="10"/>
<path d="M47.8999 91.4H63.5" stroke="#211C4B" stroke-miterlimit="10"/>
<path d="M46.7998 94.6001H66.7998" stroke="#211C4B" stroke-miterlimit="10"/>
<path d="M46.7002 96.4H69.0002" stroke="#211C4B" stroke-miterlimit="10"/>
<path d="M46.7002 98H70.7002" stroke="#211C4B" stroke-miterlimit="10"/>
<path d="M46.7002 99.7001H72.4001" stroke="#211C4B" stroke-miterlimit="10"/>
<path d="M46.7002 101.5H72.5002" stroke="#211C4B" stroke-miterlimit="10"/>
<path d="M46.6001 103.2H72.3" stroke="#211C4B" stroke-miterlimit="10"/>
<path d="M46.6001 105H72.3" stroke="#211C4B" stroke-miterlimit="10"/>
<path d="M46.3999 106.7H72.1001" stroke="#211C4B" stroke-miterlimit="10"/>
<path d="M46.6001 108.2H72.3" stroke="#211C4B" stroke-miterlimit="10"/>
<path d="M46.3999 110H72.1001" stroke="#211C4B" stroke-miterlimit="10"/>
<path d="M46.3999 111.7H72.1001" stroke="#211C4B" stroke-miterlimit="10"/>
<path d="M46.2002 113.5H72.0002" stroke="#211C4B" stroke-miterlimit="10"/>
<path d="M46.3999 115.2H72.2" stroke="#211C4B" stroke-miterlimit="10"/>
<path d="M46.2998 117H71.9998" stroke="#211C4B" stroke-miterlimit="10"/>
<path d="M151.8 28.6001H31.7002V222.2H151.8V28.6001Z" stroke="#13110C" stroke-miterlimit="10"/>
<path d="M120.3 43.9C123.8 35.1 131.7 28.5 131.7 28.5H65.1001C65.1001 28.5 74.2 39.1 75.5 42.3C75.5 42.3 102.4 34.2 120.3 43.9Z" fill="#FFEA24" stroke="#13110C" stroke-miterlimit="10"/>
<path d="M118.9 46.7C102.2 39.6 77.3 45.1001 77.3 45.1001L75.5 42.3C75.5 42.3 97.6 35 120.3 43.9L118.9 46.7Z" fill="#E31013" stroke="#13110C" stroke-miterlimit="10"/>
<path d="M118.9 46.7001L117.8 50.2001C101.9 43.6001 79.2998 48.9001 79.2998 48.9001L77.2998 45.1001C77.2998 45.1001 102.9 39.7001 118.9 46.7001Z" fill="#13110C" stroke="#13110C" stroke-miterlimit="10"/>
<path d="M83.1001 37.6001H94.3999C94.3999 37.6001 88.9 35.9001 88.7 35.1001C88.5 34.3001 87.9001 35.8001 83.1001 37.6001Z" fill="#211C4B"/>
<path d="M102.4 37.7001L113.7 38.5C113.7 38.5 108.4 36.4001 108.2 35.6001C108.1 34.8001 107.4 36.2001 102.4 37.7001Z" fill="#211C4B"/>
<path d="M81.5 36.9C81.5 37.7 80.8 38.4 80 38.4C79.2 38.4 78.5 37.7 78.5 36.9C78.5 36.1 79.2 35.4 80 35.4C80.8 35.4 81.5 36.1 81.5 36.9Z" fill="#211C4B"/>
<path d="M99.3999 36.2001C99.3999 37.0001 98.6999 37.7001 97.8999 37.7001C97.0999 37.7001 96.3999 37.0001 96.3999 36.2001C96.3999 35.4001 97.0999 34.7001 97.8999 34.7001C98.6999 34.8001 99.3999 35.4001 99.3999 36.2001Z" fill="#211C4B"/>
<path d="M118.1 38.4C118.1 39.2 117.4 39.9 116.6 39.9C115.8 39.9 115.1 39.2 115.1 38.4C115.1 37.6 115.8 36.9 116.6 36.9C117.5 36.9 118.1 37.6 118.1 38.4Z" fill="#211C4B"/>
<path d="M90 32.5C90 33.2 89.4 33.8 88.7 33.8C88 33.8 87.3999 33.2 87.3999 32.5C87.3999 31.8 88 31.2001 88.7 31.2001C89.4 31.3001 90 31.8 90 32.5Z" fill="#211C4B"/>
<path d="M108.8 32.5C108.8 33.2 108.2 33.8 107.5 33.8C106.8 33.8 106.2 33.2 106.2 32.5C106.2 31.8 106.8 31.2001 107.5 31.2001C108.2 31.3001 108.8 31.8 108.8 32.5Z" fill="#211C4B"/>
<path d="M80.6997 32.5C80.6997 33.9 80.3998 35 79.9998 35C79.5998 35 79.2998 33.9 79.2998 32.5C79.2998 31.1 79.5998 30 79.9998 30C80.3998 30.1 80.6997 31.2 80.6997 32.5Z" fill="#211C4B"/>
<path d="M83.6001 34C82.6001 34.9 81.4999 35.3 81.1999 35C80.8999 34.7 81.6001 33.7 82.6001 32.8C83.6001 31.9 84.7 31.5 85 31.8C85.2 32.2 84.6001 33.1 83.6001 34Z" fill="#211C4B"/>
<path d="M76.3997 34C75.3997 33.1 74.6998 32.2 74.9998 31.8C75.2998 31.5 76.2997 31.9 77.3997 32.8C78.3997 33.7 79.0998 34.6 78.7998 35C78.4998 35.4 77.3997 34.9 76.3997 34Z" fill="#211C4B"/>
<path d="M98.6997 31.9C98.6997 33.3 98.3998 34.4 97.9998 34.4C97.5998 34.4 97.2998 33.3 97.2998 31.9C97.2998 30.5 97.5998 29.4 97.9998 29.4C98.3998 29.4 98.6997 30.5 98.6997 31.9Z" fill="#211C4B"/>
<path d="M101.5 33.3C100.5 34.2 99.4004 34.6 99.1004 34.3C98.8004 34 99.5003 33.0001 100.5 32.1001C101.5 31.2001 102.6 30.8001 102.9 31.1001C103.2 31.5001 102.5 32.5 101.5 33.3Z" fill="#211C4B"/>
<path d="M94.3003 33.3C93.3003 32.4 92.6001 31.5001 92.9001 31.1001C93.2001 30.8001 94.2003 31.2001 95.3003 32.1001C96.3003 33.0001 97.0002 33.9 96.7002 34.3C96.4002 34.7 95.4003 34.2 94.3003 33.3Z" fill="#211C4B"/>
<path d="M117.8 33.1001C117.7 34.5001 117.3 35.5 116.9 35.5C116.5 35.5 116.2 34.4 116.3 33C116.4 31.6 116.8 30.6001 117.2 30.6001C117.6 30.6001 117.9 31.7001 117.8 33.1001Z" fill="#211C4B"/>
<path d="M120.5 34.7001C119.4 35.5001 118.3 35.9001 118.1 35.6001C117.9 35.3001 118.5 34.3 119.6 33.5C120.7 32.7 121.8 32.3001 122 32.6001C122.3 33.0001 121.6 33.9001 120.5 34.7001Z" fill="#211C4B"/>
<path d="M113.4 34.4001C112.4 33.5001 111.8 32.5001 112.1 32.2001C112.4 31.9001 113.4 32.4001 114.4 33.3001C115.4 34.2001 116 35.2001 115.7 35.5001C115.4 35.8001 114.3 35.3001 113.4 34.4001Z" fill="#211C4B"/>
<path d="M72.3999 36.1001C72.4999 36.1001 76.3001 37.6 77.6001 36.3" stroke="#211C4B" stroke-miterlimit="10"/>
<path d="M82.7002 36.2001C82.7002 36.2001 85.8003 36 87.3003 34.4" stroke="#211C4B" stroke-miterlimit="10"/>
<path d="M90.2002 34.3C90.2002 34.3 93.1002 36.7001 95.2002 36.6001" stroke="#211C4B" stroke-miterlimit="10"/>
<path d="M101.4 36.8C101.4 36.8 105.2 36 106.4 34.5" stroke="#211C4B" stroke-miterlimit="10"/>
<path d="M109.6 34.9C109.6 34.9 111.5 37.3001 114 37.7001" stroke="#211C4B" stroke-miterlimit="10"/>
<path d="M119.4 38.4C119.4 38.4 121.9 38.3 123.3 36.5" stroke="#211C4B" stroke-miterlimit="10"/>
<path d="M105.2 76C105.2 76 105.3 83 101.4 82.8C101.4 82.8 92.2997 82.7 89.8997 79.8C89.8997 79.8 77.8999 82.4 74.0999 79.4C74.0999 79.4 68.3998 75.1 73.4998 69.8L74.4998 69.3C74.4998 69.3 73.5997 65.7 76.8997 66.5L76.7999 63C76.7999 63 73.6999 61.9 75.7999 59.3C75.7999 59.3 77.5999 57.7001 77.7999 53.6001C77.7999 53.6001 77.3999 49.3 79.2999 48.9C79.2999 48.9 79.4999 48.9 79.7999 48.8C83.3999 48 104.4 44.1 117.7 50.2C117.7 50.2 122.3 55.5 121.1 66.9L121.3 68.2C121.3 68.2 126.2 66.9 127 68.5C127 68.5 130.4 74.9001 124.5 76.6001L111.5 81.1001C111.7 81.1001 107.3 80.9 105.2 76Z" fill="#AFA3C7" stroke="#13120D" stroke-miterlimit="10"/>
<path d="M103 47.7001C103 47.7001 105 64.1001 103.4 67.8001C103.4 67.8001 97.9001 76.6001 93.5001 78.3001C93.5001 78.3001 83.2 81.5 79.4 73C79.4 73 78.3 54.2001 79.4 51.1001L79.8002 48.8001C79.9002 48.8001 96.6001 45.5001 103 47.7001Z" fill="#FED68A" stroke="#13110C" stroke-miterlimit="10"/>
<path d="M91.7002 51.9C91.7002 51.9 99.7003 49.8001 102.6 53.3001" stroke="#13110C" stroke-miterlimit="10"/>
<path d="M80 51.8C80 51.8 84.6 50.7 87.2 51.8C87.2 51.8 88.1 61.1001 87.2 62.2001C87.2 62.2001 84.2001 65.5001 87.6001 66.2001C87.6001 66.2001 89.9999 64.6001 90.8999 66.2001C90.8999 66.2001 95.4 66.5 92 63" stroke="#13110C" stroke-miterlimit="10"/>
<path d="M82.1998 68.9C82.1998 68.9 82.8997 66.6001 80.8997 67.6001C80.8997 67.6001 79.2998 71.1001 82.9998 70.6001C82.9998 70.6001 87.2998 69.1 88.4998 68" stroke="#13110C" stroke-miterlimit="10"/>
<path d="M90.6001 68.2001C90.6001 68.2001 95.0999 71.0001 97.3999 70.7001C97.3999 70.7001 100.4 68.9 98.3999 68C98.3999 68 96.4001 67.2001 97.1001 69.1001" stroke="#13110C" stroke-miterlimit="10"/>
<path d="M85.2998 72.5H94.1997" stroke="#13110C" stroke-miterlimit="10"/>
<path d="M88.2002 72H91.7002" stroke="#13110C" stroke-miterlimit="10"/>
<path d="M88.2002 72.9H91.5002" stroke="#13110C" stroke-miterlimit="10"/>
<path d="M87.7998 74.2001C87.7998 74.2001 89.5998 76.7001 91.4998 74.2001" stroke="#13110C" stroke-miterlimit="10"/>
<path d="M101.6 57.3001C96.1001 52.3001 91.5 57.3001 91.5 57.3001C91.5 57.3001 93.3001 60.0001 101.6 57.3001Z" stroke="#13110C" stroke-miterlimit="10"/>
<path d="M92.7002 58.7001C92.7002 58.7001 94.0002 61.8 97.2002 61.5" stroke="#13110C" stroke-miterlimit="10"/>
<path d="M86.6997 56.4001C82.1997 54.1001 79.7998 56.8001 79.7998 56.8001C79.7998 56.8001 79.7997 60.3001 86.6997 58.0001C86.6997 58.0001 87.4997 56.8001 86.6997 56.4001Z" stroke="#13110C" stroke-miterlimit="10"/>
<path d="M85.8999 59.3C85.8999 59.3 83 61.2 81 60.9" stroke="#13110C" stroke-miterlimit="10"/>
<path d="M97.8999 56.8C97.8999 57.1 97.1999 57.4 96.3999 57.4C95.5999 57.4 94.8999 57.1 94.8999 56.8C94.8999 56.5 95.5999 56.2001 96.3999 56.2001C97.1999 56.3001 97.8999 56.5 97.8999 56.8Z" fill="#13110C" stroke="#13110C" stroke-miterlimit="10"/>
<path d="M84.4998 57.1001C84.4998 57.4001 83.7997 57.6001 82.8997 57.6001C81.9997 57.6001 81.2998 57.4001 81.2998 57.1001C81.2998 56.8001 81.9997 56.6001 82.8997 56.6001C83.7997 56.7001 84.4998 56.9001 84.4998 57.1001Z" fill="#13110C" stroke="#13110C" stroke-miterlimit="10"/>
<path d="M104.8 48.6001C104.8 48.6001 105.7 71.9 106.2 73C106.7 74.1 109.1 80.3 112.4 78.9C115.7 77.5 114.6 72.2 112.4 71" stroke="#13110C" stroke-width="0.5" stroke-miterlimit="10"/>
<path d="M106.6 48.9C106.6 48.9 106.5 74.2 110.2 76.4C110.2 76.4 113.2 77.5001 111.9 74.2001" stroke="#13110C" stroke-width="0.5" stroke-miterlimit="10"/>
<path d="M109.4 72.9C109.4 72.9 110.2 71.3 113.7 70C115.4 69.4 117.9 68.8 121.2 68.5" stroke="#13110C" stroke-width="0.5" stroke-miterlimit="10"/>
<path d="M115 78.8C115 78.8 118.3 74.6 114.1 69.9" stroke="#13110C" stroke-width="0.5" stroke-miterlimit="10"/>
<path d="M117.2 78.2001C117.2 78.2001 120.3 74.5 116.3 69.3" stroke="#13110C" stroke-width="0.5" stroke-miterlimit="10"/>
<path d="M119.3 77.4C119.3 77.4 122.2 73.7 118.3 68.9" stroke="#13110C" stroke-width="0.5" stroke-miterlimit="10"/>
<path d="M122 76.6001C122 76.6001 123.9 73.1001 120.8 68.6001" stroke="#13110C" stroke-width="0.5" stroke-miterlimit="10"/>
<path d="M124.1 75.8C124.1 75.8 126 72.8001 122.9 68.2001" stroke="#13110C" stroke-width="0.5" stroke-miterlimit="10"/>
<path d="M126 75.3C126 75.3 127.5 71.8001 125 67.7001" stroke="#13110C" stroke-width="0.5" stroke-miterlimit="10"/>
<path d="M108.5 49.2001C108.5 49.2001 108.9 71.1001 110.7 70.6001" stroke="#13110C" stroke-width="0.5" stroke-miterlimit="10"/>
<path d="M110.8 49.2001C110.8 49.2001 110.6 67.7 113 69.3" stroke="#13110C" stroke-width="0.5" stroke-miterlimit="10"/>
<path d="M113 49.7001C113 49.7001 112.9 67.7001 115.3 68.6001" stroke="#13110C" stroke-width="0.5" stroke-miterlimit="10"/>
<path d="M115.2 50.4C115.2 50.4 115.4 67.0001 117.8 68.1001" stroke="#13110C" stroke-width="0.5" stroke-miterlimit="10"/>
<path d="M117 51.7001C117 51.7001 117.9 67.3001 119.6 67.7001" stroke="#13110C" stroke-width="0.5" stroke-miterlimit="10"/>
<path d="M118.9 54.2001C118.9 54.2001 119.5 65.4001 120.3 66.1001" stroke="#13110C" stroke-width="0.5" stroke-miterlimit="10"/>
<path d="M93.2998 79.4C93.2998 79.4 101.1 82.0001 102.6 80.7001" stroke="#13110C" stroke-width="0.5" stroke-miterlimit="10"/>
<path d="M104.4 75.3C104.4 75.3 101.5 73.0001 99.7001 74.7001C97.9001 76.5001 98.2002 78.8 100.6 79.3C102.9 79.8 104.1 77.9001 103.1 77.1001C102.1 76.3001 100.9 75.9 100.8 77.4" stroke="#13110C" stroke-width="0.5" stroke-miterlimit="10"/>
<path d="M96 78.2001C96 78.2001 97.8999 79.7001 100.4 80.2001" stroke="#13110C" stroke-width="0.5" stroke-miterlimit="10"/>
<path d="M103.5 70.2001C103.5 70.2001 104.1 73.3001 105.7 74.7001" stroke="#13110C" stroke-width="0.5" stroke-miterlimit="10"/>
<path d="M77.3 73.7001C77.3 73.7001 73.8 73.1 74 75.3C74.2 77.4 76.7 78.1 77.3 76.8C77.9 75.5 78.6 72.1 78.5 71.3" stroke="#13110C" stroke-width="0.5" stroke-miterlimit="10"/>
<path d="M75.7998 78.8C75.7998 78.8 79.9997 77.4 79.3997 75" stroke="#13110C" stroke-width="0.5" stroke-miterlimit="10"/>
<path d="M78.1001 79.4C78.1001 79.4 80.7001 78.6001 80.6001 76.6001" stroke="#13110C" stroke-width="0.5" stroke-miterlimit="10"/>
<path d="M81 79.4C81 79.4 82.1 78.5 82 77.4" stroke="#13110C" stroke-width="0.5" stroke-miterlimit="10"/>
<path d="M82.8999 79.7001C82.8999 79.7001 83.5 78.9 83.5 78.4" stroke="#13110C" stroke-width="0.5" stroke-miterlimit="10"/>
<path d="M84.5 79.7001L84.7 78.8" stroke="#13110C" stroke-width="0.5" stroke-miterlimit="10"/>
<path d="M72.7002 74.8C72.7002 74.8 73.4003 71.4001 76.3003 72.1001C76.3003 72.1001 78.3003 71.7 78.1003 65.4V56.8" stroke="#13110C" stroke-width="0.5" stroke-miterlimit="10"/>
<path d="M74 70.7001C74 70.7001 77.1 70.3001 77 68.1001" stroke="#13110C" stroke-width="0.5" stroke-miterlimit="10"/>
<path d="M75.5 69C75.5 69 75.1001 66.9001 76.3001 67.7001" stroke="#13110C" stroke-width="0.5" stroke-miterlimit="10"/>
<path d="M76.9997 61.5C76.9997 61.5 75.4997 60.5 76.9997 59.5" stroke="#13110C" stroke-width="0.5" stroke-miterlimit="10"/>
<path d="M91.7002 125.4L151.8 125.3" stroke="#13110C" stroke-miterlimit="10"/>
<path d="M31.7002 125.4H91.7002" stroke="#13110C" stroke-miterlimit="10"/>
<path d="M147.5 109.6L148.7 52.3L142.6 45.3L137.2 52.3V109.6L141 117L147.5 109.6Z" fill="white" stroke="#13110C" stroke-miterlimit="10"/>
<path d="M145.8 111.5C146.6 107.9 148.9 110.1 148.9 110.1C151.2 112.4 147.7 115 147.7 115C143.8 116.8 142.4 114.2 142.4 114.2C141.9 113 141.2 113.6 141.2 113.6C139.9 115.6 137 115.8 137 115.8C134.5 115.7 132.5 112.7 134.1 110.5C135.7 108.3 137.2 109.7 137.6 110.5C138 111.3 136.8 112.4 136.8 112.4C136.8 112.4 139.2 112.9 140.1 112.1C140.1 112.1 141.8 110.6 143.5 112.2C143.6 112.2 146.1 113 145.8 111.5Z" fill="#FFEA24" stroke="#13110C" stroke-miterlimit="10"/>
<path d="M142.2 111C142.2 111 141.3 110 140.5 107.4C139.8 104.8 142.2 101.3 142.2 101.3C142.3 100 142.6 97.6 141.9 96.9C140 95.1 140.5 83.8001 140.9 83.2001C141.3 82.6001 142.6 75.2 141.6 74.4C140.6 73.5 139.8 65 141.3 61C142.9 57 142.2 49.7001 142.2 49.7001C142.2 49.7001 144.8 52.6001 143.5 61.2001C143.5 61.2001 143 69.2001 144.3 71.2001C144.3 71.2001 145.5 79.3 143.9 86.9C143.9 86.9 143.8 94.3 145.1 95.9C145.1 95.9 145.5 104.3 144.9 105.3C144.9 105.3 142.5 105.8 142.8 107.7C143.2 109.6 143.8 110.1 143.8 110.1L144 111.1L143.8 111.7L142.2 111Z" fill="#211C4B"/>
<path d="M146.4 130.5C144.4 134.3 139.3 133 139.3 133C135.6 132.4 134.2 125.6 134.2 125.6C132.6 117.7 136.7 116 136.7 116C136.7 116 140.7 113.4 148.8 116C148.8 116 150.9 117.2 148.8 118.7C148.8 118.7 151.3 120.4 149.7 121.7C149.7 121.7 151.9 123.6 149.8 125.2L146.4 130.5Z" fill="#FED68A" stroke="#13110C" stroke-miterlimit="10"/>
<path d="M142.2 118.9L148.7 118.4" stroke="#13110C" stroke-miterlimit="10"/>
<path d="M142.9 122L149.6 121.4" stroke="#13110C" stroke-miterlimit="10"/>
<path d="M143.4 125.4L150.4 124.2" stroke="#13110C" stroke-miterlimit="10"/>
<path d="M135.7 120.4C135.7 120.4 147 121 138.5 115.5" stroke="#13110C" stroke-miterlimit="10"/>
<path d="M143.7 134.6C143.7 136.1 142.5 137.3 141 137.3C139.5 137.3 138.3 136.1 138.3 134.6C138.3 133.1 139.5 131.9 141 131.9C142.5 131.9 143.7 133.1 143.7 134.6Z" fill="#FFEA24" stroke="#13110C" stroke-miterlimit="10"/>
<path d="M31.7002 103.8C34.3002 100.9 37.6002 98.1 41.0002 95.5C41.1002 95.5 41.1002 95.4 41.2002 95.4C54.9002 85.1 72.4001 77.6001 72.4001 77.6001" stroke="#13110C" stroke-miterlimit="10"/>
<path d="M40.7002 96V118.5L34.5002 125.3L31.7002 125.4V103.8L40.7002 96Z" fill="#E31013" stroke="#13110C" stroke-miterlimit="10"/>
<path d="M40.7002 118.5H45.4001V92.3L40.7002 95.6001V118.5Z" fill="#13110C" stroke="#13110C" stroke-miterlimit="10"/>
<path d="M72.4998 117.4C72.4998 124.3 66.8997 130 59.8997 130C52.8997 130 47.2998 124.4 47.2998 117.4C47.2998 111.5 51.3997 106.5 56.8997 105.2C57.8997 105 58.7997 104.8 59.8997 104.8C66.8997 104.8 72.4998 110.5 72.4998 117.4Z" fill="#211C4B" stroke="#13110C" stroke-miterlimit="10"/>
<path d="M63.2 105.2V114.7C63.2 114.7 69.6001 115.4 72.6001 117.8C73.0001 118.1 71.6001 122.2 71.6001 122.2C61.3001 117.9 48 121.3 48 121.3C47.5 120 47.3999 117.4 47.3999 117.4C51.4999 114.5 56.8999 114.7 56.8999 114.7V105.4C56.7999 105.4 60.3 104.1 63.2 105.2Z" fill="#FFEA24" stroke="#13110C" stroke-miterlimit="10"/>
<path d="M61.7 106.6V108H60.7V109.2H59.2V108.1H58.1001V106.8H59.2V105.8H60.8V106.7L61.7 106.6Z" fill="#E31013"/>
<path d="M61.7 111.2V112.5H60.7V113.7H59.2V112.6H58.1001V111.3H59.2V110.4H60.8V111.2H61.7Z" fill="#E31013"/>
<path d="M56.6001 116.5V117.8H55.6001V119.1H54.1001V118H53V116.6H54.1001V115.7H55.7L55.6001 116.6L56.6001 116.5Z" fill="#E31013"/>
<path d="M61.3997 116V117.3H60.3997V118.5H58.8997V117.4H57.7998V116.1H58.8997V115.2H60.4998V116H61.3997Z" fill="#E31013"/>
<path d="M66.6001 117V118.3H65.6001V119.5H64.1001V118.4H63V117.1H64.1001V116.1H65.7L65.6001 117H66.6001Z" fill="#E31013"/>
<path d="M70.7 118.5V119.4H70.1001V120.2H69.1001V119.5H68.3999V118.6H69.1001V118H70.1001V118.5H70.7Z" fill="#E31013"/>
<path d="M51.6003 118V118.8H50.9001V119.7H49.9001V118.9H49.2002V118H49.9001V117.4H51.0002V118H51.6003Z" fill="#E31013"/>
<path d="M64.1001 106.4L64 113.7C64 113.7 68.1 113.7 71.2 115.8" stroke="white" stroke-miterlimit="10"/>
<path d="M55.7002 106.1L55.8003 113.4C55.8003 113.4 51.7002 113.4 48.7002 115.5" stroke="white" stroke-miterlimit="10"/>
<path d="M54.7998 121.1C54.7998 121.1 59.2998 127.9 65.2998 121.1" stroke="#13110C" stroke-miterlimit="10"/>
<path d="M57 121.4C57 121.4 59.5999 125.2 62.8999 121.4" stroke="#FFEA24" stroke-miterlimit="10"/>
<path d="M52.2002 121.1C52.2002 121.1 55.1001 126.1 59.9001 126.2C59.9001 126.2 64.6003 126.4 67.3003 121.9" stroke="#13110C" stroke-miterlimit="10"/>
<path d="M50 121.7C50 121.7 54 128.8 60 128.3C60 128.3 64.6999 129.2 69.3999 123" stroke="#13110C" stroke-miterlimit="10"/>
<path d="M53.3999 121.7C53.3999 121.7 59.1001 129.2 66.6001 121.7" stroke="#FFEA24" stroke-miterlimit="10"/>
<path d="M51.5 122.2C51.5 122.2 58.7999 133.6 68.3999 122.2" stroke="#FFEA24" stroke-miterlimit="10"/>
<path d="M49.6001 123.1C49.6001 123.1 58.5999 136.9 70.3999 123.1" stroke="#FFEA24" stroke-miterlimit="10"/>
<path d="M62.5 105C64.6 101.3 60.1001 101.1 60.1001 101.1C56.2001 101.7 57.8999 104.8 57.8999 104.8C57.8999 104.8 61.5 104.3 62.5 105Z" fill="#E31013" stroke="#13110C" stroke-miterlimit="10"/>
<path d="M59.9998 101.1L57.7998 97.1001L59.9998 91.7001L62.4998 97.1001L60.6997 101.2L59.9998 101.1Z" fill="#FFEA24" stroke="#13110C" stroke-miterlimit="10"/>
<path d="M70.2998 103.3L65.8997 98.8L62.2998 101.2L70.2998 103.3Z" fill="#FFEA24" stroke="#13110C" stroke-miterlimit="10"/>
<path d="M50.3999 103.2L54.8999 98.7001L58.5 101.1L50.3999 103.2Z" fill="#FFEA24" stroke="#13110C" stroke-miterlimit="10"/>
<path d="M85.3 118.6C85.5 119 86.7 117.9 86.7 117.9C79.2 95.7 58.7 84.2001 58.7 84.2001L57 85.1001C57 85.1001 76.5 96.5001 85.3 118.6Z" fill="#FFEA24" stroke="#13110C" stroke-miterlimit="10"/>
<path d="M91.7 134.6C96.8362 134.6 101 130.436 101 125.3C101 120.164 96.8362 116 91.7 116C86.5637 116 82.3999 120.164 82.3999 125.3C82.3999 130.436 86.5637 134.6 91.7 134.6Z" fill="#211C4B" stroke="#13110C" stroke-miterlimit="10"/>
<path d="M94.8 125.4C94.8 127 93.4999 128.3 91.8999 128.3C90.2999 128.3 89 127 89 125.4C89 123.8 90.2999 122.5 91.8999 122.5C93.4999 122.5 94.8 123.8 94.8 125.4Z" fill="#FFEA24"/>
<path d="M91.6999 118.1C90.7999 118.4 91.1001 120.9 91.1001 120.9H90.1001C90.1001 120.9 89.3 116.1 92 116.7C92 116.7 94.4001 116.6 93.6001 120.9H92.6001C92.5001 120.9 92.5999 117.7 91.6999 118.1Z" fill="white"/>
<path d="M97 120.3C96.1 119.9 94.6001 121.8 94.6001 121.8L93.8999 121.1C93.8999 121.1 96.7 117.2 98.2 119.5C98.2 119.5 99.8999 121.1 96.3999 123.5L95.7 122.8C95.6 122.8 97.9 120.7 97 120.3Z" fill="white"/>
<path d="M99.1003 125.7C98.8003 124.8 96.3003 125 96.3003 125V124C96.3003 124 101.1 123.3 100.4 126C100.4 126 100.4 128.4 96.2002 127.4V126.4C96.2002 126.5 99.4003 126.7 99.1003 125.7Z" fill="white"/>
<path d="M96.8997 130.8C97.3997 130 95.5999 128.2 95.5999 128.2L96.3997 127.6C96.3997 127.6 99.9999 130.8 97.5999 132C97.5999 132 95.7998 133.5 93.7998 129.8L94.5999 129.1C94.4999 129.2 96.3997 131.7 96.8997 130.8Z" fill="white"/>
<path d="M91.7999 132.8C92.6999 132.5 92.4999 130 92.4999 130H93.3998C93.3998 130 93.9999 134.8 91.4999 134.1C91.4999 134.1 89.2 134.1 90.1 129.9H91.1C91.1 130 90.8999 133.1 91.7999 132.8Z" fill="white"/>
<path d="M86.8999 130.8C87.7999 131.2 89.3999 129.3 89.3999 129.3L90.1001 130C90.1001 130 87.2 133.9 85.8 131.5C85.8 131.5 84.0999 129.8 87.6999 127.5L88.3999 128.2C88.2999 128.3 85.9999 130.4 86.8999 130.8Z" fill="white"/>
<path d="M84.4997 125.6C84.7997 126.5 87.2997 126.2 87.2997 126.2V127.2C87.2997 127.2 82.4998 128 83.0998 125.4C83.0998 125.4 82.9997 123 87.2997 123.8V124.8C87.1997 124.8 84.0997 124.7 84.4997 125.6Z" fill="white"/>
<path d="M86.4 120.2C86.1 121.1 88.2001 122.4 88.2001 122.4L87.6002 123.2C87.6002 123.2 83.4001 120.9 85.5001 119.2C85.5001 119.2 86.9001 117.3 89.7001 120.5L89.1002 121.3C89.1002 121.3 86.7 119.3 86.4 120.2Z" fill="white"/>
<path d="M73.5 118.5C73.5 118.5 75.3 121.6 76.3 125.4H73.5C73.5 125.4 72.9001 121.1 72.1001 120.5L73.5 118.5Z" fill="#FFEA24" stroke="#13110C" stroke-miterlimit="10"/>
<path d="M73.5002 125.5L69.7002 125.4C69.7002 125.4 72.4003 121.7 72.1003 120.6L73.5002 125.5Z" fill="#211C4B" stroke="#13110C" stroke-miterlimit="10"/>
<path d="M85.2 118.5C80.4 107 73.5 99.3 73.5 99.3V118.5L74.8999 121.3H83.3C83.3 121.3 84.4 118.7 85.3 118.6" fill="#E31013"/>
<path d="M85.2 118.5C80.4 107 73.5 99.3 73.5 99.3V118.5L74.8999 121.3H83.3C83.3 121.3 84.4 118.7 85.3 118.6" stroke="#13110C" stroke-miterlimit="10"/>
<path d="M75.2002 101.5V103.8L77.2002 104.1L75.2002 101.5Z" fill="#211C4B"/>
<path d="M80.2998 109.6L78.4998 106.8L78.2998 109.1" fill="#211C4B"/>
<path d="M83.3999 115.2L81.8 112.3L81.3999 114.5" fill="#211C4B"/>
<path d="M76.2 103L73.5 105" stroke="#211C4B" stroke-miterlimit="10"/>
<path d="M79.3999 108.2C79.3999 108.2 74.8999 111.6 73.8999 112.2L79.3999 108.2Z" fill="#211C4B"/>
<path d="M79.3999 108.2C79.3999 108.2 74.8999 111.6 73.8999 112.2" stroke="#211C4B" stroke-miterlimit="10"/>
<path d="M82.3999 113.7C82.3999 113.7 76.8999 117 74.8999 119.5L82.3999 113.7Z" fill="#211C4B"/>
<path d="M82.3999 113.7C82.3999 113.7 76.8999 117 74.8999 119.5" stroke="#211C4B" stroke-miterlimit="10"/>
<path d="M84.6001 118C84.6001 118 82.3001 119.8 81.6001 120.9L84.6001 118Z" fill="#211C4B"/>
<path d="M84.6001 118C84.6001 118 82.3001 119.8 81.6001 120.9" stroke="#211C4B" stroke-miterlimit="10"/>
<path d="M58.7002 84.2001C79.2002 96.0001 86.7002 117.5 86.7002 117.5C89.1002 115.5 91.7002 116 91.7002 116C90.4002 109.9 80.5002 80.8 80.5002 80.8C80.5002 80.8 74.9001 80.6 72.4001 77.4L58.7002 84.2001Z" fill="#13110C" stroke="#13110C" stroke-miterlimit="10"/>
<path d="M65.3999 85.9C66.1731 85.9 66.8 85.2732 66.8 84.5C66.8 83.7268 66.1731 83.1001 65.3999 83.1001C64.6267 83.1001 64 83.7268 64 84.5C64 85.2732 64.6267 85.9 65.3999 85.9Z" fill="white"/>
<path d="M80.3999 87.1001C80.3999 87.9001 79.7999 88.6001 78.8999 88.6001C78.0999 88.6001 77.3999 88.0001 77.3999 87.1001C77.3999 86.2001 77.9999 85.6001 78.8999 85.6001C79.7999 85.7001 80.3999 86.3001 80.3999 87.1001Z" fill="white"/>
<path d="M76.3999 94.9C76.3999 95.4 75.9999 95.9 75.3999 95.9C74.7999 95.9 74.3999 95.5 74.3999 94.9C74.3999 94.3 74.7999 93.9 75.3999 93.9C75.9999 93.9 76.3999 94.4 76.3999 94.9Z" fill="white"/>
<path d="M80.8999 99.7001C80.8999 100.2 80.5 100.6 80 100.6C79.5 100.6 79.1001 100.2 79.1001 99.7001C79.1001 99.2001 79.5 98.8 80 98.8C80.5 98.8 80.8999 99.2001 80.8999 99.7001Z" fill="white"/>
<path d="M73.2998 87.2001C74.1282 87.2001 74.7998 86.5285 74.7998 85.7001C74.7998 84.8716 74.1282 84.2001 73.2998 84.2001C72.4714 84.2001 71.7998 84.8716 71.7998 85.7001C71.7998 86.5285 72.4714 87.2001 73.2998 87.2001Z" fill="white"/>
<path d="M88.5 113.5C88.5 114.2 88 114.7 87.3 114.7C86.6 114.7 86.1001 114.2 86.1001 113.5C86.1001 112.8 86.6 112.3 87.3 112.3C88 112.3 88.5 112.8 88.5 113.5Z" fill="white"/>
<path d="M73.3002 85.7001C73.3002 85.7001 77.8 85.7001 74.4 81.8001C74.4 81.8001 67.6002 79.0001 69.3002 87.9001C69.3002 87.9001 71.8 93.8 80.9 91.5L77.6002 97.1001L83.0001 96.3001L83.2001 103.5C83.2001 103.5 89.8001 110.6 89.0001 112.8L87.8002 113.6" stroke="white" stroke-miterlimit="10"/>
<path d="M80.5 80.9L83 80.8C83 80.8 92.8001 110.7 93.6001 116.3L91.6001 116.1L80.5 80.9Z" fill="#FFEA24" stroke="#13110C" stroke-miterlimit="10"/>
<path d="M122.9 78.4C101.3 103.3 109.6 125.3 109.6 125.3H107.4C107.4 125.3 100 98.7001 121.1 77.7001L122.9 78.4Z" fill="#FFEA24" stroke="#13110C" stroke-miterlimit="10"/>
<path d="M125.3 79.4C119.1 85.5 113.8 96.4 113.8 96.4C106.9 111.8 112.3 125.3 112.3 125.3H109.7C102.9 97.6 123 78.4 123 78.4L125.3 79.4Z" fill="#211C4B" stroke="#13110C" stroke-miterlimit="10"/>
<path d="M112.3 125.3H114.2C114.2 125.3 116.5 122.3 120.4 120.8C120.4 120.8 113.9 101.4 133.8 83.5L125.4 79.3C125.3 79.4 104.4 99.3 112.3 125.3Z" fill="#E31013" stroke="#13110C" stroke-miterlimit="10"/>
<path d="M121.5 89.8001C120.1 91.8001 119.3 93.6 119.8 94C120.3 94.3 121.8 93.0001 123.2 91.1001C124.6 89.1001 125.4 87.3001 124.9 86.9001C124.4 86.5001 122.9 87.8001 121.5 89.8001Z" fill="#211C4B"/>
<path d="M118.3 93C118.908 93 119.4 92.5075 119.4 91.9C119.4 91.2925 118.908 90.8 118.3 90.8C117.693 90.8 117.2 91.2925 117.2 91.9C117.2 92.5075 117.693 93 118.3 93Z" fill="#211C4B"/>
<path d="M122.3 95.7001C122.908 95.7001 123.4 95.2076 123.4 94.6001C123.4 93.9926 122.908 93.5 122.3 93.5C121.693 93.5 121.2 93.9926 121.2 94.6001C121.2 95.2076 121.693 95.7001 122.3 95.7001Z" fill="#211C4B"/>
<path d="M116.7 100.3C115.6 102.4 115.1 104.4 115.6 104.7C116.1 105 117.4 103.5 118.6 101.3C119.7 99.2001 120.2 97.2 119.7 97C119.1 96.7 117.8 98.2001 116.7 100.3Z" fill="#211C4B"/>
<path d="M114.9 102.7C115 103.3 114.6 103.8 114 103.9C113.4 104 112.9 103.6 112.8 103C112.7 102.4 113.1 101.9 113.7 101.8C114.2 101.7 114.8 102.1 114.9 102.7Z" fill="#211C4B"/>
<path d="M119.2 104.8C119.3 105.4 118.9 105.9 118.3 106C117.7 106.1 117.2 105.7 117.1 105.1C117 104.5 117.4 104 118 103.9C118.6 103.8 119.1 104.2 119.2 104.8Z" fill="#211C4B"/>
<path d="M114.2 114.5C114.2 116.9 114.6 118.9 115.2 118.9C115.8 118.9 116.3 117 116.3 114.6C116.3 112.2 115.9 110.2 115.3 110.2C114.8 110.1 114.3 112.1 114.2 114.5Z" fill="#211C4B"/>
<path d="M113.7 117.4C114 117.9 113.9 118.6 113.4 118.9C112.9 119.2 112.2 119.1 111.9 118.6C111.6 118.1 111.7 117.4 112.2 117.1C112.7 116.8 113.3 116.9 113.7 117.4Z" fill="#211C4B"/>
<path d="M118.5 117.3C118.8 117.8 118.7 118.5 118.2 118.8C117.7 119.1 117 119 116.7 118.5C116.4 118 116.5 117.3 117 117C117.5 116.7 118.2 116.8 118.5 117.3Z" fill="#211C4B"/>
<path d="M126 83.0001C126.1 83.6001 125.7 84.1001 125.1 84.2001C124.5 84.3001 124 83.9001 123.9 83.3001C123.8 82.7001 124.2 82.2002 124.8 82.1002C125.4 82.0002 125.9 82.4001 126 83.0001Z" fill="#211C4B"/>
<path d="M130.3 85.1002C130.4 85.7002 130 86.2001 129.4 86.3001C128.8 86.4001 128.3 86.0001 128.2 85.4001C128.1 84.8001 128.5 84.3001 129.1 84.2001C129.7 84.1001 130.3 84.5002 130.3 85.1002Z" fill="#211C4B"/>
<path d="M120.3 120.9C120.3 120.9 122 120.2 122.9 120.6C122.9 120.6 117.7 99.7 136 85.2L133.6 83.7C133.7 83.6 113.9 100.8 120.3 120.9Z" fill="#211C4B" stroke="#13110C" stroke-miterlimit="10"/>
<path d="M137.2 87.2001C137.2 87.2001 121.5 96.4 124.7 120.4L122.9 120.5C122.9 120.5 118.5 98.0001 136.2 85.2001L137.2 86.1001V87.2001Z" fill="#FFEA24" stroke="#13110C" stroke-miterlimit="10"/>
<path d="M136.6 92.6001C136.6 92.6001 125.9 98.9 127.6 120.5" stroke="white" stroke-miterlimit="10"/>
<path d="M136.6 99.2001C136.6 99.2001 133.2 98.0001 132.6 100.8C132.6 100.8 132.8 103.1 136.6 102.4" stroke="white" stroke-miterlimit="10"/>
<path d="M136.6 105C136.6 105 131.5 103.8 130.6 106.6C130.6 106.6 130.8 108.9 136.6 108.2" stroke="white" stroke-miterlimit="10"/>
<path d="M133.3 111.5C133.3 111.5 129.9 110.3 129.3 113.1C129.3 113.1 129.5 115.4 133.3 114.7" stroke="white" stroke-miterlimit="10"/>
<path d="M132.9 117.6C132.9 117.6 129.5 116.4 128.9 119.2C128.9 119.2 129.1 121.5 132.9 120.8" stroke="white" stroke-miterlimit="10"/>
<path d="M118.9 80.2001L121.2 77.7001C121.2 77.7001 134.6 83.0001 137.2 86.1001L136.1 85.1001" stroke="#13110C" stroke-miterlimit="10"/>
<path d="M118.9 80.2001L100.4 89.3L86.7002 80.4L90.0002 79.8L101.1 87.2001L117.1 79.2001L120.3 78L118.9 80.2001Z" fill="#FFEA24" stroke="#13110C" stroke-miterlimit="10"/>
<path d="M119.4 80.1001C110.7 88.6001 109.4 95.9 109.4 95.9L101.7 99.7001L86.3 91L83 80.8L86.6001 80.4L100.3 89.3L119.4 80.1001Z" fill="#211C4B" stroke="#13110C" stroke-miterlimit="10"/>
<path d="M83.8999 82L101.2 92.2001L113 86.8" stroke="white" stroke-miterlimit="10"/>
<path d="M86.7002 90.1001L101.7 98.8L109 95" stroke="white" stroke-miterlimit="10"/>
<path d="M106.7 121.4H100.1C98.1001 117.2 93.6001 116.2 93.6001 116.2L86.3999 91.3L101.7 99.7001L109.4 95.9C109.4 95.9 104.7 105.9 106.7 121.4Z" fill="#FFEA24" stroke="#13110C" stroke-miterlimit="10"/>
<path d="M94.3999 95.7001V116.4" stroke="#13110C" stroke-miterlimit="10"/>
<path d="M101.8 99.7001V121.4" stroke="#13110C" stroke-miterlimit="10"/>
<path d="M89 99.3L94.3999 95.9" stroke="#13110C" stroke-miterlimit="10"/>
<path d="M90.6001 104.7L94.3999 102.5" stroke="#13110C" stroke-miterlimit="10"/>
<path d="M91.8999 109.1L94.3999 108.6" stroke="#13110C" stroke-miterlimit="10"/>
<path d="M94.3999 98L101.8 102.8V106.3L94.3999 101.5V98Z" fill="white" stroke="#13110C" stroke-miterlimit="10"/>
<path d="M94.3999 104.7V108.2L101.8 112.3V108.6L94.3999 104.7Z" fill="white" stroke="#13110C" stroke-miterlimit="10"/>
<path d="M94.3999 110.9L101.8 116V119.1L94.3999 114.1V110.9Z" fill="white" stroke="#13110C" stroke-miterlimit="10"/>
<path d="M101.8 106L107.2 103.2" stroke="#13110C" stroke-miterlimit="10"/>
<path d="M101.8 111.7L106.2 110" stroke="#13110C" stroke-miterlimit="10"/>
<path d="M101.8 117.9L106.2 115.8" stroke="#13110C" stroke-miterlimit="10"/>
<path d="M143.6 129.5C143.6 131 142.4 132.2 140.9 132.2C139.4 132.2 138.2 131 138.2 129.5V124.4C138.2 122.9 139.4 121.7 140.9 121.7C142.4 121.7 143.6 122.9 143.6 124.4V129.5Z" fill="#D08B0F" stroke="#13110C" stroke-miterlimit="10"/>
<path d="M92.8997 171L82.1997 164L67.2998 171.6L79.9998 178.3L92.8997 171Z" fill="#E31013" stroke="#13110C" stroke-miterlimit="10"/>
<path d="M46.0002 164L45.7002 125.9H49.6003C49.6003 125.9 53.8002 130.1 58.5002 130.8C58.5002 130.8 62.8002 152.1 46.0002 164Z" fill="#13110C" stroke="#13110C" stroke-miterlimit="10"/>
<path d="M108 129.2H76.3999" stroke="white" stroke-miterlimit="10"/>
<path d="M75.7002 125.8C76.3002 126.2 76.3003 128 76.3003 128L107.7 128.2C107.7 128.2 107.1 126.7 106.9 125.7L75.7002 125.8Z" fill="#13110C" stroke="#13110C" stroke-miterlimit="10"/>
<path d="M137.9 132.7H109.7V151.9C109.7 151.9 119.6 162 126.2 166.1C126.2 166.1 134.1 161.6 137.9 159V132.7Z" fill="white" stroke="#13110C" stroke-miterlimit="10"/>
<path d="M128.8 163.4H124.3" stroke="#211C4B" stroke-miterlimit="10"/>
<path d="M132.5 161.6H121.5" stroke="#211C4B" stroke-miterlimit="10"/>
<path d="M136.3 158.2H118.6" stroke="#211C4B" stroke-miterlimit="10"/>
<path d="M135.4 159.8H119.8" stroke="#211C4B" stroke-miterlimit="10"/>
<path d="M136.4 156.6H116.4" stroke="#211C4B" stroke-miterlimit="10"/>
<path d="M136.5 154.8H114.2" stroke="#211C4B" stroke-miterlimit="10"/>
<path d="M136.6 153.2H112.5" stroke="#211C4B" stroke-miterlimit="10"/>
<path d="M136.6 151.5H110.8" stroke="#211C4B" stroke-miterlimit="10"/>
<path d="M136.5 149.7H110.7" stroke="#211C4B" stroke-miterlimit="10"/>
<path d="M136.7 148H110.9" stroke="#211C4B" stroke-miterlimit="10"/>
<path d="M136.7 146.2H110.9" stroke="#211C4B" stroke-miterlimit="10"/>
<path d="M136.8 144.5H111.1" stroke="#211C4B" stroke-miterlimit="10"/>
<path d="M136.7 143H110.9" stroke="#211C4B" stroke-miterlimit="10"/>
<path d="M136.8 141.2H111.1" stroke="#211C4B" stroke-miterlimit="10"/>
<path d="M136.8 139.5H111.1" stroke="#211C4B" stroke-miterlimit="10"/>
<path d="M137 137.7H111.3" stroke="#211C4B" stroke-miterlimit="10"/>
<path d="M136.8 136H111" stroke="#211C4B" stroke-miterlimit="10"/>
<path d="M137 134.2H111.2" stroke="#211C4B" stroke-miterlimit="10"/>
<path d="M62.8999 207.3C59.3999 216.1 51.5 222.2 51.5 222.2H118.1C118.1 222.2 109 212.1 107.7 208.9C107.7 208.9 80.7999 217 62.8999 207.3Z" fill="#FFEA24" stroke="#13110C" stroke-miterlimit="10"/>
<path d="M64.3 204.5C81 211.6 105.9 206.1 105.9 206.1L107.7 208.9C107.7 208.9 85.5999 216.2 62.8999 207.3L64.3 204.5Z" fill="#E31013" stroke="#13110C" stroke-miterlimit="10"/>
<path d="M64.2998 204.5L65.3997 201C81.2997 207.6 103.9 202.3 103.9 202.3L105.9 206.1C105.9 206.1 80.2998 211.6 64.2998 204.5Z" fill="#13110C" stroke="#13110C" stroke-miterlimit="10"/>
<path d="M100.1 213.6H88.7998C88.7998 213.6 94.2998 215.3 94.4998 216.1C94.6998 216.9 95.2999 215.4 100.1 213.6Z" fill="#211C4B"/>
<path d="M80.8 213.6L69.5 212.8C69.5 212.8 74.8 214.9 75 215.7C75.1 216.4 75.8 215 80.8 213.6Z" fill="#211C4B"/>
<path d="M101.7 214.3C101.7 213.5 102.4 212.8 103.2 212.8C104 212.8 104.7 213.5 104.7 214.3C104.7 215.1 104 215.8 103.2 215.8C102.4 215.8 101.7 215.1 101.7 214.3Z" fill="#211C4B"/>
<path d="M83.7998 215C83.7998 214.2 84.4998 213.5 85.2998 213.5C86.0998 213.5 86.7998 214.2 86.7998 215C86.7998 215.8 86.0998 216.5 85.2998 216.5C84.4998 216.4 83.7998 215.8 83.7998 215Z" fill="#211C4B"/>
<path d="M65.1001 212.8C65.1001 212 65.8001 211.3 66.6001 211.3C67.4001 211.3 68.1001 212 68.1001 212.8C68.1001 213.6 67.4001 214.3 66.6001 214.3C65.8001 214.3 65.1001 213.6 65.1001 212.8Z" fill="#211C4B"/>
<path d="M93.2002 218.7C93.2002 218 93.8002 217.4 94.5002 217.4C95.2002 217.4 95.8003 218 95.8003 218.7C95.8003 219.4 95.2002 220 94.5002 220C93.8002 220 93.2002 219.4 93.2002 218.7Z" fill="#211C4B"/>
<path d="M74.3999 218.7C74.3999 218 75 217.4 75.7 217.4C76.4 217.4 77 218 77 218.7C77 219.4 76.4 220 75.7 220C75 220 74.3999 219.4 74.3999 218.7Z" fill="#211C4B"/>
<path d="M102.5 218.7C102.5 217.3 102.8 216.2 103.2 216.2C103.6 216.2 103.9 217.3 103.9 218.7C103.9 220.1 103.6 221.2 103.2 221.2C102.8 221.2 102.5 220 102.5 218.7Z" fill="#211C4B"/>
<path d="M99.7 217.2C100.7 216.3 101.8 215.9 102.1 216.2C102.4 216.5 101.7 217.5 100.7 218.4C99.7 219.3 98.6001 219.7 98.3001 219.4C98.0001 219 98.6 218.1 99.7 217.2Z" fill="#211C4B"/>
<path d="M106.8 217.2C107.8 218.1 108.5 219 108.2 219.4C107.9 219.7 106.9 219.3 105.8 218.4C104.8 217.5 104.1 216.6 104.4 216.2C104.7 215.8 105.8 216.3 106.8 217.2Z" fill="#211C4B"/>
<path d="M84.5 219.4C84.5 218 84.8 216.9 85.2 216.9C85.6 216.9 85.8999 218 85.8999 219.4C85.8999 220.8 85.6 221.9 85.2 221.9C84.8 221.9 84.5 220.7 84.5 219.4Z" fill="#211C4B"/>
<path d="M81.6999 217.9C82.6999 217 83.8001 216.6 84.1001 216.9C84.4001 217.2 83.6999 218.2 82.6999 219.1C81.6999 220 80.6 220.4 80.3 220.1C80.1 219.7 80.6999 218.7 81.6999 217.9Z" fill="#211C4B"/>
<path d="M88.8997 217.9C89.8997 218.8 90.5998 219.7 90.2998 220.1C89.9998 220.4 88.9997 220 87.8997 219.1C86.8997 218.2 86.1998 217.3 86.4998 216.9C86.7998 216.5 87.8997 217 88.8997 217.9Z" fill="#211C4B"/>
<path d="M65.3999 218.1C65.4999 216.7 65.9 215.7 66.3 215.7C66.7 215.7 66.9999 216.8 66.8999 218.2C66.7999 219.6 66.4 220.6 66 220.6C65.6 220.6 65.3999 219.5 65.3999 218.1Z" fill="#211C4B"/>
<path d="M62.7 216.5C63.8 215.7 64.9002 215.3 65.1002 215.6C65.3002 215.9 64.7002 216.9 63.6002 217.7C62.5002 218.5 61.4 218.9 61.2 218.6C60.9 218.2 61.6 217.3 62.7 216.5Z" fill="#211C4B"/>
<path d="M69.8998 216.8C70.8998 217.7 71.4998 218.7 71.1998 219C70.8998 219.3 69.8998 218.8 68.8998 217.9C67.8998 217 67.3 216 67.6 215.7C67.9 215.4 68.8998 215.9 69.8998 216.8Z" fill="#211C4B"/>
<path d="M110.9 215.2C110.8 215.2 107 213.7 105.7 215" stroke="#211C4B" stroke-miterlimit="10"/>
<path d="M100.5 215C100.5 215 97.3999 215.2 95.8999 216.8" stroke="#211C4B" stroke-miterlimit="10"/>
<path d="M93 216.9C93 216.9 90.1 214.5 88 214.6" stroke="#211C4B" stroke-miterlimit="10"/>
<path d="M81.7998 214.5C81.7998 214.5 77.9998 215.3 76.7998 216.8" stroke="#211C4B" stroke-miterlimit="10"/>
<path d="M73.6003 216.3C73.6003 216.3 71.7002 213.9 69.2002 213.5" stroke="#211C4B" stroke-miterlimit="10"/>
<path d="M63.8 212.8C63.8 212.8 61.2999 212.9 59.8999 214.7" stroke="#211C4B" stroke-miterlimit="10"/>
<path d="M77.9999 175.2C77.9999 175.2 77.8999 168.2 81.7999 168.4C81.7999 168.4 90.8999 168.5 93.2999 171.4C93.2999 171.4 105.3 168.8 109.1 171.8C109.1 171.8 114.8 176.1 109.7 181.4L108.7 181.9C108.7 181.9 109.6 185.5 106.3 184.7L106.4 188.2C106.4 188.2 109.5 189.3 107.4 191.9C107.4 191.9 105.6 193.5 105.4 197.6C105.4 197.6 105.8 201.9 103.9 202.3C103.9 202.3 103.7 202.3 103.4 202.4C99.7998 203.2 78.7999 207.1 65.4999 201C65.4999 201 60.9 195.7 62.1 184.3L61.8998 183C61.8998 183 56.9998 184.3 56.1998 182.7C56.1998 182.7 52.7998 176.3 58.6998 174.6L71.6998 170.1C71.5998 170.1 75.8999 170.3 77.9999 175.2Z" fill="#AFA3C7" stroke="#13120D" stroke-miterlimit="10"/>
<path d="M80.2 203.5C80.2 203.5 78.2001 187.1 79.8001 183.4C79.8001 183.4 85.3 174.6 89.7 172.9C89.7 172.9 100 169.7 103.8 178.2C103.8 178.2 104.9 197 103.8 200.1L103.4 202.4C103.4 202.4 86.6 205.7 80.2 203.5Z" fill="#FED68A" stroke="#13110C" stroke-miterlimit="10"/>
<path d="M91.5 199.3C91.5 199.3 83.5001 201.4 80.6001 197.9" stroke="#13110C" stroke-miterlimit="10"/>
<path d="M103.2 199.4C103.2 199.4 98.6003 200.5 96.0003 199.4C96.0003 199.4 95.1003 190.1 96.0003 189C96.0003 189 99.0004 185.7 95.6004 185C95.6004 185 93.2003 186.6 92.3003 185C92.3003 185 87.8002 184.7 91.2002 188.2" stroke="#13110C" stroke-miterlimit="10"/>
<path d="M101 182.3C101 182.3 100.3 184.6 102.3 183.6C102.3 183.6 103.9 180.1 100.2 180.6C100.2 180.6 95.9002 182.1 94.7002 183.2" stroke="#13110C" stroke-miterlimit="10"/>
<path d="M92.5999 183C92.5999 183 88.0998 180.2 85.7998 180.5C85.7998 180.5 82.7998 182.3 84.7998 183.2C84.7998 183.2 86.7999 184 86.0999 182.1" stroke="#13110C" stroke-miterlimit="10"/>
<path d="M97.8999 178.7H89" stroke="#13110C" stroke-miterlimit="10"/>
<path d="M95 179.2H91.5" stroke="#13110C" stroke-miterlimit="10"/>
<path d="M95.0002 178.3H91.7002" stroke="#13110C" stroke-miterlimit="10"/>
<path d="M95.4998 177C95.4998 177 93.6998 174.5 91.7998 177" stroke="#13110C" stroke-miterlimit="10"/>
<path d="M81.6001 193.9C87.1001 198.9 91.7 193.9 91.7 193.9C91.7 193.9 89.9001 191.2 81.6001 193.9Z" stroke="#13110C" stroke-miterlimit="10"/>
<path d="M90.6001 192.5C90.6001 192.5 89.3001 189.4 86.1001 189.7" stroke="#13110C" stroke-miterlimit="10"/>
<path d="M96.5001 194.8C101 197.1 103.4 194.4 103.4 194.4C103.4 194.4 103.4 190.9 96.5001 193.2C96.5001 193.2 95.8001 194.4 96.5001 194.8Z" stroke="#13110C" stroke-miterlimit="10"/>
<path d="M97.2998 191.9C97.2998 191.9 100.2 190 102.2 190.3" stroke="#13110C" stroke-miterlimit="10"/>
<path d="M85.2998 194.4C85.2998 194.1 85.9998 193.8 86.7998 193.8C87.5998 193.8 88.2998 194.1 88.2998 194.4C88.2998 194.7 87.5998 195 86.7998 195C85.9998 194.9 85.2998 194.7 85.2998 194.4Z" fill="#13110C" stroke="#13110C" stroke-miterlimit="10"/>
<path d="M98.7002 194.1C98.7002 193.8 99.4003 193.6 100.3 193.6C101.2 193.6 101.9 193.8 101.9 194.1C101.9 194.4 101.2 194.6 100.3 194.6C99.4003 194.6 98.7002 194.3 98.7002 194.1Z" fill="#13110C" stroke="#13110C" stroke-miterlimit="10"/>
<path d="M78.5002 202.6C78.5002 202.6 77.6003 179.3 77.1003 178.2C76.6003 177.1 74.2001 170.9 70.9001 172.3C67.6001 173.7 68.7001 179 70.9001 180.2" stroke="#13110C" stroke-width="0.5" stroke-miterlimit="10"/>
<path d="M76.6003 202.3C76.6003 202.3 76.7002 177 73.0002 174.8C73.0002 174.8 70.0003 173.7 71.3003 177" stroke="#13110C" stroke-width="0.5" stroke-miterlimit="10"/>
<path d="M73.8 178.3C73.8 178.3 73 179.9 69.5 181.2C67.8 181.8 65.3 182.4 62 182.7" stroke="#13110C" stroke-width="0.5" stroke-miterlimit="10"/>
<path d="M68.2001 172.4C68.2001 172.4 64.9002 176.6 69.1002 181.3" stroke="#13110C" stroke-width="0.5" stroke-miterlimit="10"/>
<path d="M65.9999 173C65.9999 173 62.8998 176.7 66.8998 181.9" stroke="#13110C" stroke-width="0.5" stroke-miterlimit="10"/>
<path d="M63.9001 173.8C63.9001 173.8 61.0001 177.5 64.9001 182.3" stroke="#13110C" stroke-width="0.5" stroke-miterlimit="10"/>
<path d="M61.2999 174.7C61.2999 174.7 59.3999 178.2 62.4999 182.7" stroke="#13110C" stroke-width="0.5" stroke-miterlimit="10"/>
<path d="M59.1002 175.4C59.1002 175.4 57.2002 178.4 60.3002 183" stroke="#13110C" stroke-width="0.5" stroke-miterlimit="10"/>
<path d="M57.2002 175.9C57.2002 175.9 55.7002 179.4 58.2002 183.5" stroke="#13110C" stroke-width="0.5" stroke-miterlimit="10"/>
<path d="M74.7 202C74.7 202 74.3 180.1 72.5 180.6" stroke="#13110C" stroke-width="0.5" stroke-miterlimit="10"/>
<path d="M72.4998 202C72.4998 202 72.6998 183.5 70.2998 181.9" stroke="#13110C" stroke-width="0.5" stroke-miterlimit="10"/>
<path d="M70.2 201.5C70.2 201.5 70.2999 183.5 67.8999 182.6" stroke="#13110C" stroke-width="0.5" stroke-miterlimit="10"/>
<path d="M68 200.8C68 200.8 67.7999 184.2 65.3999 183.1" stroke="#13110C" stroke-width="0.5" stroke-miterlimit="10"/>
<path d="M66.2 199.5C66.2 199.5 65.3001 183.9 63.6001 183.5" stroke="#13110C" stroke-width="0.5" stroke-miterlimit="10"/>
<path d="M64.3 197C64.3 197 63.6999 185.8 62.8999 185.1" stroke="#13110C" stroke-width="0.5" stroke-miterlimit="10"/>
<path d="M89.8999 171.8C89.8999 171.8 82.1001 169.2 80.6001 170.5" stroke="#13110C" stroke-width="0.5" stroke-miterlimit="10"/>
<path d="M78.7998 175.9C78.7998 175.9 81.6998 178.2 83.4998 176.5C85.2998 174.8 84.9999 172.4 82.5999 171.9C80.2999 171.4 79.0999 173.3 80.0999 174.1C81.0999 174.9 82.2997 175.3 82.3997 173.8" stroke="#13110C" stroke-width="0.5" stroke-miterlimit="10"/>
<path d="M87.1997 173C87.1997 173 85.2998 171.5 82.7998 171" stroke="#13110C" stroke-width="0.5" stroke-miterlimit="10"/>
<path d="M79.7 181C79.7 181 79.1 177.9 77.5 176.5" stroke="#13110C" stroke-width="0.5" stroke-miterlimit="10"/>
<path d="M105.9 177.5C105.9 177.5 109.4 178.1 109.2 175.9C109 173.8 106.5 173.1 105.9 174.4C105.3 175.7 104.6 179.1 104.7 179.9" stroke="#13110C" stroke-width="0.5" stroke-miterlimit="10"/>
<path d="M107.5 172.4C107.5 172.4 103.3 173.8 103.9 176.2" stroke="#13110C" stroke-width="0.5" stroke-miterlimit="10"/>
<path d="M105.2 171.8C105.2 171.8 102.6 172.6 102.7 174.6" stroke="#13110C" stroke-width="0.5" stroke-miterlimit="10"/>
<path d="M102.2 171.8C102.2 171.8 101.1 172.7 101.2 173.8" stroke="#13110C" stroke-width="0.5" stroke-miterlimit="10"/>
<path d="M100.3 171.5C100.3 171.5 99.7002 172.3 99.7002 172.8" stroke="#13110C" stroke-width="0.5" stroke-miterlimit="10"/>
<path d="M98.7 171.5L98.5 172.4" stroke="#13110C" stroke-width="0.5" stroke-miterlimit="10"/>
<path d="M110.5 176.5C110.5 176.5 109.8 179.9 106.9 179.2C106.9 179.2 104.9 179.6 105.1 185.9V194.5" stroke="#13110C" stroke-width="0.5" stroke-miterlimit="10"/>
<path d="M109.2 180.5C109.2 180.5 106.1 180.9 106.2 183.1" stroke="#13110C" stroke-width="0.5" stroke-miterlimit="10"/>
<path d="M107.7 182.2C107.7 182.2 108.1 184.3 106.9 183.5" stroke="#13110C" stroke-width="0.5" stroke-miterlimit="10"/>
<path d="M106.2 189.7C106.2 189.7 107.7 190.7 106.2 191.7" stroke="#13110C" stroke-width="0.5" stroke-miterlimit="10"/>
<path d="M35.7 141.7L34.6001 198.9L40.6001 205.9L46 198.9V141.7L42.2 134.3L35.7 141.7Z" fill="white" stroke="#13110C" stroke-miterlimit="10"/>
<path d="M37.3998 139.7C36.5998 143.3 34.3 141.1 34.3 141.1C32 138.8 35.4999 136.2 35.4999 136.2C39.3999 134.4 40.8 137 40.8 137C41.3 138.2 41.9999 137.6 41.9999 137.6C43.2999 135.6 46.1999 135.4 46.1999 135.4C48.6999 135.5 50.7 138.5 49.1 140.7C47.5 142.9 46 141.5 45.6 140.7C45.2 139.9 46.3998 138.8 46.3998 138.8C46.3998 138.8 44 138.3 43.1 139.1C43.1 139.1 41.3999 140.6 39.6999 139C39.5999 139 37.0998 138.2 37.3998 139.7Z" fill="#FFEA24" stroke="#13110C" stroke-miterlimit="10"/>
<path d="M41.0003 140.2C41.0003 140.2 41.9002 141.2 42.7002 143.8C43.4002 146.4 41.0003 149.9 41.0003 149.9C40.9003 151.2 40.6003 153.6 41.3003 154.3C43.2003 156.1 42.7003 167.4 42.3003 168C41.9003 168.6 40.6004 176 41.6004 176.8C42.6004 177.7 43.4002 186.2 41.9002 190.2C40.3002 194.2 41.0003 201.5 41.0003 201.5C41.0003 201.5 38.4002 198.6 39.7002 190C39.7002 190 40.2002 182 38.9002 180C38.9002 180 37.7003 171.9 39.3003 164.3C39.3003 164.3 39.4004 156.9 38.1004 155.3C38.1004 155.3 37.7003 146.9 38.3003 145.9C38.3003 145.9 40.7002 145.4 40.4002 143.5C40.0002 141.6 39.4002 141.1 39.4002 141.1L39.2002 140.1L39.4002 139.5L41.0003 140.2Z" fill="#211C4B"/>
<path d="M36.8004 120.8C38.8004 117 43.9003 118.3 43.9003 118.3C47.6003 118.9 49.0004 125.7 49.0004 125.7C50.6004 133.6 46.5004 135.3 46.5004 135.3C46.5004 135.3 42.5003 137.9 34.4003 135.3C34.4003 135.3 32.3003 134.1 34.4003 132.6C34.4003 132.6 31.9004 130.9 33.5004 129.6C33.5004 129.6 31.3003 127.7 33.4003 126.1L36.8004 120.8Z" fill="#FED68A" stroke="#13110C" stroke-miterlimit="10"/>
<path d="M41 132.3L34.6001 132.8" stroke="#13110C" stroke-miterlimit="10"/>
<path d="M40.3999 129.2L33.6001 129.8" stroke="#13110C" stroke-miterlimit="10"/>
<path d="M39.8 125.8L32.8999 127" stroke="#13110C" stroke-miterlimit="10"/>
<path d="M47.6001 130.8C47.6001 130.8 36.3001 130.2 44.8001 135.7" stroke="#13110C" stroke-miterlimit="10"/>
<path d="M42.3 119.3C43.7912 119.3 45 118.091 45 116.6C45 115.109 43.7912 113.9 42.3 113.9C40.8089 113.9 39.6001 115.109 39.6001 116.6C39.6001 118.091 40.8089 119.3 42.3 119.3Z" fill="#FFEA24" stroke="#13110C" stroke-miterlimit="10"/>
<path d="M151.6 147.5C149 150.4 145.7 153.2 142.3 155.8C142.2 155.8 142.2 155.9 142.1 155.9C128.4 166.2 110.9 173.7 110.9 173.7" stroke="#13110C" stroke-miterlimit="10"/>
<path d="M142.5 155.2V132.7L148.7 125.9L151.6 125.8V147.5L142.5 155.2Z" fill="#E31013" stroke="#13110C" stroke-miterlimit="10"/>
<path d="M142.5 132.7H137.9V158.9L142.5 155.6V132.7Z" fill="#13110C" stroke="#13110C" stroke-miterlimit="10"/>
<path d="M110.7 133.8C110.7 126.9 116.3 121.2 123.3 121.2C130.2 121.2 135.9 126.8 135.9 133.8C135.9 139.7 131.8 144.7 126.3 146C125.3 146.2 124.4 146.4 123.3 146.4C116.3 146.4 110.7 140.8 110.7 133.8Z" fill="#211C4B" stroke="#13110C" stroke-miterlimit="10"/>
<path d="M120 146V136.5C120 136.5 113.6 135.8 110.6 133.4C110.2 133.1 111.6 129 111.6 129C121.9 133.3 135.2 129.9 135.2 129.9C135.7 131.2 135.8 133.8 135.8 133.8C131.7 136.7 126.3 136.5 126.3 136.5V145.8C126.4 145.8 122.9 147.1 120 146Z" fill="#FFEA24" stroke="#13110C" stroke-miterlimit="10"/>
<path d="M121.5 144.6V143.2H122.5V142H124V143.1H125.1V144.4H124V145.4H122.4V144.5L121.5 144.6Z" fill="#E31013"/>
<path d="M121.5 140V138.7H122.5V137.5H124V138.6H125.1V139.9H124V140.8H122.4V140H121.5Z" fill="#E31013"/>
<path d="M126.7 134.7V133.4H127.6V132.1H129.1V133.2H130.2V134.6H129.1V135.5H127.6V134.6L126.7 134.7Z" fill="#E31013"/>
<path d="M121.9 135.2V133.9H122.8V132.7H124.3V133.8H125.4V135.1H124.3V136H122.7L122.8 135.2H121.9Z" fill="#E31013"/>
<path d="M116.7 134.2V132.9H117.6V131.7H119.1V132.8H120.2V134.1H119.1V135.1H117.6V134.2H116.7Z" fill="#E31013"/>
<path d="M112.5 132.7V131.8H113.2V131H114.2V131.7H114.9V132.6H114.2V133.2H113.1V132.7H112.5Z" fill="#E31013"/>
<path d="M131.6 133.2V132.4H132.3V131.5H133.3V132.3H134V133.2H133.3V133.8H132.2V133.2H131.6Z" fill="#E31013"/>
<path d="M119.1 144.8L119.2 137.5C119.2 137.5 115.1 137.5 112 135.4" stroke="white" stroke-miterlimit="10"/>
<path d="M127.6 145.1L127.5 137.8C127.5 137.8 131.6 137.8 134.6 135.7" stroke="white" stroke-miterlimit="10"/>
<path d="M128.4 130.1C128.4 130.1 123.9 123.3 117.9 130.1" stroke="#13110C" stroke-miterlimit="10"/>
<path d="M126.2 129.8C126.2 129.8 123.6 126 120.3 129.8" stroke="#FFEA24" stroke-miterlimit="10"/>
<path d="M131 130.1C131 130.1 128.1 125.1 123.3 125C123.3 125 118.6 124.8 115.9 129.3" stroke="#13110C" stroke-miterlimit="10"/>
<path d="M133.3 129.5C133.3 129.5 129.3 122.4 123.3 122.9C123.3 122.9 118.6 122 113.9 128.2" stroke="#13110C" stroke-miterlimit="10"/>
<path d="M129.8 129.5C129.8 129.5 124.1 122 116.6 129.5" stroke="#FFEA24" stroke-miterlimit="10"/>
<path d="M131.7 129C131.7 129 124.4 117.6 114.8 129" stroke="#FFEA24" stroke-miterlimit="10"/>
<path d="M133.6 128.1C133.6 128.1 124.6 114.3 112.8 128.1" stroke="#FFEA24" stroke-miterlimit="10"/>
<path d="M120.8 146.2C118.7 149.9 123.2 150.1 123.2 150.1C127.1 149.5 125.4 146.4 125.4 146.4C125.4 146.4 121.7 146.9 120.8 146.2Z" fill="#E31013" stroke="#13110C" stroke-miterlimit="10"/>
<path d="M123.2 150.1L125.4 154.1L123.2 159.5L120.8 154.1L122.6 150L123.2 150.1Z" fill="#FFEA24" stroke="#13110C" stroke-miterlimit="10"/>
<path d="M112.9 147.9L117.3 152.4L120.9 150L112.9 147.9Z" fill="#FFEA24" stroke="#13110C" stroke-miterlimit="10"/>
<path d="M132.8 148L128.3 152.5L124.7 150.1L132.8 148Z" fill="#FFEA24" stroke="#13110C" stroke-miterlimit="10"/>
<path d="M97.8999 132.6C97.6999 132.2 96.5 133.3 96.5 133.3C104 155.5 124.5 167 124.5 167L126.2 166.1C126.2 166.1 106.7 154.7 97.8999 132.6Z" fill="#FFEA24" stroke="#13110C" stroke-miterlimit="10"/>
<path d="M91.5002 135.2C96.6365 135.2 100.8 131.036 100.8 125.9C100.8 120.764 96.6365 116.6 91.5002 116.6C86.364 116.6 82.2002 120.764 82.2002 125.9C82.2002 131.036 86.364 135.2 91.5002 135.2Z" fill="#211C4B" stroke="#13110C" stroke-miterlimit="10"/>
<path d="M88.3999 125.8C88.3999 124.2 89.7 122.9 91.3 122.9C92.9 122.9 94.2 124.2 94.2 125.8C94.2 127.4 92.9 128.7 91.3 128.7C89.7 128.7 88.3999 127.4 88.3999 125.8Z" fill="#FFEA24"/>
<path d="M91.4997 133.1C92.3997 132.8 92.0998 130.3 92.0998 130.3H93.0998C93.0998 130.3 93.8997 135.1 91.1997 134.5C91.1997 134.5 88.7998 134.6 89.5998 130.3H90.5998C90.6998 130.3 90.5997 133.5 91.4997 133.1Z" fill="white"/>
<path d="M86.1996 130.9C87.0996 131.3 88.5998 129.4 88.5998 129.4L89.2997 130.1C89.2997 130.1 86.4997 134 84.9997 131.7C84.9997 131.7 83.2997 130.1 86.7997 127.7L87.4997 128.4C87.5997 128.4 85.3996 130.5 86.1996 130.9Z" fill="white"/>
<path d="M84.1999 125.5C84.4999 126.4 86.9999 126.2 86.9999 126.2V127.2C86.9999 127.2 82.1998 127.9 82.8998 125.2C82.8998 125.2 82.9 122.8 87.1 123.8V124.8C87 124.8 83.8999 124.5 84.1999 125.5Z" fill="white"/>
<path d="M86.4 120.4C85.9 121.2 87.7 123 87.7 123L86.9 123.6C86.9 123.6 83.3 120.4 85.7 119.2C85.7 119.2 87.5001 117.7 89.5001 121.4L88.7 122.1C88.8 122 86.9 119.5 86.4 120.4Z" fill="white"/>
<path d="M91.3998 118.4C90.4998 118.7 90.6999 121.2 90.6999 121.2H89.8C89.8 121.2 89.1999 116.4 91.6999 117.1C91.6999 117.1 94 117.1 93.1 121.3H92.1C92.1 121.2 92.2998 118.1 91.3998 118.4Z" fill="white"/>
<path d="M96.3 120.4C95.4 120 93.8 121.9 93.8 121.9L93.1001 121.2C93.1001 121.2 95.9999 117.3 97.3999 119.7C97.3999 119.7 99.1 121.4 95.5 123.7L94.8 123C94.9 122.9 97.2 120.8 96.3 120.4Z" fill="white"/>
<path d="M98.8 125.6C98.5 124.7 96 125 96 125V124C96 124 100.8 123.2 100.2 125.8C100.2 125.8 100.3 128.2 96 127.4V126.4C96 126.4 99.1 126.5 98.8 125.6Z" fill="white"/>
<path d="M96.8 131C97.1 130.1 95 128.8 95 128.8L95.6001 128C95.6001 128 99.8 130.3 97.7 132C97.7 132 96.3 133.9 93.5 130.7L94.1001 129.9C94.1001 129.9 96.5 132 96.8 131Z" fill="white"/>
<path d="M109.7 132.7C109.7 132.7 107.9 129.6 106.9 125.8H109.7C109.7 125.8 110.3 130.1 111.1 130.7L109.7 132.7Z" fill="#FFEA24" stroke="#13110C" stroke-miterlimit="10"/>
<path d="M109.7 125.7L113.5 125.8C113.5 125.8 110.8 129.5 111.1 130.6L109.7 125.7Z" fill="#211C4B" stroke="#13110C" stroke-miterlimit="10"/>
<path d="M98 132.7C102.8 144.2 109.7 151.9 109.7 151.9V132.7L108.3 129.9H99.8999C99.8999 129.9 98.7999 132.5 97.8999 132.6" fill="#E31013"/>
<path d="M98 132.7C102.8 144.2 109.7 151.9 109.7 151.9V132.7L108.3 129.9H99.8999C99.8999 129.9 98.7999 132.5 97.8999 132.6" stroke="#13110C" stroke-miterlimit="10"/>
<path d="M108 149.7V147.5L106 147.1L108 149.7Z" fill="#211C4B"/>
<path d="M102.9 141.6L104.7 144.4L104.9 142.1" fill="#211C4B"/>
<path d="M99.7998 136L101.4 138.9L101.8 136.7" fill="#211C4B"/>
<path d="M107 148.2L109.7 146.2" stroke="#211C4B" stroke-miterlimit="10"/>
<path d="M103.8 143C103.8 143 108.3 139.6 109.3 139L103.8 143Z" fill="#211C4B"/>
<path d="M103.8 143C103.8 143 108.3 139.6 109.3 139" stroke="#211C4B" stroke-miterlimit="10"/>
<path d="M100.8 137.5C100.8 137.5 106.3 134.2 108.3 131.7L100.8 137.5Z" fill="#211C4B"/>
<path d="M100.8 137.5C100.8 137.5 106.3 134.2 108.3 131.7" stroke="#211C4B" stroke-miterlimit="10"/>
<path d="M98.7002 133.2C98.7002 133.2 101 131.4 101.7 130.3L98.7002 133.2Z" fill="#211C4B"/>
<path d="M98.7002 133.2C98.7002 133.2 101 131.4 101.7 130.3" stroke="#211C4B" stroke-miterlimit="10"/>
<path d="M124.5 167C104 155.2 96.5 133.7 96.5 133.7C94.1 135.7 91.5 135.2 91.5 135.2C92.8 141.3 102.7 170.4 102.7 170.4C102.7 170.4 108.3 170.6 110.8 173.8L124.5 167Z" fill="#13110C" stroke="#13110C" stroke-miterlimit="10"/>
<path d="M116.4 166.7C116.4 165.9 117 165.3 117.8 165.3C118.6 165.3 119.2 165.9 119.2 166.7C119.2 167.5 118.6 168.1 117.8 168.1C117 168.1 116.4 167.5 116.4 166.7Z" fill="white"/>
<path d="M102.8 164.1C102.8 163.3 103.4 162.6 104.3 162.6C105.2 162.6 105.8 163.2 105.8 164.1C105.8 164.9 105.2 165.6 104.3 165.6C103.4 165.6 102.8 164.9 102.8 164.1Z" fill="white"/>
<path d="M106.8 156.3C106.8 155.8 107.2 155.3 107.8 155.3C108.4 155.3 108.8 155.7 108.8 156.3C108.8 156.9 108.4 157.3 107.8 157.3C107.2 157.3 106.8 156.8 106.8 156.3Z" fill="white"/>
<path d="M102.3 151.5C102.3 151 102.7 150.6 103.2 150.6C103.7 150.6 104.1 151 104.1 151.5C104.1 152 103.7 152.4 103.2 152.4C102.7 152.4 102.3 152 102.3 151.5Z" fill="white"/>
<path d="M108.5 165.5C108.5 164.7 109.1 164 110 164C110.8 164 111.5 164.6 111.5 165.5C111.5 166.3 110.9 167 110 167C109.1 167 108.5 166.3 108.5 165.5Z" fill="white"/>
<path d="M94.7002 137.7C94.7002 137 95.2001 136.5 95.9001 136.5C96.6001 136.5 97.1003 137 97.1003 137.7C97.1003 138.4 96.6001 138.9 95.9001 138.9C95.2001 138.9 94.7002 138.4 94.7002 137.7Z" fill="white"/>
<path d="M109.9 165.5C109.9 165.5 105.4 165.5 108.8 169.4C108.8 169.4 115.6 172.2 113.9 163.3C113.9 163.3 111.4 157.4 102.3 159.7L105.6 154.1L100.2 154.9L100 147.7C100 147.7 93.4001 140.6 94.2001 138.4L95.4 137.6" stroke="white" stroke-miterlimit="10"/>
<path d="M102.7 170.4L100.2 170.5C100.2 170.5 90.4001 140.6 89.6001 135L91.6001 135.2L102.7 170.4Z" fill="#FFEA24" stroke="#13110C" stroke-miterlimit="10"/>
<path d="M60.2998 172.8C81.8998 147.9 73.5999 125.9 73.5999 125.9H75.7998C75.7998 125.9 83.1999 152.5 62.0999 173.5L60.2998 172.8Z" fill="#FFEA24" stroke="#13110C" stroke-miterlimit="10"/>
<path d="M58 171.8C64.2 165.7 69.5 154.8 69.5 154.8C76.4 139.4 71 125.9 71 125.9H73.6001C80.4001 153.6 60.3 172.8 60.3 172.8L58 171.8Z" fill="#211C4B" stroke="#13110C" stroke-miterlimit="10"/>
<path d="M71 125.9H69.1001C69.1001 125.9 66.7999 128.9 62.8999 130.4C62.8999 130.4 69.4 149.8 49.5 167.7L57.8999 171.9C57.9999 171.8 78.8 151.9 71 125.9Z" fill="#E31013" stroke="#13110C" stroke-miterlimit="10"/>
<path d="M61.6999 161.4C63.0999 159.4 63.8999 157.6 63.3999 157.2C62.8999 156.9 61.4 158.2 60 160.1C58.6 162.1 57.8 163.9 58.3 164.3C58.8 164.7 60.2999 163.4 61.6999 161.4Z" fill="#211C4B"/>
<path d="M64.8997 160.4C65.5072 160.4 65.9998 159.908 65.9998 159.3C65.9998 158.693 65.5072 158.2 64.8997 158.2C64.2921 158.2 63.7998 158.693 63.7998 159.3C63.7998 159.908 64.2921 160.4 64.8997 160.4Z" fill="#211C4B"/>
<path d="M60.8997 157.7C61.5072 157.7 61.9998 157.208 61.9998 156.6C61.9998 155.993 61.5072 155.5 60.8997 155.5C60.2921 155.5 59.7998 155.993 59.7998 156.6C59.7998 157.208 60.2921 157.7 60.8997 157.7Z" fill="#211C4B"/>
<path d="M66.6001 150.9C67.7001 148.8 68.1999 146.8 67.6999 146.5C67.1999 146.2 65.8999 147.7 64.6999 149.9C63.5999 152 63.1001 154 63.6001 154.2C64.1001 154.5 65.4001 153 66.6001 150.9Z" fill="#211C4B"/>
<path d="M68.3 148.5C68.2 147.9 68.5999 147.4 69.1999 147.3C69.7999 147.2 70.2998 147.6 70.3998 148.2C70.4998 148.8 70.0999 149.3 69.4999 149.4C68.9999 149.5 68.4 149.1 68.3 148.5Z" fill="#211C4B"/>
<path d="M63.9997 146.4C63.8997 145.8 64.2996 145.3 64.8996 145.2C65.4996 145.1 65.9998 145.5 66.0998 146.1C66.1998 146.7 65.7996 147.2 65.1996 147.3C64.5996 147.4 64.0997 147 63.9997 146.4Z" fill="#211C4B"/>
<path d="M69 136.7C69 134.3 68.6 132.3 68 132.3C67.4 132.3 66.8999 134.2 66.8999 136.6C66.8999 139 67.2999 141 67.8999 141C68.4999 141.1 69 139.1 69 136.7Z" fill="#211C4B"/>
<path d="M69.4998 133.8C69.1998 133.3 69.2998 132.6 69.7998 132.3C70.2998 132 70.9998 132.1 71.2998 132.6C71.5998 133.1 71.4998 133.8 70.9998 134.1C70.5998 134.4 69.8998 134.3 69.4998 133.8Z" fill="#211C4B"/>
<path d="M64.7 133.9C64.4 133.4 64.5 132.7 65 132.4C65.5 132.1 66.2 132.2 66.5 132.7C66.8 133.2 66.7 133.9 66.2 134.2C65.7 134.5 65 134.4 64.7 133.9Z" fill="#211C4B"/>
<path d="M57.1999 168.2C57.0999 167.6 57.5 167.1 58.1 167C58.7 166.9 59.2 167.3 59.3 167.9C59.4 168.5 58.9998 169 58.3998 169.1C57.8998 169.2 57.2999 168.8 57.1999 168.2Z" fill="#211C4B"/>
<path d="M52.9001 166.1C52.8001 165.5 53.2002 165 53.8002 164.9C54.4002 164.8 54.9002 165.2 55.0002 165.8C55.1002 166.4 54.7003 166.9 54.1003 167C53.5003 167.1 53.0001 166.7 52.9001 166.1Z" fill="#211C4B"/>
<path d="M62.9001 130.3C62.9001 130.3 61.2003 131 60.3003 130.6C60.3003 130.6 65.5002 151.5 47.2002 166L49.6003 167.5C49.5003 167.6 69.3001 150.4 62.9001 130.3Z" fill="#211C4B" stroke="#13110C" stroke-miterlimit="10"/>
<path d="M46 164C46 164 61.7 154.8 58.5 130.8L60.3 130.7C60.3 130.7 64.7 153.2 47 166L46 165.1V164Z" fill="#FFEA24" stroke="#13110C" stroke-miterlimit="10"/>
<path d="M46.7002 158.6C46.7002 158.6 57.4002 152.3 55.7002 130.7" stroke="white" stroke-miterlimit="10"/>
<path d="M46.7002 152C46.7002 152 50.1002 153.2 50.7002 150.4C50.7002 150.4 50.5002 148.1 46.7002 148.8" stroke="white" stroke-miterlimit="10"/>
<path d="M46.7002 146.2C46.7002 146.2 51.8002 147.4 52.7002 144.6C52.7002 144.6 52.5002 142.3 46.7002 143" stroke="white" stroke-miterlimit="10"/>
<path d="M50 139.7C50 139.7 53.4 140.9 54 138.1C54 138.1 53.8 135.8 50 136.5" stroke="white" stroke-miterlimit="10"/>
<path d="M50.3999 133.7C50.3999 133.7 53.7999 134.9 54.3999 132.1C54.3999 132.1 54.1999 129.8 50.3999 130.5" stroke="white" stroke-miterlimit="10"/>
<path d="M64.3 171L62 173.5C62 173.5 48.6 168.2 46 165.1L47.1001 166.1" stroke="#13110C" stroke-miterlimit="10"/>
<path d="M64.3 171L82.8 161.9L96.5 170.8L93.3 171.4L82.2 164L66.2 172L62.8999 173.2L64.3 171Z" fill="#FFEA24" stroke="#13110C" stroke-miterlimit="10"/>
<path d="M63.7998 171.1C72.4998 162.6 73.7998 155.3 73.7998 155.3L81.4998 151.5L96.8997 160.2L100.2 170.4L96.5999 170.8L82.8997 161.9L63.7998 171.1Z" fill="#211C4B" stroke="#13110C" stroke-miterlimit="10"/>
<path d="M99.3003 169.3L82.0002 159L70.2002 164.4" stroke="white" stroke-miterlimit="10"/>
<path d="M96.5002 161.1L81.5002 152.4L74.2002 156.2" stroke="white" stroke-miterlimit="10"/>
<path d="M76.4998 129.8H83.0999C85.0999 134 89.5999 135 89.5999 135L96.7998 159.9L81.4998 151.5L73.7998 155.3C73.7998 155.3 78.5998 145.3 76.4998 129.8Z" fill="#FFEA24" stroke="#13110C" stroke-miterlimit="10"/>
<path d="M88.7998 155.5V134.8" stroke="#13110C" stroke-miterlimit="10"/>
<path d="M81.3999 151.5V129.8" stroke="#13110C" stroke-miterlimit="10"/>
<path d="M94.2998 151.9L88.7998 155.3" stroke="#13110C" stroke-miterlimit="10"/>
<path d="M92.5999 146.5L88.7998 148.7" stroke="#13110C" stroke-miterlimit="10"/>
<path d="M91.2998 142.1L88.7998 142.6" stroke="#13110C" stroke-miterlimit="10"/>
<path d="M88.8 153.2L81.3999 148.4V144.9L88.8 149.7V153.2Z" fill="white" stroke="#13110C" stroke-miterlimit="10"/>
<path d="M88.8 146.5V143L81.3999 138.9V142.6L88.8 146.5Z" fill="white" stroke="#13110C" stroke-miterlimit="10"/>
<path d="M88.8 140.3L81.3999 135.2V132.1L88.8 137.1V140.3Z" fill="white" stroke="#13110C" stroke-miterlimit="10"/>
<path d="M81.3999 145.2L76 148" stroke="#13110C" stroke-miterlimit="10"/>
<path d="M81.3999 139.5L77 141.2" stroke="#13110C" stroke-miterlimit="10"/>
<path d="M81.3999 133.3L77 135.5" stroke="#13110C" stroke-miterlimit="10"/>
<path d="M39.6001 121.7C39.6001 120.2 40.8 119 42.3 119C43.8 119 45 120.2 45 121.7V126.8C45 128.3 43.8 129.5 42.3 129.5C40.8 129.5 39.6001 128.3 39.6001 126.8V121.7Z" fill="#D08B0F" stroke="#13110C" stroke-miterlimit="10"/>
<path d="M138.2 134.6C138.2 133.1 139.4 131.9 140.9 131.9C142.4 131.9 143.6 133.1 143.6 134.6C143.6 136.1 142.4 137.3 140.9 137.3C139.4 137.3 138.2 136.1 138.2 134.6Z" fill="#FFEA24" stroke="#13110C" stroke-miterlimit="10"/>
<path d="M18.3999 41.8C18.7999 42.9 19.5001 44.5001 20.6001 45.2001H15.8C17 44.2001 17.5999 42.8 17.8999 41.8C17.1999 43 15.9 43.8 14.5 43.8C12.3 43.8 10.5 42 10.5 39.8C10.5 37.6 12.3 35.8 14.5 35.8C14.9 35.8 15.4 35.9 15.8 36C15 35.3 14.5 34.2001 14.5 33.1001C14.5 30.9001 16.3 29.1001 18.5 29.1001C20.7 29.1001 22.5 30.9001 22.5 33.1001C22.5 34.3001 21.9001 35.4001 21.1001 36.1001C21.4001 36.0001 21.8001 36 22.1001 36C24.3001 36 26.1001 37.8 26.1001 40C26.1001 42.2 24.3001 44 22.1001 44C20.4001 44 18.9999 43.1 18.3999 41.8Z" fill="#13110C" stroke="#13110C" stroke-miterlimit="10"/>
<path d="M165.4 209C165 207.9 164.3 206.3 163.2 205.6H168C166.8 206.6 166.2 208 165.9 209C166.6 207.8 167.9 207 169.3 207C171.5 207 173.3 208.8 173.3 211C173.3 213.2 171.5 215 169.3 215C168.9 215 168.4 214.9 168 214.8C168.8 215.5 169.3 216.6 169.3 217.7C169.3 219.9 167.5 221.7 165.3 221.7C163.1 221.7 161.3 219.9 161.3 217.7C161.3 216.5 161.9 215.4 162.7 214.7C162.4 214.8 162 214.8 161.7 214.8C159.5 214.8 157.7 213 157.7 210.8C157.7 208.6 159.5 206.8 161.7 206.8C163.4 206.8 164.8 207.7 165.4 209Z" fill="#13110C" stroke="#13110C" stroke-miterlimit="10"/>
<path d="M53.5 57.6001C54 59.2001 55 61.5 56.7 62.5H49.7C51.5 61.1 52.3 59.0001 52.7 57.6001C51.7 59.3001 49.9 60.5 47.7 60.5C44.5 60.5 42 57.9 42 54.8C42 51.6 44.6 49.1001 47.7 49.1001C48.3 49.1001 48.9 49.2 49.5 49.4C48.4 48.4 47.7 46.9001 47.7 45.2001C47.7 42.0001 50.2999 39.5 53.3999 39.5C56.4999 39.5 59.1001 42.1001 59.1001 45.2001C59.1001 47.0001 58.3001 48.5001 57.1001 49.6001C57.6001 49.5001 58.1001 49.4 58.6001 49.4C61.8001 49.4 64.3 52.0001 64.3 55.1001C64.3 58.3001 61.7001 60.8 58.6001 60.8C56.4001 60.7 54.5 59.4001 53.5 57.6001Z" fill="#13110C" stroke="#13110C" stroke-miterlimit="10"/>
<path d="M128.9 193.5C128.4 191.9 127.4 189.6 125.7 188.6H132.7C130.9 190 130.1 192.1 129.7 193.5C130.7 191.8 132.5 190.6 134.7 190.6C137.9 190.6 140.4 193.2 140.4 196.3C140.4 199.5 137.8 202 134.7 202C134.1 202 133.5 201.9 132.9 201.7C134 202.7 134.7 204.2 134.7 205.9C134.7 209.1 132.1 211.6 129 211.6C125.8 211.6 123.3 209 123.3 205.9C123.3 204.1 124.1 202.6 125.3 201.5C124.8 201.6 124.3 201.7 123.8 201.7C120.6 201.7 118.1 199.1 118.1 196C118.1 192.8 120.7 190.3 123.8 190.3C126 190.4 128 191.7 128.9 193.5Z" fill="#13110C" stroke="#13110C" stroke-miterlimit="10"/>
<path d="M13.7002 21.4H15.2002V8.30005H13.7002V6.5H18.4001V8.30005H17.1003V14.7001L21.2002 8.30005H19.6003V6.5H24.7002V8.30005H23.2002L19.9001 13.5L23.3003 21.4H24.7002V23.2001H19.6003V21.4H21.3003L18.7002 15.4L17.1003 17.9V21.4H18.4001V23.2001H13.7002V21.4Z" fill="#13110C"/>
<path d="M169.2 230.5H167.7V243.6H169.2V245.4H164.5V243.6H165.8V237.2L161.7 243.6H163.3V245.4H158.2V243.6H159.7L163 238.4L159.6 230.5H158.2V228.7H163.3V230.5H161.6L164.2 236.5L165.8 234V230.5H164.5V228.7H169.2V230.5Z" fill="#13110C"/>
</svg>
