<svg width="181" height="254" viewBox="0 0 181 254" fill="none" xmlns="http://www.w3.org/2000/svg">
<path d="M179.6 231.7C179.6 243.5 172.8 253.1 164.4 253.1H16.2C7.80001 253.1 1 243.5 1 231.7V22.6C1 10.8 7.80001 1.19995 16.2 1.19995H164.5C172.9 1.19995 179.7 10.8 179.7 22.6V231.7H179.6Z" fill="white" stroke="#1D1D1B" stroke-miterlimit="10"/>
<path d="M17.8999 25.9999C16.5999 25.9999 15.3999 25.5 14.2999 24.6C13.2999 23.8 12.6 22.6999 12.2 21.2999L14.2999 20.4999C14.5999 21.3999 14.9999 22.1 15.5999 22.6C16.2999 23.2 16.9999 23.6 17.8999 23.6C18.9999 23.6 19.9 23.1999 20.7 22.2999C21.5 21.4999 21.8999 20.4999 21.8999 19.4999C21.8999 18.4999 21.5999 17.5999 20.8999 16.8999C20.1999 16.1999 19.3999 15.8999 18.2999 15.8999C17.7999 15.8999 17.3999 16 17.0999 16.1C16.7999 16.2 16.4999 16.4999 16.0999 16.7999L14.4999 15.2L19.7 10.2999H14.7V12.4999H12.4999V7.8999H23.9999V9.29993L19.4999 13.4999C20.8999 13.7999 21.9999 14.3999 22.8999 15.4999C23.6999 16.5999 24.2 17.7999 24.2 19.2999C24.2 20.9999 23.5999 22.4999 22.3999 23.7999C20.9999 25.2999 19.4999 25.9999 17.8999 25.9999Z" fill="#1D1D1B"/>
<path d="M164.7 227.9C166 227.9 167.2 228.4 168.3 229.3C169.3 230.1 170 231.2 170.4 232.6L168.3 233.4C168 232.5 167.6 231.8 167 231.3C166.3 230.7 165.6 230.3 164.7 230.3C163.6 230.3 162.7 230.7 161.9 231.6C161.1 232.4 160.7 233.4 160.7 234.4C160.7 235.4 161 236.3 161.7 237C162.4 237.7 163.2 238 164.3 238C164.8 238 165.2 237.9 165.5 237.8C165.8 237.7 166.1 237.4 166.5 237.1L168.1 238.7L162.9 243.6H167.9V241.4H170.1V246H158.6V244.6L163.1 240.4C161.7 240.1 160.6 239.5 159.7 238.4C158.9 237.3 158.4 236.1 158.4 234.6C158.4 232.9 159 231.4 160.2 230.1C161.6 228.5 163 227.9 164.7 227.9Z" fill="#1D1D1B"/>
<path d="M17.5999 43.2C17.9999 44.3 18.6999 45.9 19.7999 46.6H14.9999C16.1999 45.6 16.7999 44.2 17.0999 43.2C16.3999 44.4 15.1 45.2 13.7 45.2C11.5 45.2 9.69995 43.4 9.69995 41.2C9.69995 39 11.5 37.2 13.7 37.2C14.1 37.2 14.5999 37.2999 14.9999 37.3999C14.1999 36.6999 13.7 35.5999 13.7 34.4999C13.7 32.2999 15.5 30.4999 17.7 30.4999C19.9 30.4999 21.7 32.2999 21.7 34.4999C21.7 35.6999 21.0999 36.7999 20.2999 37.4999C20.5999 37.3999 20.9999 37.3999 21.2999 37.3999C23.4999 37.3999 25.2999 39.1999 25.2999 41.3999C25.2999 43.5999 23.4999 45.3999 21.2999 45.3999C19.5999 45.3999 18.2999 44.5 17.5999 43.2Z" fill="#1D1D1B"/>
<path d="M164.6 211.1C164.2 210 163.5 208.4 162.4 207.7H167.2C166 208.7 165.4 210.1 165.1 211.1C165.8 209.9 167.1 209.1 168.5 209.1C170.7 209.1 172.5 210.9 172.5 213.1C172.5 215.3 170.7 217.1 168.5 217.1C168.1 217.1 167.6 217 167.2 216.9C168 217.6 168.5 218.7 168.5 219.8C168.5 222 166.7 223.8 164.5 223.8C162.3 223.8 160.5 222 160.5 219.8C160.5 218.6 161.1 217.5 161.9 216.8C161.6 216.9 161.2 216.9 160.9 216.9C158.7 216.9 156.9 215.1 156.9 212.9C156.9 210.7 158.7 208.9 160.9 208.9C162.6 209 164 209.9 164.6 211.1Z" fill="#1D1D1B"/>
<path d="M90.7999 47.3999C91.5999 49.8999 93.0999 53.2999 95.6999 54.7999H85.0999C87.7999 52.6999 89.0999 49.4999 89.5999 47.2999C88.0999 49.8999 85.2999 51.7 82.0999 51.7C77.2999 51.7 73.3999 47.7999 73.3999 42.9999C73.3999 38.1999 77.2999 34.2999 82.0999 34.2999C83.0999 34.2999 83.9999 34.5 84.8999 34.7C83.1999 33.1 82.0999 30.8999 82.0999 28.3999C82.0999 23.5999 85.9999 19.7 90.7999 19.7C95.5999 19.7 99.4999 23.5999 99.4999 28.3999C99.4999 31.0999 98.2999 33.5 96.3999 35.1C97.0999 34.9 97.8999 34.7999 98.5999 34.7999C103.4 34.7999 107.3 38.6999 107.3 43.4999C107.3 48.2999 103.4 52.2 98.5999 52.2C95.0999 52.2 92.1999 50.2999 90.7999 47.3999Z" fill="#1D1D1B"/>
<path d="M89.8 206.9C89 204.4 87.5001 201 84.9001 199.5H95.5001C92.8001 201.6 91.5001 204.8 91.0001 207C92.5001 204.4 95.3001 202.6 98.5001 202.6C103.3 202.6 107.2 206.5 107.2 211.3C107.2 216.1 103.3 220 98.5001 220C97.5001 220 96.6001 219.8 95.7001 219.6C97.4001 221.2 98.5001 223.4 98.5001 225.9C98.5001 230.7 94.6 234.6 89.8 234.6C85 234.6 81.1001 230.7 81.1001 225.9C81.1001 223.2 82.3001 220.8 84.2001 219.2C83.5001 219.4 82.7001 219.5 82.0001 219.5C77.2001 219.5 73.3 215.6 73.3 210.8C73.3 206 77.2001 202.1 82.0001 202.1C85.5001 202.1 88.4 204 89.8 206.9Z" fill="#1D1D1B"/>
<path d="M90.7999 137.2C91.5999 139.7 93.0999 143.1 95.6999 144.6H85.0999C87.7999 142.5 89.0999 139.3 89.5999 137.1C88.0999 139.7 85.2999 141.5 82.0999 141.5C77.2999 141.5 73.3999 137.6 73.3999 132.8C73.3999 128 77.2999 124.1 82.0999 124.1C83.0999 124.1 83.9999 124.3 84.8999 124.5C83.1999 122.9 82.0999 120.7 82.0999 118.2C82.0999 113.4 85.9999 109.5 90.7999 109.5C95.5999 109.5 99.4999 113.4 99.4999 118.2C99.4999 120.9 98.2999 123.3 96.3999 124.9C97.0999 124.7 97.8999 124.6 98.5999 124.6C103.4 124.6 107.3 128.5 107.3 133.3C107.3 138.1 103.4 142 98.5999 142C95.0999 142 92.1999 140.1 90.7999 137.2Z" fill="#1D1D1B"/>
</svg>
