<svg width="181" height="254" viewBox="0 0 181 254" fill="none" xmlns="http://www.w3.org/2000/svg">
<path d="M179.9 231.2C179.9 243 173.1 252.6 164.7 252.6H16.4001C8.00015 252.6 1.2002 243 1.2002 231.2V22.1001C1.2002 10.3001 8.00015 0.700073 16.4001 0.700073H164.7C173.1 0.700073 179.9 10.3001 179.9 22.1001V231.2Z" fill="white" stroke="#1D1D1B" stroke-miterlimit="10"/>
<path d="M29.4004 126.9V96.8001C42.2004 87.2001 63.1006 80.1001 63.1006 80.1001C63.1006 80.1001 113.101 70.0001 127.601 76.9001L139.101 83.0001L139.2 105.5H150.801V127.2L90.1006 127" fill="#211C4B"/>
<path d="M29.4004 126.9V96.8001C42.2004 87.2001 63.1006 80.1001 63.1006 80.1001C63.1006 80.1001 113.101 70.0001 127.601 76.9001L139.101 83.0001L139.2 105.5H150.801V127.2L90.1006 127" stroke="#13110C" stroke-miterlimit="10"/>
<path d="M139.2 95.8001C139.2 95.8001 133.901 100.2 131.101 107.8C131.101 107.8 132.8 110.3 134.2 107.8L139.301 105.3L139.2 95.8001Z" fill="#E31013"/>
<path d="M71.4001 126.9H81.7002C81.7002 126.9 84.0002 106.7 70.0002 82.0001L64.1003 79.6001L57.8003 82.1001C57.8003 82.1001 66.8002 95.0001 69.5002 107.4C69.6002 107.3 71.6001 116.9 71.4001 126.9Z" fill="#13110C" stroke="#13110C" stroke-miterlimit="10"/>
<path d="M71.9999 69.7001C70.6999 66.3001 65.9999 68.0001 65.9999 68.0001C65.9999 68.0001 61.0998 70.5001 61.8998 76.0001C61.8998 76.0001 61.8998 81.5001 66.8998 82.0001C66.8998 82.0001 81.6998 82.2001 86.3998 78.6001C86.3998 78.6001 88.1998 76.6001 88.3998 78.1001C88.3998 78.1001 87.6 82.4001 90.6 83.3001C90.6 83.3001 96.1 85.8001 101.1 83.0001C101.1 83.0001 107.4 79.9001 107.6 78.8001C107.6 78.8001 111.7 84.1001 121.7 84.0001L126 83.6001C129.8 80.9001 127.8 76.9001 127.8 76.9001C124.9 74.6001 125.8 73.5001 125.8 73.5001C126.3 72.1001 125.5 62.9001 125.5 62.9001C123.6 60.6001 124 55.0001 124 55.0001C124.1 49.8001 119.3 46.0001 119.3 46.0001L118.6 47.6001C118.6 47.6001 104.4 43.1001 76.9999 46.5001C76.9999 46.5001 73.3999 50.2001 73.1999 57.8001C73.0999 57.8001 71.8999 66.1001 71.9999 69.7001Z" fill="#AFA3C7" stroke="#13120D" stroke-miterlimit="10"/>
<path d="M12.8003 22.5001H14.4001V8.70007H12.8003V6.80008H17.7002V8.70007H16.3003V15.4001L20.6003 8.70007H18.9001V6.80008H24.3003V8.70007H22.8003L19.3003 14.1001L22.9001 22.4001H24.4001V24.3001H19.0002V22.4001H20.7002L18.0002 16.1001L16.3003 18.7001V22.4001H17.7002V24.3001H12.8003V22.5001Z" fill="#13110C"/>
<path d="M168.7 232.2H167.101V246H168.7V247.9H163.801V246H165.2V239.3L160.9 246H162.601V247.9H157.2V246H158.7L162.2 240.6L158.601 232.3H157.101V230.4H162.5V232.3H160.801L163.5 238.6L165.2 236V232.3H163.801V230.4H168.7V232.2Z" fill="#13110C"/>
<path d="M17.4004 39.9001L15.9004 41.7001C14.6004 43.2001 12.4004 43.5001 10.9004 42.2001L10.6006 42.0001C9.10058 40.7001 8.80058 38.5001 10.1006 37.0001L12.5005 34.0001L16.9004 28.6001C17.0004 28.4001 17.2005 28.3001 17.3005 28.2001C17.4005 28.3001 17.6004 28.5001 17.7004 28.6001L24.5005 37.0001C25.7005 38.5001 25.5005 40.8001 24.0005 42.0001L23.7004 42.2001C22.2004 43.4001 19.9004 43.2001 18.7004 41.7001L17.4004 39.9001L18.2004 39.0001C18.2004 39.0001 16.6005 42.8001 14.3005 45.0001H20.2004C20.2004 44.9001 17.3004 42.0001 17.4004 39.9001Z" fill="#13110C"/>
<path d="M17.4004 39.9001L15.9004 41.7001C14.6004 43.2001 12.4004 43.5001 10.9004 42.2001L10.6006 42.0001C9.10058 40.7001 8.80058 38.5001 10.1006 37.0001L12.5005 34.0001L16.9004 28.6001C17.0004 28.4001 17.2005 28.3001 17.3005 28.2001C17.4005 28.3001 17.6004 28.5001 17.7004 28.6001L24.5005 37.0001C25.7005 38.5001 25.5005 40.8001 24.0005 42.0001L23.7004 42.2001C22.2004 43.4001 19.9004 43.2001 18.7004 41.7001L17.4004 39.9001ZM17.4004 39.9001L18.2004 39.0001C18.2004 39.0001 16.6005 42.8001 14.3005 45.0001H20.2004C20.2004 44.9001 17.3004 42.0001 17.4004 39.9001Z" stroke="#13110C" stroke-miterlimit="10"/>
<path d="M162.7 212.6L164.2 210.8C165.5 209.3 167.7 209 169.2 210.3L169.5 210.5C171 211.8 171.3 214 170 215.5L167.6 218.5L163.2 223.9C163.1 224.1 162.9 224.2 162.8 224.3C162.7 224.2 162.5 224 162.4 223.9L155.6 215.5C154.4 214 154.6 211.7 156.1 210.5L156.4 210.3C157.9 209.1 160.2 209.3 161.4 210.8L162.7 212.6L161.9 213.5C161.9 213.5 163.5 209.7 165.8 207.5H159.9C159.9 207.6 162.8 210.5 162.7 212.6Z" fill="#13110C"/>
<path d="M162.7 212.6L164.2 210.8C165.5 209.3 167.7 209 169.2 210.3L169.5 210.5C171 211.8 171.3 214 170 215.5L167.6 218.5L163.2 223.9C163.1 224.1 162.9 224.2 162.8 224.3C162.7 224.2 162.5 224 162.4 223.9L155.6 215.5C154.4 214 154.6 211.7 156.1 210.5L156.4 210.3C157.9 209.1 160.2 209.3 161.4 210.8L162.7 212.6ZM162.7 212.6L161.9 213.5C161.9 213.5 163.5 209.7 165.8 207.5H159.9C159.9 207.6 162.8 210.5 162.7 212.6Z" stroke="#13110C" stroke-miterlimit="10"/>
<path d="M49.5001 53.6001L47.4 56.2001C45.6 58.4001 42.4 58.7001 40.2 56.9001L39.8001 56.6001C37.6001 54.8001 37.3002 51.6001 39.1002 49.4001L42.6002 45.1001L49.0001 37.4001C49.2001 37.2001 49.4002 37.0001 49.6002 36.8001C49.8002 37.0001 50 37.2001 50.2 37.4001L60.0001 49.5001C61.8001 51.7001 61.4 54.9001 59.2 56.7001L58.8001 57.0001C56.6001 58.8001 53.4002 58.4001 51.6002 56.2001L49.5001 53.6001L50.6002 52.3001C50.6002 52.3001 48.4001 57.7001 45.0001 60.9001H53.5001C53.5001 60.8001 49.4001 56.6001 49.5001 53.6001Z" fill="#13110C"/>
<path d="M49.5001 53.6001L47.4 56.2001C45.6 58.4001 42.4 58.7001 40.2 56.9001L39.8001 56.6001C37.6001 54.8001 37.3002 51.6001 39.1002 49.4001L42.6002 45.1001L49.0001 37.4001C49.2001 37.2001 49.4002 37.0001 49.6002 36.8001C49.8002 37.0001 50 37.2001 50.2 37.4001L60.0001 49.5001C61.8001 51.7001 61.4 54.9001 59.2 56.7001L58.8001 57.0001C56.6001 58.8001 53.4002 58.4001 51.6002 56.2001L49.5001 53.6001ZM49.5001 53.6001L50.6002 52.3001C50.6002 52.3001 48.4001 57.7001 45.0001 60.9001H53.5001C53.5001 60.8001 49.4001 56.6001 49.5001 53.6001Z" stroke="#13110C" stroke-miterlimit="10"/>
<path d="M133.7 194.9L135.8 192.3C137.6 190.1 140.8 189.8 143 191.6L143.4 191.9C145.6 193.7 145.9 196.9 144.1 199.1L140.6 203.4L134.2 211.1C134 211.3 133.8 211.5 133.6 211.7C133.4 211.5 133.2 211.3 133 211.1L123.2 199C121.4 196.8 121.8 193.6 124 191.8L124.4 191.5C126.6 189.7 129.8 190.1 131.6 192.3L133.7 194.9L132.6 196.2C132.6 196.2 134.8 190.8 138.2 187.6H129.7C129.6 187.7 133.7 191.9 133.7 194.9Z" fill="#13110C"/>
<path d="M133.7 194.9L135.8 192.3C137.6 190.1 140.8 189.8 143 191.6L143.4 191.9C145.6 193.7 145.9 196.9 144.1 199.1L140.6 203.4L134.2 211.1C134 211.3 133.8 211.5 133.6 211.7C133.4 211.5 133.2 211.3 133 211.1L123.2 199C121.4 196.8 121.8 193.6 124 191.8L124.4 191.5C126.6 189.7 129.8 190.1 131.6 192.3L133.7 194.9ZM133.7 194.9L132.6 196.2C132.6 196.2 134.8 190.8 138.2 187.6H129.7C129.6 187.7 133.7 191.9 133.7 194.9Z" stroke="#13110C" stroke-miterlimit="10"/>
<path d="M150.9 28.8001H29.4004V224.9H150.9V28.8001Z" stroke="#13110C" stroke-miterlimit="10"/>
<path d="M150.9 111.2C150.9 111.2 148.8 109.3 148.3 108.9C147.8 108.5 138.1 106.8 136 110.2C133.9 113.6 139.8 113.5 139.8 113.5L140.2 115.7C137.7 117.4 140.2 119 140.2 119C138.4 120.3 140.3 121.6 140.3 121.6C138.6 124 141 124.9 141 124.9C138.7 125.8 141.1 127 141.1 127L151 127.1V111.2" fill="#FED68A"/>
<path d="M150.9 111.2C150.9 111.2 148.8 109.3 148.3 108.9C147.8 108.5 138.1 106.8 136 110.2C133.9 113.6 139.8 113.5 139.8 113.5L140.2 115.7C137.7 117.4 140.2 119 140.2 119C138.4 120.3 140.3 121.6 140.3 121.6C138.6 124 141 124.9 141 124.9C138.7 125.8 141.1 127 141.1 127L151 127.1V111.2" stroke="#13110C" stroke-miterlimit="10"/>
<path d="M129 29.3001L65.5 28.8001C65.5 28.8001 72.4 36.4001 75.8 43.8001C76.2 44.7001 76.5999 45.6001 76.8999 46.5001C76.8999 46.5001 101.1 42.7001 118.5 47.6001C118.5 47.6001 126 30.7001 129 29.3001Z" fill="#FFEA24" stroke="#13110C" stroke-miterlimit="10"/>
<path d="M119.3 45.8001C100 39.0001 76 44.3001 76 44.3001L76.8999 46.5001C76.8999 46.5001 99 42.7001 118.5 47.6001L119.3 45.8001Z" fill="#13110C" stroke="#13110C" stroke-miterlimit="10"/>
<path d="M119.5 45.3001C119.5 45.3001 102.6 37.6001 75.8003 43.7001L74.2002 40.3001C74.2002 40.3001 100.4 34.8001 121.1 41.8001" fill="#E31013"/>
<path d="M119.5 45.3001C119.5 45.3001 102.6 37.6001 75.8003 43.7001L74.2002 40.3001C74.2002 40.3001 100.4 34.8001 121.1 41.8001" stroke="#13110C" stroke-miterlimit="10"/>
<path d="M120 39.4001C119.6 39.3001 118.5 38.2001 118.5 38.2001C119.2 38.8001 120.6 38.9001 120.6 38.9001L120 39.4001Z" stroke="#231E48" stroke-miterlimit="10"/>
<path d="M75.6006 38.4001C76.0006 38.3001 77.1006 37.3001 77.1006 37.3001C76.3006 37.9001 74.9004 37.9001 74.9004 37.9001L75.6006 38.4001Z" stroke="#231E48" stroke-miterlimit="10"/>
<path d="M80.7001 36.8001C80.8001 37.3001 80.5001 37.7001 80.0001 37.8001C79.5001 37.9001 79.1001 37.6001 79.0001 37.1001L78.9 36.6001C78.8 36.1001 79.1002 35.7001 79.6002 35.6001C80.1002 35.5001 80.5002 35.8001 80.6002 36.3001L80.7001 36.8001Z" stroke="#231E48" stroke-miterlimit="10"/>
<path d="M99.8003 36.2001C99.8003 36.7001 99.4002 37.0001 99.0002 37.0001C98.5002 37.0001 98.2002 36.6001 98.2002 36.2001V35.6001C98.2002 35.1001 98.6002 34.8001 99.0002 34.8001C99.5002 34.8001 99.8003 35.2001 99.8003 35.6001V36.2001Z" stroke="#231E48" stroke-miterlimit="10"/>
<path d="M102.3 36.3001L113.5 37.0001C112.2 36.8001 107.9 33.8001 107.9 33.8001C107.9 33.8001 103.3 36.3001 102.3 36.3001Z" stroke="#231E48" stroke-miterlimit="10"/>
<path d="M117.101 37.0001C117.001 37.4001 116.601 37.7001 116.101 37.6001C115.601 37.5001 115.401 37.1001 115.501 36.6001L115.601 36.1001C115.701 35.6001 116.101 35.4001 116.601 35.5001C117.101 35.6001 117.301 36.0001 117.201 36.5001L117.101 37.0001Z" stroke="#231E48" stroke-miterlimit="10"/>
<path d="M90.5005 31.6001C90.5005 32.2001 90.2005 32.6001 89.8005 32.6001C89.4005 32.6001 89.1006 32.1001 89.1006 31.6001C89.1006 31.0001 89.4005 30.6001 89.8005 30.6001C90.2005 30.6001 90.5005 31.0001 90.5005 31.6001Z" stroke="#231E48" stroke-miterlimit="10"/>
<path d="M108.601 31.8001C108.601 32.4001 108.3 32.8001 108 32.8001C107.7 32.8001 107.4 32.3001 107.4 31.8001C107.4 31.2001 107.7 30.8001 108 30.8001C108.4 30.8001 108.601 31.2001 108.601 31.8001Z" stroke="#231E48" stroke-miterlimit="10"/>
<path d="M79.9004 32.1001C79.9004 33.2001 79.7005 34.2001 79.5005 34.2001C79.3005 34.2001 79.1006 33.3001 79.1006 32.1001C79.1006 30.9001 79.3005 30.0001 79.5005 30.0001C79.7005 30.1001 79.9004 31.0001 79.9004 32.1001Z" stroke="#231E48" stroke-miterlimit="10"/>
<path d="M82.8004 32.8001C82.0004 33.7001 81.5003 34.5001 81.7003 34.7001C81.9003 34.9001 82.7004 34.3001 83.5004 33.4001C84.3004 32.5001 84.8005 31.7001 84.6005 31.5001C84.4005 31.4001 83.6004 32.0001 82.8004 32.8001Z" stroke="#231E48" stroke-miterlimit="10"/>
<path d="M76.3005 33.5001C75.3005 32.9001 74.4005 32.5001 74.3005 32.7001C74.2005 32.9001 74.9004 33.6001 75.9004 34.2001C76.9004 34.8001 77.8004 35.2001 77.9004 35.0001C78.0004 34.8001 77.3005 34.1001 76.3005 33.5001Z" stroke="#231E48" stroke-miterlimit="10"/>
<path d="M99.2004 31.8001C99.2004 32.7001 99.0005 33.5001 98.8005 33.5001C98.6005 33.5001 98.4004 32.7001 98.4004 31.8001C98.4004 30.9001 98.6005 30.1001 98.8005 30.1001C99.0005 30.1001 99.2004 30.8001 99.2004 31.8001Z" stroke="#231E48" stroke-miterlimit="10"/>
<path d="M101.5 32.6001C100.8 33.3001 100.4 34.0001 100.6 34.2001C100.7 34.3001 101.4 33.9001 102.1 33.1001C102.8 32.4001 103.2 31.7001 103 31.5001C102.8 31.4001 102.2 31.9001 101.5 32.6001Z" stroke="#231E48" stroke-miterlimit="10"/>
<path d="M96.3002 32.9001C95.5002 32.4001 94.7003 32.1001 94.6003 32.2001C94.5003 32.4001 95.1001 32.9001 95.9001 33.5001C96.7001 34.0001 97.5003 34.3001 97.6003 34.2001C97.7003 34.0001 97.1002 33.4001 96.3002 32.9001Z" stroke="#231E48" stroke-miterlimit="10"/>
<path d="M117 32.3001C116.9 33.2001 116.7 34.0001 116.5 34.0001C116.3 34.0001 116.2 33.2001 116.3 32.3001C116.4 31.4001 116.6 30.6001 116.8 30.6001C117 30.6001 117 31.4001 117 32.3001Z" stroke="#231E48" stroke-miterlimit="10"/>
<path d="M119.1 33.2001C118.4 33.9001 117.9 34.5001 118 34.7001C118.1 34.8001 118.8 34.4001 119.6 33.8001C120.3 33.1001 120.8 32.5001 120.7 32.3001C120.5 32.2001 119.8 32.6001 119.1 33.2001Z" stroke="#231E48" stroke-miterlimit="10"/>
<path d="M113.9 32.8001C113.1 32.2001 112.4 31.8001 112.3 32.0001C112.2 32.2001 112.7 32.8001 113.5 33.4001C114.3 34.0001 115 34.4001 115.1 34.2001C115.2 34.1001 114.7 33.5001 113.9 32.8001Z" stroke="#231E48" stroke-miterlimit="10"/>
<path d="M84.6006 37.0001L95.8005 36.5001C94.5005 36.4001 89.9004 33.9001 89.9004 33.9001C89.9004 33.9001 85.6006 36.9001 84.6006 37.0001Z" stroke="#231E48" stroke-miterlimit="10"/>
<path d="M95.8001 45.1001C95.8001 45.1001 90.0002 56.6001 92.6002 67.6001C92.6002 67.6001 96.9002 78.7001 105.6 78.1001C105.6 78.1001 113.4 79.1001 118 71.5001C118 71.5001 120.7 64.4001 119.3 49.6001L118.5 47.6001C118.5 47.6001 113.2 45.3001 95.8001 45.1001Z" fill="#FED68A" stroke="#13110C" stroke-miterlimit="10"/>
<path d="M96.2002 48.8001C96.2002 48.8001 103.6 48.2001 106.2 49.1001" stroke="#13110C" stroke-miterlimit="10"/>
<path d="M103.9 53.3001C99.5001 49.1001 94.8003 54.0001 94.8003 54.0001C94.8003 54.0001 98.3001 57.5001 103.9 54.8001C103.9 54.7001 104.9 54.3001 103.9 53.3001Z" stroke="#13110C" stroke-miterlimit="10"/>
<path d="M103.6 55.3001C103.6 55.3001 102.4 57.5001 100.2 58.2001" stroke="#13110C" stroke-miterlimit="10"/>
<path d="M111.101 49.0001C111.101 49.0001 115.8 48.2001 118 49.3001" stroke="#13110C" stroke-miterlimit="10"/>
<path d="M110.801 49.0001C110.801 49.0001 110.301 57.9001 110.801 59.7001C110.801 59.7001 112.801 67.5001 108.001 65.0001C108.001 65.0001 106.801 64.2001 106.001 65.1001C106.001 65.1001 102.901 65.1001 104.301 62.4001" stroke="#13110C" stroke-miterlimit="10"/>
<path d="M118.2 52.8001C114.7 50.7001 111.2 53.5001 111.2 53.5001C111.2 53.5001 111.1 54.9001 112.2 55.5001C112.4 55.6001 120.9 56.4001 118.3 52.9001V52.8001H118.2Z" stroke="#13110C" stroke-miterlimit="10"/>
<path d="M111.4 55.7001C111.4 55.7001 112.501 57.3001 114.101 57.4001" stroke="#13110C" stroke-miterlimit="10"/>
<path d="M101.2 53.7001C101.2 54.0001 100.5 54.2001 99.7002 54.2001C98.9002 54.2001 98.2002 54.0001 98.2002 53.7001C98.2002 53.4001 98.9002 53.2001 99.7002 53.2001C100.6 53.2001 101.2 53.4001 101.2 53.7001Z" stroke="#13110C" stroke-miterlimit="10"/>
<path d="M116.2 53.7001C116.2 53.9001 115.7 54.2001 115 54.2001C114.3 54.2001 113.8 54.1001 113.8 53.8001C113.8 53.6001 114.3 53.3001 115 53.3001C115.6 53.3001 116.2 53.5001 116.2 53.7001Z" stroke="#13110C" stroke-miterlimit="10"/>
<path d="M97.6999 67.2001C97.6999 67.2001 97.8 64.7001 95.6 65.8001C95.6 65.8001 94.0999 68.5001 97.6999 68.8001C97.6999 68.8001 101 69.0001 102.6 67.6001C102.6 67.6001 104.4 66.8001 105.1 67.1001" stroke="#13110C" stroke-miterlimit="10"/>
<path d="M102.9 68.0001C102.9 68.0001 104.6 67.8001 104.9 67.8001" stroke="#13110C" stroke-miterlimit="10"/>
<path d="M110 67.9001L111.6 68.0001" stroke="#13110C" stroke-miterlimit="10"/>
<path d="M115.5 67.0001C115.5 67.0001 115.1 64.7001 117.1 65.4001C117.1 65.4001 118.1 66.2001 117.8 67.4001C118 69.3001 114.3 68.8001 114.3 68.8001C113.3 68.7001 110 67.0001 110 67.0001" stroke="#13110C" stroke-miterlimit="10"/>
<path d="M101.9 70.8001H111.4" stroke="#13110C" stroke-miterlimit="10"/>
<path d="M104.5 70.3001H108.3" stroke="#13110C" stroke-miterlimit="10"/>
<path d="M104.8 71.5001H107.9" stroke="#13110C" stroke-miterlimit="10"/>
<path d="M104.8 72.9001C104.8 72.9001 105.5 74.2001 107 74.0001C107 74.0001 108.8 74.5001 109.2 72.9001" stroke="#13110C" stroke-miterlimit="10"/>
<path d="M70.0004 70.8001C70.0004 70.8001 67.9004 68.4001 64.8004 71.5001C61.7004 74.6001 64.6003 78.2001 65.4003 78.9001C66.2003 79.5001 69.6003 79.7001 71.9003 76.2001C74.2003 72.6001 74.2005 67.5001 74.1005 65.6001C74.0005 63.7001 75.7004 54.2001 76.0004 53.5001C76.3004 52.8001 78.2003 48.0001 78.2003 48.0001" stroke="#13110C" stroke-width="0.5" stroke-miterlimit="10"/>
<path d="M69.6004 72.5001C69.6004 72.5001 66.5002 70.8001 65.4002 73.2001C64.4002 75.6001 66.5003 77.8001 68.2003 77.3001C69.9003 76.8001 70.2003 75.0001 70.0003 74.6001" stroke="#13110C" stroke-width="0.5" stroke-miterlimit="10"/>
<path d="M68.1006 73.5001C68.1006 73.5001 66.9004 73.4001 66.9004 74.7001C66.9004 76.0001 68.3005 76.1001 68.8005 75.5001" stroke="#13110C" stroke-width="0.5" stroke-miterlimit="10"/>
<path d="M72.0005 70.3001C72.0005 70.3001 72.2004 74.5001 70.9004 75.4001" stroke="#13110C" stroke-width="0.5" stroke-miterlimit="10"/>
<path d="M82.0005 47.3001V49.0001C82.0005 49.0001 81.3005 54.5001 79.3005 58.1001C77.3005 61.7001 78.5004 69.1001 78.2004 72.8001C77.8004 76.6001 73.1006 80.4001 73.1006 80.4001" stroke="#13110C" stroke-width="0.5" stroke-miterlimit="10"/>
<path d="M80.4001 47.3001V48.5001C79.6001 49.0001 77.4001 56.7001 77.4001 56.7001C75.8001 61.4001 76.0002 70.7001 76.0002 70.7001C74.7002 79.8001 68.7002 81.1001 68.7002 81.1001" stroke="#13110C" stroke-width="0.5" stroke-miterlimit="10"/>
<path d="M84.2004 47.3001C84.2004 47.3001 83.0005 56.4001 81.0005 59.8001C81.0005 59.8001 79.2004 65.6001 80.4004 69.7001C80.4004 69.7001 81.3004 75.9001 76.9004 79.9001" stroke="#13110C" stroke-width="0.5" stroke-miterlimit="10"/>
<path d="M79.7002 80.0001C79.7002 80.0001 83.7001 75.1001 82.9001 70.3001C82.1001 65.5001 82.1002 62.9001 83.7002 59.8001C85.4002 56.8001 86.2002 47.9001 86.2002 47.3001" stroke="#13110C" stroke-width="0.5" stroke-miterlimit="10"/>
<path d="M82.7002 79.2001C82.7002 79.2001 85.8003 76.1001 85.8003 71.5001C85.8003 66.9001 83.8003 66.8001 85.8003 62.3001C85.8003 62.3001 89.2002 51.3001 88.0002 47.9001" stroke="#13110C" stroke-width="0.5" stroke-miterlimit="10"/>
<path d="M86.8003 76.6001C86.8003 76.6001 89.3002 72.2001 88.2002 68.9001C87.1002 65.6001 86.3003 64.9001 87.6003 62.1001C88.9003 59.3001 90.3003 49.4001 90.1003 48.6001" stroke="#13110C" stroke-width="0.5" stroke-miterlimit="10"/>
<path d="M90.2001 74.0001C90.2001 74.0001 91.4001 68.5001 90.2001 65.5001C89.0001 62.5001 91.9003 48.4001 92.6003 47.3001" stroke="#13110C" stroke-width="0.5" stroke-miterlimit="10"/>
<path d="M92.2002 75.7001C92.2002 75.7001 93.2001 70.8001 92.9001 70.2001" stroke="#13110C" stroke-width="0.5" stroke-miterlimit="10"/>
<path d="M97.7003 77.4001C97.7003 77.4001 96.3003 84.2001 90.2003 80.8001C90.2003 80.8001 89.5004 77.4001 92.3004 78.7001C92.3004 78.7001 92.5004 80.1001 92.0004 80.0001" stroke="#13110C" stroke-width="0.5" stroke-miterlimit="10"/>
<path d="M93.6006 80.0001C93.6006 80.0001 96.1005 78.8001 95.3005 75.0001" stroke="#13110C" stroke-width="0.5" stroke-miterlimit="10"/>
<path d="M92.6006 77.5001C92.6006 77.5001 94.1004 75.9001 94.2004 73.5001" stroke="#13110C" stroke-width="0.5" stroke-miterlimit="10"/>
<path d="M93 82.9001C93 82.9001 96.5001 83.4001 99.6001 78.2001" stroke="#13110C" stroke-width="0.5" stroke-miterlimit="10"/>
<path d="M96.2002 82.9001C96.2002 82.9001 99.8002 81.4001 101.2 79.3001" stroke="#13110C" stroke-width="0.5" stroke-miterlimit="10"/>
<path d="M98.7002 82.9001C98.7002 82.9001 102.8 80.2001 103.2 79.6001" stroke="#13110C" stroke-width="0.5" stroke-miterlimit="10"/>
<path d="M110.3 78.7001C110.3 78.7001 112.9 81.9001 118 82.9001" stroke="#13110C" stroke-width="0.5" stroke-miterlimit="10"/>
<path d="M112.2 78.1001C112.2 78.1001 116.4 81.6001 118.7 82.0001" stroke="#13110C" stroke-width="0.5" stroke-miterlimit="10"/>
<path d="M115 76.6001C115 76.6001 117.9 80.8001 119.7 81.2001" stroke="#13110C" stroke-width="0.5" stroke-miterlimit="10"/>
<path d="M117.3 75.0001C117.3 75.0001 120.6 83.0001 124.6 82.9001C124.6 82.9001 129.9 80.5001 124.6 76.6001C124.6 76.6001 120.5 77.1001 123.8 80.5001C123.8 80.5001 126.5 81.1001 124.7 78.1001" stroke="#13110C" stroke-width="0.5" stroke-miterlimit="10"/>
<path d="M120.5 49.0001C120.5 49.0001 122.1 54.6001 121.3 57.4001C120.5 60.2001 120.1 67.0001 120.5 68.0001C120.9 69.0001 120 72.2001 119.7 73.0001C119.3 73.8001 120 75.6001 120.6 76.6001" stroke="#13110C" stroke-width="0.5" stroke-miterlimit="10"/>
<path d="M122.1 51.1001C122.1 51.1001 123.2 57.4001 122.1 61.3001C121 65.2001 122.1 68.2001 122.1 68.9001C122.1 69.6001 122.6 71.9001 122.1 73.0001C121.6 74.1001 121.9 75.4001 122.1 75.7001" stroke="#13110C" stroke-width="0.5" stroke-miterlimit="10"/>
<path d="M123.4 62.6001C123.4 62.6001 122.8 67.8001 123.4 68.9001C124 70.0001 123.4 73.1001 123.4 74.1001" stroke="#13110C" stroke-width="0.5" stroke-miterlimit="10"/>
<path d="M124.601 63.9001C124.601 63.9001 124.9 74.2001 125 75.0001" stroke="#13110C" stroke-width="0.5" stroke-miterlimit="10"/>
<path d="M139.2 49.3001L139.3 105.4H150.9V48.8001L145 43.4001L139.2 49.3001Z" stroke="#231E48" stroke-miterlimit="10"/>
<path d="M143 104.9C143.3 104.2 143.4 103.2 143.7 101C143.8 99.7001 144.1 97.3001 143.4 96.6001C141.5 94.8001 142 83.5001 142.4 82.9001C142.8 82.4001 144.1 74.9001 143.1 74.1001C142.1 73.2001 141.3 64.7001 142.8 60.7001C144.4 56.7001 143.7 49.4001 143.7 49.4001C143.7 49.4001 146.3 52.3001 145 60.9001C145 60.9001 144.5 68.9001 145.8 70.9001C145.8 70.9001 147 79.0001 145.4 86.6001C145.4 86.6001 145.3 94.0001 146.6 95.6001C146.6 95.6001 147 104 146.4 105H143V104.9Z" fill="#FFEA24" stroke="#13110C" stroke-miterlimit="10"/>
<path d="M150.9 106.2H138C138 106.2 134.2 106.8 134 110.8C134 110.8 133.9 116.6 139.2 114.6C139.2 114.6 141.5 112.1 137.8 111.4L136.9 111.7C136.9 111.7 136.9 109.7 141.2 110.5C141.2 110.5 148.9 112.2 150.9 111.1V106.2Z" fill="#FFEA24" stroke="#13110C" stroke-miterlimit="10"/>
<path d="M150.2 115.4C150.2 115.4 145.9 118 142.5 118.5L140.2 119" stroke="#13110C" stroke-miterlimit="10"/>
<path d="M150.2 119.6C150.2 119.6 142.1 121.6 141.4 121.6H140.2" stroke="#13110C" stroke-miterlimit="10"/>
<path d="M150.2 123.3C150.2 123.3 143.4 125 142.5 125L141 124.9" stroke="#13110C" stroke-miterlimit="10"/>
<path d="M148.5 112.3C148.5 112.3 144.4 115.1 141.2 115.5L140.2 115.8" stroke="#13110C" stroke-miterlimit="10"/>
<path d="M86.4001 111.6H88.5002C88.2002 106.4 86.0002 98.6001 86.0002 98.6001C84.8002 94.7001 80.0002 80.9001 80.0002 80.9001L77.2002 81.4001C77.2002 81.4001 81.1001 88.7001 82.9001 95.4001C82.9001 95.4001 86.0001 107.5 86.4001 111.6Z" fill="#FFEA24" stroke="#13110C" stroke-miterlimit="10"/>
<path d="M96.5005 111.6H82.9004V114.1H96.5005V111.6Z" fill="white" stroke="#13110C" stroke-miterlimit="10"/>
<path d="M99.0002 83.8001L102.1 82.4001C102.1 82.4001 96.8002 95.0001 95.5002 102.1C95.5002 102.1 93.3001 108.4 93.4001 111.6H91.2002C91.2002 111.6 93.3002 98.4001 95.2002 94.0001L99.0002 83.8001Z" fill="#FFEA24" stroke="#13110C" stroke-miterlimit="10"/>
<path d="M90.2002 100.9C90.2002 100.9 87.5003 99.7001 87.6003 97.7001C87.6003 97.7001 87.4002 94.1001 90.0002 92.6001C90.0002 92.6001 92.8002 90.3001 90.2002 87.0001C90.2002 87.0001 87.0002 85.3001 86.4002 87.7001C86.4002 87.7001 85.9003 88.5001 86.6003 89.6001C86.6003 89.6001 86.7003 88.0001 87.3003 88.1001C87.9003 88.2001 89.7003 87.5001 89.6003 89.6001C89.6003 89.6001 89.5003 92.0001 87.6003 92.3001C85.7003 92.6001 82.7002 90.9001 83.9002 87.1001C83.9002 87.1001 85.2003 83.0001 88.8003 83.8001C88.8003 83.8001 94.9003 84.6001 93.3003 90.6001C93.3003 90.6001 92.1002 94.5001 89.7002 96.8001C89.7002 96.8001 89.1002 99.8001 91.2002 99.1001C91.2002 99.1001 89.3002 97.6001 91.4002 97.1001C91.4002 97.1001 93.9002 96.7001 92.9002 99.7001C92.9002 99.7001 92.2003 102.4 90.1003 103.7C90.1003 103.7 89.3002 105.2 91.0002 104.9C91.0002 104.9 92.6002 105.7 90.9002 107.2C90.9002 107.2 87.8003 108 88.3003 104.6C88.3003 104.6 88.5003 102.3 90.1003 101.2" fill="#FFEA24"/>
<path d="M84.1003 83.1001C84.1003 83.6001 83.7002 84.0001 83.2002 84.0001C82.7002 84.0001 82.3003 83.6001 82.3003 83.1001C82.3003 82.6001 82.7002 82.2001 83.2002 82.2001C83.7002 82.2001 84.1003 82.6001 84.1003 83.1001Z" fill="#FFEA24"/>
<path d="M96.2002 87.9001C96.2002 88.3001 95.9002 88.6001 95.5002 88.6001C95.1002 88.6001 94.8003 88.3001 94.8003 87.9001C94.8003 87.5001 95.1002 87.2001 95.5002 87.2001C95.9002 87.1001 96.2002 87.5001 96.2002 87.9001Z" fill="#FFEA24"/>
<path d="M94.1003 94.8001C94.1003 95.2001 93.8001 95.5001 93.4001 95.5001C93.0001 95.5001 92.7002 95.2001 92.7002 94.8001C92.7002 94.4001 93.0001 94.1001 93.4001 94.1001C93.8001 94.1001 94.1003 94.4001 94.1003 94.8001Z" fill="#FFEA24"/>
<path d="M86.5002 95.3001C86.8868 95.3001 87.2002 94.9867 87.2002 94.6001C87.2002 94.2135 86.8868 93.9001 86.5002 93.9001C86.1136 93.9001 85.8003 94.2135 85.8003 94.6001C85.8003 94.9867 86.1136 95.3001 86.5002 95.3001Z" fill="#FFEA24"/>
<path d="M90.7002 109.7C90.7002 110.1 90.4002 110.4 90.0002 110.4C89.6002 110.4 89.3003 110.1 89.3003 109.7C89.3003 109.3 89.6002 109 90.0002 109C90.4002 109 90.7002 109.4 90.7002 109.7Z" fill="#FFEA24"/>
<path d="M79.7 105.8C81.9 114.2 81.7 126.8 81.7 126.8H83.7C84 117.1 82.1002 107.3 82.1002 107.3C79.7002 94.5001 72.6002 81.9001 72.6002 81.9001H70.2C70.1 82.0001 79.2 100.2 79.7 105.8Z" fill="#FFEA24" stroke="#13110C" stroke-miterlimit="10"/>
<path d="M86.4001 111.6H82.9001C82.9001 111.6 83.1003 104.9 72.8003 81.8001L77.2002 81.4001C77.2002 81.4001 83.3002 91.0001 86.2002 111.7" fill="#E31013"/>
<path d="M86.4001 111.6H82.9001C82.9001 111.6 83.1003 104.9 72.8003 81.8001L77.2002 81.4001C77.2002 81.4001 83.3002 91.0001 86.2002 111.7" stroke="#13110C" stroke-miterlimit="10"/>
<path d="M109.5 80.5001C101.4 91.8001 96.6001 111.7 96.6001 111.7H93.5C93.5 111.7 92.7 106.2 102.2 82.5001C102.2 82.5001 106.8 80.2001 107.7 78.8001C107.6 78.8001 108.9 80.1001 109.5 80.5001Z" fill="#E31013" stroke="#13110C" stroke-miterlimit="10"/>
<path d="M111.4 81.7001L106.8 89.6001C101.7 98.9001 99.5002 111.2 99.5002 111.2C98.4002 113.9 98.1003 126.9 98.1003 126.9H96.2002C96.2002 126.9 95.2003 108.9 100.1 99.6001C100.1 99.6001 107.5 81.1001 109.9 80.8001L111.4 81.7001Z" fill="#FFEA24" stroke="#13110C" stroke-miterlimit="10"/>
<path d="M111.4 81.7001C117.9 84.8001 122.601 83.9001 122.601 83.9001C116.701 90.3001 110.801 107.7 110.801 107.7C108.001 114.8 108.5 126.9 108.5 126.9H98.1006C98.2006 126.9 97.4004 102.7 111.4 81.7001Z" fill="#13110C" stroke="#13110C" stroke-miterlimit="10"/>
<path d="M110.1 88.9001C109.7 84.7001 113.9 87.1001 113.9 87.1001L114.5 84.3001L116.5 85.2001L114.8 87.7001C114.8 87.7001 119.7 89.7001 114.9 92.6001L111.2 94.1001L110.1 88.9001Z" fill="white"/>
<path d="M104.801 101.3C104.201 97.1001 108.501 99.4001 108.501 99.4001L109.001 96.5001L111.101 97.3001L109.501 99.9001C109.501 99.9001 114.401 101.7 109.801 104.7L106.2 106.4L104.801 101.3Z" fill="white"/>
<path d="M101.2 115.1C99.6003 111.2 104.3 112.3 104.3 112.3L104.1 109.4L106.3 109.7L105.4 112.6C105.4 112.6 110.6 113.1 106.9 117.2L103.8 119.7L101.2 115.1Z" fill="white"/>
<path d="M108.601 126.9L111 127C111 127 109.801 114.7 116.301 100.2C116.301 100.2 121 88.5001 125.9 83.5001L122.601 83.8001C122.601 83.9001 110.001 100.4 108.601 126.9Z" fill="#FFEA24" stroke="#13110C" stroke-miterlimit="10"/>
<path d="M55.8003 82.9001C55.8003 82.9001 65.3002 99.8001 66.0002 105.3C66.0002 105.3 70.0003 118.1 68.8003 126.9H71.5002C71.5002 126.9 72.3003 115.1 68.8003 104.4C68.8003 104.4 65.3001 92.4001 57.9001 82.0001L55.8003 82.9001Z" fill="#FFEA24" stroke="#13110C" stroke-miterlimit="10"/>
<path d="M69.4001 85.7001C72.7001 88.4001 68.0002 89.6001 68.0002 89.6001L69.6003 92.0001L67.5002 92.8001L67.0002 89.8001C67.0002 89.8001 62.2002 91.8001 63.5002 86.5001L65.0002 82.8001L69.4001 85.7001Z" fill="white"/>
<path d="M75.5 98.7001C78.6 101.6 73.8001 102.5 73.8001 102.5L75.2 105L73.1001 105.6L72.8001 102.6C72.8001 102.6 67.8 104.3 69.5 99.0001L71.3001 95.4001L75.5 98.7001Z" fill="white"/>
<path d="M78.7002 112.8C81.1002 116.3 76.3003 116.2 76.3003 116.2L77.2002 119L75.0003 119.2L75.3003 116.2C75.3003 116.2 70.1003 116.9 72.8003 112L75.2002 108.9L78.7002 112.8Z" fill="white"/>
<path d="M112.9 109.9C112.9 109.9 129.6 117.1 135.5 127.1H131C131 127.1 124.6 118.4 112 113.5L112.9 109.9Z" fill="#13110C" stroke="#13110C" stroke-miterlimit="10"/>
<path d="M116.9 110.4C116.9 110.4 120 96.4001 133.4 81.2001" stroke="white" stroke-miterlimit="10"/>
<path d="M127 115.8C127 115.8 131 100.7 138.2 94.0001" stroke="white" stroke-miterlimit="10"/>
<path d="M123.3 113.7C123.3 113.7 126.3 113.5 126.1 107.1C126.1 106.9 126.1 106.7 126.1 106.4C126.1 106.4 124.2 96.3001 125.9 95.5001C125.9 95.5001 129.6 90.5001 132.3 95.2001C132.3 95.2001 133.2 98.7001 130.3 98.7001C130.3 98.7001 127.9 98.5001 128.8 96.4001C128.8 96.4001 129.2 95.5001 129.8 96.0001" stroke="white" stroke-miterlimit="10"/>
<path d="M126 107.1C123.9 103.7 120.8 105.7 120.8 105.7C120.8 105.7 117.9 109.6 122.1 110.1C122.1 110.1 123.8 109.4 122.1 108.4" stroke="white" stroke-miterlimit="10"/>
<path d="M129.5 93.2001C129.5 93.2001 134.4 92.3001 136 90.5001C136 90.5001 138.7 89.5001 137 85.6001C137 85.6001 134.7 83.4001 133.5 86.4001C133.5 86.4001 133.3 88.8001 135 87.9001" stroke="white" stroke-miterlimit="10"/>
<path d="M130.3 109.5C130.3 109.5 136.8 124.4 137.5 125.9" stroke="white" stroke-miterlimit="10"/>
<path d="M129.4 114.7C129.4 114.7 132.5 119.3 132.9 120.5" stroke="white" stroke-miterlimit="10"/>
<path d="M113.2 121.2C112.6 119.9 112.6 118.7 113.1 118.4C113.6 118.2 114.4 119.1 115 120.4C115.6 121.7 115.6 122.9 115.1 123.2C114.6 123.4 113.7 122.5 113.2 121.2Z" fill="#FFEA24"/>
<path d="M122.2 126.5C120.8 126.5 119.601 126 119.601 125.5C119.601 125 120.8 124.6 122.2 124.6C123.6 124.6 124.801 125.1 124.801 125.6C124.801 126.1 123.6 126.5 122.2 126.5Z" fill="#FFEA24"/>
<path d="M112.4 115.8C112.4 115.8 118.101 118.9 117.301 124.6C117.301 124.6 123.1 121.9 127.2 126" stroke="white" stroke-miterlimit="10"/>
<path d="M111.4 123.6C111.4 123.6 114.8 124.8 116.5 126.4L111.4 123.6Z" fill="white"/>
<path d="M111.4 123.6C111.4 123.6 114.8 124.8 116.5 126.4" stroke="white" stroke-miterlimit="10"/>
<path d="M90 118.7C90.8284 118.7 91.5 118.029 91.5 117.2C91.5 116.372 90.8284 115.7 90 115.7C89.1716 115.7 88.5 116.372 88.5 117.2C88.5 118.029 89.1716 118.7 90 118.7Z" fill="#FFEA24"/>
<path d="M84.6006 126.5L89.7004 121.9L94.8005 126.5" fill="#FFEA24"/>
<path d="M87.2002 122.2C87.2002 122.6 86.9002 122.9 86.5002 122.9C86.1002 122.9 85.8003 122.6 85.8003 122.2C85.8003 121.8 86.1002 121.5 86.5002 121.5C86.9002 121.5 87.2002 121.8 87.2002 122.2Z" fill="#FFEA24"/>
<path d="M93.3999 122.2C93.3999 122.6 93.1 122.9 92.7 122.9C92.3 122.9 92 122.6 92 122.2C92 121.8 92.3 121.5 92.7 121.5C93.1 121.5 93.3999 121.8 93.3999 122.2Z" fill="#FFEA24"/>
<path d="M65.5002 126.9C65.5002 126.9 59.8003 124.3 55.8003 116.6C55.8003 116.6 50.1002 108.7 52.5002 96.6001C52.5002 96.6001 55.0002 87.8001 57.0002 85.1001L55.8003 83.0001L54.8003 83.4001C54.8003 83.4001 50.1003 89.0001 49.8003 103.3C49.8003 103.3 50.9003 118.6 57.1003 122.8C57.1003 122.8 60.3002 126.3 62.2002 127H65.5002V126.9Z" fill="white" stroke="#13110C" stroke-miterlimit="10"/>
<path d="M47.8999 87.1001C47.8999 87.1001 49.0001 89.9001 50.6001 91.0001C50.6001 91.0001 44.2 92.6001 43.8 95.5001C43.8 95.5001 42.1999 103.5 48.8999 104.2C48.8999 104.2 43.6 107.3 44.5 112.8C44.5 112.8 45.2 117.7 52.5 118.2C52.5 118.2 49.1999 123.8 52.8999 126.4" stroke="white" stroke-miterlimit="10"/>
<path d="M48.1004 95.9001C47.1004 96.8001 45.9004 97.1001 45.6004 96.6001C45.2004 96.1001 45.8003 95.1001 46.8003 94.2001C47.8003 93.3001 49.0003 93.0001 49.3003 93.5001C49.6003 94.0001 49.1004 95.0001 48.1004 95.9001Z" fill="#FFEA24"/>
<path d="M47.9 100C48.7 101.1 49.0002 102.2 48.6002 102.6C48.1002 103 47.1002 102.4 46.3002 101.3C45.5002 100.2 45.2002 99.1001 45.6002 98.7001C46.1002 98.3001 47.1 98.9001 47.9 100Z" fill="#FFEA24"/>
<path d="M48.3003 109.6C47.6003 110.8 46.7002 111.5 46.2002 111.2C45.7002 110.9 45.8002 109.7 46.5002 108.6C47.2002 107.4 48.1003 106.7 48.6003 107C49.1003 107.2 49.0003 108.4 48.3003 109.6Z" fill="#FFEA24"/>
<path d="M48.1005 115.4C47.1005 114.5 46.6004 113.4 47.0004 113C47.4004 112.6 48.5004 113 49.5004 113.9C50.5004 114.8 51.0005 115.9 50.6005 116.3C50.2005 116.7 49.1005 116.3 48.1005 115.4Z" fill="#FFEA24"/>
<path d="M55.1001 123.3C55.1001 124.6 54.7001 125.7 54.1001 125.8C53.5001 125.8 53 124.7 53 123.4C53 122.1 53.4 121 54 120.9C54.5 120.8 55.0001 121.9 55.1001 123.3Z" fill="#FFEA24"/>
<path d="M51.9003 87.4001C51.8003 88.2001 51.3004 88.8001 50.7004 88.7001C50.1004 88.6001 49.7005 87.9001 49.8005 87.1001C49.9005 86.3001 50.4004 85.7001 51.0004 85.8001C51.6004 85.9001 51.9003 86.6001 51.9003 87.4001Z" fill="#FFEA24"/>
<path d="M49.8003 126.9C37.3003 107.8 43.4002 88.4001 43.4002 88.4001L38.3003 91.1001C38.3003 91.1001 36.2003 116.6 44.8003 126.9H49.8003Z" fill="#13110C" stroke="#13110C" stroke-miterlimit="10"/>
<path d="M38.1003 91.2001V97.1001L33.2002 94.2001C33.2002 94.1001 36.8003 91.9001 38.1003 91.2001Z" fill="#E31013" stroke="#13110C" stroke-miterlimit="10"/>
<path d="M38.1001 97.6001C38.1001 97.6001 38.2 107.8 39.8 115.2L29.5 103.2V97.1001C29.5 97.1001 31.4 95.3001 33.3 94.2001L38.1001 97.6001Z" fill="#FFEA24" stroke="#13110C" stroke-miterlimit="10"/>
<path d="M38.1003 110.8L31.3003 102.6L35.2002 98.6001L37.7002 101.7" stroke="#13110C" stroke-miterlimit="10"/>
<path d="M30 100.6L34.6001 96.7001" stroke="#13110C" stroke-miterlimit="10"/>
<path d="M37.8003 106.9L35.2002 103.7L36.5002 102.6L37.8003 103.6" stroke="#13110C" stroke-miterlimit="10"/>
<path d="M42.5005 126.9C38.4005 114.7 29.4004 106.9 29.4004 106.9V103.9C29.4004 103.9 39.8005 112.5 44.8005 126.9H42.5005Z" fill="white" stroke="#13110C" stroke-miterlimit="10"/>
<path d="M135.5 100.6H138.2" stroke="#942830" stroke-miterlimit="10"/>
<path d="M134.5 103.2H138.2" stroke="#942830" stroke-miterlimit="10"/>
<path d="M133.5 105.4H137.5" stroke="#942830" stroke-miterlimit="10"/>
<path d="M29.4004 106.9C29.4004 106.9 35.2005 112.4 37.8005 117.1C37.8005 117.1 34.0004 117.3 33.2004 122.1C33.2004 122.1 30.6005 123.7 30.0005 123.7H29.4004V106.9Z" fill="#E31013" stroke="#13110C" stroke-miterlimit="10"/>
<path d="M30 112.2H32.8" stroke="#942830" stroke-miterlimit="10"/>
<path d="M30 114.6H34.6001" stroke="#942830" stroke-miterlimit="10"/>
<path d="M30 117H35.2" stroke="#942830" stroke-miterlimit="10"/>
<path d="M37.2002 120.6C37.2002 121.5 36.5002 122.1 35.7002 122.1C34.8002 122.1 34.2002 121.4 34.2002 120.6C34.2002 119.7 34.9002 119.1 35.7002 119.1C36.5002 119 37.2002 119.7 37.2002 120.6Z" fill="#FFEA24"/>
<path d="M90.2 126.9H29.5H39.2C40.8 126 37.2 124.9 37.2 124.9C38.7 124.6 38.2 123.8 37.3 123C36.4 122.2 33.3 122.1 33.3 122.1C33.3 122.1 32.4 123 29.5 123.7V126.9" fill="#FED68A"/>
<path d="M90.2 126.9H29.5H39.2C40.8 126 37.2 124.9 37.2 124.9C38.7 124.6 38.2 123.8 37.3 123C36.4 122.2 33.3 122.1 33.3 122.1C33.3 122.1 32.4 123 29.5 123.7V126.9" stroke="#13110C" stroke-miterlimit="10"/>
<path d="M31.4004 124.8C31.4004 124.8 35.0006 125.7 37.1006 124.9" stroke="#13110C" stroke-miterlimit="10"/>
<path d="M57.1003 89.7001C57.1003 89.7001 56.3003 90.6001 56.1003 91.9001C56.0003 92.5001 55.9003 93.3001 56.1003 94.1001" stroke="#FFEA24" stroke-miterlimit="10"/>
<path d="M60.1001 93.3001L56 91.9001" stroke="#FFEA24" stroke-miterlimit="10"/>
<path d="M54 98.2001V100.7V103.2" stroke="#FFEA24" stroke-miterlimit="10"/>
<path d="M59.5 101L54 100.7" stroke="#FFEA24" stroke-miterlimit="10"/>
<path d="M64.4004 104.4L58.1006 104.7" stroke="#FFEA24" stroke-miterlimit="10"/>
<path d="M60.7004 107.6L55.4004 109.7" stroke="#FFEA24" stroke-miterlimit="10"/>
<path d="M65.5002 108.8L61.3003 112.2" stroke="#FFEA24" stroke-miterlimit="10"/>
<path d="M63.6006 114.9L60.1006 118.4" stroke="#FFEA24" stroke-miterlimit="10"/>
<path d="M67.8003 120.9L65.8003 124.2" stroke="#FFEA24" stroke-miterlimit="10"/>
<path d="M58.1006 102.9L58.4004 106.4" stroke="#FFEA24" stroke-miterlimit="10"/>
<path d="M54.5 107.6L56.5 112.2" stroke="#FFEA24" stroke-miterlimit="10"/>
<path d="M59.8003 110.5L62.4001 114" stroke="#FFEA24" stroke-miterlimit="10"/>
<path d="M58.1006 115.8L61.9004 120.6" stroke="#FFEA24" stroke-miterlimit="10"/>
<path d="M64.4004 116.7L67.2004 119.8" stroke="#FFEA24" stroke-miterlimit="10"/>
<path d="M64.4004 122.5L67.8005 125.2" stroke="#FFEA24" stroke-miterlimit="10"/>
<path d="M65.8003 118.2L67.2002 115.8" stroke="#FFEA24" stroke-miterlimit="10"/>
<path d="M58.9001 95.8001L58.3003 99.0001" stroke="#FFEA24" stroke-miterlimit="10"/>
<path d="M62.4004 98.6001L58.6006 97.7001" stroke="#FFEA24" stroke-miterlimit="10"/>
<path d="M56.0002 97.2001C56.3868 97.2001 56.7002 96.8867 56.7002 96.5001C56.7002 96.1135 56.3868 95.8001 56.0002 95.8001C55.6136 95.8001 55.3003 96.1135 55.3003 96.5001C55.3003 96.8867 55.6136 97.2001 56.0002 97.2001Z" fill="#FFEA24"/>
<path d="M56.2004 104.9C56.2004 105.4 55.8004 105.7 55.4004 105.7C55.0004 105.7 54.6006 105.3 54.6006 104.9C54.6006 104.4 55.0004 104.1 55.4004 104.1C55.8004 104.1 56.2004 104.4 56.2004 104.9Z" fill="#FFEA24"/>
<path d="M59.0005 113.4C59.0005 113.8 58.7004 114.2 58.2004 114.2C57.7004 114.2 57.4004 113.9 57.4004 113.4C57.4004 113 57.7004 112.6 58.2004 112.6C58.7004 112.6 59.0005 113 59.0005 113.4Z" fill="#FFEA24"/>
<path d="M64.4001 120.6C64.4001 121 64.0003 121.4 63.6003 121.4C63.2003 121.4 62.8003 121.1 62.8003 120.6C62.8003 120.2 63.2003 119.8 63.6003 119.8C64.0003 119.8 64.4001 120.1 64.4001 120.6Z" fill="#FFEA24"/>
<path d="M150.9 126.2V156.3C138.1 165.9 117.2 173 117.2 173C117.2 173 67.2 183.1 52.7 176.2L41.2 170.1L41.1001 147.6H29.5V125.9L90.2 126.1" fill="#211C4B"/>
<path d="M150.9 126.2V156.3C138.1 165.9 117.2 173 117.2 173C117.2 173 67.2 183.1 52.7 176.2L41.2 170.1L41.1001 147.6H29.5V125.9L90.2 126.1" stroke="#13110C" stroke-miterlimit="10"/>
<path d="M41.1001 157.3C41.1001 157.3 46.4 152.9 49.2 145.3C49.2 145.3 47.5001 142.8 46.1001 145.3L41 147.8L41.1001 157.3Z" fill="#E31013"/>
<path d="M108.9 126.2H98.6006C98.6006 126.2 96.3006 146.4 110.301 171.1L116.2 173.5L122.501 171C122.501 171 113.501 158.1 110.801 145.7C110.701 145.8 108.8 136.2 108.9 126.2Z" fill="#13110C" stroke="#13110C" stroke-miterlimit="10"/>
<path d="M108.301 183.4C109.601 186.8 114.301 185.1 114.301 185.1C114.301 185.1 119.2 182.6 118.4 177.1C118.4 177.1 118.4 171.6 113.4 171.1C113.4 171.1 98.6005 170.9 93.9005 174.5C93.9005 174.5 92.1005 176.5 91.9005 175C91.9005 175 92.7005 170.7 89.7005 169.8C89.7005 169.8 84.2005 167.3 79.2005 170.1C79.2005 170.1 72.9005 173.2 72.7005 174.3C72.7005 174.3 68.6007 169 58.6007 169.1L54.3006 169.5C50.5006 172.2 52.5006 176.2 52.5006 176.2C55.4006 178.5 54.5006 179.6 54.5006 179.6C54.0006 181 54.8006 190.2 54.8006 190.2C56.7006 192.5 56.3006 198.1 56.3006 198.1C56.2006 203.3 61.0006 207.1 61.0006 207.1L61.7005 205.5C61.7005 205.5 75.9006 210 103.301 206.6C103.301 206.6 106.901 202.9 107.101 195.3C107.201 195.3 108.501 186.9 108.301 183.4Z" fill="#AFA3C7" stroke="#13120D" stroke-miterlimit="10"/>
<path d="M29.4001 141.9C29.4001 141.9 31.5002 143.8 32.0002 144.2C32.5002 144.6 42.2003 146.3 44.3003 142.9C46.4003 139.5 40.5002 139.6 40.5002 139.6L40.1003 137.4C42.6003 135.7 40.1003 134.1 40.1003 134.1C41.9003 132.8 40.0002 131.5 40.0002 131.5C41.7002 129.1 39.3003 128.2 39.3003 128.2C41.6003 127.3 39.2002 126.1 39.2002 126.1L29.3003 126V141.9" fill="#FED68A"/>
<path d="M29.4001 141.9C29.4001 141.9 31.5002 143.8 32.0002 144.2C32.5002 144.6 42.2003 146.3 44.3003 142.9C46.4003 139.5 40.5002 139.6 40.5002 139.6L40.1003 137.4C42.6003 135.7 40.1003 134.1 40.1003 134.1C41.9003 132.8 40.0002 131.5 40.0002 131.5C41.7002 129.1 39.3003 128.2 39.3003 128.2C41.6003 127.3 39.2002 126.1 39.2002 126.1L29.3003 126V141.9" stroke="#13110C" stroke-miterlimit="10"/>
<path d="M51.4004 223.8L114.9 224.3C114.9 224.3 108.001 216.7 104.601 209.3C104.201 208.4 103.8 207.5 103.5 206.6C103.5 206.6 79.3004 210.4 61.9004 205.5C61.9004 205.5 54.4004 222.4 51.4004 223.8Z" fill="#FFEA24" stroke="#13110C" stroke-miterlimit="10"/>
<path d="M61.1006 207.3C80.4006 214.1 104.4 208.8 104.4 208.8L103.5 206.6C103.5 206.6 81.4004 210.4 61.9004 205.5L61.1006 207.3Z" fill="#13110C" stroke="#13110C" stroke-miterlimit="10"/>
<path d="M60.8003 207.8C60.8003 207.8 77.7002 215.5 104.5 209.4L106.1 212.8C106.1 212.8 79.9002 218.3 59.2002 211.3" fill="#E31013"/>
<path d="M60.8003 207.8C60.8003 207.8 77.7002 215.5 104.5 209.4L106.1 212.8C106.1 212.8 79.9002 218.3 59.2002 211.3" stroke="#13110C" stroke-miterlimit="10"/>
<path d="M60.4001 213.7C60.8001 213.8 61.9001 214.9 61.9001 214.9C61.2001 214.3 59.8003 214.2 59.8003 214.2L60.4001 213.7Z" stroke="#231E48" stroke-miterlimit="10"/>
<path d="M104.8 214.7C104.4 214.8 103.3 215.8 103.3 215.8C104.1 215.2 105.5 215.2 105.5 215.2L104.8 214.7Z" stroke="#231E48" stroke-miterlimit="10"/>
<path d="M99.6002 216.3C99.5002 215.8 99.8002 215.4 100.3 215.3C100.8 215.2 101.2 215.5 101.3 216L101.4 216.5C101.5 217 101.2 217.4 100.7 217.5C100.2 217.6 99.8001 217.3 99.7001 216.8L99.6002 216.3Z" stroke="#231E48" stroke-miterlimit="10"/>
<path d="M80.6006 216.9C80.6006 216.4 81.0004 216.1 81.4004 216.1C81.9004 216.1 82.2004 216.5 82.2004 216.9V217.5C82.2004 218 81.8004 218.3 81.4004 218.3C80.9004 218.3 80.6006 217.9 80.6006 217.5V216.9Z" stroke="#231E48" stroke-miterlimit="10"/>
<path d="M78.0002 216.8L66.8003 216.1C68.1003 216.3 72.4001 219.3 72.4001 219.3C72.4001 219.3 77.0002 216.8 78.0002 216.8Z" stroke="#231E48" stroke-miterlimit="10"/>
<path d="M63.3004 216.1C63.4004 215.7 63.8004 215.4 64.3004 215.5C64.8004 215.6 65.0002 216 64.9002 216.5L64.8004 217C64.7004 217.5 64.3004 217.7 63.8004 217.6C63.3004 217.5 63.1003 217.1 63.2003 216.6L63.3004 216.1Z" stroke="#231E48" stroke-miterlimit="10"/>
<path d="M89.8003 221.5C89.8003 220.9 90.1002 220.5 90.5002 220.5C90.9002 220.5 91.2002 221 91.2002 221.5C91.2002 222.1 90.9002 222.5 90.5002 222.5C90.1002 222.5 89.8003 222.1 89.8003 221.5Z" stroke="#231E48" stroke-miterlimit="10"/>
<path d="M71.7002 221.3C71.7002 220.7 72.0003 220.3 72.3003 220.3C72.6003 220.3 72.9001 220.8 72.9001 221.3C72.9001 221.9 72.6003 222.3 72.3003 222.3C72.0003 222.3 71.7002 221.9 71.7002 221.3Z" stroke="#231E48" stroke-miterlimit="10"/>
<path d="M100.5 221C100.5 219.9 100.7 218.9 100.9 218.9C101.1 218.9 101.3 219.8 101.3 221C101.3 222.1 101.1 223.1 100.9 223.1C100.7 223.1 100.5 222.1 100.5 221Z" stroke="#231E48" stroke-miterlimit="10"/>
<path d="M97.6 220.3C98.4 219.4 98.8999 218.6 98.6999 218.4C98.4999 218.2 97.6998 218.8 96.8998 219.7C96.0998 220.6 95.6 221.4 95.8 221.6C96 221.7 96.8 221.1 97.6 220.3Z" stroke="#231E48" stroke-miterlimit="10"/>
<path d="M104.1 219.6C105.1 220.2 106 220.6 106.1 220.4C106.2 220.2 105.5 219.5 104.5 218.9C103.5 218.3 102.6 217.9 102.5 218.1C102.4 218.3 103.1 219 104.1 219.6Z" stroke="#231E48" stroke-miterlimit="10"/>
<path d="M81.1006 221.3C81.1006 220.4 81.3005 219.6 81.5005 219.6C81.7005 219.6 81.9004 220.4 81.9004 221.3C81.9004 222.2 81.7005 223 81.5005 223C81.3005 223 81.1006 222.3 81.1006 221.3Z" stroke="#231E48" stroke-miterlimit="10"/>
<path d="M78.9001 220.5C79.6001 219.8 80.0003 219.1 79.8003 218.9C79.7003 218.8 79.0003 219.2 78.3003 220C77.6003 220.7 77.2001 221.4 77.4001 221.6C77.5001 221.7 78.2001 221.2 78.9001 220.5Z" stroke="#231E48" stroke-miterlimit="10"/>
<path d="M84.1 220.2C84.9 220.7 85.7 221 85.8 220.9C85.9 220.7 85.2999 220.2 84.4999 219.6C83.6999 219.1 82.9 218.8 82.8 218.9C82.7 219.1 83.3 219.7 84.1 220.2Z" stroke="#231E48" stroke-miterlimit="10"/>
<path d="M63.4 220.8C63.5 219.9 63.7 219.1 63.9 219.1C64.1 219.1 64.2002 219.9 64.1002 220.8C64.0002 221.7 63.8002 222.5 63.6002 222.5C63.4002 222.5 63.3 221.7 63.4 220.8Z" stroke="#231E48" stroke-miterlimit="10"/>
<path d="M61.3003 219.9C62.0003 219.2 62.5001 218.6 62.4001 218.4C62.3001 218.3 61.6003 218.7 60.8003 219.3C60.0003 219.9 59.6002 220.6 59.7002 220.8C59.9002 220.9 60.6003 220.5 61.3003 219.9Z" stroke="#231E48" stroke-miterlimit="10"/>
<path d="M66.5002 220.3C67.3002 220.9 68.0003 221.3 68.1003 221.1C68.2003 220.9 67.7001 220.3 66.9001 219.7C66.1001 219.1 65.4003 218.7 65.3003 218.9C65.2003 219 65.7002 219.6 66.5002 220.3Z" stroke="#231E48" stroke-miterlimit="10"/>
<path d="M95.8005 216.1L84.6006 216.6C85.9006 216.7 90.5005 219.2 90.5005 219.2C90.5005 219.2 94.8005 216.2 95.8005 216.1Z" stroke="#231E48" stroke-miterlimit="10"/>
<path d="M84.6005 208C84.6005 208 90.4004 196.5 87.8004 185.5C87.8004 185.5 83.5004 174.4 74.8004 175C74.8004 175 67.0003 174 62.4003 181.6C62.4003 181.6 59.7005 188.7 61.1005 203.5L61.9003 205.5C61.9003 205.5 67.2005 207.8 84.6005 208Z" fill="#FED68A" stroke="#13110C" stroke-miterlimit="10"/>
<path d="M84.1006 204.3C84.1006 204.3 76.7006 204.9 74.1006 204" stroke="#13110C" stroke-miterlimit="10"/>
<path d="M76.4 199.8C80.8 204 85.5001 199.1 85.5001 199.1C85.5001 199.1 82 195.6 76.4 198.3C76.4 198.4 75.5 198.8 76.4 199.8Z" stroke="#13110C" stroke-miterlimit="10"/>
<path d="M76.8003 197.8C76.8003 197.8 78.0002 195.6 80.2002 194.9" stroke="#13110C" stroke-miterlimit="10"/>
<path d="M69.3005 204.1C69.3005 204.1 64.6004 204.9 62.4004 203.8" stroke="#13110C" stroke-miterlimit="10"/>
<path d="M69.6003 204.1C69.6003 204.1 70.1003 195.2 69.6003 193.4C69.6003 193.4 67.6001 185.6 72.4001 188.1C72.4001 188.1 73.6001 188.9 74.4001 188C74.4001 188 77.5003 188 76.1003 190.7" stroke="#13110C" stroke-miterlimit="10"/>
<path d="M62.1004 200.3C65.6004 202.4 69.1004 199.6 69.1004 199.6C69.1004 199.6 69.2004 198.2 68.1004 197.6C67.9004 197.5 59.4003 196.7 62.0003 200.2V200.3H62.1004Z" stroke="#13110C" stroke-miterlimit="10"/>
<path d="M69.0002 197.4C69.0002 197.4 67.9003 195.8 66.3003 195.7" stroke="#13110C" stroke-miterlimit="10"/>
<path d="M79.1006 199.4C79.1006 199.1 79.8006 198.9 80.6006 198.9C81.4006 198.9 82.1006 199.1 82.1006 199.4C82.1006 199.7 81.4006 199.9 80.6006 199.9C79.8006 199.9 79.1006 199.7 79.1006 199.4Z" stroke="#13110C" stroke-miterlimit="10"/>
<path d="M64.2002 199.4C64.2002 199.2 64.7001 198.9 65.4001 198.9C66.1001 198.9 66.6003 199 66.6003 199.3C66.6003 199.5 66.1001 199.8 65.4001 199.8C64.7001 199.8 64.2002 199.6 64.2002 199.4Z" stroke="#13110C" stroke-miterlimit="10"/>
<path d="M82.7002 185.9C82.7002 185.9 82.6003 188.4 84.8003 187.3C84.8003 187.3 86.3002 184.6 82.7002 184.3C82.7002 184.3 79.4003 184.1 77.8003 185.5C77.8003 185.5 76.0003 186.3 75.3003 186" stroke="#13110C" stroke-miterlimit="10"/>
<path d="M77.5 185.1C77.5 185.1 75.8 185.3 75.5 185.3" stroke="#13110C" stroke-miterlimit="10"/>
<path d="M70.4001 185.2L68.8003 185.1" stroke="#13110C" stroke-miterlimit="10"/>
<path d="M64.8005 186.1C64.8005 186.1 65.2004 188.4 63.2004 187.7C63.2004 187.7 62.2005 186.9 62.5005 185.7C62.3005 183.8 66.0005 184.3 66.0005 184.3C67.0005 184.4 70.3005 186.1 70.3005 186.1" stroke="#13110C" stroke-miterlimit="10"/>
<path d="M78.3999 182.3H69" stroke="#13110C" stroke-miterlimit="10"/>
<path d="M75.8005 182.8H72.1006" stroke="#13110C" stroke-miterlimit="10"/>
<path d="M75.5005 181.6H72.4004" stroke="#13110C" stroke-miterlimit="10"/>
<path d="M75.5005 180.2C75.5005 180.2 74.8005 178.9 73.3005 179.1C73.3005 179.1 71.5006 178.6 71.1006 180.2" stroke="#13110C" stroke-miterlimit="10"/>
<path d="M110.301 182.3C110.301 182.3 112.4 184.7 115.5 181.6C118.6 178.5 115.7 174.9 114.9 174.2C114.1 173.6 110.7 173.4 108.4 176.9C106.1 180.5 106.1 185.6 106.2 187.5C106.3 189.4 104.601 198.9 104.301 199.6C104.001 200.3 102.101 205.1 102.101 205.1" stroke="#13110C" stroke-width="0.5" stroke-miterlimit="10"/>
<path d="M110.7 180.6C110.7 180.6 113.8 182.3 114.9 179.9C115.9 177.5 113.8 175.3 112.1 175.8C110.5 176.2 110.1 178.1 110.3 178.5" stroke="#13110C" stroke-width="0.5" stroke-miterlimit="10"/>
<path d="M112.301 179.6C112.301 179.6 113.5 179.7 113.5 178.4C113.5 177.1 112.101 177.1 111.601 177.6" stroke="#13110C" stroke-width="0.5" stroke-miterlimit="10"/>
<path d="M108.4 182.8C108.4 182.8 108.2 178.6 109.5 177.7" stroke="#13110C" stroke-width="0.5" stroke-miterlimit="10"/>
<path d="M98.3003 205.8V204.1C98.3003 204.1 99.0002 198.6 101 195C103 191.4 101.8 184 102.1 180.2C102.5 176.4 107.2 172.6 107.2 172.6" stroke="#13110C" stroke-width="0.5" stroke-miterlimit="10"/>
<path d="M99.9004 205.8V204.6C100.7 204.1 102.9 196.4 102.9 196.4C104.5 191.7 104.301 182.4 104.301 182.4C105.601 173.3 111.601 172 111.601 172" stroke="#13110C" stroke-width="0.5" stroke-miterlimit="10"/>
<path d="M96.1006 205.8C96.1006 205.8 97.3005 196.7 99.3005 193.3C99.3005 193.3 101.1 187.5 99.9004 183.4C99.9004 183.4 99.0004 177.2 103.4 173.2" stroke="#13110C" stroke-width="0.5" stroke-miterlimit="10"/>
<path d="M100.601 173.1C100.601 173.1 96.6004 178 97.4004 182.8C98.2004 187.6 98.2006 190.2 96.6006 193.3C94.9006 196.3 94.1006 205.2 94.1006 205.8" stroke="#13110C" stroke-width="0.5" stroke-miterlimit="10"/>
<path d="M97.7001 173.9C97.7001 173.9 94.6002 177 94.6002 181.6C94.6002 186.2 96.6002 186.3 94.6002 190.8C94.6002 190.8 91.2 201.8 92.4 205.2" stroke="#13110C" stroke-width="0.5" stroke-miterlimit="10"/>
<path d="M93.4999 176.5C93.4999 176.5 91 180.9 92.1 184.2C93.2 187.5 93.9999 188.2 92.6999 191C91.3999 193.8 89.9999 203.7 90.1999 204.5" stroke="#13110C" stroke-width="0.5" stroke-miterlimit="10"/>
<path d="M90.2002 179.1C90.2002 179.1 89.0002 184.6 90.2002 187.6C91.4002 190.6 88.5003 204.7 87.8003 205.8" stroke="#13110C" stroke-width="0.5" stroke-miterlimit="10"/>
<path d="M88.1001 177.3C88.1001 177.3 87.0999 182.2 87.3999 182.8" stroke="#13110C" stroke-width="0.5" stroke-miterlimit="10"/>
<path d="M82.7002 175.7C82.7002 175.7 84.1002 168.9 90.2002 172.3C90.2002 172.3 90.9003 175.7 88.1003 174.4C88.1003 174.4 87.9001 173 88.4001 173.1" stroke="#13110C" stroke-width="0.5" stroke-miterlimit="10"/>
<path d="M86.7001 173.1C86.7001 173.1 84.2002 174.3 85.0002 178.1" stroke="#13110C" stroke-width="0.5" stroke-miterlimit="10"/>
<path d="M87.8003 175.6C87.8003 175.6 86.3002 177.2 86.2002 179.6" stroke="#13110C" stroke-width="0.5" stroke-miterlimit="10"/>
<path d="M87.4001 170.2C87.4001 170.2 83.9003 169.7 80.8003 174.9" stroke="#13110C" stroke-width="0.5" stroke-miterlimit="10"/>
<path d="M84.1006 170.2C84.1006 170.2 80.5006 171.7 79.1006 173.8" stroke="#13110C" stroke-width="0.5" stroke-miterlimit="10"/>
<path d="M81.6006 170.2C81.6006 170.2 77.5006 172.9 77.1006 173.5" stroke="#13110C" stroke-width="0.5" stroke-miterlimit="10"/>
<path d="M70.0002 174.4C70.0002 174.4 67.4003 171.2 62.3003 170.2" stroke="#13110C" stroke-width="0.5" stroke-miterlimit="10"/>
<path d="M68.1006 175C68.1006 175 63.9006 171.5 61.6006 171.1" stroke="#13110C" stroke-width="0.5" stroke-miterlimit="10"/>
<path d="M65.4001 176.5C65.4001 176.5 62.5002 172.3 60.7002 171.9" stroke="#13110C" stroke-width="0.5" stroke-miterlimit="10"/>
<path d="M63.0003 178.1C63.0003 178.1 59.7003 170.1 55.7003 170.2C55.7003 170.2 50.4003 172.6 55.7003 176.5C55.7003 176.5 59.8003 176 56.5003 172.6C56.5003 172.6 53.8004 172 55.6004 175" stroke="#13110C" stroke-width="0.5" stroke-miterlimit="10"/>
<path d="M59.8998 204.1C59.8998 204.1 58.3 198.5 59.1 195.7C59.9 192.9 60.2998 186.1 59.8998 185.1C59.4998 184.1 60.3999 180.9 60.6999 180.1C61.0999 179.3 60.3999 177.5 59.7999 176.5" stroke="#13110C" stroke-width="0.5" stroke-miterlimit="10"/>
<path d="M58.2003 202C58.2003 202 57.1003 195.7 58.2003 191.8C59.3003 187.9 58.2003 184.9 58.2003 184.2C58.2003 183.5 57.7003 181.2 58.2003 180.1C58.7003 179 58.4003 177.7 58.2003 177.4" stroke="#13110C" stroke-width="0.5" stroke-miterlimit="10"/>
<path d="M56.9005 190.5C56.9005 190.5 57.5005 185.3 56.9005 184.2C56.3005 183.1 56.9005 180 56.9005 179" stroke="#13110C" stroke-width="0.5" stroke-miterlimit="10"/>
<path d="M55.8005 189.2C55.8005 189.2 55.5004 178.9 55.4004 178.1" stroke="#13110C" stroke-width="0.5" stroke-miterlimit="10"/>
<path d="M41.1006 203.8L41.0005 147.7H29.4004V204.3L35.4004 209.7L41.1006 203.8Z" stroke="#231E48" stroke-miterlimit="10"/>
<path d="M37.4004 148.2C37.1004 148.9 37.0005 149.9 36.7005 152.1C36.6005 153.4 36.3005 155.8 37.0005 156.5C38.9005 158.3 38.4005 169.6 38.0005 170.2C37.6005 170.7 36.3006 178.2 37.3006 179C38.3006 179.9 39.1006 188.4 37.6006 192.4C36.0006 196.4 36.7005 203.7 36.7005 203.7C36.7005 203.7 34.1004 200.8 35.4004 192.2C35.4004 192.2 35.9006 184.2 34.6006 182.2C34.6006 182.2 33.4005 174.1 35.0005 166.5C35.0005 166.5 35.1006 159.1 33.8006 157.5C33.8006 157.5 33.4005 149.1 34.0005 148.1H37.4004V148.2Z" fill="#FFEA24" stroke="#13110C" stroke-miterlimit="10"/>
<path d="M29.4004 146.9H42.3005C42.3005 146.9 46.1005 146.3 46.3005 142.3C46.3005 142.3 46.4006 136.5 41.1006 138.5C41.1006 138.5 38.8005 141 42.5005 141.7L43.4004 141.4C43.4004 141.4 43.4006 143.4 39.1006 142.6C39.1006 142.6 31.4004 140.9 29.4004 142V146.9Z" fill="#FFEA24" stroke="#13110C" stroke-miterlimit="10"/>
<path d="M30.2002 137.7C30.2002 137.7 34.5001 135.1 37.9001 134.6L40.2002 134.1" stroke="#13110C" stroke-miterlimit="10"/>
<path d="M30.2002 133.5C30.2002 133.5 38.3002 131.5 39.0002 131.5H40.2002" stroke="#13110C" stroke-miterlimit="10"/>
<path d="M30.2002 129.8C30.2002 129.8 37.0001 128.1 37.9001 128.1L39.4001 128.2" stroke="#13110C" stroke-miterlimit="10"/>
<path d="M31.8003 140.8C31.8003 140.8 35.9003 138 39.1003 137.7L40.1003 137.4" stroke="#13110C" stroke-miterlimit="10"/>
<path d="M93.9001 141.5H91.8003C92.1003 146.7 94.3003 154.5 94.3003 154.5C95.5003 158.4 100.3 172.2 100.3 172.2L103.1 171.7C103.1 171.7 99.2001 164.4 97.4001 157.7C97.5001 157.7 94.3001 145.6 93.9001 141.5Z" fill="#FFEA24" stroke="#13110C" stroke-miterlimit="10"/>
<path d="M97.4001 138.9H83.8003V141.4H97.4001V138.9Z" fill="white" stroke="#13110C" stroke-miterlimit="10"/>
<path d="M81.4001 169.2L78.3003 170.6C78.3003 170.6 83.6001 158 84.9001 150.9C84.9001 150.9 87.1002 144.6 87.0002 141.4H89.2002C89.2002 141.4 87.1002 154.6 85.2002 159L81.4001 169.2Z" fill="#FFEA24" stroke="#13110C" stroke-miterlimit="10"/>
<path d="M90.2004 152.2C90.2004 152.2 92.9005 153.4 92.8005 155.4C92.8005 155.4 93.0003 159 90.4003 160.5C90.4003 160.5 87.6004 162.8 90.2004 166.1C90.2004 166.1 93.4004 167.8 94.0004 165.4C94.0004 165.4 94.5005 164.6 93.8005 163.5C93.8005 163.5 93.7005 165.1 93.1005 165C92.5005 164.9 90.7005 165.6 90.8005 163.5C90.8005 163.5 90.9005 161.1 92.8005 160.8C94.7005 160.5 97.7004 162.2 96.5004 166C96.5004 166 95.2005 170.1 91.6005 169.3C91.6005 169.3 85.5005 168.5 87.1005 162.5C87.1005 162.5 88.3004 158.6 90.7004 156.3C90.7004 156.3 91.3004 153.3 89.2004 154C89.2004 154 91.1004 155.5 89.0004 156C89.0004 156 86.5004 156.4 87.5004 153.4C87.5004 153.4 88.2005 150.7 90.3005 149.4C90.3005 149.4 91.1003 147.9 89.4003 148.2C89.4003 148.2 87.8004 147.4 89.5004 145.9C89.5004 145.9 92.6005 145.1 92.1005 148.5C92.1005 148.5 91.9005 150.8 90.3005 151.9" fill="#FFEA24"/>
<path d="M96.2002 170C96.2002 169.5 96.6003 169.1 97.1003 169.1C97.6003 169.1 98.0002 169.5 98.0002 170C98.0002 170.5 97.6003 170.9 97.1003 170.9C96.6003 170.9 96.2002 170.5 96.2002 170Z" fill="#FFEA24"/>
<path d="M84.1006 165.2C84.1006 164.8 84.4005 164.5 84.8005 164.5C85.2005 164.5 85.5005 164.8 85.5005 165.2C85.5005 165.6 85.2005 165.9 84.8005 165.9C84.5005 166 84.1006 165.6 84.1006 165.2Z" fill="#FFEA24"/>
<path d="M86.3003 158.3C86.3003 157.9 86.6002 157.6 87.0002 157.6C87.4002 157.6 87.7002 157.9 87.7002 158.3C87.7002 158.7 87.4002 159 87.0002 159C86.6002 159 86.3003 158.7 86.3003 158.3Z" fill="#FFEA24"/>
<path d="M93.2002 158.5C93.2002 158.1 93.5001 157.8 93.9001 157.8C94.3001 157.8 94.6003 158.1 94.6003 158.5C94.6003 158.9 94.3001 159.2 93.9001 159.2C93.5001 159.2 93.2002 158.9 93.2002 158.5Z" fill="#FFEA24"/>
<path d="M89.7002 143.4C89.7002 143 90.0001 142.7 90.4001 142.7C90.8001 142.7 91.1003 143 91.1003 143.4C91.1003 143.8 90.8001 144.1 90.4001 144.1C90.0001 144.1 89.7002 143.7 89.7002 143.4Z" fill="#FFEA24"/>
<path d="M100.6 147.3C98.4005 138.9 98.6005 126.3 98.6005 126.3H96.6005C96.3005 136 98.2003 145.8 98.2003 145.8C100.6 158.6 107.7 171.2 107.7 171.2H110.1C110.3 171.1 101.2 152.9 100.6 147.3Z" fill="#FFEA24" stroke="#13110C" stroke-miterlimit="10"/>
<path d="M93.9004 141.5H97.4004C97.4004 141.5 97.2005 148.2 107.5 171.3L103.101 171.7C103.101 171.7 97.0006 162.1 94.1006 141.5" fill="#E31013"/>
<path d="M93.9004 141.5H97.4004C97.4004 141.5 97.2005 148.2 107.5 171.3L103.101 171.7C103.101 171.7 97.0006 162.1 94.1006 141.5" stroke="#13110C" stroke-miterlimit="10"/>
<path d="M70.9004 172.6C79.0004 161.3 83.8005 141.4 83.8005 141.4H86.9004C86.9004 141.4 87.7004 146.9 78.2004 170.6C78.2004 170.6 73.6004 172.9 72.7004 174.3C72.8004 174.3 71.4004 173 70.9004 172.6Z" fill="#E31013" stroke="#13110C" stroke-miterlimit="10"/>
<path d="M68.9004 171.4L73.5005 163.5C78.6005 154.2 80.8005 141.9 80.8005 141.9C81.9005 139.2 82.2004 126.2 82.2004 126.2H84.1006C84.1006 126.2 85.1004 144.2 80.2004 153.5C80.2004 153.5 72.8004 172 70.4004 172.3L68.9004 171.4Z" fill="#FFEA24" stroke="#13110C" stroke-miterlimit="10"/>
<path d="M68.9001 171.4C62.4001 168.3 57.7002 169.2 57.7002 169.2C63.6002 162.8 69.5002 145.4 69.5002 145.4C72.3002 138.3 71.8003 126.2 71.8003 126.2H82.2002C82.2002 126.2 83.0001 150.4 68.9001 171.4Z" fill="#13110C" stroke="#13110C" stroke-miterlimit="10"/>
<path d="M70.3003 164.2C70.7003 168.4 66.5003 166 66.5003 166L65.9002 168.8L63.9002 167.9L65.6004 165.4C65.6004 165.4 60.7003 163.4 65.5003 160.5L69.2002 159L70.3003 164.2Z" fill="white"/>
<path d="M75.6004 151.8C76.2004 156 71.9002 153.7 71.9002 153.7L71.4002 156.6L69.3003 155.8L70.9002 153.2C70.9002 153.2 66.0004 151.4 70.6004 148.4L74.2002 146.7L75.6004 151.8Z" fill="white"/>
<path d="M79.1005 138C80.7005 141.9 76.0004 140.8 76.0004 140.8L76.2003 143.7L74.0004 143.4L74.9003 140.5C74.9003 140.5 69.7003 140 73.4003 135.9L76.5004 133.4L79.1005 138Z" fill="white"/>
<path d="M71.7004 126.2L69.3005 126.1C69.3005 126.1 70.5005 138.4 64.0005 152.9C64.0005 152.9 59.3004 164.6 54.4004 169.6L57.7004 169.3C57.7004 169.2 70.4004 152.7 71.7004 126.2Z" fill="#FFEA24" stroke="#13110C" stroke-miterlimit="10"/>
<path d="M124.6 170.2C124.6 170.2 115.1 153.3 114.4 147.8C114.4 147.8 110.4 135 111.6 126.2H108.9C108.9 126.2 108.1 138 111.6 148.7C111.6 148.7 115.1 160.7 122.5 171.1L124.6 170.2Z" fill="#FFEA24" stroke="#13110C" stroke-miterlimit="10"/>
<path d="M110.9 167.4C107.6 164.7 112.301 163.5 112.301 163.5L110.7 161.1L112.801 160.3L113.301 163.3C113.301 163.3 118.101 161.3 116.801 166.6L115.301 170.3L110.9 167.4Z" fill="white"/>
<path d="M104.9 154.4C101.8 151.5 106.6 150.6 106.6 150.6L105.2 148.1L107.3 147.5L107.6 150.5C107.6 150.5 112.6 148.8 110.9 154.1L109.1 157.7L104.9 154.4Z" fill="white"/>
<path d="M101.7 140.3C99.3003 136.8 104.1 136.9 104.1 136.9L103.2 134.1L105.4 133.9L105.1 136.9C105.1 136.9 110.3 136.2 107.6 141.1L105.2 144.2L101.7 140.3Z" fill="white"/>
<path d="M67.4001 143.2C67.4001 143.2 50.7003 136 44.8003 126H49.3003C49.3003 126 55.7003 134.7 68.3003 139.6L67.4001 143.2Z" fill="#13110C" stroke="#13110C" stroke-miterlimit="10"/>
<path d="M63.4004 142.7C63.4004 142.7 60.3004 156.7 46.9004 171.9" stroke="white" stroke-miterlimit="10"/>
<path d="M53.4001 137.3C53.4001 137.3 49.4002 152.4 42.2002 159.1" stroke="white" stroke-miterlimit="10"/>
<path d="M57.1003 139.4C57.1003 139.4 54.1002 139.6 54.3002 146C54.3002 146.2 54.3002 146.4 54.3002 146.7C54.3002 146.7 56.2002 156.8 54.5002 157.6C54.5002 157.6 50.8003 162.6 48.1003 157.9C48.1003 157.9 47.2003 154.4 50.1003 154.4C50.1003 154.4 52.5003 154.6 51.6003 156.7C51.6003 156.7 51.2003 157.6 50.6003 157.1" stroke="white" stroke-miterlimit="10"/>
<path d="M54.3003 146C56.4003 149.4 59.5002 147.4 59.5002 147.4C59.5002 147.4 62.4002 143.5 58.2002 143C58.2002 143 56.5002 143.7 58.2002 144.7" stroke="white" stroke-miterlimit="10"/>
<path d="M50.9002 159.9C50.9002 159.9 46.0002 160.8 44.4002 162.6C44.4002 162.6 41.7002 163.6 43.4002 167.5C43.4002 167.5 45.7002 169.7 46.9002 166.7C46.9002 166.7 47.1002 164.3 45.4002 165.2" stroke="white" stroke-miterlimit="10"/>
<path d="M50.1006 143.6C50.1006 143.6 43.6004 128.7 42.9004 127.2" stroke="white" stroke-miterlimit="10"/>
<path d="M50.9004 138.4C50.9004 138.4 47.8004 133.8 47.4004 132.6" stroke="white" stroke-miterlimit="10"/>
<path d="M67.1998 131.9C67.7998 133.2 67.7999 134.4 67.2999 134.6C66.7999 134.8 65.9998 133.9 65.3998 132.6C64.7998 131.3 64.7999 130.1 65.2999 129.8C65.7999 129.7 66.5998 130.6 67.1998 131.9Z" fill="#FFEA24"/>
<path d="M58.2004 126.6C59.6004 126.6 60.8005 127.1 60.8005 127.6C60.8005 128.1 59.6004 128.5 58.2004 128.5C56.8004 128.5 55.6006 128 55.6006 127.5C55.6006 127 56.7004 126.6 58.2004 126.6Z" fill="#FFEA24"/>
<path d="M68.0002 137.3C68.0002 137.3 62.3003 134.1 63.1003 128.5C63.1003 128.5 57.3002 131.2 53.2002 127.1" stroke="white" stroke-miterlimit="10"/>
<path d="M68.9001 129.5C68.9001 129.5 65.5003 128.3 63.8003 126.7L68.9001 129.5Z" fill="white"/>
<path d="M68.9001 129.5C68.9001 129.5 65.5003 128.3 63.8003 126.7" stroke="white" stroke-miterlimit="10"/>
<path d="M88.8003 135.8C88.8003 135 89.5003 134.3 90.3003 134.3C91.1003 134.3 91.8003 135 91.8003 135.8C91.8003 136.6 91.1003 137.3 90.3003 137.3C89.5003 137.3 88.8003 136.7 88.8003 135.8Z" fill="#FFEA24"/>
<path d="M95.7004 126.6L90.6006 131.2L85.6006 126.6" fill="#FFEA24"/>
<path d="M93.2002 130.9C93.2002 130.5 93.5001 130.2 93.9001 130.2C94.3001 130.2 94.6003 130.5 94.6003 130.9C94.6003 131.3 94.3001 131.6 93.9001 131.6C93.5001 131.6 93.2002 131.3 93.2002 130.9Z" fill="#FFEA24"/>
<path d="M86.9004 130.9C86.9004 130.5 87.2006 130.2 87.6006 130.2C88.0006 130.2 88.3005 130.5 88.3005 130.9C88.3005 131.3 88.0006 131.6 87.6006 131.6C87.2006 131.6 86.9004 131.3 86.9004 130.9Z" fill="#FFEA24"/>
<path d="M114.9 126.2C114.9 126.2 120.601 128.8 124.601 136.5C124.601 136.5 130.3 144.4 127.9 156.5C127.9 156.5 125.4 165.3 123.4 168L124.601 170.1L125.601 169.7C125.601 169.7 130.301 164.1 130.601 149.8C130.601 149.8 129.501 134.5 123.301 130.3C123.301 130.3 120.1 126.8 118.2 126.1H114.9V126.2Z" fill="white" stroke="#13110C" stroke-miterlimit="10"/>
<path d="M132.4 166C132.4 166 131.3 163.2 129.7 162.1C129.7 162.1 136.1 160.5 136.5 157.6C136.5 157.6 138.1 149.6 131.4 148.9C131.4 148.9 136.701 145.8 135.801 140.3C135.801 140.3 135.101 135.5 127.801 135C127.801 135 131.1 129.4 127.4 126.8" stroke="white" stroke-miterlimit="10"/>
<path d="M132.3 157.2C133.3 156.3 134.5 156 134.8 156.5C135.2 156.9 134.6 158 133.6 158.9C132.6 159.8 131.4 160.1 131.1 159.6C130.7 159.1 131.3 158.1 132.3 157.2Z" fill="#FFEA24"/>
<path d="M132.4 153.1C131.6 152 131.3 150.9 131.7 150.5C132.2 150.1 133.2 150.7 134 151.8C134.8 152.9 135.1 154 134.7 154.4C134.3 154.7 133.2 154.2 132.4 153.1Z" fill="#FFEA24"/>
<path d="M132.1 143.5C132.8 142.3 133.7 141.6 134.2 141.9C134.7 142.2 134.6 143.4 133.9 144.5C133.2 145.7 132.3 146.4 131.8 146.1C131.3 145.9 131.4 144.7 132.1 143.5Z" fill="#FFEA24"/>
<path d="M132.2 137.7C133.2 138.6 133.7 139.7 133.3 140.1C132.9 140.5 131.8 140.1 130.8 139.2C129.8 138.3 129.3 137.2 129.7 136.8C130.1 136.4 131.2 136.8 132.2 137.7Z" fill="#FFEA24"/>
<path d="M125.3 129.8C125.3 128.5 125.7 127.4 126.3 127.3C126.9 127.3 127.4 128.4 127.4 129.7C127.4 131 127 132.1 126.4 132.2C125.9 132.3 125.3 131.2 125.3 129.8Z" fill="#FFEA24"/>
<path d="M128.5 165.7C128.6 164.9 129.1 164.3 129.7 164.4C130.3 164.5 130.7 165.2 130.6 166C130.5 166.8 130 167.4 129.4 167.3C128.8 167.2 128.4 166.5 128.5 165.7Z" fill="#FFEA24"/>
<path d="M130.601 126.2C143.101 145.3 137 164.7 137 164.7L142.101 162C142.101 162 144.201 136.5 135.601 126.2H130.601Z" fill="#13110C" stroke="#13110C" stroke-miterlimit="10"/>
<path d="M142.2 161.9V156L147.1 158.9C147.1 159 143.5 161.2 142.2 161.9Z" fill="#E31013" stroke="#13110C" stroke-miterlimit="10"/>
<path d="M142.2 155.5C142.2 155.5 142.1 145.3 140.5 137.9L150.8 149.9V156C150.8 156 148.9 157.8 147 158.9L142.2 155.5Z" fill="#FFEA24" stroke="#13110C" stroke-miterlimit="10"/>
<path d="M142.2 142.3L149 150.5L145.2 154.5L142.6 151.4" stroke="#13110C" stroke-miterlimit="10"/>
<path d="M150.3 152.5L145.7 156.4" stroke="#13110C" stroke-miterlimit="10"/>
<path d="M142.5 146.2L145.1 149.4L143.8 150.5L142.5 149.5" stroke="#13110C" stroke-miterlimit="10"/>
<path d="M137.8 126.2C141.9 138.4 150.9 146.2 150.9 146.2V149.2C150.9 149.2 140.5 140.6 135.5 126.2H137.8Z" fill="white" stroke="#13110C" stroke-miterlimit="10"/>
<path d="M44.8005 152.5H42.1006" stroke="#942830" stroke-miterlimit="10"/>
<path d="M45.9004 149.9H42.1006" stroke="#942830" stroke-miterlimit="10"/>
<path d="M46.9001 147.7H42.8003" stroke="#942830" stroke-miterlimit="10"/>
<path d="M150.9 146.2C150.9 146.2 145.1 140.7 142.5 136C142.5 136 146.3 135.8 147.1 131C147.1 131 149.7 129.4 150.3 129.4H150.9V146.2Z" fill="#E31013" stroke="#13110C" stroke-miterlimit="10"/>
<path d="M150.3 140.9H147.5" stroke="#942830" stroke-miterlimit="10"/>
<path d="M150.3 138.5H145.7" stroke="#942830" stroke-miterlimit="10"/>
<path d="M150.301 136.1H145.101" stroke="#942830" stroke-miterlimit="10"/>
<path d="M143.101 132.5C143.101 131.6 143.801 131 144.601 131C145.501 131 146.101 131.7 146.101 132.5C146.101 133.4 145.401 134 144.601 134C143.801 134.1 143.101 133.4 143.101 132.5Z" fill="#FFEA24"/>
<path d="M90.2002 126.2H150.9H141.2C139.6 127.1 143.2 128.2 143.2 128.2C141.7 128.5 142.2 129.3 143.1 130.1C144 130.9 147.1 131 147.1 131C147.1 131 148 130.1 150.9 129.4V126.2" fill="#FED68A"/>
<path d="M90.2002 126.2H150.9H141.2C139.6 127.1 143.2 128.2 143.2 128.2C141.7 128.5 142.2 129.3 143.1 130.1C144 130.9 147.1 131 147.1 131C147.1 131 148 130.1 150.9 129.4V126.2" stroke="#13110C" stroke-miterlimit="10"/>
<path d="M148.9 128.3C148.9 128.3 145.3 127.4 143.2 128.2" stroke="#13110C" stroke-miterlimit="10"/>
<path d="M123.3 163.4C123.3 163.4 124.1 162.5 124.3 161.2C124.4 160.6 124.5 159.8 124.3 159" stroke="#FFEA24" stroke-miterlimit="10"/>
<path d="M120.2 159.8L124.3 161.2" stroke="#FFEA24" stroke-miterlimit="10"/>
<path d="M126.4 154.9V152.4V149.9" stroke="#FFEA24" stroke-miterlimit="10"/>
<path d="M120.9 152.1L126.4 152.4" stroke="#FFEA24" stroke-miterlimit="10"/>
<path d="M115.9 148.7L122.301 148.4" stroke="#FFEA24" stroke-miterlimit="10"/>
<path d="M119.601 145.5L125 143.4" stroke="#FFEA24" stroke-miterlimit="10"/>
<path d="M114.9 144.3L119.101 140.9" stroke="#FFEA24" stroke-miterlimit="10"/>
<path d="M116.7 138.2L120.2 134.7" stroke="#FFEA24" stroke-miterlimit="10"/>
<path d="M112.5 132.2L114.6 128.9" stroke="#FFEA24" stroke-miterlimit="10"/>
<path d="M122.301 150.2L121.9 146.7" stroke="#FFEA24" stroke-miterlimit="10"/>
<path d="M125.801 145.5L123.9 140.9" stroke="#FFEA24" stroke-miterlimit="10"/>
<path d="M120.5 142.6L117.9 139.1" stroke="#FFEA24" stroke-miterlimit="10"/>
<path d="M122.3 137.3L118.5 132.5" stroke="#FFEA24" stroke-miterlimit="10"/>
<path d="M115.9 136.4L113.2 133.3" stroke="#FFEA24" stroke-miterlimit="10"/>
<path d="M115.9 130.6L112.5 127.9" stroke="#FFEA24" stroke-miterlimit="10"/>
<path d="M114.5 134.9L113.2 137.3" stroke="#FFEA24" stroke-miterlimit="10"/>
<path d="M121.5 157.3L122.1 154.1" stroke="#FFEA24" stroke-miterlimit="10"/>
<path d="M117.9 154.5L121.801 155.4" stroke="#FFEA24" stroke-miterlimit="10"/>
<path d="M123.601 156.6C123.601 156.2 123.901 155.9 124.301 155.9C124.701 155.9 125 156.2 125 156.6C125 157 124.701 157.3 124.301 157.3C123.901 157.3 123.601 157 123.601 156.6Z" fill="#FFEA24"/>
<path d="M125 149C125.442 149 125.8 148.642 125.8 148.2C125.8 147.758 125.442 147.4 125 147.4C124.558 147.4 124.2 147.758 124.2 148.2C124.2 148.642 124.558 149 125 149Z" fill="#FFEA24"/>
<path d="M121.3 139.7C121.3 139.3 121.6 138.9 122.1 138.9C122.5 138.9 122.9 139.2 122.9 139.7C122.9 140.1 122.6 140.5 122.1 140.5C121.7 140.5 121.3 140.1 121.3 139.7Z" fill="#FFEA24"/>
<path d="M115.9 132.5C115.9 132.1 116.3 131.7 116.7 131.7C117.1 131.7 117.5 132.1 117.5 132.5C117.5 132.9 117.1 133.3 116.7 133.3C116.3 133.3 115.9 133 115.9 132.5Z" fill="#FFEA24"/>
<path d="M79.6 124.7C81.9 128.3 76.9999 128 76.9999 128L77.8 130.8L75.6 130.9L75.9999 127.9C75.9999 127.9 70.7999 128.3 73.6999 123.6L76.3 120.6L79.6 124.7Z" fill="white"/>
<path d="M100.7 127.9C98.8004 124.1 103.5 124.9 103.5 124.9L103 122L105.2 122.1L104.5 125.1C104.5 125.1 109.8 125.1 106.4 129.6L103.601 132.4L100.7 127.9Z" fill="white"/>
</svg>
