<svg width="180" height="254" viewBox="0 0 180 254" fill="none" xmlns="http://www.w3.org/2000/svg">
<path d="M179.3 231.7C179.3 243.5 172.5 253.1 164.1 253.1H15.8001C7.4001 253.1 0.600098 243.5 0.600098 231.7V22.6C0.600098 10.8 7.4001 1.19995 15.8001 1.19995H164.1C172.5 1.19995 179.3 10.8 179.3 22.6V231.7Z" fill="white" stroke="#1D1D1B" stroke-miterlimit="10"/>
<path d="M20.3001 19.8999H22.5001V24.3999H11.3001V23.2C11.3001 21.1 12.1001 19.1999 13.6001 17.4999C14.2001 16.8999 15.7001 15.6999 17.9001 13.9999C19.5001 12.8999 20.2001 11.9 20.2001 11.1C20.2001 10.3 19.8001 9.79993 18.9001 9.29993C18.2001 8.99993 17.5001 8.79993 16.6001 8.79993C14.5001 8.79993 13.4001 9.4999 13.4001 10.8999C13.4001 11.1999 13.5001 11.4999 13.6001 11.8999L11.5001 12.7999C11.2001 12.0999 11.1001 11.4999 11.1001 10.8999C11.1001 9.3999 11.6001 8.29988 12.7001 7.49988C13.7001 6.79988 14.9001 6.49988 16.5001 6.49988C18.1001 6.49988 19.3001 6.89998 20.4001 7.59998C21.7001 8.49998 22.3001 9.59988 22.3001 10.9999C22.3001 12.2999 21.6001 13.5999 20.3001 14.7999C19.0001 15.7999 17.7001 16.7999 16.3001 17.7999C14.8001 19.0999 13.8001 20.4999 13.5001 21.8999H20.1001V19.8999H20.3001Z" fill="#1D1D1B"/>
<path d="M159.1 232.1H156.9V227.6H168.2V228.8C168.2 230.9 167.4 232.8 165.9 234.5C165.3 235.1 163.8 236.3 161.6 238C160 239.1 159.3 240.1 159.3 240.9C159.3 241.7 159.7 242.2 160.6 242.7C161.3 243 162 243.2 162.9 243.2C165 243.2 166.1 242.5 166.1 241.1C166.1 240.8 166 240.5 165.9 240.1L168 239.2C168.3 239.9 168.4 240.5 168.4 241.1C168.4 242.6 167.9 243.7 166.8 244.5C165.8 245.2 164.6 245.5 163 245.5C161.5 245.5 160.2 245.1 159.1 244.4C157.8 243.5 157.2 242.4 157.2 241C157.2 239.7 157.9 238.4 159.2 237.2C160.5 236.2 161.8 235.2 163.2 234.2C164.7 232.9 165.7 231.5 166 230.1H159.4V232.1H159.1Z" fill="#1D1D1B"/>
<path d="M16.8001 43.1C17.2001 44.2 17.9001 45.7999 19.0001 46.4999H14.2001C15.4001 45.4999 16.0001 44.1 16.3001 43.1C15.6001 44.3 14.3001 45.1 12.9001 45.1C10.7001 45.1 8.90015 43.3 8.90015 41.1C8.90015 38.9 10.7001 37.1 12.9001 37.1C13.3001 37.1 13.8001 37.1999 14.2001 37.2999C13.4001 36.5999 12.9001 35.4999 12.9001 34.3999C12.9001 32.1999 14.7001 30.3999 16.9001 30.3999C19.1001 30.3999 20.9001 32.1999 20.9001 34.3999C20.9001 35.5999 20.3001 36.6999 19.5001 37.3999C19.8001 37.2999 20.2001 37.2999 20.5001 37.2999C22.7001 37.2999 24.5001 39.0999 24.5001 41.2999C24.5001 43.4999 22.7001 45.2999 20.5001 45.2999C18.8001 45.2999 17.4001 44.4 16.8001 43.1Z" fill="#1D1D1B"/>
<path d="M163.8 211.1C163.4 210 162.7 208.4 161.6 207.7H166.4C165.2 208.7 164.6 210.1 164.3 211.1C165 209.9 166.3 209.1 167.7 209.1C169.9 209.1 171.7 210.9 171.7 213.1C171.7 215.3 169.9 217.1 167.7 217.1C167.3 217.1 166.8 217 166.4 216.9C167.2 217.6 167.7 218.7 167.7 219.8C167.7 222 165.9 223.8 163.7 223.8C161.5 223.8 159.7 222 159.7 219.8C159.7 218.6 160.3 217.5 161.1 216.8C160.8 216.9 160.4 216.9 160.1 216.9C157.9 216.9 156.1 215.1 156.1 212.9C156.1 210.7 157.9 208.9 160.1 208.9C161.8 208.9 163.1 209.8 163.8 211.1Z" fill="#1D1D1B"/>
<path d="M90.4 47.2C91.2 49.7 92.7 53.1 95.3 54.6H84.7C87.4 52.5 88.7 49.3 89.2 47.1C87.7 49.7 84.9 51.4999 81.7 51.4999C76.9 51.4999 73 47.5999 73 42.7999C73 37.9999 76.9 34.1 81.7 34.1C82.7 34.1 83.6 34.2999 84.5 34.4999C82.8 32.8999 81.7 30.7 81.7 28.2C81.7 23.4 85.6 19.4999 90.4 19.4999C95.2 19.4999 99.1 23.4 99.1 28.2C99.1 30.9 97.9 33.2999 96 34.8999C96.7 34.6999 97.5 34.6 98.2 34.6C103 34.6 106.9 38.4999 106.9 43.2999C106.9 48.0999 103 51.9999 98.2 51.9999C94.8 51.9999 91.8 50 90.4 47.2Z" fill="#1D1D1B"/>
<path d="M89.5 206.6C88.7 204.1 87.2 200.7 84.6 199.2H95.2C92.5 201.3 91.2 204.5 90.7 206.7C92.2 204.1 95 202.3 98.2 202.3C103 202.3 106.9 206.2 106.9 211C106.9 215.8 103 219.7 98.2 219.7C97.2 219.7 96.3 219.5 95.4 219.3C97.1 220.9 98.2 223.1 98.2 225.6C98.2 230.4 94.3 234.3 89.5 234.3C84.7 234.3 80.8 230.4 80.8 225.6C80.8 222.9 82 220.5 83.9 218.9C83.2 219.1 82.4 219.2 81.7 219.2C76.9 219.2 73 215.3 73 210.5C73 205.7 76.9 201.8 81.7 201.8C85.1 201.8 88 203.8 89.5 206.6Z" fill="#1D1D1B"/>
</svg>
