<svg width="181" height="254" viewBox="0 0 181 254" fill="none" xmlns="http://www.w3.org/2000/svg">
<path d="M180 231.4C180 243.2 173.2 252.8 164.8 252.8H16.4998C8.09976 252.8 1.2998 243.2 1.2998 231.4V22.3002C1.2998 10.5002 8.09976 0.900146 16.4998 0.900146H164.8C173.2 0.900146 180 10.5002 180 22.3002V231.4Z" fill="white" stroke="#1D1D1B" stroke-miterlimit="10"/>
<path d="M124 130.9C123.9 131.5 127.2 129.4 127.2 129.4C129.5 128.3 129.2 130 129.2 130C128.8 130.8 125.8 132.9 125.8 132.9C122.7 135.7 121 132.5 121 132.5C121 132.5 118.6 129.9 121.9 128.1C121.9 128.1 125.6 125.5 126.3 126.1C126.3 126.1 127.6 126.6 125.9 128.1C125.9 128.1 123.3 129.8 123.5 130.2L124 130.9Z" fill="#E31013"/>
<path d="M125.7 102.9C125.1 103.1 128.4 105.2 128.4 105.2C130.3 106.8 128.7 107.3 128.7 107.3C127.8 107.3 124.6 105.4 124.6 105.4C120.8 103.8 122.9 100.9 122.9 100.9C122.9 100.9 124.2 97.7001 127.2 99.9001C127.2 99.9001 131.1 102.2 130.9 103.1C130.9 103.1 131 104.5 128.9 103.6C128.9 103.6 126.2 102 126 102.3L125.7 102.9Z" fill="#E31013"/>
<path d="M65.2 87.3002C79.7 101.2 113.3 95.7002 113.3 95.7002C107.6 106.5 107.4 115.3 107.4 115.3C79.1999 116.6 64.5 110.3 64.5 110.3C64.5 110.3 70.4999 103.5 68.3999 94.3002C67.8999 92.2002 66.9 89.8002 65.2 87.3002Z" fill="#13110C" stroke="#13110C" stroke-miterlimit="10"/>
<path d="M101.6 115.5L102.399 100.8H111.1C111.1 100.8 107.699 108.6 107.399 115.4L101.6 115.5Z" fill="#E31013" stroke="#13110C" stroke-miterlimit="10"/>
<path d="M48.5999 99.5002C48.5999 99.5002 58.9997 109.1 60.1997 111.4C60.1997 111.4 52.6997 119 48.1997 127.9H29.1997L29.4998 113.7L48.5999 99.5002Z" fill="#211C4B" stroke="#13110C" stroke-miterlimit="10"/>
<path d="M57.2998 104.4C60.6998 97.3001 57.2998 93.0002 57.2998 93.0002L58.8997 91.8002C64.5997 100.1 58.8997 105.6 58.8997 105.6" fill="white"/>
<path d="M57.2998 104.4C60.6998 97.3001 57.2998 93.0002 57.2998 93.0002L58.8997 91.8002C64.5997 100.1 58.8997 105.6 58.8997 105.6" stroke="#13110C" stroke-miterlimit="10"/>
<path d="M43.8378 74.1058L36.3252 79.9208L42.1401 87.4334L49.6527 81.6184L43.8378 74.1058Z" fill="#211C4B" stroke="#13110C" stroke-miterlimit="10"/>
<path d="M66.6997 86.4002C66.6997 86.4002 76.9997 95.7002 99.1997 94.7002C99.1997 94.7002 123 94.3002 136.1 85.8002C136.1 85.8002 129.6 82.5002 123.7 68.7002C123.7 68.7002 93.8999 62.3002 90.5999 67.5002L88.5999 69.2002L66.6997 86.4002Z" fill="#211C4B" stroke="#13110C" stroke-miterlimit="10"/>
<path d="M157.3 229C158.1 229 158.7 229 159.1 229.1C159.5 229.2 159.9 229.4 160.3 229.7C161.2 229 162.1 228.6 163.2 228.6C164.3 228.6 165.3 229 166.2 229.8C167.1 230.6 167.6 231.6 167.6 232.7V234.3H168.8V236.3C168.8 236.3 168.4 236.3 167.6 236.4V242.6C167.6 243.7 167.1 244.7 166.2 245.6C165.3 246.4 164.3 246.8 163.2 246.8C162.1 246.8 161 246.4 160.1 245.6C159.2 244.8 158.7 243.8 158.7 242.7V232.8C158.7 232.3 158.8 231.9 159 231.4C158.8 231.3 158.6 231.2 158.5 231.1H157.3V229ZM165.5 236.5C164.6 236.4 163.8 236 162.9 235.3C162.4 234.9 161.7 234.2 160.9 233.3V242.7C160.9 243.2 161.1 243.7 161.6 244.1C162.1 244.5 162.6 244.7 163.2 244.7C163.8 244.7 164.3 244.5 164.8 244.1C165.3 243.7 165.5 243.2 165.5 242.7V236.5ZM161.9 231.3L164.6 234C164.8 234.2 165.1 234.4 165.5 234.4V232.9C165.5 232.4 165.3 232 164.8 231.5C164.3 231.1 163.8 230.9 163.2 230.9C162.7 230.9 162.3 231 161.9 231.3Z" fill="#E30B13"/>
<path d="M22.7998 24.7002C21.9998 24.7002 21.3998 24.7002 20.9998 24.6002C20.5998 24.5002 20.1998 24.3002 19.7998 24.0002C18.8998 24.7002 17.9997 25.1002 16.8997 25.1002C15.7997 25.1002 14.7997 24.7001 13.8997 23.9001C12.9997 23.1001 12.4998 22.1002 12.4998 21.0002V19.4001H11.2998V17.4001C11.2998 17.4001 11.6998 17.4002 12.4998 17.3002V11.1002C12.4998 10.0002 12.9997 9.00016 13.8997 8.10016C14.7997 7.30016 15.7997 6.90015 16.8997 6.90015C17.9997 6.90015 19.0998 7.30016 19.9998 8.10016C20.8998 8.90016 21.3997 9.90018 21.3997 11.0002V20.9001C21.3997 21.4001 21.2999 21.8002 21.0999 22.3002C21.2999 22.4002 21.4999 22.5002 21.5999 22.6002H22.7998V24.7002ZM14.5999 17.3002C15.4999 17.4002 16.2997 17.8002 17.1997 18.5002C17.6997 18.9002 18.3997 19.6002 19.1997 20.5002V11.1002C19.1997 10.6002 18.9998 10.1002 18.4998 9.7002C17.9998 9.3002 17.4997 9.10016 16.8997 9.10016C16.2997 9.10016 15.7998 9.3002 15.2998 9.7002C14.7998 10.1002 14.5999 10.6002 14.5999 11.1002V17.3002ZM18.0999 22.5002L15.3997 19.8002C15.1997 19.6002 14.8998 19.4001 14.4998 19.4001V20.9001C14.4998 21.4001 14.6997 21.8002 15.1997 22.3002C15.6997 22.8002 16.1998 22.9001 16.7998 22.9001C17.2998 22.9001 17.6999 22.8002 18.0999 22.5002Z" fill="#E30B13"/>
<path d="M150.1 30.4001H29.2998V225.4H150.1V30.4001Z" stroke="#13110C" stroke-miterlimit="10"/>
<path d="M142 30.4001C142 30.4001 137.7 43.5002 149 61.7002C149 61.7002 145.5 60.3002 140.2 63.2002C138.9 63.9002 137.5 64.9002 136 66.3002L110.5 30.4001H111.4H142Z" fill="#FFEA24" stroke="#13110C" stroke-miterlimit="10"/>
<path d="M139.6 63.5002L116.5 30.3002H110.6L136.1 66.2002C136 66.2002 138.6 64.1002 139.6 63.5002Z" fill="#13110C" stroke="#13110C" stroke-miterlimit="10"/>
<path d="M120.5 31.8002L128.2 40.9001" stroke="#211C4B" stroke-miterlimit="10"/>
<path d="M138.1 52.4001C136.7 52.3001 131.3 45.7002 131.3 45.7002L141.4 61.1002C141.4 61.1002 138.2 53.4001 138.1 52.4001Z" fill="#211C4B"/>
<path d="M124.3 33.7002L129 38.9001" stroke="#211C4B" stroke-miterlimit="10"/>
<path d="M132.399 44.2002L137.399 50.1002" stroke="#211C4B" stroke-miterlimit="10"/>
<path d="M140.3 53.8002L143.4 60.3002" stroke="#211C4B" stroke-miterlimit="10"/>
<path d="M128.733 41.2384L128.65 44.4374L131.849 44.5201L131.932 41.3211L128.733 41.2384Z" fill="#211C4B"/>
<path d="M141.9 50.4001C141.9 51.3001 141.2 52.0002 140.3 52.0002C139.4 52.0002 138.7 51.3001 138.7 50.4001C138.7 49.5001 139.4 48.8002 140.3 48.8002C141.2 48.8002 141.9 49.5001 141.9 50.4001Z" fill="#211C4B"/>
<path d="M132.399 35.8002C132.399 38.0002 132 39.8002 131.5 39.8002C131 39.8002 130.6 38.0002 130.6 35.8002C130.6 33.6002 131 31.8002 131.5 31.8002C132 31.8002 132.399 33.6002 132.399 35.8002Z" fill="#211C4B"/>
<path d="M136.9 38.8002C135.2 40.2002 133.6 41.1002 133.3 40.7002C133 40.3002 134.1 38.9002 135.8 37.5002C137.5 36.1002 139.1 35.2001 139.4 35.6001C139.7 35.9001 138.6 37.4002 136.9 38.8002Z" fill="#211C4B"/>
<path d="M135.9 45.3002C134.1 44.0002 133 42.6002 133.2 42.2002C133.5 41.8002 135.1 42.6001 136.9 43.9001C138.7 45.2001 139.8 46.6002 139.6 47.0002C139.3 47.4002 137.7 46.6002 135.9 45.3002Z" fill="#211C4B"/>
<path d="M103.399 30.4001L150.1 94.4001V83.9001L110.5 30.4001H103.399Z" fill="#E31013" stroke="#13110C" stroke-miterlimit="10"/>
<path d="M103.4 30.4001H86.6997V40.8002C86.6997 40.8002 92.9999 38.6002 95.5999 33.7002C95.5999 33.7002 102.2 42.0002 112.8 44.1002H113.4L103.4 30.4001Z" fill="#AFA3C7" stroke="#13120D" stroke-width="0.5" stroke-miterlimit="10"/>
<path d="M121.2 54.8002C121.2 54.8002 121.2 72.0002 131.5 81.0002C131.5 81.0002 139.5 91.3002 149 93.0002L121.2 54.8002Z" fill="#AFA3C7" stroke="#13120D" stroke-miterlimit="10"/>
<path d="M95.5999 33.7002C103.7 42.9002 113.4 44.1002 113.4 44.1002L120.9 54.4001C115.5 67.3001 107.4 73.0002 107.4 73.0002C100.9 77.8002 95.5999 76.9001 95.5999 76.9001C86.5999 69.9001 86.6998 59.5002 86.6998 59.5002V40.8002C86.6998 40.8002 93.4999 37.8002 95.5999 33.7002Z" fill="#FED68A" stroke="#13110C" stroke-miterlimit="10"/>
<path d="M87.5996 38.9001C87.5996 38.9001 93.2995 35.5001 94.6995 32.4001" stroke="#13110C" stroke-width="0.5" stroke-miterlimit="10"/>
<path d="M87.5996 36.7002C87.5996 36.7002 91.3994 34.9001 92.8994 32.4001" stroke="#13110C" stroke-width="0.5" stroke-miterlimit="10"/>
<path d="M87.5996 34.1002C87.5996 34.1002 89.0996 33.4001 90.2996 32.4001" stroke="#13110C" stroke-width="0.5" stroke-miterlimit="10"/>
<path d="M96.5 31.8002C96.5 31.8002 102.1 38.8002 110.8 42.1002" stroke="#13110C" stroke-width="0.5" stroke-miterlimit="10"/>
<path d="M99 31.8002C99 31.8002 102 36.0002 108.2 39.0002" stroke="#13110C" stroke-width="0.5" stroke-miterlimit="10"/>
<path d="M101.6 31.8002C101.6 31.8002 102.099 33.6002 106.399 36.3002" stroke="#13110C" stroke-width="0.5" stroke-miterlimit="10"/>
<path d="M122.899 59.1002V63.9001" stroke="#13110C" stroke-width="0.5" stroke-miterlimit="10"/>
<path d="M124.6 61.1002V68.6002" stroke="#13110C" stroke-width="0.5" stroke-miterlimit="10"/>
<path d="M126.3 63.9001V72.5002" stroke="#13110C" stroke-width="0.5" stroke-miterlimit="10"/>
<path d="M128.3 66.2002V75.7002" stroke="#13110C" stroke-width="0.5" stroke-miterlimit="10"/>
<path d="M130.3 68.9001V77.7002" stroke="#13110C" stroke-width="0.5" stroke-miterlimit="10"/>
<path d="M132.399 72.0002V80.2002" stroke="#13110C" stroke-width="0.5" stroke-miterlimit="10"/>
<path d="M134.399 74.9001V82.5002" stroke="#13110C" stroke-width="0.5" stroke-miterlimit="10"/>
<path d="M136.4 77.7002L136.3 84.2002" stroke="#13110C" stroke-width="0.5" stroke-miterlimit="10"/>
<path d="M138.8 80.2002V86.4001" stroke="#13110C" stroke-width="0.5" stroke-miterlimit="10"/>
<path d="M140.899 83.7002V87.9001" stroke="#13110C" stroke-width="0.5" stroke-miterlimit="10"/>
<path d="M143.399 86.4001V89.6002" stroke="#13110C" stroke-width="0.5" stroke-miterlimit="10"/>
<path d="M144.8 88.7002V90.5002" stroke="#13110C" stroke-width="0.5" stroke-miterlimit="10"/>
<path d="M87.5996 45.7002C87.5996 45.7002 90.7995 43.5002 93.6995 46.6002C93.6995 46.6002 96.4995 51.3002 93.9995 56.7002C93.9995 56.7002 90.3996 60.2002 93.2996 62.7002C93.2996 62.7002 95.3996 63.3002 96.5996 62.4002C96.5996 62.4002 99.9996 63.3002 99.0996 60.2002" stroke="#13110C" stroke-miterlimit="10"/>
<path d="M95.1997 63.4001V64.1002" stroke="#13110C" stroke-miterlimit="10"/>
<path d="M91.1997 68.6002H100.9" stroke="#13110C" stroke-miterlimit="10"/>
<path d="M94.3994 68.9001H96.6995" stroke="#13110C" stroke-miterlimit="10"/>
<path d="M94.3994 68.0002H96.6995" stroke="#13110C" stroke-miterlimit="10"/>
<path d="M97.5999 70.9001L95.5999 73.3002H96.6997L94.1997 70.9001" stroke="#13110C" stroke-miterlimit="10"/>
<path d="M93.3994 50.5002C91.2994 48.4002 87.5996 49.8002 87.5996 49.8002C87.5996 49.8002 88.0996 53.6001 92.2996 52.4001C92.2996 52.4001 94.8994 52.0002 93.3994 50.5002Z" stroke="#13110C" stroke-miterlimit="10"/>
<path d="M93.8997 52.9001C93.8997 52.9001 91.1998 54.8002 90.7998 54.6002" stroke="#13110C" stroke-miterlimit="10"/>
<path d="M98.6997 45.6002C98.6997 45.6002 106.9 44.3002 112 47.6002" stroke="#13110C" stroke-miterlimit="10"/>
<path d="M110 51.6001C105.4 48.5001 99.5998 50.5002 99.5998 50.5002C99.5998 50.5002 97.7997 54.0002 104.3 53.7002C104.2 53.7002 108.4 53.6001 110 51.6001Z" stroke="#13110C" stroke-miterlimit="10"/>
<path d="M99.5996 53.2002C99.5996 53.2002 102.399 55.3001 104.699 55.9001" stroke="#13110C" stroke-miterlimit="10"/>
<path d="M90.5999 51.5002C91.0969 51.5002 91.4998 51.2763 91.4998 51.0002C91.4998 50.724 91.0969 50.5002 90.5999 50.5002C90.1028 50.5002 89.6997 50.724 89.6997 51.0002C89.6997 51.2763 90.1028 51.5002 90.5999 51.5002Z" fill="#13110C" stroke="#13110C" stroke-miterlimit="10"/>
<path d="M105.6 51.8002C105.6 52.1002 104.8 52.4001 103.8 52.4001C102.8 52.4001 102 52.1002 102 51.8002C102 51.5002 102.8 51.2002 103.8 51.2002C104.8 51.2002 105.6 51.4002 105.6 51.8002Z" fill="#13110C" stroke="#13110C" stroke-miterlimit="10"/>
<path d="M86.6997 30.4001H84.4998L83.2998 32.4001C83.2998 32.4001 74.2998 40.1002 67.2998 60.3002C67.2998 60.3002 63.2998 71.3002 62.7998 88.8002L66.5999 86.5002C66.5999 86.5002 65.7998 76.1002 70.2998 61.2002C70.2998 61.2002 73.7998 48.5002 84.2998 36.8002L86.5999 34.6002V30.4001H86.6997Z" fill="#FFEA24" stroke="#13110C" stroke-miterlimit="10"/>
<path d="M74.7998 80.2002L88.5999 69.2002C88.5999 69.2002 87.9998 68.1002 86.7998 60.7002C86.7998 60.7002 86.6997 49.4002 86.6997 48.2002C86.6997 48.2002 75.7998 62.7002 75.4998 79.5002" fill="#E31013"/>
<path d="M74.7998 80.2002L88.5999 69.2002C88.5999 69.2002 87.9998 68.1002 86.7998 60.7002C86.7998 60.7002 86.6997 49.4002 86.6997 48.2002C86.6997 48.2002 75.7998 62.7002 75.4998 79.5002" stroke="#13110C" stroke-miterlimit="10"/>
<path d="M29.2998 127.9H89.6997" stroke="#13110C" stroke-miterlimit="10"/>
<path d="M121.199 54.8002C119.499 61.7002 108.6 72.0002 108.6 72.0002C108.6 72.0002 117.099 72.6002 123.699 68.8002C123.699 68.8002 121.199 62.8002 121.199 54.8002Z" fill="#AFA3C7" stroke="#13120D" stroke-miterlimit="10"/>
<path d="M111.7 70.7002C111.7 70.7002 117.6 70.3002 122.2 68.2002" stroke="#13110C" stroke-width="0.5" stroke-miterlimit="10"/>
<path d="M113.8 68.6002C113.8 68.6002 119.8 67.7002 121.8 66.6002" stroke="#13110C" stroke-width="0.5" stroke-miterlimit="10"/>
<path d="M115.7 66.2002C115.7 66.2002 119.4 65.7002 121.2 64.8002" stroke="#13110C" stroke-width="0.5" stroke-miterlimit="10"/>
<path d="M117.6 63.9001C117.6 63.9001 120.499 63.6001 120.899 63.4001" stroke="#13110C" stroke-width="0.5" stroke-miterlimit="10"/>
<path d="M118.8 62.0002C118.8 62.0002 120.3 62.0002 120.9 61.7002" stroke="#13110C" stroke-width="0.5" stroke-miterlimit="10"/>
<path d="M82.6997 77.7002H79.1997V81.5002H82.6997V77.7002Z" stroke="#FFEA24" stroke-miterlimit="10"/>
<path d="M91.5 79.7002H88V83.5002H91.5V79.7002Z" stroke="#FFEA24" stroke-miterlimit="10"/>
<path d="M100.7 80.2002H97.1997V84.0002H100.7V80.2002Z" stroke="#FFEA24" stroke-miterlimit="10"/>
<path d="M109.5 79.7002H106V83.5002H109.5V79.7002Z" stroke="#FFEA24" stroke-miterlimit="10"/>
<path d="M118.399 77.7002H114.899V81.5002H118.399V77.7002Z" stroke="#FFEA24" stroke-miterlimit="10"/>
<path d="M80.5 86.8002H77V90.6002H80.5V86.8002Z" stroke="#FFEA24" stroke-miterlimit="10"/>
<path d="M86.1997 83.5002H82.6997V87.3002H86.1997V83.5002Z" stroke="#FFEA24" stroke-miterlimit="10"/>
<path d="M95.8994 84.9001H92.3994V88.7002H95.8994V84.9001Z" stroke="#FFEA24" stroke-miterlimit="10"/>
<path d="M105.1 84.5002H101.6V88.3002H105.1V84.5002Z" stroke="#FFEA24" stroke-miterlimit="10"/>
<path d="M114.5 83.5002H111V87.3002H114.5V83.5002Z" stroke="#FFEA24" stroke-miterlimit="10"/>
<path d="M124 81.4001H120.5V85.2002H124V81.4001Z" stroke="#FFEA24" stroke-miterlimit="10"/>
<path d="M100.2 90.5002H96.6997V93.7002H100.2V90.5002Z" stroke="#FFEA24" stroke-miterlimit="10"/>
<path d="M90.2998 89.6002H86.7998V93.0002H90.2998V89.6002Z" stroke="#FFEA24" stroke-miterlimit="10"/>
<path d="M110.3 89.1002H106.8V92.5002H110.3V89.1002Z" stroke="#FFEA24" stroke-miterlimit="10"/>
<path d="M120.2 87.7002H116.7V90.9001H120.2V87.7002Z" stroke="#FFEA24" stroke-miterlimit="10"/>
<path d="M130 84.5002H126.5V87.9001H130V84.5002Z" stroke="#FFEA24" stroke-miterlimit="10"/>
<path d="M76.1997 82.1002H73.1997V85.1002H76.1997V82.1002Z" stroke="#FFEA24" stroke-miterlimit="10"/>
<path d="M83.7998 78.2002L90.2998 78.3002L87.7998 73.2002L83.7998 78.2002Z" fill="#FFEA24"/>
<path d="M109.2 77.8002L114.3 77.2002L111.7 73.5002L109.2 77.8002Z" fill="#FFEA24"/>
<path d="M116.1 76.7002L120.899 75.0002L117.6 72.0002L116.1 76.7002Z" fill="#FFEA24"/>
<path d="M103.8 78.9001L108.8 77.9001L106 74.5002L103.8 78.9001Z" fill="#FFEA24"/>
<path d="M91.1997 78.3002L95.8997 78.9001L93.3997 75.7002L91.1997 78.3002Z" fill="#FFE922"/>
<path d="M97.5996 78.7002L102.399 78.9001L100.899 76.7002L97.5996 77.7002V78.7002Z" fill="#FFE922"/>
<path d="M122.3 74.5002L125.1 73.2002L122.9 70.9001L122.3 74.5002Z" fill="#FFE922"/>
<path d="M125.355 75.6466L122.734 76.6309L123.929 79.8139L126.55 78.8297L125.355 75.6466Z" stroke="#FFEA24" stroke-miterlimit="10"/>
<path d="M65.1997 87.3002C65.1997 87.3002 72.7997 96.0002 92.8997 96.3002C92.8997 96.3002 108.6 97.4002 117.7 94.7002C117.7 94.7002 132.4 91.1002 137.4 86.8002L136.2 85.8002C136.2 85.8002 126.6 91.2002 117.1 92.6002C117.1 92.6002 102.1 95.5002 93.9998 94.7002C93.9998 94.7002 85.0997 94.8001 73.6997 90.4001C73.6997 90.4001 67.6998 87.6002 66.7998 86.3002L65.1997 87.3002Z" fill="#FFEA24" stroke="#13110C" stroke-miterlimit="10"/>
<path d="M66.7001 86.4001C66.7001 86.4001 64.4001 56.4002 86.7001 34.6002V48.3002C74.4001 64.8002 74.8002 80.2002 74.8002 80.2002L66.7001 86.4001Z" fill="#13110C" stroke="#13110C" stroke-miterlimit="10"/>
<path d="M42.9998 77.7002C42.9998 79.0002 41.8999 80.1002 40.5999 80.1002C39.2999 80.1002 38.1997 79.0002 38.1997 77.7002C38.1997 76.4002 39.2999 75.3002 40.5999 75.3002C41.8999 75.3002 42.9998 76.4002 42.9998 77.7002Z" fill="#FFEA24" stroke="#13110C" stroke-miterlimit="10"/>
<path d="M48.4998 78.3002C48.4998 79.6002 47.3999 80.7002 46.0999 80.7002C44.7999 80.7002 43.6997 79.6002 43.6997 78.3002C43.6997 77.0002 44.7999 75.9002 46.0999 75.9002C47.3999 75.8002 48.4998 76.9002 48.4998 78.3002Z" fill="#FFEA24" stroke="#13110C" stroke-miterlimit="10"/>
<path d="M47.8 84.0002C47.8 85.3002 46.6999 86.4001 45.3999 86.4001C44.0999 86.4001 43 85.3002 43 84.0002C43 82.7002 44.0999 81.6002 45.3999 81.6002C46.6999 81.6002 47.8 82.7002 47.8 84.0002Z" fill="#FFEA24" stroke="#13110C" stroke-miterlimit="10"/>
<path d="M42.3 83.5002C42.3 84.8002 41.1999 85.9001 39.8999 85.9001C38.5999 85.9001 37.5 84.8002 37.5 83.5002C37.5 82.2002 38.5999 81.1002 39.8999 81.1002C41.1999 81.1002 42.3 82.2002 42.3 83.5002Z" fill="#FFEA24" stroke="#13110C" stroke-miterlimit="10"/>
<path d="M44.3994 81.2002C44.3994 82.0002 43.6994 82.7002 42.8994 82.7002C42.0994 82.7002 41.3994 82.0002 41.3994 81.2002C41.3994 81.0002 41.3995 80.8002 41.4995 80.7002C41.6995 80.1002 42.2994 79.7002 42.8994 79.7002C43.7994 79.7002 44.3994 80.4002 44.3994 81.2002Z" fill="white" stroke="#13110C" stroke-miterlimit="10"/>
<path d="M36.8997 88.9001C36.9997 88.9001 47.1997 91.2002 48.8997 98.8002L48.7998 99.5002L39.8997 106.1C39.8997 106.1 33.3998 103.4 32.2998 100.8C32.2998 100.8 31.4999 98.3002 32.5999 98.1002C32.5999 98.1002 31.2998 96.3001 32.4998 95.4001C32.4998 95.4001 31.5998 93.3002 32.9998 92.5002C32.9998 92.5002 31.6997 89.5002 34.6997 89.3002C34.6997 89.3002 35.2997 89.0001 36.8997 88.9001Z" fill="#FED68A" stroke="#13110C" stroke-miterlimit="10"/>
<path d="M32.8994 92.5002L38.3994 93.5002C38.3994 93.5002 42.2996 95.6002 39.7996 96.5002C39.7996 96.5002 42.1996 98.2002 39.7996 98.8002C39.7996 98.8002 40.7994 100.8 38.3994 101.4C38.3994 101.4 33.5994 101.8 32.3994 101.2" stroke="#13110C" stroke-miterlimit="10"/>
<path d="M39.7996 96.4001L32.3994 95.4001" stroke="#13110C" stroke-miterlimit="10"/>
<path d="M39.8 98.8002L32.5 98.1002" stroke="#13110C" stroke-miterlimit="10"/>
<path d="M37.8995 89.2002C36.3995 88.8002 34.6995 88.9001 34.6995 88.9001C29.8995 86.3001 30.4996 81.1002 30.4996 81.1002C30.4996 81.1002 36.4995 81.6002 37.8995 88.1002C37.8995 88.1002 38.2995 89.3002 37.8995 89.2002Z" fill="#BBB32E" stroke="#13110C" stroke-miterlimit="10"/>
<path d="M44.2998 92.3002L45.8997 93.7002C45.8997 93.7002 53.3998 94.6002 55.2998 91.3002C55.2998 91.3002 56.4998 87.0002 47.4998 89.2002C47.4998 89.2002 45.4998 89.9002 44.2998 92.3002Z" fill="#BBB32E" stroke="#13110C" stroke-miterlimit="10"/>
<path d="M39.8 85.9001L39 89.5002L41.2 90.4001L42.1001 87.4001L40.8 85.7002L39.8 85.9001Z" fill="#BBB32E" stroke="#13110C" stroke-miterlimit="10"/>
<path d="M31.8994 82.7002C31.8994 82.7002 34.4996 86.4001 36.2996 87.4001" stroke="#13110C" stroke-miterlimit="10"/>
<path d="M46.0996 92.2002C46.0996 92.2002 52.5994 91.2001 53.3994 90.4001" stroke="#13110C" stroke-miterlimit="10"/>
<path d="M35.3994 101.5V103.7V109.1V109.7L37.3994 107.9V101.5H35.3994Z" fill="#BBB32E" stroke="#13110C" stroke-miterlimit="10"/>
<path d="M63.1997 88.5002C71.9997 101.1 61.7998 109.7 61.7998 109.7L63.3997 111.5C74.9997 100.8 65.1997 87.4001 65.1997 87.4001L62.8997 88.8002L29.2998 114.3" fill="#FFEA24"/>
<path d="M63.1997 88.5002C71.9997 101.1 61.7998 109.7 61.7998 109.7L63.3997 111.5C74.9997 100.8 65.1997 87.4001 65.1997 87.4001L62.8997 88.8002L29.2998 114.3" stroke="#13110C" stroke-miterlimit="10"/>
<path d="M48.5996 99.5002C48.5996 99.5002 67.7995 115.8 68.9995 127.8H71.2996C67.7996 110.3 50.4995 98.0002 50.4995 98.0002L48.5996 99.5002Z" fill="#FFEA24" stroke="#13110C" stroke-miterlimit="10"/>
<path d="M50.4998 127.9C53.0998 121.8 61.5999 113 61.5999 113L60.2998 111.4C60.2998 111.4 52.9998 118 48.2998 127.9H50.4998Z" fill="#FFEA24" stroke="#13110C" stroke-miterlimit="10"/>
<path d="M62.8994 88.7002L61.5996 89.7002C61.5996 89.7002 69.2996 97.7002 61.0996 108.1L62.2996 109.2C62.2996 109.2 71.8994 100.9 62.8994 88.7002Z" fill="white" stroke="#13110C" stroke-miterlimit="10"/>
<path d="M61.2998 89.9001L59.0999 91.6002C59.0999 91.6002 64.3998 99.7002 58.7998 105.6L60.9998 108.1C61.0998 108.1 69.2998 98.7001 61.2998 89.9001Z" fill="#13110C" stroke="#13110C" stroke-miterlimit="10"/>
<path d="M57 93.2002C57 93.2002 61.3 98.1002 57.3 104C57.3 104 51.8 98.8002 50.5 98.1002L57 93.2002Z" fill="#211C4B" stroke="#13110C" stroke-miterlimit="10"/>
<path d="M46.1 113.8C46.1 113.8 44.7 107.9 47.5 108.1L48.3 108.5L48.8999 109.2V111.1C48.8999 111.1 53.3 109.9 51.6 113C51.6 113 50.3 114.6 46.1 113.8Z" fill="#FFEA24"/>
<path d="M45.6997 115.7C45.6997 115.7 51.3998 113.8 51.4998 116.6L51.1997 117.4L50.4998 118.1L48.5999 118.3C48.5999 118.3 50.1997 122.6 46.8997 121.2C46.9997 121.1 45.2997 120 45.6997 115.7Z" fill="#FFEA24"/>
<path d="M44.1997 115.1C44.1997 115.1 44.8998 121.1 42.0998 120.6L41.3996 120.1L40.8996 119.3L41.0998 117.4C41.0998 117.4 36.5998 118.1 38.5998 115.2C38.6998 115.3 40.0997 113.8 44.1997 115.1Z" fill="#FFEA24"/>
<path d="M44.1995 113.4C44.1995 113.4 38.1995 114 38.6995 111.2L39.1995 110.5L39.9996 110L41.7996 110.3C41.7996 110.3 41.1997 105.8 44.0997 107.9C44.1997 107.9 45.5995 109.3 44.1995 113.4Z" fill="#FFEA24"/>
<path d="M37.7 125.4C38.6388 125.4 39.3999 124.639 39.3999 123.7C39.3999 122.761 38.6388 122 37.7 122C36.7611 122 36 122.761 36 123.7C36 124.639 36.7611 125.4 37.7 125.4Z" fill="#FFEA24"/>
<path d="M51.5996 108.7C52.5385 108.7 53.2996 107.939 53.2996 107C53.2996 106.061 52.5385 105.3 51.5996 105.3C50.6607 105.3 49.8994 106.061 49.8994 107C49.8994 107.939 50.6607 108.7 51.5996 108.7Z" fill="#FFEA24"/>
<path d="M30.5 125.5C30.5 125.5 31.6 121.1 38.2 115.1" stroke="#FFEA24" stroke-miterlimit="10"/>
<path d="M44.7998 107.8C44.7998 107.8 45.9999 103.5 48.5999 100.8" stroke="#FFEA24" stroke-miterlimit="10"/>
<path d="M51.3994 114.6C51.3994 114.6 55.7995 113.1 57.9995 111.1" stroke="#FFEA24" stroke-miterlimit="10"/>
<path d="M50.5 127.9C50.5 127.9 52.6001 122.5 61.6001 113C61.6001 113 68.3001 120.8 69.1001 127.9H50.5Z" fill="#211C4B" stroke="#13110C" stroke-miterlimit="10"/>
<path d="M57.2998 118.6L64.6997 119.6L60.9998 127" stroke="white" stroke-miterlimit="10"/>
<path d="M66.7996 122.8L65.5996 124.9L68.0996 125.9" stroke="white" stroke-miterlimit="10"/>
<path d="M58.6997 117.1L64.3997 118.2" stroke="#FFEA24" stroke-miterlimit="10"/>
<path d="M65.8994 120.7L63.0996 126.3L65.8994 127.2" stroke="#FFEA24" stroke-miterlimit="10"/>
<path d="M53.6996 136.1C53.6996 136.1 53.1997 137.6 56.9997 138.5C56.9997 138.5 57.7997 138.5 57.9997 139.3L57.8996 139.9C57.6996 140.3 55.2997 140.1 55.2997 140.1C52.3997 140.1 53.6996 141.5 53.6996 141.5C55.8996 142.9 59.1996 142.5 59.1996 142.5C62.4996 142.1 61.5998 138.6 61.5998 138.6" stroke="#13110C" stroke-miterlimit="10"/>
<path d="M64.4995 110.4L63.5996 111.3L65.2996 113.7C65.2996 113.7 78.6994 119.1 106.899 117.4C106.899 117.4 107.199 116.3 107.399 115.4C107.399 115.4 79.4995 116.8 64.4995 110.4Z" fill="#FFEA24" stroke="#13110C" stroke-miterlimit="10"/>
<path d="M113.2 95.8002L115.9 95.3002C115.9 95.3002 106 111.1 110.3 127.9H108.1C108.2 127.9 104.4 111.9 113.2 95.8002Z" fill="#FFEA24" stroke="#13110C" stroke-miterlimit="10"/>
<path d="M68.5999 95.2002L76.1997 97.4001L75.3997 113.4C75.3997 113.4 66.7999 111.5 64.5999 110.3C64.4999 110.4 70.4999 104.1 68.5999 95.2002Z" fill="#E31013" stroke="#13110C" stroke-miterlimit="10"/>
<path d="M74.7996 100.8C74.7996 100.8 75.0995 97.9002 73.1995 98.1002C73.1995 98.1002 68.8994 98.4002 71.3994 102.3C71.3994 102.3 73.8995 106.2 73.1995 108.7C73.1995 108.7 70.8996 111.8 69.0996 108.1" stroke="white" stroke-miterlimit="10"/>
<path d="M103.7 104.1C103.7 104.1 104 101.4 105.4 102C105.4 102 108.6 103.3 106 106.4C106 106.4 103.3 109.4 103.3 111.9C103.3 111.9 104.4 115.4 106.5 112.4" stroke="white" stroke-miterlimit="10"/>
<path d="M80.5996 95.2002L82.6995 95.5002L81.6995 114.5L79.3994 114.1L80.5996 95.2002Z" fill="#FFEA24" stroke="#13110C" stroke-miterlimit="10"/>
<path d="M86.6995 96.4001L85.8994 114.9L88.1995 115.1L89.2996 96.6002L86.6995 96.4001Z" fill="#FFEA24" stroke="#13110C" stroke-miterlimit="10"/>
<path d="M89.2998 96.6002L92.3997 96.7002L91.1997 115.3L88.1997 115.1L89.2998 96.6002Z" fill="#FFEA24" stroke="#13110C" stroke-miterlimit="10"/>
<path d="M95.9998 96.8002L95.1997 115.6H97.5999L98.4998 96.8002H95.9998Z" fill="#FFEA24" stroke="#13110C" stroke-miterlimit="10"/>
<path d="M82.6997 95.5002L86.6997 96.4001L85.8997 114.9L81.6997 114.5L82.6997 95.5002Z" fill="#E31013" stroke="#13110C" stroke-miterlimit="10"/>
<path d="M92.3997 96.7002L91.1997 115.3L95.1997 115.6L95.9998 96.8002L92.3997 96.7002Z" fill="#E31013" stroke="#13110C" stroke-miterlimit="10"/>
<path d="M84.5 98.1002V101.5" stroke="white" stroke-miterlimit="10"/>
<path d="M84.1997 104.9V105.8" stroke="white" stroke-miterlimit="10"/>
<path d="M83.7998 108.1V111.6" stroke="white" stroke-miterlimit="10"/>
<path d="M93.8994 100.2V103.7" stroke="white" stroke-miterlimit="10"/>
<path d="M93.5 107V107.9" stroke="white" stroke-miterlimit="10"/>
<path d="M93.1997 110.3V113.7" stroke="white" stroke-miterlimit="10"/>
<path d="M107.4 117.1C106.7 117.6 108.2 127.9 108.2 127.9H71.3C70.3 121.5 65.5 114.1 65.5 114.1C65.5 114.1 81.1999 118.8 107.4 117.1Z" fill="#13110C" stroke="#13110C" stroke-miterlimit="10"/>
<path d="M70.2998 121C70.2998 121 86.4998 125.4 106.3 124" stroke="white" stroke-miterlimit="10"/>
<path d="M69.9995 116.2L69.8994 118.9" stroke="white" stroke-miterlimit="10"/>
<path d="M73.0996 117.1V119.6" stroke="white" stroke-miterlimit="10"/>
<path d="M76.1997 117.8V120.4" stroke="white" stroke-miterlimit="10"/>
<path d="M79.3994 118.2V121" stroke="white" stroke-miterlimit="10"/>
<path d="M82.1997 118.6V121.2" stroke="white" stroke-miterlimit="10"/>
<path d="M85.5 118.9V121.6" stroke="white" stroke-miterlimit="10"/>
<path d="M89.2998 119.1V121.9" stroke="white" stroke-miterlimit="10"/>
<path d="M92.3994 119.6V121.9" stroke="white" stroke-miterlimit="10"/>
<path d="M96 119.6V121.9" stroke="white" stroke-miterlimit="10"/>
<path d="M99.1997 119.6V121.9" stroke="white" stroke-miterlimit="10"/>
<path d="M102.2 119.1V121.9" stroke="white" stroke-miterlimit="10"/>
<path d="M105.5 118.9L105.6 121.9" stroke="white" stroke-miterlimit="10"/>
<path d="M73.0996 127.9V124.2C73.0996 124.2 92.5996 126.9 105.8 126V127.8H73.0996V127.9Z" fill="#E31013"/>
<path d="M135.3 88.3002L150.1 105.8V101.9L137.4 87.3002L135.3 88.3002Z" fill="#FFEA24" stroke="#13110C" stroke-miterlimit="10"/>
<path d="M150.1 106.2V116.5L129.399 91.1002L135.3 88.3002L150.1 106.2Z" fill="#211C4B" stroke="#13110C" stroke-miterlimit="10"/>
<path d="M134 93.7002L137.4 94.4001" stroke="white" stroke-miterlimit="10"/>
<path d="M135.7 92.5002L135.3 95.8002" stroke="white" stroke-miterlimit="10"/>
<path d="M137.1 97.7002L140.399 98.3002" stroke="white" stroke-miterlimit="10"/>
<path d="M138.8 96.5002L138.399 99.8002" stroke="white" stroke-miterlimit="10"/>
<path d="M140.399 101.5L143.699 102.2" stroke="white" stroke-miterlimit="10"/>
<path d="M142.1 100.3L141.7 103.6" stroke="white" stroke-miterlimit="10"/>
<path d="M143.1 105.3L146.399 106" stroke="white" stroke-miterlimit="10"/>
<path d="M144.8 104.1L144.399 107.4" stroke="white" stroke-miterlimit="10"/>
<path d="M146.399 108.6L149.8 109.3" stroke="white" stroke-miterlimit="10"/>
<path d="M148.1 107.4L147.7 110.7" stroke="white" stroke-miterlimit="10"/>
<path d="M131.899 90.8002L134 91.3002" stroke="white" stroke-miterlimit="10"/>
<path d="M132.399 92.1002L133 90.5002" stroke="white" stroke-miterlimit="10"/>
<path d="M129.4 91.1002L126.7 92.1002L150.1 119.6V116.5L129.4 91.1002Z" fill="white" stroke="#13110C" stroke-miterlimit="10"/>
<path d="M126.7 92.1002L122.3 93.5002L150.1 126.9V119.6L126.7 92.1002Z" fill="#13110C" stroke="#13110C" stroke-miterlimit="10"/>
<path d="M150.1 127.9L122.3 93.5002L116 95.2002C116 95.2002 105.9 110.6 110.4 127.8H150.1H110.4" fill="#211C4B"/>
<path d="M150.1 127.9L122.3 93.5002L116 95.2002C116 95.2002 105.9 110.6 110.4 127.8H150.1H110.4" stroke="#13110C" stroke-miterlimit="10"/>
<path d="M121.1 116.2C120.7 116.6 124.5 117.2 124.5 117.2C126.9 117.9 125.7 119 125.7 119C124.9 119.4 121.2 119 121.2 119C117.1 119.1 117.8 115.6 117.8 115.6C117.8 115.6 117.7 112.1 121.4 112.9C121.4 112.9 125.9 113.4 126.1 114.2C126.1 114.2 126.8 115.4 124.5 115.5C124.5 115.5 121.4 115.1 121.3 115.5L121.1 116.2Z" fill="#E31013"/>
<path d="M122.699 109.4C122.199 109.7 125.899 111 125.899 111C128.199 112.1 126.699 113 126.699 113C125.899 113.2 122.3 112.2 122.3 112.2C118.2 111.6 119.499 108.3 119.499 108.3C119.499 108.3 119.999 104.9 123.499 106.3C123.499 106.3 127.899 107.5 127.899 108.4C127.899 108.4 128.4 109.7 126.1 109.4C126.1 109.4 123.099 108.5 122.899 108.9L122.699 109.4Z" fill="#E31013"/>
<path d="M121 123.2C120.7 123.7 124.5 123.2 124.5 123.2C127 123.2 126.1 124.6 126.1 124.6C125.4 125.2 121.8 125.8 121.8 125.8C117.9 127 117.6 123.5 117.6 123.5C117.6 123.5 116.5 120.2 120.3 119.9C120.3 119.9 124.8 119.1 125.2 119.9C125.2 119.9 126.2 120.9 124 121.6C124 121.6 120.9 122.1 120.9 122.5L121 123.2Z" fill="#E31013"/>
<path d="M117.9 94.7002L118.9 101.9L112.5 102.4L112 103.6L120.6 103.5L119.4 94.3002L117.9 94.7002Z" fill="#FFEA24"/>
<path d="M111.4 105.4L114.6 110.7L109.7 113.3V114.4L116.5 111.4L112.4 104.6L111.4 105.4Z" fill="#FFEA24"/>
<path d="M109.399 115.6L113.899 119.8L110 123.6L110.3 124.7L115.899 119.9L110.199 114.5L109.399 115.6Z" fill="#FFEA24"/>
<path d="M112.3 102.6L118.8 101.8L118 95.1002L116.2 95.3002L112.3 102.6Z" fill="white" stroke="#13110C" stroke-miterlimit="10"/>
<path d="M111.4 105.4L114.6 110.7L109.7 113.3L111.4 105.4Z" fill="white" stroke="#13110C" stroke-miterlimit="10"/>
<path d="M109.399 115.6L113.899 119.8L110 123.6L109.399 115.6Z" fill="white" stroke="#13110C" stroke-miterlimit="10"/>
<path d="M119.399 94.3002L121.199 94.1002L121.899 103.5H120.6L119.399 94.3002Z" fill="white"/>
<path d="M116.3 111.1L112.4 104.6V103.7L120.6 103.5V105L114.6 105.4L118.4 111.6L113.2 115.1L117.5 119.6L112.7 124.7L118.4 127.5H115.5L110.3 124.7L115.9 119.9L109.7 114.4" fill="white"/>
<path d="M110.3 124.7L115.5 127.5H111" fill="#FFEA24"/>
<path d="M132.4 106C132.4 106 123.1 115.5 129.3 126L128.9 127.8H130.5L131.4 125.7C131.4 125.7 136 118 134.9 108.5L132.4 106Z" fill="#FFEA24" stroke="#13110C" stroke-miterlimit="10"/>
<path d="M130.099 123.8C126.899 116 132.299 108.9 132.299 108.9C132.299 108.9 133.699 116.2 130.099 123.8Z" fill="#E31013"/>
<path d="M140.7 119.6C140.7 120.8 139.8 121.7 138.6 121.7C137.4 121.7 136.5 120.8 136.5 119.6C136.5 118.4 137.4 117.5 138.6 117.5C139.8 117.5 140.7 118.4 140.7 119.6Z" fill="#FFEA24"/>
<path d="M53.6002 152.9C54.2002 152.7 50.9 150.6 50.9 150.6C49 149 50.6002 148.5 50.6002 148.5C51.5002 148.5 54.7001 150.4 54.7001 150.4C58.5001 152 56.4 154.9 56.4 154.9C56.4 154.9 55.1002 158.1 52.1002 155.9C52.1002 155.9 48.2 153.6 48.4 152.7C48.4 152.7 48.3 151.3 50.4 152.2C50.4 152.2 53.1002 153.8 53.3002 153.5L53.6002 152.9Z" fill="#E31013"/>
<path d="M114.199 168.4C99.6995 154.5 66.0996 160 66.0996 160C71.7996 149.2 71.9995 140.4 71.9995 140.4C100.2 139.1 114.899 145.4 114.899 145.4C114.899 145.4 108.9 152.2 111 161.4C111.5 163.6 112.499 165.9 114.199 168.4Z" fill="#13110C" stroke="#13110C" stroke-miterlimit="10"/>
<path d="M77.6997 140.2L76.8997 154.9H68.1997C68.1997 154.9 71.5997 147.1 71.8997 140.3L77.6997 140.2Z" fill="#E31013" stroke="#13110C" stroke-miterlimit="10"/>
<path d="M130.699 156.2C130.699 156.2 120.3 146.6 119.1 144.3C119.1 144.3 126.6 136.7 131.1 127.8H150.1L149.8 142L130.699 156.2Z" fill="#211C4B" stroke="#13110C" stroke-miterlimit="10"/>
<path d="M122.1 151.3C118.7 158.4 122.1 162.7 122.1 162.7L120.5 163.9C114.8 155.6 120.5 150.1 120.5 150.1" fill="white"/>
<path d="M122.1 151.3C118.7 158.4 122.1 162.7 122.1 162.7L120.5 163.9C114.8 155.6 120.5 150.1 120.5 150.1" stroke="#13110C" stroke-miterlimit="10"/>
<path d="M137.278 168.52L129.766 174.335L135.581 181.848L143.093 176.033L137.278 168.52Z" fill="#211C4B" stroke="#13110C" stroke-miterlimit="10"/>
<path d="M112.6 169.3C112.6 169.3 102.3 160 80.0999 161C80.0999 161 56.2997 161.4 43.1997 169.9C43.1997 169.9 49.6999 173.2 55.5999 187C55.5999 187 85.3997 193.4 88.6997 188.2L90.6997 186.5L112.6 169.3Z" fill="#211C4B" stroke="#13110C" stroke-miterlimit="10"/>
<path d="M37.2998 225.4C37.2998 225.4 41.5998 212.3 30.2998 194.1C30.2998 194.1 33.7999 195.5 39.0999 192.6C40.3999 191.9 41.7998 190.9 43.2998 189.5L68.7998 225.4H67.8997H37.2998Z" fill="#FFEA24" stroke="#13110C" stroke-miterlimit="10"/>
<path d="M39.6997 192.2L62.7998 225.4H68.6997L43.1997 189.5C43.2997 189.5 40.6997 191.7 39.6997 192.2Z" fill="#13110C" stroke="#13110C" stroke-miterlimit="10"/>
<path d="M58.8994 224L51.0996 214.8" stroke="#211C4B" stroke-miterlimit="10"/>
<path d="M41.1995 203.4C42.5995 203.5 47.9995 210.1 47.9995 210.1L37.8994 194.7C37.8994 194.6 41.0995 202.3 41.1995 203.4Z" fill="#211C4B"/>
<path d="M54.9998 222.1L50.2998 216.8" stroke="#211C4B" stroke-miterlimit="10"/>
<path d="M46.8999 211.5L42 205.7" stroke="#211C4B" stroke-miterlimit="10"/>
<path d="M38.9995 202L35.8994 195.5" stroke="#211C4B" stroke-miterlimit="10"/>
<path d="M47.572 211.02L47.4912 214.219L50.6902 214.299L50.771 211.1L47.572 211.02Z" fill="#211C4B"/>
<path d="M37.3994 205.4C37.3994 204.5 38.0995 203.8 38.9995 203.8C39.8995 203.8 40.5996 204.5 40.5996 205.4C40.5996 206.3 39.8995 207 38.9995 207C38.0995 207 37.3994 206.2 37.3994 205.4Z" fill="#211C4B"/>
<path d="M46.8994 220C46.8994 217.8 47.2996 216 47.7996 216C48.2996 216 48.6995 217.8 48.6995 220C48.6995 222.2 48.2996 224 47.7996 224C47.2996 224 46.8994 222.2 46.8994 220Z" fill="#211C4B"/>
<path d="M42.3998 216.9C44.0998 215.5 45.6999 214.6 45.9999 215C46.2999 215.4 45.1999 216.8 43.4999 218.2C41.7999 219.6 40.1998 220.5 39.8998 220.1C39.5998 219.8 40.6998 218.4 42.3998 216.9Z" fill="#211C4B"/>
<path d="M43.3996 210.4C45.1996 211.7 46.2998 213.1 46.0998 213.5C45.7998 213.9 44.1996 213.1 42.3996 211.8C40.5996 210.5 39.4996 209.1 39.6996 208.7C39.9996 208.3 41.5996 209.1 43.3996 210.4Z" fill="#211C4B"/>
<path d="M75.9998 225.4L29.2998 161.3V171.8L68.7998 225.4H75.9998Z" fill="#E31013" stroke="#13110C" stroke-miterlimit="10"/>
<path d="M76 225.4H92.7V215C92.7 215 86.4 217.2 83.8 222.1C83.8 222.1 77.2001 213.8 66.6001 211.7H66L76 225.4Z" fill="#AFA3C7" stroke="#13120D" stroke-width="0.5" stroke-miterlimit="10"/>
<path d="M58.0999 200.9C58.0999 200.9 58.0998 183.7 47.7998 174.7C47.7998 174.7 39.7998 164.4 30.2998 162.7L58.0999 200.9Z" fill="#AFA3C7" stroke="#13120D" stroke-miterlimit="10"/>
<path d="M83.8 222.1C75.7 212.9 66 211.7 66 211.7L58.5 201.4C63.9 188.5 72 182.8 72 182.8C78.5 178 83.8 178.9 83.8 178.9C92.8 185.9 92.7 196.3 92.7 196.3V215C92.6 214.9 85.8 217.9 83.8 222.1Z" fill="#FED68A" stroke="#13110C" stroke-miterlimit="10"/>
<path d="M91.6995 216.8C91.6995 216.8 85.9996 220.2 84.5996 223.3" stroke="#13110C" stroke-width="0.5" stroke-miterlimit="10"/>
<path d="M91.6995 219C91.6995 219 87.8994 220.8 86.3994 223.3" stroke="#13110C" stroke-width="0.5" stroke-miterlimit="10"/>
<path d="M91.7 221.7C91.7 221.7 90.2 222.4 89 223.4" stroke="#13110C" stroke-width="0.5" stroke-miterlimit="10"/>
<path d="M82.8 224C82.8 224 77.2 217 68.5 213.7" stroke="#13110C" stroke-width="0.5" stroke-miterlimit="10"/>
<path d="M80.2996 224C80.2996 224 77.2996 219.8 71.0996 216.8" stroke="#13110C" stroke-width="0.5" stroke-miterlimit="10"/>
<path d="M77.6995 224C77.6995 224 77.1994 222.2 72.8994 219.5" stroke="#13110C" stroke-width="0.5" stroke-miterlimit="10"/>
<path d="M56.3994 196.7V191.8" stroke="#13110C" stroke-width="0.5" stroke-miterlimit="10"/>
<path d="M54.6997 194.6V187.2" stroke="#13110C" stroke-width="0.5" stroke-miterlimit="10"/>
<path d="M53 191.8V183.3" stroke="#13110C" stroke-width="0.5" stroke-miterlimit="10"/>
<path d="M51 189.5V180.1" stroke="#13110C" stroke-width="0.5" stroke-miterlimit="10"/>
<path d="M49.0996 186.8V178" stroke="#13110C" stroke-width="0.5" stroke-miterlimit="10"/>
<path d="M46.8994 183.8V175.5" stroke="#13110C" stroke-width="0.5" stroke-miterlimit="10"/>
<path d="M45 180.8V173.3" stroke="#13110C" stroke-width="0.5" stroke-miterlimit="10"/>
<path d="M42.8994 178L42.9995 171.6" stroke="#13110C" stroke-width="0.5" stroke-miterlimit="10"/>
<path d="M40.5996 175.5V169.3" stroke="#13110C" stroke-width="0.5" stroke-miterlimit="10"/>
<path d="M38.3994 172V167.8" stroke="#13110C" stroke-width="0.5" stroke-miterlimit="10"/>
<path d="M35.8994 169.3V166.2" stroke="#13110C" stroke-width="0.5" stroke-miterlimit="10"/>
<path d="M34.5 167V165.3" stroke="#13110C" stroke-width="0.5" stroke-miterlimit="10"/>
<path d="M91.6995 210.1C91.6995 210.1 88.4996 212.3 85.5996 209.2C85.5996 209.2 82.7996 204.5 85.2996 199.1C85.2996 199.1 88.8995 195.6 85.9995 193.1C85.9995 193.1 83.8995 192.5 82.6995 193.4C82.6995 193.4 79.2995 192.5 80.1995 195.6" stroke="#13110C" stroke-miterlimit="10"/>
<path d="M84.0996 192.4V191.6" stroke="#13110C" stroke-miterlimit="10"/>
<path d="M88.2 187.2H78.5" stroke="#13110C" stroke-miterlimit="10"/>
<path d="M84.8994 186.8H82.5996" stroke="#13110C" stroke-miterlimit="10"/>
<path d="M84.8994 187.8H82.5996" stroke="#13110C" stroke-miterlimit="10"/>
<path d="M81.7998 184.8L83.7998 182.4H82.5999L85.0999 184.8" stroke="#13110C" stroke-miterlimit="10"/>
<path d="M85.8997 205.3C87.9997 207.4 91.6998 206 91.6998 206C91.6998 206 91.1998 202.2 86.9998 203.4C86.9998 203.3 84.3997 203.7 85.8997 205.3Z" stroke="#13110C" stroke-miterlimit="10"/>
<path d="M85.3994 202.9C85.3994 202.9 88.0995 201 88.4995 201.2" stroke="#13110C" stroke-miterlimit="10"/>
<path d="M80.5999 210.1C80.5999 210.1 72.3998 211.4 67.2998 208.1" stroke="#13110C" stroke-miterlimit="10"/>
<path d="M69.2998 204.1C73.8998 207.2 80.2998 205.3 80.2998 205.3C80.2998 205.3 81.4999 201.7 75.0999 202C75.0999 202 70.8998 202.1 69.2998 204.1Z" stroke="#13110C" stroke-miterlimit="10"/>
<path d="M80.0999 202.3C80.0999 202.3 77.0998 200 74.7998 199.4" stroke="#13110C" stroke-miterlimit="10"/>
<path d="M87.7998 204.8C87.7998 204.5 88.1997 204.3 88.6997 204.3C89.1997 204.3 89.5999 204.5 89.5999 204.8C89.5999 205.1 89.1997 205.3 88.6997 205.3C88.1997 205.2 87.7998 205 87.7998 204.8Z" fill="#13110C" stroke="#13110C" stroke-miterlimit="10"/>
<path d="M73.6997 203.9C73.6997 203.6 74.4998 203.3 75.4998 203.3C76.4998 203.3 77.2998 203.6 77.2998 203.9C77.2998 204.3 76.4998 204.5 75.4998 204.5C74.4998 204.5 73.6997 204.3 73.6997 203.9Z" fill="#13110C" stroke="#13110C" stroke-miterlimit="10"/>
<path d="M92.5996 225.4H94.7996L95.9995 223.4C95.9995 223.4 105 215.7 112 195.5C112 195.5 116 184.5 116.5 167L112.699 169.3C112.699 169.3 113.5 179.7 109 194.6C109 194.6 105.5 207.3 94.9995 219L92.6995 221.2V225.4H92.5996Z" fill="#FFEA24" stroke="#13110C" stroke-miterlimit="10"/>
<path d="M104.5 175.5L90.6997 186.5C90.6997 186.5 91.2998 187.6 92.4998 195C92.4998 195 92.5999 206.3 92.5999 207.5C92.5999 207.5 103.5 193 103.8 176.2" fill="#E31013"/>
<path d="M104.5 175.5L90.6997 186.5C90.6997 186.5 91.2998 187.6 92.4998 195C92.4998 195 92.5999 206.3 92.5999 207.5C92.5999 207.5 103.5 193 103.8 176.2" stroke="#13110C" stroke-miterlimit="10"/>
<path d="M150.1 127.9H89.6997" stroke="#13110C" stroke-miterlimit="10"/>
<path d="M58.0996 200.9C59.7996 194 70.6995 183.7 70.6995 183.7C70.6995 183.7 62.1996 183.1 55.5996 186.9C55.5996 187 58.0996 193 58.0996 200.9Z" fill="#AFA3C7" stroke="#13120D" stroke-miterlimit="10"/>
<path d="M67.5996 185.1C67.5996 185.1 61.6996 185.5 57.0996 187.6" stroke="#13110C" stroke-width="0.5" stroke-miterlimit="10"/>
<path d="M65.5 187.2C65.5 187.2 59.5 188.1 57.5 189.2" stroke="#13110C" stroke-width="0.5" stroke-miterlimit="10"/>
<path d="M63.5996 189.5C63.5996 189.5 59.8996 190 58.0996 190.9" stroke="#13110C" stroke-width="0.5" stroke-miterlimit="10"/>
<path d="M61.6995 191.8C61.6995 191.8 58.7994 192.1 58.3994 192.3" stroke="#13110C" stroke-width="0.5" stroke-miterlimit="10"/>
<path d="M60.4995 193.8C60.4995 193.8 58.9994 193.8 58.3994 194.1" stroke="#13110C" stroke-width="0.5" stroke-miterlimit="10"/>
<path d="M100.1 174.2H96.5996V178H100.1V174.2Z" stroke="#FFEA24" stroke-miterlimit="10"/>
<path d="M91.2998 172.2H87.7998V176H91.2998V172.2Z" stroke="#FFEA24" stroke-miterlimit="10"/>
<path d="M82.0996 171.7H78.5996V175.5H82.0996V171.7Z" stroke="#FFEA24" stroke-miterlimit="10"/>
<path d="M73.2998 172.2H69.7998V176H73.2998V172.2Z" stroke="#FFEA24" stroke-miterlimit="10"/>
<path d="M64.3994 174.2H60.8994V178H64.3994V174.2Z" stroke="#FFEA24" stroke-miterlimit="10"/>
<path d="M102.2 165.1H98.6997V168.9H102.2V165.1Z" stroke="#FFEA24" stroke-miterlimit="10"/>
<path d="M96.5 168.4H93V172.2H96.5V168.4Z" stroke="#FFEA24" stroke-miterlimit="10"/>
<path d="M86.8994 167H83.3994V170.8H86.8994V167Z" stroke="#FFEA24" stroke-miterlimit="10"/>
<path d="M77.6997 167.4H74.1997V171.2H77.6997V167.4Z" stroke="#FFEA24" stroke-miterlimit="10"/>
<path d="M68.1997 168.4H64.6997V172.2H68.1997V168.4Z" stroke="#FFEA24" stroke-miterlimit="10"/>
<path d="M58.7998 170.5H55.2998V174.3H58.7998V170.5Z" stroke="#FFEA24" stroke-miterlimit="10"/>
<path d="M82.5 162H79V165.2H82.5V162Z" stroke="#FFEA24" stroke-miterlimit="10"/>
<path d="M92.3994 162.8H88.8994V166.2H92.3994V162.8Z" stroke="#FFEA24" stroke-miterlimit="10"/>
<path d="M72.3994 163.2H68.8994V166.6H72.3994V163.2Z" stroke="#FFEA24" stroke-miterlimit="10"/>
<path d="M62.5996 164.9H59.0996V168.1H62.5996V164.9Z" stroke="#FFEA24" stroke-miterlimit="10"/>
<path d="M52.7998 167.8H49.2998V171.2H52.7998V167.8Z" stroke="#FFEA24" stroke-miterlimit="10"/>
<path d="M106.1 170.6H103.1V173.6H106.1V170.6Z" stroke="#FFEA24" stroke-miterlimit="10"/>
<path d="M95.5 177.6L89 177.5L91.6001 182.5L95.5 177.6Z" fill="#FFEA24"/>
<path d="M70.1001 177.9L65 178.6L67.6001 182.2L70.1001 177.9Z" fill="#FFEA24"/>
<path d="M63.3 179.1L58.5 180.8L61.7 183.8L63.3 179.1Z" fill="#FFEA24"/>
<path d="M75.5 176.9L70.5 177.8L73.3 181.3L75.5 176.9Z" fill="#FFEA24"/>
<path d="M88.1995 177.5L83.3994 176.9L85.8994 180.1L88.1995 177.5Z" fill="#FFE922"/>
<path d="M81.7996 177L76.8994 176.9L78.4995 179.1L81.7996 178.1V177Z" fill="#FFE922"/>
<path d="M56.9998 181.3L54.2998 182.5L56.3997 184.8L56.9998 181.3Z" fill="#FFE922"/>
<path d="M55.4451 176.047L52.8237 177.031L54.0188 180.214L56.6402 179.23L55.4451 176.047Z" stroke="#FFEA24" stroke-miterlimit="10"/>
<path d="M114.2 168.4C114.2 168.4 106.6 159.7 86.5 159.4C86.5 159.4 70.8 158.3 61.7 161C61.7 161 47 164.6 42 168.9L43.2 169.9C43.2 169.9 52.8 164.5 62.3 163.1C62.3 163.1 77.2999 160.2 85.3999 161C85.3999 161 94.2999 160.9 105.7 165.3C105.7 165.3 111.7 168.1 112.6 169.4L114.2 168.4Z" fill="#FFEA24" stroke="#13110C" stroke-miterlimit="10"/>
<path d="M112.6 169.3C112.6 169.3 114.9 199.3 92.5996 221.1V207.4C104.9 190.9 104.5 175.5 104.5 175.5L112.6 169.3Z" fill="#13110C" stroke="#13110C" stroke-miterlimit="10"/>
<path d="M136.399 178C136.399 176.7 137.5 175.6 138.8 175.6C140.1 175.6 141.199 176.7 141.199 178C141.199 179.3 140.1 180.4 138.8 180.4C137.5 180.4 136.399 179.3 136.399 178Z" fill="#FFEA24" stroke="#13110C" stroke-miterlimit="10"/>
<path d="M130.8 177.5C130.8 176.2 131.9 175.1 133.2 175.1C134.5 175.1 135.6 176.2 135.6 177.5C135.6 178.8 134.5 179.9 133.2 179.9C131.9 179.9 130.8 178.8 130.8 177.5Z" fill="#FFEA24" stroke="#13110C" stroke-miterlimit="10"/>
<path d="M131.5 171.7C131.5 170.4 132.6 169.3 133.9 169.3C135.2 169.3 136.3 170.4 136.3 171.7C136.3 173 135.2 174.1 133.9 174.1C132.6 174.1 131.5 173.1 131.5 171.7Z" fill="#FFEA24" stroke="#13110C" stroke-miterlimit="10"/>
<path d="M137 172.2C137 170.9 138.1 169.8 139.4 169.8C140.7 169.8 141.8 170.9 141.8 172.2C141.8 173.5 140.7 174.6 139.4 174.6C138.1 174.6 137 173.6 137 172.2Z" fill="#FFEA24" stroke="#13110C" stroke-miterlimit="10"/>
<path d="M134.899 174.5C134.899 173.7 135.599 173 136.399 173C137.199 173 137.899 173.7 137.899 174.5C137.899 174.7 137.9 174.9 137.8 175C137.6 175.6 136.999 176 136.399 176C135.599 176 134.899 175.4 134.899 174.5Z" fill="white" stroke="#13110C" stroke-miterlimit="10"/>
<path d="M142.399 166.8C142.299 166.8 132.099 164.5 130.399 156.9L130.5 156.2L139.399 149.6C139.399 149.6 145.9 152.3 147 154.9C147 154.9 147.799 157.4 146.699 157.6C146.699 157.6 148 159.4 146.8 160.3C146.8 160.3 147.7 162.4 146.3 163.2C146.3 163.2 147.6 166.2 144.6 166.4C144.7 166.4 143.999 166.7 142.399 166.8Z" fill="#FED68A" stroke="#13110C" stroke-miterlimit="10"/>
<path d="M146.4 163.3L140.9 162.3C140.9 162.3 137 160.2 139.5 159.3C139.5 159.3 137.1 157.6 139.5 157C139.5 157 138.5 155 140.9 154.4C140.9 154.4 145.7 154 146.9 154.6" stroke="#13110C" stroke-miterlimit="10"/>
<path d="M139.5 159.3L146.9 160.3" stroke="#13110C" stroke-miterlimit="10"/>
<path d="M139.5 157L146.8 157.6" stroke="#13110C" stroke-miterlimit="10"/>
<path d="M141.399 166.6C142.899 167 144.6 166.9 144.6 166.9C149.4 169.5 148.8 174.7 148.8 174.7C148.8 174.7 142.799 174.2 141.399 167.7C141.399 167.6 140.999 166.4 141.399 166.6Z" fill="#BBB32E" stroke="#13110C" stroke-miterlimit="10"/>
<path d="M134.999 163.5L133.399 162.1C133.399 162.1 125.899 161.2 123.999 164.5C123.999 164.5 122.8 168.8 131.8 166.6C131.8 166.6 133.899 165.8 134.999 163.5Z" fill="#BBB32E" stroke="#13110C" stroke-miterlimit="10"/>
<path d="M139.5 169.8L140.3 166.2L138.1 165.3L137.2 168.4L138.5 170L139.5 169.8Z" fill="#BBB32E" stroke="#13110C" stroke-miterlimit="10"/>
<path d="M147.4 173.1C147.4 173.1 144.8 169.5 143 168.4" stroke="#13110C" stroke-miterlimit="10"/>
<path d="M133.199 163.5C133.199 163.5 126.699 164.5 125.899 165.3" stroke="#13110C" stroke-miterlimit="10"/>
<path d="M143.899 154.2V152V146.7V146L141.899 147.8V154.2H143.899Z" fill="#BBB32E" stroke="#13110C" stroke-miterlimit="10"/>
<path d="M116.1 167.2C107.3 154.6 117.5 146 117.5 146L115.9 144.2C104.3 154.9 114.1 168.3 114.1 168.3L116.4 166.9L150 141.4" fill="#FFEA24"/>
<path d="M116.1 167.2C107.3 154.6 117.5 146 117.5 146L115.9 144.2C104.3 154.9 114.1 168.3 114.1 168.3L116.4 166.9L150 141.4" stroke="#13110C" stroke-miterlimit="10"/>
<path d="M130.7 156.2C130.7 156.2 111.5 139.9 110.3 127.9H108C111.5 145.4 128.8 157.7 128.8 157.7L130.7 156.2Z" fill="#FFEA24" stroke="#13110C" stroke-miterlimit="10"/>
<path d="M128.8 127.9C126.2 134 117.7 142.8 117.7 142.8L119 144.4C119 144.4 126.3 137.8 131 127.9H128.8Z" fill="#FFEA24" stroke="#13110C" stroke-miterlimit="10"/>
<path d="M116.499 167L117.799 166C117.799 166 110.099 158 118.299 147.6L117.1 146.5C117 146.5 107.399 154.8 116.499 167Z" fill="white" stroke="#13110C" stroke-miterlimit="10"/>
<path d="M118 165.8L120.2 164.1C120.2 164.1 114.9 156 120.5 150.1L118.3 147.6C118.2 147.6 110 157 118 165.8Z" fill="#13110C" stroke="#13110C" stroke-miterlimit="10"/>
<path d="M122.3 162.5C122.3 162.5 118 157.6 122 151.7C122 151.7 127.5 156.9 128.8 157.6L122.3 162.5Z" fill="#211C4B" stroke="#13110C" stroke-miterlimit="10"/>
<path d="M133.2 141.9C133.2 141.9 134.6 147.8 131.8 147.6L131 147.2L130.4 146.5V144.6C130.4 144.6 126 145.8 127.7 142.7C127.8 142.8 129 141.1 133.2 141.9Z" fill="#FFEA24"/>
<path d="M133.6 140C133.6 140 127.9 141.9 127.8 139.1L128.1 138.3L128.8 137.6L130.7 137.4C130.7 137.4 129.1 133.1 132.4 134.5C132.3 134.6 134 135.7 133.6 140Z" fill="#FFEA24"/>
<path d="M135.1 140.6C135.1 140.6 134.4 134.6 137.2 135.1L137.9 135.6L138.4 136.4L138.2 138.3C138.2 138.3 142.7 137.6 140.7 140.5C140.6 140.5 139.2 141.9 135.1 140.6Z" fill="#FFEA24"/>
<path d="M135.1 142.3C135.1 142.3 141.1 141.7 140.6 144.5L140.1 145.2L139.3 145.7L137.5 145.4C137.5 145.4 138.1 149.9 135.2 147.8C135.2 147.8 133.7 146.4 135.1 142.3Z" fill="#FFEA24"/>
<path d="M139.899 132C139.899 131 140.7 130.3 141.6 130.3C142.5 130.3 143.3 131.1 143.3 132C143.3 133 142.5 133.7 141.6 133.7C140.7 133.7 139.899 133 139.899 132Z" fill="#FFEA24"/>
<path d="M127.7 150.5C128.639 150.5 129.4 149.739 129.4 148.8C129.4 147.861 128.639 147.1 127.7 147.1C126.761 147.1 126 147.861 126 148.8C126 149.739 126.761 150.5 127.7 150.5Z" fill="#FFEA24"/>
<path d="M148.8 130.3C148.8 130.3 147.7 134.7 141.1 140.7" stroke="#FFEA24" stroke-miterlimit="10"/>
<path d="M134.5 148C134.5 148 133.3 152.3 130.7 155" stroke="#FFEA24" stroke-miterlimit="10"/>
<path d="M128 141.2C128 141.2 123.599 142.7 121.399 144.7" stroke="#FFEA24" stroke-miterlimit="10"/>
<path d="M133.2 133.7C133.2 133.7 135.9 127.2 142.6 123.4" stroke="#FFEA24" stroke-miterlimit="10"/>
<path d="M128.8 127.9C128.8 127.9 126.7 133.3 117.7 142.8C117.7 142.8 111 135 110.2 127.9H128.8Z" fill="#211C4B" stroke="#13110C" stroke-miterlimit="10"/>
<path d="M122 137.1L114.6 136.1L118.3 128.7" stroke="white" stroke-miterlimit="10"/>
<path d="M112.5 132.9L113.7 130.8L111.2 129.8" stroke="white" stroke-miterlimit="10"/>
<path d="M120.6 138.6L114.899 137.5" stroke="#FFEA24" stroke-miterlimit="10"/>
<path d="M113.399 135.1L116.199 129.4L113.399 128.6" stroke="#FFEA24" stroke-miterlimit="10"/>
<path d="M114.8 145.4L115.699 144.5L114 142.1C114 142.1 100.599 136.7 72.3994 138.4C72.3994 138.4 72.0994 139.5 71.8994 140.4C71.9994 140.4 99.7996 138.9 114.8 145.4Z" fill="#FFEA24" stroke="#13110C" stroke-miterlimit="10"/>
<path d="M66.0996 160L63.3994 160.5C63.3994 160.5 73.2995 144.7 68.9995 127.9H71.1995C71.0995 127.9 74.9996 143.8 66.0996 160Z" fill="#FFEA24" stroke="#13110C" stroke-miterlimit="10"/>
<path d="M110.699 160.5L103.1 158.3L103.899 142.3C103.899 142.3 112.499 144.2 114.699 145.4C114.799 145.4 108.799 151.7 110.699 160.5Z" fill="#E31013" stroke="#13110C" stroke-miterlimit="10"/>
<path d="M104.5 155C104.5 155 104.2 157.9 106.1 157.7C106.1 157.7 110.4 157.4 107.9 153.5C107.9 153.5 105.4 149.6 106.1 147.1C106.1 147.1 108.4 144 110.2 147.7" stroke="white" stroke-miterlimit="10"/>
<path d="M75.5995 151.7C75.5995 151.7 75.2993 154.4 73.8993 153.8C73.8993 153.8 70.6995 152.5 73.2995 149.4C73.2995 149.4 75.9994 146.4 75.9994 143.9C75.9994 143.9 74.8995 140.4 72.7995 143.4" stroke="white" stroke-miterlimit="10"/>
<path d="M98.6995 160.5L96.5996 160.3L97.5996 141.3L99.9995 141.7L98.6995 160.5Z" fill="#FFEA24" stroke="#13110C" stroke-miterlimit="10"/>
<path d="M92.6001 159.3L93.3999 140.8L91.1001 140.7L90 159.1L92.6001 159.3Z" fill="#FFEA24" stroke="#13110C" stroke-miterlimit="10"/>
<path d="M89.9995 159.1H86.8994L88.1995 140.4L91.0996 140.7L89.9995 159.1Z" fill="#FFEA24" stroke="#13110C" stroke-miterlimit="10"/>
<path d="M83.2998 158.9L84.0999 140.2H81.7998L80.7998 158.9H83.2998Z" fill="#FFEA24" stroke="#13110C" stroke-miterlimit="10"/>
<path d="M96.5996 160.3L92.5996 159.3L93.3994 140.8L97.5996 141.3L96.5996 160.3Z" fill="#E31013" stroke="#13110C" stroke-miterlimit="10"/>
<path d="M86.8997 159.1L88.1997 140.4L84.0999 140.2L83.2998 158.9L86.8997 159.1Z" fill="#E31013" stroke="#13110C" stroke-miterlimit="10"/>
<path d="M94.7998 157.6V154.2" stroke="white" stroke-miterlimit="10"/>
<path d="M95.0996 150.9V150" stroke="white" stroke-miterlimit="10"/>
<path d="M95.5 147.6V144.2" stroke="white" stroke-miterlimit="10"/>
<path d="M85.5 155.5V152.1" stroke="white" stroke-miterlimit="10"/>
<path d="M85.7998 148.8V147.9" stroke="white" stroke-miterlimit="10"/>
<path d="M86.0996 145.5V142.1" stroke="white" stroke-miterlimit="10"/>
<path d="M71.9998 138.6C72.6998 138.1 71.1997 127.8 71.1997 127.8H108.1C109.1 134.2 113.9 141.6 113.9 141.6C113.9 141.6 98.1998 137 71.9998 138.6Z" fill="#13110C" stroke="#13110C" stroke-miterlimit="10"/>
<path d="M109 134.8C109 134.8 92.8 130.4 73 131.8" stroke="white" stroke-miterlimit="10"/>
<path d="M109.3 139.5L109.4 136.8" stroke="white" stroke-miterlimit="10"/>
<path d="M106.2 138.6V136.1" stroke="white" stroke-miterlimit="10"/>
<path d="M103.1 138V135.3" stroke="white" stroke-miterlimit="10"/>
<path d="M100 137.5V134.8" stroke="white" stroke-miterlimit="10"/>
<path d="M97.0996 137.1V134.5" stroke="white" stroke-miterlimit="10"/>
<path d="M93.7998 136.8V134.1" stroke="white" stroke-miterlimit="10"/>
<path d="M90 136.7V133.8" stroke="white" stroke-miterlimit="10"/>
<path d="M86.8994 136.1V133.8" stroke="white" stroke-miterlimit="10"/>
<path d="M83.2998 136.1V133.8" stroke="white" stroke-miterlimit="10"/>
<path d="M80.0996 136.1V133.8" stroke="white" stroke-miterlimit="10"/>
<path d="M77.0996 136.7V133.8" stroke="white" stroke-miterlimit="10"/>
<path d="M73.7998 136.8L73.6997 133.8" stroke="white" stroke-miterlimit="10"/>
<path d="M106.2 127.9V131.6C106.2 131.6 86.7 128.9 73.5 129.8V128H106.2V127.9Z" fill="#E31013"/>
<path d="M43.9998 167.4L29.2998 150V153.8L41.9998 168.4L43.9998 167.4Z" fill="#FFEA24" stroke="#13110C" stroke-miterlimit="10"/>
<path d="M29.2998 149.6V139.3L49.8997 164.6L43.9998 167.4L29.2998 149.6Z" fill="#211C4B" stroke="#13110C" stroke-miterlimit="10"/>
<path d="M45.3 162L42 161.3" stroke="white" stroke-miterlimit="10"/>
<path d="M43.5996 163.2L43.9995 159.9" stroke="white" stroke-miterlimit="10"/>
<path d="M42.1995 158.1L38.8994 157.4" stroke="white" stroke-miterlimit="10"/>
<path d="M40.5996 159.3L40.8994 156" stroke="white" stroke-miterlimit="10"/>
<path d="M38.8994 154.3L35.5996 153.6" stroke="white" stroke-miterlimit="10"/>
<path d="M37.1997 155.5L37.5999 152.2" stroke="white" stroke-miterlimit="10"/>
<path d="M36.1995 150.4L32.8994 149.7" stroke="white" stroke-miterlimit="10"/>
<path d="M34.5 151.6L34.8999 148.3" stroke="white" stroke-miterlimit="10"/>
<path d="M32.8994 147.1L29.5996 146.4" stroke="white" stroke-miterlimit="10"/>
<path d="M31.1997 148.3L31.5999 145" stroke="white" stroke-miterlimit="10"/>
<path d="M47.3997 164.9L45.2998 164.5" stroke="white" stroke-miterlimit="10"/>
<path d="M46.8997 163.6L46.2998 165.3" stroke="white" stroke-miterlimit="10"/>
<path d="M49.8997 164.6L52.5999 163.7L29.2998 136.1V139.3L49.8997 164.6Z" fill="white" stroke="#13110C" stroke-miterlimit="10"/>
<path d="M52.5999 163.7L56.9998 162.2L29.2998 128.8V136.1L52.5999 163.7Z" fill="#13110C" stroke="#13110C" stroke-miterlimit="10"/>
<path d="M29.2998 127.9L57.0999 162.3L63.3997 160.6C63.3997 160.6 73.4998 145.2 68.9998 128H29.2998H68.9998" fill="#211C4B"/>
<path d="M29.2998 127.9L57.0999 162.3L63.3997 160.6C63.3997 160.6 73.4998 145.2 68.9998 128H29.2998H68.9998" stroke="#13110C" stroke-miterlimit="10"/>
<path d="M58.1998 139.6C58.5998 139.2 54.7999 138.6 54.7999 138.6C52.3999 137.9 53.5999 136.8 53.5999 136.8C54.3999 136.4 58.0999 136.8 58.0999 136.8C62.1999 136.7 61.4998 140.2 61.4998 140.2C61.4998 140.2 61.5997 143.7 57.8997 142.9C57.8997 142.9 53.3998 142.4 53.1998 141.6C53.1998 141.6 52.4999 140.4 54.7999 140.3C54.7999 140.3 57.8998 140.7 57.9998 140.3L58.1998 139.6Z" fill="#E31013"/>
<path d="M56.5996 146.3C57.0996 146 53.3994 144.7 53.3994 144.7C51.0994 143.6 52.5996 142.7 52.5996 142.7C53.3996 142.5 56.9995 143.5 56.9995 143.5C61.0995 144.1 59.7996 147.4 59.7996 147.4C59.7996 147.4 59.2996 150.9 55.7996 149.4C55.7996 149.4 51.3994 148.2 51.3994 147.3C51.3994 147.3 50.8995 146 53.1995 146.3C53.1995 146.3 56.1994 147.2 56.3994 146.8L56.5996 146.3Z" fill="#E31013"/>
<path d="M58.2998 132.6C58.5998 132.1 54.7998 132.6 54.7998 132.6C52.2998 132.6 53.1997 131.2 53.1997 131.2C53.8997 130.6 57.4997 130 57.4997 130C61.3997 128.8 61.6997 132.3 61.6997 132.3C61.6997 132.3 62.7997 135.6 58.9997 135.9C58.9997 135.9 54.4998 136.7 54.0998 135.9C54.0998 135.9 53.0998 134.9 55.2998 134.2C55.2998 134.2 58.3996 133.7 58.3996 133.3L58.2998 132.6Z" fill="#E31013"/>
<path d="M61.3997 161L60.3997 153.8L66.7998 153.3L67.2998 152.1L58.6997 152.3L59.9998 161.4L61.3997 161Z" fill="#FFEA24"/>
<path d="M67.8994 150.3L64.7996 145L69.5996 142.5V141.3L62.8994 144.4L66.8994 151.2L67.8994 150.3Z" fill="#FFEA24"/>
<path d="M69.8994 140.2L65.3994 135.9L69.2996 132.2L69.0996 131.1L63.3994 135.8L69.1995 141.2L69.8994 140.2Z" fill="#FFEA24"/>
<path d="M67 153.2L60.5 154L61.3 160.6L63.1001 160.4L67 153.2Z" fill="white" stroke="#13110C" stroke-miterlimit="10"/>
<path d="M67.8997 150.3L64.7998 145L69.5999 142.5L67.8997 150.3Z" fill="white" stroke="#13110C" stroke-miterlimit="10"/>
<path d="M69.8994 140.2L65.3994 135.9L69.2996 132.2L69.8994 140.2Z" fill="white" stroke="#13110C" stroke-miterlimit="10"/>
<path d="M59.9995 161.4L58.0996 161.7L57.3994 152.3H58.6995L59.9995 161.4Z" fill="white"/>
<path d="M62.9998 144.6L66.8997 151.2V152.1L58.6997 152.3V150.8L64.7998 150.3L60.8997 144.2L66.0999 140.7L61.7998 136.2L66.5999 131.1L60.8997 128.2H63.7998L69.0999 131.1L63.3997 135.8L69.5999 141.3" fill="white"/>
<path d="M69.0999 131.1L63.7998 128.2H68.2998" fill="#FFEA24"/>
<path d="M46.8994 149.7C46.8994 149.7 56.1995 140.2 49.9995 129.7L50.3994 127.9H48.7996L47.8994 130C47.8994 130 43.2994 137.7 44.3994 147.2L46.8994 149.7Z" fill="#FFEA24" stroke="#13110C" stroke-miterlimit="10"/>
<path d="M49.1994 131.9C52.3994 139.7 46.9994 146.8 46.9994 146.8C46.9994 146.8 45.5994 139.5 49.1994 131.9Z" fill="#E31013"/>
<path d="M38.6997 136.2C38.6997 135 39.5998 134.1 40.7998 134.1C41.9998 134.1 42.8997 135 42.8997 136.2C42.8997 137.4 41.9998 138.3 40.7998 138.3C39.5998 138.3 38.6997 137.3 38.6997 136.2Z" fill="#FFEA24"/>
<path d="M46.0999 122C46.0999 122 43.3997 128.5 36.6997 132.3" stroke="#FFEA24" stroke-miterlimit="10"/>
<path d="M10.5 38.3002L17.5 47.2002L24.6001 38.3002L17.5 29.6002L10.5 38.3002Z" fill="#E30B13"/>
<path d="M156.6 215.6L163.6 224.5L170.699 215.6L163.699 206.9L156.6 215.6Z" fill="#E30B13"/>
<path d="M39.5 54.3002L48.5 65.7002L57.6001 54.3002L48.6001 43.0002L39.5 54.3002Z" fill="#E30B13"/>
<path d="M119 199.2L128 210.6L137.2 199.2L128.1 188L119 199.2Z" fill="#E30B13"/>
<path d="M55.2997 124.9C55.3997 124.3 52.0998 126.4 52.0998 126.4C49.7998 127.5 50.0998 125.8 50.0998 125.8C50.4998 125 53.4997 122.9 53.4997 122.9C56.5997 120.1 58.2997 123.3 58.2997 123.3C58.2997 123.3 60.6996 125.9 57.3996 127.6C57.3996 127.6 53.6997 130.2 52.9997 129.6C52.9997 129.6 51.6996 129.1 53.3996 127.6C53.3996 127.6 55.9997 125.9 55.7997 125.5L55.2997 124.9Z" fill="#E31013"/>
</svg>
