<svg width="181" height="254" viewBox="0 0 181 254" fill="none" xmlns="http://www.w3.org/2000/svg">
<path d="M179.6 232C179.6 243.8 172.8 253.4 164.4 253.4H16.2C7.8 253.4 1 243.8 1 232V22.8C1 11 7.8 1.40002 16.2 1.40002H164.5C172.9 1.40002 179.7 11 179.7 22.8V232H179.6Z" fill="white" stroke="#1D1D1B" stroke-miterlimit="10"/>
<path d="M89.8999 208.4L92.8999 204.8C95.3999 201.7 99.9999 201.3 103.1 203.8L103.6 204.2C106.7 206.7 107.1 211.3 104.6 214.4L99.6999 220.4L90.6999 231.3C90.3999 231.6 90.0999 231.9 89.7999 232.2C89.4999 231.9 89.1999 231.7 88.9999 231.4L75.1999 214.4C72.6999 211.3 73.1999 206.7 76.2999 204.2L76.7999 203.8C79.8999 201.3 84.4999 201.8 86.9999 204.9L89.8999 208.4L88.2999 210.3C88.2999 210.3 91.4999 202.7 96.1999 198.2H84.1999C84.1999 198.2 89.9999 204.1 89.8999 208.4Z" fill="#13110C"/>
<path d="M89.8999 208.4L92.8999 204.8C95.3999 201.7 99.9999 201.3 103.1 203.8L103.6 204.2C106.7 206.7 107.1 211.3 104.6 214.4L99.6999 220.4L90.6999 231.3C90.3999 231.6 90.0999 231.9 89.7999 232.2C89.4999 231.9 89.1999 231.7 88.9999 231.4L75.1999 214.4C72.6999 211.3 73.1999 206.7 76.2999 204.2L76.7999 203.8C79.8999 201.3 84.4999 201.8 86.9999 204.9L89.8999 208.4ZM89.8999 208.4L88.2999 210.3C88.2999 210.3 91.4999 202.7 96.1999 198.2H84.1999C84.1999 198.2 89.9999 204.1 89.8999 208.4Z" stroke="#13110C" stroke-miterlimit="10"/>
<path d="M20.7 20.2H22.9V24.7H11.7V23.5C11.7 21.4 12.5 19.5 14 17.8C14.6 17.2 16.1 16 18.3 14.3C19.9 13.2 20.6 12.2 20.6 11.4C20.6 10.6 20.2 10.1 19.3 9.60001C18.6 9.30001 17.9 9.10001 17 9.10001C14.9 9.10001 13.8 9.80001 13.8 11.2C13.8 11.5 13.9 11.8 14 12.2L11.9 13.1C11.6 12.4 11.5 11.8 11.5 11.2C11.5 9.70001 12 8.60002 13.1 7.80002C14.1 7.10002 15.3 6.80002 16.9 6.80002C18.4 6.80002 19.7 7.20002 20.8 7.90002C22.1 8.80002 22.7 9.90002 22.7 11.3C22.7 12.6 22 13.9 20.7 15.1C19.4 16.1 18.1 17.1 16.7 18.1C15.2 19.4 14.2 20.8 13.9 22.2H20.5V20.2H20.7Z" fill="#13110C"/>
<path d="M157.9 234.1H155.7V229.6H167V230.8C167 232.9 166.2 234.8 164.7 236.5C164.1 237.1 162.6 238.3 160.4 240C158.8 241.1 158.1 242.1 158.1 242.9C158.1 243.7 158.5 244.2 159.4 244.7C160.1 245 160.8 245.2 161.7 245.2C163.8 245.2 164.9 244.5 164.9 243.1C164.9 242.8 164.8 242.5 164.7 242.1L166.8 241.2C167.1 241.9 167.2 242.5 167.2 243.1C167.2 244.6 166.7 245.7 165.6 246.5C164.6 247.2 163.4 247.5 161.8 247.5C160.3 247.5 159 247.1 157.9 246.4C156.6 245.5 156 244.4 156 243C156 241.7 156.7 240.4 158 239.2C159.3 238.2 160.6 237.2 162 236.2C163.5 234.9 164.5 233.5 164.8 232.1H158.2V234.1H157.9Z" fill="#13110C"/>
<path d="M16.6999 40.8L15.1999 42.6C13.8999 44.1 11.6999 44.4 10.1999 43.1L9.8999 42.9C8.3999 41.6 8.0999 39.4 9.3999 37.9L11.7999 34.9L16.1999 29.5C16.2999 29.3 16.4999 29.2 16.5999 29.1C16.6999 29.2 16.8999 29.4 16.9999 29.5L23.7999 37.9C24.9999 39.4 24.7999 41.7 23.2999 42.9L22.9999 43.1C21.4999 44.3 19.1999 44.1 17.9999 42.6L16.6999 40.8L17.4999 39.9C17.4999 39.9 15.8999 43.7 13.5999 45.9H19.4999C19.4999 45.8 16.5999 42.9 16.6999 40.8Z" fill="#13110C"/>
<path d="M16.6999 40.8L15.1999 42.6C13.8999 44.1 11.6999 44.4 10.1999 43.1L9.8999 42.9C8.3999 41.6 8.0999 39.4 9.3999 37.9L11.7999 34.9L16.1999 29.5C16.2999 29.3 16.4999 29.2 16.5999 29.1C16.6999 29.2 16.8999 29.4 16.9999 29.5L23.7999 37.9C24.9999 39.4 24.7999 41.7 23.2999 42.9L22.9999 43.1C21.4999 44.3 19.1999 44.1 17.9999 42.6L16.6999 40.8ZM16.6999 40.8L17.4999 39.9C17.4999 39.9 15.8999 43.7 13.5999 45.9H19.4999C19.4999 45.8 16.5999 42.9 16.6999 40.8Z" stroke="#13110C" stroke-miterlimit="10"/>
<path d="M162 213.5L163.5 211.7C164.8 210.2 167 209.9 168.5 211.2L168.8 211.4C170.3 212.7 170.6 214.9 169.3 216.4L166.9 219.4L162.5 224.8C162.4 225 162.2 225.1 162.1 225.2C162 225.1 161.8 224.9 161.7 224.8L154.9 216.4C153.7 214.9 153.9 212.6 155.4 211.4L155.7 211.2C157.2 210 159.5 210.2 160.7 211.7L162 213.5L161.2 214.4C161.2 214.4 162.8 210.6 165.1 208.4H159.2C159.2 208.5 162.1 211.5 162 213.5Z" fill="#13110C"/>
<path d="M162 213.5L163.5 211.7C164.8 210.2 167 209.9 168.5 211.2L168.8 211.4C170.3 212.7 170.6 214.9 169.3 216.4L166.9 219.4L162.5 224.8C162.4 225 162.2 225.1 162.1 225.2C162 225.1 161.8 224.9 161.7 224.8L154.9 216.4C153.7 214.9 153.9 212.6 155.4 211.4L155.7 211.2C157.2 210 159.5 210.2 160.7 211.7L162 213.5ZM162 213.5L161.2 214.4C161.2 214.4 162.8 210.6 165.1 208.4H159.2C159.2 208.5 162.1 211.5 162 213.5Z" stroke="#13110C" stroke-miterlimit="10"/>
<path d="M89.5 47L86.5 50.6C84 53.7 79.4 54.1 76.3 51.6L75.8 51.2C72.7 48.7 72.3 44.1 74.8 41L79.7 35L88.7 24C89 23.7 89.3 23.4 89.6 23.1C89.9 23.4 90.2 23.6 90.4 23.9L104.2 40.9C106.7 44 106.2 48.6 103.1 51.1L102.6 51.5C99.5 54 94.9 53.5 92.4 50.4L89.5 47L91.1 45.1C91.1 45.1 87.9 52.7 83.2 57.2H95.2C95.2 57.2 89.3 51.2 89.5 47Z" fill="#13110C"/>
<path d="M89.5 47L86.5 50.6C84 53.7 79.4 54.1 76.3 51.6L75.8 51.2C72.7 48.7 72.3 44.1 74.8 41L79.7 35L88.7 24C89 23.7 89.3 23.4 89.6 23.1C89.9 23.4 90.2 23.6 90.4 23.9L104.2 40.9C106.7 44 106.2 48.6 103.1 51.1L102.6 51.5C99.5 54 94.9 53.5 92.4 50.4L89.5 47ZM89.5 47L91.1 45.1C91.1 45.1 87.9 52.7 83.2 57.2H95.2C95.2 57.2 89.3 51.2 89.5 47Z" stroke="#13110C" stroke-miterlimit="10"/>
</svg>
