<svg width="181" height="254" viewBox="0 0 181 254" fill="none" xmlns="http://www.w3.org/2000/svg">
<path d="M179.7 231.2C179.7 243 172.9 252.6 164.5 252.6H16.2C7.79995 252.6 1 243 1 231.2V22.1001C1 10.3001 7.79995 0.700073 16.2 0.700073H164.5C172.9 0.700073 179.7 10.3001 179.7 22.1001V231.2Z" fill="white" stroke="#1D1D1B" stroke-miterlimit="10"/>
<path d="M148 31.4001H31V221.7H148V31.4001Z" fill="white" stroke="#13110C" stroke-miterlimit="10"/>
<path d="M148 126.6H31V94.5001L47.1001 84.2001L69.8999 69.1001L107.7 67.4001L135.4 91.3001L148.2 92.6001L148 126.6Z" fill="#211C4B" stroke="#13110C" stroke-width="0.5" stroke-miterlimit="10"/>
<path d="M104.3 126.6C93.6 122.3 73.3999 120.2 73.3999 120.2C73.3999 120.2 74.6001 124.2 74.1001 126.6H104.3Z" fill="#E31013" stroke="#13110C" stroke-miterlimit="10"/>
<path d="M91.6001 125.6C91.6001 126.1 91.2 126.4 90.8 126.4C90.3 126.4 90 126 90 125.6C90 125.2 90.4 124.8 90.8 124.8C91.3 124.7 91.6001 125.1 91.6001 125.6Z" fill="white" stroke="#13110C" stroke-width="0.5" stroke-miterlimit="10"/>
<path d="M80 94.6001L83.6001 94.9001C83.6001 94.9001 87 105.7 87 115.9H83.8999L80 94.6001Z" fill="#FFEA24" stroke="#13110C" stroke-miterlimit="10"/>
<path d="M61.6003 90.5001C52.5003 101 47.2002 126.6 47.2002 126.6H49.3003C49.3003 126.6 54.4003 101.6 62.1003 94.3001L62.7002 90.5001H61.6003Z" fill="#FFEA24" stroke="#13110C" stroke-miterlimit="10"/>
<path d="M43.1001 126.6L47.8999 122V123.6L45.8 126.6H43.1001Z" fill="#FFEA24"/>
<path d="M31 106.6C33.7 101.1 41.2 96.8001 41.2 96.8001C42 96.7001 43.1001 98.6001 43.1001 98.6001C39.1001 99.6001 31 111.1 31 111.1V106.6Z" fill="#FFEA24"/>
<path d="M38.2 126.6L31 120.4L34.7 120.1L35.1001 117.4L41.2 122.4L38.1001 123.4L38.2 126.6Z" fill="#FFEA24"/>
<path d="M111.5 80.8001C110.7 82.2001 108.4 76.0001 108.4 76.0001C108.1 74.8001 107.2 75.2001 107.2 75.2001C107.2 75.2001 109.3 84.7001 112.6 84.1001C112.6 84.1001 115.5 82.8001 110.9 73.6001C110.9 73.6001 110.2 73.6001 110.7 75.3001C110.6 75.4001 112.3 80.2001 111.5 80.8001Z" fill="#FFEA24" stroke="#13110C" stroke-width="0.5" stroke-miterlimit="10"/>
<path d="M115.6 79.0001C114.8 80.4001 112.5 74.2001 112.5 74.2001C112.2 73.0001 111.3 73.4001 111.3 73.4001C111.3 73.4001 113.4 82.9001 116.7 82.3001C116.7 82.3001 119.6 81.0001 115 71.8001C115 71.8001 114.3 71.8001 114.8 73.5001C114.6 73.5001 116.3 78.3001 115.6 79.0001Z" fill="#FFEA24" stroke="#13110C" stroke-width="0.5" stroke-miterlimit="10"/>
<path d="M144.9 60.0001H131.3V74.1001H144.9V60.0001Z" fill="#211C4B" stroke="#13110C" stroke-width="0.5" stroke-miterlimit="10"/>
<path d="M75.2998 38.1001C75.5998 45.5001 76.5997 57.3001 79.6997 62.4001C79.6997 62.4001 86.0998 72.7001 88.7998 72.6001C88.7998 72.6001 98.8997 67.9001 103.7 61.5001C103.7 61.5001 96.7998 49.3001 98.4998 39.7001L97.2998 37.5001C97.2998 37.5001 87.4998 39.4001 85.7998 32.0001C85.7998 32.0001 78.5998 37.9001 75.2998 38.6001" fill="#FED68A"/>
<path d="M75.2998 38.1001C75.5998 45.5001 76.5997 57.3001 79.6997 62.4001C79.6997 62.4001 86.0998 72.7001 88.7998 72.6001C88.7998 72.6001 98.8997 67.9001 103.7 61.5001C103.7 61.5001 96.7998 49.3001 98.4998 39.7001L97.2998 37.5001C97.2998 37.5001 87.4998 39.4001 85.7998 32.0001C85.7998 32.0001 78.5998 37.9001 75.2998 38.6001" stroke="#13110C" stroke-miterlimit="10"/>
<path d="M75.1001 31.4001H85.8C85.8 31.4001 79.6999 37.7001 75.3999 38.4001L75.1001 31.4001Z" fill="#AFA3C7" stroke="#13120D" stroke-miterlimit="10"/>
<path d="M75.2 35.8001L75.1001 31.4001" stroke="#13120D" stroke-miterlimit="10"/>
<path d="M76 37.0001C76 37.0001 82.3 33.6001 83.3 32.4001" stroke="#13120D" stroke-width="0.5" stroke-miterlimit="10"/>
<path d="M76 35.2001C76 35.2001 80.0001 33.5001 81.1001 32.4001" stroke="#13120D" stroke-width="0.5" stroke-miterlimit="10"/>
<path d="M76 33.5001C76 33.5001 77.8 33.0001 78.5 32.2001" stroke="#13120D" stroke-width="0.5" stroke-miterlimit="10"/>
<path d="M75.1003 31.4001L75.2002 35.8001L61.2002 75.1001L57.7002 77.3001L74.2002 31.4001H75.1003Z" fill="#FFEA24" stroke="#13110C" stroke-miterlimit="10"/>
<path d="M93.5 31.4001L126.5 84.4001L131 81.1001L100.1 31.4001H93.5Z" fill="#13120D" stroke="#13120D" stroke-miterlimit="10"/>
<path d="M85.7998 31.4001H93.8997L97.0999 37.3001C97.0999 37.3001 86.9998 40.0001 85.7998 31.4001Z" fill="#AFA3C7" stroke="#13120D" stroke-width="0.5" stroke-miterlimit="10"/>
<path d="M86.8999 32.4001C86.8999 32.4001 89.2 37.6001 95.7 36.7001L86.8999 32.4001Z" fill="#AFA3C7"/>
<path d="M86.8999 32.4001C86.8999 32.4001 89.2 37.6001 95.7 36.7001" stroke="#13120D" stroke-width="0.5" stroke-miterlimit="10"/>
<path d="M88.3999 32.4001C88.3999 32.4001 90.4 36.2001 95.3 35.8001L88.3999 32.4001Z" fill="#AFA3C7"/>
<path d="M88.3999 32.4001C88.3999 32.4001 90.4 36.2001 95.3 35.8001" stroke="#13120D" stroke-width="0.5" stroke-miterlimit="10"/>
<path d="M90.3999 32.4001C90.3999 32.4001 92.1 34.7001 95 34.7001L90.3999 32.4001Z" fill="#AFA3C7"/>
<path d="M90.3999 32.4001C90.3999 32.4001 92.1 34.7001 95 34.7001" stroke="#13120D" stroke-width="0.5" stroke-miterlimit="10"/>
<path d="M76 42.4001C76 42.4001 78.6001 39.9001 81.1001 40.7001C81.1001 40.7001 85.9001 41.5001 84.1001 49.9001C84.1001 49.9001 81 56.7001 83.3 57.3001C83.3 57.3001 88.6 58.1001 89.8 55.5001C89.8 55.5001 88.9999 53.5001 87.8999 55.4001" stroke="#13120D" stroke-width="0.5" stroke-miterlimit="10"/>
<path d="M86.8999 40.9001C86.8999 40.9001 93.0001 38.6001 97.1001 41.9001" stroke="#13120D" stroke-width="0.5" stroke-miterlimit="10"/>
<path d="M96.5 45.3001C92.5 42.7001 87.3999 44.7001 87.3999 44.7001C87.3999 44.7001 90.7 50.3001 96.5 45.7001" stroke="#13120D" stroke-miterlimit="10"/>
<path d="M87.7002 46.3001C87.7002 46.3001 89.9001 49.4001 91.9001 50.1001" stroke="#13120D" stroke-miterlimit="10"/>
<path d="M93.6997 45.7001C93.6997 46.0001 92.8998 46.2001 91.9998 46.2001C91.0998 46.2001 90.2998 46.0001 90.2998 45.7001C90.2998 45.4001 91.0998 45.2001 91.9998 45.2001C92.9998 45.3001 93.6997 45.5001 93.6997 45.7001Z" stroke="#13120D" stroke-miterlimit="10"/>
<path d="M76.6001 44.6001C80.0001 42.9001 83.8999 44.9001 83.8999 44.9001C83.8999 44.9001 80.8001 49.1001 76.6001 45.0001" stroke="#13120D" stroke-miterlimit="10"/>
<path d="M83.5 46.0001C83.5 46.0001 81.4999 48.3001 79.8999 48.7001" stroke="#13120D" stroke-miterlimit="10"/>
<path d="M78.5 45.1001C78.5 45.4001 79.2001 45.6001 80.1001 45.7001C81.0001 45.8001 81.8 45.7001 81.8 45.4001C81.8 45.1001 81.1 44.9001 80.2 44.8001C79.3 44.7001 78.5 44.8001 78.5 45.1001Z" stroke="#13120D" stroke-miterlimit="10"/>
<path d="M82.8999 61.7001C82.8999 61.7001 89.3 62.5001 91.8 61.7001" stroke="#13110C" stroke-miterlimit="10"/>
<path d="M86.2002 65.4001L88.4001 67.9001H86.2002L88.4001 65.4001" stroke="#13110C" stroke-miterlimit="10"/>
<path d="M61.2002 75.1001L75.1003 36.8001L76.0002 45.3001L66.4001 71.7001L61.2002 75.1001Z" fill="#13120D" stroke="#13120D" stroke-miterlimit="10"/>
<path d="M118.3 60.7001L122.3 57.9001L105.5 31.4001H100.1L118.6 61.1001" fill="#E31013"/>
<path d="M118.3 60.7001L122.3 57.9001L105.5 31.4001H100.1L118.6 61.1001" stroke="#13110C" stroke-miterlimit="10"/>
<path d="M66.3999 71.7001L69.8999 69.1001L76.5 51.5001L76 47.5001L66.3999 71.7001Z" fill="#E31013" stroke="#13110C" stroke-miterlimit="10"/>
<path d="M69.8999 69.1001L79.7 62.4001L76.5 51.9001L69.8999 69.1001Z" fill="#BBB32E" stroke="#13110C" stroke-miterlimit="10"/>
<path d="M72.2998 66.0001L75.9998 55.9001" stroke="#13110C" stroke-width="0.5" stroke-miterlimit="10"/>
<path d="M74.2002 65.0001L76.5002 57.9001" stroke="#13110C" stroke-width="0.5" stroke-miterlimit="10"/>
<path d="M76 63.6001L77.1001 60.3001" stroke="#13110C" stroke-width="0.5" stroke-miterlimit="10"/>
<path d="M122.3 57.9001L130.9 57.3001C130.9 57.3001 126.1 53.1001 126.6 31.4001H105.5L122.3 57.9001Z" fill="#BBB32E" stroke="#13110C" stroke-miterlimit="10"/>
<path d="M109.2 32.4001L116.4 38.4001C116.4 38.4001 114 38.7001 125.8 56.5001" fill="#211C4B"/>
<path d="M109.2 32.4001L116.4 38.4001C116.4 38.4001 114 38.7001 125.8 56.5001" stroke="#13110C" stroke-width="0.5" stroke-miterlimit="10"/>
<path d="M116.7 35.7001C116.9 37.1001 116.8 38.3001 116.4 38.4001C116 38.5001 115.4 37.4001 115.2 36.0001C115 34.6001 115.1 33.4001 115.5 33.3001C115.9 33.2001 116.5 34.3001 116.7 35.7001Z" fill="#211C4B" stroke="#13110C" stroke-width="0.5" stroke-miterlimit="10"/>
<path d="M120.1 37.6001C118.6 38.8001 117 39.4001 116.7 38.9001C116.4 38.5001 117.3 37.1001 118.9 35.9001C120.4 34.7001 122 34.1001 122.3 34.6001C122.6 35.1001 121.6 36.4001 120.1 37.6001Z" fill="#211C4B" stroke="#13110C" stroke-width="0.5" stroke-miterlimit="10"/>
<path d="M120 40.4001C121.1 41.3001 121.8 42.3001 121.5 42.6001C121.2 42.9001 120.1 42.5001 119 41.6001C117.9 40.7001 117.2 39.7001 117.5 39.4001C117.8 39.0001 118.9 39.5001 120 40.4001Z" fill="#211C4B" stroke="#13110C" stroke-width="0.5" stroke-miterlimit="10"/>
<path d="M125.9 46.7001C125.9 47.5001 125.2 48.2001 124.4 48.2001C123.6 48.2001 122.9 47.5001 122.9 46.7001C122.9 45.9001 123.6 45.2001 124.4 45.2001C125.3 45.3001 125.9 45.9001 125.9 46.7001Z" fill="#211C4B" stroke="#13110C" stroke-width="0.5" stroke-miterlimit="10"/>
<path d="M125.6 83.0001C125.6 83.0001 105.5 67.5001 104.4 62.0001C104.4 62.0001 95.8997 49.7001 98.6997 39.7001L125.6 83.0001Z" fill="#AFA3C7" stroke="#13120D" stroke-width="0.5" stroke-miterlimit="10"/>
<path d="M100.1 44.5001V50.8001" stroke="#13110C" stroke-width="0.5" stroke-miterlimit="10"/>
<path d="M101.8 46.7001L101.7 54.4001" stroke="#13110C" stroke-width="0.5" stroke-miterlimit="10"/>
<path d="M103.3 49.6001V58.4001" stroke="#13110C" stroke-width="0.5" stroke-miterlimit="10"/>
<path d="M105.2 52.3001V60.8001" stroke="#13110C" stroke-width="0.5" stroke-miterlimit="10"/>
<path d="M107.2 55.3001L107.1 63.8001" stroke="#13110C" stroke-width="0.5" stroke-miterlimit="10"/>
<path d="M109.2 59.3001V66.4001" stroke="#13110C" stroke-width="0.5" stroke-miterlimit="10"/>
<path d="M111.2 63.5001V68.3001" stroke="#13110C" stroke-width="0.5" stroke-miterlimit="10"/>
<path d="M113.2 66.9001L113.1 70.7001" stroke="#13110C" stroke-width="0.5" stroke-miterlimit="10"/>
<path d="M115.5 70.2001V72.3001" stroke="#13110C" stroke-width="0.5" stroke-miterlimit="10"/>
<path d="M117.4 72.9001V74.1001" stroke="#13110C" stroke-width="0.5" stroke-miterlimit="10"/>
<path d="M140.8 68.8001C140.8 68.8001 140.4 75.0001 138 76.8001C138 76.8001 135.1 75.9001 135.9 69.2001C135.9 69.2001 130.7 69.4001 129.2 67.0001C129.2 67.0001 130.4 64.2001 135.9 65.0001C135.9 65.0001 135.7 58.8001 138.1 56.9001C138.1 56.9001 141 57.8001 140.3 64.5001C140.3 64.5001 145.5 64.2001 147 66.7001C147 66.6001 146.3 69.5001 140.8 68.8001Z" fill="#FFEA24" stroke="#13110C" stroke-miterlimit="10"/>
<path d="M140.3 66.6001C140.3 67.8001 139.3 68.8001 138.1 68.8001C136.9 68.8001 135.9 67.8001 135.9 66.6001C135.9 66.1001 136.1 65.6001 136.4 65.2001C136.8 64.7001 137.4 64.4001 138.1 64.4001C139.3 64.4001 140.3 65.4001 140.3 66.6001Z" fill="#E31013" stroke="#13110C" stroke-miterlimit="10"/>
<path d="M144.2 87.0001C147.3 80.8001 145.6 76.4001 145.6 76.4001C140.6 79.0001 142.2 86.0001 142.2 86.0001C142.3 89.0001 140.3 86.5001 140.3 86.5001C136.3 79.1001 138.9 75.7001 138.9 75.7001C138.9 75.7001 138 78.4001 136.4 75.0001C136.4 75.0001 135.4 83.5001 139.3 87.0001C139.3 87.0001 139.2 88.7001 137.3 86.3001C137.3 86.3001 136.4 82.8001 130.4 83.9001C130.4 83.9001 131.9 89.2001 137.6 88.9001C137.7 88.9001 143.8 87.3001 144.2 87.0001Z" fill="#BBB32E" stroke="#13110C" stroke-miterlimit="10"/>
<path d="M132.2 84.9001C132.2 84.9001 135.7 87.4001 137 87.6001" stroke="#13110C" stroke-width="0.6" stroke-miterlimit="10"/>
<path d="M144.9 78.4001C144.9 78.4001 143.3 84.0001 143.4 85.7001" stroke="#13110C" stroke-width="0.6" stroke-miterlimit="10"/>
<path d="M148 101.9C147.6 101.4 141.7 103.3 141.7 103.3C137.4 108.2 133.8 107.3 133.8 107.3C133.8 107.3 133.9 92.7001 135.3 91.4001C135.3 91.4001 138.3 86.5001 146.9 88.4001L147.9 88.6001V101.9H148Z" fill="#FED68A" stroke="#13110C" stroke-miterlimit="10"/>
<path d="M141.3 88.3001C141.3 88.3001 139.4 93.4001 143.4 91.8001C147.4 90.3001 147.8 89.7001 147.8 89.7001" stroke="#13110C" stroke-miterlimit="10"/>
<path d="M147.7 91.1001C147.7 91.1001 139.4 93.6001 142.1 95.7001C142.1 95.7001 144.9 96.0001 148.1 94.7001" stroke="#13110C" stroke-miterlimit="10"/>
<path d="M147.7 95.7001C147.7 95.7001 141.4 96.6001 141.9 98.7001C141.9 98.7001 143.2 100.3 147.7 97.8001" stroke="#13110C" stroke-miterlimit="10"/>
<path d="M146.1 98.8001C146.1 98.8001 139.6 100.6 140.9 101.5C140.9 101.5 141.6 103.1 147.7 100.9" stroke="#13110C" stroke-miterlimit="10"/>
<path d="M139.3 93.4001C139.3 93.4001 136.9 100.9 139.3 102" stroke="#13110C" stroke-miterlimit="10"/>
<path d="M79.7 62.4001C84.4 70.2001 87.7 72.3001 87.7 72.3001C78 73.5001 69.8999 69.2001 69.8999 69.2001C69.8999 69.2001 78.8 63.0001 79.7 62.4001Z" fill="#AFA3C7" stroke="#13120D" stroke-miterlimit="10"/>
<path d="M77.5 65.0001C77.5 65.0001 79.6 66.2001 80.7 65.9001" stroke="#13110C" stroke-width="0.5" stroke-miterlimit="10"/>
<path d="M75.7998 66.6001C75.7998 66.6001 78.6999 68.9001 82.5999 68.8001" stroke="#13110C" stroke-width="0.5" stroke-miterlimit="10"/>
<path d="M73.5 68.3001C73.5 68.3001 79.7001 71.4001 84.6001 71.1001" stroke="#13110C" stroke-width="0.5" stroke-miterlimit="10"/>
<path d="M107.7 67.1001C98.9002 72.6001 90.2002 71.9001 90.2002 71.9001C90.2002 71.9001 100.3 66.6001 103.7 62.0001C103.7 62.0001 106.7 66.6001 107.7 67.1001Z" fill="#AFA3C7" stroke="#13120D" stroke-miterlimit="10"/>
<path d="M95 70.7001C95 70.7001 104 68.6001 105.2 67.2001" stroke="#13110C" stroke-width="0.5" stroke-miterlimit="10"/>
<path d="M97.7002 68.3001C97.7002 68.3001 102.5 67.1001 103.7 66.0001" stroke="#13110C" stroke-width="0.5" stroke-miterlimit="10"/>
<path d="M101.1 66.0001C101.1 66.0001 102.6 65.5001 103.3 64.8001" stroke="#13110C" stroke-width="0.5" stroke-miterlimit="10"/>
<path d="M111.2 70.7001C101.7 76.9001 89.2 77.2001 89.2 77.2001C74.9 78.4001 65.3999 72.2001 65.3999 72.2001L69.8999 69.0001C69.8999 69.0001 77.5 73.3001 87.7 72.1001C87.7 72.1001 88.8 73.2001 90.2 71.8001C90.2 71.8001 102.1 71.1001 107.7 67.3001L111.2 70.7001Z" fill="#FFEA24" stroke="#13110C" stroke-miterlimit="10"/>
<path d="M68.7998 71.9001C68.7998 71.9001 80.3997 75.8001 88.6997 75.0001C88.6997 75.0001 100.5 74.6001 108 69.7001" stroke="#13110C" stroke-miterlimit="10"/>
<path d="M51.7002 81.1001C51.7002 81.1001 56.0002 83.8001 56.5002 78.0001L51.7002 81.1001Z" fill="#FFEA24"/>
<path d="M51.7002 81.1001C51.7002 81.1001 56.0002 83.8001 56.5002 78.0001" stroke="#13110C" stroke-miterlimit="10"/>
<path d="M124.3 82.0001C111.5 91.6001 87.7 94.5001 87.7 94.5001C67 95.6001 48.8999 83.0001 48.8999 83.0001L51.1001 81.6001C51.1001 81.6001 69.7 92.8001 85.3 92.4001C85.3 92.4001 108.6 90.7001 122.4 80.4001L124.3 82.0001Z" fill="#FFEA24" stroke="#13110C" stroke-miterlimit="10"/>
<path d="M64.1998 73.5001C61.6998 84.8001 57.6 84.4001 57.6 84.4001V84.1001C55 84.4001 57.3998 77.4001 57.3998 77.4001" fill="#FFEA24"/>
<path d="M64.1998 73.5001C61.6998 84.8001 57.6 84.4001 57.6 84.4001V84.1001C55 84.4001 57.3998 77.4001 57.3998 77.4001" stroke="#13110C" stroke-width="0.5" stroke-miterlimit="10"/>
<path d="M59.7003 76.0001C59.7003 76.0001 58.7003 79.4001 59.7003 79.5001C59.7003 79.5001 61.2005 77.7001 61.6005 75.0001L59.7003 76.0001Z" fill="#211C4B" stroke="#13110C" stroke-width="0.5" stroke-miterlimit="10"/>
<path d="M84.7001 86.7001C83.2001 88.0001 83.5001 79.5001 83.5001 79.5001C83.7001 77.9001 82.5001 78.0001 82.5001 78.0001C82.5001 78.0001 80.3001 90.0001 84.2001 91.1001C84.2001 91.1001 88.0002 91.1001 87.3002 78.0001C87.3002 78.0001 86.5001 77.7001 86.2001 79.9001C86.2001 79.9001 85.8001 86.3001 84.7001 86.7001Z" fill="#FFEA24" stroke="#13110C" stroke-width="0.5" stroke-miterlimit="10"/>
<path d="M89.8998 86.4001C88.4998 87.8001 88.1998 79.1001 88.1998 79.1001C88.2998 77.4001 87.0999 77.6001 87.0999 77.6001C87.0999 77.6001 85.8999 90.2001 89.7999 91.0001C89.7999 91.0001 93.4999 90.7001 91.7999 77.3001C91.7999 77.3001 90.9998 77.0001 90.8998 79.3001C90.8998 79.3001 90.9998 85.9001 89.8998 86.4001Z" fill="#FFEA24" stroke="#13110C" stroke-width="0.5" stroke-miterlimit="10"/>
<path d="M95.4002 86.0001C94.1002 87.5001 93.3003 79.0001 93.3003 79.0001C93.3003 77.4001 92.2002 77.6001 92.2002 77.6001C92.2002 77.6001 91.6003 89.9001 95.5003 90.4001C95.5003 90.4001 99.2003 89.9001 96.8003 77.0001C96.8003 77.0001 96.0003 76.8001 96.0003 79.0001C96.0003 79.1001 96.4002 85.5001 95.4002 86.0001Z" fill="#FFEA24" stroke="#13110C" stroke-width="0.5" stroke-miterlimit="10"/>
<path d="M101.2 84.4001C100 85.9001 98.7 78.3001 98.7 78.3001C98.6 76.8001 97.5 77.2001 97.5 77.2001C97.5 77.2001 97.8 88.3001 101.7 88.4001C101.7 88.4001 105.4 87.6001 102.1 76.2001C102.1 76.2001 101.3 76.1001 101.4 78.1001C101.3 78.0001 102.1 83.8001 101.2 84.4001Z" fill="#FFEA24" stroke="#13110C" stroke-width="0.5" stroke-miterlimit="10"/>
<path d="M106.7 82.6001C105.6 84.2001 103.6 76.7001 103.6 76.7001C103.3 75.2001 102.3 75.7001 102.3 75.7001C102.3 75.7001 103.6 86.8001 107.5 86.5001C107.5 86.5001 111.1 85.4001 106.8 74.3001C106.8 74.3001 106 74.3001 106.3 76.2001C106.3 76.3001 107.7 81.9001 106.7 82.6001Z" fill="#FFEA24" stroke="#13110C" stroke-width="0.5" stroke-miterlimit="10"/>
<path d="M64.4997 82.4001C62.8997 83.2001 65.1997 75.5001 65.1997 75.5001C65.7997 74.1001 64.6997 73.9001 64.6997 73.9001C64.6997 73.9001 59.8997 84.5001 62.9997 86.3001C62.9997 86.3001 66.2998 87.2001 68.7998 75.0001C68.7998 75.0001 68.1996 74.5001 67.3996 76.5001C67.4996 76.6001 65.4997 82.4001 64.4997 82.4001Z" fill="#FFEA24" stroke="#13110C" stroke-width="0.5" stroke-miterlimit="10"/>
<path d="M69.1996 84.0001C67.5996 84.9001 69.4996 77.1001 69.4996 77.1001C69.9996 75.6001 68.8995 75.5001 68.8995 75.5001C68.8995 75.5001 64.7996 86.4001 67.9996 88.0001C67.9996 88.0001 71.2997 88.7001 73.0997 76.3001C73.0997 76.3001 72.4997 75.9001 71.7997 77.9001C71.7997 77.9001 70.1996 83.8001 69.1996 84.0001Z" fill="#FFEA24" stroke="#13110C" stroke-width="0.5" stroke-miterlimit="10"/>
<path d="M74.3998 85.5001C72.7998 86.6001 74.1998 78.3001 74.1998 78.3001C74.5998 76.7001 73.4999 76.7001 73.4999 76.7001C73.4999 76.7001 69.9999 88.3001 73.4999 89.7001C73.4999 89.7001 77.0999 90.2001 77.9999 77.3001C77.9999 77.3001 77.2998 76.9001 76.6998 79.0001C76.6998 79.1001 75.4998 85.3001 74.3998 85.5001Z" fill="#FFEA24" stroke="#13110C" stroke-width="0.5" stroke-miterlimit="10"/>
<path d="M79.0001 86.3001C77.7001 87.5001 78.7001 78.7001 78.7001 78.7001C79.0001 77.0001 78.1002 77.1001 78.1002 77.1001C78.1002 77.1001 75.2001 89.6001 78.2001 90.9001C78.2001 90.9001 81.2 91.2001 81.9 77.4001C81.9 77.4001 81.3 77.0001 80.9 79.3001C80.9 79.3001 80.0001 86.0001 79.0001 86.3001Z" fill="#FFEA24" stroke="#13110C" stroke-width="0.5" stroke-miterlimit="10"/>
<path d="M49.2002 97.6001C49.2002 98.2001 48.7002 98.6001 48.2002 98.6001C47.6002 98.6001 47.2002 98.1001 47.2002 97.6001C47.2002 97.0001 47.7002 96.6001 48.2002 96.6001C48.7002 96.5001 49.2002 97.0001 49.2002 97.6001Z" fill="#FFEA24"/>
<path d="M44.7002 98.1001L38.7002 92.2001H42.0002L42.5002 89.8001L47.6003 94.6001L44.8003 95.2001L44.7002 98.1001Z" fill="#FFEA24"/>
<path d="M39.2998 104.1L45.1997 98.1001V101.4L47.5999 101.8L42.7998 106.9L42.0999 104.2L39.2998 104.1Z" fill="#FFEA24"/>
<path d="M56.8997 91.1001L51.4998 97.6001L51.1997 94.3001L48.7998 94.0001L53.0999 88.5001L53.9998 91.2001L56.8997 91.1001Z" fill="#FFEA24"/>
<path d="M53.5 105L48.3999 100.3H51.2L51.6001 98.4001L55.8999 102.2L53.6001 102.7L53.5 105Z" fill="#FFEA24"/>
<path d="M41.1997 109.2L34.4998 116.1V112.4L31.7998 111.9L37.0999 106L37.8997 109.2H41.1997Z" fill="#FFEA24"/>
<path d="M45.8 119.5C45.8 120.3 45.1999 120.9 44.3999 120.9C43.5999 120.9 43 120.3 43 119.5C43 118.7 43.5999 118.1 44.3999 118.1C45.0999 118.1 45.8 118.7 45.8 119.5Z" fill="#FFEA24"/>
<path d="M36.5 115.7L37.1001 118.1C37.1001 118.1 48.8001 112 50.1001 103.9L48.8999 103.1C48.7999 103.2 43.7 112.6 36.5 115.7Z" fill="#FFEA24"/>
<path d="M51.6997 86.8001C51.6997 86.8001 51.5999 86.8001 51.5999 86.9001C49.6999 88.0001 47.1997 93.0001 47.1997 93.0001L45.7998 91.4001C45.7998 91.4001 48.9998 86.3001 50.9998 85.1001" fill="#FFEA24"/>
<path d="M60.3999 92.0001C59.6999 94.6001 54.5 99.0001 54.5 99.0001L53.1001 97.5001C53.1001 97.5001 59 92.7001 59.2 92.0001C59.4 91.3001 60.3999 92.0001 60.3999 92.0001Z" fill="#FFEA24"/>
<path d="M58.1001 126.6C58.1001 126.6 62.1 109.4 63.5 108.5C64.9 107.6 75.4 116.7 74.2 126.6H72.5C72.5 126.6 71.9 115.3 64.3 111.6L60.1001 126.6H58.1001Z" fill="#FFEA24" stroke="#13110C" stroke-miterlimit="10"/>
<path d="M64.1004 114.6C64.1004 114.6 68.3003 113.6 68.8003 118.1C68.8003 118.1 67.7002 121.8 63.4002 122.4C63.4002 122.4 61.3002 121.7 63.7002 120.6C63.7002 120.6 68.8003 116.9 64.5003 117.5C64.4003 117.5 61.8004 120.2 64.1004 114.6Z" fill="#FFEA24" stroke="#13110C" stroke-miterlimit="10"/>
<path d="M65.6001 126.6C70.6001 125.7 67.2 124 67.2 124C64.1 124.6 63 124.3 63 124.3C63 124.3 69.5 118.1 71.2 123.2C71.2 123.2 70.3001 126.6 65.6001 126.6Z" fill="#FFEA24" stroke="#13110C" stroke-miterlimit="10"/>
<path d="M49.2002 126.6C49.2002 126.6 55.6002 98.9001 61.7002 94.6001L63.0002 108.9L58.1003 126.7H49.2002V126.6Z" fill="#AFA3C7" stroke="#13120D" stroke-miterlimit="10"/>
<path d="M61.9998 97.6001L58.0999 105.6L59.2998 106.4L61.4998 103.5L61.9998 106.9L60.3997 109.3L56.8997 108.1L53.7998 116.6L55.5999 117.4L57.6997 111.3L59.1997 112.2L56.8997 119.8L52.7998 119.1L51.2998 126.2" stroke="#13110C" stroke-miterlimit="10"/>
<path d="M53.1001 126.2L54.6001 122L56.1001 122.8L55.5 126.6" stroke="#13110C" stroke-miterlimit="10"/>
<path d="M62 94.6001C62 94.6001 74.7999 97.5001 76.3999 98.8001C77.9999 100.1 79.9 110 79.7 115.3L83.6001 115.8C83.6001 115.8 82.0999 97.9001 79.8999 95.1001C79.8999 95.1001 63.3999 90.5001 62.8999 90.3001L62 94.6001Z" fill="#13110C" stroke="#13110C" stroke-miterlimit="10"/>
<path d="M62 95.4001L62.3999 101.1C62.3999 101.1 72.7 104.1 72.8 105.4C72.9 106.7 74.8999 114.5 74.8999 114.5L79.6001 115.2C79.6001 115.2 80.1 100.1 76.5 98.7001L62 95.4001Z" fill="#E31013" stroke="#13110C" stroke-miterlimit="10"/>
<path d="M65.1001 98.6001C65.1001 99.1001 64.7 99.4001 64.3 99.4001C63.9 99.4001 63.5 99.0001 63.5 98.6001C63.5 98.2001 63.9 97.8001 64.3 97.8001C64.7 97.8001 65.1001 98.1001 65.1001 98.6001Z" fill="white" stroke="#13110C" stroke-width="0.5" stroke-miterlimit="10"/>
<path d="M68 99.4001C68 99.9001 67.6 100.2 67.2 100.2C66.8 100.2 66.3999 99.8001 66.3999 99.4001C66.3999 98.9001 66.8 98.6001 67.2 98.6001C67.6 98.6001 68 99.0001 68 99.4001Z" fill="white" stroke="#13110C" stroke-width="0.5" stroke-miterlimit="10"/>
<path d="M71.1001 100.3C71.1001 100.8 70.7 101.1 70.3 101.1C69.8 101.1 69.5 100.7 69.5 100.3C69.5 99.9001 69.9 99.5001 70.3 99.5001C70.7 99.4001 71.1001 99.8001 71.1001 100.3Z" fill="white" stroke="#13110C" stroke-width="0.5" stroke-miterlimit="10"/>
<path d="M74.7 102.1C74.7 102.6 74.2999 102.9 73.8999 102.9C73.4999 102.9 73.1001 102.5 73.1001 102.1C73.1001 101.6 73.4999 101.3 73.8999 101.3C74.2999 101.3 74.7 101.7 74.7 102.1Z" fill="white" stroke="#13110C" stroke-width="0.5" stroke-miterlimit="10"/>
<path d="M76.3997 105.2C76.3997 105.7 75.9999 106 75.5999 106C75.1999 106 74.7998 105.6 74.7998 105.2C74.7998 104.7 75.1999 104.4 75.5999 104.4C75.9999 104.4 76.3997 104.7 76.3997 105.2Z" fill="white" stroke="#13110C" stroke-width="0.5" stroke-miterlimit="10"/>
<path d="M77.2 108.1C77.2 108.6 76.7999 108.9 76.3999 108.9C75.9999 108.9 75.6001 108.5 75.6001 108.1C75.6001 107.7 75.9999 107.3 76.3999 107.3C76.7999 107.3 77.2 107.7 77.2 108.1Z" fill="white" stroke="#13110C" stroke-width="0.5" stroke-miterlimit="10"/>
<path d="M77.8003 111.9C77.8003 112.4 77.4002 112.7 77.0002 112.7C76.5002 112.7 76.2002 112.3 76.2002 111.9C76.2002 111.5 76.6002 111.1 77.0002 111.1C77.4002 111 77.8003 111.4 77.8003 111.9Z" fill="white" stroke="#13110C" stroke-width="0.5" stroke-miterlimit="10"/>
<path d="M70.6001 114.7L74.8999 114.5L72.8 105.3C72.8 105.3 63.4999 100.7 62.3999 101.1L62.8999 108.3C62.9999 108.3 66.1001 108.6 70.6001 114.7Z" fill="#13110C" stroke="#13110C" stroke-miterlimit="10"/>
<path d="M64.5 106.2C64.5 106.2 70.8999 105.5 70.8999 112" stroke="white" stroke-miterlimit="10"/>
<path d="M87 115.8L92.3 117.5C92.3 117.5 91.3999 94.8001 89.8999 94.2001L83.5 94.6001C83.5 94.6001 87.4 108.9 87 115.8Z" fill="#AFA3C7" stroke="#13120D" stroke-miterlimit="10"/>
<path d="M84.7002 98.3001H90.6003" stroke="#13110C" stroke-miterlimit="10"/>
<path d="M85.7998 102.1H91.0999" stroke="#13110C" stroke-miterlimit="10"/>
<path d="M86.6001 105.6H91.3999" stroke="#13110C" stroke-miterlimit="10"/>
<path d="M87 108.8H91.3999" stroke="#13110C" stroke-miterlimit="10"/>
<path d="M87.3999 112.7H91.6001" stroke="#13110C" stroke-miterlimit="10"/>
<path d="M88.2998 115.7H91.9998" stroke="#13110C" stroke-miterlimit="10"/>
<path d="M92.8 117.9L95.1 118.5C95.1 118.5 94.2999 94.2001 93.1999 93.7001L90.1999 94.2001C90.0999 94.2001 92.9 112.3 92.8 117.9Z" fill="#FFEA24" stroke="#13110C" stroke-miterlimit="10"/>
<path d="M95.3999 118.4L98.8999 119.3C98.8999 119.3 98.4 99.3001 100.8 91.9001L93.3999 93.6001C93.4999 93.6001 95.4999 111.6 95.3999 118.4Z" fill="#AFA3C7" stroke="#13120D" stroke-miterlimit="10"/>
<path d="M94.2998 97.7001L99.3997 97.3001" stroke="#13110C" stroke-miterlimit="10"/>
<path d="M94.7002 101.6L99.1003 101.3" stroke="#13110C" stroke-miterlimit="10"/>
<path d="M95.1001 104.9H98.8999" stroke="#13110C" stroke-miterlimit="10"/>
<path d="M95.1001 108.5H98.7" stroke="#13110C" stroke-miterlimit="10"/>
<path d="M95.5 112H98.3999" stroke="#13110C" stroke-miterlimit="10"/>
<path d="M95.7002 115.2H98.7002" stroke="#13110C" stroke-miterlimit="10"/>
<path d="M99.4 119.4L101.1 119.7C101.1 119.7 101.4 91.9001 103.8 91.2001L100.9 92.0001C100.9 91.9001 98.1 103.1 99.4 119.4Z" fill="#FFEA24" stroke="#13110C" stroke-miterlimit="10"/>
<path d="M101.7 119.7L103.3 119.9C103.3 119.9 103.1 96.8001 105.4 96.6001C105.4 96.6001 118.8 89.6001 122 88.7001L122.7 83.0001C122.7 83.0001 110.8 89.8001 103.7 91.2001C103.8 91.1001 101.1 101.9 101.7 119.7Z" fill="#13110C" stroke="#13110C" stroke-miterlimit="10"/>
<path d="M103.7 119.9H105.6C105.6 119.9 106.3 115.3 110.7 111.2V101.3L121.1 96.3001L122.1 88.9001C122.1 88.9001 106.9 95.3001 105.4 96.6001C105.4 96.6001 102.9 93.7001 103.3 117.2L103.7 119.9Z" fill="#E31013" stroke="#13110C" stroke-miterlimit="10"/>
<path d="M118.6 95.5001C119.097 95.5001 119.5 95.0971 119.5 94.6001C119.5 94.103 119.097 93.7001 118.6 93.7001C118.103 93.7001 117.7 94.103 117.7 94.6001C117.7 95.0971 118.103 95.5001 118.6 95.5001Z" fill="white" stroke="#13110C" stroke-width="0.5" stroke-miterlimit="10"/>
<path d="M116.2 95.8001C116.2 96.3001 115.8 96.7001 115.3 96.7001C114.8 96.7001 114.4 96.3001 114.4 95.8001C114.4 95.3001 114.8 94.9001 115.3 94.9001C115.8 94.9001 116.2 95.3001 116.2 95.8001Z" fill="white" stroke="#13110C" stroke-width="0.5" stroke-miterlimit="10"/>
<path d="M112.7 97.3001C112.7 97.8001 112.3 98.2001 111.8 98.2001C111.3 98.2001 110.9 97.8001 110.9 97.3001C110.9 96.8001 111.3 96.4001 111.8 96.4001C112.3 96.4001 112.7 96.8001 112.7 97.3001Z" fill="white" stroke="#13110C" stroke-width="0.5" stroke-miterlimit="10"/>
<path d="M108.3 100C108.797 100 109.2 99.5971 109.2 99.1001C109.2 98.603 108.797 98.2001 108.3 98.2001C107.803 98.2001 107.4 98.603 107.4 99.1001C107.4 99.5971 107.803 100 108.3 100Z" fill="white" stroke="#13110C" stroke-width="0.5" stroke-miterlimit="10"/>
<path d="M108.3 102.5C108.3 103 107.9 103.4 107.4 103.4C106.9 103.4 106.5 103 106.5 102.5C106.5 102 106.9 101.6 107.4 101.6C107.9 101.6 108.3 102 108.3 102.5Z" fill="white" stroke="#13110C" stroke-width="0.5" stroke-miterlimit="10"/>
<path d="M108.1 106C108.1 106.5 107.7 106.9 107.2 106.9C106.7 106.9 106.3 106.5 106.3 106C106.3 105.5 106.7 105.1 107.2 105.1C107.7 105.1 108.1 105.5 108.1 106Z" fill="white" stroke="#13110C" stroke-width="0.5" stroke-miterlimit="10"/>
<path d="M108.1 109.4C108.1 109.9 107.7 110.3 107.2 110.3C106.7 110.3 106.3 109.9 106.3 109.4C106.3 108.9 106.7 108.5 107.2 108.5C107.7 108.5 108.1 108.9 108.1 109.4Z" fill="white" stroke="#13110C" stroke-width="0.5" stroke-miterlimit="10"/>
<path d="M108.1 113.3C108.1 113.8 107.7 114.2 107.2 114.2C106.7 114.2 106.3 113.8 106.3 113.3C106.3 112.8 106.7 112.4 107.2 112.4C107.7 112.4 108.1 112.8 108.1 113.3Z" fill="white" stroke="#13110C" stroke-width="0.5" stroke-miterlimit="10"/>
<path d="M105.6 120.3C106.2 119.7 104.5 123.4 104.5 123.4C101 124.1 90.8999 120.4 90.8999 120.4C80.5999 116.3 72.1001 117.3 72.1001 117.3L70.5 114.7C70.5 114.7 79 115.2 83.5 116C83.5 116 90.7001 116.4 97.1001 119.1C97.2001 119.1 105.4 120.6 105.6 120.3Z" fill="white" stroke="#13110C" stroke-miterlimit="10"/>
<path d="M77.5 122.9C77.5 123.4 77.1 123.7 76.7 123.7C76.3 123.7 75.8999 123.3 75.8999 122.9C75.8999 122.5 76.3 122.1 76.7 122.1C77.1 122.1 77.5 122.4 77.5 122.9Z" fill="white" stroke="#13110C" stroke-width="0.5" stroke-miterlimit="10"/>
<path d="M81.3003 123.4C81.3003 123.9 80.9002 124.2 80.5002 124.2C80.1002 124.2 79.7002 123.8 79.7002 123.4C79.7002 122.9 80.1002 122.6 80.5002 122.6C80.9002 122.6 81.3003 122.9 81.3003 123.4Z" fill="white" stroke="#13110C" stroke-width="0.5" stroke-miterlimit="10"/>
<path d="M84.5 123.9C84.5 124.4 84.1 124.7 83.7 124.7C83.3 124.7 82.8999 124.3 82.8999 123.9C82.8999 123.4 83.3 123.1 83.7 123.1C84.1 123.1 84.5 123.5 84.5 123.9Z" fill="white" stroke="#13110C" stroke-width="0.5" stroke-miterlimit="10"/>
<path d="M87.8003 124.7C87.8003 125.2 87.4002 125.5 87.0002 125.5C86.6002 125.5 86.2002 125.1 86.2002 124.7C86.2002 124.2 86.6002 123.9 87.0002 123.9C87.4002 123.9 87.8003 124.3 87.8003 124.7Z" fill="white" stroke="#13110C" stroke-width="0.5" stroke-miterlimit="10"/>
<path d="M104.3 126.4L104.5 123.4C102 124 89.8003 120.2 89.8003 120.2C89.0003 119.6 85.5002 118.5 85.5002 118.5C81.2002 116.8 72.2002 117.2 72.2002 117.2L73.5002 120.1L90.8003 122.7C90.7003 122.9 103.2 125.4 104.3 126.4Z" fill="#13110C" stroke="#13110C" stroke-miterlimit="10"/>
<path d="M110.7 111.1C110.7 111.1 115.8 106.9 120.7 107L121.2 96.4001L110.7 101.3V111.1Z" fill="#13110C" stroke="#13110C" stroke-miterlimit="10"/>
<path d="M112.6 108.7C112.6 108.7 111.9 103.7 114.9 103.3L120 101.4" stroke="white" stroke-miterlimit="10"/>
<path d="M104.9 126.6C104.9 126.6 105.1 113.2 112.9 109.5C112.9 109.5 118.1 106.3 120.7 107.3L120.5 109.6C120.5 109.6 108.3 108.4 106.8 125.4L106.9 126.6H104.9Z" fill="#FFEA24" stroke="#13110C" stroke-miterlimit="10"/>
<path d="M118.6 126.4C118.6 126.4 121.6 106.2 121.6 102.1C121.6 102.1 121.9 83.9001 124.1 82.4001C124.1 82.4001 125.7 82.8001 126.1 83.8001C126.1 83.8001 123.6 94.5001 123.4 102.6C123.4 102.6 121.9 123.8 120.9 126.5H118.6V126.4Z" fill="#FFEA24" stroke="#13110C" stroke-miterlimit="10"/>
<path d="M126.5 84.4001L130.6 87.8001L133.4 90.1001C133.4 90.1001 130.8 94.5001 131 108.4C131 108.4 130.3 124.1 129.3 126.5H120.8L123 106.3C123 106.4 124.9 83.1001 126.5 84.4001Z" fill="#AFA3C7" stroke="#13120D" stroke-miterlimit="10"/>
<path d="M123.3 126.4L123.8 119.9H128.5L128.7 112H126.6V117.5H124.6V109.4H129.3V101.6L127.1 101.5V106.9L125.6 107.1V99.2001H129.3V95.8001H130.5V91.1001H128V96.4001H126.4V87.9001L130.5 87.8001" stroke="#13110C" stroke-miterlimit="10"/>
<path d="M125.3 126.6L125.6 122.6L127.7 123.1L127.1 126.6" stroke="#13110C" stroke-miterlimit="10"/>
<path d="M129.3 126.6H131.8C131.8 126.6 134.6 107.2 133.9 102.5C133.9 102.5 134.4 91.7001 135.4 91.3001L133.4 90.2001C133.4 90.2001 130.3 98.7001 131 106.9C131 106.9 130.3 124 129.3 126.6Z" fill="#FFEA24" stroke="#13110C" stroke-miterlimit="10"/>
<path d="M132.3 125.9L148 109.8V101.9L141.7 103.3C141.7 103.3 137.7 107.9 133.8 107.4L131.7 126.7H132.3V125.9Z" fill="#E31013" stroke="#13110C" stroke-miterlimit="10"/>
<path d="M133.9 126.6L148 112.7V109.8L132.3 126.6H133.9Z" fill="#FFEA24" stroke="#13110C" stroke-miterlimit="10"/>
<path d="M146.4 121.5C146.4 122.4 145.7 123.1 144.8 123.1C143.9 123.1 143.2 122.4 143.2 121.5C143.2 120.6 143.9 119.9 144.8 119.9C145.7 119.8 146.4 120.6 146.4 121.5Z" fill="#FFEA24" stroke="#13110C" stroke-miterlimit="10"/>
<path d="M115.7 124.7C111.8 123.4 109 126.6 109 126.6H107.1C107.1 126.6 107.9 119.5 115.9 124.9" fill="#FFEA24"/>
<path d="M115.7 124.7C111.8 123.4 109 126.6 109 126.6H107.1C107.1 126.6 107.9 119.5 115.9 124.9" stroke="#13110C" stroke-miterlimit="10"/>
<path d="M116.2 122.9C116.2 122.9 111.4 119.3 112.8 118.5C112.8 118.5 114.2 117.5 116.8 120.5C116.8 120.5 119 120.1 116.4 117.3C113.8 114.5 111.8 114 109.8 116.4C109.8 116.4 106.2 121.3 115.8 123.1" fill="#FFEA24"/>
<path d="M116.2 122.9C116.2 122.9 111.4 119.3 112.8 118.5C112.8 118.5 114.2 117.5 116.8 120.5C116.8 120.5 119 120.1 116.4 117.3C113.8 114.5 111.8 114 109.8 116.4C109.8 116.4 106.2 121.3 115.8 123.1" stroke="#13110C" stroke-miterlimit="10"/>
<path d="M120.2 114.7C120.5 108.1 117.4 111 117.4 111C112.5 113.4 118.6 118.7 118.6 118.7C118.6 118.7 117.5 113.5 118.6 115.2C118.6 115.2 119.9 120.6 120.2 114.7Z" fill="#FFEA24" stroke="#13110C" stroke-miterlimit="10"/>
<path d="M50.1001 60.9001C50.3001 60.7001 50.5 60.5001 50.7 60.2001L57.3999 52.0001L61.1001 47.5001C63.0001 45.2001 62.7001 41.8001 60.3001 39.9001L59.8999 39.6001C57.5999 37.7001 54.2001 38.0001 52.3001 40.4001L50.1001 43.1001L47.8999 40.4001C45.9999 38.1001 42.6001 37.7001 40.3001 39.6001L39.8999 39.9001C37.5999 41.8001 37.2001 45.2001 39.1001 47.5001L49.5 60.3001C49.7 60.5001 49.9001 60.7001 50.1001 60.9001Z" fill="#E30B13"/>
<path d="M16.8 48.1001C17 47.9001 17.1 47.8001 17.3 47.6001L22.4999 41.2001L25.3998 37.7001C26.8998 35.9001 26.6 33.2001 24.8 31.8001L24.4999 31.5001C22.6999 30.0001 20 30.3001 18.6 32.1001L16.8998 34.2001L15.1999 32.1001C13.6999 30.3001 11.1 30.0001 9.29998 31.5001L8.99993 31.8001C7.19993 33.3001 6.89983 35.9001 8.39983 37.7001L16.4999 47.6001C16.4999 47.8001 16.7 48.0001 16.8 48.1001Z" fill="#E30B13"/>
<path d="M22.6001 25.6001C21.8001 25.6001 21.2 25.6001 20.8 25.5001C20.4 25.4001 20.0001 25.2001 19.6001 24.9001C18.7001 25.6001 17.8 26.0001 16.7 26.0001C15.6 26.0001 14.5 25.6001 13.7 24.8001C12.8 24.0001 12.3 23.0001 12.3 21.9001V20.3001H11.1001V18.3001C11.1001 18.3001 11.5 18.3001 12.3 18.2001V12.0001C12.3 10.9001 12.8 9.90008 13.7 9.00008C14.6 8.20008 15.6 7.80008 16.7 7.80008C17.8 7.80008 18.9 8.20008 19.8 9.00008C20.7 9.80008 21.2 10.8001 21.2 11.9001V21.8001C21.2 22.3001 21.0999 22.7001 20.8999 23.2001C21.0999 23.3001 21.2999 23.4001 21.3999 23.5001H22.6001V25.6001ZM14.3999 18.1001C15.2999 18.2001 16.1 18.6001 17 19.3001C17.5 19.7001 18.2 20.4001 19 21.3001V11.9001C19 11.4001 18.8 10.9001 18.3 10.5001C17.8 10.1001 17.3 9.90008 16.7 9.90008C16.1 9.90008 15.6001 10.1001 15.1001 10.5001C14.6001 10.9001 14.3999 11.4001 14.3999 11.9001V18.1001ZM18 23.3001L15.3 20.6001C15.1 20.4001 14.7999 20.2001 14.3999 20.2001V21.8001C14.3999 22.3001 14.6001 22.7001 15.1001 23.2001C15.6001 23.6001 16.1 23.8001 16.7 23.8001C17.1 23.7001 17.6 23.6001 18 23.3001Z" fill="#E30B13"/>
<path d="M30.4001 126.4H147.4V158.5L131.3 168.8L108.5 183.9L70.8003 185.6L43.1003 161.8L30.2002 160.5L30.4001 126.4Z" fill="#211C4B" stroke="#13110C" stroke-width="0.5" stroke-miterlimit="10"/>
<path d="M74.2002 126.4C84.9002 130.7 105.1 132.8 105.1 132.8C105.1 132.8 103.9 128.8 104.4 126.4H74.2002Z" fill="#E31013" stroke="#13110C" stroke-miterlimit="10"/>
<path d="M86.7998 127.5C86.7998 127 87.1999 126.7 87.5999 126.7C87.9999 126.7 88.3997 127.1 88.3997 127.5C88.3997 127.9 87.9999 128.3 87.5999 128.3C87.1999 128.3 86.7998 127.9 86.7998 127.5Z" fill="white" stroke="#13110C" stroke-width="0.5" stroke-miterlimit="10"/>
<path d="M98.3999 158.5L94.8 158.2C94.8 158.2 91.3999 147.4 91.3999 137.2H94.5L98.3999 158.5Z" fill="#FFEA24" stroke="#13110C" stroke-miterlimit="10"/>
<path d="M116.9 162.6C126 152.1 131.3 126.5 131.3 126.5H129.2C129.2 126.5 124.1 151.5 116.4 158.8L115.8 162.6H116.9Z" fill="#FFEA24" stroke="#13110C" stroke-miterlimit="10"/>
<path d="M135.3 126.4L130.6 131V129.5L132.7 126.4H135.3Z" fill="#FFEA24"/>
<path d="M147.4 146.4C144.7 151.9 137.2 156.2 137.2 156.2C136.4 156.3 135.3 154.4 135.3 154.4C139.3 153.4 147.4 141.9 147.4 141.9V146.4Z" fill="#FFEA24"/>
<path d="M140.2 126.4L147.4 132.7L143.7 132.9L143.4 135.6L137.2 130.6L140.3 129.7L140.2 126.4Z" fill="#FFEA24"/>
<path d="M66.8998 172.2C67.6998 170.8 69.9999 177 69.9999 177C70.2999 178.2 71.1998 177.8 71.1998 177.8C71.1998 177.8 69.0999 168.3 65.7999 168.9C65.7999 168.9 62.8999 170.2 67.4999 179.4C67.4999 179.4 68.1998 179.4 67.6998 177.7C67.7998 177.6 66.1998 172.8 66.8998 172.2Z" fill="#FFEA24" stroke="#13110C" stroke-width="0.5" stroke-miterlimit="10"/>
<path d="M62.8998 174.1C63.6998 172.7 65.9999 178.9 65.9999 178.9C66.2999 180.1 67.1998 179.7 67.1998 179.7C67.1998 179.7 65.0999 170.2 61.7999 170.8C61.7999 170.8 58.8999 172.1 63.4999 181.3C63.4999 181.3 64.1998 181.3 63.6998 179.6C63.7998 179.5 62.0998 174.7 62.8998 174.1Z" fill="#FFEA24" stroke="#13110C" stroke-width="0.5" stroke-miterlimit="10"/>
<path d="M47.1001 178.9H33.5V193H47.1001V178.9Z" fill="#211C4B" stroke="#13110C" stroke-width="0.5" stroke-miterlimit="10"/>
<path d="M103.2 215C102.9 207.6 101.9 195.8 98.7998 190.7C98.7998 190.7 92.3997 180.4 89.6997 180.5C89.6997 180.5 79.5998 185.2 74.7998 191.6C74.7998 191.6 81.6998 203.8 79.9998 213.4L81.1997 215.6C81.1997 215.6 90.9997 213.7 92.6997 221.1C92.6997 221.1 99.8997 215.2 103.2 214.5" fill="#FED68A"/>
<path d="M103.2 215C102.9 207.6 101.9 195.8 98.7998 190.7C98.7998 190.7 92.3997 180.4 89.6997 180.5C89.6997 180.5 79.5998 185.2 74.7998 191.6C74.7998 191.6 81.6998 203.8 79.9998 213.4L81.1997 215.6C81.1997 215.6 90.9997 213.7 92.6997 221.1C92.6997 221.1 99.8997 215.2 103.2 214.5" stroke="#13110C" stroke-miterlimit="10"/>
<path d="M103.3 221.6H92.6001C92.6001 221.6 98.7 215.3 103 214.6L103.3 221.6Z" fill="#AFA3C7" stroke="#13120D" stroke-miterlimit="10"/>
<path d="M103.2 217.2L103.3 221.6" stroke="#13120D" stroke-miterlimit="10"/>
<path d="M102.4 216C102.4 216 96.1001 219.4 95.1001 220.6" stroke="#13120D" stroke-width="0.5" stroke-miterlimit="10"/>
<path d="M102.4 217.8C102.4 217.8 98.3998 219.5 97.2998 220.6" stroke="#13120D" stroke-width="0.5" stroke-miterlimit="10"/>
<path d="M102.4 219.6C102.4 219.6 100.6 220.1 99.8999 220.9" stroke="#13120D" stroke-width="0.5" stroke-miterlimit="10"/>
<path d="M103.3 221.6L103.2 217.2L117.2 178L120.8 175.8L104.3 221.6H103.3Z" fill="#FFEA24" stroke="#13110C" stroke-miterlimit="10"/>
<path d="M85 221.6L52 168.6L47.5 172L78.3 221.6H85Z" fill="#13120D" stroke="#13120D" stroke-miterlimit="10"/>
<path d="M92.5999 221.6H84.4998L81.2998 215.7C81.2998 215.7 91.3999 213 92.5999 221.6Z" fill="#AFA3C7" stroke="#13120D" stroke-width="0.5" stroke-miterlimit="10"/>
<path d="M91.5002 220.7C91.5002 220.7 89.2002 215.5 82.7002 216.4L91.5002 220.7Z" fill="#AFA3C7"/>
<path d="M91.5002 220.7C91.5002 220.7 89.2002 215.5 82.7002 216.4" stroke="#13120D" stroke-width="0.5" stroke-miterlimit="10"/>
<path d="M90.1003 220.7C90.1003 220.7 88.1002 216.9 83.2002 217.3L90.1003 220.7Z" fill="#AFA3C7"/>
<path d="M90.1003 220.7C90.1003 220.7 88.1002 216.9 83.2002 217.3" stroke="#13120D" stroke-width="0.5" stroke-miterlimit="10"/>
<path d="M88.1001 220.7C88.1001 220.7 86.4 218.4 83.5 218.4L88.1001 220.7Z" fill="#AFA3C7"/>
<path d="M88.1001 220.7C88.1001 220.7 86.4 218.4 83.5 218.4" stroke="#13120D" stroke-width="0.5" stroke-miterlimit="10"/>
<path d="M102.4 210.7C102.4 210.7 99.8 213.2 97.3 212.4C97.3 212.4 92.5 211.6 94.3 203.2C94.3 203.2 97.4001 196.4 95.1001 195.8C95.1001 195.8 89.8001 195 88.6001 197.6C88.6001 197.6 89.4 199.6 90.5 197.7" stroke="#13120D" stroke-width="0.5" stroke-miterlimit="10"/>
<path d="M91.4998 212.2C91.4998 212.2 85.3998 214.5 81.2998 211.2" stroke="#13120D" stroke-width="0.5" stroke-miterlimit="10"/>
<path d="M82 207.7C86 210.3 91.1001 208.3 91.1001 208.3C91.1001 208.3 87.8 202.7 82 207.3" stroke="#13120D" stroke-miterlimit="10"/>
<path d="M90.8 206.7C90.8 206.7 88.6001 203.6 86.6001 202.9" stroke="#13120D" stroke-miterlimit="10"/>
<path d="M84.7002 207.3C84.7002 207 85.5001 206.8 86.4001 206.8C87.3001 206.8 88.1003 207 88.1003 207.3C88.1003 207.6 87.3001 207.8 86.4001 207.8C85.5001 207.8 84.7002 207.6 84.7002 207.3Z" stroke="#13120D" stroke-miterlimit="10"/>
<path d="M101.9 208.5C98.4999 210.2 94.6001 208.2 94.6001 208.2C94.6001 208.2 97.6999 204 101.9 208.1" stroke="#13120D" stroke-miterlimit="10"/>
<path d="M94.8999 207C94.8999 207 96.9 204.7 98.5 204.3" stroke="#13120D" stroke-miterlimit="10"/>
<path d="M100 208C100 207.7 99.3001 207.5 98.4001 207.4C97.5001 207.3 96.7002 207.4 96.7002 207.7C96.7002 208 97.4003 208.2 98.3003 208.3C99.2003 208.4 99.9002 208.2 100 208Z" stroke="#13120D" stroke-miterlimit="10"/>
<path d="M95.6003 191.4C95.6003 191.4 89.2002 190.6 86.7002 191.4" stroke="#13110C" stroke-miterlimit="10"/>
<path d="M92.2 187.7L90.1001 185.2H92.2L90.1001 187.7" stroke="#13110C" stroke-miterlimit="10"/>
<path d="M117.2 178L103.3 216.2L102.4 207.8L112 181.4L117.2 178Z" fill="#13120D" stroke="#13120D" stroke-miterlimit="10"/>
<path d="M60.2 192.4L56.1001 195.1L73 221.6H78.3L59.8999 191.9" fill="#E31013"/>
<path d="M60.2 192.4L56.1001 195.1L73 221.6H78.3L59.8999 191.9" stroke="#13110C" stroke-miterlimit="10"/>
<path d="M112 181.4L108.5 183.9L102 201.6L102.5 205.5L112 181.4Z" fill="#E31013" stroke="#13110C" stroke-miterlimit="10"/>
<path d="M108.5 183.9L98.7002 190.7L101.9 201.2L108.5 183.9Z" fill="#BBB32E" stroke="#13110C" stroke-miterlimit="10"/>
<path d="M106.1 187L102.4 197.1" stroke="#13110C" stroke-width="0.5" stroke-miterlimit="10"/>
<path d="M104.3 188L102 195.1" stroke="#13110C" stroke-width="0.5" stroke-miterlimit="10"/>
<path d="M102.4 189.5L101.3 192.8" stroke="#13110C" stroke-width="0.5" stroke-miterlimit="10"/>
<path d="M56.1001 195.1L47.5 195.7C47.5 195.7 52.3 199.9 51.8 221.6H73L56.1001 195.1Z" fill="#BBB32E" stroke="#13110C" stroke-miterlimit="10"/>
<path d="M69.2 220.7L62 214.7C62 214.7 64.4001 214.4 52.6001 196.6" fill="#211C4B"/>
<path d="M69.2 220.7L62 214.7C62 214.7 64.4001 214.4 52.6001 196.6" stroke="#13110C" stroke-width="0.5" stroke-miterlimit="10"/>
<path d="M61.6996 217.3C61.4996 215.9 61.5996 214.7 61.9996 214.6C62.3996 214.5 62.9996 215.6 63.1996 217C63.3996 218.4 63.2995 219.6 62.8995 219.7C62.4995 219.8 61.8996 218.7 61.6996 217.3Z" fill="#211C4B" stroke="#13110C" stroke-width="0.5" stroke-miterlimit="10"/>
<path d="M58.3001 215.4C59.8001 214.2 61.4 213.6 61.7 214.1C62 214.5 61.1 215.9 59.5 217.1C58 218.3 56.4001 218.9 56.1001 218.4C55.8001 217.9 56.8001 216.6 58.3001 215.4Z" fill="#211C4B" stroke="#13110C" stroke-width="0.5" stroke-miterlimit="10"/>
<path d="M58.5003 212.7C57.4003 211.8 56.7003 210.8 57.0003 210.5C57.3003 210.2 58.4003 210.6 59.5003 211.5C60.6003 212.4 61.3003 213.4 61.0003 213.7C60.7003 214 59.6003 213.6 58.5003 212.7Z" fill="#211C4B" stroke="#13110C" stroke-width="0.5" stroke-miterlimit="10"/>
<path d="M52.5 206.3C52.5 205.5 53.2 204.8 54 204.8C54.8 204.8 55.5 205.5 55.5 206.3C55.5 207.1 54.8 207.8 54 207.8C53.2 207.8 52.5 207.1 52.5 206.3Z" fill="#211C4B" stroke="#13110C" stroke-width="0.5" stroke-miterlimit="10"/>
<path d="M52.8999 170.1C52.8999 170.1 73.0001 185.6 74.1001 191.1C74.1001 191.1 82.6 203.4 79.8 213.4L52.8999 170.1Z" fill="#AFA3C7" stroke="#13120D" stroke-width="0.5" stroke-miterlimit="10"/>
<path d="M78.2998 208.6V202.2" stroke="#13110C" stroke-width="0.5" stroke-miterlimit="10"/>
<path d="M76.6001 206.3L76.7 198.7" stroke="#13110C" stroke-width="0.5" stroke-miterlimit="10"/>
<path d="M75.1001 203.5V194.6" stroke="#13110C" stroke-width="0.5" stroke-miterlimit="10"/>
<path d="M73.2002 200.8V192.3" stroke="#13110C" stroke-width="0.5" stroke-miterlimit="10"/>
<path d="M71.2002 197.8L71.4001 189.3" stroke="#13110C" stroke-width="0.5" stroke-miterlimit="10"/>
<path d="M69.2002 193.8V186.7" stroke="#13110C" stroke-width="0.5" stroke-miterlimit="10"/>
<path d="M67.2002 189.5V184.7" stroke="#13110C" stroke-width="0.5" stroke-miterlimit="10"/>
<path d="M65.2002 186.1L65.3003 182.3" stroke="#13110C" stroke-width="0.5" stroke-miterlimit="10"/>
<path d="M63 182.9V180.7" stroke="#13110C" stroke-width="0.5" stroke-miterlimit="10"/>
<path d="M61 180.2V178.9" stroke="#13110C" stroke-width="0.5" stroke-miterlimit="10"/>
<path d="M37.6001 184.3C37.6001 184.3 37.9999 178.1 40.3999 176.3C40.3999 176.3 43.3 177.2 42.5 183.9C42.5 183.9 47.7 183.7 49.2 186.1C49.2 186.1 48 188.9 42.5 188.1C42.5 188.1 42.7 194.3 40.3 196.2C40.3 196.2 37.4001 195.3 38.1001 188.6C38.1001 188.6 32.8999 188.9 31.3999 186.4C31.3999 186.5 32.1001 183.6 37.6001 184.3Z" fill="#FFEA24" stroke="#13110C" stroke-miterlimit="10"/>
<path d="M38.1001 186.4C38.1001 185.2 39.1 184.2 40.3 184.2C41.5 184.2 42.5 185.2 42.5 186.4C42.5 186.9 42.3 187.4 42 187.8C41.6 188.3 41 188.6 40.3 188.6C39.1 188.6 38.1001 187.6 38.1001 186.4Z" fill="#E31013" stroke="#13110C" stroke-miterlimit="10"/>
<path d="M34.2001 166C31.1001 172.2 32.8001 176.6 32.8001 176.6C37.8001 174 36.2001 167 36.2001 167C36.1001 164 38.1002 166.5 38.1002 166.5C42.1002 173.9 39.5001 177.3 39.5001 177.3C39.5001 177.3 40.4001 174.6 42.0001 178C42.0001 178 43.0002 169.5 39.1002 166C39.1002 166 39.2002 164.3 41.1002 166.7C41.1002 166.7 42.0001 170.2 48.0001 169.1C48.0001 169.1 46.5001 163.8 40.8001 164.1C40.7001 164.2 34.6001 165.8 34.2001 166Z" fill="#BBB32E" stroke="#13110C" stroke-miterlimit="10"/>
<path d="M46.2 168.2C46.2 168.2 42.6999 165.7 41.3999 165.5" stroke="#13110C" stroke-width="0.6" stroke-miterlimit="10"/>
<path d="M33.5 174.6C33.5 174.6 35.1 169 35 167.3" stroke="#13110C" stroke-width="0.6" stroke-miterlimit="10"/>
<path d="M30.3999 151.2C30.7999 151.7 36.7 149.8 36.7 149.8C41 144.9 44.6001 145.8 44.6001 145.8C44.6001 145.8 44.5001 160.4 43.1001 161.7C43.1001 161.7 40.1 166.6 31.5 164.7L30.5 164.5V151.2H30.3999Z" fill="#FED68A" stroke="#13110C" stroke-miterlimit="10"/>
<path d="M37.1001 164.7C37.1001 164.7 39 159.6 35 161.2C31 162.7 30.6001 163.3 30.6001 163.3" stroke="#13110C" stroke-miterlimit="10"/>
<path d="M30.6997 162C30.6997 162 38.9998 159.5 36.2998 157.4C36.2998 157.4 33.4998 157.1 30.2998 158.4" stroke="#13110C" stroke-miterlimit="10"/>
<path d="M30.7002 157.3C30.7002 157.3 37.0002 156.4 36.5002 154.3C36.5002 154.3 35.2002 152.7 30.7002 155.2" stroke="#13110C" stroke-miterlimit="10"/>
<path d="M32.3003 154.3C32.3003 154.3 38.8002 152.5 37.5002 151.6C37.5002 151.6 36.8002 150 30.7002 152.2" stroke="#13110C" stroke-miterlimit="10"/>
<path d="M39.1001 159.7C39.1001 159.7 41.5001 152.2 39.1001 151.1" stroke="#13110C" stroke-miterlimit="10"/>
<path d="M98.7002 190.7C94.0002 182.9 90.7002 180.8 90.7002 180.8C100.4 179.6 108.5 183.9 108.5 183.9C108.5 183.9 99.6002 190 98.7002 190.7Z" fill="#AFA3C7" stroke="#13120D" stroke-miterlimit="10"/>
<path d="M100.9 188C100.9 188 98.8002 186.8 97.7002 187.1" stroke="#13110C" stroke-width="0.5" stroke-miterlimit="10"/>
<path d="M102.7 186.4C102.7 186.4 99.7999 184.1 95.8999 184.2" stroke="#13110C" stroke-width="0.5" stroke-miterlimit="10"/>
<path d="M105 184.7C105 184.7 98.7999 181.6 93.8999 181.9" stroke="#13110C" stroke-width="0.5" stroke-miterlimit="10"/>
<path d="M70.7998 185.9C79.5998 180.4 88.2998 181.1 88.2998 181.1C88.2998 181.1 78.1998 186.4 74.7998 191C74.6998 191.1 71.6998 186.4 70.7998 185.9Z" fill="#AFA3C7" stroke="#13120D" stroke-miterlimit="10"/>
<path d="M83.4001 182.3C83.4001 182.3 74.4002 184.4 73.2002 185.8" stroke="#13110C" stroke-width="0.5" stroke-miterlimit="10"/>
<path d="M80.7998 184.7C80.7998 184.7 75.9998 185.9 74.7998 187" stroke="#13110C" stroke-width="0.5" stroke-miterlimit="10"/>
<path d="M77.3 187.1C77.3 187.1 75.8001 187.6 75.1001 188.3" stroke="#13110C" stroke-width="0.5" stroke-miterlimit="10"/>
<path d="M67.2002 182.3C76.7002 176.1 89.2002 175.8 89.2002 175.8C103.5 174.6 113 180.8 113 180.8L108.5 184C108.5 184 100.9 179.7 90.7002 180.9C90.7002 180.9 89.6002 179.8 88.2002 181.2C88.2002 181.2 76.3002 181.9 70.7002 185.7L67.2002 182.3Z" fill="#FFEA24" stroke="#13110C" stroke-miterlimit="10"/>
<path d="M109.6 181.1C109.6 181.1 98 177.2 89.7 178C89.7 178 77.8999 178.4 70.3999 183.3" stroke="#13110C" stroke-miterlimit="10"/>
<path d="M126.8 171.9C126.8 171.9 122.5 169.2 122 175L126.8 171.9Z" fill="#FFEA24"/>
<path d="M126.8 171.9C126.8 171.9 122.5 169.2 122 175" stroke="#13110C" stroke-miterlimit="10"/>
<path d="M54.2002 171.1C67.0002 161.5 90.8003 158.6 90.8003 158.6C111.5 157.5 129.6 170.1 129.6 170.1L127.4 171.5C127.4 171.5 108.8 160.3 93.2002 160.7C93.2002 160.7 69.9003 162.4 56.1003 172.7L54.2002 171.1Z" fill="#FFEA24" stroke="#13110C" stroke-miterlimit="10"/>
<path d="M114.2 179.6C116.7 168.3 120.8 168.7 120.8 168.7V169C123.4 168.7 121 175.7 121 175.7" fill="#FFEA24"/>
<path d="M114.2 179.6C116.7 168.3 120.8 168.7 120.8 168.7V169C123.4 168.7 121 175.7 121 175.7" stroke="#13110C" stroke-width="0.5" stroke-miterlimit="10"/>
<path d="M118.8 177C118.8 177 119.8 173.6 118.8 173.5C118.8 173.5 117.3 175.3 116.9 178L118.8 177Z" fill="#211C4B" stroke="#13110C" stroke-width="0.5" stroke-miterlimit="10"/>
<path d="M93.7999 166.4C95.2999 165.1 94.9999 173.6 94.9999 173.6C94.7999 175.2 95.9999 175.1 95.9999 175.1C95.9999 175.1 98.1999 163.1 94.2999 162C94.2999 162 90.4998 162 91.1998 175.1C91.1998 175.1 91.9999 175.4 92.2999 173.2C92.1999 173.1 92.6999 166.7 93.7999 166.4Z" fill="#FFEA24" stroke="#13110C" stroke-width="0.5" stroke-miterlimit="10"/>
<path d="M88.4999 166.7C89.8999 165.3 90.1999 174 90.1999 174C90.0999 175.7 91.3 175.5 91.3 175.5C91.3 175.5 92.5 162.9 88.6 162.1C88.6 162.1 84.9 162.4 86.6 175.8C86.6 175.8 87.3999 176.1 87.4999 173.8C87.4999 173.8 87.4999 167.1 88.4999 166.7Z" fill="#FFEA24" stroke="#13110C" stroke-width="0.5" stroke-miterlimit="10"/>
<path d="M83.0001 167C84.3001 165.5 85.1002 174 85.1002 174C85.1002 175.6 86.2001 175.4 86.2001 175.4C86.2001 175.4 86.8 163.1 82.9 162.6C82.9 162.6 79.2002 163.1 81.6002 176C81.6002 176 82.4 176.2 82.4 174C82.4 174 82.0001 167.5 83.0001 167Z" fill="#FFEA24" stroke="#13110C" stroke-width="0.5" stroke-miterlimit="10"/>
<path d="M77.3001 168.7C78.5001 167.2 79.8001 174.8 79.8001 174.8C79.9001 176.3 81 175.9 81 175.9C81 175.9 80.7001 164.8 76.8001 164.7C76.8001 164.7 73.0999 165.5 76.3999 176.9C76.3999 176.9 77.2001 177 77.1001 175C77.1001 175 76.3001 169.2 77.3001 168.7Z" fill="#FFEA24" stroke="#13110C" stroke-width="0.5" stroke-miterlimit="10"/>
<path d="M71.6998 170.4C72.7998 168.8 74.7999 176.3 74.7999 176.3C75.0999 177.8 76.1 177.3 76.1 177.3C76.1 177.3 74.7998 166.2 70.8998 166.5C70.8998 166.5 67.3 167.6 71.6 178.7C71.6 178.7 72.4 178.7 72.1 176.8C72.1 176.8 70.6998 171.1 71.6998 170.4Z" fill="#FFEA24" stroke="#13110C" stroke-width="0.5" stroke-miterlimit="10"/>
<path d="M113.9 170.6C115.5 169.8 113.2 177.5 113.2 177.5C112.6 178.9 113.7 179.1 113.7 179.1C113.7 179.1 118.5 168.5 115.4 166.7C115.4 166.7 112.1 165.8 109.6 178C109.6 178 110.2 178.5 111 176.5C111 176.5 112.9 170.7 113.9 170.6Z" fill="#FFEA24" stroke="#13110C" stroke-width="0.5" stroke-miterlimit="10"/>
<path d="M109.3 169.1C110.9 168.2 109 176 109 176C108.5 177.5 109.6 177.6 109.6 177.6C109.6 177.6 113.7 166.7 110.5 165.1C110.5 165.1 107.2 164.4 105.4 176.8C105.4 176.8 106 177.2 106.7 175.2C106.7 175.1 108.2 169.2 109.3 169.1Z" fill="#FFEA24" stroke="#13110C" stroke-width="0.5" stroke-miterlimit="10"/>
<path d="M104.1 167.5C105.7 166.4 104.3 174.7 104.3 174.7C103.9 176.3 105 176.3 105 176.3C105 176.3 108.5 164.7 105 163.3C105 163.3 101.4 162.8 100.5 175.7C100.5 175.7 101.2 176.1 101.8 174C101.8 174 103 167.7 104.1 167.5Z" fill="#FFEA24" stroke="#13110C" stroke-width="0.5" stroke-miterlimit="10"/>
<path d="M99.3999 166.7C100.7 165.5 99.7 174.3 99.7 174.3C99.4 176 100.3 175.9 100.3 175.9C100.3 175.9 103.2 163.4 100.2 162.1C100.2 162.1 97.2 161.8 96.5 175.6C96.5 175.6 97.1 176 97.5 173.7C97.5 173.7 98.4999 167 99.3999 166.7Z" fill="#FFEA24" stroke="#13110C" stroke-width="0.5" stroke-miterlimit="10"/>
<path d="M129.2 155.5C129.2 154.9 129.7 154.5 130.2 154.5C130.8 154.5 131.2 155 131.2 155.5C131.2 156.1 130.7 156.5 130.2 156.5C129.7 156.5 129.2 156.1 129.2 155.5Z" fill="#FFEA24"/>
<path d="M133.7 155L139.7 160.9H136.4L136 163.2L130.9 158.5L133.6 157.8L133.7 155Z" fill="#FFEA24"/>
<path d="M139.1 149L133.2 155V151.7L130.9 151.2L135.6 146.1L136.3 148.9L139.1 149Z" fill="#FFEA24"/>
<path d="M121.6 162L126.9 155.5L127.2 158.8L129.6 159L125.3 164.5L124.4 161.8L121.6 162Z" fill="#FFEA24"/>
<path d="M124.9 148L130 152.8H127.2L126.8 154.7L122.5 150.9L124.9 150.3V148Z" fill="#FFEA24"/>
<path d="M137.3 143.8L143.9 136.9L144 140.7L146.6 141.2L141.3 147L140.5 143.9L137.3 143.8Z" fill="#FFEA24"/>
<path d="M132.7 133.5C132.7 132.7 133.3 132.1 134.1 132.1C134.9 132.1 135.5 132.7 135.5 133.5C135.5 134.3 134.9 134.9 134.1 134.9C133.3 134.9 132.7 134.3 132.7 133.5Z" fill="#FFEA24"/>
<path d="M142 137.3L141.4 134.9C141.4 134.9 129.7 141 128.4 149.1L129.6 149.9C129.6 149.9 134.7 140.4 142 137.3Z" fill="#FFEA24"/>
<path d="M126.8 166.2C126.8 166.2 126.9 166.2 126.9 166.1C128.8 165 131.3 160 131.3 160L132.7 161.6C132.7 161.6 129.5 166.7 127.5 167.9" fill="#FFEA24"/>
<path d="M118 161C118.7 158.4 123.9 154 123.9 154L125.3 155.5C125.3 155.5 119.4 160.3 119.2 161C119 161.8 118 161 118 161Z" fill="#FFEA24"/>
<path d="M120.4 126.4C120.4 126.4 116.4 143.6 115 144.5C113.7 145.4 103.1 136.3 104.3 126.4H106C106 126.4 106.6 137.7 114.2 141.4L118.4 126.4H120.4Z" fill="#FFEA24" stroke="#13110C" stroke-miterlimit="10"/>
<path d="M114.4 138.4C114.4 138.4 110.2 139.4 109.7 134.9C109.7 134.9 110.8 131.2 115.1 130.6C115.1 130.6 117.2 131.3 114.8 132.4C114.8 132.4 109.7 136.1 114 135.5C114 135.5 116.7 132.9 114.4 138.4Z" fill="#FFEA24" stroke="#13110C" stroke-miterlimit="10"/>
<path d="M112.9 126.4C107.9 127.3 111.3 129 111.3 129C114.4 128.4 115.5 128.7 115.5 128.7C115.5 128.7 109 134.9 107.3 129.8C107.2 129.8 108.1 126.4 112.9 126.4Z" fill="#FFEA24" stroke="#13110C" stroke-miterlimit="10"/>
<path d="M129.2 126.4C129.2 126.4 122.8 154.1 116.7 158.4L115.4 144.1L120.3 126.3H129.2V126.4Z" fill="#AFA3C7" stroke="#13120D" stroke-miterlimit="10"/>
<path d="M116.5 155.5L120.4 147.5L119.1 146.6L116.9 149.6L116.4 146.1L118 143.8L121.6 144.9L124.7 136.5L122.8 135.6L120.8 141.7L119.3 140.8L121.6 133.3L125.6 134L127.1 126.9" stroke="#13110C" stroke-miterlimit="10"/>
<path d="M125.3 126.9L123.8 131L122.3 130.3L122.9 126.4" stroke="#13110C" stroke-miterlimit="10"/>
<path d="M116.4 158.5C116.4 158.5 103.6 155.6 102 154.3C100.4 153 98.4997 143.1 98.6997 137.8L94.7998 137.3C94.7998 137.3 96.2998 155.2 98.4998 158C98.4998 158 115 162.6 115.5 162.8L116.4 158.5Z" fill="#13110C" stroke="#13110C" stroke-miterlimit="10"/>
<path d="M116.4 157.7L116 152C116 152 105.7 149 105.6 147.7C105.5 146.4 103.5 138.6 103.5 138.6L98.8 137.9C98.8 137.9 98.2999 153 101.9 154.4L116.4 157.7Z" fill="#E31013" stroke="#13110C" stroke-miterlimit="10"/>
<path d="M113.4 154.5C113.4 154 113.8 153.7 114.2 153.7C114.7 153.7 115 154.1 115 154.5C115 154.9 114.6 155.3 114.2 155.3C113.8 155.3 113.4 154.9 113.4 154.5Z" fill="white" stroke="#13110C" stroke-width="0.5" stroke-miterlimit="10"/>
<path d="M110.5 153.6C110.5 153.1 110.9 152.8 111.3 152.8C111.7 152.8 112.1 153.2 112.1 153.6C112.1 154.1 111.7 154.4 111.3 154.4C110.9 154.4 110.5 154.1 110.5 153.6Z" fill="white" stroke="#13110C" stroke-width="0.5" stroke-miterlimit="10"/>
<path d="M107.3 152.8C107.3 152.3 107.7 152 108.1 152C108.5 152 108.9 152.4 108.9 152.8C108.9 153.2 108.5 153.6 108.1 153.6C107.7 153.6 107.3 153.2 107.3 152.8Z" fill="white" stroke="#13110C" stroke-width="0.5" stroke-miterlimit="10"/>
<path d="M103.7 150.9C103.7 150.4 104.1 150.1 104.5 150.1C104.9 150.1 105.3 150.5 105.3 150.9C105.3 151.4 104.9 151.7 104.5 151.7C104.1 151.7 103.7 151.4 103.7 150.9Z" fill="white" stroke="#13110C" stroke-width="0.5" stroke-miterlimit="10"/>
<path d="M102 147.8C102 147.3 102.4 147 102.8 147C103.2 147 103.6 147.4 103.6 147.8C103.6 148.2 103.2 148.6 102.8 148.6C102.4 148.6 102 148.3 102 147.8Z" fill="white" stroke="#13110C" stroke-width="0.5" stroke-miterlimit="10"/>
<path d="M101.2 144.9C101.2 144.4 101.6 144.1 102 144.1C102.4 144.1 102.8 144.5 102.8 144.9C102.8 145.3 102.4 145.7 102 145.7C101.6 145.7 101.2 145.4 101.2 144.9Z" fill="white" stroke="#13110C" stroke-width="0.5" stroke-miterlimit="10"/>
<path d="M100.6 141.2C100.6 140.7 101 140.4 101.4 140.4C101.8 140.4 102.2 140.8 102.2 141.2C102.2 141.6 101.8 142 101.4 142C101 142 100.6 141.6 100.6 141.2Z" fill="white" stroke="#13110C" stroke-width="0.5" stroke-miterlimit="10"/>
<path d="M107.8 138.3L103.5 138.5L105.6 147.7C105.6 147.7 114.9 152.3 116 151.9L115.5 144.7C115.5 144.7 112.3 144.4 107.8 138.3Z" fill="#13110C" stroke="#13110C" stroke-miterlimit="10"/>
<path d="M114 146.8C114 146.8 107.6 147.5 107.6 141" stroke="white" stroke-miterlimit="10"/>
<path d="M91.5002 137.2L86.2002 135.5C86.2002 135.5 87.1003 158.2 88.6003 158.8L95.0002 158.4C94.9002 158.5 91.0002 144.2 91.5002 137.2Z" fill="#AFA3C7" stroke="#13120D" stroke-miterlimit="10"/>
<path d="M93.8 154.7L87.8999 154.8" stroke="#13110C" stroke-miterlimit="10"/>
<path d="M92.7 150.9H87.3999" stroke="#13110C" stroke-miterlimit="10"/>
<path d="M91.8999 147.5L87.1001 147.4" stroke="#13110C" stroke-miterlimit="10"/>
<path d="M91.5 144.3H87.1001" stroke="#13110C" stroke-miterlimit="10"/>
<path d="M90.9998 140.3H86.7998" stroke="#13110C" stroke-miterlimit="10"/>
<path d="M90.1001 137.3H86.5" stroke="#13110C" stroke-miterlimit="10"/>
<path d="M85.5999 135.2L83.2998 134.6C83.2998 134.6 84.0997 158.9 85.1997 159.4L88.1997 158.9C88.2997 158.9 85.4999 140.8 85.5999 135.2Z" fill="#FFEA24" stroke="#13110C" stroke-miterlimit="10"/>
<path d="M83 134.6L79.5 133.7C79.5 133.7 80.0001 153.7 77.6001 161.1L85 159.4C85 159.4 82.9 141.4 83 134.6Z" fill="#AFA3C7" stroke="#13120D" stroke-miterlimit="10"/>
<path d="M84.1001 155.4L79 155.8" stroke="#13110C" stroke-miterlimit="10"/>
<path d="M83.6997 151.4L79.2998 151.8" stroke="#13110C" stroke-miterlimit="10"/>
<path d="M83.3 148.1L79.6001 148.2" stroke="#13110C" stroke-miterlimit="10"/>
<path d="M83.2998 144.6H79.7998" stroke="#13110C" stroke-miterlimit="10"/>
<path d="M82.8999 141H80" stroke="#13110C" stroke-miterlimit="10"/>
<path d="M82.6997 137.8H79.7998" stroke="#13110C" stroke-miterlimit="10"/>
<path d="M79 133.7L77.3 133.4C77.3 133.4 77.0001 161.2 74.6001 161.9L77.5 161.1C77.5 161.1 80.4 150 79 133.7Z" fill="#FFEA24" stroke="#13110C" stroke-miterlimit="10"/>
<path d="M76.7002 133.4L75.1003 133.2C75.1003 133.2 75.3002 156.3 73.0002 156.5C73.0002 156.5 59.6001 163.5 56.4001 164.4L55.7002 170.1C55.7002 170.1 67.6002 163.3 74.7002 161.9C74.6002 161.9 77.3002 151.2 76.7002 133.4Z" fill="#13110C" stroke="#13110C" stroke-miterlimit="10"/>
<path d="M74.6997 133.2H72.7998C72.7998 133.2 72.0997 137.8 67.6997 141.9V151.8L57.2998 156.8L56.2998 164.2C56.2998 164.2 71.4998 157.8 72.9998 156.5C72.9998 156.5 75.4999 159.4 75.0999 135.9L74.6997 133.2Z" fill="#E31013" stroke="#13110C" stroke-miterlimit="10"/>
<path d="M58.8999 158.5C58.8999 158 59.3 157.6 59.8 157.6C60.3 157.6 60.7 158 60.7 158.5C60.7 159 60.3 159.4 59.8 159.4C59.3 159.4 58.8999 159 58.8999 158.5Z" fill="white" stroke="#13110C" stroke-width="0.5" stroke-miterlimit="10"/>
<path d="M62.2998 157.2C62.2998 156.7 62.6997 156.3 63.1997 156.3C63.6997 156.3 64.0999 156.7 64.0999 157.2C64.0999 157.7 63.6997 158.1 63.1997 158.1C62.6997 158.1 62.2998 157.7 62.2998 157.2Z" fill="white" stroke="#13110C" stroke-width="0.5" stroke-miterlimit="10"/>
<path d="M65.7002 155.8C65.7002 155.3 66.1003 154.9 66.6003 154.9C67.1003 154.9 67.5002 155.3 67.5002 155.8C67.5002 156.3 67.1003 156.7 66.6003 156.7C66.1003 156.7 65.7002 156.3 65.7002 155.8Z" fill="white" stroke="#13110C" stroke-width="0.5" stroke-miterlimit="10"/>
<path d="M70.1003 154.9C70.5974 154.9 71.0002 154.497 71.0002 154C71.0002 153.503 70.5974 153.1 70.1003 153.1C69.6033 153.1 69.2002 153.503 69.2002 154C69.2002 154.497 69.6033 154.9 70.1003 154.9Z" fill="white" stroke="#13110C" stroke-width="0.5" stroke-miterlimit="10"/>
<path d="M71 151.4C71.4971 151.4 71.8999 150.997 71.8999 150.5C71.8999 150.003 71.4971 149.6 71 149.6C70.5029 149.6 70.1001 150.003 70.1001 150.5C70.1001 150.997 70.5029 151.4 71 151.4Z" fill="white" stroke="#13110C" stroke-width="0.5" stroke-miterlimit="10"/>
<path d="M71.1997 147.9C71.6968 147.9 72.0999 147.497 72.0999 147C72.0999 146.503 71.6968 146.1 71.1997 146.1C70.7027 146.1 70.2998 146.503 70.2998 147C70.2998 147.497 70.7027 147.9 71.1997 147.9Z" fill="white" stroke="#13110C" stroke-width="0.5" stroke-miterlimit="10"/>
<path d="M71.1997 144.6C71.6968 144.6 72.0999 144.197 72.0999 143.7C72.0999 143.203 71.6968 142.8 71.1997 142.8C70.7027 142.8 70.2998 143.203 70.2998 143.7C70.2998 144.197 70.7027 144.6 71.1997 144.6Z" fill="white" stroke="#13110C" stroke-width="0.5" stroke-miterlimit="10"/>
<path d="M71.1997 140.6C71.6968 140.6 72.0999 140.197 72.0999 139.7C72.0999 139.203 71.6968 138.8 71.1997 138.8C70.7027 138.8 70.2998 139.203 70.2998 139.7C70.2998 140.197 70.7027 140.6 71.1997 140.6Z" fill="white" stroke="#13110C" stroke-width="0.5" stroke-miterlimit="10"/>
<path d="M72.8001 132.7C72.2001 133.3 73.9 129.6 73.9 129.6C77.4 128.9 87.5001 132.6 87.5001 132.6C97.8001 136.7 106.3 135.7 106.3 135.7L107.9 138.3C107.9 138.3 99.4 137.8 94.9 137C94.9 137 87.7001 136.6 81.3001 133.9C81.2001 133.9 73.0001 132.5 72.8001 132.7Z" fill="white" stroke="#13110C" stroke-miterlimit="10"/>
<path d="M100.9 130.2C100.9 129.7 101.3 129.4 101.7 129.4C102.1 129.4 102.5 129.8 102.5 130.2C102.5 130.6 102.1 131 101.7 131C101.3 131 100.9 130.6 100.9 130.2Z" fill="white" stroke="#13110C" stroke-width="0.5" stroke-miterlimit="10"/>
<path d="M97.2002 129.6C97.2002 129.1 97.6002 128.8 98.0002 128.8C98.4002 128.8 98.8003 129.2 98.8003 129.6C98.8003 130.1 98.4002 130.4 98.0002 130.4C97.6002 130.4 97.2002 130.1 97.2002 129.6Z" fill="white" stroke="#13110C" stroke-width="0.5" stroke-miterlimit="10"/>
<path d="M93.8999 129.1C93.8999 128.6 94.3 128.3 94.7 128.3C95.1 128.3 95.5 128.7 95.5 129.1C95.5 129.5 95.1 129.9 94.7 129.9C94.3 129.9 93.8999 129.6 93.8999 129.1Z" fill="white" stroke="#13110C" stroke-width="0.5" stroke-miterlimit="10"/>
<path d="M90.6001 128.3C90.6001 127.8 90.9999 127.5 91.3999 127.5C91.7999 127.5 92.2 127.9 92.2 128.3C92.2 128.8 91.7999 129.1 91.3999 129.1C90.9999 129.1 90.6001 128.8 90.6001 128.3Z" fill="white" stroke="#13110C" stroke-width="0.5" stroke-miterlimit="10"/>
<path d="M74.2 126.7L74 129.7C76.5 129.1 88.7 132.9 88.7 132.9C89.5 133.5 93 134.6 93 134.6C97.3 136.3 106.3 135.9 106.3 135.9L105 133L87.7 130.4C87.8 130.2 75.2 127.7 74.2 126.7Z" fill="#13110C" stroke="#13110C" stroke-miterlimit="10"/>
<path d="M67.7002 142C67.7002 142 62.6002 146.2 57.7002 146.1L57.2002 156.7L67.7002 151.8V142Z" fill="#13110C" stroke="#13110C" stroke-miterlimit="10"/>
<path d="M65.8999 144.3C65.8999 144.3 66.6001 149.3 63.6001 149.7L58.5 151.6" stroke="white" stroke-miterlimit="10"/>
<path d="M73.5002 126.4C73.5002 126.4 73.3002 139.8 65.5002 143.5C65.5002 143.5 60.3002 146.7 57.7002 145.7L57.9001 143.4C57.9001 143.4 70.1003 144.6 71.6003 127.6L71.5002 126.4H73.5002Z" fill="#FFEA24" stroke="#13110C" stroke-miterlimit="10"/>
<path d="M59.7998 126.7C59.7998 126.7 56.7998 146.9 56.7998 151C56.7998 151 56.4998 169.2 54.2998 170.7C54.2998 170.7 52.6998 170.3 52.2998 169.3C52.2998 169.3 54.7998 158.6 54.9998 150.5C54.9998 150.5 56.4998 129.3 57.4998 126.6H59.7998V126.7Z" fill="#FFEA24" stroke="#13110C" stroke-miterlimit="10"/>
<path d="M52 168.6L47.8999 165.2L45.1001 162.9C45.1001 162.9 47.7 158.5 47.5 144.6C47.5 144.6 48.2 128.9 49.2 126.5H57.7L55.5 146.7C55.4 146.6 53.5 169.9 52 168.6Z" fill="#AFA3C7" stroke="#13120D" stroke-miterlimit="10"/>
<path d="M55.1001 126.7L54.6001 133.2H49.8999L49.7 141H51.8999V135.5H53.8V143.7H49.2V151.4L51.3999 151.6V146.1L52.8999 145.9V153.8H49.2V157.2H47.8999V161.9H50.5V156.7H52.1001V165.2H47.8999" stroke="#13110C" stroke-miterlimit="10"/>
<path d="M53.1997 126.4L52.8997 130.5L50.7998 130L51.3997 126.4" stroke="#13110C" stroke-miterlimit="10"/>
<path d="M49.2 126.4H46.7C46.7 126.4 43.9001 145.8 44.6001 150.5C44.6001 150.5 44.1001 161.3 43.1001 161.7L45.1001 162.8C45.1001 162.8 48.2 154.3 47.5 146.1C47.5 146.1 48.1 129 49.2 126.4Z" fill="#FFEA24" stroke="#13110C" stroke-miterlimit="10"/>
<path d="M46.1001 127.2L30.3999 143.3V151.2L36.7 149.8C36.7 149.8 40.7001 145.2 44.6001 145.7L46.7 126.4H46.1001V127.2Z" fill="#E31013" stroke="#13110C" stroke-miterlimit="10"/>
<path d="M44.6001 126.4L30.3999 140.3V143.3L46.1001 126.4H44.6001Z" fill="#FFEA24" stroke="#13110C" stroke-miterlimit="10"/>
<path d="M32 131.6C32 130.7 32.7001 130 33.6001 130C34.5001 130 35.2 130.7 35.2 131.6C35.2 132.5 34.5001 133.2 33.6001 133.2C32.7001 133.2 32 132.5 32 131.6Z" fill="#FFEA24" stroke="#13110C" stroke-miterlimit="10"/>
<path d="M62.7 128.3C66.6 129.6 69.3999 126.4 69.3999 126.4H71.3C71.3 126.4 70.5 133.5 62.5 128.1" fill="#FFEA24"/>
<path d="M62.7 128.3C66.6 129.6 69.3999 126.4 69.3999 126.4H71.3C71.3 126.4 70.5 133.5 62.5 128.1" stroke="#13110C" stroke-miterlimit="10"/>
<path d="M62.1996 130.2C62.1996 130.2 66.9998 133.8 65.5998 134.6C65.5998 134.6 64.1998 135.6 61.5998 132.6C61.5998 132.6 59.3997 133 61.9997 135.8C64.5997 138.6 66.5998 139.1 68.5998 136.7C68.5998 136.7 72.1998 131.8 62.5998 130" fill="#FFEA24"/>
<path d="M62.1996 130.2C62.1996 130.2 66.9998 133.8 65.5998 134.6C65.5998 134.6 64.1998 135.6 61.5998 132.6C61.5998 132.6 59.3997 133 61.9997 135.8C64.5997 138.6 66.5998 139.1 68.5998 136.7C68.5998 136.7 72.1998 131.8 62.5998 130" stroke="#13110C" stroke-miterlimit="10"/>
<path d="M58.2001 138.3C57.9001 144.9 61.0002 142 61.0002 142C65.9002 139.6 59.8002 134.3 59.8002 134.3C59.8002 134.3 60.9002 139.5 59.8002 137.8C59.8002 137.8 58.5001 132.5 58.2001 138.3Z" fill="#FFEA24" stroke="#13110C" stroke-miterlimit="10"/>
<path d="M128.3 192.1C128.1 192.3 127.9 192.5 127.7 192.8L121 201L117.3 205.5C115.4 207.8 115.7 211.2 118.1 213.1L118.5 213.4C120.8 215.3 124.2 215 126.1 212.6L128.3 209.9L130.5 212.6C132.4 214.9 135.8 215.3 138.1 213.4L138.5 213.1C140.8 211.2 141.2 207.8 139.3 205.5L128.9 192.7C128.7 192.5 128.5 192.3 128.3 192.1Z" fill="#E30B13"/>
<path d="M161.6 204.9C161.4 205.1 161.3 205.2 161.1 205.4L155.9 211.8L153 215.3C151.5 217.1 151.8 219.8 153.6 221.2L153.9 221.5C155.7 223 158.4 222.7 159.8 220.9L161.5 218.8L163.2 220.9C164.7 222.7 167.3 223 169.1 221.5L169.4 221.2C171.2 219.7 171.5 217.1 170 215.3L161.9 205.4C161.9 205.2 161.8 205 161.6 204.9Z" fill="#E30B13"/>
<path d="M155.8 227.5C156.6 227.5 157.2 227.5 157.6 227.6C158 227.7 158.4 227.9 158.8 228.2C159.7 227.5 160.6 227.1 161.7 227.1C162.8 227.1 163.8 227.5 164.7 228.3C165.6 229.1 166.1 230.1 166.1 231.2V232.8H167.3V234.8C167.3 234.8 166.9 234.8 166.1 234.9V241.1C166.1 242.2 165.6 243.2 164.7 244.1C163.8 244.9 162.8 245.3 161.7 245.3C160.6 245.3 159.5 244.9 158.6 244.1C157.7 243.3 157.2 242.3 157.2 241.2V231.3C157.2 230.8 157.3 230.4 157.5 229.9C157.3 229.8 157.1 229.7 157 229.6H155.8V227.5ZM164 234.9C163.1 234.8 162.3 234.4 161.4 233.7C160.9 233.3 160.2 232.6 159.4 231.7V241.1C159.4 241.6 159.6 242.1 160.1 242.5C160.6 242.9 161.1 243.1 161.7 243.1C162.3 243.1 162.8 242.9 163.3 242.5C163.8 242.1 164 241.6 164 241.1V234.9ZM160.5 229.7L163.2 232.4C163.4 232.6 163.7 232.8 164.1 232.8V231.3C164.1 230.8 163.9 230.4 163.4 229.9C162.9 229.5 162.4 229.3 161.8 229.3C161.3 229.3 160.9 229.4 160.5 229.7Z" fill="#E30B13"/>
</svg>
