<svg width="181" height="254" viewBox="0 0 181 254" fill="none" xmlns="http://www.w3.org/2000/svg">
<path d="M179.9 231.4C179.9 243.2 173.1 252.8 164.7 252.8H16.4003C8.00027 252.8 1.2002 243.2 1.2002 231.4V22.3002C1.2002 10.5002 8.00027 0.900146 16.4003 0.900146H164.7C173.1 0.900146 179.9 10.5002 179.9 22.3002V231.4Z" fill="white" stroke="#1D1D1B" stroke-miterlimit="10"/>
<path d="M13.8003 12.1002V7.40015H24.1002L25.3003 9.40015C22.4003 13.5001 20.4003 18.7001 19.3003 24.9001H16.8003C17.8003 19.2001 19.5002 14.2001 22.0002 9.90015H16.2002V12.1002H13.8003Z" fill="#1D1D1B"/>
<path d="M167.1 238.9V243.6H156.8L155.6 241.6C158.5 237.5 160.5 232.3 161.6 226.1H164.1C163.1 231.8 161.4 236.8 158.9 241.1H164.7V238.9H167.1Z" fill="#1D1D1B"/>
<path d="M17.9 42.9001C18.3 44.0001 19 45.6002 20.1 46.3002H15.3C16.5 45.3002 17.1 43.9001 17.4 42.9001C16.7 44.1001 15.4 44.9001 14 44.9001C11.8 44.9001 10 43.1001 10 40.9001C10 38.7001 11.8 36.9001 14 36.9001C14.4 36.9001 14.9 37.0002 15.3 37.1002C14.5 36.4002 14 35.3002 14 34.2002C14 32.0002 15.8 30.2002 18 30.2002C20.2 30.2002 22 32.0002 22 34.2002C22 35.4002 21.4 36.5002 20.6 37.2002C20.9 37.1002 21.3 37.1002 21.6 37.1002C23.8 37.1002 25.6 38.9002 25.6 41.1002C25.6 43.3002 23.8 45.1002 21.6 45.1002C19.9 45.1002 18.6 44.2001 17.9 42.9001Z" fill="#1D1D1B"/>
<path d="M164.9 210.8C164.5 209.7 163.8 208.1 162.7 207.4H167.5C166.3 208.4 165.7 209.8 165.4 210.8C166.1 209.6 167.4 208.8 168.8 208.8C171 208.8 172.8 210.6 172.8 212.8C172.8 215 171 216.8 168.8 216.8C168.4 216.8 167.9 216.7 167.5 216.6C168.3 217.3 168.8 218.4 168.8 219.5C168.8 221.7 167 223.5 164.8 223.5C162.6 223.5 160.8 221.7 160.8 219.5C160.8 218.3 161.4 217.2 162.2 216.5C161.9 216.6 161.5 216.6 161.2 216.6C159 216.6 157.2 214.8 157.2 212.6C157.2 210.4 159 208.6 161.2 208.6C162.9 208.7 164.3 209.6 164.9 210.8Z" fill="#1D1D1B"/>
<path d="M48.2002 47.1002C49.0002 49.6002 50.5002 53.0001 53.1002 54.5001H42.5002C45.2002 52.4001 46.5002 49.2001 47.0002 47.0001C45.5002 49.6001 42.7002 51.4001 39.5002 51.4001C34.7002 51.4001 30.8003 47.5002 30.8003 42.7002C30.8003 37.9002 34.7002 34.0001 39.5002 34.0001C40.5002 34.0001 41.4003 34.2001 42.3003 34.4001C40.6003 32.8001 39.5002 30.6002 39.5002 28.1002C39.5002 23.3002 43.4002 19.4001 48.2002 19.4001C53.0002 19.4001 56.9003 23.3002 56.9003 28.1002C56.9003 30.8002 55.7003 33.2002 53.8003 34.8002C54.5003 34.6002 55.3002 34.5001 56.0002 34.5001C60.8002 34.5001 64.7002 38.4002 64.7002 43.2002C64.7002 48.0002 60.8002 51.9001 56.0002 51.9001C52.6002 51.9001 49.6002 50.0002 48.2002 47.1002Z" fill="#1D1D1B"/>
<path d="M47.3003 206.6C46.5003 204.1 45.0003 200.7 42.4003 199.2H53.0002C50.3002 201.3 49.0002 204.5 48.5002 206.7C50.0002 204.1 52.8002 202.3 56.0002 202.3C60.8002 202.3 64.7002 206.2 64.7002 211C64.7002 215.8 60.8002 219.7 56.0002 219.7C55.0002 219.7 54.1002 219.5 53.2002 219.3C54.9002 220.9 56.0002 223.1 56.0002 225.6C56.0002 230.4 52.1003 234.3 47.3003 234.3C42.5003 234.3 38.6002 230.4 38.6002 225.6C38.6002 222.9 39.8002 220.5 41.7002 218.9C41.0002 219.1 40.2002 219.2 39.5002 219.2C34.7002 219.2 30.8003 215.3 30.8003 210.5C30.8003 205.7 34.7002 201.8 39.5002 201.8C42.9002 201.8 45.8003 203.7 47.3003 206.6Z" fill="#1D1D1B"/>
<path d="M134.1 47.1002C134.9 49.6002 136.4 53.0001 139 54.5001H128.4C131.1 52.4001 132.4 49.2001 132.9 47.0001C131.4 49.6001 128.6 51.4001 125.4 51.4001C120.6 51.4001 116.7 47.5002 116.7 42.7002C116.7 37.9002 120.6 34.0001 125.4 34.0001C126.4 34.0001 127.3 34.2001 128.2 34.4001C126.5 32.8001 125.4 30.6002 125.4 28.1002C125.4 23.3002 129.3 19.4001 134.1 19.4001C138.9 19.4001 142.8 23.3002 142.8 28.1002C142.8 30.8002 141.6 33.2002 139.7 34.8002C140.4 34.6002 141.2 34.5001 141.9 34.5001C146.7 34.5001 150.6 38.4002 150.6 43.2002C150.6 48.0002 146.7 51.9001 141.9 51.9001C138.5 51.9001 135.6 50.0002 134.1 47.1002Z" fill="#1D1D1B"/>
<path d="M133.2 206.6C132.4 204.1 130.9 200.7 128.3 199.2H138.9C136.2 201.3 134.9 204.5 134.4 206.7C135.9 204.1 138.7 202.3 141.9 202.3C146.7 202.3 150.6 206.2 150.6 211C150.6 215.8 146.7 219.7 141.9 219.7C140.9 219.7 140 219.5 139.1 219.3C140.8 220.9 141.9 223.1 141.9 225.6C141.9 230.4 138 234.3 133.2 234.3C128.4 234.3 124.5 230.4 124.5 225.6C124.5 222.9 125.7 220.5 127.6 218.9C126.9 219.1 126.1 219.2 125.4 219.2C120.6 219.2 116.7 215.3 116.7 210.5C116.7 205.7 120.6 201.8 125.4 201.8C128.8 201.8 131.8 203.7 133.2 206.6Z" fill="#1D1D1B"/>
<path d="M48.2002 136.9C49.0002 139.4 50.5002 142.8 53.1002 144.3H42.5002C45.2002 142.2 46.5002 139 47.0002 136.8C45.5002 139.4 42.7002 141.2 39.5002 141.2C34.7002 141.2 30.8003 137.3 30.8003 132.5C30.8003 127.7 34.7002 123.8 39.5002 123.8C40.5002 123.8 41.4003 124 42.3003 124.2C40.6003 122.6 39.5002 120.4 39.5002 117.9C39.5002 113.1 43.4002 109.2 48.2002 109.2C53.0002 109.2 56.9003 113.1 56.9003 117.9C56.9003 120.6 55.7003 123 53.8003 124.6C54.5003 124.4 55.3002 124.3 56.0002 124.3C60.8002 124.3 64.7002 128.2 64.7002 133C64.7002 137.8 60.8002 141.7 56.0002 141.7C52.6002 141.7 49.6002 139.8 48.2002 136.9Z" fill="#1D1D1B"/>
<path d="M134.1 136.9C134.9 139.4 136.4 142.8 139 144.3H128.4C131.1 142.2 132.4 139 132.9 136.8C131.4 139.4 128.6 141.2 125.4 141.2C120.6 141.2 116.7 137.3 116.7 132.5C116.7 127.7 120.6 123.8 125.4 123.8C126.4 123.8 127.3 124 128.2 124.2C126.5 122.6 125.4 120.4 125.4 117.9C125.4 113.1 129.3 109.2 134.1 109.2C138.9 109.2 142.8 113.1 142.8 117.9C142.8 120.6 141.6 123 139.7 124.6C140.4 124.4 141.2 124.3 141.9 124.3C146.7 124.3 150.6 128.2 150.6 133C150.6 137.8 146.7 141.7 141.9 141.7C138.5 141.7 135.6 139.8 134.1 136.9Z" fill="#1D1D1B"/>
<path d="M88.0001 92.2002C88.8001 94.7002 90.3001 98.1002 92.9001 99.6002H82.3002C85.0002 97.5002 86.3002 94.3002 86.8002 92.1002C85.3002 94.7002 82.5002 96.5001 79.3002 96.5001C74.5002 96.5001 70.6001 92.6002 70.6001 87.8002C70.6001 83.0002 74.5002 79.1002 79.3002 79.1002C80.3002 79.1002 81.2001 79.3001 82.1001 79.5001C80.4001 77.9001 79.3002 75.7002 79.3002 73.2002C79.3002 68.4002 83.2001 64.5001 88.0001 64.5001C92.8001 64.5001 96.7001 68.4002 96.7001 73.2002C96.7001 75.9002 95.5001 78.3001 93.6001 79.9001C94.3001 79.7001 95.1002 79.6002 95.8002 79.6002C100.6 79.6002 104.5 83.5002 104.5 88.3002C104.5 93.1002 100.6 97.0001 95.8002 97.0001C92.4002 97.0001 89.4001 95.0002 88.0001 92.2002Z" fill="#1D1D1B"/>
</svg>
