<svg width="180" height="254" viewBox="0 0 180 254" fill="none" xmlns="http://www.w3.org/2000/svg">
<path d="M179.3 231.9C179.3 243.7 172.5 253.3 164.1 253.3H15.8002C7.40017 253.3 0.600098 243.7 0.600098 231.9V22.8002C0.600098 11.0002 7.40017 1.40015 15.8002 1.40015H164.1C172.5 1.40015 179.3 11.0002 179.3 22.8002V231.9Z" fill="white" stroke="#1D1D1B" stroke-miterlimit="10"/>
<path d="M84 98.0001L83.9 100.8L83.5 110.8C83.5 110.8 89.5 116.1 90.7 118.4V101.9L88.6001 100.7L84 98.0001Z" fill="#FFEA24" stroke="#13110C" stroke-miterlimit="10"/>
<path d="M96.3999 118.6C99.8999 114.7 106 112.5 106 112.5C105 110.3 104 98.3002 104 98.3002L96.5 102.9V118.6H96.3999Z" fill="#E31518" stroke="#13110C" stroke-miterlimit="10"/>
<path d="M103.3 83.4001C102.8 84.1001 103.7 95.4001 103.7 95.4001L94.8004 100.6L67.5004 84.5001L67.4004 72.3002L94.8004 89.1002L103.3 83.4001Z" fill="#211C4B" stroke="#13110C" stroke-miterlimit="10"/>
<path d="M53.6002 98.9001C59.3002 97.9001 64.8003 99.7002 64.8003 99.7002V71.1002C62.6003 72.2002 53.0002 77.5001 53.0002 77.5001L52.7002 97.7002L53.6002 98.9001Z" fill="#211C4B" stroke="#13110C" stroke-miterlimit="10"/>
<path d="M62.7 98.5001L58.8 94.1002L55 98.0001C55 98.0001 59.1 98.9001 62.7 98.5001Z" fill="white" stroke="white" stroke-miterlimit="10"/>
<path d="M61.7 73.4001L63.8 75.4001L58.8 81.1002L55 76.9001L61.7 73.4001Z" fill="white" stroke="white" stroke-miterlimit="10"/>
<path d="M94.8003 123.3C94.8003 123.3 101.3 117.1 106.5 115.1L108.6 123.1L101.4 127.9H99.5002L94.8003 123.3Z" fill="white" stroke="#13110C" stroke-miterlimit="10"/>
<path d="M37.7001 127.3H29.6001V70.4001L37.7001 79.7002V127.3Z" fill="#211C4B" stroke="#13110C" stroke-miterlimit="10"/>
<path d="M116.7 79.6003C116.7 79.6003 118.1 103.3 119.1 105.4L132.5 95.1003L138 97.2002V76.5002C138 76.5002 133.6 75.3002 130.7 80.2002C130.7 80.2002 129.6 79.4002 126.6 79.8002C126.5 79.7002 118.8 80.5003 116.7 79.6003Z" fill="#13110C" stroke="#13110C" stroke-miterlimit="10"/>
<path d="M107.1 98.4001H107.8" stroke="white" stroke-miterlimit="10"/>
<path d="M106.9 96.6002H109.1" stroke="white" stroke-miterlimit="10"/>
<path d="M75.4002 48.0001C75.4002 48.0001 72.6002 53.8002 73.0002 63.2002C73.0002 63.2002 73.1001 64.2002 71.7001 63.2002C70.3001 62.2002 67.9002 64.1002 68.3002 68.7002C68.3002 68.7002 68.2002 70.4001 71.8002 72.5001L88.4001 82.5001C88.4001 82.5001 93.0001 82.7002 93.4001 72.2002V53.0001C93.4001 53.0001 94.5003 48.1002 96.1003 46.3002C96.1003 46.4002 83.1002 46.5001 75.4002 48.0001Z" fill="#E2C80B" stroke="#13110C" stroke-miterlimit="10"/>
<path d="M77.9 48.8002C77.9 48.8002 76.3 50.6002 76.4 53.2002V65.0001" stroke="#13110C" stroke-width="0.5" stroke-miterlimit="10"/>
<path d="M11.7002 20.5001C11.7002 21.4001 11.7002 21.7002 11.7002 21.6002C11.7002 22.4002 11.9002 23.1002 12.2002 23.6002C12.6002 24.2002 13.2003 24.5001 14.1003 24.5001C14.8003 24.5001 15.4003 24.2002 15.8003 23.7002C16.2003 23.2002 16.4003 22.6001 16.4003 21.9001V11.5001H14.5003V9.00012H20.7002V11.5001H18.9003V21.9001C18.9003 23.3001 18.5003 24.5001 17.6003 25.4001C16.7003 26.4001 15.6002 26.9001 14.2002 26.9001C12.8002 26.9001 11.6002 26.4001 10.7002 25.4001C9.80024 24.4001 9.30032 23.2002 9.40032 21.8002V20.4001H11.7002V20.5001Z" fill="#1D1D1B"/>
<path d="M165.5 232.3C165.5 231.4 165.5 231.1 165.5 231.2C165.5 230.4 165.3 229.7 165 229.2C164.6 228.6 164 228.3 163.1 228.3C162.4 228.3 161.8 228.6 161.4 229.1C161 229.6 160.8 230.2 160.8 230.9V241.3H162.7V243.8H156.5V241.3H158.3V230.9C158.3 229.5 158.7 228.3 159.6 227.4C160.5 226.4 161.6 225.9 163 225.9C164.4 225.9 165.6 226.4 166.5 227.4C167.4 228.4 167.9 229.6 167.8 231V232.4H165.5V232.3Z" fill="#1D1D1B"/>
<path d="M149.4 30.7002H29.6001V225.1H149.4V30.7002Z" stroke="#13110C" stroke-miterlimit="10"/>
<path d="M130.7 30.6002H66.1001L75.4001 48.0001C75.4001 48.0001 105 43.5002 120.6 49.2002L130.7 30.6002Z" fill="#E31518" stroke="#13110C" stroke-miterlimit="10"/>
<path d="M120.6 49.2002L122.4 45.9002C102.1 38.2002 73.6001 44.8002 73.6001 44.8002L75.3002 48.0001C75.4002 48.0001 105.8 43.5002 120.6 49.2002Z" fill="#211C4B" stroke="#13110C" stroke-miterlimit="10"/>
<path d="M74.0002 30.6002L77.2002 36.7002H85.3003L85.6003 30.6002H87.8003L87.3003 39.0001L75.7002 39.9001L71.3003 30.6002H74.0002Z" fill="#13110C"/>
<path d="M123 30.6002L119.8 36.7002L111.7 36.8002L111.3 30.6002L109.2 30.7002L109.7 39.0001L121.3 39.9001L125.6 30.6002H123Z" fill="#13110C"/>
<path d="M91.8003 30.6002V37.7002H104.8V30.6002H102.7V36.1002L94.5002 36.2002V30.6002H91.8003Z" fill="#13110C"/>
<path d="M88.6001 74.5001C88.6001 74.5001 87.5 73.7002 87.5 75.6002C87.6 77.5002 89.3 79.7001 90 77.0001C90.7 74.3001 90 64.4001 90 64.4001C90 64.4001 89.5 49.2001 91.7 47.4001" stroke="#13110C" stroke-width="0.5" stroke-miterlimit="10"/>
<path d="M93.4 47.5001C93.4 47.5001 91.5 50.4002 91.7 55.1002C91.7 55.1002 92.1 76.1002 91.7 76.8002C91.3 77.5002 90.1 82.0001 86.7 79.0001C86.7 79.0001 84.1001 73.4001 87.5001 73.0001" stroke="#13110C" stroke-width="0.5" stroke-miterlimit="10"/>
<path d="M72.8003 63.7002L89.6003 72.2002" stroke="#13110C" stroke-width="0.5" stroke-miterlimit="10"/>
<path d="M87.0003 71.7002C87.0003 71.7002 82.4003 73.4002 85.5003 79.3002" stroke="#13110C" stroke-width="0.5" stroke-miterlimit="10"/>
<path d="M85.0004 71.0001C85.0004 71.0001 81.7004 72.2001 82.9004 77.9001" stroke="#13110C" stroke-width="0.5" stroke-miterlimit="10"/>
<path d="M83.5002 70.0001C83.5002 70.0001 80.3001 71.5001 81.2001 77.0001" stroke="#13110C" stroke-width="0.5" stroke-miterlimit="10"/>
<path d="M82.2 69.3002C82.2 69.3002 79.1 70.6001 79.6 76.0001" stroke="#13110C" stroke-width="0.5" stroke-miterlimit="10"/>
<path d="M80.0999 68.6002C80.0999 68.6002 77.5999 70.3001 78.1999 75.0001" stroke="#13110C" stroke-width="0.5" stroke-miterlimit="10"/>
<path d="M78.5004 68.0001C78.5004 68.0001 75.6004 70.2001 76.6004 74.0001" stroke="#13110C" stroke-width="0.5" stroke-miterlimit="10"/>
<path d="M76.6999 66.9001C76.6999 66.9001 74.2 68.8002 74.8 72.6002" stroke="#13110C" stroke-width="0.5" stroke-miterlimit="10"/>
<path d="M74.8005 66.0001C74.8005 66.0001 72.1005 67.5002 72.8005 71.8002" stroke="#13110C" stroke-width="0.5" stroke-miterlimit="10"/>
<path d="M72.8003 65.1002C72.8003 65.1002 70.6003 66.6002 71.0003 70.6002" stroke="#13110C" stroke-width="0.5" stroke-miterlimit="10"/>
<path d="M70.9003 63.7002C70.9003 63.7002 68.5003 66.6002 69.7003 69.3002" stroke="#13110C" stroke-width="0.5" stroke-miterlimit="10"/>
<path d="M90.0001 47.7002C90.0001 47.7002 88.4001 50.2001 88.5001 53.9001V70.5001" stroke="#13110C" stroke-width="0.5" stroke-miterlimit="10"/>
<path d="M88.2003 48.2002C88.2003 48.2002 86.6003 50.6002 86.7003 54.1002V69.8002" stroke="#13110C" stroke-width="0.5" stroke-miterlimit="10"/>
<path d="M86.4 48.2002C86.4 48.2002 84.8 50.5001 84.9 53.9001V69.0001" stroke="#13110C" stroke-width="0.5" stroke-miterlimit="10"/>
<path d="M85.0001 48.2002C85.0001 48.2002 83.4001 50.4002 83.5001 53.6002V67.9001" stroke="#13110C" stroke-width="0.5" stroke-miterlimit="10"/>
<path d="M83.4 48.2002C83.4 48.2002 81.8 50.3001 81.9 53.4001V67.3002" stroke="#13110C" stroke-width="0.5" stroke-miterlimit="10"/>
<path d="M81.6998 48.2002C81.6998 48.2002 80.0998 50.2002 80.1998 53.2002V66.4001" stroke="#13110C" stroke-width="0.5" stroke-miterlimit="10"/>
<path d="M79.8004 48.2002C79.8004 48.2002 78.2004 50.1001 78.3004 52.9001V65.5001" stroke="#13110C" stroke-width="0.5" stroke-miterlimit="10"/>
<path d="M75.1999 52.0001C75.1999 52.0001 74.4 60.6001 74.8 63.5001" stroke="#13110C" stroke-width="0.5" stroke-miterlimit="10"/>
<path d="M113 78.9001C114.8 79.5001 120.6 80.1002 120.6 80.1002C124.1 80.4002 126.5 79.8002 126.5 79.8002C130.8 72.8002 125.6 70.7002 125.6 70.7002C123.6 69.8002 122.4 73.7002 122.4 73.7002V66.6002C124.2 67.9002 125.3 65.7002 125.3 65.7002C127.1 61.8002 123.4 62.2002 123.4 62.2002C122.3 64.5002 121.8 63.0001 121.8 63.0001C124 55.3001 120.7 49.4001 120.7 49.4001L119.4 48.9001C119.3 48.8001 122.1 70.1001 113 78.9001Z" fill="#E2C80B" stroke="#13110C" stroke-miterlimit="10"/>
<path d="M123.7 74.5002C123.7 74.5002 124.5 71.9002 126.1 74.0002C127.7 76.1002 125 78.2002 124.9 78.3002C124.8 78.4002 122.6 78.4002 122.4 77.0002C122.2 75.7002 121.6 77.9002 122.4 73.5002" stroke="#13110C" stroke-width="0.5" stroke-miterlimit="10"/>
<path d="M122.4 79.3002C122.4 79.3002 120.2 80.0002 120.6 72.2002C120.6 72.2002 120.6 52.4001 120.6 52.0001" stroke="#13110C" stroke-width="0.5" stroke-miterlimit="10"/>
<path d="M119.9 79.0001C119.9 79.0001 118.5 76.0002 118.8 70.1002" stroke="#13110C" stroke-width="0.5" stroke-miterlimit="10"/>
<path d="M118.3 79.0001C118.3 79.0001 117.3 76.7001 117.4 74.0001" stroke="#13110C" stroke-width="0.5" stroke-miterlimit="10"/>
<path d="M116.7 78.3002C116.7 78.3002 115.9 77.5001 116.2 76.4001" stroke="#13110C" stroke-width="0.5" stroke-miterlimit="10"/>
<path d="M121.5 63.7002C121.5 63.7002 122.9 66.6002 124.3 64.4002C124.3 64.4002 124.5 63.3002 123.6 63.7002" stroke="#13110C" stroke-width="0.5" stroke-miterlimit="10"/>
<path d="M92.8003 77.0002C93.8003 74.3002 93.4001 68.2002 93.4001 68.2002L93.5002 52.4002C93.6002 50.0002 96.0002 46.3002 96.0002 46.3002C96.0002 46.3002 108.2 45.5003 118.8 48.6003C118.8 48.6003 123.6 71.5002 110 81.7002C110 81.7002 105.7 85.0002 96.0002 78.9002L92.8003 77.0002Z" fill="#FED68A" stroke="#13110C" stroke-miterlimit="10"/>
<path d="M95.3003 53.7002C95.3003 53.7002 99.3002 50.7001 102 52.0001C102 52.0001 106 54.6001 108.6 52.4001" stroke="#13110C" stroke-miterlimit="10"/>
<path d="M118.8 53.7002C118.8 53.7002 114.8 50.3002 111.6 53.7002C111.6 53.7002 108.4 56.4002 110.9 61.8002C110.9 61.8002 114.7 69.5002 111.2 69.3002C111.2 69.3002 108.5 67.1002 107.6 68.6002C107.6 68.6002 103.6 68.8001 105.5 66.4001" stroke="#13110C" stroke-miterlimit="10"/>
<path d="M109.5 69.0001V70.0001L110.3 69.8002" stroke="#13110C" stroke-miterlimit="10"/>
<path d="M103.3 73.9001H113.5" stroke="#13110C" stroke-miterlimit="10"/>
<path d="M105 73.5001H104H111.9" stroke="#13110C" stroke-miterlimit="10"/>
<path d="M104 74.5001H111.9" stroke="#13110C" stroke-miterlimit="10"/>
<path d="M108 76.7002L109.9 79.3002" stroke="#13110C" stroke-miterlimit="10"/>
<path d="M107.5 79.7002L110.3 77.0001" stroke="#13110C" stroke-miterlimit="10"/>
<path d="M106.7 57.3001C100.7 52.2001 95.3003 57.3001 95.3003 57.3001C95.3003 57.3001 101.4 62.9001 106.7 57.3001Z" stroke="#13110C" stroke-miterlimit="10"/>
<path d="M103.7 57.2002C103.7 57.6002 102.6 58.0001 101.2 58.0001C99.8002 58.0001 98.7002 57.6002 98.7002 57.2002C98.7002 56.8002 99.8002 56.4001 101.2 56.4001C102.6 56.4001 103.7 56.8002 103.7 57.2002Z" fill="#13110C" stroke="#13110C" stroke-miterlimit="10"/>
<path d="M106.7 58.6002C106.7 58.6002 104.3 61.8001 102.4 62.9001" stroke="#13110C" stroke-miterlimit="10"/>
<path d="M118.3 57.8002C114.9 54.5002 111 57.5001 111 57.5001C111 57.5001 112.8 61.3002 117.4 59.9002C117.4 59.8002 118.9 58.4002 118.3 57.8002Z" stroke="#13110C" stroke-miterlimit="10"/>
<path d="M117 58.0001C117 58.3001 116.2 58.6002 115.3 58.6002C114.4 58.6002 113.6 58.3001 113.6 58.0001C113.6 57.7001 114.4 57.4001 115.3 57.4001C116.2 57.4001 117 57.7001 117 58.0001Z" fill="#13110C" stroke="#13110C" stroke-miterlimit="10"/>
<path d="M111 59.0001C111 59.0001 112.4 62.0001 115.2 62.4001" stroke="#13110C" stroke-miterlimit="10"/>
<path d="M123.1 44.5001L128 35.5001C128 35.5001 131.8 38.7001 130.3 44.5001C130.3 44.5001 129.1 51.4001 132.3 53.4001C132.4 53.4001 125.7 53.0001 123.1 44.5001Z" fill="#FFEA24" stroke="#13110C" stroke-miterlimit="10"/>
<path d="M126.5 40.3002C126.5 40.3002 127.5 42.9001 126.8 44.4001C126.8 44.4001 126.4 47.5002 128.6 49.2002" stroke="#13110C" stroke-miterlimit="10"/>
<path d="M133 48.8002L146.3 30.7002H149.4V48.8002H133Z" fill="#E31518" stroke="#13110C" stroke-miterlimit="10"/>
<path d="M137.9 46.4001L149.4 32.0001V30.7002V46.4001H137.9Z" stroke="#13110C" stroke-miterlimit="10"/>
<path d="M140.3 48.8002H137.9V127.9H140.3V48.8002Z" fill="#FFEA24" stroke="#13110C" stroke-miterlimit="10"/>
<path d="M40.1001 79.7002V127.3H37.7001V79.7002L29.6001 70.4001V67.2002L40.1001 78.5001V79.7002Z" fill="#FFEA24" stroke="#13110C" stroke-miterlimit="10"/>
<path d="M149.4 48.8002H140.3V127.9H149.4V48.8002Z" fill="#211C4B" stroke="#13110C" stroke-miterlimit="10"/>
<path d="M128 80.3002C128 80.3002 131.1 78.8003 131.2 81.6003V91.1003C131.2 91.1003 129.4 93.8003 128 91.1003V80.3002Z" fill="#E2C80B" stroke="#13110C" stroke-miterlimit="10"/>
<path d="M131.2 91.1002C132.1 93.8002 138 94.4001 138 94.4001V81.4001V76.4001H135.4C133.1 76.4001 130.7 80.1002 130.7 80.1002C130.7 80.1002 131.5 79.4002 131.2 91.1002Z" fill="#FED68A" stroke="#13110C" stroke-miterlimit="10"/>
<path d="M135.7 81.6002L137.2 81.4001L137.9 81.5001" stroke="#13110C" stroke-miterlimit="10"/>
<path d="M137.2 89.5001V81.4001" stroke="#13110C" stroke-miterlimit="10"/>
<path d="M137.9 89.5001H135.7" stroke="#13110C" stroke-miterlimit="10"/>
<path d="M143.1 83.8002L146.1 84.2002C149.2 85.8002 146.6 86.9001 146.6 86.9001C149.6 88.4001 147 89.6002 147 89.6002C149 90.0002 146.8 91.6002 146.8 91.6002C150.4 94.3002 140.5 94.4001 140.5 94.4001L140.3 77.0001C140.3 77.0001 143.1 79.9002 144.4 80.1002C145.8 80.3002 150.7 83.6002 146.1 84.1002" fill="#FED68A"/>
<path d="M143.1 83.8002L146.1 84.2002C149.2 85.8002 146.6 86.9001 146.6 86.9001C149.6 88.4001 147 89.6002 147 89.6002C149 90.0002 146.8 91.6002 146.8 91.6002C150.4 94.3002 140.5 94.4001 140.5 94.4001L140.3 77.0001C140.3 77.0001 143.1 79.9002 144.4 80.1002C145.8 80.3002 150.7 83.6002 146.1 84.1002" stroke="#13110C" stroke-miterlimit="10"/>
<path d="M142.7 86.6002L146.6 86.9001" stroke="#13110C" stroke-miterlimit="10"/>
<path d="M142.4 89.5001H147" stroke="#13110C" stroke-miterlimit="10"/>
<path d="M142 91.7002L146.8 91.6002" stroke="#13110C" stroke-miterlimit="10"/>
<path d="M141.3 58.8002L148.4 52.0001" stroke="#FFEA24" stroke-miterlimit="10"/>
<path d="M141.3 63.2002L148.4 56.4001" stroke="#FFEA24" stroke-miterlimit="10"/>
<path d="M144.3 51.7002C144.3 52.3002 143.8 52.8002 143.2 52.8002C142.6 52.8002 142.1 52.3002 142.1 51.7002C142.1 51.1002 142.6 50.6002 143.2 50.6002C143.8 50.6002 144.3 51.0002 144.3 51.7002Z" fill="#FFEA24" stroke="#FFEA24" stroke-miterlimit="10"/>
<path d="M141.6 75.1002L148.8 68.3002" stroke="#FFEA24" stroke-miterlimit="10"/>
<path d="M143.2 78.0001L148.8 72.7002" stroke="#FFEA24" stroke-miterlimit="10"/>
<path d="M144.6 67.9001C144.6 68.5001 144.1 69.0001 143.5 69.0001C142.9 69.0001 142.4 68.5001 142.4 67.9001C142.4 67.3001 142.9 66.8002 143.5 66.8002C144.1 66.8002 144.6 67.3001 144.6 67.9001Z" fill="#FFEA24" stroke="#FFEA24" stroke-miterlimit="10"/>
<path d="M141.4 129.7L148.6 122.9" stroke="#FFEA24" stroke-miterlimit="10"/>
<path d="M141.4 115.9L148.6 109.1" stroke="#FFEA24" stroke-miterlimit="10"/>
<path d="M145 103.9C145 104.5 144.5 105 143.9 105C143.3 105 142.8 104.5 142.8 103.9C142.8 103.3 143.3 102.8 143.9 102.8C144.5 102.8 145 103.3 145 103.9Z" fill="#FFEA24" stroke="#FFEA24" stroke-miterlimit="10"/>
<path d="M145.3 120.5C145.3 121.1 144.8 121.6 144.2 121.6C143.6 121.6 143.1 121.1 143.1 120.5C143.1 119.9 143.6 119.4 144.2 119.4C144.8 119.4 145.3 119.9 145.3 120.5Z" fill="#FFEA24" stroke="#FFEA24" stroke-miterlimit="10"/>
<path d="M141.3 112.5L148.4 105.7" stroke="#FFEA24" stroke-miterlimit="10"/>
<path d="M141.1 100.6L148.3 93.8002" stroke="#FFEA24" stroke-miterlimit="10"/>
<path d="M30.8003 92.8002L37.4003 86.5001" stroke="#FFEA24" stroke-miterlimit="10"/>
<path d="M34.0002 80.4001C34.0002 81.0001 33.5003 81.5001 32.9003 81.5001C32.3003 81.5001 31.8003 81.0001 31.8003 80.4001C31.8003 79.8001 32.3003 79.3002 32.9003 79.3002C33.5003 79.3002 34.0002 79.8001 34.0002 80.4001Z" fill="#FFEA24" stroke="#FFEA24" stroke-miterlimit="10"/>
<path d="M30.6001 89.6002L37.2001 83.3002" stroke="#FFEA24" stroke-miterlimit="10"/>
<path d="M30.6001 112.4L37.2001 106.1" stroke="#FFEA24" stroke-miterlimit="10"/>
<path d="M34.1003 98.5002C34.1003 99.1002 33.6004 99.6003 33.0004 99.6003C32.4004 99.6003 31.9004 99.1002 31.9004 98.5002C31.9004 97.9002 32.4004 97.4002 33.0004 97.4002C33.6004 97.3002 34.1003 97.8002 34.1003 98.5002Z" fill="#FFEA24" stroke="#FFEA24" stroke-miterlimit="10"/>
<path d="M30.7002 107.6L37.3003 101.4" stroke="#FFEA24" stroke-miterlimit="10"/>
<path d="M35.2 115.9C35.2 116.5 34.7 117 34.1 117C33.5 117 33 116.5 33 115.9C33 115.3 33.5 114.8 34.1 114.8C34.7 114.8 35.2 115.3 35.2 115.9Z" fill="#FFEA24" stroke="#FFEA24" stroke-miterlimit="10"/>
<path d="M30.6001 126.1L37.2001 119.8" stroke="#FFEA24" stroke-miterlimit="10"/>
<path d="M116.7 79.6002C118.4 121.2 126.6 127.9 126.6 127.9H123.6C113.3 110.6 114.2 79.2002 114.2 79.2002L116.7 79.6002Z" fill="#FFEA24" stroke="#13110C" stroke-miterlimit="10"/>
<path d="M113.7 127.9C104.8 112.9 106.2 82.6002 106.2 82.6002L103.3 82.2002C103.3 82.2002 102.3 107.4 110.3 127.9H113.7Z" fill="#FFEA24" stroke="#13110C" stroke-miterlimit="10"/>
<path d="M114.2 79.2002C113.8 113.7 123.6 127.9 123.6 127.9H113.7C113.7 127.9 104.3 114.1 106.2 83.3002C106.2 83.3002 108.6 83.8001 113 78.9001L114.2 79.2002Z" fill="#211C4B" stroke="#13110C" stroke-miterlimit="10"/>
<path d="M113.5 80.0001L108.9 83.5001L114.2 86.9001" stroke="white" stroke-miterlimit="10"/>
<path d="M114.2 97.2002L110.3 101.4L115.2 104.4" stroke="white" stroke-miterlimit="10"/>
<path d="M117.4 114.4L114.2 118.9L119.7 121.7" stroke="white" stroke-miterlimit="10"/>
<path d="M106.7 87.4001H107.5" stroke="white" stroke-miterlimit="10"/>
<path d="M106.7 89.0001H108.9" stroke="white" stroke-miterlimit="10"/>
<path d="M106.7 91.0001H111" stroke="white" stroke-miterlimit="10"/>
<path d="M106.8 94.4001H111.1" stroke="white" stroke-miterlimit="10"/>
<path d="M110.2 116.8L110.9 116.7" stroke="white" stroke-miterlimit="10"/>
<path d="M109.7 115.1L111.9 114.7" stroke="white" stroke-miterlimit="10"/>
<path d="M108 106L108.8 105.9" stroke="white" stroke-miterlimit="10"/>
<path d="M108.3 107.6L110.4 107.2" stroke="white" stroke-miterlimit="10"/>
<path d="M108.6 109.6L112.9 108.9" stroke="white" stroke-miterlimit="10"/>
<path d="M109.2 112.9L113.5 112.2" stroke="white" stroke-miterlimit="10"/>
<path d="M112.1 122.9L112.8 122.6" stroke="white" stroke-miterlimit="10"/>
<path d="M112.7 124.4L114.7 123.6" stroke="white" stroke-miterlimit="10"/>
<path d="M113.4 126.2L117.5 124.6" stroke="white" stroke-miterlimit="10"/>
<path d="M119 105.4L119.5 108L132.6 97.6002L137.9 99.5001V97.2002L132.4 95.0001L119 105.4Z" fill="white" stroke="#13110C" stroke-miterlimit="10"/>
<path d="M119.5 108C119.5 108 121.3 121.5 126.6 127.9H130C130 127.9 123.6 118.2 122.2 105.9L119.5 108Z" fill="#E31518" stroke="#13110C" stroke-miterlimit="10"/>
<path d="M134.5 127.9L134.6 112.8C134.6 112.8 131.2 109.8 129.2 100.3L132.6 97.6002L133.6 98.0001C133.6 98.0001 134.2 105.2 137.9 109.6V127.9H134.5H89.3999H134.5Z" fill="#E31518"/>
<path d="M134.5 127.9L134.6 112.8C134.6 112.8 131.2 109.8 129.2 100.3L132.6 97.6002L133.6 98.0001C133.6 98.0001 134.2 105.2 137.9 109.6V127.9H134.5ZM134.5 127.9H89.3999" stroke="#13110C" stroke-miterlimit="10"/>
<path d="M122.1 105.9L129.2 100.3C129.2 100.3 130.6 107.7 134.6 112.8V127.5L134.5 127.9H130.3L129.7 127.5C129.7 127.4 125.8 123.3 122.1 105.9Z" fill="#13110C" stroke="#13110C" stroke-miterlimit="10"/>
<path d="M131.5 114.1V124.7C128 120.3 125.6 107.7 125.6 107.7C125.6 107.7 127.4 105.4 128.2 106L131.5 114.1Z" stroke="white" stroke-miterlimit="10"/>
<path d="M133.6 98.0001L137.9 99.5001V109.1C137.9 109.1 134.5 106 133.6 98.0001Z" fill="#211C4B" stroke="#13110C" stroke-miterlimit="10"/>
<path d="M122.1 80.1002L127.8 83.4001L127.4 83.7002L123.6 86.7002L127.8 89.5001L124.9 92.9001L127.8 94.4001L124.3 96.6002L119.9 93.3002L123.1 90.2002L119.5 86.9001L122.9 83.4001L119.7 80.0001L122.1 80.1002Z" fill="#FFEA24" stroke="#13110C" stroke-miterlimit="10"/>
<path d="M127.8 83.4001L123.6 86.7002L127.8 89.5001V83.4001Z" fill="#E31518" stroke="#13110C" stroke-miterlimit="10"/>
<path d="M117.5 80.5001C117.5 80.5001 117.8 86.2002 117.9 86.7002" stroke="white" stroke-miterlimit="10"/>
<path d="M117.8 87.9001L118.5 93.3002" stroke="white" stroke-miterlimit="10"/>
<path d="M118.5 94.4001L119.4 99.5001" stroke="white" stroke-miterlimit="10"/>
<path d="M68.3002 127.7C61.8002 104.2 40.1001 82.6002 40.1001 82.6002V86.6002C40.1001 86.6002 58.7002 106.3 65.3002 127.8L68.3002 127.7Z" fill="#FFEA24" stroke="#13110C" stroke-miterlimit="10"/>
<path d="M56.0001 127.6C52.9001 115.3 40.1001 100.6 40.1001 100.6V104.5C40.1001 104.5 50.2001 117.3 53.1001 127.6H56.0001Z" fill="#FFEA24" stroke="#13110C" stroke-miterlimit="10"/>
<path d="M40.1001 100.6C53.8001 117.3 56.0001 127.6 56.0001 127.6L65.3002 127.7C57.7002 105 40.1001 86.5001 40.1001 86.5001V100.6Z" fill="#211C4B" stroke="#13110C" stroke-miterlimit="10"/>
<path d="M54.0002 106.8L53.3003 107.2" stroke="white" stroke-miterlimit="10"/>
<path d="M55.0001 108.3L53.1001 109.3" stroke="white" stroke-miterlimit="10"/>
<path d="M59.7 116.3L59 116.6" stroke="white" stroke-miterlimit="10"/>
<path d="M58.9 114.8L57 115.9" stroke="white" stroke-miterlimit="10"/>
<path d="M57.9003 113.1L54.2002 115.2" stroke="white" stroke-miterlimit="10"/>
<path d="M56.2003 110.1L52.4004 112.3" stroke="white" stroke-miterlimit="10"/>
<path d="M42.8003 91.0001L42.2002 91.5001" stroke="white" stroke-miterlimit="10"/>
<path d="M44.0002 92.3002L42.2002 93.6002" stroke="white" stroke-miterlimit="10"/>
<path d="M49.7001 99.5001L49.1001 100" stroke="white" stroke-miterlimit="10"/>
<path d="M48.8 98.2002L47 99.5001" stroke="white" stroke-miterlimit="10"/>
<path d="M47.5001 96.6002L44.1001 99.3002" stroke="white" stroke-miterlimit="10"/>
<path d="M45.4 94.0001L42 96.6002" stroke="white" stroke-miterlimit="10"/>
<path d="M63.8002 126.2L63.1001 126.5" stroke="white" stroke-miterlimit="10"/>
<path d="M63.2002 124.7L61.2002 125.5" stroke="white" stroke-miterlimit="10"/>
<path d="M62.4004 122.8L58.4004 124.4" stroke="white" stroke-miterlimit="10"/>
<path d="M49.0002 110.5L50.1002 104.8L44.3003 105" stroke="white" stroke-miterlimit="10"/>
<path d="M56.6003 124.9L59.0004 119.7L53.4004 118.4" stroke="white" stroke-miterlimit="10"/>
<path d="M89.4 127.9L29.6001 127.3" stroke="#13110C" stroke-miterlimit="10"/>
<path d="M40.1001 127.4V104.5C40.1001 104.5 50.0001 117 53.0001 127.6L40.1001 127.4Z" fill="#E31518" stroke="#13110C" stroke-miterlimit="10"/>
<path d="M44.1001 127.3V116.2C44.1001 116.2 49.3001 122.6 50.0001 127.3H44.1001Z" fill="#13110C" stroke="#13110C" stroke-miterlimit="10"/>
<path d="M99.4 127.9C94.3 123.5 90.7001 118.4 90.7001 118.4C82.2001 107.4 70.4001 102 70.4001 102C62.6001 97.4001 53.6001 98.9001 53.6001 98.9001L55.0001 100.9C55.0001 100.9 65.0002 99.5001 75.3002 108C75.3002 108 84.9001 114.7 88.2001 119.5C88.2001 119.5 92.8001 125.9 96.7001 127.9H99.4Z" fill="#FFEA24" stroke="#13110C" stroke-miterlimit="10"/>
<path d="M83.0002 127.8C74.7002 116.7 62.8003 113.8 62.8003 113.8L64.2002 116.6C64.2002 116.6 73.5003 119.6 79.8003 127.8H83.0002Z" fill="#FFEA24" stroke="#13110C" stroke-miterlimit="10"/>
<path d="M68.3004 127.7L76.3004 124C76.3004 124 71.8003 119.4 64.2003 116.7C64.1003 116.6 67.7004 125.2 68.3004 127.7Z" fill="#211C4B" stroke="#13110C" stroke-miterlimit="10"/>
<path d="M76.3003 124L78.4003 126.2L75.1002 127.7H68.3003L76.3003 124Z" fill="#FFEA24" stroke="#13110C" stroke-miterlimit="10"/>
<path d="M75.3003 127.6L78.4003 126.2L79.8003 127.8L75.3003 127.9" fill="#13110C"/>
<path d="M75.3003 127.6L78.4003 126.2L79.8003 127.8L75.3003 127.9" stroke="#13110C" stroke-miterlimit="10"/>
<path d="M83.0001 127.8L96.7001 127.9C91.9001 125.1 87.1002 118 87.1002 118C85.2002 115.5 77.6001 109.6 77.6001 109.6C66.1001 99.5002 55.1001 100.9 55.1001 100.9C55.1001 100.9 62.1002 111.4 62.8002 113.8C62.8002 113.8 72.4001 115.1 83.0001 127.8Z" fill="#13110C" stroke="#13110C" stroke-miterlimit="10"/>
<path d="M59 105.1C59 105.1 65.2 102.4 67.6 106.8C67.6 106.8 68.8 111.8 71.5 114.3C71.5 114.3 74.3 117.7 81 117C81 117 86.3999 117.6 88.3999 124.8C88.3999 124.8 89.1 126.7 89 127.2" stroke="white" stroke-miterlimit="10"/>
<path d="M65.3003 109.3C65.3003 109.3 63.2003 107.9 63.1003 110.1C62.9003 112.3 66.1003 112.7 67.6003 110.5L68.3003 109.2" stroke="white" stroke-miterlimit="10"/>
<path d="M74.9002 113.3C74.9002 113.3 74.4002 111.3 76.5002 111.2C76.5002 111.2 79.9002 112.1 76.8002 115.9L75.3002 116.5" stroke="white" stroke-miterlimit="10"/>
<path d="M83.5 121.1C83.5 121.1 81.1 120.2 81 122.5C81 122.5 81.1001 126.6 85.6001 123.3C85.6001 123.3 86.8 122.3 86.7 120.9" stroke="white" stroke-miterlimit="10"/>
<path d="M73.2002 108.9C73.2002 109.5 72.7002 109.9 72.2002 109.9C71.7002 109.9 71.2002 109.5 71.2002 108.9C71.2002 108.3 71.7002 107.9 72.2002 107.9C72.7002 107.9 73.2002 108.3 73.2002 108.9Z" fill="white"/>
<path d="M68.9004 113.3C68.9004 113.9 68.4004 114.3 67.9004 114.3C67.4004 114.3 66.9004 113.8 66.9004 113.3C66.9004 112.8 67.4004 112.3 67.9004 112.3C68.4004 112.3 68.9004 112.7 68.9004 113.3Z" fill="white"/>
<path d="M81.8003 114.9C81.8003 115.5 81.3003 115.9 80.8003 115.9C80.3003 115.9 79.8003 115.4 79.8003 114.9C79.8003 114.3 80.3003 113.9 80.8003 113.9C81.3003 113.9 81.8003 114.4 81.8003 114.9Z" fill="white"/>
<path d="M79.1001 119.9C79.1001 120.5 78.6001 120.9 78.1001 120.9C77.6001 120.9 77.1001 120.4 77.1001 119.9C77.1001 119.4 77.6001 118.9 78.1001 118.9C78.6001 118.9 79.1001 119.3 79.1001 119.9Z" fill="white"/>
<path d="M86.7002 126.1C86.7002 126.7 86.2002 127.1 85.7002 127.1C85.2002 127.1 84.7002 126.7 84.7002 126.1C84.7002 125.5 85.2002 125.1 85.7002 125.1C86.2002 125.1 86.7002 125.5 86.7002 126.1Z" fill="white"/>
<path d="M105.9 112.6C98.5001 115.6 93.3003 121.7 93.3003 121.7L94.8003 123.4C94.8003 123.4 100.6 117.9 106.5 115.2L105.9 112.6Z" fill="#FFEA24" stroke="#13110C" stroke-miterlimit="10"/>
<path d="M101.4 127.9C101.8 127.5 108.6 123.1 108.6 123.1L109.5 125.9L105.5 127.9H101.4Z" fill="#FFEA24" stroke="#13110C" stroke-miterlimit="10"/>
<path d="M100.7 118.5L105.1 125.3L107.4 123.8L103.4 116.7L100.7 118.5Z" fill="#FFEA24" stroke="#13110C" stroke-miterlimit="10"/>
<path d="M96.3999 121.9L98.5 120.1L103.3 126.6L101.4 127.9L96.3999 121.9Z" fill="#FFEA24" stroke="#13110C" stroke-miterlimit="10"/>
<path d="M105.5 127.9L109.5 125.9L110.2 127.9H105.5Z" fill="#13110C" stroke="#13110C" stroke-miterlimit="10"/>
<path d="M68.4003 69.3002C68.4003 69.3002 58.5002 73.8002 50.0002 79.2002C47.2002 81.0002 44.6003 82.8002 42.4003 84.6002C42.3003 84.7002 42.3002 84.7002 42.2002 84.8002L49.6002 93.6002L49.9003 79.2002" fill="#211C4B"/>
<path d="M68.4003 69.3002C68.4003 69.3002 58.5002 73.8002 50.0002 79.2002C47.2002 81.0002 44.6003 82.8002 42.4003 84.6002C42.3003 84.7002 42.3002 84.7002 42.2002 84.8002L49.6002 93.6002L49.9003 79.2002" stroke="#13110C" stroke-miterlimit="10"/>
<path d="M50 94.0001V79.2002L53 77.4001L52.7 97.6002L50 94.0001Z" fill="#13110C" stroke="#13110C" stroke-miterlimit="10"/>
<path d="M64.8003 71.0001V99.7002L67.5002 100.6L67.4003 69.8002L64.8003 71.0001Z" fill="#13110C" stroke="#13110C" stroke-miterlimit="10"/>
<path d="M54 77.9001V86.1002" stroke="white" stroke-miterlimit="10"/>
<path d="M54 89.5001V97.2002" stroke="white" stroke-miterlimit="10"/>
<path d="M63.8003 77.9001V85.4001" stroke="white" stroke-miterlimit="10"/>
<path d="M63.8003 89.3002V97.2002" stroke="white" stroke-miterlimit="10"/>
<path d="M54.2002 87.5001L58.8003 82.5001L63.4003 87.7002L58.8003 92.8002L54.2002 87.5001Z" fill="white" stroke="white" stroke-miterlimit="10"/>
<path d="M58.8623 85.2862L56.75 87.4165L58.8803 89.5288L60.9926 87.3985L58.8623 85.2862Z" fill="#E31518"/>
<path d="M57.6001 75.4001L59.0001 77.1002L61.6001 74.6002L60.4001 73.9001L57.6001 75.4001Z" fill="#E31518"/>
<path d="M57.3003 98.0001H60.5002L58.9003 96.0001L57.3003 98.0001Z" fill="#E31518"/>
<path d="M67.9004 69.6002L94.8004 86.5001L101.6 81.7002L103.3 82.2002V83.4001L94.8004 89.0001L67.4004 72.2002L67.9004 69.6002Z" fill="#FFEA24" stroke="#13110C" stroke-miterlimit="10"/>
<path d="M88.5 82.5001L94.7 86.5001L101.5 81.7002L92.7 77.0001C92.8 77.0001 92.5 81.3001 88.5 82.5001Z" fill="#E31518" stroke="#13110C" stroke-miterlimit="10"/>
<path d="M67.5 84.4001V77.9001L69.8 73.7002L72.5 75.4001L69.6 81.1002L72.5 82.5001L75.8 77.2002L78.4 79.0001L75.2 84.4001L78.1 86.1002L81.2 80.7002L83.9 82.3002L81.2 87.9001L83.9 89.3002L87 84.2002L90.1001 86.1002L87 91.0001L89.6001 92.8002L92.6001 87.6002L94.8 89.0001L93.3999 95.0001L94.8 96.0001L97.5 93.8002L96.1001 88.2002L98.6001 86.5001L101.2 91.7002L103.3 90.8002L103.6 95.4001L94.8 100.6L67.5 84.4001Z" fill="#FFEA24" stroke="#13110C" stroke-miterlimit="10"/>
<path d="M70.9004 74.5001L67.4004 81.4001L94.8004 98.0001L103.5 93.2002" stroke="#13110C" stroke-width="0.5" stroke-miterlimit="10"/>
<path d="M77.1002 78.1002L73.2002 85.0001" stroke="#13110C" stroke-width="0.5" stroke-miterlimit="10"/>
<path d="M82.5002 81.4001L78.8003 88.3002" stroke="#13110C" stroke-width="0.5" stroke-miterlimit="10"/>
<path d="M88.5004 85.2002L84.4004 91.7002" stroke="#13110C" stroke-width="0.5" stroke-miterlimit="10"/>
<path d="M93.7 88.3002L90 95.1002" stroke="#13110C" stroke-width="0.5" stroke-miterlimit="10"/>
<path d="M97.3003 87.4001L100.7 94.7002" stroke="#13110C" stroke-width="0.5" stroke-miterlimit="10"/>
<path d="M93.2 121.5L96.3999 118.6V103L103.9 98.4001L103.6 95.4001L94.8 100.6L67.5 84.4001V88.3002L78.8 95.0001L78.5 106.8L81.8 109.1L82.2 97.0001L92.8 103.1L93.2 121.5Z" fill="#13110C" stroke="#13110C" stroke-miterlimit="10"/>
<path d="M67.5 100.6C70.2 101.5 78.5 106.9 78.5 106.9L78.7 95.1002L67.5 88.4001V100.6Z" fill="#E31518" stroke="#13110C" stroke-miterlimit="10"/>
<path d="M68.4004 91.7002L76.5004 96.4001L76.3004 104.5" stroke="#13110C" stroke-miterlimit="10"/>
<path d="M98.3003 115.8V104.5L103.3 101.5" stroke="#13110C" stroke-miterlimit="10"/>
<path d="M82.2002 97.2002L84.0002 98.0001L83.5002 110.8L81.8003 109.1L82.2002 97.2002Z" fill="white" stroke="#13110C" stroke-miterlimit="10"/>
<path d="M90.8003 101.9L90.7002 118.4L92.8003 121V103.1L90.8003 101.9Z" fill="white" stroke="#13110C" stroke-miterlimit="10"/>
<path d="M89.5002 102.8H85.7002V105.1H89.5002V102.8Z" stroke="#13110C" stroke-miterlimit="10"/>
<path d="M89.6003 108.9H85.7002V110.9H89.6003V108.9Z" stroke="#13110C" stroke-miterlimit="10"/>
<path d="M84.4004 100.8L88.6005 100.7" stroke="#13110C" stroke-miterlimit="10"/>
<path d="M83.9004 106.8L90.7003 107.1" stroke="#13110C" stroke-miterlimit="10"/>
<path d="M87.1001 113.8L90.7 113.9" stroke="#13110C" stroke-miterlimit="10"/>
<path d="M95.0002 157.2L95.1003 154.4L95.5002 144.4C95.5002 144.4 89.5003 139.1 88.3003 136.8V153.3L90.4001 154.5L95.0002 157.2Z" fill="#FFEA24" stroke="#13110C" stroke-miterlimit="10"/>
<path d="M82.6 136.6C79.1 140.5 73 142.7 73 142.7C74 144.9 75 156.9 75 156.9L82.5 152.3V136.6H82.6Z" fill="#E31518" stroke="#13110C" stroke-miterlimit="10"/>
<path d="M75.7002 171.8C76.2002 171.1 75.3003 159.8 75.3003 159.8L84.2002 154.6L111.5 170.7L111.6 182.9L84.2002 166.1L75.7002 171.8Z" fill="#211C4B" stroke="#13110C" stroke-miterlimit="10"/>
<path d="M125.4 156.3C119.7 157.3 114.2 155.5 114.2 155.5V184.1C116.4 183 126 177.7 126 177.7L126.3 157.5L125.4 156.3Z" fill="#211C4B" stroke="#13110C" stroke-miterlimit="10"/>
<path d="M116.3 156.8L120.2 161.2L124 157.3C124 157.2 119.9 156.3 116.3 156.8Z" fill="white" stroke="white" stroke-miterlimit="10"/>
<path d="M117.3 181.8L115.2 179.8L120.2 174.2L124 178.3L117.3 181.8Z" fill="white" stroke="white" stroke-miterlimit="10"/>
<path d="M84.2003 131.9C84.2003 131.9 77.7004 138.1 72.5004 140.1L70.4004 132.1L77.6003 127.3H79.5004L84.2003 131.9Z" fill="white" stroke="#13110C" stroke-miterlimit="10"/>
<path d="M141.3 127.9H149.4V184.9L141.3 175.5V127.9Z" fill="#211C4B" stroke="#13110C" stroke-miterlimit="10"/>
<path d="M62.3 175.7C62.3 175.7 60.9 152 59.9 149.9L46.5 160.2L41 158.1V178.8C41 178.8 45.4 180 48.3 175.2C48.3 175.2 49.4 176 52.4 175.6C52.5 175.5 60.2 174.7 62.3 175.7Z" fill="#13110C" stroke="#13110C" stroke-miterlimit="10"/>
<path d="M71.9003 156.9H71.2002" stroke="white" stroke-miterlimit="10"/>
<path d="M72.1003 158.6H69.9004" stroke="white" stroke-miterlimit="10"/>
<path d="M103.6 207.2C103.6 207.2 106.4 201.4 106 192C106 192 105.9 191 107.3 192C108.7 193 111.1 191.1 110.7 186.5C110.7 186.5 110.8 184.8 107.2 182.7L90.6005 172.7C90.6005 172.7 86.0005 172.5 85.6005 183V202.2C85.6005 202.2 84.5004 207.1 82.9004 208.9C83.0004 208.9 95.9005 208.7 103.6 207.2Z" fill="#E2C80B" stroke="#13110C" stroke-miterlimit="10"/>
<path d="M101.1 206.5C101.1 206.5 102.7 204.7 102.6 202.1V190.3" stroke="#13110C" stroke-width="0.5" stroke-miterlimit="10"/>
<path d="M48.4004 224.7H113L103.7 207.3C103.7 207.3 74.1004 211.8 58.5004 206.1L48.4004 224.7Z" fill="#E31518" stroke="#13110C" stroke-miterlimit="10"/>
<path d="M58.4001 206L56.6001 209.3C76.9001 217 105.4 210.4 105.4 210.4L103.7 207.2C103.6 207.2 73.2001 211.7 58.4001 206Z" fill="#211C4B" stroke="#13110C" stroke-miterlimit="10"/>
<path d="M105 224.7L101.8 218.5H93.7002L93.4001 224.7H91.2002L91.7002 216.3L103.3 215.3L107.7 224.7H105Z" fill="#13110C"/>
<path d="M56.0004 224.7L59.2003 218.5H67.3004L67.7003 224.6H69.8004L69.3004 216.2L57.7003 215.3L53.4004 224.7H56.0004Z" fill="#13110C"/>
<path d="M87.2002 224.7V217.5H74.3003V224.7H76.3003L76.4003 219.1L84.5002 219V224.7H87.2002Z" fill="#13110C"/>
<path d="M90.5 180.7C90.5 180.7 91.6001 181.5 91.6001 179.6C91.5001 177.7 89.8001 175.5 89.1001 178.2C88.4001 180.9 89.1001 190.8 89.1001 190.8C89.1001 190.8 89.5999 206 87.3999 207.8" stroke="#13110C" stroke-width="0.5" stroke-miterlimit="10"/>
<path d="M85.6001 207.8C85.6001 207.8 87.5 204.9 87.3 200.2C87.3 200.2 86.9 179.2 87.3 178.5C87.7 177.8 88.9 173.3 92.3 176.3C92.3 176.3 94.9 181.9 91.5 182.3" stroke="#13110C" stroke-width="0.5" stroke-miterlimit="10"/>
<path d="M106.3 191.5L89.3999 183" stroke="#13110C" stroke-width="0.5" stroke-miterlimit="10"/>
<path d="M92 183.5C92 183.5 96.6 181.8 93.5 175.9" stroke="#13110C" stroke-width="0.5" stroke-miterlimit="10"/>
<path d="M94 184.2C94 184.2 97.3001 183 96.1001 177.3" stroke="#13110C" stroke-width="0.5" stroke-miterlimit="10"/>
<path d="M95.5 185.2C95.5 185.2 98.7 183.7 97.8 178.2" stroke="#13110C" stroke-width="0.5" stroke-miterlimit="10"/>
<path d="M96.8999 185.9C96.8999 185.9 100 184.6 99.5 179.2" stroke="#13110C" stroke-width="0.5" stroke-miterlimit="10"/>
<path d="M98.8999 186.6C98.8999 186.6 101.4 184.9 100.8 180.2" stroke="#13110C" stroke-width="0.5" stroke-miterlimit="10"/>
<path d="M100.5 187.2C100.5 187.2 103.4 185 102.4 181.2" stroke="#13110C" stroke-width="0.5" stroke-miterlimit="10"/>
<path d="M102.3 188.3C102.3 188.3 104.8 186.4 104.2 182.6" stroke="#13110C" stroke-width="0.5" stroke-miterlimit="10"/>
<path d="M104.2 189.2C104.2 189.2 106.9 187.7 106.2 183.4" stroke="#13110C" stroke-width="0.5" stroke-miterlimit="10"/>
<path d="M106.3 190.2C106.3 190.2 108.5 188.7 108.1 184.7" stroke="#13110C" stroke-width="0.5" stroke-miterlimit="10"/>
<path d="M108.1 191.5C108.1 191.5 110.5 188.6 109.3 185.9" stroke="#13110C" stroke-width="0.5" stroke-miterlimit="10"/>
<path d="M89 207.5C89 207.5 90.6 205 90.5 201.3V184.7" stroke="#13110C" stroke-width="0.5" stroke-miterlimit="10"/>
<path d="M90.8003 207C90.8003 207 92.4003 204.6 92.3003 201.1V185.4" stroke="#13110C" stroke-width="0.5" stroke-miterlimit="10"/>
<path d="M92.6001 207C92.6001 207 94.2001 204.7 94.1001 201.3V186.2" stroke="#13110C" stroke-width="0.5" stroke-miterlimit="10"/>
<path d="M94 207C94 207 95.6 204.8 95.5 201.6V187.3" stroke="#13110C" stroke-width="0.5" stroke-miterlimit="10"/>
<path d="M95.6001 207C95.6001 207 97.2001 204.9 97.1001 201.8V187.9" stroke="#13110C" stroke-width="0.5" stroke-miterlimit="10"/>
<path d="M97.3003 207C97.3003 207 98.9003 205 98.8003 202V188.8" stroke="#13110C" stroke-width="0.5" stroke-miterlimit="10"/>
<path d="M99.2002 207C99.2002 207 100.8 205.1 100.7 202.3V189.7" stroke="#13110C" stroke-width="0.5" stroke-miterlimit="10"/>
<path d="M103.8 203.3C103.8 203.3 104.6 194.7 104.2 191.8" stroke="#13110C" stroke-width="0.5" stroke-miterlimit="10"/>
<path d="M66.0001 176.4C64.2001 175.8 58.4002 175.2 58.4002 175.2C54.9002 174.9 52.5001 175.5 52.5001 175.5C48.2001 182.5 53.4002 184.6 53.4002 184.6C55.4002 185.5 56.6001 181.6 56.6001 181.6V188.7C54.8001 187.4 53.7001 189.6 53.7001 189.6C51.9001 193.5 55.6001 193.1 55.6001 193.1C56.7001 190.8 57.2001 192.3 57.2001 192.3C55.0001 200 58.3002 205.9 58.3002 205.9L59.6001 206.4C59.7001 206.5 56.9001 185.2 66.0001 176.4Z" fill="#E2C80B" stroke="#13110C" stroke-miterlimit="10"/>
<path d="M55.3002 180.8C55.3002 180.8 54.5001 183.4 52.9001 181.3C51.3001 179.2 54.0001 177.1 54.1001 177C54.2001 176.9 56.4001 176.9 56.6001 178.3C56.8001 179.6 57.4001 177.4 56.6001 181.8" stroke="#13110C" stroke-width="0.5" stroke-miterlimit="10"/>
<path d="M56.6001 175.9C56.6001 175.9 58.8001 175.2 58.4001 183C58.4001 183 58.4001 202.8 58.4001 203.2" stroke="#13110C" stroke-width="0.5" stroke-miterlimit="10"/>
<path d="M59.1001 176.3C59.1001 176.3 60.5001 179.3 60.2001 185.2" stroke="#13110C" stroke-width="0.5" stroke-miterlimit="10"/>
<path d="M60.7002 176.3C60.7002 176.3 61.7002 178.6 61.6002 181.3" stroke="#13110C" stroke-width="0.5" stroke-miterlimit="10"/>
<path d="M62.3003 176.9C62.3003 176.9 63.1003 177.7 62.8003 178.8" stroke="#13110C" stroke-width="0.5" stroke-miterlimit="10"/>
<path d="M57.5001 191.5C57.5001 191.5 56.1001 188.6 54.7001 190.8C54.7001 190.8 54.5001 191.9 55.4001 191.5" stroke="#13110C" stroke-width="0.5" stroke-miterlimit="10"/>
<path d="M86.1998 178.2C85.1998 180.9 85.5999 187 85.5999 187L85.4998 202.8C85.3998 205.2 82.9998 208.9 82.9998 208.9C82.9998 208.9 70.7998 209.7 60.1998 206.6C60.1998 206.6 55.3998 183.7 68.9998 173.5C68.9998 173.5 73.2998 170.2 82.9998 176.3L86.1998 178.2Z" fill="#FED68A" stroke="#13110C" stroke-miterlimit="10"/>
<path d="M83.7003 201.5C83.7003 201.5 79.7004 204.5 77.0004 203.2C77.0004 203.2 73.0004 200.6 70.4004 202.8" stroke="#13110C" stroke-miterlimit="10"/>
<path d="M60.2002 201.5C60.2002 201.5 64.2003 204.9 67.4003 201.5C67.4003 201.5 70.6002 198.8 68.1002 193.4C68.1002 193.4 64.3003 185.7 67.8003 185.9C67.8003 185.9 70.5003 188.1 71.4003 186.6C71.4003 186.6 75.4002 186.4 73.5002 188.8" stroke="#13110C" stroke-miterlimit="10"/>
<path d="M69.5002 186.2V185.2L68.7002 185.4" stroke="#13110C" stroke-miterlimit="10"/>
<path d="M75.7 181.3H65.5" stroke="#13110C" stroke-miterlimit="10"/>
<path d="M74.0001 181.7H75.0001H67.1001" stroke="#13110C" stroke-miterlimit="10"/>
<path d="M75.0001 180.7H67.1001" stroke="#13110C" stroke-miterlimit="10"/>
<path d="M71.0001 178.5L69.1001 175.9" stroke="#13110C" stroke-miterlimit="10"/>
<path d="M71.5002 175.5L68.7002 178.2" stroke="#13110C" stroke-miterlimit="10"/>
<path d="M72.3003 197.9C78.3003 203 83.7002 197.9 83.7002 197.9C83.7002 197.9 77.6003 192.3 72.3003 197.9Z" stroke="#13110C" stroke-miterlimit="10"/>
<path d="M75.3003 198C75.3003 197.6 76.4003 197.2 77.8003 197.2C79.2003 197.2 80.3003 197.6 80.3003 198C80.3003 198.4 79.2003 198.8 77.8003 198.8C76.4003 198.8 75.3003 198.4 75.3003 198Z" fill="#13110C" stroke="#13110C" stroke-miterlimit="10"/>
<path d="M72.3003 196.6C72.3003 196.6 74.7002 193.4 76.6002 192.3" stroke="#13110C" stroke-miterlimit="10"/>
<path d="M60.7003 197.5C64.1003 200.8 68.0003 197.8 68.0003 197.8C68.0003 197.8 66.2003 194 61.6003 195.4C61.6003 195.4 60.1003 196.8 60.7003 197.5Z" stroke="#13110C" stroke-miterlimit="10"/>
<path d="M63.8002 197.8C64.7391 197.8 65.5001 197.532 65.5001 197.2C65.5001 196.869 64.7391 196.6 63.8002 196.6C62.8613 196.6 62.1001 196.869 62.1001 197.2C62.1001 197.532 62.8613 197.8 63.8002 197.8Z" fill="#13110C" stroke="#13110C" stroke-miterlimit="10"/>
<path d="M68.0002 196.2C68.0002 196.2 66.6003 193.2 63.8003 192.8" stroke="#13110C" stroke-miterlimit="10"/>
<path d="M55.9004 210.7L51.0004 219.7C51.0004 219.7 47.2003 216.5 48.7003 210.7C48.7003 210.7 49.9003 203.8 46.7003 201.8C46.6003 201.8 53.3004 202.3 55.9004 210.7Z" fill="#FFEA24" stroke="#13110C" stroke-miterlimit="10"/>
<path d="M52.5004 214.9C52.5004 214.9 51.5003 212.3 52.2003 210.8C52.2003 210.8 52.6004 207.7 50.4004 206" stroke="#13110C" stroke-miterlimit="10"/>
<path d="M46.0001 206.5L32.8002 224.6H29.6001V206.5H46.0001Z" fill="#E31518" stroke="#13110C" stroke-miterlimit="10"/>
<path d="M41.1001 208.9L29.6001 223.2V224.6V208.9H41.1001Z" stroke="#13110C" stroke-miterlimit="10"/>
<path d="M41.1002 127.4H38.7002V206.5H41.1002V127.4Z" fill="#FFEA24" stroke="#13110C" stroke-miterlimit="10"/>
<path d="M138.9 175.5V127.9H141.3V175.5L149.4 184.9V188L138.9 176.7V175.5Z" fill="#FFEA24" stroke="#13110C" stroke-miterlimit="10"/>
<path d="M38.7001 127.4H29.6001V206.5H38.7001V127.4Z" fill="#211C4B" stroke="#13110C" stroke-miterlimit="10"/>
<path d="M51.0002 174.9C51.0002 174.9 47.9003 176.4 47.8003 173.6V164.1C47.8003 164.1 49.6002 161.4 51.0002 164.1V174.9Z" fill="#E2C80B" stroke="#13110C" stroke-miterlimit="10"/>
<path d="M47.9001 164.1C47.0001 161.4 41.1001 160.8 41.1001 160.8V173.8V178.8H43.7001C46.0001 178.8 48.4001 175.2 48.4001 175.2C48.4001 175.2 47.5001 175.8 47.9001 164.1Z" fill="#FED68A" stroke="#13110C" stroke-miterlimit="10"/>
<path d="M43.3002 173.6L41.8002 173.8H41.1001" stroke="#13110C" stroke-miterlimit="10"/>
<path d="M41.8003 165.7V173.8" stroke="#13110C" stroke-miterlimit="10"/>
<path d="M41.1001 165.7H43.3002" stroke="#13110C" stroke-miterlimit="10"/>
<path d="M35.9002 171.5L32.9002 171.1C29.8002 169.5 32.4002 168.4 32.4002 168.4C29.4002 166.9 32.0001 165.7 32.0001 165.7C30.0001 165.3 32.2001 163.7 32.2001 163.7C28.6001 161 38.5001 160.9 38.5001 160.9L38.7001 178.3C38.7001 178.3 35.9001 175.4 34.6001 175.2C33.2001 175 28.3002 171.7 32.9002 171.2" fill="#FED68A"/>
<path d="M35.9002 171.5L32.9002 171.1C29.8002 169.5 32.4002 168.4 32.4002 168.4C29.4002 166.9 32.0001 165.7 32.0001 165.7C30.0001 165.3 32.2001 163.7 32.2001 163.7C28.6001 161 38.5001 160.9 38.5001 160.9L38.7001 178.3C38.7001 178.3 35.9001 175.4 34.6001 175.2C33.2001 175 28.3002 171.7 32.9002 171.2" stroke="#13110C" stroke-miterlimit="10"/>
<path d="M36.3004 168.7L32.4004 168.4" stroke="#13110C" stroke-miterlimit="10"/>
<path d="M36.6 165.7H32" stroke="#13110C" stroke-miterlimit="10"/>
<path d="M37.0002 163.5L32.2002 163.6" stroke="#13110C" stroke-miterlimit="10"/>
<path d="M37.7001 196.4L30.6001 203.2" stroke="#FFEA24" stroke-miterlimit="10"/>
<path d="M37.7001 192L30.6001 198.8" stroke="#FFEA24" stroke-miterlimit="10"/>
<path d="M34.7002 203.6C34.7002 203 35.2003 202.5 35.8003 202.5C36.4003 202.5 36.9003 203 36.9003 203.6C36.9003 204.2 36.4003 204.7 35.8003 204.7C35.2003 204.7 34.7002 204.2 34.7002 203.6Z" fill="#FFEA24" stroke="#FFEA24" stroke-miterlimit="10"/>
<path d="M37.4003 180.1L30.2002 186.9" stroke="#FFEA24" stroke-miterlimit="10"/>
<path d="M35.9003 177.2L30.2002 182.5" stroke="#FFEA24" stroke-miterlimit="10"/>
<path d="M34.4004 187.3C34.4004 186.7 34.9004 186.2 35.5004 186.2C36.1004 186.2 36.6003 186.7 36.6003 187.3C36.6003 187.9 36.1004 188.4 35.5004 188.4C34.9004 188.4 34.4004 187.9 34.4004 187.3Z" fill="#FFEA24" stroke="#FFEA24" stroke-miterlimit="10"/>
<path d="M37.6003 125.5L30.4004 132.3" stroke="#FFEA24" stroke-miterlimit="10"/>
<path d="M37.6003 139.3L30.4004 146.1" stroke="#FFEA24" stroke-miterlimit="10"/>
<path d="M34 151.3C34 150.7 34.5 150.2 35.1 150.2C35.7 150.2 36.2 150.7 36.2 151.3C36.2 151.9 35.7 152.4 35.1 152.4C34.5 152.4 34 151.9 34 151.3Z" fill="#FFEA24" stroke="#FFEA24" stroke-miterlimit="10"/>
<path d="M33.7002 134.7C33.7002 134.1 34.2003 133.6 34.8003 133.6C35.4003 133.6 35.9003 134.1 35.9003 134.7C35.9003 135.3 35.4003 135.8 34.8003 135.8C34.2003 135.8 33.7002 135.3 33.7002 134.7Z" fill="#FFEA24" stroke="#FFEA24" stroke-miterlimit="10"/>
<path d="M37.7001 142.7L30.6001 149.5" stroke="#FFEA24" stroke-miterlimit="10"/>
<path d="M37.9003 154.7L30.8003 161.5" stroke="#FFEA24" stroke-miterlimit="10"/>
<path d="M148.2 162.5L141.6 168.8" stroke="#FFEA24" stroke-miterlimit="10"/>
<path d="M145 174.8C145 174.2 145.5 173.7 146.1 173.7C146.7 173.7 147.2 174.2 147.2 174.8C147.2 175.4 146.7 175.9 146.1 175.9C145.5 175.9 145 175.4 145 174.8Z" fill="#FFEA24" stroke="#FFEA24" stroke-miterlimit="10"/>
<path d="M148.4 165.6L141.8 171.9" stroke="#FFEA24" stroke-miterlimit="10"/>
<path d="M148.4 142.8L141.8 149.1" stroke="#FFEA24" stroke-miterlimit="10"/>
<path d="M144.9 156.8C144.9 156.2 145.4 155.7 146 155.7C146.6 155.7 147.1 156.2 147.1 156.8C147.1 157.4 146.6 157.9 146 157.9C145.4 157.9 144.9 157.4 144.9 156.8Z" fill="#FFEA24" stroke="#FFEA24" stroke-miterlimit="10"/>
<path d="M148.3 147.6L141.7 153.9" stroke="#FFEA24" stroke-miterlimit="10"/>
<path d="M143.8 139.3C143.8 138.7 144.3 138.2 144.9 138.2C145.5 138.2 146 138.7 146 139.3C146 139.9 145.5 140.4 144.9 140.4C144.3 140.4 143.8 139.9 143.8 139.3Z" fill="#FFEA24" stroke="#FFEA24" stroke-miterlimit="10"/>
<path d="M148.4 129.1L141.8 135.4" stroke="#FFEA24" stroke-miterlimit="10"/>
<path d="M62.3004 175.7C60.6004 134.1 52.4004 127.4 52.4004 127.4H55.4004C65.7004 144.7 64.8004 176.1 64.8004 176.1L62.3004 175.7Z" fill="#FFEA24" stroke="#13110C" stroke-miterlimit="10"/>
<path d="M65.3003 127.4C74.2003 142.4 72.8003 172.7 72.8003 172.7L75.7002 173.1C75.7002 173.1 76.7002 147.9 68.7002 127.4H65.3003Z" fill="#FFEA24" stroke="#13110C" stroke-miterlimit="10"/>
<path d="M64.8004 176.1C65.2004 141.6 55.4004 127.4 55.4004 127.4H65.3004C65.3004 127.4 74.7004 141.2 72.8004 172C72.8004 172 70.4004 171.5 66.0004 176.4L64.8004 176.1Z" fill="#211C4B" stroke="#13110C" stroke-miterlimit="10"/>
<path d="M65.5002 175.3L70.1002 171.7L64.8003 168.4" stroke="white" stroke-miterlimit="10"/>
<path d="M64.8003 158.1L68.7002 153.9L63.8003 150.9" stroke="white" stroke-miterlimit="10"/>
<path d="M61.6002 140.9L64.8003 136.4L59.3003 133.6" stroke="white" stroke-miterlimit="10"/>
<path d="M72.3 167.9H71.5" stroke="white" stroke-miterlimit="10"/>
<path d="M72.3002 166.2H70.1001" stroke="white" stroke-miterlimit="10"/>
<path d="M72.3 164.2H68" stroke="white" stroke-miterlimit="10"/>
<path d="M72.2003 160.8H67.9004" stroke="white" stroke-miterlimit="10"/>
<path d="M68.8002 138.4L68.1001 138.6" stroke="white" stroke-miterlimit="10"/>
<path d="M69.3003 140.1L67.2002 140.5" stroke="white" stroke-miterlimit="10"/>
<path d="M71.0002 149.2L70.3003 149.4" stroke="white" stroke-miterlimit="10"/>
<path d="M70.7001 147.6L68.6001 148" stroke="white" stroke-miterlimit="10"/>
<path d="M70.4001 145.7L66.1001 146.4" stroke="white" stroke-miterlimit="10"/>
<path d="M69.8 142.3L65.5 143" stroke="white" stroke-miterlimit="10"/>
<path d="M66.9003 132.4L66.2002 132.6" stroke="white" stroke-miterlimit="10"/>
<path d="M66.3003 130.8L64.3003 131.6" stroke="white" stroke-miterlimit="10"/>
<path d="M65.6001 129L61.6001 130.6" stroke="white" stroke-miterlimit="10"/>
<path d="M60.0001 149.9L59.5001 147.3L46.4001 157.6L41.1001 155.8V158.1L46.6001 160.2L60.0001 149.9Z" fill="white" stroke="#13110C" stroke-miterlimit="10"/>
<path d="M59.5 147.3C59.5 147.3 57.7 133.8 52.4 127.4H49C49 127.4 55.4 137.1 56.8 149.4L59.5 147.3Z" fill="#E31518" stroke="#13110C" stroke-miterlimit="10"/>
<path d="M44.5001 127.4L44.4001 142.5C44.4001 142.5 47.8002 145.5 49.8002 155L46.4001 157.7L45.4001 157.3C45.4001 157.3 44.8001 150.1 41.1001 145.7V127.4H44.5001H89.6002H44.5001Z" fill="#E31518"/>
<path d="M44.5001 127.4L44.4001 142.5C44.4001 142.5 47.8002 145.5 49.8002 155L46.4001 157.7L45.4001 157.3C45.4001 157.3 44.8001 150.1 41.1001 145.7V127.4H44.5001ZM44.5001 127.4H89.6002" stroke="#13110C" stroke-miterlimit="10"/>
<path d="M56.9004 149.4L49.8004 155C49.8004 155 48.4004 147.6 44.4004 142.5V127.8L44.5004 127.4H48.7003L49.3004 127.8C49.3004 127.8 53.2004 132 56.9004 149.4Z" fill="#13110C" stroke="#13110C" stroke-miterlimit="10"/>
<path d="M47.6001 141.2V130.6C51.1001 135 53.5001 147.6 53.5001 147.6C53.5001 147.6 51.7001 149.9 50.9001 149.3L47.6001 141.2Z" stroke="white" stroke-miterlimit="10"/>
<path d="M45.4001 157.3L41.1001 155.8V146.2C41.1001 146.1 44.5001 149.2 45.4001 157.3Z" fill="#211C4B" stroke="#13110C" stroke-miterlimit="10"/>
<path d="M56.9003 175.1L51.3003 171.8L51.6002 171.5L55.4003 168.5L51.3003 165.7L54.1002 162.4L51.3003 160.8L54.7002 158.6L59.1002 162L55.9003 165.1L59.5002 168.4L56.1002 171.8L59.3003 175.2L56.9003 175.1Z" fill="#FFEA24" stroke="#13110C" stroke-miterlimit="10"/>
<path d="M51.3003 171.8L55.4003 168.5L51.3003 165.7V171.8Z" fill="#E31518" stroke="#13110C" stroke-miterlimit="10"/>
<path d="M61.6002 174.7C61.6002 174.7 61.3002 169 61.2002 168.5" stroke="white" stroke-miterlimit="10"/>
<path d="M61.2 167.3L60.5 162" stroke="white" stroke-miterlimit="10"/>
<path d="M60.5001 160.8L59.6001 155.7" stroke="white" stroke-miterlimit="10"/>
<path d="M110.7 127.6C117.2 151.1 138.9 172.7 138.9 172.7V168.7C138.9 168.7 120.3 149 113.7 127.5L110.7 127.6Z" fill="#FFEA24" stroke="#13110C" stroke-miterlimit="10"/>
<path d="M123 127.6C126.1 139.9 138.9 154.6 138.9 154.6V150.7C138.9 150.7 128.8 137.9 125.9 127.6H123Z" fill="#FFEA24" stroke="#13110C" stroke-miterlimit="10"/>
<path d="M138.9 154.6C125.2 137.9 123 127.6 123 127.6L113.7 127.5C121.3 150.2 138.9 168.7 138.9 168.7V154.6Z" fill="#211C4B" stroke="#13110C" stroke-miterlimit="10"/>
<path d="M125 148.4L125.7 148" stroke="white" stroke-miterlimit="10"/>
<path d="M124 146.9L125.9 145.9" stroke="white" stroke-miterlimit="10"/>
<path d="M119.3 139L120 138.6" stroke="white" stroke-miterlimit="10"/>
<path d="M120.1 140.4L122 139.3" stroke="white" stroke-miterlimit="10"/>
<path d="M121.1 142.1L124.9 140" stroke="white" stroke-miterlimit="10"/>
<path d="M122.8 145.1L126.6 143" stroke="white" stroke-miterlimit="10"/>
<path d="M136.2 164.2L136.8 163.8" stroke="white" stroke-miterlimit="10"/>
<path d="M135 162.9L136.8 161.6" stroke="white" stroke-miterlimit="10"/>
<path d="M129.3 155.7L129.9 155.3" stroke="white" stroke-miterlimit="10"/>
<path d="M130.3 157L132 155.7" stroke="white" stroke-miterlimit="10"/>
<path d="M131.5 158.6L134.9 156" stroke="white" stroke-miterlimit="10"/>
<path d="M133.6 161.3L137 158.6" stroke="white" stroke-miterlimit="10"/>
<path d="M115.2 129.1L115.9 128.8" stroke="white" stroke-miterlimit="10"/>
<path d="M115.8 130.6L117.9 129.7" stroke="white" stroke-miterlimit="10"/>
<path d="M116.6 132.4L120.6 130.8" stroke="white" stroke-miterlimit="10"/>
<path d="M130 144.7L128.9 150.4L134.7 150.2" stroke="white" stroke-miterlimit="10"/>
<path d="M122.4 130.3L120 135.6L125.6 136.8" stroke="white" stroke-miterlimit="10"/>
<path d="M89.6001 127.4L149.4 127.9" stroke="#13110C" stroke-miterlimit="10"/>
<path d="M138.9 127.8V150.7C138.9 150.7 129 138.2 126 127.6L138.9 127.8Z" fill="#E31518" stroke="#13110C" stroke-miterlimit="10"/>
<path d="M134.9 127.9V139C134.9 139 129.7 132.6 129 127.9H134.9Z" fill="#13110C" stroke="#13110C" stroke-miterlimit="10"/>
<path d="M79.6001 127.4C84.7001 131.8 88.3002 136.9 88.3002 136.9C96.8002 147.9 108.6 153.3 108.6 153.3C116.4 157.9 125.4 156.4 125.4 156.4L124 154.4C124 154.4 114 155.8 103.7 147.3C103.7 147.3 94.1002 140.6 90.8002 135.8C90.8002 135.8 86.2002 129.4 82.3002 127.4H79.6001Z" fill="#FFEA24" stroke="#13110C" stroke-miterlimit="10"/>
<path d="M96 127.4C104.3 138.5 116.2 141.4 116.2 141.4L114.8 138.6C114.8 138.6 105.5 135.6 99.2 127.4H96Z" fill="#FFEA24" stroke="#13110C" stroke-miterlimit="10"/>
<path d="M110.7 127.5L102.7 131.2C102.7 131.2 107.2 135.8 114.8 138.5C114.9 138.6 111.3 130 110.7 127.5Z" fill="#211C4B" stroke="#13110C" stroke-miterlimit="10"/>
<path d="M102.7 131.2L100.6 129.1L103.9 127.5H110.7L102.7 131.2Z" fill="#FFEA24" stroke="#13110C" stroke-miterlimit="10"/>
<path d="M103.7 127.6L100.6 129.1L99.2002 127.4H103.7" fill="#13110C"/>
<path d="M103.7 127.6L100.6 129.1L99.2002 127.4H103.7" stroke="#13110C" stroke-miterlimit="10"/>
<path d="M96.0002 127.4L82.3003 127.3C87.1003 130.1 91.9001 137.2 91.9001 137.2C93.8001 139.7 101.4 145.6 101.4 145.6C112.9 155.7 123.9 154.3 123.9 154.3C123.9 154.3 116.9 143.8 116.2 141.4C116.3 141.4 106.6 140.1 96.0002 127.4Z" fill="#13110C" stroke="#13110C" stroke-miterlimit="10"/>
<path d="M120 150.1C120 150.1 113.8 152.8 111.4 148.4C111.4 148.4 110.2 143.4 107.5 140.9C107.5 140.9 104.7 137.5 98 138.2C98 138.2 92.6001 137.6 90.6001 130.4C90.6001 130.4 89.9 128.5 90 128" stroke="white" stroke-miterlimit="10"/>
<path d="M113.7 145.9C113.7 145.9 115.8 147.3 115.9 145.1C116.1 142.9 112.9 142.5 111.4 144.7L110.7 146" stroke="white" stroke-miterlimit="10"/>
<path d="M104.1 142C104.1 142 104.6 144 102.5 144.1C102.5 144.1 99.1001 143.2 102.2 139.4L103.7 138.8" stroke="white" stroke-miterlimit="10"/>
<path d="M95.5003 134.1C95.5003 134.1 97.9003 135 98.0003 132.7C98.0003 132.7 97.9002 128.6 93.4002 131.9C93.4002 131.9 92.2004 132.9 92.3004 134.3" stroke="white" stroke-miterlimit="10"/>
<path d="M105.8 146.4C105.8 145.8 106.3 145.4 106.8 145.4C107.4 145.4 107.8 145.9 107.8 146.4C107.8 146.9 107.3 147.4 106.8 147.4C106.2 147.4 105.8 146.9 105.8 146.4Z" fill="white"/>
<path d="M110.1 142C110.1 141.4 110.6 141 111.1 141C111.6 141 112.1 141.4 112.1 142C112.1 142.6 111.6 143 111.1 143C110.6 143 110.1 142.5 110.1 142Z" fill="white"/>
<path d="M97.2002 140.3C97.2002 139.7 97.7002 139.3 98.2002 139.3C98.8002 139.3 99.2002 139.7 99.2002 140.3C99.2002 140.9 98.7002 141.3 98.2002 141.3C97.7002 141.3 97.2002 140.9 97.2002 140.3Z" fill="white"/>
<path d="M99.8999 135.4C99.8999 134.8 100.4 134.4 100.9 134.4C101.5 134.4 101.9 134.8 101.9 135.4C101.9 136 101.4 136.4 100.9 136.4C100.3 136.4 99.8999 135.9 99.8999 135.4Z" fill="white"/>
<path d="M92.3003 129.1C92.3003 128.5 92.8003 128.1 93.3003 128.1C93.9003 128.1 94.3003 128.6 94.3003 129.1C94.3003 129.6 93.8003 130.1 93.3003 130.1C92.8003 130.1 92.3003 129.7 92.3003 129.1Z" fill="white"/>
<path d="M73.1 142.7C80.5 139.7 85.7 133.6 85.7 133.6L84.2 131.9C84.2 131.9 78.4 137.5 72.5 140.1L73.1 142.7Z" fill="#FFEA24" stroke="#13110C" stroke-miterlimit="10"/>
<path d="M77.7001 127.4C77.3001 127.8 70.5001 132.2 70.5001 132.2L69.6001 129.4L73.6001 127.4H77.7001Z" fill="#FFEA24" stroke="#13110C" stroke-miterlimit="10"/>
<path d="M78.3002 136.8L73.9001 129.9L71.6001 131.4L75.6001 138.5L78.3002 136.8Z" fill="#FFEA24" stroke="#13110C" stroke-miterlimit="10"/>
<path d="M82.6002 133.3L80.5002 135.1L75.8003 128.7L77.7002 127.4L82.6002 133.3Z" fill="#FFEA24" stroke="#13110C" stroke-miterlimit="10"/>
<path d="M73.5002 127.4L69.5002 129.3L68.8003 127.4H73.5002Z" fill="#13110C" stroke="#13110C" stroke-miterlimit="10"/>
<path d="M110.6 185.9C110.6 185.9 120.5 181.4 129 176C131.8 174.2 134.4 172.4 136.6 170.6C136.7 170.5 136.7 170.5 136.8 170.4L129.4 161.6L129.1 176" fill="#211C4B"/>
<path d="M110.6 185.9C110.6 185.9 120.5 181.4 129 176C131.8 174.2 134.4 172.4 136.6 170.6C136.7 170.5 136.7 170.5 136.8 170.4L129.4 161.6L129.1 176" stroke="#13110C" stroke-miterlimit="10"/>
<path d="M129 161.3V176L126 177.8L126.3 157.6L129 161.3Z" fill="#13110C" stroke="#13110C" stroke-miterlimit="10"/>
<path d="M114.2 184.2V155.6L111.5 154.6L111.6 185.4L114.2 184.2Z" fill="#13110C" stroke="#13110C" stroke-miterlimit="10"/>
<path d="M125 177.3V169.1" stroke="white" stroke-miterlimit="10"/>
<path d="M125 165.7V158.1" stroke="white" stroke-miterlimit="10"/>
<path d="M115.2 177.3V169.8" stroke="white" stroke-miterlimit="10"/>
<path d="M115.2 165.9V158.1" stroke="white" stroke-miterlimit="10"/>
<path d="M124.8 167.7L120.2 172.7L115.6 167.5L120.2 162.5L124.8 167.7Z" fill="white" stroke="white" stroke-miterlimit="10"/>
<path d="M120.231 165.632L118.12 167.763L120.251 169.875L122.362 167.744L120.231 165.632Z" fill="#E31518"/>
<path d="M121.4 179.8L120 178.2L117.4 180.6L118.6 181.3L121.4 179.8Z" fill="#E31518"/>
<path d="M121.7 157.2H118.5L120.1 159.2L121.7 157.2Z" fill="#E31518"/>
<path d="M111.1 185.7L84.2002 168.8L77.4003 173.5L75.7002 173V171.8L84.2002 166.2L111.6 183L111.1 185.7Z" fill="#FFEA24" stroke="#13110C" stroke-miterlimit="10"/>
<path d="M90.5 172.7L84.3 168.7L77.5 173.5L86.3 178.2C86.2 178.2 86.5 174 90.5 172.7Z" fill="#E31518" stroke="#13110C" stroke-miterlimit="10"/>
<path d="M111.5 170.8V177.3L109.2 181.5L106.5 179.9L109.4 174.2L106.5 172.7L103.3 178L100.6 176.3L103.8 170.8L100.9 169.1L97.8004 174.6L95.2003 172.9L97.8004 167.3L95.2003 165.9L92.0004 171L88.9003 169.1L92.0004 164.2L89.4003 162.5L86.4003 167.6L84.2003 166.2L85.6005 160.2L84.2003 159.2L81.5004 161.5L83.0004 167.1L80.4004 168.8L77.9004 163.5L75.8004 164.4L75.4004 159.8L84.2003 154.7L111.5 170.8Z" fill="#FFEA24" stroke="#13110C" stroke-miterlimit="10"/>
<path d="M108.1 180.7L111.6 173.8L84.2 157.2L75.5 162" stroke="#13110C" stroke-width="0.5" stroke-miterlimit="10"/>
<path d="M101.9 177.1L105.8 170.3" stroke="#13110C" stroke-width="0.5" stroke-miterlimit="10"/>
<path d="M96.5 173.8L100.2 166.9" stroke="#13110C" stroke-width="0.5" stroke-miterlimit="10"/>
<path d="M90.5 170.1L94.6001 163.5" stroke="#13110C" stroke-width="0.5" stroke-miterlimit="10"/>
<path d="M85.3003 166.9L89.0002 160.1" stroke="#13110C" stroke-width="0.5" stroke-miterlimit="10"/>
<path d="M81.8003 167.9L78.3003 160.5" stroke="#13110C" stroke-width="0.5" stroke-miterlimit="10"/>
<path d="M85.8002 133.7L82.6001 136.6V152.3L75.1001 156.9L75.4001 159.8L84.2001 154.7L111.5 170.8V166.9L100.2 160.2L100.5 148.4L97.2001 146.1L96.9 158.3L86.2001 152.2L85.8002 133.7Z" fill="#13110C" stroke="#13110C" stroke-miterlimit="10"/>
<path d="M111.5 154.6C108.8 153.7 100.5 148.3 100.5 148.3L100.3 160.1L111.5 166.8V154.6Z" fill="#E31518" stroke="#13110C" stroke-miterlimit="10"/>
<path d="M110.6 163.5L102.5 158.9L102.7 150.7" stroke="#13110C" stroke-miterlimit="10"/>
<path d="M80.7002 139.4V150.7L75.8003 153.7" stroke="#13110C" stroke-miterlimit="10"/>
<path d="M96.8999 158.1L95 157.2L95.5 144.4L97.2 146.1L96.8999 158.1Z" fill="white" stroke="#13110C" stroke-miterlimit="10"/>
<path d="M88.2002 153.3L88.3003 136.8L86.2002 134.2V152.2L88.2002 153.3Z" fill="white" stroke="#13110C" stroke-miterlimit="10"/>
<path d="M93.3 150.1H89.5V152.4H93.3V150.1Z" stroke="#13110C" stroke-miterlimit="10"/>
<path d="M93.3 144.4H89.3999V146.4H93.3V144.4Z" stroke="#13110C" stroke-miterlimit="10"/>
<path d="M94.6001 154.4L90.3999 154.6" stroke="#13110C" stroke-miterlimit="10"/>
<path d="M95.2002 148.4L88.3003 148.1" stroke="#13110C" stroke-miterlimit="10"/>
<path d="M91.9001 141.4L88.3003 141.3" stroke="#13110C" stroke-miterlimit="10"/>
<path d="M16.4 43.9001C16.8 45.0001 17.5 46.6002 18.6 47.3002H13.8C15 46.3002 15.6 44.9001 15.9 43.9001C15.2 45.1001 13.9 45.9001 12.5 45.9001C10.3 45.9001 8.5 44.1001 8.5 41.9001C8.5 39.7001 10.3 37.9001 12.5 37.9001C12.9 37.9001 13.4 38.0002 13.8 38.1002C13 37.4002 12.5 36.3002 12.5 35.2002C12.5 33.0002 14.3 31.2002 16.5 31.2002C18.7 31.2002 20.5 33.0002 20.5 35.2002C20.5 36.4002 19.9 37.5002 19.1 38.2002C19.4 38.1002 19.8 38.1002 20.1 38.1002C22.3 38.1002 24.1 39.9002 24.1 42.1002C24.1 44.3002 22.3 46.1002 20.1 46.1002C18.4 46.1002 17.1 45.2001 16.4 43.9001Z" fill="#1D1D1B"/>
<path d="M163.4 211.9C163 210.8 162.3 209.2 161.2 208.5H166C164.8 209.5 164.2 210.9 163.9 211.9C164.6 210.7 165.9 209.9 167.3 209.9C169.5 209.9 171.3 211.7 171.3 213.9C171.3 216.1 169.5 217.9 167.3 217.9C166.9 217.9 166.4 217.8 166 217.7C166.8 218.4 167.3 219.5 167.3 220.6C167.3 222.8 165.5 224.6 163.3 224.6C161.1 224.6 159.3 222.8 159.3 220.6C159.3 219.4 159.9 218.3 160.7 217.6C160.4 217.7 160 217.7 159.7 217.7C157.5 217.7 155.7 215.9 155.7 213.7C155.7 211.5 157.5 209.7 159.7 209.7C161.4 209.7 162.8 210.6 163.4 211.9Z" fill="#1D1D1B"/>
<path d="M51.6001 59.7002C52.1001 61.3002 53.1002 63.6002 54.8002 64.6002H47.8002C49.6002 63.2002 50.4002 61.1002 50.8002 59.7002C49.8002 61.4002 48.0002 62.6002 45.8002 62.6002C42.6002 62.6002 40.1001 60.0001 40.1001 56.9001C40.1001 53.7001 42.7002 51.2002 45.8002 51.2002C46.4002 51.2002 47.0001 51.3001 47.6001 51.5001C46.5001 50.5001 45.8002 49.0002 45.8002 47.3002C45.8002 44.1002 48.4001 41.6002 51.5001 41.6002C54.7001 41.6002 57.2001 44.2002 57.2001 47.3002C57.2001 49.1002 56.4001 50.6002 55.2001 51.7002C55.7001 51.6002 56.2001 51.5001 56.7001 51.5001C59.9001 51.5001 62.4001 54.1002 62.4001 57.2002C62.4001 60.3002 59.8001 62.9001 56.7001 62.9001C54.4001 62.9001 52.5001 61.6002 51.6001 59.7002Z" fill="#1D1D1B"/>
<path d="M129.7 194.6C129.2 193 128.2 190.7 126.5 189.7H133.5C131.7 191.1 130.9 193.2 130.5 194.6C131.5 192.9 133.3 191.7 135.5 191.7C138.7 191.7 141.2 194.3 141.2 197.4C141.2 200.6 138.6 203.1 135.5 203.1C134.9 203.1 134.3 203 133.7 202.8C134.8 203.8 135.5 205.3 135.5 207C135.5 210.2 132.9 212.7 129.8 212.7C126.7 212.7 124.1 210.1 124.1 207C124.1 205.2 124.9 203.7 126.1 202.6C125.6 202.7 125.1 202.8 124.6 202.8C121.4 202.8 118.9 200.2 118.9 197.1C118.9 194 121.5 191.4 124.6 191.4C126.8 191.4 128.7 192.7 129.7 194.6Z" fill="#1D1D1B"/>
</svg>
