<svg width="180" height="254" viewBox="0 0 180 254" fill="none" xmlns="http://www.w3.org/2000/svg">
<path d="M179.3 231.5C179.3 243.3 172.5 252.9 164.1 252.9H15.8002C7.40017 252.9 0.600098 243.3 0.600098 231.5V22.3002C0.600098 10.5002 7.40017 0.900146 15.8002 0.900146H164.1C172.5 0.900146 179.3 10.5002 179.3 22.3002V231.5Z" fill="white" stroke="#1D1D1B" stroke-miterlimit="10"/>
<path d="M129.2 126.5H132C132 126.5 133 111.9 141.4 99.3001L141.3 95.0002C141.4 94.9002 131.4 106.4 129.2 126.5Z" fill="#211C4B" stroke="#13110C" stroke-miterlimit="10"/>
<path d="M139.7 91.7002C139.7 91.7002 128.6 104.2 126.1 126.5H129.2C129.2 126.5 131.7 105.6 141.5 94.8002C141.5 94.8002 142.9 90.6002 141.3 91.1002C139.7 91.7002 139.7 91.7002 139.7 91.7002Z" fill="#FFE922" stroke="#13110C" stroke-miterlimit="10"/>
<path d="M122.6 126.5H126.1C126.1 126.5 128.6 103.9 139.7 91.7002C139.7 91.7002 142.9 84.4002 140.7 85.7002L138.5 86.9001C138.5 86.9001 131.3 96.9001 126.5 108.9C126.4 109 124.1 113 122.6 126.5Z" fill="#211C4B" stroke="#13110C" stroke-miterlimit="10"/>
<path d="M112.3 74.8002C120.7 77.4002 122.7 76.9001 122.7 76.9001C114.6 87.2001 101.8 89.9001 101.8 89.9001C89.6 93.1001 77.4 89.3002 77.4 89.3002C70.2 87.9002 61.5 81.9001 61.5 81.9001C62 81.2001 63.8 75.2002 63.8 75.2002C63.8 75.2002 66.7 76.7001 68.9 75.4001C68.9 75.4001 72.3 80.2002 80.5 81.1002C80.5 81.1002 91.1 83.8002 99.8 81.5002C99.6 81.5002 107.1 78.9002 112.3 74.8002Z" fill="#211C4B" stroke="#13110C" stroke-miterlimit="10"/>
<path d="M88.6003 93.7002L87.8003 107.1L98.1003 93.3002L88.6003 93.7002Z" fill="#E31518" stroke="#13110C" stroke-miterlimit="10"/>
<path d="M65.5 87.1002L76.7 107.9L77.9 91.7002C77.9 91.7002 69.6 89.5002 65.5 87.1002Z" fill="#E31518" stroke="#13110C" stroke-miterlimit="10"/>
<path d="M115.7 80.9001C117.3 77.8001 115.5 75.7002 115.5 75.7002C114.2 73.8002 116.2 73.5002 116.2 73.5002C120.7 80.2002 115.7 82.9001 115.7 82.9001C111.1 86.0001 107.3 79.3002 107.3 79.3002C107.3 79.3002 108.4 78.0001 109 78.9001C109 78.9001 112 83.3002 114.6 81.7002L115.7 80.9001Z" fill="#FFE922"/>
<path d="M28.5 67.1002V126.5H33.5L33.9 73.7002L28.5 67.1002Z" fill="#13110C" stroke="#13110C" stroke-miterlimit="10"/>
<path d="M110.4 74.3002L109.2 72.0002C103.7 61.4002 76.9001 64.8002 76.9001 64.8002C71.1001 63.3002 72.9001 70.9001 72.9001 70.9001C73.3001 72.4001 70.1001 74.6001 70.1001 74.6001C70.1001 74.6001 74.6 79.2001 85.9 80.1001C85.9 80.1001 99.0002 81.5001 106.1 76.6001L110.4 74.3002Z" fill="#E31518" stroke="#13110C" stroke-miterlimit="10"/>
<path d="M11.7002 20.1002C11.7002 21.0002 11.7002 21.3002 11.7002 21.2002C11.7002 22.0002 11.9002 22.7002 12.2002 23.2002C12.6002 23.8002 13.2003 24.1002 14.1003 24.1002C14.8003 24.1002 15.4003 23.8002 15.8003 23.3002C16.2003 22.8002 16.4003 22.2002 16.4003 21.5002V11.1002H14.5003V8.60016H20.7002V11.1002H18.9003V21.5002C18.9003 22.9002 18.5003 24.1002 17.6003 25.0002C16.7003 26.0002 15.6002 26.5002 14.2002 26.5002C12.8002 26.5002 11.6002 26.0002 10.7002 25.0002C9.80024 24.0002 9.30032 22.8001 9.40032 21.4001V20.0002H11.7002V20.1002Z" fill="#E30B13"/>
<path d="M165.4 231.8C165.4 230.9 165.4 230.6 165.4 230.7C165.4 229.9 165.2 229.2 164.9 228.7C164.5 228.1 163.9 227.8 163 227.8C162.3 227.8 161.7 228.1 161.3 228.6C160.9 229.1 160.7 229.7 160.7 230.4V240.8H162.6V243.3H156.4V240.8H158.2V230.4C158.2 229 158.6 227.8 159.5 226.9C160.4 225.9 161.5 225.4 162.9 225.4C164.3 225.4 165.5 225.9 166.4 226.9C167.3 227.9 167.8 229.1 167.7 230.5V231.9H165.4V231.8Z" fill="#E30B13"/>
<path d="M88 126.5H147.5" stroke="#13110C" stroke-miterlimit="10"/>
<path d="M88 126.5H28.5" stroke="#13110C" stroke-miterlimit="10"/>
<path d="M126.5 30.3002H60.5L70 44.7002C70 44.7002 100.2 41.0002 116.2 45.7002L126.5 30.3002Z" fill="#E31518" stroke="#13110C" stroke-miterlimit="10"/>
<path d="M116.3 45.7002L118.1 43.0002C97.4003 36.6002 68.3003 42.1001 68.3003 42.1001L70.1002 44.8001C70.1002 44.7001 101.2 41.0002 116.3 45.7002Z" fill="#13110C" stroke="#13110C" stroke-miterlimit="10"/>
<path d="M68.7 30.3002L72 35.4001H80.3L80.6 30.3002H82.8L82.3 37.2002L70.5 38.0002L66 30.3002H68.7Z" fill="white"/>
<path d="M118.7 31.0002L115.5 36.0002L107.2 36.1002L106.8 31.0002H104.6L105.2 37.9001L117 38.7002L121.4 31.0002H118.7Z" fill="white"/>
<path d="M86.8999 30.3002V36.2002H100.1V30.3002H98.1001L98 34.9001L89.7 35.0002V30.3002H86.8999Z" fill="white"/>
<path d="M147.4 29.8002H28.5V223.3H147.4V29.8002Z" stroke="#13110C" stroke-miterlimit="10"/>
<path d="M98.9002 60.9002C100.6 68.3002 98.0003 69.9002 98.0003 69.9002C89.0003 79.1002 82.8004 78.2002 82.8004 78.2002C77.2004 77.5002 71.7003 65.4002 71.7003 65.4002C69.6003 61.7002 70.8004 44.6002 70.8004 44.6002C70.8004 44.6002 85.8002 42.9002 95.4002 43.3002C95.4002 43.3002 96.5003 43.8002 98.2003 58.6002L98.9002 60.9002Z" fill="#FED68A" stroke="#13110C" stroke-miterlimit="10"/>
<path d="M84.5004 60.8002C84.5004 60.8002 84.0004 61.6002 81.4004 61.9002C80.7004 62.0002 80.0003 63.5002 78.7003 63.0002C75.6003 61.9002 78.1003 57.3002 78.1003 57.3002C79.5003 52.2002 78.1003 49.2002 78.1003 49.2002C75.3003 47.0002 71.4004 48.1002 71.4004 48.1002" stroke="#13110C" stroke-miterlimit="10"/>
<path d="M83.2002 47.6002C83.2002 47.6002 89.7003 45.2002 93.8003 47.8002" stroke="#13110C" stroke-miterlimit="10"/>
<path d="M92.6002 51.7002C85.4002 48.9002 82.1001 52.1001 82.1001 52.1001C82.1001 52.1001 83.6 55.4001 91.9 52.9001C91.9 52.8001 92.9002 51.8002 92.6002 51.7002Z" stroke="#13110C" stroke-miterlimit="10"/>
<path d="M83.2002 53.8002C83.2002 53.8002 85.2001 56.0002 87.4001 56.1002" stroke="#13110C" stroke-miterlimit="10"/>
<path d="M77.9003 51.8002C73.8003 49.6002 71.3003 52.2002 71.3003 52.2002C71.3003 52.2002 72.8002 55.4002 77.6002 53.5002C77.6002 53.4002 78.2003 52.0002 77.9003 51.8002Z" stroke="#13110C" stroke-miterlimit="10"/>
<path d="M76.9 54.4001C76.9 54.4001 75.8 56.1002 74 56.1002" stroke="#13110C" stroke-miterlimit="10"/>
<path d="M76.1 52.3002C76.1 52.6002 75.5 52.8002 74.8 52.8002C74.1 52.8002 73.5 52.6002 73.5 52.3002C73.5 52.0002 74.1 51.8002 74.8 51.8002C75.5 51.8002 76.1 52.0002 76.1 52.3002Z" stroke="#13110C" stroke-miterlimit="10"/>
<path d="M87.8003 52.2002C87.8003 52.5002 87.2002 52.7002 86.5002 52.7002C85.8002 52.7002 85.2002 52.5002 85.2002 52.2002C85.2002 51.9002 85.8002 51.7002 86.5002 51.7002C87.2002 51.8002 87.8003 52.0002 87.8003 52.2002Z" stroke="#13110C" stroke-miterlimit="10"/>
<path d="M82.6001 66.0002C82.6001 66.0002 85.0001 65.8002 86.5001 67.0002C86.5001 67.0002 90.2001 67.8002 90.5001 66.0002C90.5001 66.0002 90.8 63.8002 88.4 64.5002" stroke="#13110C" stroke-miterlimit="10"/>
<path d="M82.6001 66.3001C82.6001 66.3001 84.0001 66.0001 84.5001 66.3001" stroke="#13110C" stroke-miterlimit="10"/>
<path d="M78.6001 66.3002C78.6001 66.3002 76.5002 66.7002 75.4002 67.5002C75.4002 67.5002 72.0002 68.2002 72.9002 65.7002C72.9002 65.7002 73.3002 64.7002 73.9002 65.3002" stroke="#13110C" stroke-miterlimit="10"/>
<path d="M76.9004 70.1002H85.9003" stroke="#13110C" stroke-miterlimit="10"/>
<path d="M79.6001 69.4001H82.6001" stroke="#13110C" stroke-miterlimit="10"/>
<path d="M80.3003 72.8002L82.2002 74.3002" stroke="#13110C" stroke-miterlimit="10"/>
<path d="M80.3003 74.3002L82.2002 72.8002" stroke="#13110C" stroke-miterlimit="10"/>
<path d="M72.5 67.1002L72.8 70.1002C73.8 72.6002 69 75.3002 69 75.3002C64.2 77.3002 61.1999 73.2002 61.1999 73.2002C59.1999 69.5002 61.1999 66.4001 61.1999 66.4001C62.2999 63.7001 66.0999 64.8002 66.0999 64.8002C68.6999 66.6002 68 64.3002 68 64.3002C67 61.1002 67.3 54.4001 67.3 54.4001C67 48.6001 70.1999 44.7002 70.1999 44.7002L70.9 44.6002C70.9 44.6002 70.1 58.7002 70.8 60.7002C70.7 60.8002 70.9 64.2002 72.5 67.1002Z" fill="#E2C80B" stroke="#13110C" stroke-miterlimit="10"/>
<path d="M66.6001 69.4001C66.6001 69.4001 67.4001 68.0001 66.0001 67.9001C64.6001 67.8001 63.6001 70.0002 64.2001 71.0002C64.2001 71.0002 65.4002 72.7002 68.3002 71.0002C68.3002 71.0002 69.7001 70.8002 69.1001 62.0002C69.1001 62.0002 67.7001 49.5002 69.6001 47.1002" stroke="#13110C" stroke-width="0.5" stroke-miterlimit="10"/>
<path d="M67.7002 68.6002C67.7002 68.6002 67.5002 65.2002 63.4002 67.1002C63.4002 67.1002 60.9002 71.3002 64.1002 73.5002C64.1002 73.5002 69.7002 74.7002 70.5002 70.8002C70.5002 70.8002 70.2002 65.2001 70.5002 63.4001" stroke="#13110C" stroke-width="0.5" stroke-miterlimit="10"/>
<path d="M99.5 67.1002C99.9 65.1002 98.6001 59.9001 98.6001 59.9001C98.3001 58.9001 98 57.0002 98 57.0002C97.5 49.1002 95.3999 43.3002 95.3999 43.3002C95.3999 43.3002 107.3 42.5002 117.1 46.5002C117.1 46.5002 119.2 56.2001 118.5 63.9001C118.5 63.9001 118.5 68.9002 120.3 66.2002C120.3 66.2002 122.8 63.7002 126.8 65.6002C126.8 65.6002 131.1 69.1002 127.5 74.2002C127.5 74.2002 125.1 77.4002 118.7 76.3002C118.7 76.3002 111.8 76.0001 101.5 69.4001C101.6 69.4001 99.5 67.9002 99.5 67.1002Z" fill="#E2C80B" stroke="#13110C" stroke-miterlimit="10"/>
<path d="M121.7 68.2002C121.7 68.2002 122.6 66.0002 125.1 67.1002C127.6 68.2002 127.3 71.0001 126.5 71.9001C125.8 72.8001 122.8 75.6002 120 73.6002C117.2 71.6002 116.7 67.9002 116.5 66.2002C116.2 64.5002 115.3 58.1002 115.4 56.7002C115.5 55.4002 114.5 47.2002 114.5 47.2002" stroke="#13110C" stroke-width="0.5" stroke-miterlimit="10"/>
<path d="M122.8 68.7002C122.8 68.7002 124.8 68.1002 124.8 69.7002C124.8 71.3002 124.1 72.5002 123.3 72.3002C122.5 72.1002 119.4 72.5002 117.9 67.5002C116.5 62.6002 117 58.5002 117 58.5002L116.1 47.7002" stroke="#13110C" stroke-width="0.5" stroke-miterlimit="10"/>
<path d="M97.5 44.3002C97.5 44.3002 100.3 55.6001 100.3 58.4001C100.2 61.2001 101.6 66.6002 101.7 67.1002" stroke="#13110C" stroke-width="0.5" stroke-miterlimit="10"/>
<path d="M99.6001 44.3002C99.6001 44.3002 103.4 68.7002 104.6 69.7002" stroke="#13110C" stroke-width="0.5" stroke-miterlimit="10"/>
<path d="M101.7 44.3002C101.7 44.3002 105.4 69.0002 107.8 71.5002" stroke="#13110C" stroke-width="0.5" stroke-miterlimit="10"/>
<path d="M104 44.7002C104 44.7002 108 69.6002 110.5 72.8002" stroke="#13110C" stroke-width="0.5" stroke-miterlimit="10"/>
<path d="M106.7 45.2002C106.7 45.2002 110 69.9001 113.1 73.9001" stroke="#13110C" stroke-width="0.5" stroke-miterlimit="10"/>
<path d="M108.9 45.7002C108.9 45.7002 112.7 71.7002 115 74.3002" stroke="#13110C" stroke-width="0.5" stroke-miterlimit="10"/>
<path d="M111.2 46.1002C111.2 46.1002 113.4 70.7002 117.4 74.8002" stroke="#13110C" stroke-width="0.5" stroke-miterlimit="10"/>
<path d="M113 46.6002C113 46.6002 113.5 71.1002 119.9 74.8002" stroke="#13110C" stroke-width="0.5" stroke-miterlimit="10"/>
<path d="M99.6003 67.5002C102 70.2002 106.3 72.2002 106.3 72.2002C101.3 74.7002 94.3003 73.8002 94.3003 73.8002C94.3003 73.8002 98.1003 71.0002 99.6003 67.5002Z" fill="white" stroke="#13110C" stroke-miterlimit="10"/>
<path d="M98.6001 70.7002C98.6001 70.7002 100.2 71.1002 101.3 70.7002" stroke="#13110C" stroke-width="0.5" stroke-miterlimit="10"/>
<path d="M97.3003 72.3002C97.3003 72.3002 100.1 72.9001 103.2 71.9001" stroke="#13110C" stroke-width="0.5" stroke-miterlimit="10"/>
<path d="M112 74.7002L110.6 74.2002L109.9 74.6002C101.5 79.6002 96.6003 80.1002 96.6003 80.1002C83.8003 81.0002 79.3003 79.0002 79.3003 79.0002C73.2003 77.4002 70.2002 74.7002 70.2002 74.7002L68.8003 75.6002C68.8003 75.6002 70.2002 78.2002 76.2002 80.2002C76.2002 80.2002 83.9002 82.5002 89.0002 82.5002C89.0002 82.5002 97.9003 83.0001 101.6 80.9001C101.6 80.9001 109.7 78.2002 111.5 75.7002L112 74.7002Z" fill="white" stroke="#13110C" stroke-miterlimit="10"/>
<path d="M94.3003 75.2002L97.3003 78.6002" stroke="#211C4B" stroke-miterlimit="10"/>
<path d="M99.2002 74.7002L101.7 77.1002" stroke="#211C4B" stroke-miterlimit="10"/>
<path d="M104.5 73.9001L106.3 75.4001" stroke="#211C4B" stroke-miterlimit="10"/>
<path d="M90.2002 77.1002L91.9001 79.0002" stroke="#211C4B" stroke-miterlimit="10"/>
<path d="M86.6001 78.3002L87.5 79.3002" stroke="#211C4B" stroke-miterlimit="10"/>
<path d="M73.4004 73.5002L75.0004 76.3002" stroke="#211C4B" stroke-miterlimit="10"/>
<path d="M77.6001 76.3002L79.0001 78.0002" stroke="#211C4B" stroke-miterlimit="10"/>
<path d="M147.5 33.3002L141 39.5002V58.4001V80.3002C141 80.3002 140.6 85.2002 143.5 82.7002L143.4 40.5002L147.5 36.1002V33.3002Z" fill="#FFE922" stroke="#13110C" stroke-miterlimit="10"/>
<path d="M143.4 82.7002H147.5V36.1002L143.4 40.5002V82.7002Z" fill="#13110C" stroke="#13110C" stroke-miterlimit="10"/>
<path d="M128.3 49.0002C128.3 49.0002 137.1 58.4002 147.5 61.8002V64.2002V69.4001V71.2002C147.5 71.3002 133.2 71.7002 128.3 49.0002Z" fill="#FFE922" stroke="#13110C" stroke-miterlimit="10"/>
<path d="M147.5 69.4001C138 68.4001 132.5 56.0002 132.5 56.0002C132.5 56.0002 140.6 62.1002 147.5 64.2002V69.4001Z" fill="#E31518"/>
<path d="M143.4 52.8002L147.5 49.9001" stroke="#FFE922" stroke-miterlimit="10"/>
<path d="M143.4 57.0002L147.5 54.4001" stroke="#FFE922" stroke-miterlimit="10"/>
<path d="M143.4 77.1002L147.5 74.3002" stroke="#FFE922" stroke-miterlimit="10"/>
<path d="M143.4 81.0002L147.5 78.6002" stroke="#FFE922" stroke-miterlimit="10"/>
<path d="M140.1 84.2002C140.1 84.2002 137.2 86.2001 139.7 87.4001C139.7 87.4001 137.6 89.6001 140.7 89.9001C140.7 89.9001 138.3 92.8002 141.3 92.8002C141.3 92.8002 139.9 94.5002 141.7 94.6002H147.4V82.7002C147.5 82.7002 141.5 82.5002 140.1 84.2002Z" fill="#FED68A" stroke="#13110C" stroke-miterlimit="10"/>
<path d="M140.7 81.0002C140.7 81.0002 137.8 81.4002 138 82.7002C138.3 84.0002 138.6 84.4002 139.7 84.5002C139.7 84.5002 140.7 83.4001 141.4 83.4001L140.7 81.0002Z" fill="#FED68A" stroke="#13110C" stroke-miterlimit="10"/>
<path d="M145.4 85.7002L139.7 87.4001" stroke="#13110C" stroke-miterlimit="10"/>
<path d="M145.4 88.6002L140.7 89.8002" stroke="#13110C" stroke-miterlimit="10"/>
<path d="M145.4 91.8002L141.3 92.8002" stroke="#13110C" stroke-miterlimit="10"/>
<path d="M141.5 94.6002L141.3 126.5H143.4V94.8002L141.5 94.6002Z" fill="#FFE922" stroke="#13110C" stroke-miterlimit="10"/>
<path d="M143.4 94.8002L147.5 94.6002V126.5H143.4V94.8002Z" fill="#13110C" stroke="#13110C" stroke-miterlimit="10"/>
<path d="M143.4 101.2L147.1 98.8002" stroke="#FFE922" stroke-miterlimit="10"/>
<path d="M143.7 105.1L147.5 102.8" stroke="#FFE922" stroke-miterlimit="10"/>
<path d="M143.4 115.2L147.1 112.8" stroke="#FFE922" stroke-miterlimit="10"/>
<path d="M143.7 119.1L147.5 116.7" stroke="#FFE922" stroke-miterlimit="10"/>
<path d="M28.5 63.5002V67.1002L33.9 73.5002L33.5 126.5H35.5V71.0002L28.5 63.5002Z" fill="#FFE922" stroke="#13110C" stroke-miterlimit="10"/>
<path d="M29.1001 87.8002L33.1001 85.3002" stroke="#FFE922" stroke-miterlimit="10"/>
<path d="M29.3003 91.6002L33.3003 89.1002" stroke="#FFE922" stroke-miterlimit="10"/>
<path d="M29 104.2L33 101.8" stroke="#FFE922" stroke-miterlimit="10"/>
<path d="M29.1001 108.1L33.1001 105.6" stroke="#FFE922" stroke-miterlimit="10"/>
<path d="M29 121L33 118.5" stroke="#FFE922" stroke-miterlimit="10"/>
<path d="M29.2002 124.9L33.2002 122.4" stroke="#FFE922" stroke-miterlimit="10"/>
<path d="M29.2002 73.5002L32.0002 71.8002" stroke="#FFE922" stroke-miterlimit="10"/>
<path d="M29.3003 77.4001L33.4003 74.9001" stroke="#FFE922" stroke-miterlimit="10"/>
<path d="M46.7 82.2002L46.5 82.3002L35.5 87.8002V97.4001C35.5 97.4001 44 88.2002 46.6 82.2002" fill="#E31518"/>
<path d="M46.7 82.2002L46.5 82.3002L35.5 87.8002V97.4001C35.5 97.4001 44 88.2002 46.6 82.2002" stroke="#13110C" stroke-miterlimit="10"/>
<path d="M35.5 97.4001V100.5C35.5 100.5 44.7 95.1002 49.4 80.8002L46.6 82.2002C46.6 82.2002 43.8 88.5001 35.5 97.4001Z" fill="white" stroke="#13110C" stroke-miterlimit="10"/>
<path d="M35.5 100.5C35.5 100.5 43 96.8002 49.4 80.8002L62.3 74.3002L63.7 75.2002C63.7 75.2002 59.7 89.2002 49.1 101.8C49.1 101.8 48.8 102.1 48.3 102.7C47.5 103.5 46.1 104.9 44.1 106.6C41.9 108.5 39 110.8 35.5 113.2V100.5Z" fill="#211C4B" stroke="#13110C" stroke-miterlimit="10"/>
<path d="M48.4004 102.5L43.8004 98.0002H39.9004V101.6L44.3004 106.3" fill="#FFE922"/>
<path d="M48.4004 102.5L43.8004 98.0002H39.9004V101.6L44.3004 106.3" stroke="#13110C" stroke-miterlimit="10"/>
<path d="M43.5002 101C43.5002 101.6 43.0003 102.1 42.4003 102.1C41.8003 102.1 41.3003 101.6 41.3003 101C41.3003 100.4 41.8003 99.9001 42.4003 99.9001C43.0003 99.9001 43.5002 100.4 43.5002 101Z" fill="#211C4B"/>
<path d="M52 98.0002L46.9 94.0002L43 94.4001L43.4 98.0002L48.4 102.3" fill="#FFE922"/>
<path d="M52 98.0002L46.9 94.0002L43 94.4001L43.4 98.0002L48.4 102.3" stroke="#13110C" stroke-miterlimit="10"/>
<path d="M47.5002 96.6002C47.5002 97.2002 47.0003 97.7002 46.4003 97.7002C45.8003 97.7002 45.3003 97.2002 45.3003 96.6002C45.3003 96.0002 45.8003 95.5002 46.4003 95.5002C47.0003 95.5002 47.5002 96.0002 47.5002 96.6002Z" fill="#211C4B"/>
<path d="M55.5004 93.0002L50.2003 89.3002L46.4004 90.0002L46.9004 93.5002L52.2003 97.5002" fill="#FFE922"/>
<path d="M55.5004 93.0002L50.2003 89.3002L46.4004 90.0002L46.9004 93.5002L52.2003 97.5002" stroke="#13110C" stroke-miterlimit="10"/>
<path d="M51.0002 91.9001C51.0002 92.5001 50.5003 93.0002 49.9003 93.0002C49.3003 93.0002 48.8003 92.5001 48.8003 91.9001C48.8003 91.3001 49.3003 90.8002 49.9003 90.8002C50.5003 90.8002 51.0002 91.3001 51.0002 91.9001Z" fill="#211C4B"/>
<path d="M55.7002 92.0002L50.2002 88.4001L49.3003 84.9001L53.1002 84.0002L58.7002 87.3002L53.3003 84.0002L53.6002 79.6002L57.5002 77.9001L61.8003 80.4001" fill="#FFE922"/>
<path d="M55.7002 92.0002L50.2002 88.4001L49.3003 84.9001L53.1002 84.0002L58.7002 87.3002L53.3003 84.0002L53.6002 79.6002L57.5002 77.9001L61.8003 80.4001" stroke="#13110C" stroke-miterlimit="10"/>
<path d="M54.0001 86.5002C54.1001 87.1002 53.7 87.7002 53.1 87.7002C52.5 87.8002 51.9001 87.4002 51.9001 86.8002C51.8001 86.2002 52.2001 85.6002 52.8001 85.6002C53.4001 85.5002 53.9001 85.9002 54.0001 86.5002Z" fill="#211C4B"/>
<path d="M57.9004 81.4001C58.0004 82.0001 57.6004 82.6002 57.0004 82.6002C56.4004 82.7002 55.8005 82.3002 55.8005 81.7002C55.7005 81.1002 56.1004 80.5002 56.7004 80.5002C57.2004 80.4002 57.8004 80.8001 57.9004 81.4001Z" fill="#211C4B"/>
<path d="M43.9001 106.3L39.7001 102.1H36.1001V105.4L40.1001 109.7" fill="#FFE922"/>
<path d="M43.9001 106.3L39.7001 102.1H36.1001V105.4L40.1001 109.7" stroke="#13110C" stroke-miterlimit="10"/>
<path d="M39.4004 104.9C39.4004 105.5 38.9004 105.9 38.4004 105.9C37.8004 105.9 37.4004 105.5 37.4004 104.9C37.4004 104.4 37.9004 103.9 38.4004 103.9C39.0004 103.9 39.4004 104.3 39.4004 104.9Z" fill="#211C4B"/>
<path d="M92.2001 89.1002C95.2001 87.4002 94.9 84.6002 94.9 84.6002C94.9 82.3002 96.7001 83.1002 96.7001 83.1002C96.8001 91.2002 91.1002 90.7002 91.1002 90.7002C85.6002 90.8002 86.1002 83.1002 86.1002 83.1002C86.1002 83.1002 87.7001 82.6002 87.7001 83.7002C87.7001 83.7002 87.8002 89.1002 90.8002 89.1002H92.2001Z" fill="#FFE922"/>
<path d="M105 86.4001C107.1 83.6001 105.6 81.2002 105.6 81.2002C104.7 79.1002 106.7 79.1002 106.7 79.1002C110 86.5002 104.6 88.3002 104.6 88.3002C99.6001 90.6002 97 83.3002 97 83.3002C97 83.3002 98.3 82.2002 98.7 83.2002C98.7 83.2002 100.9 88.1001 103.7 86.9001L105 86.4001Z" fill="#FFE922"/>
<path d="M79.9003 87.8002C83.2003 86.9002 83.6002 84.1001 83.6002 84.1001C84.2002 81.8001 85.7002 83.1001 85.7002 83.1001C83.8002 91.0001 78.5002 89.2002 78.5002 89.2002C73.1002 88.0002 75.5002 80.6001 75.5002 80.6001C75.5002 80.6001 77.2003 80.5001 76.9003 81.6001C76.9003 81.6001 75.7002 86.8001 78.6002 87.6001L79.9003 87.8002Z" fill="#FFE922"/>
<path d="M68.4003 83.5002C71.8003 83.2002 72.7002 80.5002 72.7002 80.5002C73.7002 78.4002 74.9003 79.9001 74.9003 79.9001C71.5003 87.3001 66.6003 84.5002 66.6003 84.5002C61.5003 82.3002 65.3003 75.5002 65.3003 75.5002C65.3003 75.5002 67.0003 75.7002 66.5003 76.8002C66.5003 76.8002 64.3003 81.7002 67.1003 83.0002L68.4003 83.5002Z" fill="#FFE922"/>
<path d="M67.7 80.1002C67.7 81.3002 67.4 82.2002 67.1 82.2002C66.8 82.2002 66.5 81.3002 66.5 80.1002C66.5 78.9002 66.8 78.0002 67.1 78.0002C67.5 78.0002 67.7 79.0002 67.7 80.1002Z" fill="#FFE922"/>
<path d="M70.5001 82.1002C69.5001 82.8002 68.6001 83.1002 68.4001 82.8002C68.2001 82.5002 68.8002 81.8002 69.8002 81.1002C70.8002 80.4002 71.7001 80.1001 71.9001 80.4001C72.0001 80.6001 71.4001 81.4002 70.5001 82.1002Z" fill="#FFE922"/>
<path d="M78.5002 84.6002C78.5002 85.8002 78.2003 86.7002 77.9003 86.7002C77.6003 86.7002 77.3003 85.8002 77.3003 84.6002C77.3003 83.4002 77.6003 82.5002 77.9003 82.5002C78.2003 82.5002 78.5002 83.5002 78.5002 84.6002Z" fill="#FFE922"/>
<path d="M81.1998 86.6002C80.1998 87.3002 79.2998 87.6002 79.0998 87.3002C78.8998 87.0002 79.4999 86.3002 80.4999 85.6002C81.4999 84.9002 82.3998 84.6001 82.5998 84.9001C82.7998 85.1001 82.1998 85.9002 81.1998 86.6002Z" fill="#FFE922"/>
<path d="M90.1 86.4001C90.5 87.5001 90.5999 88.5001 90.2999 88.6001C89.9999 88.7001 89.3998 88.0001 88.8998 86.9001C88.4998 85.8001 88.3998 84.8002 88.6998 84.7002C89.0998 84.5002 89.7 85.3001 90.1 86.4001Z" fill="#FFE922"/>
<path d="M93.3998 87.2002C92.7998 88.2002 91.9998 88.8001 91.6998 88.6001C91.3998 88.4001 91.6998 87.5002 92.3998 86.5002C92.9998 85.5002 93.8 84.9001 94.1 85.1001C94.3 85.3001 93.9998 86.2002 93.3998 87.2002Z" fill="#FFE922"/>
<path d="M101.9 84.6001C102.8 85.3001 103.4 86.1001 103.2 86.4001C103 86.7001 102.1 86.3001 101.1 85.6001C100.2 84.9001 99.6003 84.1001 99.8003 83.8001C100 83.6001 100.9 83.9001 101.9 84.6001Z" fill="#FFE922"/>
<path d="M105 83.6002C104.9 84.8002 104.6 85.7002 104.3 85.7002C104 85.7002 103.7 84.7002 103.8 83.6002C103.9 82.5002 104.2 81.5002 104.5 81.5002C104.9 81.5002 105.1 82.4002 105 83.6002Z" fill="#FFE922"/>
<path d="M112.5 79.2002C113.4 79.9002 114 80.7002 113.8 81.0002C113.6 81.3002 112.7 80.9002 111.7 80.2002C110.8 79.5002 110.2 78.7002 110.4 78.4002C110.7 78.2002 111.6 78.5002 112.5 79.2002Z" fill="#FFE922"/>
<path d="M115.7 78.2002C115.6 79.4002 115.3 80.3002 115 80.3002C114.7 80.3002 114.4 79.3002 114.5 78.2002C114.6 77.0002 114.9 76.1002 115.2 76.1002C115.5 76.1002 115.7 77.0002 115.7 78.2002Z" fill="#FFE922"/>
<path d="M71.9003 85.7002C71.9003 86.1002 71.5002 86.5002 71.1002 86.5002C70.7002 86.5002 70.3003 86.1002 70.3003 85.7002C70.3003 85.3002 70.7002 84.9001 71.1002 84.9001C71.5002 84.9001 71.9003 85.2002 71.9003 85.7002Z" fill="#FFE922"/>
<path d="M73.7003 87.4001C74.1421 87.4001 74.5004 87.042 74.5004 86.6002C74.5004 86.1583 74.1421 85.8002 73.7003 85.8002C73.2585 85.8002 72.9004 86.1583 72.9004 86.6002C72.9004 87.042 73.2585 87.4001 73.7003 87.4001Z" fill="#FFE922"/>
<path d="M84.4004 88.9001C84.5004 89.3001 84.2003 89.7002 83.7003 89.8002C83.2003 89.9002 82.9004 89.6001 82.8004 89.1001C82.7004 88.7001 83.0004 88.3002 83.5004 88.2002C84.0004 88.1002 84.4004 88.5001 84.4004 88.9001Z" fill="#FFE922"/>
<path d="M87.1002 89.5002C87.2002 89.9002 86.9 90.3001 86.4 90.4001C86 90.5001 85.6001 90.2002 85.5001 89.7002C85.4001 89.3002 85.7001 88.9001 86.2001 88.8001C86.7001 88.7001 87.1002 89.1002 87.1002 89.5002Z" fill="#FFE922"/>
<path d="M97.5 88.8002C97.7 89.2002 97.5 89.7002 97 89.8002C96.6 90.0002 96.1 89.8002 96 89.3002C95.8 88.9002 96 88.4002 96.5 88.3002C96.9 88.1002 97.4 88.3002 97.5 88.8002Z" fill="#FFE922"/>
<path d="M100.3 88.7002C100.5 89.1002 100.3 89.6002 99.8003 89.7002C99.4003 89.9002 98.9003 89.7002 98.8003 89.2002C98.6003 88.8002 98.8003 88.3002 99.3003 88.2002C99.7003 88.1002 100.2 88.3002 100.3 88.7002Z" fill="#FFE922"/>
<path d="M109.1 85.1002C109.4 85.4002 109.4 85.9002 109.1 86.2002C108.8 86.5002 108.3 86.5002 108 86.2002C107.7 85.9002 107.7 85.4002 108 85.1002C108.3 84.8002 108.8 84.8002 109.1 85.1002Z" fill="#FFE922"/>
<path d="M111.7 83.9002C112 84.2002 112 84.7002 111.7 85.0002C111.4 85.3002 110.9 85.3002 110.6 85.0002C110.3 84.7002 110.3 84.2002 110.6 83.9002C110.9 83.6002 111.3 83.6002 111.7 83.9002Z" fill="#FFE922"/>
<path d="M120.2 77.7002C120.5 78.0002 120.5 78.5002 120.2 78.8002C119.9 79.1002 119.4 79.1002 119.1 78.8002C118.8 78.5002 118.8 78.0002 119.1 77.7002C119.4 77.4002 119.8 77.4002 120.2 77.7002Z" fill="#FFE922"/>
<path d="M62.9001 82.3002C63.342 82.3002 63.7001 81.942 63.7001 81.5002C63.7001 81.0584 63.342 80.7002 62.9001 80.7002C62.4583 80.7002 62.1001 81.0584 62.1001 81.5002C62.1001 81.942 62.4583 82.3002 62.9001 82.3002Z" fill="#FFE922"/>
<path d="M88.8003 91.1002C88.8003 91.1002 97.5002 91.4002 103.2 89.5002C103.2 89.5002 107 88.3002 108.1 87.7002C120.8 81.3002 122.7 76.5002 122.7 76.5002L125.5 75.8002L126.6 76.8002C123.8 81.5002 109.9 89.6002 109.9 89.6002C99.6001 95.4002 85.0002 93.4001 85.0002 93.4001C67.2002 89.8001 60.3003 84.0002 60.3003 84.0002L61.4003 81.9001C61.4003 81.9001 71.9003 89.0002 80.4003 90.1002C80.3003 90.1002 87.9003 91.1002 88.8003 91.1002Z" fill="white" stroke="#13110C" stroke-miterlimit="10"/>
<path d="M61 84.5002L79.1 119.4L73.7 126.5H78.3L94.3 103.9L104 118.6L98.8 126.6H103.2L106.3 121.5L108.6 124.2C108.6 124.2 109 120.1 109.4 119.5L106.3 115.9L111.2 108.5C111.2 108.5 113.1 101.2 114.5 99.3002L104.5 112L96.8 101.1L103.2 92.4001C103.2 92.4001 98.9001 93.3001 98.1001 93.4001L81.3 116.4L65.6 87.2002C65.5 87.1002 61.6 84.9002 61 84.5002Z" fill="#FFE922" stroke="#13110C" stroke-miterlimit="10"/>
<path d="M76.7002 107.9L79.2002 112.6L80.3003 92.3002L77.9003 91.7002L76.7002 107.9Z" fill="#FFE922" stroke="#13110C" stroke-miterlimit="10"/>
<path d="M85.7002 93.5002L85.3003 110.8L87.7002 107.4L88.6003 93.7002L85.7002 93.5002Z" fill="#FFE922" stroke="#13110C" stroke-miterlimit="10"/>
<path d="M80.3003 92.3002L85.7002 93.5002L85.3003 110.8L81.3003 116.3L79.2002 112.6L80.3003 92.3002Z" fill="white" stroke="#13110C" stroke-miterlimit="10"/>
<path d="M84.0002 95.9001C84.0002 96.5001 83.5003 97.0002 82.9003 97.0002C82.3003 97.0002 81.8003 96.5001 81.8003 95.9001C81.8003 95.3001 82.3003 94.8002 82.9003 94.8002C83.5003 94.8002 84.0002 95.3001 84.0002 95.9001Z" fill="#211C4B"/>
<path d="M83.7 99.3002C83.7 99.9002 83.2 100.4 82.6 100.4C82 100.4 81.5 99.9002 81.5 99.3002C81.5 98.7002 82 98.2002 82.6 98.2002C83.2 98.2002 83.7 98.7002 83.7 99.3002Z" fill="#211C4B"/>
<path d="M83.6003 102.9C83.6003 103.5 83.1004 104 82.5004 104C81.9004 104 81.4004 103.5 81.4004 102.9C81.4004 102.3 81.9004 101.8 82.5004 101.8C83.1004 101.8 83.6003 102.3 83.6003 102.9Z" fill="#211C4B"/>
<path d="M83.3002 107.1C83.3002 107.7 82.8001 108.2 82.2001 108.2C81.6001 108.2 81.1001 107.7 81.1001 107.1C81.1001 106.5 81.6001 106 82.2001 106C82.8001 106 83.3002 106.5 83.3002 107.1Z" fill="#211C4B"/>
<path d="M83.1003 110.8C83.1003 111.4 82.6004 111.9 82.0004 111.9C81.4004 111.9 80.9004 111.4 80.9004 110.8C80.9004 110.2 81.4004 109.7 82.0004 109.7C82.6004 109.7 83.1003 110.2 83.1003 110.8Z" fill="#211C4B"/>
<path d="M69 92.0002C69 92.0002 71.8 94.0002 76.7 95.2002" stroke="#FFE922" stroke-miterlimit="10"/>
<path d="M72.5 97.5002L76.3 99.3002" stroke="#FFE922" stroke-miterlimit="10"/>
<path d="M74.5 102.1L76.3 102.9" stroke="#FFE922" stroke-miterlimit="10"/>
<path d="M89.2002 96.7002H94.6003" stroke="#FFE922" stroke-miterlimit="10"/>
<path d="M88.8999 100.7H91.6001" stroke="#FFE922" stroke-miterlimit="10"/>
<path d="M88.6001 104H89.2" stroke="#FFE922" stroke-miterlimit="10"/>
<path d="M133.4 80.5002C126.9 84.4002 118 104.3 118 104.3C113.8 115.3 113.8 126.5 113.8 126.5H108.5C108.5 126.5 109 104.8 119.5 90.8002C119.5 90.8002 124.3 83.7002 129.4 78.2002L133.4 80.5002Z" fill="#211C4B" stroke="#13110C" stroke-miterlimit="10"/>
<path d="M130.9 81.1002C130.9 81.7002 130.4 82.2002 129.8 82.2002C129.2 82.2002 128.7 81.7002 128.7 81.1002C128.7 80.5002 129.2 80.0002 129.8 80.0002C130.4 80.0002 130.9 80.5002 130.9 81.1002Z" fill="white"/>
<path d="M125.4 87.4001C125.4 88.0001 124.9 88.5002 124.3 88.5002C123.7 88.5002 123.2 88.0001 123.2 87.4001C123.2 86.8001 123.7 86.3002 124.3 86.3002C124.9 86.3002 125.4 86.8001 125.4 87.4001Z" fill="white"/>
<path d="M121.5 94.2002C121.5 94.8002 121 95.3002 120.4 95.3002C119.8 95.3002 119.3 94.8002 119.3 94.2002C119.3 93.6002 119.8 93.1002 120.4 93.1002C121 93.1002 121.5 93.6002 121.5 94.2002Z" fill="white"/>
<path d="M117.9 100.7C117.9 101.3 117.4 101.8 116.8 101.8C116.2 101.8 115.7 101.3 115.7 100.7C115.7 100.1 116.2 99.6002 116.8 99.6002C117.4 99.6002 117.9 100.1 117.9 100.7Z" fill="white"/>
<path d="M114.9 109C114.9 109.6 114.4 110.1 113.8 110.1C113.2 110.1 112.7 109.6 112.7 109C112.7 108.4 113.2 107.9 113.8 107.9C114.5 107.9 114.9 108.4 114.9 109Z" fill="white"/>
<path d="M113.2 116.3C113.2 116.9 112.7 117.4 112.1 117.4C111.5 117.4 111 116.9 111 116.3C111 115.7 111.5 115.2 112.1 115.2C112.7 115.2 113.2 115.7 113.2 116.3Z" fill="white"/>
<path d="M112.2 123.8C112.2 124.4 111.7 124.9 111.1 124.9C110.5 124.9 110 124.4 110 123.8C110 123.2 110.5 122.7 111.1 122.7C111.7 122.7 112.2 123.2 112.2 123.8Z" fill="white"/>
<path d="M103.2 92.3002L96.8003 101L104.5 111.9L114.5 99.2002C114.5 99.2002 120.7 87.2002 129.5 78.2002L126.6 76.9001C126.6 76.9001 122.5 82.5001 110.4 88.9001C108.3 90.0001 105.9 91.1002 103.2 92.3002Z" fill="#E31518" stroke="#13110C" stroke-miterlimit="10"/>
<path d="M100.5 100.7L109.9 89.6002C109.9 89.6002 119.6 84.6002 126.6 76.8002L104.7 106.5L100.5 100.7Z" fill="#13110C" stroke="#13110C" stroke-miterlimit="10"/>
<path d="M102.9 101.2L112.7 89.3002" stroke="white" stroke-width="0.5" stroke-miterlimit="10"/>
<path d="M104.4 102.9L118 85.7002" stroke="white" stroke-width="0.5" stroke-miterlimit="10"/>
<path d="M78.3003 126.5L94.3003 103.9L104 118.5L98.8003 126.5H78.3003Z" fill="#E31518" stroke="#13110C" stroke-miterlimit="10"/>
<path d="M82.6001 126.5L94.6002 110.8L100.5 119.1L94.5001 126.5H85.0001H82.6001Z" fill="#13110C" stroke="#13110C" stroke-miterlimit="10"/>
<path d="M85 126.5L94.2 114.1L98.1001 118.7L91.6001 126.5H89.6001L95.3999 118.9L93.8 117.4L87.3 126.5H85Z" fill="white" stroke="#13110C" stroke-miterlimit="10"/>
<path d="M103.2 126.5L106.3 121.4L108.6 124V126.5H103.2Z" fill="#E31518" stroke="#13110C" stroke-miterlimit="10"/>
<path d="M106.3 115.8L109.3 119.2C109.3 119.2 111.6 107.9 111.6 108.1C111.5 108.3 106.3 115.8 106.3 115.8Z" fill="#E31518" stroke="#13110C" stroke-miterlimit="10"/>
<path d="M113.9 126.5H118.4H122.6C122.6 126.5 123.2 114.5 127.6 106.5C127.6 106.5 132.6 94.2002 138.7 86.6002L140.7 83.7002L133.4 80.5002C133.4 80.5002 128.9 83.2002 122.9 94.5002C122.9 94.5002 117.8 103.4 116.5 108.9C116.5 108.9 115.1 112.9 114.1 122.7C114 123.6 113.9 124.5 113.9 125.5V126.5Z" fill="#E31518" stroke="#13110C" stroke-miterlimit="10"/>
<path d="M121.5 126.5L114.5 120.9L114.1 122.7L114.5 123L118.4 126.5H121.5Z" fill="#FFE922" stroke="#13110C" stroke-miterlimit="10"/>
<path d="M113.9 126.5L114.1 122.7L118.4 126.5H113.9Z" fill="white" stroke="#13110C" stroke-miterlimit="10"/>
<path d="M114.5 120.9V118.8L121.5 115.8V115.2L116.5 109L117.1 107.1L124.5 114.8L124 116.7L114.5 120.9Z" fill="#FFE922" stroke="#13110C" stroke-miterlimit="10"/>
<path d="M117.2 106.6L128.6 104.3L129.2 102.9L123.8 93.1002L122.6 95.1002L126.6 102.1L126.4 102.9L117.8 105L117.1 107.1" fill="#FFE922"/>
<path d="M117.2 106.6L128.6 104.3L129.2 102.9L123.8 93.1002L122.6 95.1002L126.6 102.1L126.4 102.9L117.8 105L117.1 107.1" stroke="#13110C" stroke-miterlimit="10"/>
<path d="M123.9 92.8002L124.8 91.2002L132.5 90.8002L133.7 89.3002L131.5 82.2002L133.4 80.5002L136 90.4001L134.5 92.8002L123.8 93.1002" fill="#FFE922"/>
<path d="M123.9 92.8002L124.8 91.2002L132.5 90.8002L133.7 89.3002L131.5 82.2002L133.4 80.5002L136 90.4001L134.5 92.8002L123.8 93.1002" stroke="#13110C" stroke-miterlimit="10"/>
<path d="M124.8 91.2002L130.4 90.9001L128 86.3002L133 86.9001L131.5 82.2002" fill="white"/>
<path d="M117.8 105L123.2 103.5L121 100.2H125.4L122.6 95.1002" fill="white"/>
<path d="M114.6 118.7L118.8 116.7L116.1 114.4L119.6 112.8L116.5 109" fill="white"/>
<path d="M118.8 116.7L116.1 114.4L119.6 112.8L121.5 115.2V115.8L118.8 116.7Z" fill="#211C4B"/>
<path d="M121 100.2L123.2 103.5L126.4 102.9L126.6 102.1L125.4 100.2" fill="#211C4B"/>
<path d="M128 86.3002L130.4 90.9001L132.5 90.8002L133.7 89.3002L133 86.9001L128 86.3002Z" fill="#211C4B"/>
<path d="M129.8 96.0002C129.8 96.5002 129.4 96.9001 128.9 96.9001C128.4 96.9001 128 96.5002 128 96.0002C128 95.5002 128.4 95.1002 128.9 95.1002C129.4 95.1002 129.8 95.5002 129.8 96.0002Z" fill="white"/>
<path d="M124.1 108.7C124.1 109.2 123.7 109.5 123.3 109.5C122.9 109.5 122.5 109.1 122.5 108.7C122.5 108.2 122.9 107.9 123.3 107.9C123.7 107.9 124.1 108.3 124.1 108.7Z" fill="white"/>
<path d="M121.1 121.4C121.1 122 120.6 122.4 120.1 122.4C119.6 122.4 119.1 121.9 119.1 121.4C119.1 120.8 119.6 120.4 120.1 120.4C120.6 120.4 121.1 120.8 121.1 121.4Z" fill="white"/>
<path d="M138.7 84.5002C138.7 85.0002 138.3 85.4001 137.8 85.4001C137.3 85.4001 136.9 85.0002 136.9 84.5002C136.9 84.0002 137.3 83.6002 137.8 83.6002C138.3 83.6002 138.7 84.0002 138.7 84.5002Z" fill="white"/>
<path d="M132.1 126.5H141.4L141.5 99.4001C141.4 99.4001 135.3 106.5 132.1 126.5Z" fill="#E31518" stroke="#13110C" stroke-miterlimit="10"/>
<path d="M140.1 124.6H134.1" stroke="#942830" stroke-miterlimit="10"/>
<path d="M139.7 122.4H134.5" stroke="#942830" stroke-miterlimit="10"/>
<path d="M139.9 120.4H134.7" stroke="#942830" stroke-miterlimit="10"/>
<path d="M139.9 117.9H135.1" stroke="#942830" stroke-miterlimit="10"/>
<path d="M140.2 115.5H135.8" stroke="#942830" stroke-miterlimit="10"/>
<path d="M140.2 113.7H136.7" stroke="#942830" stroke-miterlimit="10"/>
<path d="M140.2 111.4H137.2" stroke="#942830" stroke-miterlimit="10"/>
<path d="M140 109.6H138" stroke="#942830" stroke-miterlimit="10"/>
<path d="M140.2 107.5H138.4" stroke="#942830" stroke-miterlimit="10"/>
<path d="M140.1 105.5H139.3" stroke="#942830" stroke-miterlimit="10"/>
<path d="M68.3003 126.5C68.9003 123.7 68.3003 113.7 68.3003 113.7C67.6003 100.9 60.2002 84.0002 60.2002 84.0002L57.8003 88.6002C57.8003 88.6002 60.9002 98.2002 62.0002 108.1C62.0002 108.1 63.6002 119.8 63.2002 126.5H68.3003Z" fill="#211C4B" stroke="#13110C" stroke-miterlimit="10"/>
<path d="M62.1003 91.7002C62.1003 92.3002 61.6004 92.8002 61.0004 92.8002C60.4004 92.8002 59.9004 92.3002 59.9004 91.7002C59.9004 91.1002 60.4004 90.6002 61.0004 90.6002C61.6004 90.6002 62.1003 91.1002 62.1003 91.7002Z" fill="white"/>
<path d="M64.0002 99.3002C64.0002 99.9002 63.5003 100.4 62.9003 100.4C62.3003 100.4 61.8003 99.9002 61.8003 99.3002C61.8003 98.7002 62.3003 98.2002 62.9003 98.2002C63.5003 98.2002 64.0002 98.7002 64.0002 99.3002Z" fill="white"/>
<path d="M65.2 106.6C65.2 107.2 64.7 107.7 64.1 107.7C63.5 107.7 63 107.2 63 106.6C63 106 63.5 105.5 64.1 105.5C64.7 105.5 65.2 106 65.2 106.6Z" fill="white"/>
<path d="M66.1003 114.1C66.1003 114.7 65.6004 115.2 65.0004 115.2C64.4004 115.2 63.9004 114.7 63.9004 114.1C63.9004 113.5 64.4004 113 65.0004 113C65.6004 113 66.1003 113.5 66.1003 114.1Z" fill="white"/>
<path d="M66.6003 121.6C66.6003 122.2 66.1004 122.7 65.5004 122.7C64.9004 122.7 64.4004 122.2 64.4004 121.6C64.4004 121 64.9004 120.5 65.5004 120.5C66.1004 120.5 66.6003 121 66.6003 121.6Z" fill="white"/>
<path d="M61.4004 85.3002L79.1003 119.4L73.9004 126.3L68.3004 126.5C68.3004 126.5 69.3004 118.8 67.5004 107.1C66.5004 100.8 64.7004 93.4002 61.4004 85.3002Z" fill="#E31518" stroke="#13110C" stroke-miterlimit="10"/>
<path d="M67.7002 107.7L74.4003 119.3L71.0002 125L68.5002 121.7C68.6002 121.6 68.5002 109 67.7002 107.7Z" fill="#13110C" stroke="#13110C" stroke-miterlimit="10"/>
<path d="M71.6003 119.2C71.6003 119.8 71.1004 120.3 70.5004 120.3C69.9004 120.3 69.4004 119.8 69.4004 119.2C69.4004 118.6 69.9004 118.1 70.5004 118.1C71.1004 118.1 71.6003 118.6 71.6003 119.2Z" fill="white"/>
<path d="M35.5 126.5H45V106C45 106 39.6 110.7 35.5 113.1V126.5Z" fill="#E31518" stroke="#13110C" stroke-miterlimit="10"/>
<path d="M43.8003 124.9H36.7002" stroke="#942830" stroke-miterlimit="10"/>
<path d="M44.0004 122.7H36.9004" stroke="#942830" stroke-miterlimit="10"/>
<path d="M43.9003 120.7H36.8003" stroke="#942830" stroke-miterlimit="10"/>
<path d="M44.1 118.5H37" stroke="#942830" stroke-miterlimit="10"/>
<path d="M44.1 116.8H37" stroke="#942830" stroke-miterlimit="10"/>
<path d="M44.3003 114.7H37.2002" stroke="#942830" stroke-miterlimit="10"/>
<path d="M43.8004 112.7H37.9004" stroke="#942830" stroke-miterlimit="10"/>
<path d="M44.4 110.8H40.5" stroke="#942830" stroke-miterlimit="10"/>
<path d="M45 106L46 104.9C46 104.9 49.5 115.6 47.2 126.5H45V106Z" fill="#211C4B" stroke="#13110C" stroke-miterlimit="10"/>
<path d="M46 104.9L48.8 102.4L48.9 102.3C48.9 102.3 52.6 113.1 51 126.5H47.2C47.2 126.5 49.2 113.9 46 104.9Z" fill="#FFE922" stroke="#13110C" stroke-miterlimit="10"/>
<path d="M48.8003 102.4L52.0002 98.4001C52.0002 98.4001 55.7002 116.3 54.1002 126.5H51.0002C50.9002 126.5 52.5003 113.7 48.8003 102.4Z" fill="#211C4B" stroke="#13110C" stroke-miterlimit="10"/>
<path d="M52 98.4001C52 98.4001 56.8 93.0002 57.9 88.6002C57.9 88.6002 62.6 104.5 62.6 112.6C62.6 112.6 63.8 124.4 63.3 126.5H54.1C54.1 126.5 55.5 112 52 98.4001Z" fill="#E31518" stroke="#13110C" stroke-miterlimit="10"/>
<path d="M52.3 99.9001L52 98.4001L53.1 97.0002L60.9 100.7L61.3 102.8L52.3 99.9001Z" fill="#FFE922" stroke="#13110C" stroke-miterlimit="10"/>
<path d="M61.3002 103.5L54.1001 110.1V111.9L63.0001 117.4L62.8002 114.8L56.2001 111.5V110.1L61.7001 105L61.3002 103.5Z" fill="#FFE922" stroke="#13110C" stroke-miterlimit="10"/>
<path d="M63.0001 118.1L63.4001 119.8L56.6001 124.3V125.4L58.3002 126.5H54.1001L54.2001 123.6L63.0001 118.1Z" fill="#FFE922" stroke="#13110C" stroke-miterlimit="10"/>
<path d="M57.9001 89.6002L55.6001 93.6002L59.5001 94.4001L55.7001 98.0002L60.9001 100.7" fill="white"/>
<path d="M61.4003 105.9L58.3003 109L62.1002 110.5L59.1002 112.4L62.7002 114.1L61.4003 105.9Z" fill="white"/>
<path d="M63 120.5L59.5 122.7L62.9 124.6L59.5 126.2H62.9" fill="white"/>
<path d="M55.7002 98.0002L53.3003 96.7002L55.6002 93.6002L59.5002 94.4001" fill="#211C4B"/>
<path d="M58.3003 109L62.1002 110.5L59.1002 112.4L56.4003 111.7L56.2002 110.1L58.3003 109Z" fill="#211C4B"/>
<path d="M56.6001 125.4V124.3L59.5001 122.7L62.9001 124.6L59.5001 126.2L56.6001 125.4Z" fill="#211C4B"/>
<path d="M56.3003 104.3C56.3003 104.8 55.9002 105.1 55.5002 105.1C55.1002 105.1 54.7002 104.7 54.7002 104.3C54.7002 103.8 55.1002 103.5 55.5002 103.5C55.9002 103.5 56.3003 103.8 56.3003 104.3Z" fill="white"/>
<path d="M57.6 118.1C57.6 118.6 57.2 118.9 56.8 118.9C56.3 118.9 56 118.5 56 118.1C56 117.6 56.4 117.3 56.8 117.3C57.3 117.3 57.6 117.7 57.6 118.1Z" fill="white"/>
<path d="M47.1003 126.6H44.3004C44.3004 126.6 43.3004 141.2 34.9004 153.8L35.0004 158.1C35.0004 158.2 45.0003 146.7 47.1003 126.6Z" fill="#211C4B" stroke="#13110C" stroke-miterlimit="10"/>
<path d="M36.6003 161.4C36.6003 161.4 47.7003 148.9 50.2003 126.6H47.1003C47.1003 126.6 44.6004 147.5 34.8004 158.3C34.8004 158.3 33.4003 162.5 35.0003 162C36.6003 161.4 36.6003 161.4 36.6003 161.4Z" fill="#FFE922" stroke="#13110C" stroke-miterlimit="10"/>
<path d="M53.7003 126.6H50.2003C50.2003 126.6 47.7003 149.2 36.6003 161.4C36.6003 161.4 33.4003 168.7 35.6003 167.4L37.8004 166.2C37.8004 166.2 45.0004 156.2 49.8004 144.2C49.9004 144.1 52.3003 140.1 53.7003 126.6Z" fill="#211C4B" stroke="#13110C" stroke-miterlimit="10"/>
<path d="M64.1002 178.3C55.7002 175.7 53.7002 176.2 53.7002 176.2C61.8002 165.9 74.6002 163.2 74.6002 163.2C86.8002 160 99.0002 163.8 99.0002 163.8C106.2 165.2 114.9 171.2 114.9 171.2C114.4 171.9 112.6 177.9 112.6 177.9C112.6 177.9 109.7 176.4 107.5 177.7C107.5 177.7 104.1 172.9 95.9001 172C95.9001 172 85.3002 169.3 76.6002 171.6C76.7002 171.6 69.3002 174.2 64.1002 178.3Z" fill="#211C4B" stroke="#13110C" stroke-miterlimit="10"/>
<path d="M87.8003 159.4L88.6003 146L78.3003 159.8L87.8003 159.4Z" fill="#E31518" stroke="#13110C" stroke-miterlimit="10"/>
<path d="M110.8 166L99.6001 145.2L98.3999 161.4C98.4999 161.4 106.7 163.7 110.8 166Z" fill="#E31518" stroke="#13110C" stroke-miterlimit="10"/>
<path d="M60.6999 172.2C59.0999 175.3 60.9 177.4 60.9 177.4C62.2 179.4 60.1999 179.6 60.1999 179.6C55.6999 172.9 60.6999 170.2 60.6999 170.2C65.2999 167.1 69.0999 173.8 69.0999 173.8C69.0999 173.8 68 175.1 67.4 174.2C67.4 174.2 64.4 169.8 61.8 171.4L60.6999 172.2Z" fill="#FFE922"/>
<path d="M147.8 186V126.6H142.8L142.5 179.4L147.8 186Z" fill="#13110C" stroke="#13110C" stroke-miterlimit="10"/>
<path d="M66 178.8L67.2 181.1C72.7 191.7 99.5 188.3 99.5 188.3C105.3 189.8 103.5 182.2 103.5 182.2C103.1 180.7 106.3 178.5 106.3 178.5C106.3 178.5 101.8 173.9 90.5 173C90.5 173 77.4 171.6 70.3 176.5L66 178.8Z" fill="#E31518" stroke="#13110C" stroke-miterlimit="10"/>
<path d="M88.4003 126.6H28.9004" stroke="#13110C" stroke-miterlimit="10"/>
<path d="M88.3999 126.6H147.8" stroke="#13110C" stroke-miterlimit="10"/>
<path d="M49.8003 222.8H115.8L106.3 208.4C106.3 208.4 76.1002 212.1 60.1002 207.4L49.8003 222.8Z" fill="#E31518" stroke="#13110C" stroke-miterlimit="10"/>
<path d="M60.1002 207.4L58.3003 210.1C79.0003 216.5 108.1 211 108.1 211L106.3 208.3C106.2 208.4 75.2002 212.1 60.1002 207.4Z" fill="#13110C" stroke="#13110C" stroke-miterlimit="10"/>
<path d="M107.6 222.8L104.4 217.7H96.1001L95.8 222.8H93.5L94 215.9L105.9 215.1L110.3 222.8H107.6Z" fill="white"/>
<path d="M57.6003 222.1L60.9004 217.1L69.1003 217L69.5004 222.1H71.7003L71.2003 215.2L59.4004 214.4L54.9004 222.2L57.6003 222.1Z" fill="white"/>
<path d="M89.5002 222.8V216.9H76.2002V222.8H78.3003L78.4003 218.2L86.7002 218.1V222.8H89.5002Z" fill="white"/>
<path d="M77.5 192.2C75.8 184.8 78.4 183.2 78.4 183.2C87.4 174 93.6001 174.9 93.6001 174.9C99.2001 175.6 104.7 187.7 104.7 187.7C106.8 191.4 105.6 208.5 105.6 208.5C105.6 208.5 90.6 210.2 81 209.8C81 209.8 79.9 209.3 78.2 194.5L77.5 192.2Z" fill="#FED68A" stroke="#13110C" stroke-miterlimit="10"/>
<path d="M91.8999 192.3C91.8999 192.3 92.4 191.5 95 191.2C95.7 191.1 96.4 189.6 97.7 190.1C100.8 191.2 98.3 195.8 98.3 195.8C96.9 200.9 98.3 203.9 98.3 203.9C101.1 206.1 105 205 105 205" stroke="#13110C" stroke-miterlimit="10"/>
<path d="M93.2001 205.6C93.2001 205.6 86.7001 208 82.6001 205.4" stroke="#13110C" stroke-miterlimit="10"/>
<path d="M83.8 201.4C91 204.2 94.3 201 94.3 201C94.3 201 92.8 197.7 84.5 200.2C84.4 200.3 83.4 201.3 83.8 201.4Z" stroke="#13110C" stroke-miterlimit="10"/>
<path d="M93.2 199.3C93.2 199.3 91.2 197.1 89 197" stroke="#13110C" stroke-miterlimit="10"/>
<path d="M98.4999 201.3C102.6 203.5 105.1 200.9 105.1 200.9C105.1 200.9 103.6 197.7 98.8 199.6C98.8 199.7 98.0999 201.1 98.4999 201.3Z" stroke="#13110C" stroke-miterlimit="10"/>
<path d="M99.5 198.7C99.5 198.7 100.6 197 102.4 197" stroke="#13110C" stroke-miterlimit="10"/>
<path d="M100.2 200.8C100.2 200.5 100.8 200.3 101.5 200.3C102.2 200.3 102.8 200.5 102.8 200.8C102.8 201.1 102.2 201.3 101.5 201.3C100.8 201.3 100.2 201.1 100.2 200.8Z" stroke="#13110C" stroke-miterlimit="10"/>
<path d="M88.5 200.9C88.5 200.6 89.1 200.4 89.8 200.4C90.5 200.4 91.1001 200.6 91.1001 200.9C91.1001 201.2 90.5 201.4 89.8 201.4C89.1 201.3 88.5 201.1 88.5 200.9Z" stroke="#13110C" stroke-miterlimit="10"/>
<path d="M93.7 187.1C93.7 187.1 91.3001 187.3 89.8001 186.1C89.8001 186.1 86.1001 185.3 85.8001 187.1C85.8001 187.1 85.5 189.3 87.9 188.6" stroke="#13110C" stroke-miterlimit="10"/>
<path d="M93.7002 186.8C93.7002 186.8 92.3003 187.1 91.8003 186.8" stroke="#13110C" stroke-miterlimit="10"/>
<path d="M97.8003 186.8C97.8003 186.8 99.9002 186.4 101 185.6C101 185.6 104.4 184.9 103.5 187.4C103.5 187.4 103.1 188.4 102.5 187.8" stroke="#13110C" stroke-miterlimit="10"/>
<path d="M99.5 183H90.5" stroke="#13110C" stroke-miterlimit="10"/>
<path d="M96.7002 183.7H93.7002" stroke="#13110C" stroke-miterlimit="10"/>
<path d="M96.1001 180.3L94.1001 178.8" stroke="#13110C" stroke-miterlimit="10"/>
<path d="M96.1001 178.8L94.1001 180.3" stroke="#13110C" stroke-miterlimit="10"/>
<path d="M103.8 186L103.5 183C102.5 180.5 107.3 177.8 107.3 177.8C112.1 175.8 115.1 179.9 115.1 179.9C117.1 183.6 115.1 186.7 115.1 186.7C114 189.4 110.2 188.3 110.2 188.3C107.6 186.5 108.3 188.8 108.3 188.8C109.3 192 109 198.7 109 198.7C109.3 204.5 106.1 208.4 106.1 208.4L105.4 208.5C105.4 208.5 106.2 194.4 105.5 192.4C105.6 192.3 105.5 188.9 103.8 186Z" fill="#E2C80B" stroke="#13110C" stroke-miterlimit="10"/>
<path d="M109.8 183.7C109.8 183.7 109 185.1 110.4 185.2C111.8 185.3 112.8 183.1 112.2 182.1C112.2 182.1 111 180.4 108.1 182.1C108.1 182.1 106.7 182.3 107.3 191.1C107.3 191.1 108.7 203.6 106.8 206" stroke="#13110C" stroke-width="0.5" stroke-miterlimit="10"/>
<path d="M108.7 184.5C108.7 184.5 108.9 187.9 113 186C113 186 115.5 181.8 112.3 179.6C112.3 179.6 106.7 178.4 105.9 182.3C105.9 182.3 106.2 188 105.9 189.7" stroke="#13110C" stroke-width="0.5" stroke-miterlimit="10"/>
<path d="M76.9001 186C76.5001 188 77.8001 193.2 77.8001 193.2C78.1001 194.2 78.4001 196.1 78.4001 196.1C78.9001 204 81.0001 209.8 81.0001 209.8C81.0001 209.8 69.1001 210.6 59.3001 206.6C59.3001 206.6 57.2001 196.9 57.9001 189.2C57.9001 189.2 57.9001 184.2 56.1001 186.9C56.1001 186.9 53.6001 189.4 49.6001 187.5C49.6001 187.5 45.3001 184 48.9001 178.9C48.9001 178.9 51.3 175.7 57.7 176.8C57.7 176.8 64.6001 177 74.9001 183.7C74.7001 183.7 76.9001 185.2 76.9001 186Z" fill="#E2C80B" stroke="#13110C" stroke-miterlimit="10"/>
<path d="M54.5999 184.9C54.5999 184.9 53.6998 187.1 51.1998 186C48.6998 184.9 48.9999 182.1 49.7999 181.2C50.4999 180.3 53.4999 177.5 56.2999 179.5C59.0999 181.5 59.5999 185.2 59.7999 186.9C60.0999 188.6 60.9999 195 60.8999 196.3C60.7999 197.6 61.7999 205.8 61.7999 205.8" stroke="#13110C" stroke-width="0.5" stroke-miterlimit="10"/>
<path d="M53.6001 184.4C53.6001 184.4 51.6001 185 51.6001 183.4C51.6001 181.8 52.3001 180.6 53.1001 180.8C53.9001 181 57.0001 180.6 58.5001 185.6C59.9001 190.5 59.4001 194.6 59.4001 194.6L60.3002 205.4" stroke="#13110C" stroke-width="0.5" stroke-miterlimit="10"/>
<path d="M78.8002 208.8C78.8002 208.8 76.0001 197.5 76.0001 194.7C76.1001 191.9 74.7001 186.5 74.6001 186" stroke="#13110C" stroke-width="0.5" stroke-miterlimit="10"/>
<path d="M76.7002 208.8C76.7002 208.8 72.9002 184.4 71.7002 183.4" stroke="#13110C" stroke-width="0.5" stroke-miterlimit="10"/>
<path d="M74.7001 208.8C74.7001 208.8 71.0001 184.1 68.6001 181.6" stroke="#13110C" stroke-width="0.5" stroke-miterlimit="10"/>
<path d="M72.3003 208.5C72.3003 208.5 68.3003 183.6 65.8003 180.4" stroke="#13110C" stroke-width="0.5" stroke-miterlimit="10"/>
<path d="M69.7002 207.9C69.7002 207.9 66.4003 183.2 63.3003 179.2" stroke="#13110C" stroke-width="0.5" stroke-miterlimit="10"/>
<path d="M67.4003 207.4C67.4003 207.4 63.6003 181.4 61.3003 178.8" stroke="#13110C" stroke-width="0.5" stroke-miterlimit="10"/>
<path d="M65.2 207C65.2 207 63 182.4 59 178.3" stroke="#13110C" stroke-width="0.5" stroke-miterlimit="10"/>
<path d="M63.3004 206.5C63.3004 206.5 62.8004 182 56.4004 178.3" stroke="#13110C" stroke-width="0.5" stroke-miterlimit="10"/>
<path d="M76.7 185.6C74.3 182.9 70 180.9 70 180.9C75 178.4 82 179.3 82 179.3C82 179.3 78.3 182.1 76.7 185.6Z" fill="white" stroke="#13110C" stroke-miterlimit="10"/>
<path d="M77.8002 182.4C77.8002 182.4 76.2001 182 75.1001 182.4" stroke="#13110C" stroke-width="0.5" stroke-miterlimit="10"/>
<path d="M79.1002 180.8C79.1002 180.8 76.3002 180.2 73.2002 181.2" stroke="#13110C" stroke-width="0.5" stroke-miterlimit="10"/>
<path d="M64.4004 178.4L65.8004 178.9L66.5004 178.5C74.9004 173.5 79.8004 173 79.8004 173C92.6004 172.1 97.1005 174.1 97.1005 174.1C103.2 175.7 106.2 178.4 106.2 178.4L107.6 177.5C107.6 177.5 106.2 174.9 100.2 172.9C100.2 172.9 92.5003 170.6 87.4003 170.6C87.4003 170.6 78.5004 170.1 74.8004 172.2C74.8004 172.2 66.7004 174.9 64.9004 177.4L64.4004 178.4Z" fill="white" stroke="#13110C" stroke-miterlimit="10"/>
<path d="M82.0001 177.9L79.1001 174.5" stroke="#211C4B" stroke-miterlimit="10"/>
<path d="M77.1002 178.4L74.7002 176" stroke="#211C4B" stroke-miterlimit="10"/>
<path d="M71.9001 179.2L70.1001 177.7" stroke="#211C4B" stroke-miterlimit="10"/>
<path d="M86.1005 176L84.4004 174.1" stroke="#211C4B" stroke-miterlimit="10"/>
<path d="M89.8 174.8L88.8999 173.8" stroke="#211C4B" stroke-miterlimit="10"/>
<path d="M103 179.6L101.3 176.8" stroke="#211C4B" stroke-miterlimit="10"/>
<path d="M98.8 176.8L97.3999 175.1" stroke="#211C4B" stroke-miterlimit="10"/>
<path d="M28.9004 219.8L35.4004 213.6V194.7V172.8C35.4004 172.8 35.8004 167.9 32.9004 170.4L33.0004 212.6L28.9004 217V219.8Z" fill="#FFE922" stroke="#13110C" stroke-miterlimit="10"/>
<path d="M32.9004 170.4H28.9004V217L33.0004 212.6L32.9004 170.4Z" fill="#13110C" stroke="#13110C" stroke-miterlimit="10"/>
<path d="M48.1003 204.1C48.1003 204.1 39.3004 194.7 28.9004 191.3V188.9V183.7V181.9C28.9004 181.8 43.2003 181.4 48.1003 204.1Z" fill="#FFE922" stroke="#13110C" stroke-miterlimit="10"/>
<path d="M28.9004 183.7C38.4004 184.7 43.9004 197.1 43.9004 197.1C43.9004 197.1 35.8004 191 28.9004 188.9V183.7Z" fill="#E31518"/>
<path d="M33.0004 200.3L28.9004 203.2" stroke="#FFE922" stroke-miterlimit="10"/>
<path d="M33.0004 196.1L28.9004 198.7" stroke="#FFE922" stroke-miterlimit="10"/>
<path d="M33.0004 176L28.9004 178.8" stroke="#FFE922" stroke-miterlimit="10"/>
<path d="M32.9004 172.1L28.9004 174.5" stroke="#FFE922" stroke-miterlimit="10"/>
<path d="M36.3003 168.9C36.3003 168.9 39.2002 166.9 36.7002 165.7C36.7002 165.7 38.8002 163.5 35.7002 163.2C35.7002 163.2 38.1002 160.3 35.1002 160.3C35.1002 160.3 36.5002 158.6 34.7002 158.5H29.0003V170.4C28.9003 170.4 34.9003 170.6 36.3003 168.9Z" fill="#FED68A" stroke="#13110C" stroke-miterlimit="10"/>
<path d="M35.6003 172.1C35.6003 172.1 38.5004 171.7 38.3004 170.4C38.0004 169.1 37.7003 168.7 36.6003 168.6C36.6003 168.6 35.6004 169.7 34.9004 169.7L35.6003 172.1Z" fill="#FED68A" stroke="#13110C" stroke-miterlimit="10"/>
<path d="M31 167.4L36.6 165.7" stroke="#13110C" stroke-miterlimit="10"/>
<path d="M31 164.5L35.7 163.3" stroke="#13110C" stroke-miterlimit="10"/>
<path d="M30.9004 161.3L35.1003 160.3" stroke="#13110C" stroke-miterlimit="10"/>
<path d="M34.9 158.5L35.1 126.6H33V158.3L34.9 158.5Z" fill="#FFE922" stroke="#13110C" stroke-miterlimit="10"/>
<path d="M33.0004 158.3L28.9004 158.5V126.6H33.0004V158.3Z" fill="#13110C" stroke="#13110C" stroke-miterlimit="10"/>
<path d="M33.0002 151.9L29.2002 154.3" stroke="#FFE922" stroke-miterlimit="10"/>
<path d="M32.7003 148L28.9004 150.3" stroke="#FFE922" stroke-miterlimit="10"/>
<path d="M33.0002 137.9L29.2002 140.3" stroke="#FFE922" stroke-miterlimit="10"/>
<path d="M32.7003 134L28.9004 136.4" stroke="#FFE922" stroke-miterlimit="10"/>
<path d="M147.8 189.6V186L142.5 179.6L142.8 126.6H140.9V182.2L147.8 189.6Z" fill="#FFE922" stroke="#13110C" stroke-miterlimit="10"/>
<path d="M147.2 165.3L143.2 167.8" stroke="#FFE922" stroke-miterlimit="10"/>
<path d="M147.1 161.5L143.1 164" stroke="#FFE922" stroke-miterlimit="10"/>
<path d="M147.4 148.9L143.4 151.3" stroke="#FFE922" stroke-miterlimit="10"/>
<path d="M147.3 145L143.2 147.5" stroke="#FFE922" stroke-miterlimit="10"/>
<path d="M147.3 132.1L143.3 134.6" stroke="#FFE922" stroke-miterlimit="10"/>
<path d="M147.2 128.2L143.2 130.7" stroke="#FFE922" stroke-miterlimit="10"/>
<path d="M147.2 179.6L144.4 181.3" stroke="#FFE922" stroke-miterlimit="10"/>
<path d="M147 175.7L143 178.2" stroke="#FFE922" stroke-miterlimit="10"/>
<path d="M129.7 171L129.9 170.9L140.9 165.4V155.8C140.9 155.8 132.4 165 129.8 171" fill="#E31518"/>
<path d="M129.7 171L129.9 170.9L140.9 165.4V155.8C140.9 155.8 132.4 165 129.8 171" stroke="#13110C" stroke-miterlimit="10"/>
<path d="M140.9 155.7V152.6C140.9 152.6 131.7 158 127 172.3L129.8 170.9C129.8 170.9 132.6 164.6 140.9 155.7Z" fill="white" stroke="#13110C" stroke-miterlimit="10"/>
<path d="M140.9 152.6C140.9 152.6 133.4 156.3 127 172.3L114.1 178.8L112.7 177.9C112.7 177.9 116.7 163.9 127.3 151.3C127.3 151.3 127.6 151 128.1 150.4C128.9 149.6 130.3 148.2 132.3 146.5C134.5 144.6 137.4 142.3 140.9 139.9V152.6Z" fill="#211C4B" stroke="#13110C" stroke-miterlimit="10"/>
<path d="M127.9 150.6L132.5 155.1H136.5V151.5L132.1 146.8" fill="#FFE922"/>
<path d="M127.9 150.6L132.5 155.1H136.5V151.5L132.1 146.8" stroke="#13110C" stroke-miterlimit="10"/>
<path d="M132.8 152.1C132.8 151.5 133.3 151 133.9 151C134.5 151 135 151.5 135 152.1C135 152.7 134.5 153.2 133.9 153.2C133.3 153.2 132.8 152.7 132.8 152.1Z" fill="#211C4B"/>
<path d="M124.4 155.1L129.5 159.1L133.4 158.7L133 155.1L127.9 150.9" fill="#FFE922"/>
<path d="M124.4 155.1L129.5 159.1L133.4 158.7L133 155.1L127.9 150.9" stroke="#13110C" stroke-miterlimit="10"/>
<path d="M128.9 156.5C128.9 155.9 129.4 155.4 130 155.4C130.6 155.4 131.1 155.9 131.1 156.5C131.1 157.1 130.6 157.6 130 157.6C129.4 157.6 128.9 157.1 128.9 156.5Z" fill="#211C4B"/>
<path d="M120.9 160.1L126.1 163.8L130 163.1L129.4 159.6L124.2 155.6" fill="#FFE922"/>
<path d="M120.9 160.1L126.1 163.8L130 163.1L129.4 159.6L124.2 155.6" stroke="#13110C" stroke-miterlimit="10"/>
<path d="M125.3 161.2C125.3 160.6 125.8 160.1 126.4 160.1C127 160.1 127.5 160.6 127.5 161.2C127.5 161.8 127 162.3 126.4 162.3C125.9 162.3 125.4 161.8 125.3 161.2Z" fill="#211C4B"/>
<path d="M120.7 161.1L126.2 164.7L127 168.2L123.2 169.1L117.7 165.8L123 169.1L122.7 173.5L118.8 175.2L114.6 172.7" fill="#FFE922"/>
<path d="M120.7 161.1L126.2 164.7L127 168.2L123.2 169.1L117.7 165.8L123 169.1L122.7 173.5L118.8 175.2L114.6 172.7" stroke="#13110C" stroke-miterlimit="10"/>
<path d="M122.3 166.6C122.2 166 122.6 165.4 123.2 165.4C123.8 165.3 124.4 165.7 124.4 166.3C124.5 166.9 124.1 167.5 123.5 167.5C123 167.6 122.4 167.2 122.3 166.6Z" fill="#211C4B"/>
<path d="M118.5 171.7C118.4 171.1 118.8 170.5 119.4 170.5C120 170.4 120.6 170.8 120.6 171.4C120.7 172 120.3 172.6 119.7 172.6C119.1 172.7 118.6 172.3 118.5 171.7Z" fill="#211C4B"/>
<path d="M132.4 146.8L136.7 151H140.3V147.7L136.3 143.4" fill="#FFE922"/>
<path d="M132.4 146.8L136.7 151H140.3V147.7L136.3 143.4" stroke="#13110C" stroke-miterlimit="10"/>
<path d="M136.9 148.2C136.9 147.6 137.4 147.2 137.9 147.2C138.5 147.2 138.9 147.6 138.9 148.2C138.9 148.8 138.4 149.2 137.9 149.2C137.4 149.2 136.9 148.8 136.9 148.2Z" fill="#211C4B"/>
<path d="M84.2 164C81.2 165.7 81.5001 168.5 81.5001 168.5C81.5001 170.8 79.7 170 79.7 170C79.6 161.9 85.3001 162.4 85.3001 162.4C90.8001 162.3 90.3001 170 90.3001 170C90.3001 170 88.7 170.5 88.7 169.4C88.7 169.4 88.6002 164 85.6002 164H84.2Z" fill="#FFE922"/>
<path d="M71.4 166.7C69.3 169.5 70.8001 171.9 70.8001 171.9C71.7001 174 69.7 174 69.7 174C66.4 166.6 71.8001 164.8 71.8001 164.8C76.8001 162.5 79.4 169.8 79.4 169.8C79.4 169.8 78.1 170.9 77.7 169.9C77.7 169.9 75.5 165 72.7 166.2L71.4 166.7Z" fill="#FFE922"/>
<path d="M96.3999 165.3C93.0999 166.2 92.7 169 92.7 169C92.1 171.3 90.6001 170 90.6001 170C92.5001 162.1 97.8 163.9 97.8 163.9C103.2 165.1 100.8 172.5 100.8 172.5C100.8 172.5 99.0999 172.6 99.3999 171.5C99.3999 171.5 100.6 166.3 97.7 165.5L96.3999 165.3Z" fill="#FFE922"/>
<path d="M107.9 169.6C104.5 169.9 103.6 172.5 103.6 172.5C102.6 174.6 101.4 173.1 101.4 173.1C104.8 165.7 109.7 168.5 109.7 168.5C114.8 170.7 111 177.5 111 177.5C111 177.5 109.3 177.3 109.8 176.2C109.8 176.2 112 171.3 109.2 170L107.9 169.6Z" fill="#FFE922"/>
<path d="M108.6 173C108.6 171.8 108.9 170.9 109.2 170.9C109.5 170.9 109.8 171.8 109.8 173C109.8 174.2 109.5 175.1 109.2 175.1C108.9 175.1 108.6 174.1 108.6 173Z" fill="#FFE922"/>
<path d="M105.9 171C106.9 170.3 107.8 170 108 170.3C108.2 170.6 107.6 171.3 106.6 172C105.6 172.7 104.7 173 104.5 172.7C104.3 172.4 105 171.7 105.9 171Z" fill="#FFE922"/>
<path d="M97.8999 168.5C97.8999 167.3 98.2 166.4 98.5 166.4C98.8 166.4 99.1001 167.3 99.1001 168.5C99.1001 169.7 98.8 170.6 98.5 170.6C98.1 170.6 97.8999 169.6 97.8999 168.5Z" fill="#FFE922"/>
<path d="M95.1999 166.6C96.1999 165.9 97.1 165.6 97.3 165.9C97.5 166.2 96.8999 166.9 95.8999 167.6C94.8999 168.3 94 168.6 93.8 168.3C93.6 168 94.1999 167.2 95.1999 166.6Z" fill="#FFE922"/>
<path d="M86.2001 166.7C85.8001 165.6 85.7001 164.6 86.0001 164.5C86.3001 164.4 86.9 165.1 87.4 166.2C87.8 167.3 87.9002 168.3 87.6002 168.4C87.3002 168.6 86.7001 167.8 86.2001 166.7Z" fill="#FFE922"/>
<path d="M83.0002 165.9C83.6002 164.9 84.4002 164.3 84.7002 164.5C85.0002 164.7 84.7002 165.6 84.0002 166.6C83.4002 167.6 82.6003 168.2 82.3003 168C82.0003 167.8 82.4002 166.9 83.0002 165.9Z" fill="#FFE922"/>
<path d="M74.5002 168.5C73.6002 167.8 73.0002 167 73.2002 166.7C73.4002 166.4 74.3003 166.8 75.3003 167.5C76.2003 168.2 76.8002 169 76.6002 169.3C76.3002 169.5 75.4002 169.2 74.5002 168.5Z" fill="#FFE922"/>
<path d="M71.3003 169.5C71.4003 168.3 71.7002 167.4 72.0002 167.4C72.3002 167.4 72.6002 168.4 72.5002 169.5C72.4002 170.7 72.1003 171.6 71.8003 171.6C71.5003 171.6 71.3003 170.7 71.3003 169.5Z" fill="#FFE922"/>
<path d="M63.9001 173.9C63.0001 173.2 62.4001 172.4 62.6001 172.1C62.8001 171.8 63.7 172.2 64.7 172.9C65.6 173.6 66.2001 174.4 66.0001 174.7C65.7001 174.9 64.8001 174.6 63.9001 173.9Z" fill="#FFE922"/>
<path d="M60.7003 174.9C60.8003 173.7 61.1004 172.8 61.4004 172.8C61.7004 172.8 62.0004 173.8 61.9004 174.9C61.8004 176.1 61.5003 177 61.2003 177C60.9003 177 60.6003 176.1 60.7003 174.9Z" fill="#FFE922"/>
<path d="M105.3 168.2C105.742 168.2 106.1 167.842 106.1 167.4C106.1 166.958 105.742 166.6 105.3 166.6C104.858 166.6 104.5 166.958 104.5 167.4C104.5 167.842 104.858 168.2 105.3 168.2Z" fill="#FFE922"/>
<path d="M101.9 166.5C101.9 166.1 102.3 165.7 102.7 165.7C103.1 165.7 103.5 166.1 103.5 166.5C103.5 166.9 103.1 167.3 102.7 167.3C102.2 167.2 101.9 166.9 101.9 166.5Z" fill="#FFE922"/>
<path d="M91.9 164.2C91.8 163.8 92.1002 163.4 92.6002 163.3C93.0002 163.2 93.4001 163.5 93.5001 164C93.6001 164.4 93.3002 164.8 92.8002 164.9C92.3002 165 92 164.6 91.9 164.2Z" fill="#FFE922"/>
<path d="M89.2003 163.6C89.1003 163.2 89.4003 162.8 89.9003 162.7C90.4003 162.6 90.7004 162.9 90.8004 163.4C90.9004 163.8 90.6005 164.2 90.1005 164.3C89.7005 164.3 89.3003 164 89.2003 163.6Z" fill="#FFE922"/>
<path d="M78.8003 164.3C78.6003 163.9 78.8003 163.4 79.3003 163.3C79.7003 163.1 80.2003 163.4 80.3003 163.8C80.5003 164.2 80.3003 164.7 79.8003 164.8C79.4003 165 79.0003 164.8 78.8003 164.3Z" fill="#FFE922"/>
<path d="M76 164.4C75.8 164 76 163.5 76.5 163.4C76.9 163.2 77.4 163.5 77.5 163.9C77.6 164.3 77.5 164.8 77 164.9C76.6 165 76.2 164.8 76 164.4Z" fill="#FFE922"/>
<path d="M67.2001 168C66.9001 167.7 66.9001 167.2 67.2001 166.9C67.5001 166.6 68.0002 166.6 68.3002 166.9C68.6002 167.2 68.6002 167.7 68.3002 168C68.0002 168.3 67.5001 168.3 67.2001 168Z" fill="#FFE922"/>
<path d="M64.7001 169.2C64.4001 168.9 64.4001 168.4 64.7001 168.1C65.0001 167.8 65.5002 167.8 65.8002 168.1C66.1002 168.4 66.1002 168.9 65.8002 169.2C65.5002 169.5 65.0001 169.5 64.7001 169.2Z" fill="#FFE922"/>
<path d="M56.2001 175.4C55.9001 175.1 55.9001 174.6 56.2001 174.3C56.5001 174 57.0002 174 57.3002 174.3C57.6002 174.6 57.6002 175.1 57.3002 175.4C57.0002 175.7 56.5001 175.7 56.2001 175.4Z" fill="#FFE922"/>
<path d="M112.7 171.6C112.7 171.2 113.1 170.8 113.5 170.8C113.9 170.8 114.3 171.2 114.3 171.6C114.3 172 113.9 172.4 113.5 172.4C113.1 172.4 112.7 172.1 112.7 171.6Z" fill="#FFE922"/>
<path d="M87.6003 162C87.6003 162 78.9002 161.7 73.2002 163.6C73.2002 163.6 69.4003 164.8 68.3003 165.4C55.6003 171.8 53.7002 176.6 53.7002 176.6L50.9003 177.3L49.8003 176.3C52.6003 171.6 66.5002 163.5 66.5002 163.5C76.8002 157.7 91.4001 159.7 91.4001 159.7C109.2 163.3 116.1 169.1 116.1 169.1L115 171.2C115 171.2 104.5 164.1 96.0002 163C96.1002 163 88.5003 162 87.6003 162Z" fill="white" stroke="#13110C" stroke-miterlimit="10"/>
<path d="M115.4 168.6L97.3004 133.7L102.7 126.6H98.1005L82.1003 149.2L72.4004 134.5L77.6003 126.5H73.2003L70.1003 131.6L67.8004 128.9C67.8004 128.9 67.4004 133 67.0004 133.6L70.1003 137.2L65.2003 144.6C65.2003 144.6 63.3004 151.9 61.9004 153.8L71.9004 141.1L79.6003 152L73.2003 160.7C73.2003 160.7 77.5004 159.8 78.3004 159.7L95.1005 136.7L110.8 165.9C110.8 166 114.8 168.2 115.4 168.6Z" fill="#FFE922" stroke="#13110C" stroke-miterlimit="10"/>
<path d="M99.7 145.2L97.1001 140.5L96.1001 160.8L98.5 161.4L99.7 145.2Z" fill="#FFE922" stroke="#13110C" stroke-miterlimit="10"/>
<path d="M90.7002 159.6L91.1003 142.3L88.6003 145.7L87.8003 159.4L90.7002 159.6Z" fill="#FFE922" stroke="#13110C" stroke-miterlimit="10"/>
<path d="M96.1003 160.8L90.7002 159.6L91.1003 142.3L95.1003 136.8L97.1003 140.5L96.1003 160.8Z" fill="white" stroke="#13110C" stroke-miterlimit="10"/>
<path d="M92.3999 157.2C92.3999 156.6 92.9 156.1 93.5 156.1C94.1 156.1 94.6001 156.6 94.6001 157.2C94.6001 157.8 94.1 158.3 93.5 158.3C92.9 158.3 92.3999 157.8 92.3999 157.2Z" fill="#211C4B"/>
<path d="M92.6001 153.8C92.6001 153.2 93.1 152.7 93.7 152.7C94.3 152.7 94.8 153.2 94.8 153.8C94.8 154.4 94.3 154.9 93.7 154.9C93.1 154.9 92.6001 154.4 92.6001 153.8Z" fill="#211C4B"/>
<path d="M92.8003 150.2C92.8003 149.6 93.3001 149.1 93.9001 149.1C94.5001 149.1 95.0002 149.6 95.0002 150.2C95.0002 150.8 94.5001 151.3 93.9001 151.3C93.3001 151.3 92.8003 150.8 92.8003 150.2Z" fill="#211C4B"/>
<path d="M93.1001 146C93.1001 145.4 93.6 144.9 94.2 144.9C94.8 144.9 95.3 145.4 95.3 146C95.3 146.6 94.8 147.1 94.2 147.1C93.5 147.1 93.1001 146.6 93.1001 146Z" fill="#211C4B"/>
<path d="M93.3003 142.3C93.3003 141.7 93.8001 141.2 94.4001 141.2C95.0001 141.2 95.5002 141.7 95.5002 142.3C95.5002 142.9 95.0001 143.4 94.4001 143.4C93.8001 143.4 93.3003 142.9 93.3003 142.3Z" fill="#211C4B"/>
<path d="M107.3 161.1C107.3 161.1 104.5 159.1 99.6001 157.9" stroke="#FFE922" stroke-miterlimit="10"/>
<path d="M103.9 155.6L100 153.8" stroke="#FFE922" stroke-miterlimit="10"/>
<path d="M101.9 151L100 150.2" stroke="#FFE922" stroke-miterlimit="10"/>
<path d="M87.1003 156.4H81.8003" stroke="#FFE922" stroke-miterlimit="10"/>
<path d="M87.5002 152.4H84.8003" stroke="#FFE922" stroke-miterlimit="10"/>
<path d="M87.8 149.1H87.1001" stroke="#FFE922" stroke-miterlimit="10"/>
<path d="M42.9004 172.6C49.4004 168.7 58.3004 148.8 58.3004 148.8C62.5004 137.8 62.5004 126.6 62.5004 126.6H67.8004C67.8004 126.6 67.3004 148.3 56.8004 162.4C56.8004 162.4 52.0004 169.5 46.9004 175L42.9004 172.6Z" fill="#211C4B" stroke="#13110C" stroke-miterlimit="10"/>
<path d="M45.5 172C45.5 171.4 46 170.9 46.6 170.9C47.2 170.9 47.7 171.4 47.7 172C47.7 172.6 47.2 173.1 46.6 173.1C46 173.1 45.5 172.6 45.5 172Z" fill="white"/>
<path d="M51 165.7C51 165.1 51.5 164.6 52.1 164.6C52.7 164.6 53.2 165.1 53.2 165.7C53.2 166.3 52.7 166.8 52.1 166.8C51.5 166.8 51 166.3 51 165.7Z" fill="white"/>
<path d="M54.9004 158.9C54.9004 158.3 55.4004 157.8 56.0004 157.8C56.6004 157.8 57.1003 158.3 57.1003 158.9C57.1003 159.5 56.6004 160 56.0004 160C55.4004 160 54.9004 159.5 54.9004 158.9Z" fill="white"/>
<path d="M58.5 152.4C58.5 151.8 59 151.3 59.6 151.3C60.2 151.3 60.7 151.8 60.7 152.4C60.7 153 60.2 153.5 59.6 153.5C59 153.5 58.5 153 58.5 152.4Z" fill="white"/>
<path d="M61.4004 144.1C61.4004 143.5 61.9004 143 62.5004 143C63.1004 143 63.6003 143.5 63.6003 144.1C63.6003 144.7 63.1004 145.2 62.5004 145.2C61.9004 145.2 61.4004 144.8 61.4004 144.1Z" fill="white"/>
<path d="M63.1001 136.8C63.1001 136.2 63.6001 135.7 64.2001 135.7C64.8001 135.7 65.3002 136.2 65.3002 136.8C65.3002 137.4 64.8001 137.9 64.2001 137.9C63.6001 137.9 63.1001 137.4 63.1001 136.8Z" fill="white"/>
<path d="M64.2002 129.3C64.2002 128.7 64.7003 128.2 65.3003 128.2C65.9003 128.2 66.4003 128.7 66.4003 129.3C66.4003 129.9 65.9003 130.4 65.3003 130.4C64.6003 130.4 64.2002 129.9 64.2002 129.3Z" fill="white"/>
<path d="M73.1002 160.9L79.5002 152.2L71.8003 141.3L61.8003 154C61.8003 154 55.6003 166 46.8003 175L49.7002 176.3C49.7002 176.3 53.8003 170.7 65.9003 164.3C68.1003 163.1 70.5002 162 73.1002 160.9Z" fill="#E31518" stroke="#13110C" stroke-miterlimit="10"/>
<path d="M75.9003 152.4L66.5002 163.5C66.5002 163.5 56.8003 168.5 49.8003 176.3L71.7002 146.6L75.9003 152.4Z" fill="#13110C" stroke="#13110C" stroke-miterlimit="10"/>
<path d="M73.5002 151.9L63.7002 163.8" stroke="white" stroke-width="0.5" stroke-miterlimit="10"/>
<path d="M71.9003 150.2L58.3003 167.4" stroke="white" stroke-width="0.5" stroke-miterlimit="10"/>
<path d="M98.1003 126.6L82.0002 149.2L72.3003 134.6L77.6002 126.6H98.1003Z" fill="#E31518" stroke="#13110C" stroke-miterlimit="10"/>
<path d="M93.7003 126.6L81.7003 142.3L75.9004 134L81.8004 126.6H91.4003H93.7003Z" fill="#13110C" stroke="#13110C" stroke-miterlimit="10"/>
<path d="M91.4001 126.6L82.1002 139L78.3003 134.4L84.8003 126.6H86.8003L81.0002 134.2L82.5002 135.7L89.1003 126.6H91.4001Z" fill="white" stroke="#13110C" stroke-miterlimit="10"/>
<path d="M73.1002 126.6L70.1002 131.7L67.8003 129.1V126.6H73.1002Z" fill="#E31518" stroke="#13110C" stroke-miterlimit="10"/>
<path d="M70.1002 137.3L67.1002 133.9C67.1002 133.9 64.8003 145.2 64.8003 145C64.9003 144.8 70.1002 137.3 70.1002 137.3Z" fill="#E31518" stroke="#13110C" stroke-miterlimit="10"/>
<path d="M62.5002 126.6H58.0002H53.8003C53.8003 126.6 53.2003 138.6 48.8003 146.6C48.8003 146.6 43.8002 158.9 37.7002 166.5L35.7002 169.4L43.0002 172.6C43.0002 172.6 47.5002 169.9 53.5002 158.6C53.5002 158.6 58.6003 149.7 59.9003 144.2C59.9003 144.2 61.3003 140.2 62.3003 130.4C62.4003 129.5 62.5002 128.6 62.5002 127.6V126.6Z" fill="#E31518" stroke="#13110C" stroke-miterlimit="10"/>
<path d="M54.9004 126.6L61.9004 132.2L62.2003 130.4L61.9004 130.1L58.0004 126.6H54.9004Z" fill="#FFE922" stroke="#13110C" stroke-miterlimit="10"/>
<path d="M62.5 126.6L62.2 130.4L58 126.6H62.5Z" fill="white" stroke="#13110C" stroke-miterlimit="10"/>
<path d="M61.9004 132.2V134.3L54.9004 137.3V137.9L59.9004 144.1L59.3004 146L51.9004 138.3L52.4004 136.4L61.9004 132.2Z" fill="#FFE922" stroke="#13110C" stroke-miterlimit="10"/>
<path d="M59.1001 146.5L47.8002 148.8L47.1001 150.2L52.6001 160L53.7001 158L49.8002 151L50.0001 150.2L58.6001 148.1L59.3002 146" fill="#FFE922"/>
<path d="M59.1001 146.5L47.8002 148.8L47.1001 150.2L52.6001 160L53.7001 158L49.8002 151L50.0001 150.2L58.6001 148.1L59.3002 146" stroke="#13110C" stroke-miterlimit="10"/>
<path d="M52.4004 160.3L51.6003 161.9L43.9004 162.3L42.6003 163.8L44.8004 170.9L42.9004 172.6L40.4004 162.7L41.8004 160.3L52.6003 160" fill="#FFE922"/>
<path d="M52.4004 160.3L51.6003 161.9L43.9004 162.3L42.6003 163.8L44.8004 170.9L42.9004 172.6L40.4004 162.7L41.8004 160.3L52.6003 160" stroke="#13110C" stroke-miterlimit="10"/>
<path d="M51.6003 161.9L45.9004 162.2L48.4004 166.8L43.4004 166.2L44.8004 170.9" fill="white"/>
<path d="M58.6 148.1L53.2 149.6L55.4 152.9H51L53.7 158" fill="white"/>
<path d="M61.8003 134.4L57.5002 136.4L60.2002 138.7L56.8003 140.3L59.9003 144.1" fill="white"/>
<path d="M57.5004 136.4L60.2003 138.7L56.8004 140.3L54.9004 137.9V137.3L57.5004 136.4Z" fill="#211C4B"/>
<path d="M55.4003 152.9L53.2002 149.6L50.0002 150.2L49.8003 151L51.0002 152.9" fill="#211C4B"/>
<path d="M48.4001 166.8L45.9001 162.2L43.9001 162.3L42.6001 163.8L43.4001 166.2L48.4001 166.8Z" fill="#211C4B"/>
<path d="M46.6001 157.1C46.6001 156.6 47.0001 156.2 47.5001 156.2C48.0001 156.2 48.4001 156.6 48.4001 157.1C48.4001 157.6 48.0001 158 47.5001 158C47.0001 158 46.6001 157.6 46.6001 157.1Z" fill="white"/>
<path d="M52.3003 144.4C52.3003 143.9 52.7002 143.6 53.1002 143.6C53.5002 143.6 53.9003 144 53.9003 144.4C53.9003 144.9 53.5002 145.2 53.1002 145.2C52.7002 145.2 52.3003 144.8 52.3003 144.4Z" fill="white"/>
<path d="M55.3003 131.7C55.3003 131.1 55.8003 130.7 56.3003 130.7C56.9003 130.7 57.3003 131.2 57.3003 131.7C57.3003 132.2 56.8003 132.7 56.3003 132.7C55.7003 132.8 55.3003 132.3 55.3003 131.7Z" fill="white"/>
<path d="M37.7002 168.6C37.7002 168.1 38.1002 167.7 38.6002 167.7C39.1002 167.7 39.5002 168.1 39.5002 168.6C39.5002 169.1 39.1002 169.5 38.6002 169.5C38.1002 169.5 37.7002 169.1 37.7002 168.6Z" fill="white"/>
<path d="M44.3004 126.6H35.0004L34.9004 153.7C35.0004 153.7 41.0004 146.6 44.3004 126.6Z" fill="#E31518" stroke="#13110C" stroke-miterlimit="10"/>
<path d="M36.2002 128.5H42.3003" stroke="#942830" stroke-miterlimit="10"/>
<path d="M36.7002 130.7H41.9003" stroke="#942830" stroke-miterlimit="10"/>
<path d="M36.4004 132.8H41.6003" stroke="#942830" stroke-miterlimit="10"/>
<path d="M36.4004 135.2H41.2003" stroke="#942830" stroke-miterlimit="10"/>
<path d="M36.2002 137.6H40.5002" stroke="#942830" stroke-miterlimit="10"/>
<path d="M36.2002 139.4H39.6002" stroke="#942830" stroke-miterlimit="10"/>
<path d="M36.1001 141.7H39.2001" stroke="#942830" stroke-miterlimit="10"/>
<path d="M36.4004 143.5H38.4004" stroke="#942830" stroke-miterlimit="10"/>
<path d="M36.2002 145.6H37.9003" stroke="#942830" stroke-miterlimit="10"/>
<path d="M36.2002 147.6H37.1002" stroke="#942830" stroke-miterlimit="10"/>
<path d="M108 126.6C107.4 129.4 108 139.4 108 139.4C108.7 152.2 116.1 169.1 116.1 169.1L118.5 164.5C118.5 164.5 115.4 154.9 114.3 145C114.3 145 112.7 133.3 113.1 126.6H108Z" fill="#211C4B" stroke="#13110C" stroke-miterlimit="10"/>
<path d="M114.3 161.4C114.3 160.8 114.8 160.3 115.4 160.3C116 160.3 116.5 160.8 116.5 161.4C116.5 162 116 162.5 115.4 162.5C114.8 162.5 114.3 162 114.3 161.4Z" fill="white"/>
<path d="M112.4 153.8C112.4 153.2 112.9 152.7 113.5 152.7C114.1 152.7 114.6 153.2 114.6 153.8C114.6 154.4 114.1 154.9 113.5 154.9C112.9 154.9 112.4 154.4 112.4 153.8Z" fill="white"/>
<path d="M111.2 146.5C111.2 145.9 111.7 145.4 112.3 145.4C112.9 145.4 113.4 145.9 113.4 146.5C113.4 147.1 112.9 147.6 112.3 147.6C111.7 147.6 111.2 147.2 111.2 146.5Z" fill="white"/>
<path d="M110.3 139C110.3 138.4 110.8 137.9 111.4 137.9C112 137.9 112.5 138.4 112.5 139C112.5 139.6 112 140.1 111.4 140.1C110.7 140.1 110.3 139.6 110.3 139Z" fill="white"/>
<path d="M109.7 131.5C109.7 130.9 110.2 130.4 110.8 130.4C111.4 130.4 111.9 130.9 111.9 131.5C111.9 132.1 111.4 132.6 110.8 132.6C110.2 132.6 109.7 132.1 109.7 131.5Z" fill="white"/>
<path d="M115 167.8L97.3003 133.7L102.5 126.8L108.1 126.6C108.1 126.6 107.1 134.3 108.9 146C109.8 152.3 111.7 159.8 115 167.8Z" fill="#E31518" stroke="#13110C" stroke-miterlimit="10"/>
<path d="M108.6 145.4L101.9 133.8L105.3 128.1L107.8 131.4C107.8 131.5 107.9 144.1 108.6 145.4Z" fill="#13110C" stroke="#13110C" stroke-miterlimit="10"/>
<path d="M104.8 133.9C104.8 133.3 105.3 132.8 105.9 132.8C106.5 132.8 107 133.3 107 133.9C107 134.5 106.5 135 105.9 135C105.3 135 104.8 134.5 104.8 133.9Z" fill="white"/>
<path d="M140.9 126.6H131.4V147.1C131.4 147.1 136.8 142.4 140.9 140V126.6Z" fill="#E31518" stroke="#13110C" stroke-miterlimit="10"/>
<path d="M132.6 128.2H139.7" stroke="#942830" stroke-miterlimit="10"/>
<path d="M132.3 130.4H139.5" stroke="#942830" stroke-miterlimit="10"/>
<path d="M132.5 132.4H139.6" stroke="#942830" stroke-miterlimit="10"/>
<path d="M132.2 134.6H139.4" stroke="#942830" stroke-miterlimit="10"/>
<path d="M132.2 136.3H139.4" stroke="#942830" stroke-miterlimit="10"/>
<path d="M132 138.4H139.2" stroke="#942830" stroke-miterlimit="10"/>
<path d="M132.6 140.4H138.5" stroke="#942830" stroke-miterlimit="10"/>
<path d="M132 142.3H135.9" stroke="#942830" stroke-miterlimit="10"/>
<path d="M131.4 147.1L130.4 148.2C130.4 148.2 126.9 137.5 129.2 126.6H131.4V147.1Z" fill="#211C4B" stroke="#13110C" stroke-miterlimit="10"/>
<path d="M130.4 148.2L127.6 150.7L127.5 150.8C127.5 150.8 123.8 140 125.4 126.6H129.2C129.2 126.6 127.1 139.2 130.4 148.2Z" fill="#FFE922" stroke="#13110C" stroke-miterlimit="10"/>
<path d="M127.6 150.7L124.4 154.7C124.4 154.7 120.7 136.8 122.3 126.6H125.4C125.4 126.6 123.9 139.4 127.6 150.7Z" fill="#211C4B" stroke="#13110C" stroke-miterlimit="10"/>
<path d="M124.4 154.7C124.4 154.7 119.6 160.1 118.5 164.5C118.5 164.5 113.8 148.6 113.8 140.5C113.8 140.5 112.6 128.7 113.1 126.6H122.3C122.3 126.6 120.9 141.1 124.4 154.7Z" fill="#E31518" stroke="#13110C" stroke-miterlimit="10"/>
<path d="M124 153.2L124.4 154.7L123.3 156.1L115.4 152.4L115 150.3L124 153.2Z" fill="#FFE922" stroke="#13110C" stroke-miterlimit="10"/>
<path d="M115 149.6L122.3 143.1V141.2L113.3 135.7L113.6 138.3L120.2 141.6L120.1 143.1L114.7 148.1L115 149.6Z" fill="#FFE922" stroke="#13110C" stroke-miterlimit="10"/>
<path d="M113.4 135L113 133.3L119.7 128.8V127.7L118.1 126.6H122.3L122.1 129.5L113.4 135Z" fill="#FFE922" stroke="#13110C" stroke-miterlimit="10"/>
<path d="M118.5 163.5L120.8 159.5L116.9 158.7L120.7 155.1L115.4 152.4" fill="white"/>
<path d="M115 147.2L118.1 144.1L114.3 142.6L117.3 140.7L113.6 139L115 147.2Z" fill="white"/>
<path d="M113.3 132.6L116.9 130.4L113.5 128.5L116.9 126.9H113.5" fill="white"/>
<path d="M120.7 155.1L123 156.4L120.8 159.5L116.9 158.7" fill="#211C4B"/>
<path d="M118.1 144.1L114.3 142.6L117.3 140.7L120 141.4L120.1 143.1L118.1 144.1Z" fill="#211C4B"/>
<path d="M119.7 127.7V128.8L116.9 130.4L113.5 128.5L116.9 126.9L119.7 127.7Z" fill="#211C4B"/>
<path d="M120 148.8C120 148.3 120.4 148 120.8 148C121.2 148 121.6 148.4 121.6 148.8C121.6 149.3 121.2 149.6 120.8 149.6C120.4 149.6 120 149.3 120 148.8Z" fill="white"/>
<path d="M118.7 135C118.7 134.5 119.1 134.2 119.5 134.2C119.9 134.2 120.3 134.6 120.3 135C120.3 135.5 119.9 135.8 119.5 135.8C119.1 135.8 118.7 135.4 118.7 135Z" fill="white"/>
<path d="M8.6001 37.5002L15.6001 46.3002L22.7001 37.5002L15.7001 28.8002L8.6001 37.5002Z" fill="#E30B13"/>
<path d="M154.8 214.8L161.8 223.7L168.9 214.8L161.8 206.1L154.8 214.8Z" fill="#E30B13"/>
<path d="M39 53.7002L48 65.1002L57.1 53.7002L48.1 42.4001L39 53.7002Z" fill="#E30B13"/>
<path d="M118.5 198.6L127.5 210L136.7 198.6L127.6 187.4L118.5 198.6Z" fill="#E30B13"/>
</svg>
